<?xml version="1.0" encoding="utf-8"?>
<!-- Generator: Adobe Illustrator 23.1.1, SVG Export Plug-In . SVG Version: 6.00 Build 0)  -->
<svg version="1.1" id="Layer_1" xmlns="http://www.w3.org/2000/svg" xmlns:xlink="http://www.w3.org/1999/xlink" x="0px" y="0px"
	 viewBox="0 0 144 288" style="enable-background:new 0 0 144 288;" xml:space="preserve">
<style type="text/css">
	.st0{fill:#8C6BC2;}
	.st1{fill:#FFB900;}
	.st2{fill:#9E83E3;}
	.st3{fill:#FFD055;}
	.st4{fill:#FFE8AA;}
	.st5{fill:#FFFFFF;}
	.st6{fill-rule:evenodd;clip-rule:evenodd;fill:#854CC7;}
	.st7{fill:#52218A;}
	.st8{fill:#6C33AF;}
	.st9{fill:#854CC7;}
	.st10{fill:#B179F1;}
</style>
<g>
	<polygon class="st0" points="92.56,120.87 53.87,120.87 49.48,110.87 96.8,111.23 	"/>
	<path class="st1" d="M91.54,114.3H55.13c-3.6,0-6.52-2.92-6.52-6.51V48.71c0-3.55,2.89-6.43,6.45-6.43h36.48
		c3.6,0,6.52,2.92,6.52,6.51v59.02C98.07,111.39,95.15,114.3,91.54,114.3z"/>
	<path class="st0" d="M49.64,45.11l21.4-29.87c0.72-1,3.04-1,3.78,0l21.96,29.68L49.64,45.11z"/>
	<rect x="53.73" y="120.87" class="st1" width="38.83" height="117.49"/>
	<rect x="53.13" y="224.86" class="st1" width="40.61" height="17"/>
	<polygon class="st2" points="56.62,273.77 34.6,273.77 39.62,255.36 51.6,255.36 	"/>
	<polygon class="st2" points="111.69,273.77 89.67,273.77 94.69,255.36 106.67,255.36 	"/>
	<polygon class="st2" points="84.11,273.77 62.1,273.77 67.11,255.36 79.09,255.36 	"/>
	<path class="st3" d="M36.94,258.85h17.19v-90.99L38.5,180.45c-0.99,0.8-1.56,1.99-1.56,3.27V258.85z"/>
	<path class="st3" d="M109.27,258.85H92.08v-90.99l14.88,11.99c1.46,1.18,2.31,2.95,2.31,4.83V258.85z"/>
	<path class="st3" d="M81.7,183.53c0-1.09-0.3-2.17-0.87-3.1l-6.79-11.14c-0.4-0.65-1.34-0.66-1.75-0.01l-6.79,10.95
		c-0.66,1.06-1.01,2.28-1.01,3.53l-0.02,75.05h17.21L81.7,183.53z"/>
	<rect x="92.08" y="244.94" class="st0" width="17.19" height="13.92"/>
	<rect x="64.49" y="244.94" class="st0" width="17.2" height="13.88"/>
	<rect x="36.94" y="244.94" class="st0" width="17.19" height="13.92"/>
	<rect x="36.94" y="225.44" class="st4" width="17.19" height="1"/>
	<rect x="36.94" y="187.44" class="st4" width="17.19" height="1"/>
	<rect x="36.94" y="206.44" class="st4" width="17.19" height="1"/>
	<rect x="64.5" y="225.44" class="st4" width="17.2" height="1"/>
	<rect x="64.5" y="206.44" class="st4" width="17.2" height="1"/>
	<rect x="64.51" y="187.44" class="st4" width="17.19" height="1"/>
	<rect x="92.08" y="225.44" class="st4" width="17.19" height="1"/>
	<rect x="92.08" y="206.44" class="st4" width="17.19" height="1"/>
	<rect x="92.08" y="187.44" class="st4" width="17.19" height="1"/>
	<path class="st4" d="M80.64,162.33c0,0.27-0.1,0.5-0.29,0.69c-0.19,0.19-0.42,0.29-0.7,0.29s-0.5-0.09-0.7-0.29
		c-0.2-0.19-0.29-0.42-0.29-0.69c0-0.27,0.1-0.51,0.29-0.7c0.2-0.19,0.43-0.29,0.7-0.29s0.5,0.1,0.7,0.29
		C80.54,161.82,80.64,162.06,80.64,162.33z"/>
	<path class="st4" d="M80.44,148.62v1.8l-10.04,6.46c-0.25,0.16-0.52,0.3-0.79,0.4v0.05c0.27-0.05,0.85-0.07,1.73-0.07h9.1v1.47
		h-12.6v-1.91l9.88-6.29c0.41-0.26,0.69-0.44,0.85-0.51V150c-0.36,0.06-0.98,0.09-1.85,0.09h-8.87v-1.47L80.44,148.62L80.44,148.62z
		"/>
	<path class="st4" d="M80.44,138.67v6.66h-12.6v-6.38h1.34v4.91h4.19v-4.54h1.32v4.54h4.41v-5.19H80.44z"/>
	<path class="st4" d="M69.19,128.79v3.63h11.26v1.47H69.19v3.61h-1.34v-8.71L69.19,128.79L69.19,128.79z"/>
	<g>
		<g>
			<path class="st4" d="M84,74.75c-0.01-0.62-0.51-1.11-1.13-1.11l-18.34,0.11c-0.3,0-0.58,0.12-0.79,0.33
				c-0.21,0.21-0.32,0.5-0.32,0.8l0.06,11.55c0,0.24,0.09,0.47,0.27,0.63c0.17,0.17,0.39,0.26,0.63,0.26h0.01l7.13-0.04v2.38h-1.96
				c-0.49,0-0.88,0.39-0.88,0.88s0.39,0.88,0.88,0.88h8.52c0.49,0,0.88-0.39,0.88-0.88s-0.39-0.88-0.88-0.88h-1.96v-2.41l7.05-0.04
				c0.49,0,0.9-0.4,0.89-0.9L84,74.75z"/>
			<path class="st4" d="M80.99,99.27c-0.3-0.94-1.16-1.57-2.15-1.57h-1.56c-0.41,0-0.77,0.26-0.88,0.65l-4.94-0.01
				c-0.15-0.36-0.6-0.65-1.03-0.65h-1.35c-0.99,0-1.85,0.63-2.15,1.57l-2.08,6.52c-0.37,1.18,0.28,2.45,1.47,2.82
				c0.22,0.07,0.45,0.11,0.68,0.11c0.68,0,1.41-0.38,1.84-0.95l2.19-2.4c0.14-0.16,0.35-0.25,0.57-0.25h4.72
				c0.22,0,0.42,0.09,0.57,0.25l2.2,2.41c0.44,0.44,1.03,0.95,1.83,0.95c0.23,0,0.46-0.04,0.68-0.11c1.19-0.37,1.84-1.64,1.47-2.82
				L80.99,99.27z"/>
			<path class="st4" d="M69.85,66.77c0.26,0.25,0.58,0.39,0.94,0.39h0.01l6.08-0.02c0.73,0,1.34-0.6,1.33-1.34l-0.04-14.47
				c0-0.35-0.14-0.69-0.39-0.95c-0.26-0.26-0.59-0.37-0.95-0.39l-6.08,0.02c-0.74,0-1.34,0.6-1.33,1.34l0.04,14.47
				C69.46,66.18,69.6,66.51,69.85,66.77z"/>
		</g>
		<path class="st1" d="M76.95,51.65c0-0.07-0.06-0.14-0.12-0.14l-0.94,0.01l-0.29,0.74c-0.04,0.12-0.15,0.19-0.27,0.19H72.3
			c-0.12,0-0.23-0.08-0.27-0.21l-0.24-0.71l-0.99,0.01c-0.07,0-0.12,0.06-0.12,0.14l0.08,13.76c0,0.07,0.06,0.13,0.12,0.13
			l5.96,0.09c0.07,0,0.12-0.06,0.12-0.14L76.95,51.65z"/>
	</g>
	<polygon class="st1" points="82.63,85.75 64.95,85.86 64.88,75.16 82.55,75.05 	"/>
	<g>
		<ellipse class="st1" cx="69.7" cy="100.62" rx="1.56" ry="1.56"/>
		<ellipse class="st1" cx="78.27" cy="100.62" rx="1.56" ry="1.56"/>
		<path class="st1" d="M75.23,100.85h-2.6c-0.26,0-0.47-0.21-0.47-0.47l0,0c0-0.26,0.21-0.47,0.47-0.47h2.6
			c0.26,0,0.47,0.21,0.47,0.47l0,0C75.7,100.64,75.49,100.85,75.23,100.85z"/>
		<ellipse class="st1" cx="71.7" cy="103.39" rx="0.73" ry="0.73"/>
		<ellipse class="st1" cx="76.32" cy="103.39" rx="0.73" ry="0.73"/>
	</g>
	<g>
		<g>
			<path class="st5" d="M74.71,167.12c0.56-0.21,1.18-0.17,1.72,0.09l2.72,1.36c0.69,0.34,1.13,1.03,1.13,1.77v8.9
				c0,0.75-0.44,1.42-1.13,1.77l-2.72,1.36c-0.53,0.27-1.16,0.3-1.72,0.09l-7.72-2.85c-0.81-0.3-1.34-1.04-1.34-1.87v-5.92
				c0-0.83,0.53-1.57,1.34-1.87L74.71,167.12z"/>
		</g>
		<path class="st6" d="M78.83,169.18l-2.72-1.36c-0.36-0.18-0.78-0.21-1.16-0.06l-7.72,2.85c-0.55,0.2-0.88,0.7-0.88,1.21v5.92
			c0,0.52,0.34,1.01,0.88,1.21l7.72,2.85c0.38,0.14,0.8,0.12,1.16-0.06l2.72-1.36c0.47-0.23,0.74-0.68,0.74-1.15v-8.9
			C79.57,169.86,79.3,169.41,78.83,169.18z M76.43,167.21c-0.53-0.27-1.16-0.3-1.72-0.09l-7.72,2.85c-0.81,0.3-1.34,1.04-1.34,1.87
			v5.92c0,0.83,0.53,1.57,1.34,1.87l7.72,2.85c0.56,0.21,1.18,0.17,1.72-0.09l2.72-1.36c0.69-0.34,1.13-1.03,1.13-1.77v-8.9
			c0-0.75-0.44-1.42-1.13-1.77L76.43,167.21z"/>
		<path class="st7" d="M69.19,177.74c-0.12,0.11-0.29,0.13-0.44,0.07L68,177.48c-0.16-0.07-0.26-0.22-0.26-0.4v-4.59
			c0-0.17,0.1-0.33,0.26-0.4l0.76-0.32c0.14-0.06,0.31-0.04,0.44,0.07l0.17,0.15c-0.16-0.11-0.37,0-0.37,0.19v5.21
			c0,0.19,0.21,0.3,0.37,0.19L69.19,177.74z"/>
		<g>
			<path class="st8" d="M68.01,177.48c-0.16-0.07-0.27-0.22-0.27-0.4v-0.04c0,0.23,0.29,0.34,0.44,0.17l6.74-7.44
				c0.19-0.19,0.49-0.25,0.74-0.12l2.15,1.04c0.22,0.11,0.37,0.34,0.37,0.59v0.02c0-0.35-0.4-0.54-0.67-0.32l-8.08,6.61l-0.18,0.15
				c-0.12,0.11-0.3,0.14-0.45,0.07L68.01,177.48z"/>
		</g>
		<g>
			<path class="st9" d="M68.01,172.1c-0.16,0.07-0.27,0.22-0.27,0.4v0.04c0-0.23,0.29-0.34,0.44-0.17l6.74,7.44
				c0.19,0.19,0.49,0.25,0.74,0.12l2.15-1.04c0.22-0.11,0.37-0.34,0.37-0.59v-0.02c0,0.35-0.4,0.54-0.67,0.32l-8.08-6.61l-0.18-0.15
				c-0.12-0.11-0.3-0.14-0.45-0.07L68.01,172.1z"/>
		</g>
		<g>
			<path class="st10" d="M75.68,179.93c-0.25,0.12-0.54,0.07-0.73-0.12c0.24,0.24,0.65,0.07,0.65-0.27v-9.49
				c0-0.34-0.41-0.52-0.65-0.27c0.19-0.2,0.49-0.25,0.73-0.12l2.13,1.04c0.22,0.11,0.37,0.34,0.37,0.59v7.03
				c0,0.26-0.14,0.48-0.37,0.59L75.68,179.93z"/>
		</g>
	</g>
</g>
</svg>
