<?xml version="1.0" encoding="utf-8"?>
<!-- Generator: Adobe Illustrator 23.1.1, SVG Export Plug-In . SVG Version: 6.00 Build 0)  -->
<svg version="1.1" id="Layer_1" xmlns="http://www.w3.org/2000/svg" xmlns:xlink="http://www.w3.org/1999/xlink" x="0px" y="0px"
	 viewBox="0 0 360 540" style="enable-background:new 0 0 360 540;" xml:space="preserve">
<style type="text/css">
	.st0{fill:#EEEAFF;}
	.st1{fill:#E0D8FF;}
	.st2{fill:url(#SVGID_1_);}
	.st3{fill:#9E83E3;}
	.st4{fill:#FFB900;}
	.st5{fill:#FFE8AA;}
	.st6{fill:#E3646A;}
	.st7{fill:url(#SVGID_2_);}
	.st8{fill:url(#SVGID_3_);}
	.st9{fill:url(#SVGID_4_);}
	.st10{fill:#FFD055;}
	.st11{fill:#8C6BC2;}
	.st12{fill:#FFFFFF;}
	.st13{fill-rule:evenodd;clip-rule:evenodd;fill:#854CC7;}
	.st14{fill:#52218A;}
	.st15{fill:#6C33AF;}
	.st16{fill:#854CC7;}
	.st17{fill:#B179F1;}
</style>
<g>
	<g>
		<path class="st0" d="M359.39,534.36v-86.98c-6.56-0.18-12.38,3.47-15.23,8.98c-1.35-0.74-2.89-1.2-4.53-1.29
			c-0.96-0.05-1.89,0.03-2.79,0.22c0.37-1.19,0.6-2.44,0.67-3.73c0.46-8.39-5.97-15.56-14.36-16.02c-1.62-0.09-3.2,0.08-4.69,0.47
			c-1.67-3.77-5.34-6.49-9.74-6.73c-1.43-0.08-2.81,0.11-4.09,0.53c-1.91-5.11-6.7-8.87-12.49-9.19
			c-7.64-0.42-14.19,5.31-14.86,12.87c-3.15-1.64-6.73-2.57-10.52-2.57c-8.04,0-15.1,4.16-19.17,10.44
			c-3.01-6.13-9.31-10.35-16.6-10.35c-9.56,0-17.42,7.26-18.39,16.56c-0.68-0.13-1.38-0.22-2.09-0.26
			c-8.59-0.47-15.92,6.11-16.39,14.7c-0.06,1.04,0,2.07,0.14,3.06c-3.8,1.54-6.9,4.44-8.7,8.09c-1.42-0.73-3-1.18-4.7-1.27
			c-6.24-0.34-11.61,4.29-12.25,10.44c-0.89-0.29-1.84-0.48-2.82-0.53c-6.05-0.33-11.22,4.31-11.55,10.35
			c-0.13,2.36,0.5,4.59,1.68,6.45c-20.96,10.77-13.44,31.81-15,33.84L359.39,534.36z"/>
		<path class="st1" d="M359.39,488.22c-4.24-12.75-17.03-21.13-30.85-19.33c-11.19,1.46-20.02,9.19-23.42,19.2
			c-7.5-8.83-19.17-13.81-31.52-12.2c-5.83,0.76-11.13,2.9-15.64,6.05c-2.54-11.48-13.75-18.96-25.39-16.79
			c-8.83,1.64-15.43,8.37-17.34,16.6c-2.05-0.38-4.21-0.4-6.39,0.01c-6.7,1.25-11.79,6.16-13.6,12.27c-2.37-0.3-4.82-0.25-7.29,0.21
			c-12.79,2.38-21.23,14.68-18.85,27.46c0.37,1.98,0.97,3.85,1.78,5.6c-1.41-0.11-2.86-0.05-4.32,0.23
			c-2.51,0.47-4.77,1.48-6.7,2.89c-5.6-8.06-15.58-12.55-25.86-10.64c-10.52,1.96-18.33,10.06-20.45,19.91h245.84V488.22z"/>
		<g>
			
				<linearGradient id="SVGID_1_" gradientUnits="userSpaceOnUse" x1="1589.5947" y1="298.9896" x2="1589.5947" y2="248.0351" gradientTransform="matrix(0.9554 -0.213 0.2176 0.976 -1317.7513 345.2563)">
				<stop  offset="0.1404" style="stop-color:#FFFFFF"/>
				<stop  offset="0.9949" style="stop-color:#EEEAFF"/>
			</linearGradient>
			<polygon class="st2" points="280.39,295.23 251.53,301.66 240.44,251.93 269.3,245.5 			"/>
			<g>
				<polygon class="st3" points="269.25,246.33 239.84,253.29 234.7,246.46 270.73,238.22 				"/>
				<path class="st4" d="M267.29,241.51l-27.67,6.55c-2.74,0.65-5.48-1.05-6.13-3.78l-10.66-45.03c-0.64-2.71,1.03-5.42,3.74-6.06
					l27.73-6.56c2.74-0.65,5.48,1.05,6.13,3.78l10.65,44.98C271.72,238.11,270.03,240.86,267.29,241.51z"/>
				<path class="st3" d="M222.96,196.31l10.88-26.62c0.37-0.89,2.13-1.3,2.87-0.68l22.04,18.67L222.96,196.31z"/>
				<g>
					<g>
						<g>
							<path class="st5" d="M254.42,212.72c-0.11-0.47-0.59-0.75-1.06-0.64l-13.92,3.38c-0.23,0.06-0.42,0.2-0.54,0.39
								c-0.12,0.2-0.16,0.43-0.1,0.66l2.13,8.79c0.04,0.18,0.16,0.34,0.32,0.43c0.16,0.1,0.35,0.13,0.53,0.08c0,0,0,0,0,0l5.42-1.32
								l0.43,1.81l-1.49,0.35c-0.37,0.09-0.6,0.46-0.51,0.82c0.09,0.37,0.46,0.6,0.82,0.51l6.47-1.53c0.37-0.09,0.6-0.46,0.51-0.82
								c-0.09-0.37-0.46-0.6-0.82-0.51l-1.49,0.35l-0.43-1.84l5.36-1.3c0.38-0.09,0.61-0.47,0.52-0.85L254.42,212.72z"/>
							<path class="st5" d="M256.55,231.95c-0.4-0.66-1.17-0.99-1.92-0.81l-1.18,0.28c-0.31,0.07-0.53,0.34-0.56,0.65l-3.76,0.89
								c-0.18-0.25-0.57-0.38-0.9-0.3l-1.03,0.24c-0.75,0.18-1.29,0.81-1.35,1.58l-0.4,5.35c-0.07,0.97,0.66,1.82,1.62,1.89
								c0.18,0.01,0.36,0,0.54-0.04c0.52-0.12,1-0.54,1.23-1.06l1.23-2.22c0.08-0.15,0.22-0.25,0.39-0.29l3.59-0.85
								c0.16-0.04,0.34-0.01,0.48,0.09l2.1,1.44c0.41,0.26,0.95,0.54,1.56,0.39c0.18-0.04,0.34-0.11,0.5-0.2
								c0.83-0.5,1.1-1.58,0.61-2.42L256.55,231.95z"/>
							<path class="st5" d="M242.23,209.18c0.24,0.14,0.52,0.19,0.79,0.13c0,0,0,0,0,0l4.62-1.11c0.56-0.13,0.91-0.7,0.77-1.26
								l-2.64-11.02c-0.07-0.27-0.23-0.5-0.47-0.65c-0.24-0.15-0.51-0.17-0.79-0.12l-4.62,1.11c-0.56,0.13-0.91,0.7-0.77,1.26
								l2.64,11.02C241.82,208.8,241.99,209.03,242.23,209.18z"/>
						</g>
						<path class="st4" d="M244.89,196.38c-0.01-0.06-0.07-0.09-0.12-0.08l-0.71,0.17l-0.09,0.62c-0.01,0.1-0.08,0.17-0.17,0.19
							l-2.3,0.54c-0.09,0.02-0.19-0.02-0.25-0.11l-0.31-0.5l-0.75,0.18c-0.05,0.01-0.08,0.07-0.07,0.12l2.54,10.48
							c0.01,0.06,0.06,0.09,0.12,0.08l4.55-1.01c0.05-0.01,0.08-0.07,0.07-0.12L244.89,196.38z"/>
					</g>
					<polygon class="st4" points="255.36,221.35 241.95,224.61 239.96,216.47 253.37,213.21 					"/>
					<g>
						<circle class="st4" cx="248.22" cy="235.01" r="1.22"/>
						<circle class="st4" cx="254.73" cy="233.47" r="1.22"/>
						<path class="st4" d="M252.46,234.19l-1.97,0.47c-0.2,0.05-0.39-0.07-0.44-0.27l0,0c-0.05-0.2,0.07-0.39,0.27-0.44l1.97-0.47
							c0.2-0.05,0.39,0.07,0.44,0.27l0,0C252.78,233.95,252.66,234.15,252.46,234.19z"/>
						<circle class="st4" cx="250.24" cy="236.76" r="0.57"/>
						<circle class="st4" cx="253.75" cy="235.93" r="0.57"/>
					</g>
				</g>
			</g>
			<g>
				
					<rect x="260.96" y="294.46" transform="matrix(0.9732 -0.2302 0.2302 0.9732 -70.9521 72.6959)" class="st4" width="30.32" height="92.02"/>
				<path class="st6" d="M264.6,417.85c-1.41,5.74,0.1,16.09,0.1,16.09l0.72-2.03c0,0,1.43,5.2,3.7,10.05
					c1.65,3.54,3.82,6.36,3.82,6.36l-0.36-2.27c0,0,2.02,2.78,4.03,4.74c2.01,1.96,4.79,5.59,4.79,5.59s1.07-5.18,2.14-8.05
					c1.92-5.15,2.03-10,2.03-10l1.04,3.16c0,0,0.58-4.73-0.13-9.02c-0.71-4.33-3.15-9.63-3.15-9.63l1.98,1.64
					c0,0-4.07-7.4-6.3-10.04C278,413.22,264.6,417.85,264.6,417.85z"/>
				
					<radialGradient id="SVGID_2_" cx="761.6263" cy="1764.3403" r="31.808" fx="752.7875" fy="1764.3112" gradientTransform="matrix(0.9732 -0.2302 0.2442 1.0326 -889.5122 -1204.3616)" gradientUnits="userSpaceOnUse">
					<stop  offset="0" style="stop-color:#FAE969"/>
					<stop  offset="0.1077" style="stop-color:#F7B548"/>
					<stop  offset="1" style="stop-color:#E3646A"/>
				</radialGradient>
				<path class="st7" d="M282.52,429.25c-1.86-7.2-5.12-12.84-5.12-12.84l-5.92,1.4l-2.58,0.61l-1.82,0.43c0,0-0.39,6.5,1.17,13.78
					c1.55,7.22,11.12,15.69,11.28,15.82l0,0c0,0,0,0,0,0c0,0,0,0,0,0l0,0C279.6,448.29,284.38,436.4,282.52,429.25z"/>
				<path class="st6" d="M306.32,407.96c-1.51,5.55-0.11,15.5-0.11,15.5l0.76-1.96c0,0,1.39,4.98,3.62,9.63
					c1.63,3.39,3.8,6.08,3.8,6.08l-0.34-2.19c0,0,2.01,2.65,4.03,4.51c2.02,1.86,4.79,5.32,4.79,5.32s1.16-5,2.28-7.78
					c2.02-4.99,2.19-9.66,2.19-9.66l1.02,3.03c0,0,0.65-4.56-0.01-8.69c-0.67-4.16-3.07-9.23-3.07-9.23l1.99,1.55
					c0,0-4.03-7.07-6.26-9.58C319.98,403.32,306.32,407.96,306.32,407.96z"/>
				
					<radialGradient id="SVGID_3_" cx="804.7189" cy="1623.2971" r="32.4002" fx="795.7155" fy="1623.2675" gradientTransform="matrix(0.9732 -0.2302 0.2302 0.9732 -832.4956 -963.2969)" gradientUnits="userSpaceOnUse">
					<stop  offset="0" style="stop-color:#FAE969"/>
					<stop  offset="0.1077" style="stop-color:#F7B548"/>
					<stop  offset="1" style="stop-color:#E3646A"/>
				</radialGradient>
				<path class="st8" d="M324.37,418.7c-1.8-6.91-5.03-12.3-5.03-12.3l-6.03,1.43l-2.63,0.62l-1.86,0.44c0,0-0.48,6.27,1.01,13.25
					c1.48,6.93,11.09,14.96,11.24,15.09l0,0c0,0,0,0,0,0c0,0,0,0,0,0l0,0C321.14,437.08,326.15,425.57,324.37,418.7z"/>
				<path class="st6" d="M300.21,409.49c3.99,5.04,7.54,16.04,7.54,16.04l-1.61-1.67c0,0,1.17,5.84,1.44,11.74
					c0.2,4.3-0.42,8.14-0.42,8.14l-0.75-2.43c0,0-0.49,3.72-1.37,6.62c-0.88,2.9-1.65,7.82-1.65,7.82s-3.42-4.64-5.74-6.98
					c-4.17-4.21-6.56-8.98-6.56-8.98l0.56,3.63c0,0-2.76-4.42-4.16-9.03c-1.41-4.64-1.74-11.07-1.74-11.07l-1,2.57
					c0,0,0.14-9.28,0.89-12.96C286,411.24,300.21,409.49,300.21,409.49z"/>
				
					<radialGradient id="SVGID_4_" cx="-6170.2705" cy="1966.6718" r="32.1123" fx="-6179.1938" fy="1966.6423" gradientTransform="matrix(-0.9732 0.2302 0.2676 1.1313 -6235.2109 -362.4702)" gradientUnits="userSpaceOnUse">
					<stop  offset="0" style="stop-color:#FAE969"/>
					<stop  offset="0.1077" style="stop-color:#F7B548"/>
					<stop  offset="1" style="stop-color:#E3646A"/>
				</radialGradient>
				<path class="st9" d="M289.53,429.32c-1.74-8.04-1.49-15.19-1.49-15.19l5.98-1.41l2.61-0.62l1.84-0.44c0,0,3.43,6.28,5.48,14.25
					c2.03,7.91-2.55,20.86-2.62,21.07l0,0c0,0,0,0,0,0c0,0,0,0,0,0l0,0C301.18,446.86,291.26,437.31,289.53,429.32z"/>
				<path class="st10" d="M262.89,407.38l13.07-3.09l-16.4-69.35l-9.61,12.4c-0.61,0.78-0.83,1.8-0.6,2.77L262.89,407.38z"/>
				
					<rect x="270.17" y="374.73" transform="matrix(0.9732 -0.2302 0.2302 0.9732 -80.1029 76.0742)" class="st4" width="31.72" height="13.31"/>
				<polygon class="st3" points="280.53,415.21 263.8,419.16 264.29,404.23 273.4,402.07 				"/>
				<polygon class="st3" points="322.39,405.31 305.66,409.27 306.15,394.33 315.26,392.17 				"/>
				<polygon class="st3" points="301.43,410.26 284.7,414.22 285.19,399.28 294.3,397.13 				"/>
				<path class="st10" d="M283.33,341.92c-0.2-0.83-0.62-1.6-1.22-2.21l-7.16-7.27c-0.42-0.43-1.14-0.26-1.33,0.31l-3.18,9.57
					c-0.31,0.93-0.35,1.92-0.13,2.87l13.51,57.21l13.08-3.09L283.33,341.92z"/>
				
					<rect x="282.39" y="390.12" transform="matrix(0.9732 -0.2299 0.2299 0.9732 -83.188 77.0533)" class="st11" width="13.44" height="10.87"/>
				
					<rect x="261.45" y="395.08" transform="matrix(0.9732 -0.2302 0.2302 0.9732 -84.9891 72.477)" class="st11" width="13.43" height="10.9"/>
				<g>
					
						<rect x="256.77" y="380.35" transform="matrix(0.9732 -0.2302 0.2302 0.9732 -80.5611 70.8688)" class="st5" width="13.43" height="0.78"/>
					
						<rect x="249.92" y="351.39" transform="matrix(0.9732 -0.2302 0.2302 0.9732 -74.0793 68.5147)" class="st5" width="13.43" height="0.78"/>
					
						<rect x="253.35" y="365.87" transform="matrix(0.9732 -0.2302 0.2302 0.9732 -77.3202 69.6917)" class="st5" width="13.43" height="0.78"/>
				</g>
				<g>
					
						<rect x="277.72" y="375.4" transform="matrix(0.9732 -0.2298 0.2298 0.9732 -78.7479 75.4253)" class="st5" width="13.43" height="0.78"/>
					
						<rect x="274.3" y="360.92" transform="matrix(0.9732 -0.2298 0.2298 0.9732 -75.5117 74.2513)" class="st5" width="13.43" height="0.78"/>
					
						<rect x="270.88" y="346.43" transform="matrix(0.9732 -0.2299 0.2299 0.9732 -72.3088 73.1199)" class="st5" width="13.43" height="0.78"/>
				</g>
				<g>
					<path class="st5" d="M278.7,325.95c0.05,0.2,0.02,0.4-0.1,0.58c-0.11,0.18-0.27,0.29-0.48,0.34c-0.2,0.05-0.4,0.02-0.58-0.09
						c-0.18-0.11-0.3-0.27-0.35-0.47c-0.05-0.21-0.02-0.4,0.1-0.59c0.11-0.18,0.27-0.3,0.48-0.35s0.4-0.02,0.58,0.1
						C278.54,325.58,278.65,325.74,278.7,325.95z"/>
					<path class="st5" d="M276.08,315.53l0.33,1.38l-6.47,6.73c-0.16,0.17-0.34,0.32-0.53,0.45l0.01,0.04
						c0.2-0.08,0.63-0.21,1.3-0.36l6.92-1.64l0.27,1.12l-9.57,2.26l-0.34-1.46l6.38-6.57c0.26-0.27,0.45-0.45,0.55-0.54l-0.01-0.03
						c-0.27,0.11-0.73,0.24-1.39,0.4l-6.74,1.59l-0.27-1.12L276.08,315.53z"/>
					<path class="st5" d="M274.29,307.95l1.2,5.07l-9.57,2.26l-1.15-4.86l1.01-0.24l0.88,3.74l3.18-0.75l-0.82-3.46l1.01-0.24
						l0.82,3.46l3.35-0.79l-0.93-3.95L274.29,307.95z"/>
					<path class="st5" d="M263.95,302.44l0.65,2.76l8.56-2.02l0.27,1.12l-8.56,2.02l0.65,2.76l-1.01,0.24l-1.57-6.64L263.95,302.44z
						"/>
				</g>
				<path class="st10" d="M317.87,394.37l-13.07,3.09l-16.4-69.35l13.47,6.46c1.33,0.64,2.29,1.84,2.63,3.27L317.87,394.37z"/>
				
					<rect x="303.37" y="385.16" transform="matrix(0.9732 -0.2302 0.2302 0.9732 -81.5818 81.8586)" class="st11" width="13.43" height="10.9"/>
				<g>
					
						<rect x="298.69" y="370.44" transform="matrix(0.9732 -0.2302 0.2302 0.9732 -77.1538 80.2504)" class="st5" width="13.43" height="0.78"/>
					
						<rect x="295.26" y="355.96" transform="matrix(0.9732 -0.2302 0.2302 0.9732 -73.9129 79.0733)" class="st5" width="13.43" height="0.78"/>
					
						<rect x="291.84" y="341.48" transform="matrix(0.9732 -0.2302 0.2302 0.9732 -70.672 77.8963)" class="st5" width="13.43" height="0.78"/>
				</g>
			</g>
		</g>
	</g>
	<g>
		<g>
			<path class="st12" d="M275.35,330.47c0.39-0.25,0.86-0.34,1.31-0.23l2.29,0.56c0.58,0.14,1.03,0.58,1.16,1.15l1.55,6.75
				c0.13,0.57-0.08,1.16-0.54,1.54l-1.82,1.5c-0.36,0.29-0.82,0.43-1.28,0.37l-6.34-0.82c-0.66-0.09-1.19-0.56-1.34-1.18l-1.03-4.49
				c-0.14-0.63,0.13-1.28,0.69-1.65L275.35,330.47z"/>
		</g>
		<path class="st13" d="M278.83,331.32l-2.29-0.56c-0.3-0.07-0.63-0.02-0.89,0.15l-5.34,3.5c-0.38,0.25-0.55,0.68-0.46,1.07
			l1.03,4.49c0.09,0.4,0.43,0.71,0.88,0.77l6.34,0.82c0.31,0.04,0.63-0.05,0.87-0.25l1.82-1.5c0.31-0.26,0.44-0.64,0.36-1
			l-1.55-6.75C279.5,331.71,279.22,331.42,278.83,331.32z M276.66,330.24c-0.45-0.11-0.93-0.03-1.31,0.23l-5.34,3.5
			c-0.56,0.37-0.83,1.02-0.69,1.65l1.03,4.49c0.14,0.63,0.68,1.1,1.34,1.18l6.34,0.82c0.46,0.06,0.93-0.07,1.28-0.37l1.82-1.5
			c0.46-0.38,0.67-0.97,0.54-1.54l-1.55-6.75c-0.13-0.57-0.58-1.01-1.16-1.15L276.66,330.24z"/>
		<path class="st14" d="M273.02,339.48c-0.07,0.1-0.19,0.15-0.32,0.13l-0.63-0.12c-0.13-0.02-0.23-0.12-0.26-0.26l-0.8-3.48
			c-0.03-0.13,0.02-0.27,0.13-0.35l0.52-0.38c0.1-0.07,0.23-0.08,0.34-0.02l0.16,0.08c-0.14-0.06-0.28,0.06-0.24,0.21l0.91,3.95
			c0.03,0.15,0.21,0.2,0.31,0.08L273.02,339.48z"/>
		<g>
			<path class="st15" d="M272.08,339.49c-0.13-0.02-0.24-0.12-0.27-0.26l-0.01-0.03c0.04,0.17,0.27,0.21,0.36,0.05l3.8-6.81
				c0.11-0.18,0.33-0.27,0.54-0.22l1.81,0.41c0.19,0.04,0.34,0.19,0.38,0.38l0,0.02c-0.06-0.26-0.4-0.34-0.56-0.12l-4.96,6.42
				l-0.11,0.15c-0.08,0.1-0.2,0.15-0.33,0.13L272.08,339.49z"/>
		</g>
		<g>
			<path class="st16" d="M271.15,335.41c-0.11,0.08-0.16,0.22-0.13,0.35l0.01,0.03c-0.04-0.17,0.16-0.31,0.3-0.2l6.39,4.47
				c0.18,0.11,0.42,0.1,0.58-0.03l1.45-1.16c0.15-0.12,0.22-0.32,0.18-0.51l0-0.02c0.06,0.26-0.21,0.48-0.45,0.36l-7.26-3.61
				l-0.16-0.08c-0.11-0.06-0.25-0.05-0.35,0.02L271.15,335.41z"/>
		</g>
		<g>
			<path class="st17" d="M278.31,340.02c-0.17,0.13-0.4,0.15-0.58,0.03c0.22,0.14,0.5-0.06,0.44-0.32l-1.65-7.19
				c-0.06-0.26-0.4-0.32-0.54-0.09c0.11-0.18,0.33-0.27,0.54-0.22l1.8,0.42c0.19,0.04,0.34,0.19,0.38,0.38l1.22,5.33
				c0.04,0.19-0.02,0.39-0.17,0.51L278.31,340.02z"/>
		</g>
	</g>
</g>
</svg>
