<?xml version="1.0" encoding="utf-8"?>
<!-- Generator: Adobe Illustrator 23.1.1, SVG Export Plug-In . SVG Version: 6.00 Build 0)  -->
<svg version="1.1" id="Layer_1" xmlns="http://www.w3.org/2000/svg" xmlns:xlink="http://www.w3.org/1999/xlink" x="0px" y="0px"
	 viewBox="0 0 360 540" style="enable-background:new 0 0 360 540;" xml:space="preserve">
<style type="text/css">
	.st0{clip-path:url(#SVGID_2_);fill:#EEEAFF;}
	.st1{clip-path:url(#SVGID_2_);fill:#E0D8FF;}
	.st2{clip-path:url(#SVGID_2_);}
	.st3{fill:#E0D8FF;}
	.st4{fill:#FFE8AA;}
	.st5{fill:#EEEAFF;}
	.st6{fill:#FFFFFF;}
	.st7{fill-rule:evenodd;clip-rule:evenodd;fill:#854CC7;}
	.st8{fill:#52218A;}
	.st9{fill:#6C33AF;}
	.st10{fill:#854CC7;}
	.st11{fill:#B179F1;}
	.st12{clip-path:url(#SVGID_2_);fill:#FFE8AA;}
</style>
<g>
	<defs>
		<polygon id="SVGID_1_" points="359.78,1.09 196.13,1.09 264.98,538.71 359.78,539.19 		"/>
	</defs>
	<clipPath id="SVGID_2_">
		<use xlink:href="#SVGID_1_"  style="overflow:visible;"/>
	</clipPath>
	<polygon class="st0" points="359.78,1.09 196.13,1.09 264.98,538.71 359.78,539.19 	"/>
	<path class="st1" d="M264.98,538.71l94.81,0.48V394.03c-5.99,2.69-10.76,8.13-12.51,15.21c-0.42,1.69-0.64,3.38-0.68,5.05
		c-3.56-2.03-7.6-3.18-11.89-3.18c-9.57,0-17.91,5.7-22.34,14.15c-2.89-3.62-6.83-6.3-11.34-7.54
		c-0.62-13.29-9.84-24.94-22.96-27.66c-12.3-2.55-24.33,3.53-30.29,14.2L264.98,538.71z"/>
	<g class="st2">
		<path class="st3" d="M321.08,192.13c0.46,0.47,1.07,0.73,1.72,0.73c0,0,0.01,0,0.01,0l11.07-0.04c1.34-0.01,2.43-1.14,2.43-2.54
			l-0.08-27.44c0-0.67-0.26-1.31-0.72-1.79c-0.46-0.48-1.07-0.69-1.72-0.74l-11.07,0.04c-1.34,0.01-2.43,1.14-2.43,2.54l0.08,27.44
			C320.36,191.02,320.62,191.65,321.08,192.13z"/>
		<path class="st4" d="M334,163.45c0-0.14-0.1-0.25-0.22-0.25l-1.71,0.01l-0.53,1.4c-0.08,0.22-0.28,0.37-0.49,0.37h-5.51
			c-0.22,0-0.42-0.16-0.5-0.4l-0.44-1.35l-1.8,0.01c-0.12,0-0.22,0.12-0.22,0.26l0.14,26.11c0,0.14,0.1,0.25,0.22,0.25l10.86,0.17
			c0.12,0,0.22-0.11,0.22-0.25L334,163.45z"/>
	</g>
	<g class="st2">
		<path class="st3" d="M322.21,108.09c-0.73-2.38-2.83-3.98-5.24-3.98h-3.8c-0.99,0-1.86,0.66-2.16,1.64l-12.06-0.01
			c-0.37-0.92-1.47-1.63-2.51-1.63h-3.29c-2.41,0-4.51,1.6-5.24,3.98l-5.07,16.58c-0.92,3,0.69,6.22,3.58,7.18
			c0.54,0.18,1.1,0.27,1.66,0.27c1.65,0,3.43-0.97,4.48-2.41l5.35-6.1c0.35-0.4,0.86-0.63,1.38-0.63h11.52
			c0.53,0,1.03,0.23,1.38,0.63l5.36,6.11c1.05,1.12,2.52,2.4,4.47,2.4c0.57,0,1.13-0.09,1.66-0.27c2.89-0.95,4.49-4.17,3.58-7.18
			L322.21,108.09z"/>
		<g>
			<ellipse class="st4" cx="294.67" cy="111.53" rx="3.8" ry="3.95"/>
			<ellipse class="st4" cx="315.57" cy="111.53" rx="3.8" ry="3.95"/>
			<path class="st5" d="M308.14,112.12h-6.29c-0.64,0-1.16-0.52-1.16-1.16v-0.04c0-0.64,0.52-1.16,1.16-1.16h6.29
				c0.64,0,1.16,0.52,1.16,1.16v0.04C309.3,111.6,308.78,112.12,308.14,112.12z"/>
			<ellipse class="st5" cx="299.55" cy="118.57" rx="1.77" ry="1.84"/>
			<ellipse class="st5" cx="310.82" cy="118.57" rx="1.77" ry="1.84"/>
		</g>
	</g>
	<g class="st2">
		<path class="st3" d="M244.62,233.75c-0.43,0.45-0.67,1.05-0.67,1.69c0,0,0,0.01,0,0.01l0.04,10.9c0,1.32,1.04,2.39,2.32,2.39
			l25.05-0.08c0.62,0,1.2-0.25,1.63-0.71c0.44-0.45,0.63-1.06,0.67-1.7l-0.04-10.9c0-1.32-1.04-2.39-2.32-2.39l-25.05,0.08
			C245.63,233.04,245.05,233.29,244.62,233.75z"/>
		<path class="st4" d="M270.8,246.47c0.13,0,0.23-0.1,0.23-0.22l-0.01-1.68l-1.28-0.53c-0.2-0.08-0.33-0.27-0.33-0.48v-5.43
			c0-0.22,0.14-0.41,0.36-0.49l1.23-0.43l-0.01-1.78c0-0.12-0.11-0.22-0.23-0.22l-23.83,0.14c-0.13,0-0.23,0.1-0.23,0.22l-0.15,10.7
			c0,0.12,0.1,0.22,0.23,0.22L270.8,246.47z"/>
	</g>
	<g class="st2">
		<path class="st3" d="M315.76,209.85c-0.49-1.61-1.92-2.7-3.55-2.7h-2.57c-0.67,0-1.26,0.45-1.46,1.11l-8.16-0.01
			c-0.25-0.62-0.99-1.11-1.7-1.11h-2.23c-1.63,0-3.05,1.08-3.55,2.7l-3.43,11.22c-0.62,2.03,0.47,4.21,2.42,4.86
			c0.37,0.12,0.74,0.18,1.13,0.18c1.12,0,2.32-0.65,3.03-1.63l3.62-4.13c0.24-0.27,0.58-0.43,0.94-0.43h7.8
			c0.36,0,0.7,0.16,0.94,0.43l3.63,4.13c0.71,0.76,1.7,1.63,3.03,1.63c0.38,0,0.76-0.06,1.13-0.18c1.96-0.64,3.04-2.82,2.42-4.86
			L315.76,209.85z"/>
		<g>
			<ellipse class="st4" cx="297.13" cy="212.18" rx="2.57" ry="2.67"/>
			<ellipse class="st4" cx="311.27" cy="212.18" rx="2.57" ry="2.67"/>
			<path class="st5" d="M306.24,212.58h-4.26c-0.43,0-0.79-0.35-0.79-0.79v-0.03c0-0.43,0.35-0.79,0.79-0.79h4.26
				c0.43,0,0.79,0.35,0.79,0.79v0.03C307.03,212.22,306.68,212.58,306.24,212.58z"/>
			<ellipse class="st5" cx="300.43" cy="216.94" rx="1.2" ry="1.25"/>
			<ellipse class="st5" cx="308.06" cy="216.94" rx="1.2" ry="1.25"/>
		</g>
	</g>
	<g class="st2">
		<path class="st3" d="M240.03,135c0.62,0.63,1.43,0.98,2.3,0.98c0,0,0.01,0,0.01,0l14.82-0.06c1.8-0.01,3.25-1.53,3.25-3.4
			l-0.11-36.76c0-0.9-0.34-1.76-0.96-2.39c-0.62-0.64-1.43-0.93-2.31-0.98l-14.82,0.06c-1.8,0.01-3.26,1.53-3.25,3.4l0.11,36.76
			C239.07,133.51,239.41,134.36,240.03,135z"/>
		<path class="st4" d="M257.34,96.58c0-0.19-0.13-0.34-0.3-0.34l-2.29,0.01l-0.72,1.88c-0.11,0.3-0.37,0.49-0.65,0.49h-7.38
			c-0.3,0-0.56-0.21-0.67-0.53l-0.59-1.8l-2.42,0.01c-0.16,0-0.3,0.15-0.3,0.34l0.19,34.98c0,0.19,0.13,0.34,0.29,0.34l14.55,0.23
			c0.17,0,0.3-0.15,0.3-0.34L257.34,96.58z"/>
	</g>
	<g class="st2">
		<path class="st3" d="M243.82,57.12c-0.52-1.69-2.01-2.83-3.72-2.83h-2.7c-0.71,0-1.32,0.47-1.53,1.17l-8.55-0.01
			c-0.26-0.65-1.04-1.16-1.78-1.16h-2.34c-1.71,0-3.2,1.14-3.72,2.83l-3.59,11.76c-0.65,2.13,0.49,4.41,2.54,5.09
			c0.38,0.13,0.78,0.19,1.18,0.19c1.17,0,2.43-0.69,3.18-1.71l3.79-4.33c0.25-0.29,0.61-0.45,0.98-0.45h8.17
			c0.37,0,0.73,0.16,0.98,0.45l3.8,4.33c0.75,0.79,1.78,1.71,3.17,1.71c0.4,0,0.8-0.06,1.18-0.19c2.05-0.68,3.19-2.96,2.54-5.09
			L243.82,57.12z"/>
		<g>
			<ellipse class="st4" cx="224.28" cy="59.56" rx="2.7" ry="2.8"/>
			<ellipse class="st4" cx="239.11" cy="59.56" rx="2.7" ry="2.8"/>
			<path class="st5" d="M233.84,59.98h-4.46c-0.46,0-0.82-0.37-0.82-0.82v-0.03c0-0.46,0.37-0.82,0.82-0.82h4.46
				c0.46,0,0.82,0.37,0.82,0.82v0.03C234.66,59.61,234.29,59.98,233.84,59.98z"/>
			<ellipse class="st5" cx="227.74" cy="64.55" rx="1.26" ry="1.31"/>
			<ellipse class="st5" cx="235.74" cy="64.55" rx="1.26" ry="1.31"/>
		</g>
	</g>
	<g class="st2">
		<path class="st3" d="M223.59,137.6c-0.73-2.38-2.83-3.98-5.24-3.98h-3.8c-0.99,0-1.86,0.66-2.16,1.64l-12.06-0.01
			c-0.37-0.92-1.47-1.63-2.51-1.63h-3.29c-2.41,0-4.51,1.6-5.24,3.98l-5.07,16.58c-0.92,3,0.69,6.22,3.58,7.18
			c0.54,0.18,1.1,0.27,1.66,0.27c1.65,0,3.43-0.97,4.48-2.41l5.35-6.1c0.35-0.4,0.86-0.63,1.38-0.63h11.52
			c0.53,0,1.03,0.23,1.38,0.63l5.36,6.11c1.05,1.12,2.52,2.4,4.47,2.4c0.57,0,1.13-0.09,1.66-0.27c2.89-0.95,4.49-4.17,3.58-7.18
			L223.59,137.6z"/>
		<g>
			<ellipse class="st4" cx="196.06" cy="141.04" rx="3.8" ry="3.95"/>
			<ellipse class="st4" cx="216.96" cy="141.04" rx="3.8" ry="3.95"/>
			<path class="st5" d="M209.53,141.63h-6.29c-0.64,0-1.16-0.52-1.16-1.16v-0.04c0-0.64,0.52-1.16,1.16-1.16h6.29
				c0.64,0,1.16,0.52,1.16,1.16v0.04C210.69,141.11,210.17,141.63,209.53,141.63z"/>
			<ellipse class="st5" cx="200.93" cy="148.08" rx="1.77" ry="1.84"/>
			<ellipse class="st5" cx="212.21" cy="148.08" rx="1.77" ry="1.84"/>
		</g>
	</g>
	<g class="st2">
		<path class="st3" d="M348.13,17.59c-0.49-1.61-1.92-2.7-3.55-2.7h-2.57c-0.67,0-1.26,0.45-1.46,1.11L332.39,16
			c-0.25-0.62-0.99-1.11-1.7-1.11h-2.23c-1.63,0-3.05,1.08-3.55,2.7l-3.43,11.22c-0.62,2.03,0.47,4.21,2.42,4.86
			c0.37,0.12,0.74,0.18,1.13,0.18c1.12,0,2.32-0.65,3.03-1.63l3.62-4.13c0.24-0.27,0.58-0.43,0.94-0.43h7.8
			c0.36,0,0.7,0.16,0.94,0.43l3.63,4.13c0.71,0.76,1.7,1.63,3.03,1.63c0.38,0,0.76-0.06,1.13-0.18c1.96-0.64,3.04-2.82,2.42-4.86
			L348.13,17.59z"/>
		<g>
			<ellipse class="st4" cx="329.49" cy="19.92" rx="2.57" ry="2.67"/>
			<ellipse class="st4" cx="343.64" cy="19.92" rx="2.57" ry="2.67"/>
			<path class="st5" d="M338.61,20.32h-4.26c-0.43,0-0.79-0.35-0.79-0.79V19.5c0-0.43,0.35-0.79,0.79-0.79h4.26
				c0.43,0,0.79,0.35,0.79,0.79v0.03C339.39,19.97,339.04,20.32,338.61,20.32z"/>
			<ellipse class="st5" cx="332.79" cy="24.69" rx="1.2" ry="1.25"/>
			<ellipse class="st5" cx="340.42" cy="24.69" rx="1.2" ry="1.25"/>
		</g>
	</g>
	<g class="st2">
		<path class="st3" d="M211.09,20.34c0.46,0.47,1.07,0.73,1.72,0.73c0,0,0.01,0,0.01,0l11.07-0.04c1.34-0.01,2.43-1.14,2.43-2.54
			l-0.08-27.44c0-0.67-0.26-1.31-0.72-1.79c-0.46-0.48-1.07-0.69-1.72-0.74l-11.07,0.04c-1.34,0.01-2.43,1.14-2.43,2.54l0.08,27.44
			C210.37,19.23,210.62,19.86,211.09,20.34z"/>
		<path class="st4" d="M224.01-8.34c0-0.14-0.1-0.25-0.22-0.25l-1.71,0.01l-0.53,1.4c-0.08,0.22-0.28,0.37-0.49,0.37h-5.51
			c-0.22,0-0.42-0.16-0.5-0.4l-0.44-1.35l-1.8,0.01c-0.12,0-0.22,0.12-0.22,0.26l0.14,26.11c0,0.14,0.1,0.25,0.22,0.25l10.86,0.17
			c0.12,0,0.22-0.11,0.22-0.25L224.01-8.34z"/>
	</g>
	<g class="st2">
		<path class="st3" d="M349.64,290.94c-0.73-2.38-2.83-3.98-5.24-3.98h-3.8c-0.99,0-1.86,0.66-2.16,1.64l-12.06-0.01
			c-0.37-0.92-1.47-1.63-2.51-1.63h-3.29c-2.41,0-4.51,1.6-5.24,3.98l-5.07,16.58c-0.92,3,0.69,6.22,3.58,7.18
			c0.54,0.18,1.1,0.27,1.66,0.27c1.65,0,3.43-0.97,4.48-2.41l5.35-6.1c0.35-0.4,0.86-0.63,1.38-0.63h11.52
			c0.53,0,1.03,0.23,1.38,0.63l5.36,6.11c1.05,1.12,2.52,2.4,4.47,2.4c0.57,0,1.13-0.09,1.67-0.27c2.89-0.95,4.49-4.17,3.58-7.18
			L349.64,290.94z"/>
		<g>
			<ellipse class="st4" cx="322.1" cy="294.38" rx="3.8" ry="3.95"/>
			<ellipse class="st4" cx="343" cy="294.38" rx="3.8" ry="3.95"/>
			<path class="st5" d="M335.57,294.97h-6.29c-0.64,0-1.16-0.52-1.16-1.16v-0.04c0-0.64,0.52-1.16,1.16-1.16h6.29
				c0.64,0,1.16,0.52,1.16,1.16v0.04C336.73,294.45,336.21,294.97,335.57,294.97z"/>
			<ellipse class="st5" cx="326.98" cy="301.42" rx="1.77" ry="1.84"/>
			<ellipse class="st5" cx="338.25" cy="301.42" rx="1.77" ry="1.84"/>
		</g>
	</g>
	<g class="st2">
		<path class="st3" d="M285.59,59.62c-0.46,0.48-0.71,1.11-0.71,1.78c0,0,0,0.01,0,0.01l0.04,11.5c0,1.39,1.1,2.52,2.44,2.52
			l26.41-0.08c0.65,0,1.26-0.27,1.72-0.75c0.46-0.48,0.67-1.11,0.71-1.79l-0.04-11.5c-0.01-1.39-1.1-2.52-2.44-2.52l-26.41,0.08
			C286.65,58.88,286.04,59.14,285.59,59.62z"/>
		<path class="st4" d="M313.19,73.04c0.14,0,0.25-0.1,0.24-0.23l-0.01-1.77l-1.35-0.56c-0.21-0.09-0.35-0.29-0.35-0.51v-5.72
			c0-0.23,0.15-0.44,0.38-0.52l1.3-0.46l-0.01-1.87c0-0.13-0.11-0.23-0.25-0.23l-25.13,0.15c-0.13,0-0.24,0.1-0.24,0.23l-0.16,11.29
			c0,0.13,0.11,0.23,0.25,0.23L313.19,73.04z"/>
	</g>
	<g class="st2">
		<path class="st3" d="M264.07,373.28c0.62,0.63,1.43,0.98,2.3,0.98c0,0,0.01,0,0.01,0l14.82-0.06c1.8-0.01,3.25-1.53,3.25-3.4
			l-0.11-36.76c0-0.9-0.34-1.76-0.96-2.39c-0.62-0.64-1.43-0.93-2.31-0.98l-14.82,0.06c-1.8,0.01-3.26,1.53-3.25,3.4l0.11,36.76
			C263.11,371.79,263.45,372.64,264.07,373.28z"/>
		<path class="st4" d="M281.38,334.87c0-0.19-0.13-0.34-0.3-0.34l-2.29,0.01l-0.72,1.88c-0.11,0.3-0.37,0.49-0.65,0.49h-7.38
			c-0.3,0-0.56-0.21-0.67-0.53l-0.59-1.8l-2.42,0.01c-0.16,0-0.3,0.15-0.3,0.34l0.19,34.98c0,0.19,0.13,0.34,0.29,0.34l14.55,0.23
			c0.17,0,0.3-0.15,0.3-0.34L281.38,334.87z"/>
	</g>
	<g class="st2">
		<g>
			<path class="st6" d="M317.88,448.9c1.83-0.7,3.88-0.59,5.62,0.32l8.92,4.63c2.26,1.18,3.69,3.51,3.69,6.06v30.43
				c0,2.55-1.42,4.88-3.69,6.06l-8.92,4.63c-1.74,0.91-3.79,1.02-5.62,0.32l-25.32-9.73c-2.64-1.02-4.39-3.55-4.39-6.38V465
				c0-2.83,1.74-5.36,4.39-6.38L317.88,448.9z"/>
		</g>
		<path class="st7" d="M331.4,455.97l-8.92-4.63c-1.18-0.61-2.57-0.69-3.81-0.21l-25.32,9.73c-1.79,0.69-2.9,2.37-2.9,4.15v20.23
			c0,1.79,1.11,3.46,2.9,4.15l25.32,9.73c1.24,0.48,2.64,0.4,3.81-0.21l8.92-4.63c1.52-0.79,2.42-2.33,2.42-3.94V459.9
			C333.83,458.29,332.93,456.76,331.4,455.97z M323.51,449.21c-1.74-0.91-3.79-1.02-5.62-0.32l-25.32,9.73
			c-2.64,1.02-4.39,3.55-4.39,6.38v20.23c0,2.83,1.74,5.36,4.39,6.38l25.32,9.73c1.83,0.7,3.88,0.59,5.62-0.32l8.92-4.63
			c2.26-1.18,3.69-3.51,3.69-6.06V459.9c0-2.55-1.42-4.88-3.69-6.06L323.51,449.21z"/>
		<path class="st8" d="M299.78,485.19c-0.39,0.36-0.94,0.45-1.42,0.24l-2.49-1.11c-0.51-0.23-0.84-0.76-0.84-1.36v-15.69
			c0-0.59,0.33-1.13,0.84-1.36l2.49-1.11c0.48-0.21,1.03-0.12,1.42,0.24l0.56,0.51c-0.5-0.38-1.2,0-1.2,0.66v17.79
			c0,0.66,0.7,1.05,1.2,0.66L299.78,485.19z"/>
		<g>
			<path class="st9" d="M295.9,484.31c-0.53-0.23-0.88-0.77-0.88-1.37v-0.12c0,0.78,0.93,1.16,1.44,0.57l22.11-25.41
				c0.64-0.67,1.62-0.84,2.43-0.43l7.06,3.53c0.74,0.37,1.21,1.15,1.21,2v0.09c0-1.18-1.33-1.84-2.21-1.09l-26.51,22.58l-0.58,0.52
				c-0.41,0.36-0.98,0.46-1.48,0.24L295.9,484.31z"/>
		</g>
		<g>
			<path class="st10" d="M295.9,465.93c-0.53,0.23-0.88,0.77-0.88,1.37v0.12c0-0.78,0.93-1.16,1.44-0.57l22.11,25.41
				c0.64,0.67,1.62,0.84,2.43,0.43l7.06-3.53c0.74-0.37,1.21-1.15,1.21-2v-0.09c0,1.18-1.33,1.84-2.21,1.09l-26.51-22.58l-0.58-0.52
				c-0.41-0.36-0.98-0.46-1.48-0.24L295.9,465.93z"/>
		</g>
		<g>
			<path class="st11" d="M321.05,492.68c-0.81,0.41-1.78,0.24-2.42-0.43c0.78,0.82,2.13,0.24,2.13-0.93v-32.42
				c0-1.17-1.34-1.75-2.13-0.93c0.64-0.67,1.61-0.84,2.42-0.43l7.01,3.54c0.74,0.37,1.2,1.16,1.2,2.01v24.02
				c0,0.86-0.47,1.64-1.2,2.01L321.05,492.68z"/>
		</g>
	</g>
	<circle class="st12" cx="277.08" cy="13.78" r="24.2"/>
	<path class="st1" d="M301.44,13.7c0-14.08-11.02-25.53-24.57-25.53S252.3-0.38,252.3,13.7c0,13.58,10.26,24.72,23.16,25.48
		c0.05,0.02,0.09,0.04,0.14,0.06l0.01-0.04c0.42,0.02,0.84,0.03,1.26,0.03c0.54,0,1.07-0.02,1.61-0.06l0.02,0.07
		c0.08-0.03,0.15-0.06,0.23-0.09C291.41,38.15,301.44,27.12,301.44,13.7z M278.19,36.72c-0.05,0-0.09,0.01-0.14,0.01V26.02h8.25
		C284.67,30.98,282,35.09,278.19,36.72z M254.7,14.93h8.82c0.1,2.86,0.48,5.8,1.14,8.63h-7.86C255.59,20.92,254.85,18,254.7,14.93z
		 M286.1,0.19h-8.05v-9.53c0.03,0,0.06,0.01,0.09,0.01C281.01-8.12,284.1-5.03,286.1,0.19z M299.03,12.47h-8.44
		c-0.06-3.17-0.46-6.57-1.28-9.81h7.04C297.9,5.6,298.85,8.93,299.03,12.47z M288.21,12.47h-10.16V2.66h8.86
		C287.69,5.42,288.16,8.69,288.21,12.47z M275.68-9.2v9.39h-7.69C269.93-4.87,272.89-7.92,275.68-9.2z M275.68,2.66v9.81h-9.8
		c0.05-3.78,0.52-7.04,1.3-9.81H275.68z M263.5,12.47h-8.8c0.18-3.54,1.13-6.87,2.68-9.81h7.4C263.96,5.9,263.56,9.29,263.5,12.47z
		 M265.89,14.93h9.79v8.63h-8.59C266.39,20.76,266,17.8,265.89,14.93z M275.68,26.02v10.61c-3.7-1.69-6.3-5.74-7.89-10.61H275.68z
		 M278.05,23.56v-8.63h10.15c-0.11,2.87-0.5,5.83-1.19,8.63H278.05z M290.57,14.93h8.47c-0.17,3.25-0.99,6.33-2.32,9.09v-0.46h-7.29
		C290.09,20.73,290.46,17.79,290.57,14.93z M294.85,0.19h-6.26c-1.07-3.2-2.61-6.12-4.72-8.38C288.32-6.64,292.14-3.68,294.85,0.19z
		 M270.39-8.36c-2.2,2.28-3.79,5.27-4.89,8.56h-6.61C261.69-3.83,265.72-6.88,270.39-8.36z M258.11,26.02h7.21
		c1.17,3.83,2.91,7.28,5.26,9.8C265.38,34.22,260.96,30.68,258.11,26.02z M283.66,35.65c2.27-2.5,3.96-5.89,5.11-9.63h6.86
		C292.86,30.53,288.64,33.99,283.66,35.65z"/>
	<circle class="st12" cx="355.57" cy="83.2" r="19.42"/>
	<path class="st1" d="M375.38,83.01c0-11.57-9.06-20.99-20.2-20.99c-11.14,0-20.2,9.41-20.2,20.99c0,11.17,8.44,20.32,19.04,20.95
		c0.04,0.01,0.08,0.03,0.11,0.05l0.01-0.04c0.34,0.02,0.69,0.03,1.03,0.03c0.44,0,0.88-0.02,1.32-0.05l0.02,0.06
		c0.06-0.02,0.12-0.05,0.19-0.08C367.13,103.11,375.38,94.04,375.38,83.01z M356.27,101.93c-0.04,0-0.08,0.01-0.12,0.01v-8.8h6.78
		C361.6,97.21,359.4,100.6,356.27,101.93z M336.95,84.02h7.25c0.08,2.35,0.39,4.77,0.94,7.09h-6.47
		C337.69,88.94,337.08,86.54,336.95,84.02z M362.77,71.9h-6.62v-7.83c0.03,0,0.05,0,0.08,0.01
		C358.58,65.07,361.12,67.61,362.77,71.9z M373.4,81.99h-6.94c-0.05-2.61-0.38-5.4-1.05-8.07h5.79
		C372.47,76.35,373.25,79.08,373.4,81.99z M364.5,81.99h-8.35v-8.07h7.29C364.07,76.2,364.46,78.89,364.5,81.99z M354.2,64.18v7.72
		h-6.32C349.47,67.74,351.91,65.23,354.2,64.18z M354.2,73.93v8.07h-8.06c0.04-3.1,0.43-5.79,1.07-8.07H354.2z M344.18,81.99h-7.24
		c0.15-2.91,0.93-5.65,2.21-8.07h6.08C344.56,76.59,344.23,79.38,344.18,81.99z M346.15,84.02h8.05v7.09h-7.07
		C346.57,88.81,346.24,86.38,346.15,84.02z M354.2,93.14v8.72c-3.04-1.39-5.18-4.72-6.49-8.72H354.2z M356.15,91.11v-7.09h8.34
		c-0.09,2.36-0.41,4.8-0.98,7.09H356.15z M366.44,84.02h6.96c-0.14,2.68-0.81,5.2-1.91,7.48v-0.38h-5.99
		C366.05,88.79,366.36,86.37,366.44,84.02z M369.96,71.9h-5.14c-0.88-2.63-2.15-5.03-3.88-6.89
		C364.59,66.28,367.74,68.72,369.96,71.9z M349.85,64.87c-1.81,1.87-3.12,4.34-4.02,7.04h-5.44
		C342.7,68.59,346.01,66.09,349.85,64.87z M339.76,93.14h5.93c0.96,3.15,2.39,5.99,4.32,8.05C345.73,99.88,342.1,96.97,339.76,93.14
		z M360.76,101.06c1.87-2.05,3.26-4.84,4.2-7.92h5.64C368.33,96.85,364.86,99.69,360.76,101.06z"/>
	<circle class="st12" cx="271.17" cy="175.67" r="23.45"/>
	<circle class="st12" cx="355.57" cy="240.72" r="23.8"/>
	<circle class="st12" cx="268.68" cy="287.28" r="19.42"/>
	<circle class="st12" cx="332.68" cy="368.12" r="23.98"/>
	<path class="st1" d="M295.92,175.96c0-14.08-11.02-25.53-24.57-25.53s-24.57,11.45-24.57,25.53c0,13.58,10.26,24.72,23.16,25.48
		c0.05,0.02,0.09,0.04,0.14,0.06l0.01-0.04c0.42,0.02,0.84,0.03,1.26,0.03c0.54,0,1.07-0.02,1.61-0.06l0.02,0.07
		c0.08-0.03,0.15-0.06,0.23-0.09C285.89,200.42,295.92,189.39,295.92,175.96z M272.68,198.98c-0.05,0-0.09,0.01-0.14,0.01v-10.71
		h8.25C279.16,193.24,276.49,197.36,272.68,198.98z M249.19,177.19h8.82c0.1,2.86,0.48,5.8,1.14,8.63h-7.86
		C250.08,183.18,249.34,180.27,249.19,177.19z M280.59,162.46h-8.05v-9.53c0.03,0,0.06,0.01,0.09,0.01
		C275.5,154.15,278.59,157.23,280.59,162.46z M293.52,174.73h-8.44c-0.06-3.17-0.46-6.57-1.28-9.81h7.04
		C292.39,167.86,293.34,171.19,293.52,174.73z M282.7,174.73h-10.16v-9.81h8.86C282.18,167.69,282.65,170.95,282.7,174.73z
		 M270.17,153.07v9.39h-7.69C264.41,157.39,267.38,154.35,270.17,153.07z M270.17,164.92v9.81h-9.8c0.05-3.78,0.52-7.04,1.3-9.81
		H270.17z M257.99,174.73h-8.8c0.18-3.54,1.13-6.87,2.68-9.81h7.4C258.44,168.16,258.05,171.56,257.99,174.73z M260.38,177.19h9.79
		v8.63h-8.59C260.88,183.03,260.49,180.07,260.38,177.19z M270.17,188.28v10.61c-3.7-1.69-6.3-5.74-7.89-10.61H270.17z
		 M272.54,185.82v-8.63h10.15c-0.11,2.87-0.5,5.83-1.19,8.63H272.54z M285.05,177.19h8.47c-0.17,3.25-0.99,6.33-2.32,9.09v-0.46
		h-7.29C284.58,183,284.95,180.05,285.05,177.19z M289.33,162.46h-6.26c-1.07-3.2-2.61-6.12-4.72-8.38
		C282.81,155.62,286.63,158.59,289.33,162.46z M264.88,153.9c-2.2,2.28-3.79,5.27-4.89,8.56h-6.61
		C256.18,158.43,260.2,155.38,264.88,153.9z M252.6,188.28h7.21c1.17,3.83,2.91,7.28,5.26,9.8
		C259.86,196.48,255.45,192.95,252.6,188.28z M278.14,197.92c2.27-2.5,3.96-5.89,5.11-9.63h6.86
		C287.35,192.8,283.13,196.25,278.14,197.92z"/>
	<path class="st1" d="M380.15,241.01c0-14.08-11.02-25.53-24.57-25.53s-24.57,11.45-24.57,25.53c0,13.58,10.26,24.72,23.16,25.48
		c0.05,0.02,0.09,0.04,0.14,0.06l0.01-0.04c0.42,0.02,0.84,0.03,1.26,0.03c0.54,0,1.07-0.02,1.61-0.06l0.02,0.07
		c0.08-0.03,0.15-0.06,0.23-0.09C370.12,265.47,380.15,254.44,380.15,241.01z M356.9,264.03c-0.05,0-0.09,0.01-0.14,0.01v-10.71
		h8.25C363.38,258.3,360.71,262.41,356.9,264.03z M333.41,242.25h8.82c0.1,2.86,0.48,5.8,1.14,8.63h-7.86
		C334.3,248.23,333.56,245.32,333.41,242.25z M364.81,227.51h-8.05v-9.53c0.03,0,0.06,0.01,0.09,0.01
		C359.72,219.2,362.81,222.28,364.81,227.51z M377.74,239.78h-8.44c-0.06-3.17-0.46-6.57-1.28-9.81h7.04
		C376.61,232.92,377.56,236.24,377.74,239.78z M366.92,239.78h-10.16v-9.81h8.86C366.4,232.74,366.87,236.01,366.92,239.78z
		 M354.39,218.12v9.39h-7.69C348.64,222.44,351.6,219.4,354.39,218.12z M354.39,229.97v9.81h-9.8c0.05-3.78,0.52-7.04,1.3-9.81
		H354.39z M342.21,239.78h-8.8c0.18-3.54,1.13-6.87,2.68-9.81h7.4C342.67,233.21,342.27,236.61,342.21,239.78z M344.6,242.25h9.79
		v8.63h-8.59C345.1,248.08,344.71,245.12,344.6,242.25z M354.39,253.34v10.61c-3.7-1.69-6.3-5.74-7.89-10.61H354.39z M356.76,250.87
		v-8.63h10.15c-0.11,2.87-0.5,5.83-1.19,8.63H356.76z M369.28,242.25h8.47c-0.17,3.25-0.99,6.33-2.32,9.09v-0.46h-7.29
		C368.8,248.05,369.18,245.1,369.28,242.25z M373.56,227.51h-6.26c-1.07-3.2-2.61-6.12-4.72-8.38
		C367.03,220.67,370.86,223.64,373.56,227.51z M349.1,218.95c-2.2,2.28-3.79,5.27-4.89,8.56h-6.61
		C340.4,223.49,344.43,220.44,349.1,218.95z M336.82,253.34h7.21c1.17,3.83,2.91,7.28,5.26,9.8
		C344.09,261.53,339.67,258,336.82,253.34z M362.37,262.97c2.27-2.5,3.96-5.89,5.11-9.63h6.86
		C371.57,257.85,367.35,261.3,362.37,262.97z"/>
	<path class="st1" d="M287.86,287.02c0-11.27-8.83-20.44-19.67-20.44s-19.67,9.17-19.67,20.44c0,10.88,8.22,19.79,18.54,20.4
		c0.04,0.01,0.07,0.03,0.11,0.05l0.01-0.04c0.33,0.02,0.67,0.03,1.01,0.03c0.43,0,0.86-0.02,1.29-0.05l0.02,0.06
		c0.06-0.02,0.12-0.05,0.18-0.07C279.83,306.61,287.86,297.77,287.86,287.02z M269.25,305.46c-0.04,0-0.08,0.01-0.11,0.01v-8.57h6.6
		C274.44,300.86,272.3,304.16,269.25,305.46z M250.43,288.01h7.07c0.08,2.29,0.38,4.65,0.92,6.91h-6.3
		C251.15,292.8,250.56,290.47,250.43,288.01z M275.58,276.21h-6.44v-7.63c0.03,0,0.05,0,0.07,0.01
		C271.5,269.55,273.98,272.03,275.58,276.21z M285.93,286.04h-6.76c-0.05-2.54-0.37-5.26-1.02-7.86h5.64
		C285.03,280.54,285.79,283.2,285.93,286.04z M277.27,286.04h-8.14v-7.86h7.1C276.85,280.4,277.23,283.01,277.27,286.04z
		 M267.23,268.69v7.52h-6.16C262.63,272.15,265,269.72,267.23,268.69z M267.23,278.18v7.86h-7.85c0.04-3.02,0.42-5.64,1.04-7.86
		H267.23z M257.48,286.04h-7.05c0.14-2.83,0.91-5.5,2.15-7.86h5.92C257.85,280.78,257.53,283.5,257.48,286.04z M259.4,288.01h7.84
		v6.91h-6.88C259.8,292.68,259.48,290.31,259.4,288.01z M267.23,296.89v8.49c-2.96-1.35-5.04-4.6-6.32-8.49H267.23z M269.13,294.92
		v-6.91h8.12c-0.09,2.3-0.4,4.67-0.96,6.91H269.13z M279.16,288.01h6.78c-0.13,2.61-0.79,5.07-1.86,7.28v-0.37h-5.83
		C278.77,292.66,279.07,290.3,279.16,288.01z M282.58,276.21h-5.01c-0.86-2.56-2.09-4.9-3.78-6.71
		C277.35,270.74,280.42,273.11,282.58,276.21z M263,269.36c-1.76,1.82-3.04,4.22-3.92,6.85h-5.3
		C256.03,272.99,259.26,270.55,263,269.36z M253.17,296.89h5.78c0.94,3.06,2.33,5.83,4.21,7.84
		C258.98,303.45,255.45,300.63,253.17,296.89z M273.62,304.61c1.82-2,3.17-4.72,4.09-7.71h5.49
		C280.99,300.5,277.61,303.27,273.62,304.61z"/>
	<path class="st1" d="M357.22,367.91c0-14.08-11.02-25.53-24.57-25.53s-24.57,11.45-24.57,25.53c0,13.58,10.26,24.72,23.16,25.48
		c0.05,0.02,0.09,0.04,0.14,0.06l0.01-0.04c0.42,0.02,0.84,0.03,1.26,0.03c0.54,0,1.07-0.02,1.61-0.06l0.02,0.07
		c0.08-0.03,0.15-0.06,0.23-0.09C347.19,392.37,357.22,381.34,357.22,367.91z M333.97,390.93c-0.05,0-0.09,0.01-0.14,0.01v-10.71
		h8.25C340.45,385.19,337.78,389.31,333.97,390.93z M310.48,369.14h8.82c0.1,2.86,0.48,5.8,1.14,8.63h-7.86
		C311.37,375.13,310.63,372.22,310.48,369.14z M341.88,354.41h-8.05v-9.53c0.03,0,0.06,0.01,0.09,0.01
		C336.79,346.1,339.88,349.18,341.88,354.41z M354.81,366.68h-8.44c-0.06-3.17-0.46-6.57-1.28-9.81h7.04
		C353.68,359.81,354.63,363.14,354.81,366.68z M343.99,366.68h-10.16v-9.81h8.86C343.47,359.64,343.94,362.91,343.99,366.68z
		 M331.46,345.02v9.39h-7.69C325.71,349.34,328.67,346.3,331.46,345.02z M331.46,356.87v9.81h-9.8c0.05-3.78,0.52-7.04,1.3-9.81
		H331.46z M319.28,366.68h-8.8c0.18-3.54,1.13-6.87,2.68-9.81h7.4C319.74,360.11,319.34,363.51,319.28,366.68z M321.67,369.14h9.79
		v8.63h-8.59C322.17,374.98,321.78,372.02,321.67,369.14z M331.46,380.24v10.61c-3.7-1.69-6.3-5.74-7.89-10.61H331.46z
		 M333.83,377.77v-8.63h10.15c-0.11,2.87-0.5,5.83-1.19,8.63H333.83z M346.35,369.14h8.47c-0.17,3.25-0.99,6.33-2.32,9.09v-0.46
		h-7.29C345.87,374.95,346.25,372,346.35,369.14z M350.63,354.41h-6.26c-1.07-3.2-2.61-6.12-4.72-8.38
		C344.1,347.57,347.93,350.54,350.63,354.41z M326.17,345.85c-2.2,2.28-3.79,5.27-4.89,8.56h-6.61
		C317.47,350.39,321.5,347.34,326.17,345.85z M313.89,380.24h7.21c1.17,3.83,2.91,7.28,5.26,9.8
		C321.16,388.43,316.74,384.9,313.89,380.24z M339.44,389.87c2.27-2.5,3.96-5.89,5.11-9.63h6.86
		C348.64,384.75,344.42,388.2,339.44,389.87z"/>
</g>
</svg>
