<?xml version="1.0" encoding="utf-8"?>
<!-- Generator: Adobe Illustrator 23.1.1, SVG Export Plug-In . SVG Version: 6.00 Build 0)  -->
<svg version="1.1" id="Layer_1" xmlns="http://www.w3.org/2000/svg" xmlns:xlink="http://www.w3.org/1999/xlink" x="0px" y="0px"
	 viewBox="0 0 1600 500" style="enable-background:new 0 0 1600 500;" xml:space="preserve">
<style type="text/css">
	.st0{fill:#744CA9;}
	.st1{fill:#A38ADA;}
	.st2{fill:url(#SVGID_1_);}
	.st3{fill:#805BB6;}
	.st4{fill:url(#SVGID_2_);}
	.st5{fill:#8C6BC2;}
	.st6{fill:#FFB900;}
	.st7{fill:#FFE8AA;}
	.st8{fill:#9E83E3;}
	.st9{fill:#FFD055;}
	.st10{fill:#FFFFFF;}
	.st11{fill-rule:evenodd;clip-rule:evenodd;fill:#854CC7;}
	.st12{fill:#52218A;}
	.st13{fill:#6C33AF;}
	.st14{fill:#854CC7;}
	.st15{fill:#B179F1;}
</style>
<g>
	<g>
		<ellipse class="st0" cx="908.06" cy="29.29" rx="4.49" ry="4.48"/>
		<ellipse class="st0" cx="1293.3" cy="89.24" rx="4.16" ry="4.15"/>
		<ellipse class="st0" cx="1012.3" cy="415.69" rx="4.16" ry="4.15"/>
		<ellipse class="st0" cx="1577.26" cy="70.07" rx="4.16" ry="4.15"/>
		<ellipse class="st0" cx="817.26" cy="60.1" rx="4.16" ry="4.15"/>
		<ellipse class="st0" cx="751.79" cy="21.83" rx="4.93" ry="4.92"/>
		<ellipse class="st0" cx="686.15" cy="50" rx="5.09" ry="5.08"/>
		<path class="st1" d="M1446.22,87.22c4.74-0.23,10.76-1.14,15.85-2.21c-5.29-1.48-10.77-2.03-15.82-2.1
			c-0.23-4.71-1.14-10.67-2.21-15.72c-1.48,5.27-2.04,10.75-2.1,15.78c-9.03,0.36-15.76,2.04-15.76,2.04s10.03,1.75,15.82,2.17
			c0.35,9.04,2.04,15.81,2.04,15.81S1445.79,93,1446.22,87.22z"/>
		<path class="st1" d="M896.82,76.36c4.74-0.23,10.76-1.14,15.85-2.21c-5.29-1.48-10.77-2.03-15.82-2.1
			c-0.23-4.71-1.14-10.67-2.21-15.72c-1.48,5.27-2.04,10.75-2.1,15.78c-9.03,0.36-15.76,2.04-15.76,2.04s10.03,1.75,15.82,2.17
			c0.35,9.04,2.04,15.81,2.04,15.81S896.39,82.14,896.82,76.36z"/>
		
			<radialGradient id="SVGID_1_" cx="1379.724" cy="687.5589" r="329.6738" gradientTransform="matrix(1 0 0 0.9972 0 0.6961)" gradientUnits="userSpaceOnUse">
			<stop  offset="0.1162" style="stop-color:#8C6BC2"/>
			<stop  offset="0.767" style="stop-color:#6F45A4"/>
			<stop  offset="0.9935" style="stop-color:#5C2D91"/>
		</radialGradient>
		<rect x="1.82" y="-0.99" class="st2" width="1600" height="500"/>
		<g>
			<g>
				<path class="st3" d="M394.18,35.27H62.09c-1.66,0-3-1.34-3-2.99c0-1.65,1.34-2.99,3-2.99h332.09c1.66,0,3,1.34,3,2.99
					C397.18,33.94,395.84,35.27,394.18,35.27z"/>
			</g>
			<g>
				<path class="st3" d="M472.32,69.78c-0.01,0-0.01,0-0.02,0L62.07,66.95c-1.66-0.01-2.99-1.36-2.98-3.01
					c0.01-1.65,1.35-2.97,3-2.97c0.01,0,0.01,0,0.02,0l410.23,2.83c1.66,0.01,2.99,1.36,2.98,3.01
					C475.31,68.46,473.97,69.78,472.32,69.78z"/>
			</g>
			<g>
				<path class="st3" d="M314.92,98.63H62.09c-1.66,0-3-1.34-3-2.99s1.34-2.99,3-2.99h252.84c1.66,0,3,1.34,3,2.99
					S316.58,98.63,314.92,98.63z"/>
			</g>
			<g>
				<path class="st3" d="M653.16,130.3H507.95c-1.66,0-3-1.34-3-2.99s1.34-2.99,3-2.99h145.21c1.66,0,3,1.34,3,2.99
					S654.81,130.3,653.16,130.3z"/>
			</g>
			<g>
				<path class="st3" d="M487.95,130.3H271.3c-1.66,0-3-1.34-3-2.99s1.34-2.99,3-2.99h216.65c1.66,0,3,1.34,3,2.99
					S489.6,130.3,487.95,130.3z"/>
			</g>
			<g>
				<path class="st3" d="M251.3,130.3h-49.46c-1.66,0-3-1.34-3-2.99s1.34-2.99,3-2.99h49.46c1.66,0,3,1.34,3,2.99
					S252.95,130.3,251.3,130.3z"/>
			</g>
			<g>
				<path class="st3" d="M181.84,130.3H92.09c-1.66,0-3-1.34-3-2.99s1.34-2.99,3-2.99h89.75c1.66,0,3,1.34,3,2.99
					S183.49,130.3,181.84,130.3z"/>
			</g>
			<g>
				<path class="st3" d="M506.92,161.98H346.09c-1.66,0-3-1.34-3-2.99c0-1.65,1.34-2.99,3-2.99h160.84c1.66,0,3,1.34,3,2.99
					C509.92,160.64,508.58,161.98,506.92,161.98z"/>
			</g>
			<g>
				<path class="st3" d="M326.09,161.98H187.02c-1.66,0-3-1.34-3-2.99c0-1.65,1.34-2.99,3-2.99h139.06c1.66,0,3,1.34,3,2.99
					C329.09,160.64,327.74,161.98,326.09,161.98z"/>
			</g>
			<g>
				<path class="st3" d="M167.02,161.98H92.09c-1.66,0-3-1.34-3-2.99c0-1.65,1.34-2.99,3-2.99h74.94c1.66,0,3,1.34,3,2.99
					C170.02,160.64,168.68,161.98,167.02,161.98z"/>
			</g>
			<g>
				<path class="st3" d="M821.71,225.33h-78.5c-1.66,0-3-1.34-3-2.99c0-1.65,1.34-2.99,3-2.99h78.5c1.66,0,3,1.34,3,2.99
					C824.71,223.99,823.37,225.33,821.71,225.33z"/>
			</g>
			<g>
				<path class="st3" d="M723.21,225.33H571.59c-1.66,0-3-1.34-3-2.99c0-1.65,1.34-2.99,3-2.99h151.62c1.66,0,3,1.34,3,2.99
					C726.21,223.99,724.87,225.33,723.21,225.33z"/>
			</g>
			<g>
				<path class="st3" d="M551.59,225.33H443.16c-1.66,0-3-1.34-3-2.99c0-1.65,1.34-2.99,3-2.99h108.44c1.66,0,3,1.34,3,2.99
					C554.59,223.99,553.25,225.33,551.59,225.33z"/>
			</g>
			<g>
				<path class="st3" d="M423.16,225.33H276.94c-1.66,0-3-1.34-3-2.99c0-1.65,1.34-2.99,3-2.99h146.21c1.66,0,3,1.34,3,2.99
					C426.16,223.99,424.81,225.33,423.16,225.33z"/>
			</g>
			<g>
				<path class="st3" d="M256.94,225.33h-71.48c-1.66,0-3-1.34-3-2.99c0-1.65,1.34-2.99,3-2.99h71.48c1.66,0,3,1.34,3,2.99
					C259.94,223.99,258.6,225.33,256.94,225.33z"/>
			</g>
			<g>
				<path class="st3" d="M165.47,225.33H92.09c-1.66,0-3-1.34-3-2.99c0-1.65,1.34-2.99,3-2.99h73.38c1.66,0,3,1.34,3,2.99
					C168.47,223.99,167.12,225.33,165.47,225.33z"/>
			</g>
			<g>
				<path class="st3" d="M891.72,257.01H583.74c-1.66,0-3-1.34-3-2.99s1.34-2.99,3-2.99h307.98c1.66,0,3,1.34,3,2.99
					S893.38,257.01,891.72,257.01z"/>
			</g>
			<g>
				<path class="st3" d="M563.74,257.01H489c-1.66,0-3-1.34-3-2.99s1.34-2.99,3-2.99h74.74c1.66,0,3,1.34,3,2.99
					S565.4,257.01,563.74,257.01z"/>
			</g>
			<g>
				<path class="st3" d="M469,257.01H308.94c-1.66,0-3-1.34-3-2.99s1.34-2.99,3-2.99H469c1.66,0,3,1.34,3,2.99
					S470.66,257.01,469,257.01z"/>
			</g>
			<g>
				<path class="st3" d="M288.94,257.01h-53.77c-1.66,0-3-1.34-3-2.99s1.34-2.99,3-2.99h53.77c1.66,0,3,1.34,3,2.99
					S290.6,257.01,288.94,257.01z"/>
			</g>
			<g>
				<path class="st3" d="M215.17,257.01h-63.08c-1.66,0-3-1.34-3-2.99s1.34-2.99,3-2.99h63.08c1.66,0,3,1.34,3,2.99
					S216.82,257.01,215.17,257.01z"/>
			</g>
			<g>
				<path class="st3" d="M807.95,320.36H584.33c-1.66,0-3-1.34-3-2.99s1.34-2.99,3-2.99h223.62c1.66,0,3,1.34,3,2.99
					S809.61,320.36,807.95,320.36z"/>
			</g>
			<g>
				<path class="st3" d="M564.33,320.36H455.3c-1.66,0-3-1.34-3-2.99s1.34-2.99,3-2.99h109.03c1.66,0,3,1.34,3,2.99
					S565.99,320.36,564.33,320.36z"/>
			</g>
			<g>
				<path class="st3" d="M435.3,320.36H293.31c-1.66,0-3-1.34-3-2.99s1.34-2.99,3-2.99H435.3c1.66,0,3,1.34,3,2.99
					S436.96,320.36,435.3,320.36z"/>
			</g>
			<g>
				<path class="st3" d="M273.31,320.36h-68.59c-1.66,0-3-1.34-3-2.99s1.34-2.99,3-2.99h68.59c1.66,0,3,1.34,3,2.99
					S274.97,320.36,273.31,320.36z"/>
			</g>
			<g>
				<path class="st3" d="M184.72,320.36H92.09c-1.66,0-3-1.34-3-2.99s1.34-2.99,3-2.99h92.64c1.66,0,3,1.34,3,2.99
					S186.38,320.36,184.72,320.36z"/>
			</g>
			<g>
				<path class="st3" d="M735.76,352.03H618.03c-1.66,0-3-1.34-3-2.99c0-1.65,1.34-2.99,3-2.99h117.73c1.66,0,3,1.34,3,2.99
					C738.76,350.69,737.42,352.03,735.76,352.03z"/>
			</g>
			<g>
				<path class="st3" d="M598.03,352.03H385.01c-1.66,0-3-1.34-3-2.99c0-1.65,1.34-2.99,3-2.99h213.02c1.66,0,3,1.34,3,2.99
					C601.03,350.69,599.69,352.03,598.03,352.03z"/>
			</g>
			<g>
				<path class="st3" d="M365.01,352.03h-83.99c-1.66,0-3-1.34-3-2.99c0-1.65,1.34-2.99,3-2.99h83.99c1.66,0,3,1.34,3,2.99
					C368.01,350.69,366.67,352.03,365.01,352.03z"/>
			</g>
			<g>
				<path class="st3" d="M261.02,352.03H152.09c-1.66,0-3-1.34-3-2.99c0-1.65,1.34-2.99,3-2.99h108.93c1.66,0,3,1.34,3,2.99
					C264.02,350.69,262.67,352.03,261.02,352.03z"/>
			</g>
			<g>
				<path class="st3" d="M575.02,415.39H327.24c-1.66,0-3-1.34-3-2.99c0-1.65,1.34-2.99,3-2.99h247.78c1.66,0,3,1.34,3,2.99
					C578.02,414.05,576.67,415.39,575.02,415.39z"/>
			</g>
			<g>
				<path class="st3" d="M841.02,415.39H593.24c-1.66,0-3-1.34-3-2.99c0-1.65,1.34-2.99,3-2.99h247.78c1.66,0,3,1.34,3,2.99
					C844.02,414.05,842.67,415.39,841.02,415.39z"/>
			</g>
			<g>
				<path class="st3" d="M307.24,415.39h-65.15c-1.66,0-3-1.34-3-2.99c0-1.65,1.34-2.99,3-2.99h65.15c1.66,0,3,1.34,3,2.99
					C310.24,414.05,308.89,415.39,307.24,415.39z"/>
			</g>
			<g>
				<path class="st3" d="M768.13,447.06H616.11c-1.66,0-3-1.34-3-2.99s1.34-2.99,3-2.99h152.02c1.66,0,3,1.34,3,2.99
					S769.79,447.06,768.13,447.06z"/>
			</g>
			<g>
				<path class="st3" d="M596.11,447.06H343.38c-1.66,0-3-1.34-3-2.99s1.34-2.99,3-2.99h252.72c1.66,0,3,1.34,3,2.99
					S597.77,447.06,596.11,447.06z"/>
			</g>
			<g>
				<path class="st3" d="M323.38,447.06h-81.3c-1.66,0-3-1.34-3-2.99s1.34-2.99,3-2.99h81.3c1.66,0,3,1.34,3,2.99
					S325.04,447.06,323.38,447.06z"/>
			</g>
			<g>
				<path class="st3" d="M666.55,478.74H242.09c-1.66,0-3-1.34-3-2.99c0-1.65,1.34-2.99,3-2.99h424.46c1.66,0,3,1.34,3,2.99
					C669.55,477.4,668.21,478.74,666.55,478.74z"/>
			</g>
		</g>
		<path class="st3" d="M1528.84,477.88c-8.57,0.66-16,4.92-20.9,11.18c-5.45-13.61-19.28-22.73-34.71-21.54
			c-4.43,0.34-8.59,1.51-12.35,3.32c0.62-3.24,0.84-6.61,0.57-10.06c-1.62-20.94-19.93-36.62-40.91-35.01
			c-19.56,1.5-34.52,17.49-35.15,36.62c-5.17-1.46-10.68-2.06-16.35-1.62c-15.32,1.18-28.35,9.59-35.98,21.63
			c-5.04-10.69-16.31-17.7-28.81-16.74c-16.16,1.24-28.25,15.32-27.01,31.45c0.05,0.64,0.12,1.27,0.21,1.89h281.86
			C1555.57,485.9,1542.99,476.8,1528.84,477.88z"/>
		<ellipse class="st0" cx="1318.74" cy="172.74" rx="6.07" ry="6.05"/>
		<ellipse class="st0" cx="1436.72" cy="281.1" rx="5.18" ry="5.16"/>
		<ellipse class="st0" cx="1085.66" cy="300.3" rx="2.78" ry="2.77"/>
		<ellipse class="st0" cx="1048.06" cy="153.55" rx="4.16" ry="4.15"/>
		<ellipse class="st0" cx="880.16" cy="147.62" rx="6.07" ry="6.05"/>
		<ellipse class="st0" cx="1473.92" cy="209.63" rx="2.19" ry="2.19"/>
		<ellipse class="st0" cx="989.07" cy="186.74" rx="4.93" ry="4.92"/>
		<ellipse class="st0" cx="1007.97" cy="269.29" rx="5.09" ry="5.08"/>
		<ellipse class="st0" cx="1317.74" cy="236.2" rx="3.74" ry="3.73"/>
		<ellipse class="st0" cx="1553.27" cy="256.56" rx="4.93" ry="4.92"/>
		<ellipse class="st0" cx="1463.53" cy="147.85" rx="6.07" ry="6.05"/>
		<ellipse class="st0" cx="1518.61" cy="118.51" rx="5.09" ry="5.08"/>
		<path class="st1" d="M1121.58,254.89c4.74-0.23,10.76-1.14,15.85-2.21c-5.29-1.48-10.77-2.03-15.82-2.1
			c-0.23-4.71-1.14-10.67-2.21-15.72c-1.48,5.27-2.04,10.75-2.1,15.78c-9.03,0.36-15.76,2.04-15.76,2.04s10.03,1.75,15.82,2.17
			c0.35,9.04,2.04,15.81,2.04,15.81S1121.15,260.67,1121.58,254.89z"/>
		<path class="st3" d="M1255.65,107.81c4.74-0.23,10.76-1.14,15.85-2.21c-5.29-1.48-10.77-2.03-15.82-2.1
			c-0.23-4.71-1.14-10.67-2.21-15.72c-1.48,5.27-2.04,10.75-2.1,15.78c-9.03,0.36-15.76,2.04-15.76,2.04s10.03,1.75,15.82,2.17
			c0.35,9.04,2.04,15.81,2.04,15.81S1255.22,113.59,1255.65,107.81z"/>
		
			<linearGradient id="SVGID_2_" gradientUnits="userSpaceOnUse" x1="2627.9661" y1="1895.6835" x2="2627.9661" y2="1997.8073" gradientTransform="matrix(0.9246 -0.381 0.4114 0.9985 -2020.6226 -738.3028)">
			<stop  offset="0" style="stop-color:#8C6BC2"/>
			<stop  offset="0.6715" style="stop-color:#6F45A4"/>
			<stop  offset="0.9949" style="stop-color:#5C2D91"/>
		</linearGradient>
		<polygon class="st4" points="1259.27,243.57 1203.02,266.69 1160.93,164.82 1217.17,141.7 		"/>
		<g>
			<polygon class="st5" points="1232.66,175.66 1175.02,199.02 1162.42,186.77 1233.12,158.74 			"/>
			<path class="st6" d="M1227.15,166.5l-54.23,21.98c-5.37,2.17-11.48-0.4-13.67-5.75l-35.87-88.01c-2.16-5.29,0.4-11.32,5.7-13.47
				l54.34-22.02c5.37-2.17,11.48,0.4,13.67,5.75l35.82,87.9C1235.1,158.22,1232.52,164.32,1227.15,166.5z"/>
			<path class="st5" d="M1122.74,88.73l13.75-57.41c0.47-1.93,3.92-3.31,5.62-2.28L1192.83,60L1122.74,88.73z"/>
			<g>
				<g>
					<g>
						<path class="st7" d="M1191.91,112.13c-0.38-0.91-1.43-1.34-2.35-0.97l-27.25,11.23c-0.44,0.18-0.79,0.53-0.97,0.97
							c-0.18,0.44-0.18,0.93,0,1.37l7.1,17.17c0.15,0.36,0.42,0.63,0.78,0.78c0.35,0.15,0.74,0.15,1.1,0c0,0,0.01,0,0.01,0
							l10.6-4.37l1.45,3.55l-2.92,1.18c-0.72,0.29-1.07,1.11-0.77,1.83c0.29,0.72,1.12,1.06,1.84,0.77l12.68-5.14
							c0.72-0.29,1.07-1.11,0.77-1.83c-0.29-0.72-1.12-1.06-1.84-0.77l-2.92,1.18l-1.46-3.59l10.48-4.32
							c0.73-0.3,1.09-1.14,0.78-1.88L1191.91,112.13z"/>
						<path class="st7" d="M1202.3,150.47c-1.01-1.22-2.68-1.63-4.15-1.04l-2.32,0.94c-0.61,0.25-0.98,0.85-0.93,1.5l-7.37,2.98
							c-0.44-0.45-1.29-0.59-1.92-0.34l-2.01,0.82c-1.47,0.6-2.37,2.06-2.25,3.63l0.87,10.97c0.16,1.99,1.91,3.48,3.9,3.32
							c0.37-0.03,0.74-0.11,1.08-0.25c1.01-0.41,1.86-1.42,2.16-2.53l1.81-4.9c0.12-0.32,0.37-0.58,0.69-0.71l7.04-2.85
							c0.32-0.13,0.68-0.12,1,0.03l4.73,2.26c0.91,0.4,2.11,0.79,3.3,0.3c0.35-0.14,0.67-0.33,0.95-0.57
							c1.54-1.27,1.75-3.56,0.47-5.09L1202.3,150.47z"/>
						<path class="st7" d="M1165.99,108.78c0.53,0.22,1.11,0.22,1.64,0.01c0,0,0.01,0,0.01,0l9.04-3.7c1.1-0.45,1.62-1.7,1.17-2.8
							L1169,80.77c-0.22-0.53-0.63-0.94-1.16-1.16c-0.53-0.22-1.1-0.19-1.65-0.01l-9.04,3.7c-1.1,0.45-1.62,1.7-1.17,2.8l8.85,21.52
							C1165.05,108.15,1165.46,108.56,1165.99,108.78z"/>
					</g>
					<path class="st6" d="M1167.38,81.98c-0.05-0.11-0.16-0.17-0.26-0.13l-1.4,0.57l0.01,1.28c0,0.2-0.11,0.38-0.28,0.45l-4.51,1.83
						c-0.18,0.07-0.39,0.02-0.53-0.15l-0.79-0.91l-1.47,0.6c-0.1,0.04-0.14,0.16-0.1,0.27l8.47,20.46c0.04,0.11,0.16,0.16,0.26,0.13
						l8.94-3.47c0.1-0.04,0.15-0.16,0.1-0.27L1167.38,81.98z"/>
				</g>
				<polygon class="st6" points="1196.54,129.35 1170.28,140.18 1163.67,124.29 1189.93,113.46 				"/>
				<g>
					<ellipse class="st6" cx="1186.31" cy="159.3" rx="2.51" ry="2.5"/>
					<ellipse class="st6" cx="1199.07" cy="154.13" rx="2.51" ry="2.5"/>
					<path class="st6" d="M1194.69,156.31l-3.87,1.57c-0.38,0.16-0.82-0.03-0.98-0.41l0,0c-0.16-0.38,0.03-0.82,0.41-0.98l3.87-1.57
						c0.38-0.16,0.82,0.03,0.98,0.41l0,0C1195.26,155.72,1195.07,156.15,1194.69,156.31z"/>
					<ellipse class="st6" cx="1190.97" cy="162.22" rx="1.17" ry="1.17"/>
					<ellipse class="st6" cx="1197.85" cy="159.43" rx="1.17" ry="1.17"/>
				</g>
			</g>
		</g>
		<polygon class="st6" points="1340.83,440.26 1282.99,463.69 1211.71,288.68 1269.55,265.26 		"/>
		<polygon class="st6" points="1344.7,444.77 1284.21,469.27 1273.9,443.95 1334.39,419.45 		"/>
		<polygon class="st8" points="1290.13,490.29 1272.28,497.52 1272.46,499.01 1296.79,499.01 		"/>
		<polygon class="st8" points="1390.8,481.48 1358.01,494.76 1354.31,464.3 1372.16,457.07 		"/>
		<polygon class="st8" points="1313.24,480.93 1315.43,499.01 1347.52,499.01 1349.73,498.11 1331.09,473.7 		"/>
		<path class="st9" d="M1291.4,365.15c-0.66-1.63-1.76-3.05-3.18-4.1l-16.86-12.5c-0.99-0.73-2.4-0.17-2.61,1.05l-3.46,20.41
			c-0.33,1.98-0.11,4.01,0.64,5.86l45.5,111.8l25.63-10.38L1291.4,365.15z"/>
		<polygon class="st5" points="1303.01,467 1311.43,487.68 1337.06,477.3 1328.64,456.62 		"/>
		<g>
			<polygon class="st7" points="1291.19,437.95 1291.8,439.44 1317.42,429.06 1316.81,427.57 			"/>
			<polygon class="st7" points="1279.67,409.65 1280.28,411.14 1305.9,400.76 1305.29,399.28 			"/>
			<polygon class="st7" points="1268.16,381.35 1268.76,382.84 1294.37,372.47 1293.77,370.98 			"/>
		</g>
		<g>
			<path class="st7" d="M1276.95,334.21c0.16,0.4,0.16,0.8-0.01,1.2c-0.17,0.4-0.46,0.68-0.86,0.84c-0.4,0.16-0.81,0.16-1.21,0
				c-0.41-0.16-0.69-0.45-0.86-0.85c-0.17-0.41-0.16-0.82,0.01-1.22c0.18-0.4,0.46-0.69,0.86-0.85c0.4-0.16,0.8-0.16,1.21,0.01
				C1276.5,333.51,1276.78,333.8,1276.95,334.21z"/>
			<path class="st7" d="M1268.35,313.9l1.09,2.69l-11.03,15.69c-0.28,0.4-0.59,0.75-0.93,1.08l0.03,0.08
				c0.37-0.23,1.22-0.61,2.54-1.15l13.56-5.49l0.89,2.19l-18.76,7.6l-1.16-2.84l10.9-15.33c0.45-0.64,0.77-1.06,0.95-1.27
				l-0.02-0.05c-0.51,0.31-1.41,0.72-2.71,1.25l-13.22,5.35l-0.89-2.19L1268.35,313.9z"/>
			<path class="st7" d="M1262.31,299.08l4.04,9.92l-18.76,7.6l-3.87-9.5l1.99-0.81l2.98,7.31l6.24-2.53l-2.75-6.76l1.98-0.8
				l2.75,6.76l6.57-2.66l-3.15-7.72L1262.31,299.08z"/>
			<path class="st7" d="M1239.54,291.16l2.2,5.4l16.77-6.79l0.89,2.19l-16.77,6.79l2.19,5.39l-1.99,0.81l-5.29-12.98L1239.54,291.16
				z"/>
		</g>
		<path class="st9" d="M1378.16,460.71l-25.61,10.37l-55.2-135.54l29.43,8.87c2.9,0.87,5.24,3.01,6.38,5.8L1378.16,460.71z"/>
		<polygon class="st5" points="1344.11,450.35 1352.56,471.08 1378.16,460.71 1369.72,439.98 		"/>
		<g>
			<polygon class="st7" points="1332.28,421.31 1332.89,422.8 1358.5,412.43 1357.89,410.94 			"/>
			<polygon class="st7" points="1320.76,393.01 1321.36,394.5 1346.97,384.13 1346.37,382.64 			"/>
			<polygon class="st7" points="1309.23,364.71 1309.84,366.2 1335.45,355.83 1334.84,354.34 			"/>
		</g>
		<ellipse class="st0" cx="1335.72" cy="26.19" rx="5.09" ry="5.08"/>
		<ellipse class="st0" cx="1511.79" cy="31.8" rx="4.93" ry="4.92"/>
		<ellipse class="st0" cx="1053.77" cy="80.21" rx="3.49" ry="3.48"/>
		<ellipse class="st0" cx="1400.17" cy="102.15" rx="4.93" ry="4.92"/>
		<ellipse class="st0" cx="1206.7" cy="30.25" rx="4.93" ry="4.92"/>
		<ellipse class="st0" cx="928.16" cy="39.98" rx="5.09" ry="5.08"/>
		<path class="st1" d="M1460.26,67.98c4.74-0.23,10.76-1.14,15.85-2.21c-5.29-1.48-10.77-2.03-15.82-2.1
			c-0.23-4.71-1.14-10.67-2.21-15.72c-1.48,5.27-2.04,10.75-2.1,15.78c-9.03,0.36-15.76,2.04-15.76,2.04s10.03,1.75,15.82,2.17
			c0.35,9.04,2.04,15.81,2.04,15.81S1459.83,73.76,1460.26,67.98z"/>
		<path class="st9" d="M1262.11,483.74l33.91,10.24l-55.2-135.54l-15.64,28.18c-0.99,1.78-1.12,3.91-0.35,5.8L1262.11,483.74z"/>
		<polygon class="st5" points="1261.97,483.62 1268.23,499.01 1283.61,499.01 1296.02,493.98 1287.57,473.25 		"/>
		<g>
			<polygon class="st7" points="1250.14,454.58 1250.74,456.07 1276.35,445.7 1275.74,444.21 			"/>
			<polygon class="st7" points="1227.09,397.98 1227.69,399.47 1253.3,389.1 1252.69,387.61 			"/>
			<polygon class="st7" points="1238.61,426.28 1239.22,427.77 1264.83,417.4 1264.22,415.91 			"/>
		</g>
		<path class="st3" d="M733.92,60.37c4.74-0.23,10.76-1.14,15.85-2.21c-5.29-1.48-10.77-2.03-15.82-2.1
			c-0.23-4.71-1.14-10.67-2.21-15.72c-1.48,5.27-2.04,10.75-2.1,15.78c-9.03,0.36-15.76,2.04-15.76,2.04s10.03,1.75,15.82,2.17
			c0.35,9.04,2.04,15.81,2.04,15.81S733.5,66.15,733.92,60.37z"/>
	</g>
	<g>
		<g>
			<path class="st10" d="M1271.42,345.53c0.71-0.64,1.67-0.96,2.62-0.88l4.87,0.42c1.24,0.11,2.29,0.87,2.73,1.99l5.29,13.3
				c0.44,1.11,0.2,2.39-0.62,3.31l-3.26,3.63c-0.64,0.71-1.55,1.13-2.51,1.15l-13.23,0.31c-1.38,0.03-2.62-0.76-3.11-2l-3.52-8.84
				c-0.49-1.24-0.14-2.66,0.89-3.58L1271.42,345.53z"/>
		</g>
		<path class="st11" d="M1278.81,346.18l-4.87-0.42c-0.64-0.06-1.29,0.16-1.77,0.59l-9.84,8.82c-0.7,0.62-0.91,1.56-0.6,2.34
			l3.52,8.84c0.31,0.78,1.11,1.32,2.04,1.29l13.23-0.31c0.65-0.02,1.27-0.3,1.7-0.78l3.26-3.63c0.56-0.62,0.7-1.45,0.42-2.16
			l-5.29-13.3C1280.32,346.76,1279.64,346.25,1278.81,346.18z M1274.04,344.65c-0.95-0.08-1.9,0.24-2.62,0.88l-9.84,8.82
			c-1.03,0.92-1.38,2.34-0.89,3.58l3.52,8.84c0.49,1.24,1.73,2.03,3.11,2l13.23-0.31c0.96-0.02,1.87-0.44,2.51-1.15l3.26-3.63
			c0.83-0.92,1.07-2.2,0.62-3.31l-5.29-13.3c-0.44-1.11-1.5-1.88-2.73-1.99L1274.04,344.65z"/>
		<path class="st12" d="M1269.48,364.66c-0.12,0.23-0.35,0.37-0.6,0.36l-1.33-0.04c-0.27-0.01-0.52-0.18-0.62-0.44l-2.73-6.86
			c-0.1-0.26-0.04-0.55,0.15-0.75l0.94-0.94c0.18-0.18,0.45-0.24,0.69-0.15l0.34,0.12c-0.3-0.08-0.55,0.22-0.43,0.51l3.09,7.78
			c0.12,0.29,0.5,0.33,0.66,0.07L1269.48,364.66z"/>
		<g>
			<path class="st13" d="M1267.57,364.97c-0.28,0-0.53-0.18-0.64-0.44l-0.02-0.05c0.14,0.34,0.62,0.34,0.75-0.01l5.65-15.09
				c0.18-0.41,0.59-0.66,1.03-0.63l3.83,0.27c0.4,0.03,0.75,0.28,0.9,0.66l0.01,0.04c-0.21-0.52-0.92-0.56-1.19-0.08l-8.15,14.65
				l-0.17,0.33c-0.12,0.23-0.37,0.38-0.63,0.37L1267.57,364.97z"/>
		</g>
		<g>
			<path class="st14" d="M1264.37,356.93c-0.2,0.2-0.27,0.49-0.16,0.76l0.02,0.05c-0.14-0.34,0.22-0.67,0.55-0.51l14.49,7.13
				c0.41,0.18,0.88,0.08,1.18-0.25l2.6-2.81c0.27-0.3,0.35-0.72,0.2-1.09l-0.01-0.04c0.21,0.52-0.28,1.04-0.82,0.87l-16-5.1
				l-0.35-0.12c-0.25-0.09-0.53-0.02-0.72,0.16L1264.37,356.93z"/>
		</g>
		<g>
			<path class="st15" d="M1280.48,364.1c-0.3,0.33-0.77,0.42-1.18,0.25c0.5,0.22,1.01-0.28,0.81-0.79l-5.64-14.17
				c-0.2-0.51-0.92-0.52-1.13-0.02c0.17-0.41,0.58-0.66,1.03-0.62l3.81,0.29c0.4,0.03,0.75,0.29,0.9,0.66l4.18,10.5
				c0.15,0.38,0.07,0.8-0.2,1.1L1280.48,364.1z"/>
		</g>
	</g>
</g>
</svg>
