<?xml version="1.0" encoding="utf-8"?>
<!-- Generator: Adobe Illustrator 23.1.1, SVG Export Plug-In . SVG Version: 6.00 Build 0)  -->
<svg version="1.1" id="Layer_1" xmlns="http://www.w3.org/2000/svg" xmlns:xlink="http://www.w3.org/1999/xlink" x="0px" y="0px"
	 viewBox="0 0 1600 500" style="enable-background:new 0 0 1600 500;" xml:space="preserve">
<style type="text/css">
	.st0{fill:url(#SVGID_1_);}
	.st1{fill:#805BB6;}
	.st2{fill:#AF99E7;}
	.st3{fill:#FFFFFF;}
	.st4{fill:#9E83E3;}
	.st5{fill:#DED5FF;}
	.st6{fill:none;}
	.st7{fill:#712D8D;}
	.st8{fill:#AE7EC1;}
	.st9{fill:#EFE0EF;}
	.st10{fill:#9251A8;}
	.st11{fill:none;stroke:#712D8D;stroke-miterlimit:10;}
	.st12{fill:#5F247B;}
	.st13{fill:#744CA9;}
	.st14{fill:#E3646A;}
	.st15{fill:url(#SVGID_2_);}
	.st16{fill:url(#SVGID_3_);}
	.st17{fill:url(#SVGID_4_);}
	.st18{fill:#8C6BC2;}
	.st19{fill:#FFB900;}
	.st20{fill:#FFD055;}
	.st21{fill:#FFE8AA;}
	.st22{fill-rule:evenodd;clip-rule:evenodd;fill:#854CC7;}
	.st23{fill:#52218A;}
	.st24{fill:#6C33AF;}
	.st25{fill:#854CC7;}
	.st26{fill:#B179F1;}
</style>
<radialGradient id="SVGID_1_" cx="1215.7793" cy="676.3943" r="435.407" gradientUnits="userSpaceOnUse">
	<stop  offset="0.1162" style="stop-color:#8C6BC2"/>
	<stop  offset="0.653" style="stop-color:#6F45A4"/>
	<stop  offset="0.9935" style="stop-color:#5C2D91"/>
</radialGradient>
<rect x="-0.12" y="-0.54" class="st0" width="1600" height="500"/>
<g>
	<path class="st1" d="M392.23,34.43H60.14c-1.66,0-3-1.34-3-3c0-1.66,1.34-3,3-3h332.09c1.66,0,3,1.34,3,3
		C395.23,33.09,393.89,34.43,392.23,34.43z"/>
</g>
<g>
	<path class="st1" d="M470.37,69.04c-0.01,0-0.01,0-0.02,0L60.12,66.2c-1.66-0.01-2.99-1.36-2.98-3.02c0.01-1.65,1.35-2.98,3-2.98
		c0.01,0,0.01,0,0.02,0l410.23,2.84c1.66,0.01,2.99,1.36,2.98,3.02C473.36,67.71,472.02,69.04,470.37,69.04z"/>
</g>
<g>
	<path class="st1" d="M312.98,97.96H60.14c-1.66,0-3-1.34-3-3s1.34-3,3-3h252.84c1.66,0,3,1.34,3,3S314.64,97.96,312.98,97.96z"/>
</g>
<g>
	<path class="st1" d="M651.21,129.73H506c-1.66,0-3-1.34-3-3c0-1.66,1.34-3,3-3h145.21c1.66,0,3,1.34,3,3
		C654.21,128.38,652.87,129.73,651.21,129.73z"/>
</g>
<g>
	<path class="st1" d="M486,129.73H269.35c-1.66,0-3-1.34-3-3c0-1.66,1.34-3,3-3H486c1.66,0,3,1.34,3,3
		C489,128.38,487.66,129.73,486,129.73z"/>
</g>
<g>
	<path class="st1" d="M249.35,129.73h-49.46c-1.66,0-3-1.34-3-3c0-1.66,1.34-3,3-3h49.46c1.66,0,3,1.34,3,3
		C252.35,128.38,251.01,129.73,249.35,129.73z"/>
</g>
<g>
	<path class="st1" d="M179.89,129.73H90.14c-1.66,0-3-1.34-3-3c0-1.66,1.34-3,3-3h89.75c1.66,0,3,1.34,3,3
		C182.89,128.38,181.55,129.73,179.89,129.73z"/>
</g>
<g>
	<path class="st1" d="M504.98,161.49H344.14c-1.66,0-3-1.34-3-3s1.34-3,3-3h160.84c1.66,0,3,1.34,3,3S506.63,161.49,504.98,161.49z"
		/>
</g>
<g>
	<path class="st1" d="M324.14,161.49H185.08c-1.66,0-3-1.34-3-3s1.34-3,3-3h139.06c1.66,0,3,1.34,3,3S325.8,161.49,324.14,161.49z"
		/>
</g>
<g>
	<path class="st1" d="M165.08,161.49H90.14c-1.66,0-3-1.34-3-3s1.34-3,3-3h74.94c1.66,0,3,1.34,3,3S166.73,161.49,165.08,161.49z"/>
</g>
<g>
	<path class="st1" d="M819.77,225.02h-78.5c-1.66,0-3-1.34-3-3s1.34-3,3-3h78.5c1.66,0,3,1.34,3,3S821.43,225.02,819.77,225.02z"/>
</g>
<g>
	<path class="st1" d="M721.27,225.02H569.65c-1.66,0-3-1.34-3-3s1.34-3,3-3h151.62c1.66,0,3,1.34,3,3S722.92,225.02,721.27,225.02z"
		/>
</g>
<g>
	<path class="st1" d="M549.65,225.02H441.21c-1.66,0-3-1.34-3-3s1.34-3,3-3h108.44c1.66,0,3,1.34,3,3S551.31,225.02,549.65,225.02z"
		/>
</g>
<g>
	<path class="st1" d="M421.21,225.02H275c-1.66,0-3-1.34-3-3s1.34-3,3-3h146.21c1.66,0,3,1.34,3,3S422.87,225.02,421.21,225.02z"/>
</g>
<g>
	<path class="st1" d="M255,225.02h-71.48c-1.66,0-3-1.34-3-3s1.34-3,3-3H255c1.66,0,3,1.34,3,3S256.65,225.02,255,225.02z"/>
</g>
<g>
	<path class="st1" d="M163.52,225.02H90.14c-1.66,0-3-1.34-3-3s1.34-3,3-3h73.38c1.66,0,3,1.34,3,3S165.18,225.02,163.52,225.02z"/>
</g>
<g>
	<path class="st1" d="M889.78,256.78H581.8c-1.66,0-3-1.34-3-3s1.34-3,3-3h307.98c1.66,0,3,1.34,3,3S891.43,256.78,889.78,256.78z"
		/>
</g>
<g>
	<path class="st1" d="M561.8,256.78h-74.74c-1.66,0-3-1.34-3-3s1.34-3,3-3h74.74c1.66,0,3,1.34,3,3S563.45,256.78,561.8,256.78z"/>
</g>
<g>
	<path class="st1" d="M467.06,256.78H307c-1.66,0-3-1.34-3-3s1.34-3,3-3h160.06c1.66,0,3,1.34,3,3S468.72,256.78,467.06,256.78z"/>
</g>
<g>
	<path class="st1" d="M287,256.78h-53.77c-1.66,0-3-1.34-3-3s1.34-3,3-3H287c1.66,0,3,1.34,3,3S288.65,256.78,287,256.78z"/>
</g>
<g>
	<path class="st1" d="M213.22,256.78h-63.08c-1.66,0-3-1.34-3-3s1.34-3,3-3h63.08c1.66,0,3,1.34,3,3S214.88,256.78,213.22,256.78z"
		/>
</g>
<g>
	<path class="st1" d="M806,320.31H582.39c-1.66,0-3-1.34-3-3s1.34-3,3-3H806c1.66,0,3,1.34,3,3S807.66,320.31,806,320.31z"/>
</g>
<g>
	<path class="st1" d="M562.39,320.31H453.36c-1.66,0-3-1.34-3-3s1.34-3,3-3h109.03c1.66,0,3,1.34,3,3S564.04,320.31,562.39,320.31z"
		/>
</g>
<g>
	<path class="st1" d="M433.36,320.31H291.37c-1.66,0-3-1.34-3-3s1.34-3,3-3h141.99c1.66,0,3,1.34,3,3S435.01,320.31,433.36,320.31z"
		/>
</g>
<g>
	<path class="st1" d="M271.37,320.31h-68.59c-1.66,0-3-1.34-3-3s1.34-3,3-3h68.59c1.66,0,3,1.34,3,3S273.02,320.31,271.37,320.31z"
		/>
</g>
<g>
	<path class="st1" d="M182.78,320.31H90.14c-1.66,0-3-1.34-3-3s1.34-3,3-3h92.64c1.66,0,3,1.34,3,3S184.44,320.31,182.78,320.31z"/>
</g>
<g>
	<path class="st1" d="M733.82,352.08H616.09c-1.66,0-3-1.34-3-3s1.34-3,3-3h117.73c1.66,0,3,1.34,3,3S735.47,352.08,733.82,352.08z"
		/>
</g>
<g>
	<path class="st1" d="M596.09,352.08H383.07c-1.66,0-3-1.34-3-3s1.34-3,3-3h213.02c1.66,0,3,1.34,3,3S597.75,352.08,596.09,352.08z"
		/>
</g>
<g>
	<path class="st1" d="M363.07,352.08h-83.99c-1.66,0-3-1.34-3-3s1.34-3,3-3h83.99c1.66,0,3,1.34,3,3S364.72,352.08,363.07,352.08z"
		/>
</g>
<g>
	<path class="st1" d="M259.07,352.08H150.14c-1.66,0-3-1.34-3-3s1.34-3,3-3h108.93c1.66,0,3,1.34,3,3S260.73,352.08,259.07,352.08z"
		/>
</g>
<g>
	<path class="st1" d="M573.07,415.61H325.29c-1.66,0-3-1.34-3-3s1.34-3,3-3h247.78c1.66,0,3,1.34,3,3S574.73,415.61,573.07,415.61z"
		/>
</g>
<g>
	<path class="st1" d="M839.07,415.61H591.29c-1.66,0-3-1.34-3-3s1.34-3,3-3h247.78c1.66,0,3,1.34,3,3S840.73,415.61,839.07,415.61z"
		/>
</g>
<g>
	<path class="st1" d="M305.29,415.61h-65.15c-1.66,0-3-1.34-3-3s1.34-3,3-3h65.15c1.66,0,3,1.34,3,3S306.95,415.61,305.29,415.61z"
		/>
</g>
<g>
	<path class="st1" d="M766.19,447.37H614.16c-1.66,0-3-1.34-3-3s1.34-3,3-3h152.02c1.66,0,3,1.34,3,3S767.84,447.37,766.19,447.37z"
		/>
</g>
<g>
	<path class="st1" d="M594.16,447.37H341.44c-1.66,0-3-1.34-3-3s1.34-3,3-3h252.72c1.66,0,3,1.34,3,3S595.82,447.37,594.16,447.37z"
		/>
</g>
<g>
	<path class="st1" d="M321.44,447.37h-81.3c-1.66,0-3-1.34-3-3s1.34-3,3-3h81.3c1.66,0,3,1.34,3,3S323.1,447.37,321.44,447.37z"/>
</g>
<g>
	<path class="st1" d="M664.61,479.14H240.14c-1.66,0-3-1.34-3-3s1.34-3,3-3h424.46c1.66,0,3,1.34,3,3S666.26,479.14,664.61,479.14z"
		/>
</g>
<path class="st2" d="M1440.86,480.09c-6.3-0.34-12.17,1.68-16.76,5.3c-1.58-20.63-18.22-37.4-39.44-38.56
	c-16.97-0.93-32.13,8.4-39.46,22.58c-3.4-1.87-7.27-3.03-11.41-3.26c-2.41-0.13-4.76,0.07-7.01,0.54c0.93-2.98,1.52-6.13,1.7-9.39
	c1.15-21.12-15.03-39.17-36.15-40.32c-4.08-0.22-8.05,0.21-11.8,1.19c-4.2-9.48-13.44-16.33-24.51-16.93
	c-3.59-0.2-7.07,0.29-10.3,1.33c-4.8-12.86-16.85-22.33-31.44-23.12c-17.89-0.98-33.42,11.43-36.85,28.49
	c-2.57-0.69-5.27-1.07-8.05-1.07c-13.98,0-25.78,9.31-29.55,22.07c-5.34-5.92-13.08-9.65-21.68-9.65c-7.28,0-13.94,2.67-19.05,7.08
	c-8.34-12.51-22.58-20.75-38.74-20.75c-24.06,0-43.86,18.26-46.29,41.68c-1.71-0.33-3.47-0.55-5.26-0.65
	c-21.61-1.18-40.08,15.38-41.26,36.99c-0.14,2.62-0.01,5.2,0.35,7.71c-4.74,1.93-9.05,4.7-12.75,8.12h508.69
	C1461.41,488.87,1452.24,480.71,1440.86,480.09z"/>
<path class="st3" d="M1289.56,477.41c-8.23,0-15.63,3.54-20.78,9.17c-4.2-13.43-16.74-23.18-31.55-23.18
	c-4.25,0-8.31,0.81-12.04,2.27c0.83-3.06,1.29-6.27,1.29-9.59c0-20.17-16.33-36.52-36.48-36.52c-18.78,0-34.25,14.22-36.25,32.49
	c-4.83-1.78-10.05-2.76-15.49-2.76c-14.72,0-27.77,7.1-35.94,18.07c-4.02-10.61-14.27-18.15-26.27-18.15
	c-15.52,0-28.1,12.59-28.1,28.13c0,4.23,0.94,8.24,2.61,11.84c-0.33-0.02-0.66-0.05-1-0.05c-4,0-7.63,1.6-10.28,4.2
	c-7.27-3.94-15.58-6.17-24.43-6.17c-12.72,0-24.36,4.64-33.33,12.3h335.52C1314.25,486.85,1303.01,477.41,1289.56,477.41z"/>
<polygon class="st4" points="1236.66,349.81 1225.47,350.32 1248.74,318.46 1245.25,315.94 1202.31,375.08 1198.57,372.38 
	1196.05,375.88 1207.11,383.85 1209.63,380.35 1205.81,377.6 1222.25,354.78 1238.94,354.02 1250.62,337.81 1247.13,335.29 "/>
<path class="st4" d="M1288.45,223.29l-40.52-40.52h-3.49v316.69h4.32v-8.81h35.39v8.81h4.25v-8.81h35.39v8.81h4.38V373.67
	l-39.7-39.7V223.29z M1248.74,189.68l32.34,32.34h-32.34V189.68z M1284.13,486.21h-35.39v-33.45h35.39V486.21z M1284.13,448.46
	h-35.39v-33.41h35.39V448.46z M1284.13,410.73h-35.39v-33.41h35.39V410.73z M1284.13,372.91h-35.39V339.5h35.39V372.91z
	 M1284.13,333.15v2.04h-35.39v-33.41h35.39V333.15z M1284.13,297.47h-35.39v-33.41h35.39V297.47z M1284.13,259.75h-35.39v-33.41
	h35.39V259.75z M1323.84,486.21h-35.39v-33.45h35.39V486.21z M1323.84,448.46h-35.39v-33.41h35.39V448.46z M1323.84,410.73h-35.39
	v-33.41h35.39V410.73z M1321.39,373.01h-32.94v-32.94L1321.39,373.01z"/>
<rect x="1248.52" y="452.57" class="st5" width="75.18" height="46.9"/>
<rect x="1253.54" y="455.9" class="st6" width="64.89" height="44.89"/>
<path id="path4505_8_" class="st7" d="M1288.08,482.42l0.15,0.03l0.2-0.04l0.84,0.69l-0.16-0.83l6.65-1.32l-5.72-0.42
	c0.05-0.33,0.06-0.64,0.03-0.93l0.04-0.01l-0.05-0.09c-0.04-0.31-0.13-0.59-0.26-0.85c-0.39-0.74-1.01-0.96-1.14-1l-0.11-0.03
	l-0.14,0c-1.14,0-1.71,1.07-1.75,2.05C1286.57,482.07,1287.92,482.39,1288.08,482.42"/>
<path class="st7" d="M1313.38,496.49c-0.43-0.42-0.65-0.67-0.76-0.82l-0.03-0.92c-0.01-0.63-0.23-1.37-0.66-2.19
	c-0.15-0.33-0.76-1.51-1.7-2.02l-0.3-0.38l-0.17-0.22l-0.41-0.53l-0.15-0.24l-0.05,0l-0.46-0.59l-0.06-0.11
	c-0.01-0.02-0.05-0.09-0.12-0.17c0.04-0.27,0.09-1.12-0.45-1.84c-0.28-0.37-0.83-0.83-1.83-0.93l-0.62-0.25
	c-0.1-0.05-0.22-0.11-0.38-0.16l-1.44-0.59c-0.09-0.7-0.49-1.75-1.44-2.18c1.05-5.95-0.87-10.09-1.1-10.54
	c-1.42-3.5-4.26-6.15-8.2-7.66c-2.95-1.13-5.46-1.24-5.57-1.24l-0.33-0.01l-0.15-0.09l0-1.42c0.17-0.11,0.34-0.25,0.5-0.42
	c0.58-0.64,0.83-1.53,0.73-2.67l-0.01-0.11l-0.04-0.11c-0.2-0.51-0.85-1.37-2.05-1.37c-0.49,0-1.02,0.15-1.57,0.44l-0.05,0.03
	l-0.04,0.03c-0.7,0.5-1.78,1.9-0.85,3.58l0.03,0.06l0.04,0.05c0.03,0.04,0.19,0.23,0.44,0.42c-0.02,0.07-0.04,0.15-0.07,0.22
	l-0.19,0.56l0.01,0.01c-0.1,0.29-0.14,0.5-0.13,0.67c-0.2,0.11-0.37,0.25-0.52,0.41l-0.17,0.02c-4.16,0.46-7.65,2.53-10.12,5.98
	c-1.85,2.58-2.46,5.01-2.48,5.12l-0.13,0.52l0.43,0.32c0.15,0.11,0.3,0.21,0.45,0.32c-0.66,1.53-0.74,3.12-0.65,4.37
	c-0.52,0.21-1.04,0.62-1.35,0.9l-0.13,0.11l-0.29,0.65l-0.13,1.75c0.24,1.36,0.64,2.6,1.14,3.73c-0.51,0.69-0.41,1.72-0.3,2.27
	l-0.56,0.48l-0.07-0.01l-0.67,0.56c-0.19,0.01-0.39,0.04-0.6,0.09l-0.02,0.01c-0.52,0.13-1.46,0.74-1.66,2.17l0,0.01l-0.2,0.08
	c-0.04,0.02-0.17,0.07-0.32,0.15l-0.84,0.01l-0.23,0.09l-0.23,0.03c-0.28,0.1-0.75,0.31-1.28,0.72l-0.16,0.15l-0.3,0.25
	c-0.76,0.72-1.55,1.87-2.03,3.67l-0.09,0.5l-0.11,0.26l-0.01,0.06c-0.21,0.25-0.58,0.61-1.16,0.95h5.86
	c0.06-0.06,0.11-0.11,0.17-0.17c0.09,0.07,0.17,0.12,0.26,0.17h3.59c0.49-0.43,0.62-0.89,0.63-1.23c0.02-0.93-0.81-1.54-0.98-1.65
	c-0.43-0.29-0.7-0.49-0.88-0.64l0.22-0.28l0.22-0.22l0-0.07l0.31-0.41c0.05,0,0.11,0.01,0.17,0.01c0.96,0,2.03-0.61,2.13-2.32
	l0.32-0.4l0.25-0.17l0.19-0.37c0.14,0.03,0.29,0.04,0.44,0.04c0.37,0,0.73-0.08,0.94-0.14c1.06,1.23,2.1,2.13,2.8,2.68l-0.29,0.69
	l0,0l-0.18,0.39c-0.19,0.42-0.32,0.74-0.4,0.98l-0.02,0.04l0,0c-0.06,0.19-0.1,0.33-0.12,0.43l-0.04,0.01l-0.31,0.77
	c-0.4,0.18-0.75,0.43-1.04,0.75c-0.31,0.34-0.51,0.72-0.65,1.11h3.68c0.18-0.2,0.35-0.34,0.49-0.42c0.39,0.12,0.64,0.29,0.79,0.42
	h1.88c-0.02-0.04-0.02-0.08-0.03-0.11l0.41-1.55l-0.03-0.03l0.33-1.03c1.54,0.5,3.25,0.75,5.11,0.75c3.76,0,6.76-1.05,6.89-1.09
	l0.03-0.01c0.13-0.05,0.26-0.11,0.39-0.17c0.03,0.09,0.06,0.17,0.08,0.23l0.02,0.14c0.04,0.25,0.27,1.15,0.37,1.53l0.11,0.43
	c0.03,0.3,0.11,0.62,0.21,0.93h3.13c0.13-0.03,0.26-0.06,0.41-0.07c0.01,0.02,0.03,0.05,0.04,0.07h3.24
	c-0.1-0.22-0.21-0.44-0.37-0.64c-0.26-0.33-0.58-0.58-0.96-0.76l-0.03-0.07l0.14,0.03l-0.88-1.55c-0.14-0.24-0.46-0.98-0.63-1.39
	l0,0l-0.02-0.11c-0.12-0.58-0.43-1.24-0.61-1.59c2.1-2.08,3.03-4.35,3.39-5.46c0.22,0.08,0.47,0.12,0.74,0.12h0
	c0.38,0,0.78-0.09,1.2-0.27c0.13,0.12,0.28,0.25,0.44,0.36c0.09,0.2,0.24,0.47,0.53,0.72l0.11,0.09c0,0.03,0,0.06,0.01,0.09
	l0.01,0.11l0.04,0.1c0.24,0.62,0.99,1.66,2.28,1.66h0c0.05,0,0.11,0,0.16-0.01l0.32,0.83l0.1-0.14l0.1,0.28
	c-0.04,0.06-0.07,0.11-0.09,0.16l-0.15,0.08c-0.17,0.09-0.62,0.24-0.89,0.31l-0.02,0.01c-0.95,0.28-1.52,0.74-1.7,1.38
	c-0.17,0.6,0.09,1.17,0.36,1.48l0.02,0.02c0.59,0.62,1.2,0.74,1.62,0.74c0.44,0,0.83-0.14,1.15-0.32c0.46,0.8,1.05,1.32,1.31,1.53
	c0.03,0.46,0.12,0.81,0.13,0.87l0.01,0.04c0.16,0.53,0.34,0.96,0.52,1.31h5.3c0.07-0.2,0.12-0.4,0.12-0.57l0.04-0.05
	C1314.43,498.05,1314.06,497.07,1313.38,496.49z M1263.8,498.18c-0.24-0.16-0.52-0.27-0.83-0.32c0.27-0.22,0.52-0.45,0.74-0.68
	c-0.02,0.38,0.04,0.73,0.1,0.98C1263.81,498.17,1263.8,498.18,1263.8,498.18z M1265.09,495.24c0.05-0.09,0.09-0.18,0.12-0.27
	c0.07,0.06,0.13,0.11,0.18,0.16C1265.28,495.17,1265.18,495.21,1265.09,495.24z M1267.82,498.19c-0.02,0.03-0.08,0.09-0.19,0.16
	c-0.08,0.03-0.3,0.1-0.57,0.1c-0.6,0-1.13-0.33-1.58-0.97v-0.17c0.11-0.17,0.34-0.48,0.69-0.49c0.25,0.26,0.66,0.59,1.39,1.08
	C1267.66,497.98,1267.79,498.11,1267.82,498.19z M1285.37,458.53c0.29-0.15,0.55-0.23,0.76-0.23c0.28,0,0.43,0.16,0.51,0.27
	c0.03,0.59-0.08,1.03-0.33,1.3c-0.29,0.32-0.73,0.35-0.87,0.36c-0.15-0.04-0.34-0.18-0.45-0.3
	C1284.64,459.22,1285.15,458.71,1285.37,458.53z M1274.3,480.71c-0.01,0.02-0.02,0.04-0.03,0.05c-0.16,0.3-0.14,0.65,0.05,0.96
	l0.2,0.33l0.38,0.05c0.03,0,0.16,0.02,0.35,0.02c0.01,0,0.02,0,0.04,0l0.67,0.99c-0.14,0.09-0.28,0.19-0.42,0.3
	c-0.69-0.31-2.13-1.03-3.04-1.89c-0.17-0.61-0.67-2.77-0.02-4.86c0.66,0.29,1.71,0.68,3.12,0.99c-0.01,0-0.02,0-0.03,0l-0.05,0.01
	c-0.11,0.03-0.69,0.21-1.05,0.88C1274.15,479.11,1274.1,479.84,1274.3,480.71z M1270.34,482.1l0.24,0.27
	c0.16,0.18,4.1,4.48,13.19,4.48c0.52,0,1.06-0.01,1.59-0.04c0.33-0.02,7.99-0.42,12.54-5.08c0.06,0.02,0.12,0.04,0.19,0.05
	c-1.37,1.88-5.48,5.97-15.28,5.97c-0.42,0-0.85-0.01-1.26-0.02C1281.46,487.74,1273.13,487.28,1270.34,482.1z M1277.28,479.47
	c-0.02-0.48-0.12-1-0.42-1.36c-0.08-0.1-0.18-0.19-0.28-0.26c1.16,0.2,2.53,0.33,4.08,0.33c4.77,0,9.92-1.24,15.33-3.68
	c0.33,1.42,0.87,4.16,0.69,5.91c-0.66,0.73-4.02,3.94-11.96,4.59c-0.81-0.82-3.11-3.06-4.65-3.65c-0.12-0.06-0.26-0.1-0.45-0.1
	c-0.41,0-1.19,0.18-3.27,1.58l-0.1-0.93c0.52-0.25,0.86-0.71,0.94-1.31c0.03-0.18,0.08-0.5,0.09-0.88l0.12-0.01L1277.28,479.47z
	 M1281.7,484.79c-1.78-0.15-3.08-0.41-3.94-0.64c0.91-0.61,1.47-0.86,1.73-0.96C1280.03,483.45,1280.88,484.09,1281.7,484.79z
	 M1298.01,473.89c0.18,0.59,0.33,1.51,0.45,2.58C1298.31,475.48,1298.14,474.55,1298.01,473.89z M1291.47,494.89
	c-0.23,0.08-2.99,0.99-6.34,0.99c-3.11,0-5.72-0.77-7.78-2.28l-0.04-0.03c-0.05-0.03-4.08-2.67-6.12-7.47
	c2.14,1.69,5.86,3.58,11.8,3.58c0.99,0,2.03-0.05,3.08-0.16c0.3-0.01,2.69-0.15,5.55-1.11c2.53-0.85,4.66-2.08,6.32-3.65v0.1
	c0,0.16,0.02,1.45,0.64,2.39C1298.19,488.51,1296.54,492.82,1291.47,494.89z M1298.09,471.68c-0.49,0-1.04,0.16-1.68,0.48
	c-0.08,0.04-8.39,4.08-16.19,4.08c-3.25,0-5.95-0.7-8.04-2.08c0.27-0.8,0.91-2.43,2.11-4.1c1.96-2.72,4.54-4.42,7.68-5.07l0.21,0.32
	c0.05,0.07,1.2,1.79,3.06,1.8h0c0.96,0,1.9-0.46,2.78-1.35l0.14-0.14l0.06-0.19c0.03-0.1,0.13-0.44,0.15-0.84
	c2.45,0.33,8.95,1.76,11.4,7.84l0.03,0.07c0.02,0.04,1.92,3.84,0.99,9.4c-0.14,0.03-0.29,0.07-0.46,0.13l0-0.31
	c0.01-0.02,0.02-0.03,0.03-0.05l0.09-0.16l0.01-0.18c0-0.04,0.02-0.26,0.03-0.6l0.1-0.24l-0.1-0.01c0.05-1.62,0.05-5.2-0.78-7.6
	C1299.59,472.37,1299.09,471.68,1298.09,471.68z M1300.21,482.08c-0.04,0.02-0.08,0.03-0.12,0.05c0.01-0.02,0.03-0.04,0.04-0.07
	L1300.21,482.08z M1300.82,484.83c-0.29,0.52-0.23,1.11-0.09,1.6c-0.55-0.05-0.8-0.76-0.87-0.99c0.05-1.36,1.23-1.64,1.58-1.69
	c0.21,0.02,0.37,0.14,0.48,0.28C1301.31,484.19,1300.99,484.53,1300.82,484.83z M1305.99,494.02c-0.16,0.16-0.49,0.41-0.76,0.41
	c-0.05,0-0.21,0-0.43-0.22c0.07-0.05,0.23-0.16,0.57-0.26c0.1-0.03,0.42-0.12,0.73-0.23
	C1306.09,493.79,1306.06,493.89,1305.99,494.02z M1305.32,488.1c-0.23,0.31-0.34,0.67-0.38,1c-0.13-0.12-0.23-0.27-0.27-0.36
	c-0.03-0.52,0.07-0.91,0.3-1.17c0.36-0.4,0.98-0.44,1.09-0.44c0.29,0.03,0.51,0.11,0.65,0.24
	C1305.96,487.44,1305.54,487.8,1305.32,488.1z M1307.65,492.47c0.02-0.02,0.04-0.03,0.06-0.05c0.01,0.07,0.02,0.15,0.03,0.22
	C1307.71,492.58,1307.68,492.53,1307.65,492.47z M1307.85,495.04c-0.05-0.08-0.1-0.17-0.15-0.26c0.18-0.33,0.3-0.74,0.29-1.18
	c0.12,0.32,0.28,0.67,0.49,1.03C1308.26,494.73,1308.04,494.87,1307.85,495.04z M1310.39,499.1c-0.02,0.01-0.1,0.04-0.27,0.05
	c-0.1-0.08-0.41-0.39-0.73-1.44c-0.05-0.23-0.16-0.89-0.04-1.4c0.02-0.02,0.05-0.05,0.07-0.07c0.11,0.21,0.27,0.64,0.4,1.42
	c0.02,0.21,0.12,0.68,0.57,1.3C1310.39,499.02,1310.39,499.07,1310.39,499.1z M1310.11,493.81l-0.01-0.01
	c-0.48-0.81-0.57-1.42-0.56-1.8c0.28,0.2,0.69,0.73,0.93,1.26l0.02,0.04c0.41,0.77,0.5,1.26,0.49,1.53
	C1310.7,494.63,1310.33,494.2,1310.11,493.81z"/>
<path id="path4513_8_" class="st8" d="M1285.36,461.03c0,0,2.3,0.13,2.06-2.68c0,0-0.59-1.52-2.49-0.51c0,0-1.44,1.04-0.61,2.54
	C1284.32,460.39,1284.78,460.95,1285.36,461.03"/>
<path id="path4517_8_" class="st9" d="M1284.97,461.24c0,0,0.62,0.16,1.18-0.11c0,0,0.09,0.66,0,0.78c0,0-0.57,0.41-1.32-0.12
	C1284.83,461.79,1284.95,461.42,1284.97,461.24"/>
<path id="path4521_8_" class="st9" d="M1284.76,462.07c0,0,0.88,0.44,1.43,0.06v0.96c0,0-1.27,0.55-1.63-0.34
	C1284.53,462.67,1284.76,462.07,1284.76,462.07"/>
<path id="path4525_8_" class="st9" d="M1284.56,463.06c0,0,0.71,0.64,1.63,0.2v0.65c0,0-0.57,1.16-1.77-0.3L1284.56,463.06z"/>
<path id="path4529_8_" class="st9" d="M1284.24,463.43c0,0-0.39,1.12,1.27,1.18c0,0,1.01,0.09,0.98-1.18l0.62,0.37
	c0,0,0.14,0.93,0,1.3c0,0-1.8,1.98-3.96-0.12C1283.15,464.98,1283.54,463.7,1284.24,463.43"/>
<path id="path4533_8_" class="st8" d="M1287.44,463.7c0,0,9.8,0.35,13.06,8.43c0,0,2.19,4.28,0.96,10.49c0,0-2.02-0.07-2.73,2.25
	c0,0,0,1.5,0.71,2.21c0,0-1.28,5.96-7.7,8.56c0,0-8.77,3.1-14.87-1.39c0,0-6.14-3.92-7.42-11.16c0,0,3.98,6.92,16.55,5.64
	c0,0,9.74-0.37,13.64-7.44c0,0,0.35-5.19-0.72-8.19c0,0-0.16-1.23-2.17-0.21c0,0-16.64,8.19-25.52,1.61c0,0,2.32-9.42,11.91-10.49
	l-0.3,0.88c0,0,1.96,3,4.59,0.32C1287.44,465.21,1287.73,464.29,1287.44,463.7"/>
<path id="path4537_8_" class="st3" d="M1272.04,475.56c0,0,8.67,5.3,24.5-2.19c0,0,1.28,4.82,0.91,7.38c0,0-3.28,4.39-13.04,5.08
	c0,0-3.01-3.16-4.67-3.75c0,0-0.43-0.43-4.12,2.25c0,0-2.51-1.02-3.85-2.38C1271.77,481.95,1270.62,478.56,1272.04,475.56"/>
<path id="path4541_8_" class="st7" d="M1275.01,481.31c0,0,1.28,0.19,1.39-0.83c0,0,0.43-2.25-0.7-2.03c0,0-1.23,0.32-0.48,2.57
	C1275.22,481.02,1274.85,481.04,1275.01,481.31"/>
<path id="path4545_8_" class="st3" d="M1275.33,480.78c0,0-0.19-1.63,0.83-1.74c0,0-0.54-1.04-1.02,0.37
	C1275.14,479.41,1274.99,480.28,1275.33,480.78"/>
<path id="path4549_8_" class="st7" d="M1289.78,481.33l-1.55,0.31c0,0-0.83-0.16-0.75-1.91c0,0,0.05-1.3,0.96-1.29
	c0,0,1.4,0.42,0.6,2.84L1289.78,481.33z"/>
<path id="path4553_8_" class="st3" d="M1288.07,481.07c0,0-0.36-1.82,0.8-2.05c0,0-0.68-1.2-1.16,0.36
	C1287.7,479.39,1287.49,480.59,1288.07,481.07"/>
<path id="path4557_8_" class="st8" d="M1276.03,484.41c0,0,2.29,1.17,7.86,1.29c0,0-2.98-2.94-4.37-3.35
	C1279.51,482.36,1278.5,482.5,1276.03,484.41"/>
<path id="path4561_8_" class="st10" d="M1271.19,480.5c0,0,0.16,0.95,0.39,1.34h-0.39c0,0,4.19,4.71,14.14,4.17
	c0,0,8.06-0.37,12.38-5.23c0,0,0.38,0.29,1.69,0.42c0,0-3.48,7.85-17.89,7.35c0,0-9.2-0.43-12.06-6.42l0.29-0.8
	C1269.74,481.33,1270.74,480.45,1271.19,480.5"/>
<path id="path4565_8_" class="st10" d="M1297.03,473.13c0,0,1.2,5.4,0.83,7.52l1.66,0.43c0,0-0.05-6.85-1.12-8.24
	C1298.39,472.83,1297.51,472.88,1297.03,473.13"/>
<path id="path4569_8_" class="st8" d="M1301.84,486.96c0,0-1.5-2.41,1.15-2.19c0,0-0.12-1.77-1.57-1.82c0,0-2.36,0.24-2.36,2.6
	C1299.06,485.54,1299.6,488.05,1301.84,486.96"/>
<path id="path4573_8_" class="st9" d="M1302.03,486.55c0,0,0.05-0.96,0.96-1.28c0,0-0.54-0.59-1.26,0.09
	C1301.74,485.36,1301.43,485.97,1302.03,486.55"/>
<path id="path4577_8_" class="st9" d="M1302.99,487.53c0,0-0.23-1.14,1.42-1.87l-0.91-0.37c0,0-1.43,0.36-1.24,1.59
	C1302.26,486.88,1302.66,487.36,1302.99,487.53"/>
<path id="path4581_8_" class="st9" d="M1303.49,488.24c0,0,0.24-1.55,1.78-2.22c0,0-0.31-0.26-0.89-0.13c0,0-1.22,0.32-1.25,1.81
	C1303.13,487.69,1303.19,487.99,1303.49,488.24"/>
<path id="path4585_8_" class="st8" d="M1305.8,490.05c0,0-0.68-2.35,1.9-1.81c0,0,0.32-1.74-1.61-1.91c0,0-2.49-0.05-2.22,2.62
	C1303.88,488.95,1304.42,490.37,1305.8,490.05"/>
<path id="path4589_8_" class="st9" d="M1306.1,490.03c0,0,0.75-1.06,1.83-1.15c0,0-0.54-0.91-1.59-0.32
	C1306.34,488.57,1305.69,488.99,1306.1,490.03"/>
<path id="path4593_8_" class="st9" d="M1306.58,490.78c0,0,0.55-1.04,2.03-0.99l-0.54-0.68c0,0-1.27-0.16-1.86,1.08
	C1306.22,490.19,1306.38,490.5,1306.58,490.78"/>
<path id="path4597_8_" class="st9" d="M1306.86,491.65c0,0,1.38-1.03,2.37-0.87l-0.51-0.84c0,0-1.54-0.15-2.06,1.12L1306.86,491.65z
	"/>
<path id="path4601_8_" class="st8" d="M1311.37,495.73c0,0,1.04-0.54-0.16-2.81c0,0-1.12-2.41-2.33-1.66c0,0-0.54,1.12,0.54,2.94
	C1309.41,494.21,1310.35,495.86,1311.37,495.73"/>
<path id="path4605_8_" class="st8" d="M1306.66,492.49c0,0,0.24-0.88,1.95-1.38c0,0-0.72,1.78,1.31,4.13c0,0-0.94-0.25-1.63,0.49
	v0.95c0,0-1.04-0.71-1.5-2C1306.79,494.69,1307.78,493.67,1306.66,492.49"/>
<path id="path4609_8_" class="st9" d="M1310.14,495.46l0.73,0.43l-0.37,0.23L1310.14,495.46z"/>
<path id="path4613_8_" class="st9" d="M1306.22,492.81c0,0,1.28,0.09,0.44,1.68c0,0-1.27,1.5-2.46,0.25c0,0-0.89-1,0.96-1.55
	C1305.16,493.18,1305.88,492.98,1306.22,492.81"/>
<path class="st9" d="M1310.62,497.57c-0.29-1.77-0.78-2.1-0.78-2.1c-0.77-0.27-1.22,0.5-1.22,0.5c-0.28,0.86,0,1.96,0,1.96
	c0.23,0.76,0.47,1.24,0.7,1.54h1.78c0.19-0.38,0.04-0.84,0.04-0.84C1310.64,498,1310.62,497.57,1310.62,497.57z"/>
<path class="st9" d="M1311.28,496.21c-0.36-0.52-0.7,0.14-0.7,0.14c-0.13,0.76,0.39,1.55,0.39,1.55c0.55,0.66,0.48,1.3,0.43,1.56
	h1.35c0.35-0.4,0.18-0.95,0.18-0.95C1311.63,497.32,1311.28,496.21,1311.28,496.21z"/>
<path id="path4625_8_" class="st9" d="M1311.31,495.91l0.46-0.12c0,0-0.05,0.21,1.08,1.29c0,0,0.8,0.66,0.34,1.27
	c0,0-0.66-0.68-0.86-0.86c0,0-0.63-0.77-0.78-1.37L1311.31,495.91z"/>
<path id="path4629_8_" class="st8" d="M1270.45,487.42c0,0,1.48,2.55,2.23,3.37c0,0-0.96,0.36-1.46,0c0,0,0.95-1.46-0.87-1.46
	C1270.35,489.33,1269.99,488.03,1270.45,487.42"/>
<path id="path4633_8_" class="st9" d="M1270.05,489.91c0,0,0.63,0.12,0.96,0.75c0,0,0.4-0.79,0-1.06
	C1271.01,489.6,1270.58,489.28,1270.05,489.91"/>
<path id="path4637_8_" class="st9" d="M1269.37,490.39c0,0,0.92,0.17,1.15,0.99l0.43-0.57c0,0-0.15-0.56-1.1-0.83L1269.37,490.39z"
	/>
<path id="path4641_8_" class="st9" d="M1268.79,490.81c0,0,1.16,0.48,1.26,1.27l0.37-0.47c0,0,0-0.96-1.3-1.08L1268.79,490.81z"/>
<path id="path4645_8_" class="st8" d="M1266.7,492.64c0,0,0.76-1.14,1.66,0.07c0,0,0.55,0.41-0.21,1.42c0,0,1.56,0.42,1.67-1.54
	c0,0,0.03-1.93-2.05-1.46C1267.77,491.13,1266.89,491.36,1266.7,492.64"/>
<path id="path4649_8_" class="st9" d="M1267.08,492.69c0,0,0.67,0.33,0.92,1.18c0,0,0.51-0.41,0.07-1.18
	C1268.07,492.69,1267.72,492.15,1267.08,492.69"/>
<path id="path4653_8_" class="st9" d="M1266.33,493.24c0,0,1.02,0.32,1.07,1.61l0.52-0.68c0,0-0.13-1.07-1.08-1.3L1266.33,493.24z"
	/>
<path id="path4657_8_" class="st9" d="M1265.31,493.78c0,0,1.22,0.55,1.58,1.65l0.33-0.33c0,0,0.08-1.47-1.22-1.73
	C1266.01,493.36,1265.58,493.54,1265.31,493.78"/>
<path id="path4661_8_" class="st8" d="M1261.06,498c0,0,3.26-1.86,3.46-4.39C1264.52,493.61,1262.03,494.16,1261.06,498"/>
<path id="path4665_8_" class="st9" d="M1264.68,497.73v-0.61c0,0,0.59-1.39,1.93-1.03c0,0,0.07,0.27,1.41,1.16c0,0,1.41,0.95,0,1.82
	C1268.01,499.07,1266.1,500.01,1264.68,497.73"/>
<path class="st9" d="M1261.97,499.01c0.04,0.14,0.06,0.29,0.06,0.45h1.49C1263.13,498.56,1261.97,499.01,1261.97,499.01z"/>
<path class="st9" d="M1261.79,499.46c0-0.28-0.04-0.43-0.04-0.43l-0.48-0.3c-0.08,0.25-0.21,0.5-0.35,0.74H1261.79z"/>
<path class="st9" d="M1260.29,499.46h0.36c0.19-0.3,0.34-0.62,0.4-0.93C1261.06,498.53,1260.85,498.95,1260.29,499.46z"/>
<path id="path4681_8_" class="st8" d="M1261.79,498.8c0,0,1.51-0.59,1.92,0.54c0,0,0.82-0.57,0.97-1.09c0,0-1-2.43,1.84-2.44
	c0,0,0.16-1.14-1.75-2.03c0,0-0.39,2.59-3.71,4.42L1261.79,498.8z"/>
<path id="path4685_8_" class="st9" d="M1276.41,494.34c0,0,1.61,1.09,3.03,1.69l-0.21,0.5c0,0-1.2-1.34-3.28-1.1L1276.41,494.34z"/>
<path id="path4689_8_" class="st9" d="M1275.34,497.05c0,0,1.16-1.05,3.51,0.7l0.32-1.01c0,0-1.16-1.42-3.35-1.04
	C1275.82,495.69,1275.32,496.8,1275.34,497.05"/>
<path id="path4693_8_" class="st9" d="M1278.57,499.03c0,0-0.89-1.39-3.55-1.28l0.11-0.27l0.21-0.07l0.41-0.43
	c0,0,1.91-0.32,3.09,1.03L1278.57,499.03z"/>
<path class="st8" d="M1273.39,499.46h1.61c0.47-0.9,1.23-1.34,1.23-1.34C1274.59,497.97,1273.79,498.67,1273.39,499.46z"/>
<path class="st8" d="M1275.23,499.46h3.25c-0.04-0.08-0.08-0.16-0.14-0.24c0,0-0.48-0.78-1.77-1.03
	C1276.57,498.19,1275.75,498.54,1275.23,499.46z"/>
<path id="path4721_8_" class="st9" d="M1293.09,495.45c0,0,1.02-0.48,2.75-1.93c0,0,0.52,0.91,0.66,1.6c0,0-1.93-0.29-3.19,1.11
	C1293.3,496.23,1293.13,495.85,1293.09,495.45"/>
<path id="path4725_8_" class="st9" d="M1293.34,496.46c0,0,1.14-1.52,3.23-1.07c0,0,0.46,1.11,0.68,1.48c0,0-2.14-0.45-3.55,1.03
	C1293.69,497.91,1293.37,496.69,1293.34,496.46"/>
<path class="st9" d="M1293.84,498.08c-0.09,0.31,0.12,1.01,0.24,1.38h0.25c1.21-1.7,3.62-1.18,3.62-1.18
	c-0.21-0.52-0.53-1.09-0.53-1.09C1295.23,496.48,1293.84,498.08,1293.84,498.08z"/>
<path class="st8" d="M1297.49,498.58c0,0,0.23,0.32,0.41,0.88h1.25C1298.84,498.99,1298.33,498.63,1297.49,498.58z"/>
<path class="st8" d="M1297.69,499.46c-0.24-0.62-0.55-0.88-0.55-0.88c-1.15-0.06-1.92,0.47-2.34,0.88H1297.69z"/>
<path id="path4757_8_" class="st9" d="M1271.43,488.37c7.58,4.65,22.81,2.92,27.31-3.5c0.05,1.12,0.32,1.79,0.71,2.21
	c-0.05,0.21-0.1,0.43-0.19,0.65c-2.24,5.7-17.49,9.07-25.4,3.9C1272.37,490.13,1271.81,489.05,1271.43,488.37"/>
<path id="path4761_8_" class="st11" d="M1271.19,488.24c7.84,4.77,23.33,2.99,27.73-3.5"/>
<path id="path4765_8_" class="st11" d="M1299.55,487.05c-0.05,0.21-0.1,0.44-0.19,0.65c-2.24,5.7-17.44,9.25-25.79,3.79"/>
<path id="path4769_8_" class="st12" d="M1279.18,494.37c0.72,0.28,3.29,0.64,4.77,0.44v-4.55c-1.39,0.08-3.99-0.06-4.77-0.22V494.37
	z"/>
<path id="path4773_8_" class="st3" d="M1280.08,492.85c-0.02-0.02-0.04-0.03-0.07-0.03c-0.03,0-0.05,0.01-0.07,0.03
	c-0.02,0.02-0.03,0.04-0.03,0.07c0,0.03,0.01,0.05,0.03,0.07s0.04,0.03,0.07,0.03c0.03,0,0.05-0.01,0.07-0.03
	c0.02-0.02,0.03-0.04,0.03-0.07C1280.1,492.9,1280.1,492.87,1280.08,492.85 M1281.31,491.81l-0.14-0.01v0.87
	c0,0.09,0,0.15,0.01,0.18l0,0l-0.05-0.09l-0.62-1l-0.19-0.01v1.24l0.14,0.01v-0.9c0-0.09,0-0.14-0.01-0.17h0.01
	c0.01,0.03,0.02,0.06,0.04,0.08l0.64,1.02l0.18,0.01V491.81z M1282.25,492.96l-0.51-0.02v-0.43l0.44,0.02v-0.13l-0.44-0.02v-0.41
	l0.48,0.02v-0.13l-0.62-0.03v1.24l0.65,0.03V492.96z M1283.21,491.89l-0.85-0.04v0.13l0.36,0.02v1.11l0.14,0.01v-1.11l0.35,0.02
	V491.89z"/>
<circle class="st13" cx="1288.45" cy="19.16" r="6.07"/>
<circle class="st13" cx="1429.41" cy="65.76" r="5.18"/>
<circle class="st13" cx="1088.07" cy="50.85" r="2.78"/>
<circle class="st13" cx="1048.44" cy="30.53" r="4.16"/>
<circle class="st13" cx="853.09" cy="60.58" r="6.07"/>
<circle class="st13" cx="1471.98" cy="33.94" r="2.19"/>
<circle class="st13" cx="730.3" cy="19.16" r="4.49"/>
<circle class="st13" cx="974.77" cy="12.34" r="4.93"/>
<circle class="st13" cx="1006.02" cy="93.76" r="5.09"/>
<circle class="st13" cx="1315.79" cy="60.58" r="3.74"/>
<circle class="st13" cx="1232.49" cy="80.99" r="3.49"/>
<circle class="st13" cx="1551.33" cy="80.99" r="4.93"/>
<path class="st14" d="M1093.26,265.25c-5.54,10.83-7.43,32.29-7.43,32.29l2.41-3.72c0,0,0.41,11.09,2.65,21.89
	c1.63,7.88,4.64,14.56,4.64,14.56l0.36-4.73c0,0,2.73,6.53,5.83,11.4c3.11,4.87,6.95,13.46,6.95,13.46s4.61-9.87,8.11-15.1
	c6.29-9.41,8.8-19.07,8.8-19.07l0.59,6.82c0,0,3.41-9.2,4.02-18.13c0.62-9.01-1.75-20.79-1.75-20.79l3.19,4.23
	c0,0-4.64-16.74-7.86-23.09C1122.29,262.33,1093.26,265.25,1093.26,265.25z"/>
<radialGradient id="SVGID_2_" cx="1117.7224" cy="536.3718" r="65.4758" fx="1099.5278" fy="536.3118" gradientTransform="matrix(1 0 0 1.0611 0 -246.5547)" gradientUnits="userSpaceOnUse">
	<stop  offset="0" style="stop-color:#FAE969"/>
	<stop  offset="0.1077" style="stop-color:#F7B548"/>
	<stop  offset="1" style="stop-color:#E3646A"/>
</radialGradient>
<path class="st15" d="M1123.76,296.58c-0.32-15.31-4.18-28.16-4.18-28.16h-12.52h-5.46h-3.85c0,0-3.85,12.84-4.18,28.16
	c-0.32,15.19,14.84,36.69,15.09,37.04l0,0.01c0,0,0,0,0,0c0,0,0,0,0,0l0-0.01C1108.88,333.33,1124.08,311.79,1123.76,296.58z"/>
<path class="st14" d="M1181.51,265.2c-5.65,10.4-7.56,30.99-7.56,30.99l2.45-3.57c0,0,0.42,10.64,2.69,21.01
	c1.66,7.56,4.73,13.97,4.73,13.97l0.36-4.54c0,0,2.78,6.27,5.94,10.94s7.08,12.92,7.08,12.92s4.69-9.47,8.26-14.5
	c6.41-9.04,8.96-18.31,8.96-18.31l0.6,6.54c0,0,3.47-8.83,4.1-17.41c0.63-8.65-1.78-19.95-1.78-19.95l3.25,4.06
	c0,0-4.73-16.07-8-22.17C1211.08,262.39,1181.51,265.2,1181.51,265.2z"/>
<radialGradient id="SVGID_3_" cx="1206.427" cy="320.2448" r="66.6948" fx="1187.8937" fy="320.1837" gradientUnits="userSpaceOnUse">
	<stop  offset="0" style="stop-color:#FAE969"/>
	<stop  offset="0.1077" style="stop-color:#F7B548"/>
	<stop  offset="1" style="stop-color:#E3646A"/>
</radialGradient>
<path class="st16" d="M1212.58,295.27c-0.33-14.7-4.25-27.03-4.25-27.03h-12.76h-5.56h-3.93c0,0-3.93,12.33-4.25,27.03
	c-0.32,14.58,15.12,35.22,15.37,35.56l0,0.01c0,0,0,0,0,0c0,0,0,0,0,0l0-0.01C1197.42,330.56,1212.91,309.87,1212.58,295.27z"/>
<path class="st14" d="M1168.56,265.39c5.6,11.98,7.5,35.71,7.5,35.71l-2.43-4.12c0,0-0.42,12.26-2.67,24.21
	c-1.64,8.71-4.69,16.1-4.69,16.1l-0.36-5.23c0,0-2.75,7.22-5.89,12.61c-3.14,5.39-7.02,14.89-7.02,14.89s-4.65-10.92-8.18-16.7
	c-6.35-10.41-8.88-21.1-8.88-21.1l-0.59,7.54c0,0-3.44-10.17-4.06-20.06c-0.62-9.96,1.77-22.99,1.77-22.99l-3.22,4.68
	c0,0,4.69-18.52,7.93-25.54C1139.25,262.15,1168.56,265.39,1168.56,265.39z"/>
<radialGradient id="SVGID_4_" cx="-5299.8062" cy="846.9236" r="66.1022" fx="-5318.1748" fy="846.863" gradientTransform="matrix(-1 0 0 1.1625 -4155.9478 -655.7573)" gradientUnits="userSpaceOnUse">
	<stop  offset="0" style="stop-color:#FAE969"/>
	<stop  offset="0.1077" style="stop-color:#F7B548"/>
	<stop  offset="1" style="stop-color:#E3646A"/>
</radialGradient>
<path class="st17" d="M1137.76,300.04c0.32-16.94,4.22-31.14,4.22-31.14h12.64h5.51h3.89c0,0,3.89,14.21,4.22,31.14
	c0.32,16.8-14.99,40.58-15.24,40.97l0,0.01c0,0,0,0,0,0c0,0,0,0,0,0l0-0.01C1152.79,340.69,1137.44,316.86,1137.76,300.04z"/>
<polygon class="st18" points="1184.22,20.99 1122.01,20.99 1114.96,4.87 1191.04,5.45 "/>
<path class="st19" d="M1113.56-0.54v0.45c0,5.79,4.7,10.49,10.49,10.49h58.54c5.79,0,10.49-4.7,10.49-10.49v-0.45H1113.56z"/>
<rect x="1121.79" y="20.99" class="st19" width="62.42" height="189.42"/>
<rect x="1120.81" y="188.65" class="st19" width="65.29" height="27.41"/>
<polygon class="st4" points="1126.43,267.51 1091.04,267.51 1099.1,237.82 1118.37,237.82 "/>
<polygon class="st4" points="1214.96,267.51 1179.57,267.51 1187.63,237.82 1206.9,237.82 "/>
<polygon class="st4" points="1170.63,267.51 1135.24,267.51 1143.3,237.82 1162.57,237.82 "/>
<path class="st20" d="M1166.75,122.03c0-1.76-0.48-3.5-1.4-5l-10.91-17.96c-0.64-1.05-2.16-1.06-2.81-0.01l-10.91,17.66
	c-1.06,1.71-1.62,3.68-1.62,5.69l-0.04,121h27.67L1166.75,122.03z"/>
<rect x="1139.08" y="221.02" class="st18" width="27.66" height="22.38"/>
<g>
	<rect x="1139.1" y="189.59" class="st21" width="27.65" height="1.61"/>
	<rect x="1139.11" y="158.96" class="st21" width="27.65" height="1.61"/>
	<rect x="1139.11" y="128.33" class="st21" width="27.64" height="1.61"/>
</g>
<g>
	<path class="st21" d="M1165.05,87.84c0,0.43-0.16,0.8-0.47,1.11c-0.31,0.31-0.68,0.46-1.12,0.46s-0.81-0.15-1.12-0.46
		c-0.32-0.31-0.47-0.68-0.47-1.11c0-0.44,0.16-0.82,0.47-1.13c0.32-0.31,0.69-0.47,1.12-0.47s0.8,0.16,1.12,0.47
		C1164.9,87.02,1165.05,87.4,1165.05,87.84z"/>
	<path class="st21" d="M1164.74,65.74v2.91l-16.14,10.42c-0.4,0.26-0.83,0.48-1.27,0.65v0.08c0.43-0.07,1.36-0.11,2.78-0.11h14.63
		v2.37h-20.25v-3.08l15.89-10.14c0.66-0.42,1.11-0.7,1.36-0.82v-0.06c-0.58,0.09-1.58,0.14-2.98,0.14h-14.26v-2.37H1164.74z"/>
	<path class="st21" d="M1164.74,49.69v10.73h-20.25V50.14h2.15v7.91h6.74v-7.32h2.13v7.32h7.09v-8.36H1164.74z"/>
	<path class="st21" d="M1146.63,33.76v5.85h18.11v2.37h-18.11v5.83h-2.15V33.76H1146.63z"/>
</g>
<path class="st20" d="M1211.09,243.46h-27.64V96.76l23.92,19.32c2.35,1.9,3.72,4.76,3.72,7.79V243.46z"/>
<rect x="1183.45" y="221.02" class="st18" width="27.64" height="22.44"/>
<g>
	<rect x="1183.45" y="189.59" class="st21" width="27.64" height="1.61"/>
	<rect x="1183.45" y="158.96" class="st21" width="27.64" height="1.61"/>
	<rect x="1183.45" y="128.33" class="st21" width="27.64" height="1.61"/>
</g>
<path class="st20" d="M1094.78,243.46h27.64V96.76l-25.13,20.3c-1.59,1.28-2.51,3.21-2.51,5.26V243.46z"/>
<rect x="1094.78" y="221.02" class="st18" width="27.64" height="22.44"/>
<polygon class="st4" points="1236.66,273.81 1225.47,274.32 1248.74,242.46 1245.25,239.94 1202.31,299.08 1198.57,296.38 
	1196.05,299.88 1207.11,307.85 1209.63,304.35 1205.81,301.6 1222.25,278.78 1238.94,278.02 1250.62,261.81 1247.13,259.29 "/>
<g>
	<path class="st3" d="M1155.52,96.18c0.9-0.33,1.9-0.28,2.76,0.15l4.37,2.19c1.11,0.55,1.81,1.66,1.81,2.86v14.35
		c0,1.2-0.7,2.3-1.81,2.86l-4.37,2.19c-0.85,0.43-1.86,0.48-2.76,0.15l-12.41-4.59c-1.3-0.48-2.15-1.67-2.15-3.01v-9.54
		c0-1.33,0.85-2.53,2.15-3.01L1155.52,96.18z"/>
</g>
<path class="st22" d="M1162.15,99.52l-4.37-2.19c-0.58-0.29-1.26-0.33-1.87-0.1l-12.41,4.59c-0.88,0.32-1.42,1.12-1.42,1.96v9.54
	c0,0.84,0.54,1.63,1.42,1.96l12.41,4.59c0.61,0.23,1.29,0.19,1.87-0.1l4.37-2.19c0.75-0.37,1.19-1.1,1.19-1.86v-14.35
	C1163.33,100.61,1162.89,99.89,1162.15,99.52z M1158.28,96.33c-0.85-0.43-1.86-0.48-2.76-0.15l-12.41,4.59
	c-1.3,0.48-2.15,1.67-2.15,3.01v9.54c0,1.33,0.85,2.53,2.15,3.01l12.41,4.59c0.9,0.33,1.9,0.28,2.76-0.15l4.37-2.19
	c1.11-0.55,1.81-1.66,1.81-2.86v-14.35c0-1.2-0.7-2.3-1.81-2.86L1158.28,96.33z"/>
<path class="st23" d="M1146.65,113.3c-0.19,0.17-0.46,0.21-0.7,0.11l-1.22-0.52c-0.25-0.11-0.41-0.36-0.41-0.64v-7.4
	c0-0.28,0.16-0.53,0.41-0.64l1.22-0.52c0.23-0.1,0.5-0.06,0.7,0.11l0.27,0.24c-0.25-0.18-0.59,0-0.59,0.31v8.39
	c0,0.31,0.34,0.49,0.59,0.31L1146.65,113.3z"/>
<g>
	<path class="st24" d="M1144.75,112.88c-0.26-0.11-0.43-0.36-0.43-0.65v-0.06c0,0.37,0.46,0.55,0.7,0.27l10.83-11.99
		c0.31-0.31,0.79-0.4,1.19-0.2l3.46,1.67c0.36,0.17,0.59,0.54,0.59,0.95v0.04c0-0.56-0.65-0.87-1.08-0.51l-12.99,10.65l-0.29,0.24
		c-0.2,0.17-0.48,0.22-0.72,0.11L1144.75,112.88z"/>
</g>
<g>
	<path class="st25" d="M1144.75,104.21c-0.26,0.11-0.43,0.36-0.43,0.65v0.06c0-0.37,0.46-0.55,0.7-0.27l10.83,11.99
		c0.31,0.31,0.79,0.4,1.19,0.2l3.46-1.67c0.36-0.17,0.59-0.54,0.59-0.95v-0.04c0,0.56-0.65,0.87-1.08,0.51l-12.99-10.65l-0.29-0.24
		c-0.2-0.17-0.48-0.22-0.72-0.11L1144.75,104.21z"/>
</g>
<g>
	<path class="st26" d="M1157.07,116.83c-0.4,0.19-0.87,0.11-1.18-0.2c0.38,0.39,1.04,0.11,1.04-0.44V100.9
		c0-0.55-0.66-0.83-1.04-0.44c0.31-0.32,0.79-0.4,1.18-0.2l3.43,1.67c0.36,0.18,0.59,0.54,0.59,0.95v11.33
		c0,0.41-0.23,0.77-0.59,0.95L1157.07,116.83z"/>
</g>
<g>
	<rect x="1094.78" y="189.59" class="st21" width="27.64" height="1.61"/>
	<rect x="1094.78" y="128.33" class="st21" width="27.64" height="1.61"/>
	<rect x="1094.78" y="158.96" class="st21" width="27.64" height="1.61"/>
</g>
</svg>
