<?xml version="1.0" encoding="utf-8"?>
<!-- Generator: Adobe Illustrator 23.1.1, SVG Export Plug-In . SVG Version: 6.00 Build 0)  -->
<svg version="1.1" id="Layer_1" xmlns="http://www.w3.org/2000/svg" xmlns:xlink="http://www.w3.org/1999/xlink" x="0px" y="0px"
	 viewBox="0 0 360 540" style="enable-background:new 0 0 360 540;" xml:space="preserve">
<style type="text/css">
	.st0{clip-path:url(#SVGID_2_);fill:url(#SVGID_3_);}
	.st1{clip-path:url(#SVGID_2_);fill:#D3C8FF;}
	.st2{clip-path:url(#SVGID_2_);fill:#ECE7FF;}
	.st3{clip-path:url(#SVGID_2_);fill:#FFE8AA;}
	.st4{clip-path:url(#SVGID_2_);}
	.st5{fill:#9E83E3;}
	.st6{fill:#FFB900;}
	.st7{fill:#FFD055;}
	.st8{fill:#8C6BC2;}
	.st9{fill:#FFE8AA;}
	.st10{fill:#FFFFFF;}
	.st11{fill-rule:evenodd;clip-rule:evenodd;fill:#854CC7;}
	.st12{fill:#52218A;}
	.st13{fill:#6C33AF;}
	.st14{fill:#854CC7;}
	.st15{fill:#B179F1;}
</style>
<g>
	<defs>
		<rect id="SVGID_1_" x="80" y="0" width="279" height="539"/>
	</defs>
	<clipPath id="SVGID_2_">
		<use xlink:href="#SVGID_1_"  style="overflow:visible;"/>
	</clipPath>
	<linearGradient id="SVGID_3_" gradientUnits="userSpaceOnUse" x1="261.9073" y1="200.0859" x2="261.9073" y2="481.7424">
		<stop  offset="0.1526" style="stop-color:#FFFFFF"/>
		<stop  offset="0.6684" style="stop-color:#EEEAFF"/>
	</linearGradient>
	<rect x="236.16" y="200.09" class="st0" width="51.49" height="281.66"/>
	<path class="st1" d="M465.9,495.71c1.02-1.91,1.65-4.07,1.78-6.37c0.46-8.46-6.02-15.69-14.48-16.15
		c-3.87-0.21-7.49,1.04-10.31,3.26c-0.97-12.69-11.21-23-24.26-23.72c-10.44-0.57-19.76,5.17-24.27,13.89
		c-2.09-1.15-4.47-1.86-7.02-2c-1.48-0.08-2.93,0.04-4.31,0.33c0.57-1.84,0.93-3.77,1.04-5.78c0.71-12.99-9.25-24.09-22.23-24.8
		c-2.51-0.14-4.95,0.13-7.26,0.73c-2.58-5.83-8.27-10.04-15.07-10.42c-2.21-0.12-4.35,0.18-6.33,0.82
		c-2.95-7.91-10.37-13.73-19.34-14.22c-11.83-0.65-21.97,8.22-23.01,19.93c-4.88-2.54-10.41-3.98-16.29-3.98
		c-12.45,0-23.38,6.44-29.68,16.17c-4.66-9.49-14.42-16.02-25.7-16.02c-14.8,0-26.97,11.23-28.47,25.64
		c-1.05-0.2-2.13-0.34-3.23-0.4c-13.29-0.73-24.65,9.46-25.38,22.75c-0.09,1.61-0.01,3.2,0.21,4.74
		c-5.88,2.39-10.68,6.88-13.48,12.53c-2.19-1.13-4.65-1.83-7.27-1.97c-9.67-0.53-17.97,6.64-18.96,16.16
		c-1.38-0.45-2.85-0.74-4.37-0.82c-9.36-0.51-17.37,6.67-17.88,16.03c-0.2,3.66,0.78,7.1,2.59,9.98c-3.69,1.6-6.89,4.12-9.31,7.27
		h383.84v-39.01C474.18,497.79,470.23,496.16,465.9,495.71z"/>
	<path class="st2" d="M459.32,553.17c0-7.75-6.28-14.03-14.03-14.03c-0.56,0-1.11,0.04-1.65,0.1
		c-1.92-13.27-13.32-23.47-27.11-23.47c-5.4,0-10.44,1.57-14.69,4.27c-3.34-8.64-11.71-14.77-21.51-14.77
		c-0.66,0-1.31,0.04-1.95,0.09c0.01-0.24,0.02-0.48,0.02-0.72c0-9.55-7.74-17.3-17.3-17.3c-5.06,0-9.62,2.18-12.78,5.64
		c-2.58-8.26-10.3-14.26-19.41-14.26c-2.61,0-5.11,0.5-7.41,1.4c0.51-1.88,0.79-3.86,0.79-5.9c0-12.41-10.05-22.46-22.44-22.46
		c-11.55,0-21.06,8.74-22.3,19.98c-2.97-1.1-6.18-1.7-9.53-1.7c-9.05,0-17.08,4.37-22.11,11.11c-2.48-6.52-8.77-11.16-16.16-11.16
		c-9.55,0-17.28,7.75-17.28,17.3c0,2.6,0.58,5.07,1.6,7.28c-0.2-0.01-0.41-0.03-0.62-0.03c-2.46,0-4.69,0.99-6.32,2.58
		c-4.47-2.42-9.59-3.8-15.02-3.8c-17.46,0-31.61,14.17-31.61,31.65c0,2.48,0.29,4.89,0.83,7.2c-7.7,1.74-13.46,8.63-13.46,16.87
		c0,2.19,0.41,4.28,1.15,6.21h292.22c0,0,0-0.01,0-0.01h17.91C459.26,554.58,459.32,553.88,459.32,553.17z"/>
	<path class="st3" d="M235.42,220.48c-2.17,4.7-2.9,13.99-2.9,13.99l0.94-1.61c0,0,0.16,4.81,1.03,9.49
		c0.64,3.41,1.81,6.31,1.81,6.31l0.14-2.05c0,0,1.07,2.83,2.28,4.94s2.72,5.83,2.72,5.83s1.8-4.28,3.17-6.55
		c2.46-4.08,3.44-8.27,3.44-8.27l0.23,2.95c0,0,1.33-3.99,1.57-7.86c0.24-3.9-0.68-9.01-0.68-9.01l1.25,1.83
		c0,0-1.81-7.26-3.07-10.01C246.76,219.21,235.42,220.48,235.42,220.48z"/>
	<path class="st3" d="M247.34,234.06c-0.13-6.64-1.63-12.2-1.63-12.2h-4.89h-2.13h-1.51c0,0-1.51,5.57-1.63,12.2
		c-0.12,6.58,5.8,15.9,5.9,16.05l0,0c0,0,0,0,0,0c0,0,0,0,0,0l0,0C241.52,249.98,247.47,240.65,247.34,234.06z"/>
	<path class="st3" d="M287.78,220.48c2.17,4.7,2.9,13.99,2.9,13.99l-0.94-1.61c0,0-0.16,4.81-1.03,9.49
		c-0.64,3.41-1.81,6.31-1.81,6.31l-0.14-2.05c0,0-1.07,2.83-2.28,4.94c-1.21,2.11-2.72,5.83-2.72,5.83s-1.8-4.28-3.17-6.55
		c-2.46-4.08-3.44-8.27-3.44-8.27l-0.23,2.95c0,0-1.33-3.99-1.57-7.86c-0.24-3.9,0.68-9.01,0.68-9.01l-1.25,1.83
		c0,0,1.81-7.26,3.07-10.01C276.43,219.21,287.78,220.48,287.78,220.48z"/>
	<path class="st3" d="M275.85,234.06c0.13-6.64,1.63-12.2,1.63-12.2h4.89h2.13h1.51c0,0,1.51,5.57,1.63,12.2
		c0.12,6.58-5.8,15.9-5.9,16.05l0,0c0,0,0,0,0,0c0,0,0,0,0,0l0,0C281.67,249.98,275.73,240.65,275.85,234.06z"/>
	<path class="st3" d="M267.48,220.61c2.2,5.51,2.95,16.42,2.95,16.42l-0.96-1.89c0,0-0.16,5.64-1.05,11.13
		c-0.65,4.01-1.85,7.4-1.85,7.4l-0.14-2.4c0,0-1.08,3.32-2.32,5.8c-1.23,2.48-2.76,6.85-2.76,6.85s-1.83-5.02-3.22-7.68
		c-2.5-4.79-3.5-9.7-3.5-9.7L254.4,250c0,0-1.36-4.68-1.6-9.22c-0.25-4.58,0.7-10.57,0.7-10.57l-1.27,2.15c0,0,1.85-8.52,3.12-11.75
		C255.94,219.12,267.48,220.61,267.48,220.61z"/>
	<path class="st3" d="M255.35,236.54c0.13-7.79,1.66-14.32,1.66-14.32h4.98h2.17h1.53c0,0,1.53,6.53,1.66,14.32
		c0.13,7.73-5.9,18.66-6,18.84l0,0c0,0,0,0,0,0c0,0,0,0,0,0l0,0C261.27,255.24,255.22,244.28,255.35,236.54z"/>
	<g class="st4">
		<polygon class="st5" points="275.24,111 247.08,111 243.89,103.7 278.33,103.96 		"/>
		<path class="st6" d="M274.5,106.21H248c-2.62,0-4.75-2.13-4.75-4.75V58.34c0-2.59,2.1-4.69,4.69-4.69h26.55
			c2.62,0,4.75,2.13,4.75,4.75v43.07C279.25,104.08,277.12,106.21,274.5,106.21z"/>
		<path class="st5" d="M244,55.71l15.58-21.8c0.52-0.73,2.21-0.72,2.75,0l15.98,21.66L244,55.71z"/>
		<rect x="246.98" y="111" class="st6" width="28.26" height="85.74"/>
		<rect x="246.54" y="186.89" class="st6" width="29.55" height="12.41"/>
		<polygon class="st5" points="249.08,222.59 233.06,222.59 236.71,209.15 245.43,209.15 		"/>
		<polygon class="st5" points="289.16,222.59 273.14,222.59 276.79,209.15 285.51,209.15 		"/>
		<polygon class="st5" points="269.09,222.59 253.07,222.59 256.72,209.15 265.44,209.15 		"/>
		<path class="st7" d="M234.76,211.7h12.51v-66.4l-11.37,9.19c-0.72,0.58-1.14,1.46-1.14,2.38V211.7z"/>
		<path class="st7" d="M287.4,211.7h-12.51v-66.4l10.83,8.74c1.07,0.86,1.68,2.16,1.68,3.53V211.7z"/>
		<path class="st7" d="M267.33,156.74c0-0.8-0.22-1.58-0.63-2.27l-4.94-8.13c-0.29-0.48-0.98-0.48-1.27,0l-4.94,8
			c-0.48,0.77-0.73,1.67-0.73,2.58l-0.02,54.77h12.52L267.33,156.74z"/>
		<rect x="274.89" y="201.55" class="st8" width="12.51" height="10.16"/>
		<rect x="254.81" y="201.55" class="st8" width="12.52" height="10.13"/>
		<rect x="234.76" y="201.55" class="st8" width="12.51" height="10.16"/>
		<g>
			<rect x="234.76" y="187.32" class="st9" width="12.51" height="0.73"/>
			<rect x="234.76" y="159.59" class="st9" width="12.51" height="0.73"/>
			<rect x="234.76" y="173.45" class="st9" width="12.51" height="0.73"/>
		</g>
		<g>
			<rect x="254.81" y="187.32" class="st9" width="12.52" height="0.73"/>
			<rect x="254.82" y="173.45" class="st9" width="12.51" height="0.73"/>
			<rect x="254.82" y="159.59" class="st9" width="12.51" height="0.73"/>
		</g>
		<g>
			<rect x="274.89" y="187.32" class="st9" width="12.51" height="0.73"/>
			<rect x="274.89" y="173.45" class="st9" width="12.51" height="0.73"/>
			<rect x="274.89" y="159.59" class="st9" width="12.51" height="0.73"/>
		</g>
		<g>
			<path class="st9" d="M266.56,141.26c0,0.2-0.07,0.36-0.21,0.5c-0.14,0.14-0.31,0.21-0.5,0.21c-0.2,0-0.37-0.07-0.51-0.21
				c-0.14-0.14-0.21-0.31-0.21-0.5c0-0.2,0.07-0.37,0.21-0.51c0.14-0.14,0.31-0.21,0.51-0.21c0.2,0,0.36,0.07,0.5,0.21
				C266.49,140.89,266.56,141.06,266.56,141.26z"/>
			<path class="st9" d="M266.42,131.25v1.32l-7.31,4.72c-0.18,0.12-0.38,0.22-0.58,0.29v0.04c0.2-0.03,0.62-0.05,1.26-0.05h6.62
				v1.07h-9.17v-1.39l7.19-4.59c0.3-0.19,0.5-0.32,0.61-0.37v-0.03c-0.26,0.04-0.71,0.06-1.35,0.06h-6.46v-1.07H266.42z"/>
			<path class="st9" d="M266.42,123.99v4.86h-9.17v-4.65h0.97v3.58h3.05v-3.31h0.97v3.31h3.21v-3.78H266.42z"/>
			<path class="st9" d="M258.23,116.78v2.65h8.2v1.07h-8.2v2.64h-0.97v-6.36H258.23z"/>
		</g>
		<g>
			<g>
				<g>
					<path class="st9" d="M269.01,77.34c0-0.45-0.37-0.81-0.82-0.81l-13.35,0.08c-0.22,0-0.42,0.09-0.57,0.24
						c-0.15,0.15-0.24,0.36-0.24,0.58l0.04,8.43c0,0.17,0.07,0.34,0.19,0.46c0.12,0.12,0.29,0.19,0.46,0.19c0,0,0,0,0,0l5.19-0.03
						v1.74h-1.43c-0.35,0-0.64,0.29-0.64,0.64c0,0.35,0.29,0.64,0.64,0.64h6.2c0.35,0,0.64-0.29,0.64-0.64
						c0-0.35-0.29-0.64-0.64-0.64h-1.43v-1.76l5.14-0.03c0.36,0,0.65-0.3,0.65-0.66L269.01,77.34z"/>
					<path class="st9" d="M266.82,95.23c-0.22-0.68-0.85-1.14-1.56-1.14h-1.13c-0.3,0-0.56,0.19-0.64,0.47l-3.6,0
						c-0.11-0.26-0.44-0.47-0.75-0.47h-0.98c-0.72,0-1.35,0.46-1.56,1.14l-1.51,4.76c-0.27,0.86,0.21,1.79,1.07,2.06
						c0.16,0.05,0.33,0.08,0.5,0.08c0.49,0,1.02-0.28,1.34-0.69l1.6-1.75c0.11-0.12,0.26-0.18,0.41-0.18h3.44
						c0.16,0,0.31,0.07,0.41,0.18l1.6,1.75c0.31,0.32,0.75,0.69,1.33,0.69c0.17,0,0.34-0.03,0.5-0.08c0.86-0.27,1.34-1.2,1.07-2.06
						L266.82,95.23z"/>
					<path class="st9" d="M258.71,71.51c0.18,0.18,0.43,0.28,0.69,0.28c0,0,0,0,0,0l4.42-0.02c0.54,0,0.97-0.44,0.97-0.98
						l-0.03-10.56c0-0.26-0.1-0.5-0.29-0.69c-0.18-0.18-0.43-0.27-0.69-0.28l-4.42,0.02c-0.54,0-0.97,0.44-0.97,0.98l0.03,10.56
						C258.43,71.09,258.53,71.33,258.71,71.51z"/>
				</g>
				<path class="st6" d="M263.88,60.48c0-0.05-0.04-0.1-0.09-0.1l-0.68,0l-0.21,0.54c-0.03,0.09-0.11,0.14-0.19,0.14h-2.2
					c-0.09,0-0.17-0.06-0.2-0.15l-0.18-0.52l-0.72,0c-0.05,0-0.09,0.04-0.09,0.1l0.06,10.05c0,0.05,0.04,0.1,0.09,0.1l4.34,0.06
					c0.05,0,0.09-0.04,0.09-0.1L263.88,60.48z"/>
			</g>
			<polygon class="st6" points="268.01,85.37 255.15,85.45 255.09,77.64 267.95,77.56 			"/>
			<g>
				<circle class="st6" cx="258.6" cy="96.22" r="1.13"/>
				<circle class="st6" cx="264.84" cy="96.22" r="1.13"/>
				<path class="st6" d="M262.63,96.39h-1.89c-0.19,0-0.34-0.15-0.34-0.34l0,0c0-0.19,0.15-0.34,0.34-0.34h1.89
					c0.19,0,0.34,0.15,0.34,0.34l0,0C262.97,96.24,262.81,96.39,262.63,96.39z"/>
				<circle class="st6" cx="260.05" cy="98.24" r="0.53"/>
				<circle class="st6" cx="263.42" cy="98.24" r="0.53"/>
			</g>
		</g>
		<g>
			<g>
				<path class="st10" d="M262.27,144.24c0.41-0.15,0.86-0.13,1.25,0.07l1.99,0.99c0.5,0.25,0.82,0.75,0.82,1.3v6.52
					c0,0.55-0.32,1.05-0.82,1.3l-1.99,0.99c-0.39,0.19-0.84,0.22-1.25,0.07l-5.64-2.09c-0.59-0.22-0.98-0.76-0.98-1.37v-4.34
					c0-0.61,0.39-1.15,0.98-1.37L262.27,144.24z"/>
			</g>
			<path class="st11" d="M265.28,145.76l-1.99-0.99c-0.26-0.13-0.57-0.15-0.85-0.05l-5.64,2.09c-0.4,0.15-0.65,0.51-0.65,0.89v4.34
				c0,0.38,0.25,0.74,0.65,0.89l5.64,2.09c0.28,0.1,0.59,0.09,0.85-0.05l1.99-0.99c0.34-0.17,0.54-0.5,0.54-0.84v-6.52
				C265.82,146.26,265.62,145.93,265.28,145.76z M263.52,144.31c-0.39-0.19-0.84-0.22-1.25-0.07l-5.64,2.09
				c-0.59,0.22-0.98,0.76-0.98,1.37v4.34c0,0.61,0.39,1.15,0.98,1.37l5.64,2.09c0.41,0.15,0.86,0.13,1.25-0.07l1.99-0.99
				c0.5-0.25,0.82-0.75,0.82-1.3v-6.52c0-0.55-0.32-1.05-0.82-1.3L263.52,144.31z"/>
			<path class="st12" d="M258.23,152.02c-0.09,0.08-0.21,0.1-0.32,0.05l-0.55-0.24c-0.11-0.05-0.19-0.16-0.19-0.29v-3.36
				c0-0.13,0.07-0.24,0.19-0.29l0.55-0.24c0.11-0.05,0.23-0.03,0.32,0.05l0.12,0.11c-0.11-0.08-0.27,0-0.27,0.14v3.82
				c0,0.14,0.16,0.22,0.27,0.14L258.23,152.02z"/>
			<g>
				<path class="st13" d="M257.37,151.84c-0.12-0.05-0.2-0.17-0.2-0.29v-0.03c0,0.17,0.21,0.25,0.32,0.12l4.92-5.45
					c0.14-0.14,0.36-0.18,0.54-0.09l1.57,0.76c0.17,0.08,0.27,0.25,0.27,0.43v0.02c0-0.25-0.3-0.39-0.49-0.23l-5.91,4.84l-0.13,0.11
					c-0.09,0.08-0.22,0.1-0.33,0.05L257.37,151.84z"/>
			</g>
			<g>
				<path class="st14" d="M257.37,147.89c-0.12,0.05-0.2,0.17-0.2,0.29v0.03c0-0.17,0.21-0.25,0.32-0.12l4.92,5.45
					c0.14,0.14,0.36,0.18,0.54,0.09l1.57-0.76c0.17-0.08,0.27-0.25,0.27-0.43v-0.02c0,0.25-0.3,0.39-0.49,0.23l-5.91-4.84
					l-0.13-0.11c-0.09-0.08-0.22-0.1-0.33-0.05L257.37,147.89z"/>
			</g>
			<g>
				<path class="st15" d="M262.97,153.63c-0.18,0.09-0.4,0.05-0.54-0.09c0.17,0.18,0.47,0.05,0.47-0.2v-6.95
					c0-0.25-0.3-0.38-0.47-0.2c0.14-0.14,0.36-0.18,0.54-0.09l1.56,0.76c0.16,0.08,0.27,0.25,0.27,0.43v5.15
					c0,0.18-0.1,0.35-0.27,0.43L262.97,153.63z"/>
			</g>
		</g>
	</g>
</g>
</svg>
