<?xml version="1.0" encoding="utf-8"?>
<!-- Generator: Adobe Illustrator 23.1.1, SVG Export Plug-In . SVG Version: 6.00 Build 0)  -->
<svg version="1.1" id="Layer_1" xmlns="http://www.w3.org/2000/svg" xmlns:xlink="http://www.w3.org/1999/xlink" x="0px" y="0px"
	 viewBox="0 0 830 1220" style="enable-background:new 0 0 830 1220;" xml:space="preserve">
<style type="text/css">
	.st0{fill:#5C2D91;}
	.st1{fill:#9E83E3;}
	.st2{fill:#FFFFFF;}
	.st3{fill:#FFB900;}
	.st4{fill:#FFD055;}
	.st5{fill:#FFE8AA;}
	.st6{fill-rule:evenodd;clip-rule:evenodd;fill:#854CC7;}
	.st7{fill:#52218A;}
	.st8{fill:#6C33AF;}
	.st9{fill:#854CC7;}
	.st10{fill:#B179F1;}
</style>
<g>
	<path class="st0" d="M649.72,1025.48l103.53-804.46c-7.82-19.33-25.56-33.99-47.72-36.76c-7.45-0.93-14.75-0.43-21.62,1.27
		c-8.13-27.46-31.82-48.92-62.06-52.7c-40.73-5.09-77.87,23.8-82.96,64.53c-0.95,7.63-0.71,15.14,0.57,22.33
		c-20.4,2.73-37.22,18.89-39.89,40.28c-0.51,4.06-0.44,8.06,0.07,11.93c-0.28,0.13-0.56,0.26-0.85,0.4
		c-5.33-2.13-11-3.64-16.96-4.38c-27.73-3.47-53.63,10.11-67.27,32.53c-8.11-1.77-19.19-4.27-31.83-7.16
		c2.68-7.82,4.41-16.11,5.02-24.75c3.74-53.49-36.59-99.89-90.08-103.63c-50.07-3.5-93.93,31.62-102.39,80.01
		c-3.52-0.93-7.14-1.66-10.85-2.12c-11.55-1.44-22.84-0.38-33.33,2.73c-13.67-17.89-35.22-29.45-59.47-29.45
		c-5.09,0-10.06,0.51-14.86,1.48l105.01,807.93H649.72z"/>
	<path class="st1" d="M654.73,689.43c-3.59,0.43-7.08,1.11-10.48,1.98c-8.18-45.12-50.54-77.88-98.91-74.61
		c-25.42,1.72-47.76,13.06-63.47,30.08c-16.23,17.58-168.6,7.31-169.52,0.19c-4.92-37.98-40.79-64.92-80.14-60.18
		c-29.21,3.52-52.1,23.53-59.95,49.14c-6.64-1.59-13.69-2.06-20.89-1.19c-7.06,0.85-13.66,2.92-19.61,5.94l50,384.68h467.95
		l42.69-331.72C680.77,689.51,667.93,687.84,654.73,689.43z"/>
	<path class="st2" d="M201.45,1181.47h428l46.52-359.97c-3.47-2.02-7.26-3.6-11.33-4.65c-5.45-1.4-10.92-1.71-16.2-1.1
		c-3.44-21.18-19.02-39.38-41.13-45.05c-29.79-7.64-60.14,10.31-67.78,40.1c-1.06,4.14-1.62,8.28-1.73,12.38
		c-9.06-4.97-19.35-7.79-30.28-7.79c-31.26,0-57.37,22.98-63.88,53.71c-2.03,1.78-3.92,3.72-5.66,5.81
		c-2.94-0.93-5.95-1.71-9.02-2.29c-4.35-1.58-9.27-3.37-14.58-5.32c2.73-5.56,4.81-11.56,6.07-17.92
		c7.85-39.41-17.73-77.71-57.13-85.56c-36.89-7.35-72.81,14.6-83.69,49.76c-2.53-1.03-5.15-1.91-7.86-2.61
		c-32.77-8.41-66.15,11.34-74.56,44.11c-1.02,3.98-1.6,7.97-1.82,11.92c-12.07,2.32-23.18,7.99-32.11,16.17L201.45,1181.47z"/>
	<circle class="st1" cx="616.52" cy="471.64" r="9.16"/>
	<circle class="st1" cx="133.62" cy="392.24" r="7.82"/>
	<circle class="st1" cx="185.07" cy="370.84" r="3.31"/>
	<circle class="st1" cx="317.71" cy="415.24" r="7.45"/>
	<circle class="st1" cx="657.13" cy="318.84" r="6.29"/>
	<circle class="st1" cx="279.62" cy="326.02" r="9.16"/>
	<circle class="st1" cx="721.18" cy="223.36" r="7.68"/>
	<circle class="st1" cx="540.97" cy="280.3" r="7.45"/>
	<path class="st1" d="M287.27,494.3c5.81-0.28,13.2-1.4,19.45-2.72c-6.49-1.82-13.22-2.5-19.41-2.58c-0.29-5.8-1.4-13.13-2.71-19.35
		c-1.82,6.49-2.5,13.23-2.58,19.42c-11.08,0.44-19.35,2.51-19.35,2.51s12.31,2.15,19.42,2.67c0.43,11.13,2.51,19.45,2.51,19.45
		S286.75,501.41,287.27,494.3z"/>
	<path class="st1" d="M607.75,240.56c5.8-0.28,13.16-1.4,19.39-2.71c-6.47-1.81-13.18-2.49-19.35-2.57
		c-0.28-5.78-1.4-13.09-2.7-19.28c-1.81,6.47-2.49,13.18-2.57,19.36c-11.04,0.44-19.28,2.5-19.28,2.5s12.27,2.14,19.35,2.66
		c0.43,11.09,2.5,19.39,2.5,19.39S607.22,247.65,607.75,240.56z"/>
	<path class="st1" d="M675.73,413.27c5.47-0.26,12.42-1.32,18.29-2.56c-6.1-1.71-12.43-2.35-18.25-2.43
		c-0.27-5.45-1.32-12.35-2.55-18.19c-1.71,6.1-2.35,12.44-2.43,18.26c-10.42,0.41-18.19,2.36-18.19,2.36s11.57,2.02,18.26,2.51
		c0.4,10.47,2.36,18.29,2.36,18.29S675.24,419.96,675.73,413.27z"/>
	<path class="st1" d="M149.66,305.46c5.64-0.27,12.81-1.36,18.87-2.64c-6.29-1.76-12.82-2.43-18.83-2.5
		c-0.28-5.63-1.36-12.74-2.63-18.77c-1.77,6.3-2.43,12.83-2.5,18.84c-10.75,0.43-18.77,2.43-18.77,2.43s11.94,2.08,18.84,2.59
		c0.42,10.8,2.43,18.87,2.43,18.87S149.16,312.36,149.66,305.46z"/>
	<path class="st1" d="M538.28,409.27c4.91-0.23,11.14-1.18,16.41-2.29c-5.47-1.53-11.15-2.11-16.38-2.18
		c-0.24-4.89-1.18-11.08-2.29-16.32c-1.54,5.48-2.11,11.16-2.18,16.39c-9.35,0.37-16.32,2.11-16.32,2.11s10.38,1.81,16.38,2.25
		c0.36,9.39,2.12,16.41,2.12,16.41S537.83,415.27,538.28,409.27z"/>
	<circle class="st1" cx="322.96" cy="230.43" r="5.65"/>
	<path class="st3" d="M607.46,972.75c-4.83-4.21-10.5-7.64-16.88-9.97c-19.65-7.18-40.77-2.17-55.11,11.16
		c-5.78-4.5-12.34-8.19-19.59-10.84c-31.16-11.38-65.07,0.03-83.51,25.73c-12.25-7.27-26.55-11.46-41.83-11.46
		c-5.79,0-11.44,0.61-16.89,1.75c-8.98-14.65-22.78-26.5-40.19-32.86c-37.67-13.76-79.03,2.96-97.1,37.58
		c-5.29-9.69-13.97-17.57-25.15-21.66c-12.79-4.67-26.3-3.44-37.54,2.3l27.77,216.98h428l29.66-229.49
		C639.65,951.12,620.77,958.81,607.46,972.75z"/>
	<g>
		<polygon class="st1" points="469.73,348.69 357.22,348.69 344.47,319.54 482.06,320.57 		"/>
		<path class="st3" d="M466.76,329.54H360.91c-10.48,0-18.97-8.49-18.97-18.97V138.29c0-10.36,8.4-18.75,18.75-18.75h106.07
			c10.48,0,18.97,8.49,18.97,18.97v172.07C485.73,321.05,477.24,329.54,466.76,329.54z"/>
		<path class="st1" d="M344.94,127.8l62.24-87.09c2.1-2.92,8.83-2.89,10.97,0l63.84,86.54L344.94,127.8z"/>
		<rect x="356.82" y="348.69" class="st3" width="112.89" height="342.55"/>
		<rect x="355.06" y="651.88" class="st3" width="118.07" height="49.56"/>
		<path class="st4" d="M307.99,751h49.98V485.71l-45.44,36.7c-2.87,2.32-4.54,5.81-4.54,9.5V751z"/>
		<path class="st4" d="M518.31,751h-49.98V485.71l43.25,34.94c4.26,3.44,6.73,8.62,6.73,14.09V751z"/>
		<path class="st4" d="M438.14,531.4c0-3.19-0.88-6.32-2.53-9.05l-19.72-32.48c-1.16-1.9-3.91-1.91-5.08-0.02l-19.72,31.94
			c-1.91,3.09-2.92,6.66-2.92,10.29L388.1,750.9h50.03L438.14,531.4z"/>
		<g>
			<rect x="307.99" y="653.58" class="st5" width="49.98" height="2.92"/>
			<rect x="307.99" y="542.79" class="st5" width="49.98" height="2.92"/>
			<rect x="307.99" y="598.19" class="st5" width="49.98" height="2.92"/>
		</g>
		<g>
			<rect x="388.12" y="653.58" class="st5" width="50.01" height="2.92"/>
			<rect x="388.14" y="598.19" class="st5" width="50" height="2.92"/>
			<rect x="388.16" y="542.79" class="st5" width="49.99" height="2.92"/>
		</g>
		<g>
			<rect x="468.33" y="653.58" class="st5" width="49.98" height="2.92"/>
			<rect x="468.33" y="598.19" class="st5" width="49.98" height="2.92"/>
			<rect x="468.33" y="542.79" class="st5" width="49.98" height="2.92"/>
		</g>
		<g>
			<path class="st5" d="M435.06,469.57c0,0.78-0.28,1.45-0.84,2c-0.56,0.55-1.23,0.83-2.02,0.83s-1.46-0.28-2.03-0.83
				c-0.57-0.55-0.86-1.22-0.86-2c0-0.8,0.29-1.48,0.86-2.04c0.57-0.56,1.25-0.84,2.03-0.84s1.46,0.28,2.02,0.84
				C434.78,468.09,435.06,468.77,435.06,469.57z"/>
			<path class="st5" d="M434.5,429.6v5.26l-29.19,18.85c-0.73,0.48-1.5,0.87-2.3,1.17v0.15c0.78-0.14,2.46-0.2,5.03-0.2h26.46v4.29
				h-36.62v-5.57l28.73-18.34c1.19-0.77,2.01-1.26,2.45-1.48v-0.1c-1.06,0.17-2.85,0.25-5.39,0.25h-25.8v-4.29H434.5z"/>
			<path class="st5" d="M434.5,400.59V420h-36.62v-18.59h3.88v14.3h12.18v-13.23h3.86v13.23h12.82v-15.12H434.5z"/>
			<path class="st5" d="M401.76,371.78v10.57h32.74v4.29h-32.74v10.55h-3.88v-25.41H401.76z"/>
		</g>
		<g>
			<g>
				<g>
					<path class="st5" d="M444.83,214.21c-0.01-1.79-1.48-3.23-3.27-3.23l-53.33,0.32c-0.87,0-1.68,0.35-2.29,0.97
						c-0.61,0.62-0.94,1.44-0.94,2.31l0.17,33.67c0,0.7,0.28,1.35,0.77,1.84c0.49,0.49,1.14,0.75,1.83,0.75c0.01,0,0.01,0,0.02,0
						l20.75-0.12v6.94h-5.7c-1.4,0-2.55,1.14-2.55,2.55s1.14,2.55,2.55,2.55h24.76c1.4,0,2.55-1.14,2.55-2.55s-1.14-2.55-2.55-2.55
						h-5.7v-7.02l20.52-0.12c1.44-0.01,2.6-1.18,2.59-2.62L444.83,214.21z"/>
					<path class="st5" d="M436.07,285.69c-0.87-2.73-3.38-4.57-6.25-4.57h-4.53c-1.19,0-2.22,0.76-2.57,1.89L408.35,283
						c-0.44-1.05-1.75-1.87-2.99-1.87h-3.93c-2.87,0-5.38,1.84-6.25,4.57l-6.04,19.03c-1.09,3.45,0.82,7.14,4.27,8.23
						c0.64,0.2,1.31,0.31,1.98,0.31c1.97,0,4.09-1.11,5.34-2.77l6.37-7c0.42-0.46,1.02-0.73,1.65-0.73h13.73
						c0.63,0,1.23,0.26,1.65,0.73l6.39,7.01c1.26,1.28,3,2.76,5.33,2.76c0.67,0,1.34-0.1,1.98-0.31c3.45-1.09,5.36-4.79,4.27-8.23
						L436.07,285.69z"/>
					<path class="st5" d="M403.7,190.94c0.73,0.73,1.71,1.13,2.74,1.13c0,0,0.01,0,0.02,0l17.67-0.07c2.14-0.01,3.88-1.76,3.87-3.9
						l-0.13-42.18c0-1.04-0.41-2.01-1.15-2.75c-0.74-0.73-1.71-1.07-2.75-1.13l-17.67,0.07c-2.14,0.01-3.88,1.76-3.87,3.9
						l0.13,42.18C402.56,189.23,402.96,190.2,403.7,190.94z"/>
				</g>
				<path class="st3" d="M424.33,146.85c0-0.22-0.16-0.39-0.35-0.39l-2.73,0.01l-0.85,2.16c-0.13,0.34-0.44,0.56-0.78,0.56h-8.8
					c-0.35,0-0.67-0.24-0.79-0.61l-0.7-2.07l-2.88,0.01c-0.2,0-0.35,0.18-0.35,0.39l0.23,40.14c0,0.21,0.16,0.39,0.35,0.39
					l17.35,0.26c0.2,0,0.36-0.17,0.36-0.39L424.33,146.85z"/>
			</g>
			<polygon class="st3" points="440.83,246.29 389.45,246.6 389.23,215.4 440.61,215.1 			"/>
			<g>
				<circle class="st3" cx="403.24" cy="289.64" r="4.53"/>
				<circle class="st3" cx="428.16" cy="289.64" r="4.53"/>
				<path class="st3" d="M419.33,290.32h-7.55c-0.75,0-1.36-0.61-1.36-1.36v0c0-0.75,0.61-1.36,1.36-1.36h7.55
					c0.75,0,1.36,0.61,1.36,1.36v0C420.69,289.71,420.08,290.32,419.33,290.32z"/>
				<circle class="st3" cx="409.06" cy="297.72" r="2.11"/>
				<circle class="st3" cx="422.5" cy="297.72" r="2.11"/>
			</g>
		</g>
		<g>
			<path class="st5" d="M308.62,789.2c-8.71,18.86-11.66,56.21-11.66,56.21l3.78-6.48c0,0,0.65,19.3,4.15,38.11
				c2.56,13.71,7.29,25.34,7.29,25.34l0.56-8.23c0,0,4.28,11.36,9.16,19.85c4.88,8.48,10.92,23.44,10.92,23.44
				s7.23-17.18,12.73-26.29c9.88-16.39,13.81-33.21,13.81-33.21l0.92,11.87c0,0,5.35-16.01,6.32-31.57
				c0.97-15.68-2.75-36.19-2.75-36.19l5.02,7.36c0,0-7.29-29.15-12.34-40.2C354.2,784.12,308.62,789.2,308.62,789.2z"/>
			<path class="st5" d="M356.52,843.75c-0.5-26.66-6.56-49.02-6.56-49.02H330.3h-8.57h-6.05c0,0-6.05,22.36-6.56,49.02
				c-0.5,26.44,23.31,63.88,23.7,64.49l0,0.01c0,0,0-0.01,0-0.01c0,0,0,0.01,0,0.01l0-0.01
				C333.14,907.74,357.02,870.23,356.52,843.75z"/>
		</g>
		<g>
			<path class="st5" d="M518.95,789.2c8.71,18.86,11.66,56.21,11.66,56.21l-3.78-6.48c0,0-0.65,19.3-4.15,38.11
				c-2.56,13.71-7.29,25.34-7.29,25.34l-0.56-8.23c0,0-4.28,11.36-9.16,19.85c-4.88,8.48-10.92,23.44-10.92,23.44
				s-7.23-17.18-12.73-26.29c-9.88-16.39-13.81-33.21-13.81-33.21l-0.92,11.87c0,0-5.35-16.01-6.32-31.57
				c-0.97-15.68,2.75-36.19,2.75-36.19l-5.02,7.36c0,0,7.29-29.15,12.34-40.2C473.37,784.12,518.95,789.2,518.95,789.2z"/>
			<path class="st5" d="M471.05,843.75c0.5-26.66,6.56-49.02,6.56-49.02h19.66h8.57h6.05c0,0,6.05,22.36,6.56,49.02
				c0.5,26.44-23.31,63.88-23.7,64.49l0,0.01c0,0,0-0.01,0-0.01c0,0,0,0.01,0,0.01l0-0.01
				C494.43,907.74,470.55,870.23,471.05,843.75z"/>
		</g>
		<path class="st5" d="M437.41,789.72c8.86,22.14,11.86,65.97,11.86,65.97l-3.85-7.6c0,0-0.66,22.66-4.23,44.73
			c-2.6,16.09-7.41,29.74-7.41,29.74l-0.57-9.66c0,0-4.35,13.34-9.32,23.3c-4.96,9.96-11.11,27.51-11.11,27.51
			s-7.36-20.17-12.95-30.86c-10.05-19.23-14.05-38.97-14.05-38.97l-0.94,13.93c0,0-5.44-18.79-6.42-37.05
			c-0.99-18.41,2.8-42.48,2.8-42.48l-5.1,8.64c0,0,7.41-34.22,12.55-47.19C391.04,783.74,437.41,789.72,437.41,789.72z"/>
		<path class="st5" d="M388.68,853.73c0.51-31.29,6.67-57.54,6.67-57.54h20h8.72h6.16c0,0,6.16,26.24,6.67,57.54
			c0.51,31.04-23.71,74.97-24.1,75.69l0,0.02c0,0,0-0.01,0-0.01c0,0,0,0.01,0,0.01l0-0.01
			C412.46,928.84,388.17,884.82,388.68,853.73z"/>
		<g>
			<polygon class="st3" points="365.21,794.49 301.21,794.49 315.79,740.8 350.63,740.8 			"/>
			<polygon class="st3" points="525.32,794.49 461.32,794.49 475.9,740.8 510.75,740.8 			"/>
			<polygon class="st3" points="445.15,794.49 381.15,794.49 395.73,740.8 430.58,740.8 			"/>
			<rect x="468.33" y="710.42" class="st0" width="49.98" height="40.58"/>
			<polygon class="st0" points="388.11,710.42 388.1,750.9 438.13,750.9 438.13,710.42 			"/>
			<rect x="307.99" y="710.42" class="st0" width="49.98" height="40.58"/>
		</g>
	</g>
	<g>
		<path class="st0" d="M246.76,1010.49l3.79,24.68h0.54l3.79-24.68h5.05l-6.9,34.99h-4.4l-6.9-34.99H246.76z"/>
		<path class="st0" d="M267.33,1015.21h-4.73v-4.73h4.73V1015.21z M267.33,1045.48h-4.73v-25h4.73V1045.48z"/>
		<path class="st0" d="M281.97,1027.73c0-0.93-0.25-1.67-0.74-2.23c-0.49-0.55-1.22-0.83-2.19-0.83c-0.48,0-0.89,0.08-1.22,0.24
			c-0.33,0.16-0.6,0.38-0.81,0.64c-0.21,0.27-0.35,0.57-0.44,0.9c-0.09,0.33-0.13,0.67-0.13,1.01c0,0.57,0.12,1.05,0.36,1.44
			c0.24,0.38,0.56,0.71,0.95,0.98c0.39,0.27,0.84,0.5,1.34,0.69c0.5,0.19,1,0.36,1.5,0.52c0.63,0.2,1.3,0.48,2.01,0.85
			c0.72,0.37,1.37,0.85,1.97,1.44c0.6,0.59,1.1,1.31,1.5,2.15c0.4,0.84,0.6,1.83,0.6,2.98c0,0.97-0.17,1.88-0.5,2.75
			c-0.33,0.87-0.81,1.64-1.44,2.31c-0.63,0.67-1.41,1.2-2.35,1.6c-0.94,0.39-2.01,0.59-3.21,0.59c-1.49,0-2.71-0.23-3.68-0.7
			c-0.97-0.46-1.73-1.06-2.3-1.79c-0.56-0.72-0.96-1.53-1.18-2.42c-0.22-0.89-0.34-1.76-0.34-2.62h4.73c0,0.93,0.25,1.67,0.74,2.23
			c0.49,0.55,1.22,0.83,2.19,0.83c0.48,0,0.89-0.08,1.22-0.24c0.33-0.16,0.6-0.38,0.81-0.64c0.21-0.27,0.35-0.57,0.44-0.9
			c0.09-0.33,0.13-0.67,0.13-1.01c0-0.55-0.13-1.03-0.39-1.44c-0.26-0.4-0.59-0.75-0.98-1.03c-0.39-0.29-0.83-0.52-1.3-0.7
			c-0.47-0.18-0.93-0.33-1.36-0.46c-0.73-0.21-1.47-0.51-2.22-0.87c-0.74-0.37-1.41-0.84-2-1.42s-1.07-1.29-1.45-2.12
			c-0.38-0.83-0.56-1.83-0.56-2.99c0-0.97,0.17-1.88,0.5-2.75c0.33-0.87,0.81-1.64,1.44-2.31c0.63-0.67,1.41-1.2,2.34-1.6
			c0.93-0.39,2-0.59,3.22-0.59c1.49,0,2.71,0.23,3.68,0.7c0.97,0.46,1.73,1.06,2.3,1.79c0.56,0.73,0.96,1.53,1.18,2.42
			c0.22,0.89,0.34,1.76,0.34,2.62H281.97z"/>
		<path class="st0" d="M305.73,1045.48h-4.73v-2.09h-0.27c-0.27,0.43-0.62,0.81-1.05,1.13c-0.36,0.29-0.82,0.54-1.38,0.77
			c-0.56,0.22-1.25,0.34-2.05,0.34c-1,0-1.85-0.19-2.54-0.56c-0.69-0.38-1.26-0.89-1.71-1.54c-0.45-0.65-0.77-1.43-0.97-2.34
			c-0.2-0.9-0.3-1.89-0.3-2.97v-17.72h4.73v17.13c0,1.38,0.22,2.34,0.66,2.87c0.44,0.54,1.08,0.81,1.92,0.81
			c0.45,0,0.85-0.08,1.22-0.23c0.37-0.15,0.68-0.33,0.93-0.52c0.3-0.21,0.57-0.47,0.81-0.78v-19.28h4.73V1045.48z"/>
		<path class="st0" d="M320.37,1028.02c0-1.13-0.23-2.01-0.7-2.65c-0.47-0.63-1.15-0.95-2.07-0.95c-0.86,0-1.54,0.25-2.03,0.77
			c-0.49,0.51-0.74,1.1-0.74,1.76h-4.73c0-0.68,0.11-1.41,0.34-2.19c0.22-0.78,0.62-1.5,1.18-2.18c0.56-0.67,1.33-1.23,2.3-1.68
			s2.19-0.67,3.68-0.67c1.49,0,2.71,0.22,3.68,0.67s1.73,1.04,2.3,1.77c0.56,0.73,0.96,1.57,1.18,2.5c0.22,0.93,0.34,1.88,0.34,2.85
			v17.46h-4.73v-1.91h-0.27c-0.34,0.41-0.74,0.78-1.21,1.1c-0.41,0.27-0.92,0.51-1.52,0.74c-0.6,0.22-1.3,0.34-2.11,0.34
			c-0.59,0-1.2-0.09-1.81-0.28c-0.62-0.19-1.17-0.55-1.67-1.1c-0.49-0.55-0.9-1.31-1.21-2.3c-0.31-0.98-0.47-2.27-0.47-3.87
			c0-1.29,0.17-2.4,0.51-3.34c0.34-0.94,0.82-1.71,1.45-2.31c0.63-0.6,1.4-1.05,2.31-1.34c0.91-0.3,1.94-0.44,3.09-0.44h2.9V1028.02
			z M320.37,1034.6h-2.9c-0.57,0-1.03,0.1-1.38,0.3c-0.35,0.2-0.62,0.45-0.81,0.77c-0.19,0.31-0.31,0.67-0.36,1.07
			c-0.05,0.4-0.08,0.81-0.08,1.22c0,0.3,0.03,0.66,0.08,1.07s0.17,0.81,0.36,1.18c0.19,0.38,0.46,0.69,0.81,0.95
			c0.35,0.26,0.81,0.39,1.38,0.39c0.41,0,0.8-0.07,1.15-0.2c0.36-0.13,0.66-0.29,0.91-0.47c0.3-0.2,0.58-0.42,0.83-0.67V1034.6z"/>
		<path class="st0" d="M335.14,1039.22c0,0.2,0.02,0.4,0.05,0.62c0.04,0.21,0.11,0.41,0.21,0.59c0.11,0.18,0.25,0.32,0.42,0.43
			c0.17,0.11,0.39,0.16,0.66,0.16h1.42v4.46h-1.96c-0.25,0-0.56-0.01-0.93-0.03c-0.37-0.02-0.75-0.08-1.16-0.2
			c-0.4-0.12-0.81-0.3-1.22-0.55c-0.41-0.25-0.78-0.61-1.11-1.07c-0.33-0.46-0.6-1.06-0.81-1.77c-0.21-0.72-0.31-1.59-0.31-2.63
			v-28.73h4.73V1039.22z"/>
		<path class="st0" d="M370.64,1020.31h-4.73v-1.53c0-0.7-0.1-1.31-0.3-1.83c-0.2-0.52-0.47-0.95-0.82-1.29
			c-0.35-0.34-0.76-0.59-1.22-0.75c-0.47-0.16-0.97-0.24-1.5-0.24c-0.56,0-1.07,0.08-1.54,0.24c-0.47,0.16-0.89,0.41-1.24,0.75
			c-0.35,0.34-0.62,0.77-0.82,1.29c-0.2,0.52-0.3,1.13-0.3,1.83v2.42c0,0.47,0.05,0.9,0.15,1.29c0.1,0.39,0.3,0.77,0.62,1.13
			c0.31,0.36,0.76,0.7,1.34,1.02c0.58,0.32,1.36,0.65,2.32,0.99c1.29,0.45,2.43,0.88,3.42,1.29c0.99,0.41,1.83,0.97,2.51,1.66
			c0.68,0.7,1.2,1.62,1.56,2.77c0.36,1.15,0.54,2.67,0.54,4.57c0,1.65-0.21,3.09-0.62,4.32c-0.41,1.23-0.99,2.26-1.75,3.07
			s-1.66,1.42-2.73,1.83c-1.07,0.4-2.24,0.6-3.53,0.6c-1.33,0-2.52-0.23-3.59-0.68c-1.06-0.46-1.96-1.08-2.7-1.88
			c-0.73-0.8-1.3-1.72-1.69-2.78c-0.39-1.06-0.59-2.18-0.59-3.38v-1.37h4.73v1.53c0,0.7,0.1,1.31,0.3,1.83
			c0.2,0.52,0.47,0.95,0.82,1.29c0.35,0.34,0.76,0.59,1.22,0.75c0.47,0.16,0.97,0.24,1.5,0.24c0.55,0,1.07-0.08,1.54-0.24
			c0.47-0.16,0.89-0.41,1.24-0.75c0.35-0.34,0.62-0.77,0.82-1.29c0.2-0.52,0.3-1.13,0.3-1.83v-2.42c0-0.47-0.05-0.9-0.15-1.32
			c-0.1-0.41-0.3-0.8-0.6-1.17c-0.3-0.37-0.75-0.72-1.34-1.05s-1.37-0.66-2.34-0.98c-0.84-0.27-1.62-0.53-2.34-0.79
			c-0.72-0.26-1.37-0.55-1.97-0.89c-0.6-0.33-1.13-0.73-1.58-1.18c-0.46-0.46-0.85-1.02-1.17-1.68s-0.56-1.46-0.73-2.38
			s-0.24-2.02-0.24-3.29c0-1.65,0.21-3.09,0.62-4.32c0.41-1.24,0.99-2.26,1.75-3.08c0.75-0.81,1.66-1.42,2.73-1.83
			c1.07-0.4,2.24-0.6,3.53-0.6c1.32,0,2.52,0.23,3.57,0.7c1.06,0.46,1.96,1.09,2.7,1.88c0.74,0.79,1.31,1.71,1.71,2.77
			c0.39,1.06,0.59,2.18,0.59,3.38V1020.31z"/>
		<path class="st0" d="M383.43,1024.93h-3.46v14.29c0,0.2,0.02,0.4,0.05,0.62c0.04,0.21,0.11,0.41,0.21,0.59
			c0.11,0.18,0.25,0.32,0.42,0.43c0.17,0.11,0.39,0.16,0.66,0.16h2.12v4.46h-2.66c-0.25,0-0.56-0.01-0.93-0.03
			c-0.37-0.02-0.75-0.08-1.16-0.2c-0.4-0.12-0.81-0.3-1.22-0.55c-0.41-0.25-0.78-0.61-1.11-1.07c-0.33-0.46-0.6-1.06-0.81-1.77
			c-0.21-0.72-0.31-1.59-0.31-2.63v-14.29h-2.42v-4.46h2.42v-6.88h4.73v6.88h3.46V1024.93z"/>
		<path class="st0" d="M402.79,1045.48h-4.73v-2.09h-0.27c-0.27,0.43-0.62,0.81-1.05,1.13c-0.36,0.29-0.82,0.54-1.38,0.77
			c-0.56,0.22-1.25,0.34-2.05,0.34c-1,0-1.85-0.19-2.54-0.56c-0.69-0.38-1.26-0.89-1.71-1.54c-0.45-0.65-0.77-1.43-0.97-2.34
			c-0.2-0.9-0.3-1.89-0.3-2.97v-17.72h4.73v17.13c0,1.38,0.22,2.34,0.66,2.87c0.44,0.54,1.08,0.81,1.92,0.81
			c0.45,0,0.85-0.08,1.22-0.23c0.37-0.15,0.68-0.33,0.93-0.52c0.3-0.21,0.57-0.47,0.81-0.78v-19.28h4.73V1045.48z"/>
		<path class="st0" d="M417.16,1043.57c-0.34,0.41-0.74,0.78-1.21,1.1c-0.41,0.27-0.91,0.51-1.49,0.74c-0.58,0.22-1.25,0.34-2,0.34
			c-0.47,0-1-0.05-1.61-0.15c-0.61-0.1-1.19-0.39-1.73-0.89c-0.55-0.49-1.01-1.26-1.38-2.3s-0.56-2.49-0.56-4.35v-10.21
			c0-1.86,0.19-3.31,0.56-4.34c0.38-1.03,0.84-1.79,1.38-2.28c0.55-0.49,1.12-0.79,1.73-0.89c0.61-0.1,1.15-0.15,1.61-0.15
			c0.75,0,1.42,0.12,2,0.36c0.58,0.24,1.08,0.51,1.49,0.82c0.47,0.34,0.87,0.73,1.21,1.18h0.27v-12.08h4.73v34.99h-4.73v-1.91
			H417.16z M417.42,1026.17c-0.25-0.29-0.53-0.54-0.83-0.75c-0.25-0.2-0.56-0.37-0.91-0.52c-0.36-0.15-0.74-0.23-1.15-0.23
			c-0.57,0-1.03,0.11-1.38,0.33c-0.35,0.22-0.62,0.5-0.81,0.82c-0.19,0.32-0.31,0.67-0.36,1.05c-0.05,0.38-0.08,0.72-0.08,1.02
			v10.18c0,0.3,0.03,0.64,0.08,1.02s0.17,0.73,0.36,1.05c0.19,0.32,0.46,0.59,0.81,0.82c0.35,0.22,0.81,0.34,1.38,0.34
			c0.41,0,0.8-0.07,1.15-0.2c0.36-0.13,0.66-0.29,0.91-0.47c0.3-0.2,0.58-0.42,0.83-0.67V1026.17z"/>
		<path class="st0" d="M432.2,1015.21h-4.73v-4.73h4.73V1015.21z M432.2,1045.48h-4.73v-25h4.73V1045.48z"/>
		<path class="st0" d="M437.19,1028.26c0-0.97,0.11-1.93,0.33-2.89c0.22-0.96,0.62-1.82,1.18-2.58c0.56-0.76,1.33-1.38,2.3-1.87
			s2.19-0.73,3.68-0.73s2.71,0.24,3.68,0.73s1.73,1.11,2.3,1.87c0.56,0.76,0.96,1.62,1.18,2.58c0.22,0.96,0.33,1.92,0.33,2.89v9.43
			c0,0.97-0.11,1.93-0.33,2.89c-0.22,0.96-0.62,1.82-1.18,2.58c-0.56,0.76-1.33,1.38-2.3,1.87c-0.97,0.48-2.19,0.73-3.68,0.73
			s-2.71-0.24-3.68-0.73c-0.97-0.48-1.73-1.11-2.3-1.87c-0.56-0.76-0.96-1.62-1.18-2.58s-0.33-1.92-0.33-2.89V1028.26z
			 M447.45,1028.26c0-1.13-0.22-2.01-0.66-2.64c-0.44-0.64-1.14-0.95-2.11-0.95s-1.67,0.32-2.11,0.95
			c-0.44,0.63-0.66,1.52-0.66,2.64v9.43c0,1.13,0.22,2.01,0.66,2.65c0.44,0.63,1.14,0.95,2.11,0.95s1.67-0.32,2.11-0.95
			c0.44-0.64,0.66-1.52,0.66-2.65V1028.26z"/>
		<path class="st0" d="M479.27,1024.93h-3.46v20.54h-4.73v-20.54h-2.42v-4.46h2.42v-3.73c0-1.04,0.1-1.92,0.31-2.63
			c0.21-0.72,0.47-1.31,0.81-1.77s0.7-0.82,1.11-1.07c0.41-0.25,0.82-0.43,1.22-0.55c0.4-0.12,0.79-0.18,1.17-0.2
			c0.38-0.02,0.68-0.03,0.91-0.03h2.66v4.46h-2.12c-0.27,0-0.49,0.06-0.66,0.17s-0.31,0.26-0.42,0.43
			c-0.11,0.17-0.18,0.36-0.21,0.58s-0.05,0.42-0.05,0.62v3.73h3.46V1024.93z"/>
		<path class="st0" d="M483.01,1028.26c0-0.97,0.11-1.93,0.33-2.89c0.22-0.96,0.62-1.82,1.18-2.58c0.56-0.76,1.33-1.38,2.3-1.87
			s2.19-0.73,3.68-0.73s2.71,0.24,3.68,0.73s1.73,1.11,2.3,1.87c0.56,0.76,0.96,1.62,1.18,2.58c0.22,0.96,0.33,1.92,0.33,2.89v9.43
			c0,0.97-0.11,1.93-0.33,2.89c-0.22,0.96-0.62,1.82-1.18,2.58c-0.56,0.76-1.33,1.38-2.3,1.87c-0.97,0.48-2.19,0.73-3.68,0.73
			s-2.71-0.24-3.68-0.73c-0.97-0.48-1.73-1.11-2.3-1.87c-0.56-0.76-0.96-1.62-1.18-2.58s-0.33-1.92-0.33-2.89V1028.26z
			 M493.26,1028.26c0-1.13-0.22-2.01-0.66-2.64c-0.44-0.64-1.14-0.95-2.11-0.95s-1.67,0.32-2.11,0.95
			c-0.44,0.63-0.66,1.52-0.66,2.64v9.43c0,1.13,0.22,2.01,0.66,2.65c0.44,0.63,1.14,0.95,2.11,0.95s1.67-0.32,2.11-0.95
			c0.44-0.64,0.66-1.52,0.66-2.65V1028.26z"/>
		<path class="st0" d="M514.32,1024.72c-0.14,0-0.29-0.01-0.46-0.03c-0.14,0-0.29,0-0.43-0.01s-0.29-0.01-0.43-0.01
			c-0.77,0-1.46,0.09-2.07,0.28c-0.61,0.19-1.15,0.42-1.61,0.7c-0.47,0.28-0.86,0.57-1.18,0.87c-0.32,0.3-0.57,0.57-0.75,0.81v18.15
			h-4.73v-25h4.73v2.6h0.27c0.48-0.52,1.02-0.99,1.61-1.42c0.5-0.36,1.09-0.69,1.77-0.99c0.68-0.3,1.42-0.46,2.23-0.46
			c0.14,0,0.28,0,0.4,0.01c0.13,0.01,0.23,0.01,0.32,0.01c0.11,0.02,0.21,0.03,0.32,0.03V1024.72z"/>
		<path class="st0" d="M553.02,1045.48h-4.59v-21.27h-0.27l-5.32,15.84h-2.15l-5.32-15.84h-0.27v21.27h-4.59v-34.99h4.05l6.93,19.77
			h0.54l6.93-19.77h4.05V1045.48z"/>
		<path class="st0" d="M567.98,1028.02c0-1.13-0.23-2.01-0.7-2.65c-0.47-0.63-1.16-0.95-2.07-0.95c-0.86,0-1.54,0.25-2.03,0.77
			c-0.49,0.51-0.74,1.1-0.74,1.76h-4.73c0-0.68,0.11-1.41,0.34-2.19c0.22-0.78,0.62-1.5,1.18-2.18c0.56-0.67,1.33-1.23,2.3-1.68
			s2.19-0.67,3.68-0.67c1.49,0,2.71,0.22,3.68,0.67s1.73,1.04,2.3,1.77c0.56,0.73,0.96,1.57,1.18,2.5c0.22,0.93,0.34,1.88,0.34,2.85
			v17.46h-4.73v-1.91h-0.27c-0.34,0.41-0.74,0.78-1.21,1.1c-0.41,0.27-0.92,0.51-1.52,0.74c-0.6,0.22-1.3,0.34-2.11,0.34
			c-0.59,0-1.2-0.09-1.81-0.28c-0.62-0.19-1.17-0.55-1.67-1.1c-0.49-0.55-0.9-1.31-1.21-2.3s-0.47-2.27-0.47-3.87
			c0-1.29,0.17-2.4,0.51-3.34c0.34-0.94,0.82-1.71,1.45-2.31c0.63-0.6,1.4-1.05,2.31-1.34c0.91-0.3,1.94-0.44,3.09-0.44h2.9V1028.02
			z M567.98,1034.6h-2.9c-0.57,0-1.03,0.1-1.38,0.3c-0.35,0.2-0.62,0.45-0.81,0.77c-0.19,0.31-0.31,0.67-0.36,1.07
			c-0.05,0.4-0.08,0.81-0.08,1.22c0,0.3,0.03,0.66,0.08,1.07c0.05,0.41,0.17,0.81,0.36,1.18c0.19,0.38,0.46,0.69,0.81,0.95
			c0.35,0.26,0.81,0.39,1.38,0.39c0.41,0,0.8-0.07,1.15-0.2c0.36-0.13,0.66-0.29,0.91-0.47c0.3-0.2,0.58-0.42,0.83-0.67V1034.6z"/>
		<path class="st0" d="M581.81,1037.69c0,1.13,0.22,2.01,0.66,2.65c0.44,0.63,1.14,0.95,2.11,0.95s1.67-0.28,2.11-0.83
			s0.66-1.3,0.66-2.23h4.73c0,0.86-0.11,1.73-0.34,2.62c-0.22,0.89-0.62,1.69-1.18,2.42c-0.56,0.73-1.33,1.32-2.3,1.79
			c-0.97,0.47-2.19,0.7-3.68,0.7c-1.49,0-2.71-0.24-3.68-0.73c-0.97-0.48-1.73-1.11-2.3-1.87c-0.56-0.76-0.96-1.62-1.18-2.58
			c-0.22-0.96-0.34-1.92-0.34-2.89v-9.43c0-0.97,0.11-1.93,0.34-2.89c0.22-0.96,0.62-1.82,1.18-2.58c0.56-0.76,1.33-1.38,2.3-1.87
			s2.19-0.73,3.68-0.73c1.49,0,2.71,0.23,3.68,0.7c0.97,0.46,1.73,1.06,2.3,1.79c0.56,0.73,0.96,1.53,1.18,2.42
			c0.22,0.89,0.34,1.76,0.34,2.62h-4.73c0-0.93-0.22-1.67-0.66-2.23s-1.14-0.83-2.11-0.83s-1.67,0.32-2.11,0.95
			c-0.44,0.63-0.66,1.52-0.66,2.64V1037.69z"/>
		<path class="st0" d="M307.79,1100.33v26.14h-4.49v-58.53h11.95c1.56,0,3.11,0.22,4.65,0.67c1.54,0.45,2.92,1.28,4.13,2.49
			s2.19,2.87,2.94,4.96c0.75,2.1,1.12,4.81,1.12,8.13c0,2.37-0.24,4.42-0.72,6.15c-0.48,1.74-1.1,3.21-1.86,4.42
			s-1.62,2.19-2.56,2.94c-0.94,0.75-1.88,1.32-2.81,1.71l10.06,27.04h-5.08l-9.07-26.14H307.79z M314.8,1096.52
			c1.02,0,2.05-0.17,3.1-0.52c1.05-0.34,1.99-0.97,2.83-1.89c0.84-0.91,1.53-2.16,2.07-3.75c0.54-1.59,0.81-3.64,0.81-6.15
			s-0.26-4.57-0.79-6.15c-0.52-1.59-1.19-2.83-2-3.73s-1.71-1.51-2.7-1.84c-0.99-0.33-1.95-0.49-2.88-0.49h-7.46v24.53H314.8z"/>
		<path class="st0" d="M345.3,1122.88c0.96,0,1.83-0.19,2.61-0.58c0.78-0.39,1.44-0.94,2-1.64c0.55-0.7,0.98-1.55,1.28-2.54
			c0.3-0.99,0.45-2.1,0.45-3.32h4.49c0,1.29-0.17,2.64-0.49,4.07c-0.33,1.42-0.9,2.73-1.71,3.93c-0.81,1.2-1.91,2.19-3.3,2.96
			s-3.17,1.17-5.32,1.17c-2.22,0-4.02-0.4-5.41-1.21s-2.49-1.85-3.3-3.12c-0.81-1.27-1.36-2.71-1.66-4.31
			c-0.3-1.6-0.45-3.21-0.45-4.83v-15.77c0-1.62,0.15-3.23,0.45-4.83c0.3-1.6,0.85-3.04,1.66-4.31c0.81-1.27,1.91-2.31,3.3-3.12
			s3.2-1.21,5.41-1.21c2.22,0,4.03,0.4,5.44,1.21c1.41,0.81,2.51,1.86,3.3,3.14c0.79,1.29,1.34,2.73,1.64,4.33
			c0.3,1.6,0.45,3.2,0.45,4.78v9.43h-17.16v6.33c0,1.71,0.16,3.15,0.47,4.33c0.31,1.18,0.75,2.16,1.3,2.92
			c0.55,0.76,1.22,1.32,2,1.66C343.52,1122.71,344.38,1122.88,345.3,1122.88z M351.64,1097.68c0-2.96-0.52-5.28-1.55-6.94
			s-2.63-2.49-4.78-2.49c-2.22,0-3.83,0.83-4.83,2.49c-1,1.66-1.5,3.98-1.5,6.94v5.39h12.67V1097.68z"/>
		<path class="st0" d="M376.21,1088.7h-5.79v37.78h-4.49v-37.78h-4.04v-4.04h4.04v-6.24c0-2.28,0.22-4.1,0.65-5.48
			c0.43-1.38,1-2.44,1.68-3.19c0.69-0.75,1.48-1.24,2.38-1.46s1.8-0.34,2.7-0.34h2.88v4.04h-1.98c-1.17,0-2.1,0.39-2.79,1.17
			c-0.69,0.78-1.03,2.16-1.03,4.13v7.37h5.79V1088.7z"/>
		<path class="st0" d="M398.54,1088.34c-0.24,0-0.49-0.01-0.76-0.04c-0.24,0-0.48-0.01-0.72-0.02c-0.24-0.01-0.48-0.02-0.72-0.02
			c-1.29,0-2.44,0.18-3.46,0.54c-1.02,0.36-1.92,0.8-2.7,1.33c-0.78,0.52-1.44,1.06-1.98,1.62c-0.54,0.55-0.96,1.03-1.26,1.42v33.33
			h-4.49v-41.82h4.49v4.09h0.45c0.81-0.84,1.71-1.59,2.7-2.25c0.84-0.57,1.83-1.09,2.96-1.57c1.14-0.48,2.38-0.72,3.73-0.72
			c0.24,0,0.46,0.01,0.67,0.02c0.21,0.02,0.39,0.02,0.54,0.02c0.18,0.03,0.36,0.04,0.54,0.04V1088.34z"/>
		<path class="st0" d="M413.54,1122.88c0.96,0,1.83-0.19,2.61-0.58c0.78-0.39,1.44-0.94,2-1.64c0.55-0.7,0.98-1.55,1.28-2.54
			c0.3-0.99,0.45-2.1,0.45-3.32h4.49c0,1.29-0.17,2.64-0.49,4.07c-0.33,1.42-0.9,2.73-1.71,3.93c-0.81,1.2-1.91,2.19-3.3,2.96
			s-3.17,1.17-5.32,1.17c-2.22,0-4.02-0.4-5.41-1.21s-2.49-1.85-3.3-3.12c-0.81-1.27-1.36-2.71-1.66-4.31
			c-0.3-1.6-0.45-3.21-0.45-4.83v-15.77c0-1.62,0.15-3.23,0.45-4.83c0.3-1.6,0.85-3.04,1.66-4.31c0.81-1.27,1.91-2.31,3.3-3.12
			s3.2-1.21,5.41-1.21c2.22,0,4.03,0.4,5.44,1.21c1.41,0.81,2.51,1.86,3.3,3.14c0.79,1.29,1.34,2.73,1.64,4.33
			c0.3,1.6,0.45,3.2,0.45,4.78v9.43h-17.16v6.33c0,1.71,0.16,3.15,0.47,4.33c0.31,1.18,0.75,2.16,1.3,2.92
			c0.55,0.76,1.22,1.32,2,1.66C411.76,1122.71,412.61,1122.88,413.54,1122.88z M419.87,1097.68c0-2.96-0.52-5.28-1.55-6.94
			s-2.63-2.49-4.78-2.49c-2.22,0-3.83,0.83-4.83,2.49c-1,1.66-1.5,3.98-1.5,6.94v5.39h12.67V1097.68z"/>
		<path class="st0" d="M439.51,1107.34c-1.23-0.42-2.4-0.94-3.53-1.55c-1.12-0.61-2.12-1.39-2.99-2.34
			c-0.87-0.94-1.57-2.08-2.09-3.41c-0.52-1.33-0.79-2.94-0.79-4.83c0-1.62,0.23-3.1,0.7-4.45c0.46-1.35,1.15-2.51,2.07-3.48
			c0.91-0.97,2.04-1.73,3.39-2.27s2.9-0.81,4.67-0.81c2.19,0,3.98,0.39,5.39,1.17c1.41,0.78,2.52,1.77,3.32,2.99
			s1.36,2.56,1.66,4.04c0.3,1.48,0.45,2.94,0.45,4.38h-4.49c0-0.78-0.08-1.66-0.22-2.65c-0.15-0.99-0.46-1.92-0.92-2.79
			c-0.46-0.87-1.13-1.6-2-2.2c-0.87-0.6-2.02-0.9-3.46-0.9c-1.29,0-2.33,0.25-3.12,0.76c-0.79,0.51-1.41,1.13-1.84,1.86
			c-0.43,0.73-0.73,1.5-0.88,2.29c-0.15,0.79-0.22,1.48-0.22,2.04c0,0.96,0.1,1.83,0.29,2.63c0.19,0.79,0.57,1.54,1.12,2.25
			c0.55,0.7,1.33,1.36,2.34,1.98c1,0.61,2.33,1.21,3.98,1.77c1.23,0.42,2.41,0.93,3.55,1.53c1.14,0.6,2.14,1.36,3.01,2.27
			c0.87,0.91,1.56,2.04,2.09,3.39c0.52,1.35,0.79,2.98,0.79,4.9c0,1.62-0.23,3.1-0.7,4.45c-0.46,1.35-1.15,2.51-2.07,3.48
			c-0.91,0.97-2.04,1.73-3.39,2.27s-2.91,0.81-4.67,0.81c-2.19,0-3.98-0.39-5.39-1.17c-1.41-0.78-2.52-1.77-3.32-2.99
			s-1.36-2.56-1.66-4.04c-0.3-1.48-0.45-2.94-0.45-4.38h4.49c0,0.78,0.07,1.66,0.22,2.65c0.15,0.99,0.46,1.92,0.92,2.79
			c0.46,0.87,1.13,1.6,2,2.2c0.87,0.6,2.02,0.9,3.46,0.9c1.29,0,2.33-0.25,3.12-0.76c0.79-0.51,1.41-1.13,1.84-1.86
			c0.43-0.73,0.73-1.5,0.88-2.29c0.15-0.79,0.22-1.47,0.22-2.04c0-0.93-0.11-1.8-0.31-2.61c-0.21-0.81-0.61-1.56-1.19-2.25
			c-0.58-0.69-1.38-1.34-2.38-1.95C442.39,1108.5,441.09,1107.91,439.51,1107.34z"/>
		<path class="st0" d="M458.55,1067.95h4.49v20.39h0.45c0.81-0.72,1.68-1.36,2.61-1.93c0.78-0.51,1.68-0.97,2.72-1.37
			s2.12-0.61,3.26-0.61c1.89,0,3.37,0.34,4.45,1.03c1.08,0.69,1.89,1.55,2.45,2.58c0.55,1.03,0.9,2.15,1.03,3.35
			c0.13,1.2,0.2,2.32,0.2,3.37v31.71h-4.49v-31.62c0-2.07-0.4-3.65-1.19-4.74c-0.79-1.09-1.85-1.64-3.17-1.64
			c-1.14,0-2.22,0.22-3.23,0.67c-1.02,0.45-1.9,0.94-2.65,1.48c-0.9,0.63-1.71,1.33-2.43,2.11v33.74h-4.49V1067.95z"/>
		<path class="st0" d="M488.02,1097.23c0-2.31,0.15-4.55,0.45-6.74c0.3-2.19,0.7-4.28,1.19-6.29c0.49-2.01,1.06-3.9,1.68-5.68
			c0.63-1.78,1.27-3.42,1.93-4.92c1.56-3.53,3.32-6.77,5.3-9.7h2.56c-1.59,3.08-3,6.42-4.22,10.02c-0.54,1.53-1.06,3.18-1.55,4.96
			c-0.49,1.78-0.94,3.66-1.33,5.64c-0.39,1.98-0.7,4.04-0.94,6.18c-0.24,2.14-0.36,4.32-0.36,6.54c0,2.22,0.12,4.4,0.36,6.54
			c0.24,2.14,0.55,4.2,0.94,6.18c0.39,1.98,0.83,3.86,1.33,5.64c0.49,1.78,1.01,3.44,1.55,4.96c1.23,3.59,2.63,6.92,4.22,9.97h-2.56
			c-1.98-2.94-3.74-6.17-5.3-9.7c-0.66-1.5-1.3-3.14-1.93-4.92c-0.63-1.78-1.19-3.67-1.68-5.66c-0.49-1.99-0.89-4.07-1.19-6.24
			C488.17,1101.82,488.02,1099.57,488.02,1097.23z"/>
		<path class="st0" d="M519.47,1097.23c0,2.34-0.15,4.59-0.45,6.76c-0.3,2.17-0.7,4.25-1.19,6.24c-0.49,1.99-1.06,3.88-1.71,5.66
			c-0.64,1.78-1.3,3.42-1.95,4.92c-1.56,3.53-3.31,6.77-5.26,9.7h-2.56c1.56-3.05,2.95-6.38,4.18-9.97
			c0.54-1.53,1.06-3.18,1.55-4.96c0.49-1.78,0.94-3.66,1.35-5.64s0.73-4.04,0.97-6.18c0.24-2.14,0.36-4.32,0.36-6.54
			c0-2.22-0.12-4.39-0.36-6.54c-0.24-2.14-0.56-4.2-0.97-6.18s-0.85-3.86-1.35-5.64c-0.49-1.78-1.01-3.44-1.55-4.96
			c-1.23-3.59-2.62-6.93-4.18-10.02h2.56c1.95,2.94,3.7,6.17,5.26,9.7c0.66,1.5,1.31,3.14,1.95,4.92c0.64,1.78,1.21,3.68,1.71,5.68
			c0.49,2.01,0.89,4.1,1.19,6.29C519.32,1092.68,519.47,1094.93,519.47,1097.23z"/>
		<path class="st0" d="M531.28,1089.15h-4.54v-4.49h4.54V1089.15z M531.24,1126.93l-4.04,4.04h-0.45v-8.98h4.49V1126.93z"/>
	</g>
	<g>
		<g>
			<path class="st2" d="M418.48,481.67c1.67-0.62,3.54-0.52,5.12,0.28l8.12,4.06c2.06,1.03,3.36,3.08,3.36,5.31V518
				c0,2.23-1.29,4.28-3.36,5.31l-8.12,4.06c-1.59,0.79-3.45,0.89-5.12,0.28l-23.06-8.53c-2.41-0.89-4-3.11-4-5.59v-17.73
				c0-2.48,1.59-4.7,4-5.59L418.48,481.67z"/>
		</g>
		<path class="st6" d="M430.79,487.87l-8.12-4.06c-1.07-0.54-2.34-0.61-3.47-0.19l-23.06,8.53c-1.63,0.6-2.64,2.07-2.64,3.64v17.73
			c0,1.57,1.01,3.04,2.64,3.64l23.06,8.53c1.13,0.42,2.4,0.35,3.47-0.19l8.12-4.06c1.39-0.69,2.21-2.04,2.21-3.45v-26.67
			C433,489.91,432.18,488.56,430.79,487.87z M423.6,481.95c-1.59-0.79-3.45-0.89-5.12-0.28l-23.06,8.53c-2.41,0.89-4,3.11-4,5.59
			v17.73c0,2.48,1.59,4.7,4,5.59l23.06,8.53c1.67,0.62,3.54,0.52,5.12-0.28l8.12-4.06c2.06-1.03,3.36-3.08,3.36-5.31v-26.67
			c0-2.23-1.29-4.28-3.36-5.31L423.6,481.95z"/>
		<path class="st7" d="M401.99,513.49c-0.36,0.32-0.86,0.4-1.29,0.21l-2.27-0.98c-0.47-0.2-0.77-0.67-0.77-1.19v-13.75
			c0-0.52,0.3-0.99,0.77-1.19l2.27-0.98c0.44-0.19,0.94-0.11,1.29,0.21l0.51,0.45c-0.46-0.34-1.09,0-1.09,0.58v15.6
			c0,0.58,0.64,0.92,1.09,0.58L401.99,513.49z"/>
		<g>
			<path class="st8" d="M398.46,512.72c-0.48-0.2-0.8-0.68-0.8-1.2v-0.11c0,0.69,0.85,1.01,1.31,0.5l20.13-22.27
				c0.58-0.58,1.47-0.74,2.22-0.38l6.43,3.09c0.67,0.32,1.1,1.01,1.1,1.76v0.07c0-1.04-1.21-1.61-2.01-0.95l-24.14,19.8l-0.53,0.45
				c-0.37,0.32-0.89,0.4-1.35,0.21L398.46,512.72z"/>
		</g>
		<g>
			<path class="st9" d="M398.46,496.6c-0.48,0.2-0.8,0.68-0.8,1.2v0.11c0-0.69,0.85-1.01,1.31-0.5l20.13,22.27
				c0.58,0.58,1.47,0.73,2.22,0.38l6.43-3.09c0.67-0.32,1.1-1.01,1.1-1.76v-0.07c0,1.04-1.21,1.61-2.01,0.95l-24.14-19.8l-0.53-0.45
				c-0.37-0.32-0.89-0.4-1.35-0.21L398.46,496.6z"/>
		</g>
		<g>
			<path class="st10" d="M421.37,520.06c-0.74,0.36-1.62,0.21-2.2-0.38c0.71,0.72,1.94,0.21,1.94-0.81v-28.42
				c0-1.02-1.22-1.53-1.94-0.81c0.58-0.59,1.46-0.74,2.2-0.38l6.38,3.11c0.67,0.33,1.1,1.01,1.1,1.77v21.06
				c0,0.75-0.43,1.44-1.1,1.77L421.37,520.06z"/>
		</g>
	</g>
</g>
</svg>
