<?xml version="1.0" encoding="utf-8"?>
<!-- Generator: Adobe Illustrator 23.1.1, SVG Export Plug-In . SVG Version: 6.00 Build 0)  -->
<svg version="1.1" id="Layer_1" xmlns="http://www.w3.org/2000/svg" xmlns:xlink="http://www.w3.org/1999/xlink" x="0px" y="0px"
	 viewBox="0 0 1920 1080" style="enable-background:new 0 0 1920 1080;" xml:space="preserve">
<style type="text/css">
	.st0{fill:#FFFFFF;}
	.st1{fill:#EEEAFF;}
	.st2{fill:#D3C8FF;}
	.st3{fill:#8C6BC2;}
	.st4{fill:#FFB900;}
	.st5{fill:#9E83E3;}
	.st6{fill:#FFD055;}
	.st7{fill:#FFE8AA;}
	.st8{fill:#B5A0F3;}
	.st9{fill:#DED5FF;}
	.st10{fill:#712D8D;}
	.st11{fill:#AE7EC1;}
	.st12{fill:#EFE0EF;}
	.st13{fill:#9251A8;}
	.st14{fill:#A874BB;}
	.st15{fill:none;stroke:#712D8D;stroke-miterlimit:10;}
	.st16{fill:#5F247B;}
	.st17{fill-rule:evenodd;clip-rule:evenodd;fill:#854CC7;}
	.st18{fill:#52218A;}
	.st19{fill:#6C33AF;}
	.st20{fill:#854CC7;}
	.st21{fill:#B179F1;}
</style>
<g>
	<rect x="-0.63" y="0.82" class="st0" width="1920" height="1079.97"/>
	<g>
		<path class="st1" d="M2.37,137.72h544.97c3.31,0,6.01-2.69,6.01-6c0-3.31-2.69-6-6.01-6H2.37c-1.66,0-3,1.34-3,3v6
			C-0.63,136.37,0.72,137.72,2.37,137.72z"/>
		<path class="st1" d="M421.7,237.18c0-3.31-2.69-6-6.01-6H2.37c-1.66,0-3,1.34-3,3v6c0,1.66,1.34,3,3,3H415.7
			C419.01,243.18,421.7,240.49,421.7,237.18z"/>
		<path class="st1" d="M2.35,190.49l674.78,4.67c3.29,0,5.98-2.67,6.01-5.96c0.01-1.6-0.6-3.12-1.73-4.26
			c-1.13-1.14-2.63-1.78-4.23-1.79h0L2.4,178.49c-0.01,0-0.01,0-0.02,0c-0.79,0-1.55,0.31-2.12,0.87c-0.57,0.56-0.89,1.33-0.89,2.13
			v6C-0.63,189.14,0.7,190.48,2.35,190.49z"/>
		<path class="st1" d="M337.23,289.91c0,3.31,2.69,6,6.01,6h359.85c3.31,0,6.01-2.69,6.01-6c0-3.31-2.69-6-6.01-6H343.23
			C339.92,283.91,337.23,286.6,337.23,289.91z"/>
		<path class="st1" d="M310.01,295.91c3.31,0,6.01-2.69,6.01-6c0-3.31-2.69-6-6.01-6h-82.15c-3.31,0-6.01,2.69-6.01,6
			c0,3.31,2.69,6,6.01,6H310.01z"/>
		<path class="st1" d="M194.64,283.91H45.57c-3.31,0-6.01,2.69-6.01,6c0,3.31,2.69,6,6.01,6h149.07c3.31,0,6.01-2.69,6.01-6
			C200.65,286.6,197.95,283.91,194.64,283.91z"/>
		<path class="st1" d="M461.46,342.64c0,3.31,2.69,6,6.01,6h267.15c3.31,0,6.01-2.69,6.01-6c0-3.31-2.69-6-6.01-6H467.46
			C464.15,336.64,461.46,339.33,461.46,342.64z"/>
		<path class="st1" d="M197.25,342.64c0,3.31,2.69,6,6.01,6h230.98c3.31,0,6.01-2.69,6.01-6c0-3.31-2.69-6-6.01-6H203.26
			C199.94,336.64,197.25,339.33,197.25,342.64z"/>
		<path class="st1" d="M45.57,348.64h124.47c3.31,0,6.01-2.69,6.01-6c0-3.31-2.69-6-6.01-6H45.57c-3.31,0-6.01,2.69-6.01,6
			C39.56,345.95,42.26,348.64,45.57,348.64z"/>
		<path class="st1" d="M842.02,454.1h251.84c3.31,0,6.01-2.69,6.01-6s-2.69-6-6.01-6H842.02c-3.31,0-6.01,2.69-6.01,6
			S838.71,454.1,842.02,454.1z"/>
		<path class="st1" d="M622.69,448.1c0,3.31,2.69,6,6.01,6h180.11c3.31,0,6.01-2.69,6.01-6s-2.69-6-6.01-6H628.69
			C625.38,442.1,622.69,444.79,622.69,448.1z"/>
		<path class="st1" d="M595.47,442.1H352.61c-3.31,0-6.01,2.69-6.01,6s2.69,6,6.01,6h242.86c3.31,0,6.01-2.69,6.01-6
			S598.78,442.1,595.47,442.1z"/>
		<path class="st1" d="M325.4,448.1c0-3.31-2.69-6-6.01-6H200.67c-3.31,0-6.01,2.69-6.01,6s2.69,6,6.01,6h118.72
			C322.71,454.1,325.4,451.41,325.4,448.1z"/>
		<path class="st1" d="M45.57,454.1h121.88c3.31,0,6.01-2.69,6.01-6s-2.69-6-6.01-6H45.57c-3.31,0-6.01,2.69-6.01,6
			S42.26,454.1,45.57,454.1z"/>
		<path class="st1" d="M698.84,500.83c0,3.31,2.69,6,6.01,6h124.14c3.31,0,6.01-2.69,6.01-6s-2.69-6-6.01-6H704.84
			C701.53,494.83,698.84,497.52,698.84,500.83z"/>
		<path class="st1" d="M677.63,500.83c0-3.31-2.69-6-6.01-6H405.76c-3.31,0-6.01,2.69-6.01,6s2.69,6,6.01,6h265.86
			C674.94,506.83,677.63,504.14,677.63,500.83z"/>
		<path class="st1" d="M283.22,506.83h89.32c3.31,0,6.01-2.69,6.01-6s-2.69-6-6.01-6h-89.32c-3.31,0-6.01,2.69-6.01,6
			S279.91,506.83,283.22,506.83z"/>
		<path class="st1" d="M145.23,506.83H250c3.31,0,6.01-2.69,6.01-6s-2.69-6-6.01-6H145.23c-3.31,0-6.01,2.69-6.01,6
			S141.92,506.83,145.23,506.83z"/>
		<path class="st1" d="M1234.61,600.29H863.18c-3.31,0-6.01,2.69-6.01,6s2.69,6,6.01,6h371.42c3.31,0,6.01-2.69,6.01-6
			S1237.92,600.29,1234.61,600.29z"/>
		<path class="st1" d="M829.96,600.29h-181.1c-3.31,0-6.01,2.69-6.01,6s2.69,6,6.01,6h181.1c3.31,0,6.01-2.69,6.01-6
			S833.28,600.29,829.96,600.29z"/>
		<path class="st1" d="M621.65,606.29c0-3.31-2.69-6-6.01-6H379.8c-3.31,0-6.01,2.69-6.01,6s2.69,6,6.01,6h235.84
			C618.96,612.29,621.65,609.6,621.65,606.29z"/>
		<path class="st1" d="M232.66,612.29h113.92c3.31,0,6.01-2.69,6.01-6s-2.69-6-6.01-6H232.66c-3.31,0-6.01,2.69-6.01,6
			S229.35,612.29,232.66,612.29z"/>
		<path class="st1" d="M205.45,606.29c0-3.31-2.69-6-6.01-6H45.57c-3.31,0-6.01,2.69-6.01,6s2.69,6,6.01,6h153.87
			C202.75,612.29,205.45,609.6,205.45,606.29z"/>
		<path class="st1" d="M1114.7,653.02H919.16c-3.31,0-6.01,2.69-6.01,6s2.69,6,6.01,6h195.54c3.31,0,6.01-2.69,6.01-6
			S1118.02,653.02,1114.7,653.02z"/>
		<path class="st1" d="M885.94,653.02H532.11c-3.31,0-6.01,2.69-6.01,6s2.69,6,6.01,6h353.83c3.31,0,6.01-2.69,6.01-6
			S889.25,653.02,885.94,653.02z"/>
		<path class="st1" d="M498.89,653.02H359.38c-3.31,0-6.01,2.69-6.01,6s2.69,6,6.01,6h139.51c3.31,0,6.01-2.69,6.01-6
			S502.2,653.02,498.89,653.02z"/>
		<path class="st1" d="M332.16,659.02c0-3.31-2.69-6-6.01-6H145.23c-3.31,0-6.01,2.69-6.01,6s2.69,6,6.01,6h180.93
			C329.47,665.03,332.16,662.33,332.16,659.02z"/>
		<path class="st1" d="M847.71,758.48H436.15c-3.31,0-6.01,2.69-6.01,6c0,3.31,2.69,6,6.01,6h411.56c3.31,0,6.01-2.69,6.01-6
			C853.71,761.17,851.02,758.48,847.71,758.48z"/>
		<path class="st1" d="M288.71,764.48c0,3.31,2.69,6,6.01,6h108.21c3.31,0,6.01-2.69,6.01-6c0-3.31-2.69-6-6.01-6H294.72
			C291.41,758.48,288.71,761.17,288.71,764.48z"/>
		<path class="st1" d="M456.97,817.22c0,3.31,2.69,6,6.01,6h419.77c3.31,0,6.01-2.69,6.01-6c0-3.31-2.69-6-6.01-6H462.97
			C459.66,811.21,456.97,813.91,456.97,817.22z"/>
		<path class="st1" d="M294.72,823.22h135.03c3.31,0,6.01-2.69,6.01-6c0-3.31-2.69-6-6.01-6H294.72c-3.31,0-6.01,2.69-6.01,6
			C288.71,820.53,291.41,823.22,294.72,823.22z"/>
		<path class="st1" d="M294.72,875.95h705.03c3.31,0,6.01-2.69,6.01-6c0-3.31-2.69-6-6.01-6H294.72c-3.31,0-6.01,2.69-6.01,6
			C288.71,873.26,291.41,875.95,294.72,875.95z"/>
		<path class="st1" d="M1073.07,916.68H548.11c-3.31,0-6.01,2.69-6.01,6s2.69,6,6.01,6h524.97c3.31,0,6.01-2.69,6.01-6
			S1076.38,916.68,1073.07,916.68z"/>
		<path class="st1" d="M520.89,922.68c0-3.31-2.69-6-6.01-6H294.72c-3.31,0-6.01,2.69-6.01,6s2.69,6,6.01,6h220.17
			C518.2,928.68,520.89,925.99,520.89,922.68z"/>
		<path class="st1" d="M1026.69,969.41H590.92c-3.31,0-6.01,2.69-6.01,6s2.69,6,6.01,6h435.77c3.31,0,6.01-2.69,6.01-6
			S1030,969.41,1026.69,969.41z"/>
		<path class="st1" d="M438.2,975.41c0,3.31,2.69,6,6.01,6h113.5c3.31,0,6.01-2.69,6.01-6s-2.69-6-6.01-6h-113.5
			C440.9,969.41,438.2,972.1,438.2,975.41z"/>
		<path class="st1" d="M772.02,1022.14H444.21c-3.31,0-6.01,2.69-6.01,6s2.69,6,6.01,6h327.81c3.31,0,6.01-2.69,6.01-6
			S775.33,1022.14,772.02,1022.14z"/>
	</g>
	<path class="st2" d="M635.4,1080.79h1283.97V950.38c-10.89-8.3-24.11-13.78-38.61-15.27c3.41-6.39,5.52-13.6,5.94-21.3
		c1.54-28.28-20.14-52.45-48.43-53.99c-12.95-0.71-25.04,3.46-34.49,10.89c-3.24-42.42-37.5-76.9-81.15-79.28
		c-34.92-1.91-66.1,17.28-81.2,46.43c-7-3.85-14.96-6.23-23.48-6.7c-4.96-0.27-9.79,0.14-14.42,1.12c1.92-6.13,3.13-12.6,3.49-19.32
		c2.37-43.42-30.93-80.55-74.38-82.92c-8.4-0.46-16.56,0.43-24.28,2.45c-8.64-19.5-27.65-33.58-50.43-34.82
		c-7.4-0.4-14.54,0.59-21.19,2.74c-9.88-26.45-34.67-45.91-64.68-47.55c-40.42-2.21-74.97,28.75-77.18,69.15
		c-0.41,7.57,0.34,14.93,2.1,21.92c-19.88,4.09-35.32,21.13-36.47,42.35c-0.22,4.03,0.12,7.95,0.89,11.72
		c-0.27,0.15-0.54,0.3-0.81,0.45c-5.39-1.72-11.07-2.82-16.99-3.14c-27.52-1.5-52.07,13.62-63.94,36.61
		c-8.1-1.18-19.18-2.88-31.8-4.85c2.1-7.88,3.23-16.14,3.23-24.68c0-52.85-42.87-95.7-95.75-95.7c-49.5,0-90.23,37.55-95.23,85.71
		c-3.53-0.67-7.14-1.14-10.82-1.34c-44.46-2.43-82.47,31.63-84.9,76.06c-0.3,5.4-0.02,10.69,0.72,15.84
		c-19.66,8-35.72,22.99-45.08,41.89c-7.33-3.77-15.55-6.11-24.32-6.59c-32.33-1.76-60.11,22.19-63.43,54.03
		c-4.63-1.52-9.53-2.47-14.63-2.75c-31.32-1.71-58.1,22.28-59.81,53.59c-0.67,12.22,2.6,23.75,8.68,33.37
		C654.18,1061.83,643.49,1070.26,635.4,1080.79z"/>
	<path class="st0" d="M1855.75,1073.79c0-25.9-21.01-46.9-46.92-46.9c-1.87,0-3.71,0.12-5.53,0.33
		c-6.41-44.38-44.57-78.48-90.7-78.48c-18.08,0-34.93,5.25-49.13,14.29c-11.16-28.88-39.16-49.38-71.97-49.38
		c-2.2,0-4.38,0.12-6.54,0.3c0.03-0.8,0.06-1.59,0.06-2.4c0-31.94-25.91-57.83-57.86-57.83c-16.93,0-32.17,7.27-42.75,18.86
		c-8.64-27.62-34.44-47.66-64.92-47.66c-8.74,0-17.09,1.67-24.77,4.67c1.71-6.29,2.65-12.89,2.65-19.72
		c0-41.48-33.61-75.1-75.06-75.1c-38.65,0-70.46,29.23-74.59,66.8c-9.93-3.66-20.67-5.67-31.88-5.67
		c-30.28,0-57.14,14.6-73.95,37.15c-8.28-21.81-29.35-37.32-54.05-37.32c-31.93,0-57.82,25.9-57.82,57.85
		c0,8.7,1.93,16.94,5.37,24.34c-0.68-0.05-1.37-0.1-2.06-0.1c-8.23,0-15.69,3.3-21.15,8.64c-14.95-8.09-32.07-12.69-50.26-12.69
		c-58.4,0-105.75,47.37-105.75,105.8c0,8.29,0.98,16.34,2.78,24.07c-25.77,5.83-45.02,28.86-45.02,56.41
		c0,7.32,1.38,14.3,3.85,20.74h977.5c0-0.01,0.01-0.02,0.01-0.03h59.92C1855.57,1078.5,1855.75,1076.17,1855.75,1073.79z"/>
	<polygon class="st3" points="1310.24,470.97 1182.24,470.97 1167.74,437.82 1324.27,439 	"/>
	<path class="st4" d="M1306.88,449.2h-120.45c-11.92,0-21.57-9.66-21.57-21.57V231.74c0-11.78,9.55-21.33,21.33-21.33h120.69
		c11.92,0,21.57,9.66,21.57,21.57v195.64C1328.45,439.54,1318.79,449.2,1306.88,449.2z"/>
	<path class="st3" d="M1168.27,219.8l70.81-99.03c2.38-3.32,10.04-3.29,12.48,0l72.63,98.4L1168.27,219.8z"/>
	<rect x="1181.79" y="470.97" class="st4" width="128.43" height="389.5"/>
	<rect x="1179.78" y="815.72" class="st4" width="134.33" height="56.35"/>
	<path class="st5" d="M1622.68,949.89h-205.95c-3.96,0-7.18,3.21-7.18,7.18v27.58c0,3.96,3.21,7.18,7.18,7.18h205.95
		c3.96,0,7.18-3.21,7.18-7.18v-27.58C1629.86,953.11,1626.64,949.89,1622.68,949.89z"/>
	<polygon class="st5" points="1191.33,977.88 1118.52,977.88 1135.1,916.82 1174.75,916.82 	"/>
	<polygon class="st5" points="1373.5,977.88 1300.68,977.88 1317.26,916.82 1356.91,916.82 	"/>
	<polygon class="st5" points="1282.28,977.88 1209.47,977.88 1226.05,916.82 1265.7,916.82 	"/>
	<path class="st6" d="M1126.23,928.43h56.87V626.77l-51.7,41.73c-3.27,2.64-5.17,6.61-5.17,10.81V928.43z"/>
	<path class="st6" d="M1365.52,928.43h-56.87V626.77l49.21,39.72c4.84,3.91,7.66,9.8,7.66,16.02V928.43z"/>
	<path class="st6" d="M1274.31,678.73c0-3.63-1-7.19-2.88-10.29l-22.44-36.94c-1.31-2.16-4.45-2.18-5.78-0.02l-22.44,36.32
		c-2.17,3.52-3.32,7.57-3.32,11.7l-0.07,248.81h56.93L1274.31,678.73z"/>
	<rect x="1308.65" y="882.29" class="st3" width="56.87" height="46.14"/>
	<polygon class="st3" points="1217.38,882.29 1217.37,928.31 1274.29,928.31 1274.3,882.29 	"/>
	<rect x="1126.23" y="882.29" class="st3" width="56.87" height="46.14"/>
	<g>
		<rect x="1126.23" y="817.65" class="st7" width="56.87" height="3.31"/>
		<rect x="1126.23" y="691.68" class="st7" width="56.87" height="3.31"/>
		<rect x="1126.23" y="754.66" class="st7" width="56.87" height="3.31"/>
	</g>
	<g>
		<rect x="1217.4" y="817.65" class="st7" width="56.9" height="3.31"/>
		<rect x="1217.42" y="754.66" class="st7" width="56.88" height="3.31"/>
		<rect x="1217.44" y="691.68" class="st7" width="56.87" height="3.31"/>
	</g>
	<g>
		<rect x="1308.65" y="817.65" class="st7" width="56.87" height="3.31"/>
		<rect x="1308.65" y="754.66" class="st7" width="56.87" height="3.31"/>
		<rect x="1308.65" y="691.68" class="st7" width="56.87" height="3.31"/>
	</g>
	<g>
		<path class="st7" d="M1270.8,608.42c0,0.89-0.32,1.65-0.96,2.28c-0.64,0.63-1.4,0.94-2.29,0.94s-1.66-0.32-2.31-0.94
			c-0.65-0.63-0.97-1.39-0.97-2.28c0-0.91,0.32-1.68,0.97-2.32c0.65-0.64,1.42-0.96,2.31-0.96s1.66,0.32,2.29,0.96
			C1270.48,606.74,1270.8,607.51,1270.8,608.42z"/>
		<path class="st7" d="M1270.16,562.97v5.98l-33.21,21.43c-0.83,0.54-1.71,0.99-2.62,1.34v0.17c0.89-0.15,2.8-0.23,5.72-0.23h30.1
			v4.88h-41.67v-6.33l32.69-20.85c1.36-0.87,2.29-1.43,2.79-1.68v-0.12c-1.2,0.19-3.24,0.29-6.13,0.29h-29.35v-4.88H1270.16z"/>
		<path class="st7" d="M1270.16,529.98v22.07h-41.67v-21.14h4.42v16.26h13.86v-15.04h4.39v15.04h14.59v-17.19H1270.16z"/>
		<path class="st7" d="M1232.91,497.22v12.02h37.25v4.88h-37.25v11.99h-4.42v-28.89H1232.91z"/>
	</g>
	<g>
		<g>
			<g>
				<path class="st7" d="M1281.92,318.06c-0.01-2.04-1.69-3.67-3.72-3.68l-60.67,0.36c-0.99,0.01-1.92,0.4-2.61,1.1
					c-0.7,0.7-1.08,1.64-1.07,2.62l0.2,38.29c0,0.79,0.32,1.54,0.88,2.1c0.56,0.55,1.3,0.86,2.08,0.86c0.01,0,0.01,0,0.02,0
					l23.61-0.14v7.89h-6.49c-1.6,0-2.9,1.3-2.9,2.9s1.3,2.9,2.9,2.9h28.17c1.6,0,2.9-1.3,2.9-2.9s-1.3-2.9-2.9-2.9h-6.49v-7.98
					l23.34-0.14c1.63-0.01,2.96-1.34,2.95-2.98L1281.92,318.06z"/>
				<path class="st7" d="M1271.95,399.34c-0.99-3.11-3.84-5.2-7.11-5.2h-5.15c-1.35,0-2.53,0.86-2.93,2.15l-16.35-0.01
					c-0.5-1.19-1.99-2.13-3.4-2.13h-4.47c-3.27,0-6.12,2.09-7.11,5.2l-6.87,21.64c-1.24,3.92,0.93,8.12,4.85,9.36
					c0.73,0.23,1.49,0.35,2.26,0.35c2.24,0,4.65-1.26,6.08-3.15l7.25-7.96c0.48-0.53,1.16-0.83,1.88-0.83h15.63
					c0.71,0,1.4,0.3,1.88,0.83l7.27,7.97c1.43,1.46,3.41,3.14,6.06,3.14c0.77,0,1.53-0.12,2.26-0.35c3.92-1.24,6.1-5.44,4.85-9.36
					L1271.95,399.34z"/>
				<path class="st7" d="M1235.12,291.59c0.84,0.83,1.94,1.28,3.12,1.28c0.01,0,0.01,0,0.02,0l20.11-0.07
					c2.44-0.01,4.41-2,4.41-4.44l-0.15-47.96c0-1.18-0.47-2.29-1.31-3.12c-0.84-0.83-1.95-1.21-3.13-1.29l-20.11,0.07
					c-2.44,0.01-4.41,2-4.41,4.44l0.15,47.97C1233.82,289.65,1234.28,290.76,1235.12,291.59z"/>
			</g>
			<path class="st4" d="M1258.6,241.47c0-0.25-0.18-0.45-0.4-0.44l-3.1,0.01l-0.97,2.46c-0.15,0.39-0.5,0.64-0.88,0.64h-10.01
				c-0.4,0-0.76-0.28-0.9-0.69l-0.8-2.35l-3.28,0.01c-0.22,0-0.4,0.2-0.4,0.45l0.26,45.64c0,0.24,0.18,0.44,0.4,0.44l19.74,0.29
				c0.22,0,0.41-0.2,0.41-0.45L1258.6,241.47z"/>
		</g>
		<polygon class="st4" points="1277.37,354.54 1218.91,354.89 1218.66,319.41 1277.12,319.06 		"/>
		<g>
			<ellipse class="st4" cx="1234.6" cy="403.83" rx="5.15" ry="5.15"/>
			<ellipse class="st4" cx="1262.95" cy="403.83" rx="5.15" ry="5.15"/>
			<path class="st4" d="M1253.92,404.6h-10.63c-0.29,0-0.53-0.24-0.53-0.53v-2.03c0-0.29,0.24-0.53,0.53-0.53h10.63
				c0.29,0,0.53,0.24,0.53,0.53v2.03C1254.45,404.36,1254.21,404.6,1253.92,404.6z"/>
			<circle class="st4" cx="1241.22" cy="413.01" r="2.4"/>
			<circle class="st4" cx="1256.51" cy="413.01" r="2.4"/>
		</g>
	</g>
	<path class="st8" d="M1005.73,975.58c-4.11,0-7.84,2.41-9.53,6.15l-44.65,99.01h790.28l-44.65-99.01
		c-1.69-3.75-5.42-6.16-9.53-6.16H1005.73z"/>
	<polygon class="st5" points="1400.69,406.65 1386.38,388.61 1435.67,388.61 1435.67,379.75 1317.19,379.75 1317.19,370.26 
		1308.32,370.26 1308.32,398.3 1317.19,398.3 1317.19,388.61 1375.06,388.61 1396.41,415.52 1437.52,415.52 1437.52,406.65 	"/>
	<polygon class="st5" points="1400.69,561.79 1386.38,543.75 1435.67,543.75 1435.67,534.88 1317.19,534.88 1317.19,525.4 
		1308.32,525.4 1308.32,553.44 1317.19,553.44 1317.19,543.75 1375.06,543.75 1396.41,570.65 1437.52,570.65 1437.52,561.79 	"/>
	<path class="st5" d="M1524.69,559.34v-227.6l-83.37-83.32h-7.19v712.85l172.24-0.48v-319.8L1524.69,559.34z M1524.69,571.88
		l67.78,67.74h-67.78V571.88z M1443,262.64l66.54,66.51H1443V262.64z M1443,338.01h72.82v68.7H1443V338.01z M1443,415.58h72.82v68.7
		H1443V415.58z M1443,493.15h72.82v64.52v4.19H1443V493.15z M1443,570.71h72.82v68.7H1443V570.71z M1443,648.49h72.82v68.7H1443
		V648.49z M1443,726.06h72.82v68.7H1443V726.06z M1443,803.62h72.82v68.78H1443V803.62z M1515.82,950.35h-72.81v-68.83h72.81V950.35
		z M1597.37,950.35h-72.81v-68.83h72.81V950.35z M1597.5,872.4h-72.82v-68.78h72.82V872.4z M1597.5,794.76h-72.82v-68.7h72.82
		V794.76z M1597.5,717.19h-72.82v-68.7h72.82V717.19z"/>
	<rect x="1442.53" y="803.22" class="st9" width="154.69" height="147.18"/>
	<g id="g4493_5_" transform="matrix(0.35277777,0,0,-0.35277777,-83.079201,186.9333)">
		<g id="g4495_5_">
			<g id="g4497_5_">
				<g id="g4503_5_" transform="translate(114.9531,127.7212)">
					<path id="path4505_5_" class="st10" d="M4443.44-2049.1l0.89-0.17l1.16,0.23l4.89-4.03l-0.92,4.81l38.79,7.68l-33.34,2.43
						c0.29,1.94,0.34,3.75,0.17,5.44l0.24,0.05l-0.3,0.53c-0.24,1.8-0.75,3.44-1.52,4.93c-2.27,4.34-5.92,5.6-6.62,5.81l-0.62,0.18
						l-0.8,0.01c-6.67,0-9.97-6.21-10.2-11.97C4434.62-2047.04,4442.53-2048.93,4443.44-2049.1"/>
				</g>
				<g id="g4507_5_" transform="translate(189.2061,72.1934)">
					<path id="path4509_5_" class="st10" d="M4499.29-2090.81c-0.14-0.08-0.58-0.26-1.58-0.3c-0.56,0.44-2.38,2.26-4.25,8.41
						c-0.32,1.34-0.93,5.21-0.24,8.13c0.12,0.13,0.27,0.28,0.43,0.4c0.63-1.24,1.6-3.73,2.34-8.26c0.12-1.2,0.7-3.99,3.31-7.57
						C4499.34-2090.33,4499.34-2090.64,4499.29-2090.81 M4466.77-2062.29c0.39,0.32,1.31,0.9,3.33,1.51
						c0.59,0.16,2.43,0.68,4.27,1.35c-0.12-0.42-0.33-1-0.69-1.73c-0.95-0.95-2.83-2.38-4.42-2.38
						C4468.95-2063.55,4468.06-2063.55,4466.77-2062.29 M4465.92-2030.41c-0.19,3.02,0.4,5.3,1.76,6.8c2.1,2.32,5.72,2.56,6.38,2.59
						c1.72-0.18,2.98-0.65,3.78-1.39c-4.34-0.43-6.79-2.5-8.12-4.26c-1.36-1.81-1.98-3.88-2.21-5.82
						C4466.73-2031.8,4466.2-2030.94,4465.92-2030.41 M4443.01-2016.93c-3.21,0.28-4.68,4.4-5.08,5.74
						c0.31,7.91,7.15,9.55,9.22,9.87c1.25-0.14,2.14-0.81,2.78-1.66c-3.57-0.91-5.43-2.9-6.4-4.65
						C4441.85-2010.64,4442.17-2014.09,4443.01-2016.93 M4388.94-2066.25c-1.33-0.45-17.46-5.78-36.97-5.79
						c-18.13,0-33.39,4.47-45.35,13.28l-0.25,0.17c-0.28,0.18-23.78,15.57-35.69,43.56c12.47-9.87,34.15-20.88,68.81-20.88
						c5.78,0,11.82,0.32,17.95,0.94c1.72,0.08,15.68,0.89,32.39,6.47c14.75,4.93,27.19,12.13,36.86,21.26v-0.6
						c0-0.95,0.12-8.46,3.71-13.94C4428.16-2029.09,4418.51-2054.21,4388.94-2066.25 M4459.06-2136.59
						c-16.39,0-28.13-2.32-34.89-6.89l-0.24-0.16l-0.22-0.19c-1.49-1.3-8.21-8.79-8.76-37.99c-3.14,3.41-5.61,6.47-6.13,7.83
						c-0.12,1.02-3.25,29.19,6.68,55.75c0.69,1.18,4.43,7.09,9.96,7.09c1.74,0,3.63-0.58,5.61-1.72
						c2.49-2.26,16.5-14.67,32.23-23.76C4461.92-2136.61,4460.51-2136.59,4459.06-2136.59 M4470.18-2199.59l-0.81-0.17l-0.7-0.44
						c-1.41-0.89-4.27-1.66-7.08-2.2c-2.74,19.59-13.64,36.47-19.45,44.28c3.57,1.15,9.87,2.3,20.82,2.3c4.4,0,7.87-0.2,8.92-0.27
						c2.77-0.68,5.03-2.77,6.87-5.68l7.13-27.1c0.2-2.24,0.32-4.3,0.38-6.05C4483.23-2196.27,4476.58-2198.22,4470.18-2199.59
						 M4432.96-2189.58c0.6,5.51,1.65,13.83,2.86,20.56c4.61-6.59,10.77-17.02,13.62-28.94
						C4444.34-2195.13,4437.91-2191.72,4432.96-2189.58 M4410.06-2098c0.5,0.72,3.71,5.02,9.81,5.52c0.83-1.32,1.99-3.86,2.21-8.08
						c-3.47-0.7-8.23-2.49-12.51-6.97C4408.7-2104.83,4408.39-2101.43,4410.06-2098 M4306.35-2180.73l-0.58-0.28
						c0.21,17.2-2.6,31.5-2.74,32.18l-0.2,1l-0.6,0.83c-1.39,1.92-2.48,3.44-28.38,6.32c-4.47,0.5-8.92,0.95-12.74,1.31
						c10.6,10.11,17.3,20.04,17.65,20.55l0.11,0.17c6,9.83,10.96,10.59,12.33,10.59c0.16,0,0.29-0.01,0.38-0.02l0.28-0.16l0.91-0.05
						c10.29-0.54,11.11-8.89,11.17-10.52l0.01-0.59l0.16-0.57C4307.7-2132.99,4306.71-2170.21,4306.35-2180.73 M4286.72-2186.33
						l-13.31-5.57c2.56,7.68,6.75,17.4,12.43,23.78C4286.5-2172.07,4287.03-2178.01,4286.72-2186.33 M4235.32-2183.05l0.04,0.26
						c0.02,0.15,2.05,14.55,12.23,23.78c8.68-0.38,20.92-1.24,29.32-2.43c-4.82-5.77-11.02-16.01-16.04-33.7
						c-3.33,0.62-10.51,2.37-25.49,7.2C4235.14-2187.52,4234.75-2186.05,4235.32-2183.05 M4291.99-2154.14
						c0.3-0.04,0.58-0.08,0.84-0.12c0.08-0.26,0.15-0.52,0.23-0.79c-0.23,0.25-0.45,0.44-0.67,0.61L4291.99-2154.14z
						 M4310.02-2104.67c-3.56,4.02-8.25,6.27-12.78,7.21c1.32,3.89,3.95,6.04,5.46,7c3.83-1.13,5.48-3.24,5.71-3.56l0.07-0.11
						C4310.73-2097.49,4310.75-2101.34,4310.02-2104.67 M4251.06-2085.5c-0.14-0.17-0.45-0.5-1.12-0.95
						c-0.46-0.17-1.72-0.6-3.35-0.6c-3.48,0-6.57,1.9-9.21,5.65v0.98c0.62,1.02,2.01,2.82,4.03,2.84c1.43-1.49,3.87-3.47,8.1-6.28
						C4250.13-2084.28,4250.84-2085.05,4251.06-2085.5 M4219.42-2111.32c-0.67-0.64-1.99-1.64-3.27-1.64
						c-0.39,0-0.79,0.09-1.21,0.28c0.13,0.28,0.32,0.64,0.6,1.08c1.11,1.77,5.57,9.21,6.32,16.46c0.03-0.13,0.05-0.28,0.08-0.45
						l0.02-0.28l0.13-0.37C4222.24-2096.81,4223.53-2102.49,4219.42-2111.32 M4204.44-2107.39c0.95,0.83,2.1,1.89,3.34,3.13
						c-0.5-0.95-1.07-1.96-1.71-3C4205.55-2107.35,4204.93-2107.41,4204.44-2107.39 M4267.17-1993.28
						c0.95-1.07,23.89-26.14,76.91-26.14c3.05,0,6.19,0.09,9.29,0.25c1.94,0.09,46.6,2.47,73.15,29.6c0.34-0.11,0.7-0.21,1.09-0.31
						c-7.98-10.94-31.96-34.83-89.13-34.83c-2.43,0-4.93,0.04-7.38,0.13c-0.5,0.02-49.11,2.7-65.37,32.9L4267.17-1993.28z
						 M4288.73-1921.57c11.44,15.86,26.48,25.77,44.8,29.53l1.23-1.89c0.28-0.43,6.98-10.46,17.83-10.46h0
						c5.61,0,11.06,2.65,16.21,7.88l0.8,0.81l0.34,1.08c0.19,0.61,0.74,2.54,0.9,4.92c14.28-1.92,52.17-10.29,66.48-45.67l0.17-0.38
						c0.12-0.23,11.21-22.38,5.79-54.78c-0.81-0.18-1.72-0.43-2.68-0.77l-0.02,1.81c0.05,0.1,0.11,0.19,0.17,0.29l0.5,0.91
						l0.07,1.04c0.02,0.24,0.1,1.5,0.17,3.5l0.61,1.38l-0.56,0.05c0.3,9.45,0.3,30.31-4.58,44.32c-0.68,3.04-3.57,7.05-9.42,7.05
						c-2.85,0-6.07-0.93-9.81-2.83c-0.48-0.24-48.92-23.79-94.42-23.8c-18.93,0-34.69,4.08-46.9,12.13
						C4278-1940.78,4281.72-1931.29,4288.73-1921.57 M4353.39-1854.3c1.69,0.86,3.2,1.32,4.41,1.32c1.64,0,2.53-0.94,2.96-1.6
						c0.18-3.45-0.46-5.99-1.9-7.56c-1.7-1.85-4.28-2.07-5.07-2.09c-0.89,0.22-1.99,1.07-2.63,1.74
						C4349.13-1858.33,4352.11-1855.33,4353.39-1854.3 M4296.15-1965.82l-0.3-0.07c-0.65-0.17-4-1.21-6.11-5.1
						c-1.79-3.29-2.09-7.52-0.9-12.6c-0.06-0.1-0.12-0.21-0.18-0.32c-0.91-1.74-0.8-3.79,0.29-5.61l1.14-1.9l2.2-0.32
						c0.15-0.02,0.93-0.13,2.02-0.13c0.07,0,0.13,0.01,0.2,0.01l3.93-5.79c-0.79-0.55-1.61-1.12-2.46-1.72
						c-4.03,1.84-12.41,5.99-17.76,11.03c-1,3.58-3.93,16.15-0.09,28.31c3.85-1.7,9.94-3.95,18.18-5.76
						C4296.27-1965.81,4296.21-1965.81,4296.15-1965.82 M4415.37-1947.42c1.9-8.31,5.07-24.27,4.04-34.44
						c-3.88-4.24-23.44-22.94-69.73-26.76c-4.73,4.8-18.14,17.85-27.14,21.27c-0.67,0.32-1.54,0.56-2.62,0.56
						c-2.41,0-6.97-1.07-19.09-9.22l-0.57,5.4c3.05,1.45,5.03,4.12,5.46,7.66c0.19,1.04,0.48,2.94,0.52,5.11l0.73,0.08l-0.73,1.43
						c-0.1,2.81-0.7,5.83-2.45,7.94c-0.49,0.59-1.05,1.09-1.66,1.5c6.79-1.15,14.74-1.93,23.82-1.93
						C4353.76-1968.85,4383.82-1961.65,4415.37-1947.42 M4427.1-1943.85c1.04-3.43,1.93-8.79,2.61-15.02
						C4428.87-1953.11,4427.87-1947.7,4427.1-1943.85 M4319.06-1998.11c3.2-1.44,8.15-5.21,12.91-9.28
						c-10.4,0.87-17.97,2.38-23.01,3.71C4314.28-2000.11,4317.55-1998.66,4319.06-1998.11 M4439.46-1991.45l0.46-0.12
						c-0.23-0.09-0.45-0.18-0.69-0.28C4439.31-1991.72,4439.38-1991.58,4439.46-1991.45 M4236.86-2067.72
						c-0.61-0.17-1.19-0.37-1.75-0.6c0.26,0.54,0.5,1.05,0.72,1.55C4236.22-2067.09,4236.56-2067.42,4236.86-2067.72
						 M4227.65-2085.37c-0.02-0.02-0.04-0.04-0.05-0.06c-1.38,0.95-3.02,1.58-4.85,1.84c1.59,1.3,3.02,2.63,4.3,3.95
						C4226.92-2081.86,4227.27-2083.9,4227.65-2085.37 M4502.78-2065.88c-1.68,1.15-3.81,3.67-5.09,5.91l-0.04,0.07
						c-2.78,4.73-3.31,8.3-3.26,10.46c1.63-1.16,4-4.27,5.44-7.33l0.11-0.21C4502.32-2061.47,4502.84-2064.32,4502.78-2065.88
						 M4485.34-2058.75c0.69-1.88,1.62-3.89,2.86-5.98c-1.34-0.61-2.58-1.42-3.68-2.41c-0.3,0.48-0.59,0.98-0.86,1.51
						C4484.72-2063.72,4485.42-2061.34,4485.34-2058.75 M4483.33-2052.15c0.12,0.1,0.24,0.2,0.38,0.31c0.05-0.42,0.1-0.85,0.17-1.3
						C4483.71-2052.81,4483.53-2052.48,4483.33-2052.15 M4512.13-2065.48c-0.03,3.67-1.32,7.96-3.86,12.79
						c-0.9,1.9-4.46,8.81-9.92,11.75l-1.73,2.21l-1,1.26l-2.41,3.07l-0.85,1.4l-0.27,0.03l-2.71,3.44l-0.38,0.65
						c-0.08,0.13-0.31,0.5-0.69,0.99c0.21,1.59,0.53,6.54-2.64,10.72c-1.64,2.16-4.83,4.84-10.7,5.44l-3.59,1.48
						c-0.56,0.32-1.31,0.66-2.24,0.92l-8.4,3.46c-0.55,4.09-2.85,10.18-8.4,12.73c6.12,34.67-5.1,58.8-6.4,61.44
						c-8.31,20.4-24.84,35.85-47.82,44.67c-17.2,6.61-31.85,7.2-32.47,7.22l-1.91,0.07l-0.89,0.53l0,8.29c1,0.65,1.99,1.44,2.9,2.44
						c3.4,3.71,4.84,8.94,4.27,15.56l-0.06,0.66l-0.24,0.62c-1.15,2.97-4.95,7.99-11.94,7.99c-2.86,0-5.94-0.87-9.15-2.59
						l-0.28-0.15l-0.25-0.18c-4.08-2.94-10.36-11.09-4.94-20.87l0.2-0.36l0.26-0.32c0.19-0.23,1.1-1.31,2.55-2.46
						c-0.11-0.41-0.25-0.87-0.39-1.28l-1.09-3.28l0.05-0.04c-0.58-1.71-0.83-2.89-0.78-3.89c-1.14-0.62-2.14-1.46-3.02-2.4
						l-1.01-0.11c-24.24-2.7-44.64-14.75-59.01-34.83c-10.77-15.06-14.35-29.23-14.49-29.83l-0.74-3.02l2.5-1.85
						c0.86-0.64,1.73-1.25,2.62-1.85c-3.86-8.94-4.35-18.19-3.77-25.49c-3.01-1.21-6.06-3.61-7.9-5.23l-0.73-0.64l-1.72-3.78
						l-0.74-10.17c1.41-7.91,3.74-15.16,6.62-21.73c-2.98-4.03-2.37-10.03-1.76-13.21l-3.28-2.82l-0.42,0.04l-3.9-3.27
						c-1.12-0.07-2.29-0.23-3.5-0.51l-0.14-0.03c-3.03-0.78-8.49-4.33-9.71-12.66l-0.01-0.08l-1.18-0.48
						c-0.25-0.1-0.97-0.4-1.88-0.88l-4.9-0.05l-1.31-0.51l-1.37-0.2c-1.62-0.57-4.38-1.79-7.48-4.17l-0.93-0.87l-1.77-1.43
						c-4.43-4.22-9.07-10.92-11.85-21.41l-0.53-2.93l-0.62-1.53l-0.09-0.33c-1.37-1.63-3.86-4.06-7.98-6.29l-0.57-0.31l-0.47-0.46
						c-1.31-1.27-4.32-4.66-4.08-8.5c0.09-1.49,0.66-2.86,1.62-3.95c-0.06-2.67,0.65-4.91,2.16-6.66c1.26-1.47,3.67-3.22,7.95-3.22
						c0.47,0,0.94,0.02,1.39,0.06c0.67-1.5,1.68-2.4,2.3-2.85c2.44-1.84,5.08-2.77,7.84-2.77c6.24,0,10.36,4.82,10.81,5.36
						l0.35,0.42l0.24,0.5c5.09,10.45,4.4,18.2,3.8,21.25c0.91,0.74,2.01,1.73,3.03,2.89c4.32-3.59,8.79-4.51,12.22-4.51
						c4.25,0,7.3,1.45,7.63,1.62l0.39,0.22c4.77,2.96,5.82,6.43,5.86,8.83c0.1,5.45-4.75,8.98-5.74,9.64
						c-2.5,1.66-4.1,2.88-5.14,3.71l1.26,1.65l1.28,1.28l0.02,0.43l1.8,2.36c0.31-0.02,0.63-0.03,0.97-0.03
						c5.62,0,11.83,3.55,12.43,13.51l1.88,2.36l1.43,0.96l1.12,2.15c0.81-0.16,1.66-0.25,2.57-0.25c2.17,0,4.24,0.48,5.49,0.84
						c6.21-7.2,12.23-12.43,16.32-15.63l-1.69-4l-0.02-0.01l-1.02-2.27c-1.12-2.48-1.85-4.33-2.34-5.73L4291-2075l0.02,0
						c-0.37-1.09-0.58-1.91-0.69-2.51l-0.22-0.08l-1.8-4.51c-2.32-1.02-4.35-2.48-6.06-4.37c-6.6-7.3-5.57-18.27-5.52-18.74
						l0.08-0.75c-1.92-2-3.89-4.53-5.86-7.73c-0.76-1.11-10.35-14.96-24.06-25.67l-1.22-0.96l-0.36-0.24
						c-0.21-0.14-0.52-0.37-0.86-0.71l-2.43-3.18l-0.37-2.61c-0.27-1.39-0.4-3.06-0.32-5.04c-12.24-11.1-14.94-27.5-15.21-29.32
						c-2.19-11.8,4.45-14.78,6.15-15.34l0,0c13.52-4.37,22.99-6.97,28.27-7.79l2.19-0.18l31.25,11.29l1.77-0.26l1.25-0.32l2.65-0.26
						l4.04,1.92l11.8,5.62l0.12,2.81c0.08,1.96,1.98,46.75-2.02,64.71l0.79,1.15c0.4,0.59,9.08,13.52,3.71,25.83l2.36,9.06
						l-0.17,0.19l1.91,6c9.01-2.91,18.96-4.4,29.8-4.39c21.95,0,39.44,6.09,40.17,6.35l0.2,0.07c0.77,0.32,1.53,0.64,2.28,0.96
						c0.17-0.53,0.34-0.99,0.47-1.32l0.12-0.8c0.22-1.44,1.6-6.71,2.19-8.91l0.66-2.48c0.29-2.78,1.25-5.92,2.18-8.44l0.27-0.74
						c-3.69-11.25,3.59-20.95,4.76-22.41c-8.9-27.12-6.04-53.63-5.76-55.93c0.19-2.28,1.52-5.59,9.11-13.73
						c3.91-4.2,7.73-7.79,7.89-7.94l0.39-0.36l1.66-1.56l2.82-0.39l3.19,0.44c1.81,0.2,3.07,0.57,3.74,0.81
						c7-2.87,19.63-10,24.61-12.93l3.2-1.89l2,0.28l2.5,0.24c3.31,0.49,8.62,1.52,12.24,3.48c6.91,1.5,18.17,4.4,21.5,7.9l1.28,1.34
						l0.01,1.86c0.01,3.51-0.25,27.37-9.36,41.18v8.27l-0.01,0.11l-1.24,3.94l-2.64,5.03c-3.26,3.04-8.77,7.2-9,7.38l-0.32,0.24
						l-0.36,0.19c-13.08,6.72-26.08,17.2-32.14,22.38c0.32,1.83,1.88,12.42-3.76,19.58c-1.5,1.91-3.39,3.39-5.59,4.41l-0.18,0.43
						l0.79-0.17l-5.16,9.02c-0.81,1.41-2.7,5.73-3.7,8.12l-0.01,0.02l-0.13,0.67c-0.7,3.4-2.52,7.23-3.59,9.28
						c12.25,12.11,17.69,25.38,19.76,31.81c1.31-0.45,2.74-0.71,4.33-0.71h0c2.23,0,4.58,0.53,7.01,1.56
						c0.74-0.71,1.62-1.47,2.55-2.1c0.5-1.15,1.43-2.75,3.1-4.19l0.62-0.54c0.02-0.17,0.03-0.34,0.05-0.52l0.06-0.63l0.23-0.59
						c1.39-3.59,5.75-9.66,13.29-9.66h0c0.3,0,0.61,0.01,0.93,0.03l1.86-4.83l0.58,0.83l0.56-1.63c-0.21-0.34-0.39-0.66-0.53-0.95
						l-0.88-0.47c-1.01-0.54-3.64-1.38-5.19-1.79l-0.11-0.03c-5.52-1.64-8.85-4.34-9.89-8.02c-0.99-3.5,0.52-6.84,2.12-8.63
						l0.11-0.12c3.43-3.59,7.03-4.34,9.44-4.34c2.56,0,4.84,0.81,6.7,1.84c2.66-4.66,6.12-7.7,7.67-8.92
						c0.2-2.68,0.67-4.69,0.77-5.09l0.06-0.21c3.79-12.59,9.13-15.23,12.94-15.23c0.36,0,0.68,0.02,0.96,0.06
						c2.57,0.15,4.48,0.83,5.9,1.71c1.28-0.64,2.65-0.99,4.04-0.99c0.75,0,1.36,0.1,1.77,0.2c4.32,0.81,6.5,3.07,7.58,4.84
						c1.07,1.76,1.42,3.57,1.45,5.1l0.24,0.32c3.53,4.61,1.4,10.34-2.56,13.7c-2.51,2.44-3.81,3.93-4.46,4.75"/>
				</g>
				<g id="g4511_5_" transform="translate(105.9185,198.9136)">
					<path id="path4513_5_" class="st11" d="M4436.64-1995.63c0,0,13.42-0.78,12.01,15.59c0,0-3.43,8.89-14.51,2.96
						c0,0-8.42-6.08-3.59-14.81C4430.56-1991.88,4433.21-1995.16,4436.64-1995.63"/>
				</g>
				<g id="g4515_5_" transform="translate(104.6118,198.231)">
					<path id="path4517_5_" class="st12" d="M4435.66-1996.14c0,0,3.64-0.94,6.86,0.62c0,0,0.52-3.85,0-4.57c0,0-3.33-2.39-7.7,0.73
						C4434.83-1999.36,4435.56-1997.18,4435.66-1996.14"/>
				</g>
				<g id="g4519_5_" transform="translate(103.8994,195.4751)">
					<path id="path4521_5_" class="st12" d="M4435.12-1998.21c0,0,5.14-2.55,8.35-0.37v-5.61c0,0-7.43-3.18-9.49,1.97
						C4433.77-2001.7,4435.12-1998.21,4435.12-1998.21"/>
				</g>
				<g id="g4523_5_" transform="translate(103.2339,192.1758)">
					<path id="path4525_5_" class="st12" d="M4434.62-2000.69c0,0,4.12-3.71,9.51-1.18v-3.81c0,0-3.35-6.76-10.32,1.77
						L4434.62-2000.69z"/>
				</g>
				<g id="g4527_5_" transform="translate(102.1777,190.9287)">
					<path id="path4529_5_" class="st12" d="M4433.83-2001.62c0,0-2.26-6.55,7.4-6.86c0,0,5.92-0.52,5.71,6.86l3.64-2.18
						c0,0,0.83-5.41,0-7.59c0,0-10.51-11.54-23.09,0.73C4427.48-2010.67,4429.74-2003.15,4433.83-2001.62"/>
				</g>
				<g id="g4531_5_" transform="translate(112.834,190.0254)">
					<path id="path4533_5_" class="st11" d="M4441.84-2002.3c0,0,57.15-2.06,76.19-49.15c0,0,12.8-24.95,5.62-61.12
						c0,0-11.75,0.42-15.91-13.1c0,0,0-8.73,4.16-12.89c0,0-7.49-34.72-44.94-49.9c0,0-51.17-18.09-86.75,8.11
						c0,0-35.78,22.87-43.27,65.08c0,0,23.2-40.34,96.53-32.85c0,0,56.79,2.18,79.57,43.35c0,0,2.03,30.25-4.21,47.72
						c0,0-0.94,7.17-12.64,1.25c0,0-97.05-47.72-148.85-9.36c0,0,13.52,54.89,69.48,61.13l-1.77-5.15c0,0,11.44-17.46,26.78-1.87
						C4441.84-2011.06,4443.51-2005.7,4441.84-2002.3"/>
				</g>
				<g id="g4535_5_" transform="translate(61.5723,150.5605)">
					<path id="path4537_5_" class="st0" d="M4403.29-2031.95c0,0,50.55-30.87,142.92,12.79c0,0,7.49-28.07,5.3-43.04
						c0,0-19.14-25.57-76.04-29.63c0,0-17.58,18.4-27.25,21.83c0,0-2.5,2.5-24.03-13.1c0,0-14.67,5.93-22.47,13.88
						C4401.73-2069.21,4395.02-2049.41,4403.29-2031.95"/>
				</g>
				<g id="g4539_5_" transform="translate(71.4565,131.4155)">
					<path id="path4541_5_" class="st10" d="M4410.72-2046.33c0,0,7.49-1.09,8.11,4.83c0,0,2.5,13.1-4.06,11.85
						c0,0-7.18-1.87-2.81-14.97C4411.97-2044.61,4409.79-2044.77,4410.72-2046.33"/>
				</g>
				<g id="g4543_5_" transform="translate(72.5254,133.1968)">
					<path id="path4545_5_" class="st0" d="M4411.53-2044.99c0,0-1.09,9.51,4.84,10.14c0,0-3.12,6.08-5.93-2.18
						C4410.43-2037.04,4409.55-2042.07,4411.53-2044.99"/>
				</g>
				<g id="g4547_5_" transform="translate(120.6104,131.3701)">
					<path id="path4549_5_" class="st10" d="M4447.69-2046.36l-9.05-1.79c0,0-4.84,0.91-4.37,11.14c0,0,0.31,7.59,5.62,7.5
						c0,0,8.19-2.42,3.51-16.53L4447.69-2046.36z"/>
				</g>
				<g id="g4551_5_" transform="translate(114.9111,132.2168)">
					<path id="path4553_5_" class="st0" d="M4443.41-2045.72c0,0-2.1,10.6,4.68,11.93c0,0-3.98,7.02-6.79-2.1
						C4441.3-2035.9,4440.02-2042.93,4443.41-2045.72"/>
				</g>
				<g id="g4555_5_" transform="translate(74.8403,121.0859)">
					<path id="path4557_5_" class="st11" d="M4413.27-2054.08c0,0,13.37-6.81,45.82-7.54c0,0-17.37,17.15-25.48,19.54
						C4433.6-2042.08,4427.67-2042.91,4413.27-2054.08"/>
				</g>
				<g id="g4559_5_" transform="translate(58.7227,134.1167)">
					<path id="path4561_5_" class="st13" d="M4401.15-2044.3c0,0,0.94-5.51,2.29-7.8h-2.29c0,0,24.44-27.44,82.49-24.32
						c0,0,47.01,2.18,72.18,30.51c0,0,2.19-1.72,9.88-2.44c0,0-20.28-45.74-104.33-42.83c0,0-53.67,2.5-70.31,37.43l1.66,4.65
						C4392.72-2049.11,4398.55-2043.98,4401.15-2044.3"/>
				</g>
				<g id="g4563_5_" transform="translate(144.7422,158.6641)">
					<path id="path4565_5_" class="st13" d="M4465.84-2025.86c0,0,7.02-31.5,4.84-43.82l9.67-2.5c0,0-0.31,39.92-6.55,48.03
						C4473.8-2024.14,4468.65-2024.46,4465.84-2025.86"/>
				</g>
				<g id="g4567_5_" transform="translate(160.7725,112.6265)">
					<path id="path4569_5_" class="st11" d="M4477.9-2060.44c0,0-8.74,14.03,6.71,12.79c0,0-0.71,10.29-9.17,10.6
						c0,0-13.77-1.4-13.77-15.13C4461.67-2052.18,4464.8-2066.83,4477.9-2060.44"/>
				</g>
				<g id="g4571_5_" transform="translate(161.3945,113.9619)">
					<path id="path4573_5_" class="st12" d="M4478.37-2059.44c0,0,0.31,5.61,5.62,7.48c0,0-3.12,3.43-7.33-0.55
						C4476.65-2052.5,4474.86-2056.01,4478.37-2059.44"/>
				</g>
				<g id="g4575_5_" transform="translate(164.5996,110.7119)">
					<path id="path4577_5_" class="st12" d="M4480.78-2061.88c0,0-1.33,6.63,8.27,10.91l-5.31,2.18c0,0-8.35-2.1-7.25-9.28
						C4476.49-2058.06,4478.83-2060.86,4480.78-2061.88"/>
				</g>
				<g id="g4579_5_" transform="translate(166.2471,108.3521)">
					<path id="path4581_5_" class="st12" d="M4482.02-2063.65c0,0,1.41,9.04,10.38,12.94c0,0-1.8,1.49-5.19,0.78
						c0,0-7.14-1.87-7.3-10.53C4479.91-2060.45,4480.3-2062.17,4482.02-2063.65"/>
				</g>
				<g id="g4583_5_" transform="translate(173.9492,102.3418)">
					<path id="path4585_5_" class="st11" d="M4487.81-2068.16c0,0-3.98,13.72,11.08,10.52c0,0,1.87,10.14-9.36,11.15
						c0,0-14.51,0.31-12.95-15.28C4476.58-2061.77,4479.78-2070.04,4487.81-2068.16"/>
				</g>
				<g id="g4587_5_" transform="translate(174.9297,102.3857)">
					<path id="path4589_5_" class="st12" d="M4488.55-2068.13c0,0,4.37,6.16,10.69,6.71c0,0-3.12,5.32-9.28,1.84
						C4489.95-2059.58,4486.21-2062.05,4488.55-2068.13"/>
				</g>
				<g id="g4591_5_" transform="translate(176.5332,99.8926)">
					<path id="path4593_5_" class="st12" d="M4489.75-2070c0,0,3.2,6.08,11.86,5.77l-3.12,3.97c0,0-7.41,0.94-10.84-6.31
						C4487.65-2066.57,4488.58-2068.37,4489.75-2070"/>
				</g>
				<g id="g4595_5_" transform="translate(177.4678,96.999)">
					<path id="path4597_5_" class="st12" d="M4490.46-2072.18c0,0,8.04,6,13.81,5.07l-2.96,4.89c0,0-8.97,0.88-12.01-6.53
						L4490.46-2072.18z"/>
				</g>
				<g id="g4599_5_" transform="translate(192.4717,83.4189)">
					<path id="path4601_5_" class="st11" d="M4501.74-2082.38c0,0,6.08,3.12-0.94,16.37c0,0-6.55,14.03-13.57,9.67
						c0,0-3.12-6.55,3.12-17.15C4490.35-2073.49,4495.81-2083.16,4501.74-2082.38"/>
				</g>
				<g id="g4603_5_" transform="translate(176.7998,94.1934)">
					<path id="path4605_5_" class="st11" d="M4489.96-2074.28c0,0,1.4,5.11,11.39,8.02c0,0-4.21-10.35,7.64-24.08
						c0,0-5.46,1.47-9.52-2.85v-5.52c0,0-6.09,4.16-8.74,11.65C4490.73-2087.07,4496.51-2081.15,4489.96-2074.28"/>
				</g>
				<g id="g4607_5_" transform="translate(188.376,84.3096)">
					<path id="path4609_5_" class="st12" d="M4498.66-2081.71l4.26-2.5l-2.13-1.35L4498.66-2081.71z"/>
				</g>
				<g id="g4611_5_" transform="translate(175.3301,93.1553)">
					<path id="path4613_5_" class="st12" d="M4488.85-2075.06c0,0,7.46-0.52,2.58-9.77c0,0-7.39-8.73-14.35-1.46
						c0,0-5.2,5.82,5.62,9.04C4482.69-2077.25,4486.9-2076.11,4488.85-2075.06"/>
				</g>
				<g id="g4615_5_" transform="translate(183.2998,82.6475)">
					<path id="path4617_5_" class="st12" d="M4494.84-2082.96c0,0,2.63,4.51,7.12,2.91c0,0,2.91-1.98,4.58-12.27
						c0,0,0.1-2.5,3.02-6.13c0,0,2.5-7.48-5.82-7.8c0,0-4.89-1.46-8.89,11.85C4494.84-2094.39,4493.23-2087.95,4494.84-2082.96"/>
				</g>
				<g id="g4619_5_" transform="translate(192.4717,70.5957)">
					<path id="path4621_5_" class="st12" d="M4501.74-2092.01c0,0,1.87,4.78-2.29,9.77c0,0-3.06,4.61-2.29,9.04
						c0,0,1.98,3.85,4.06,0.83c0,0,2.08-6.45,9.68-13.41c0,0,1.98-6.34-5.1-7.59C4505.8-2093.36,4503.82-2093.98,4501.74-2092.01"/>
				</g>
				<g id="g4623_5_" transform="translate(192.2939,82.8242)">
					<path id="path4625_5_" class="st12" d="M4501.61-2082.82l2.67,0.68c0,0-0.27-1.2,6.28-7.54c0,0,4.68-3.84,1.98-7.38
						c0,0-3.84,3.95-5.04,4.99c0,0-3.7,4.47-4.53,8L4501.61-2082.82z"/>
				</g>
				<g id="g4627_5_" transform="translate(56.2886,111.083)">
					<path id="path4629_5_" class="st11" d="M4399.31-2061.6c0,0,8.63-14.87,13-19.65c0,0-5.62-2.08-8.53,0c0,0,5.51,8.52-5.1,8.52
						C4398.69-2072.72,4396.61-2065.13,4399.31-2061.6"/>
				</g>
				<g id="g4631_5_" transform="translate(54.938,102.7871)">
					<path id="path4633_5_" class="st12" d="M4398.3-2067.83c0,0,3.67-0.7,5.62-4.37c0,0,2.33,4.62,0,6.16
						C4403.92-2066.04,4401.42-2064.17,4398.3-2067.83"/>
				</g>
				<g id="g4635_5_" transform="translate(52.6675,101.1836)">
					<path id="path4637_5_" class="st12" d="M4396.59-2069.03c0,0,5.38-1.01,6.71-5.77l2.5,3.35c0,0-0.86,3.27-6.4,4.83
						L4396.59-2069.03z"/>
				</g>
				<g id="g4639_5_" transform="translate(50.7529,99.8037)">
					<path id="path4641_5_" class="st12" d="M4395.15-2070.07c0,0,6.79-2.81,7.33-7.41l2.19,2.73c0,0,0,5.61-7.57,6.32
						L4395.15-2070.07z"/>
				</g>
				<g id="g4643_5_" transform="translate(43.8076,93.7041)">
					<path id="path4645_5_" class="st11" d="M4389.93-2074.65c0,0,4.45,6.62,9.67-0.39c0,0,3.2-2.42-1.25-8.26
						c0,0,9.1-2.46,9.75,8.96c0,0,0.16,11.23-11.94,8.5C4396.17-2065.84,4391.02-2067.17,4389.93-2074.65"/>
				</g>
				<g id="g4647_5_" transform="translate(45.0542,93.5264)">
					<path id="path4649_5_" class="st12" d="M4390.87-2074.79c0,0,3.9-1.95,5.38-6.86c0,0,2.96,2.42,0.39,6.86
						C4396.64-2074.79,4394.61-2071.59,4390.87-2074.79"/>
				</g>
				<g id="g4651_5_" transform="translate(42.5605,91.7012)">
					<path id="path4653_5_" class="st12" d="M4388.99-2076.16c0,0,5.93-1.87,6.24-9.36l3.04,3.99c0,0-0.78,6.22-6.32,7.55
						L4388.99-2076.16z"/>
				</g>
				<g id="g4655_5_" transform="translate(39.1768,89.9199)">
					<path id="path4657_5_" class="st12" d="M4386.44-2077.49c0,0,7.1-3.2,9.21-9.59l1.95,1.95c0,0,0.47,8.57-7.1,10.06
						C4390.5-2075.08,4388.01-2076.09,4386.44-2077.49"/>
				</g>
				<g id="g4659_5_" transform="translate(25.0034,75.8789)">
					<path id="path4661_5_" class="st11" d="M4375.78-2088.04c0,0,19.04,10.81,20.18,25.57
						C4395.96-2062.47,4381.45-2065.69,4375.78-2088.04"/>
				</g>
				<g id="g4663_5_" transform="translate(37.0547,76.7705)">
					<path id="path4665_5_" class="st12" d="M4384.85-2087.37v3.54c0,0,3.43,8.11,11.23,6.03c0,0,0.42-1.56,8.22-6.76
						c0,0,8.22-5.51,0-10.6C4404.3-2095.17,4393.17-2100.68,4384.85-2087.37"/>
				</g>
				<g id="g4667_5_" transform="translate(28.0313,72.4961)">
					<path id="path4669_5_" class="st12" d="M4378.06-2090.58c0,0,8.43,3.33,9.67-4.58c0,0,2.39-7.59-3.23-19.13
						c0,0-5.62-6.86-12.27-1.77c0,0-2.7,1.56,0.52,6.65C4372.76-2109.4,4380.25-2097.55,4378.06-2090.58"/>
				</g>
				<g id="g4671_5_" transform="translate(25.7158,73.4453)">
					<path id="path4673_5_" class="st12" d="M4376.32-2089.87l2.81-1.77c0,0,2.18-7.69-6.66-21c0,0-11.13-3.64-9.67,5.82
						C4362.8-2106.81,4373.62-2098.5,4376.32-2089.87"/>
				</g>
				<g id="g4675_5_" transform="translate(17.4644,64.6006)">
					<path id="path4677_5_" class="st12" d="M4370.11-2096.51c0,0,11.65,8.4,13.21,16.63c0,0-2.7-5.61-11.34-10.29
						C4371.99-2090.17,4367.51-2094.54,4370.11-2096.51"/>
				</g>
				<g id="g4679_5_" transform="translate(27.4551,73.208)">
					<path id="path4681_5_" class="st11" d="M4377.63-2090.05c0,0,8.78,3.43,11.19-3.12c0,0,4.8,3.33,5.63,6.34
						c0,0-5.83,14.14,10.71,14.24c0,0,0.94,6.65-10.19,11.85c0,0-2.29-15.07-21.64-25.78L4377.63-2090.05z"/>
				</g>
				<g id="g4683_5_" transform="translate(76.1167,88.0498)">
					<path id="path4685_5_" class="st12" d="M4414.23-2078.9c0,0,9.36-6.34,17.68-9.88l-1.25-2.91c0,0-6.97,7.8-19.14,6.39
						L4414.23-2078.9z"/>
				</g>
				<g id="g4687_5_" transform="translate(72.5547,79.0254)">
					<path id="path4689_5_" class="st12" d="M4411.55-2085.68c0,0,6.76,6.13,20.49-4.05l1.87,5.88c0,0-6.76,8.25-19.56,6.07
						C4414.36-2077.77,4411.45-2084.22,4411.55-2085.68"/>
				</g>
				<g id="g4691_5_" transform="translate(83.2998,72.4355)">
					<path id="path4693_5_" class="st12" d="M4419.63-2090.63c0,0-5.2,8.11-20.7,7.49l0.62,1.56l1.25,0.41l2.4,2.5
						c0,0,11.13,1.87,17.99-5.98L4419.63-2090.63z"/>
				</g>
				<g id="g4695_5_" transform="translate(75.5234,75.4639)">
					<path id="path4697_5_" class="st11" d="M4413.78-2088.35c0,0-9.47-5.3-9.26-16.53c0,0-5.2,0.73-9.47-3.12
						C4395.06-2108,4392.87-2086.48,4413.78-2088.35"/>
				</g>
				<g id="g4699_5_" transform="translate(70.7739,66.0254)">
					<path id="path4701_5_" class="st11" d="M4410.21-2095.44c0,0,14.87,0.72,18.72-13.83c0,0,9.05,13.2,1.87,23.91
						c0,0-2.81,4.57-10.3,6.03C4420.51-2079.33,4410.73-2083.28,4410.21-2095.44"/>
				</g>
				<g id="g4703_5_" transform="translate(46.7905,42.3672)">
					<path id="path4705_5_" class="st11" d="M4392.17-2113.21c0,0,46.65-3.9,48.68-6.7c0,0,3.74-18.71,2.34-38.83l10.14,4.83
						c0,0,2.13,48.96-2.29,65.02c0,0-0.26,14.31-15.6,15.1c0,0-8.63,2.99-18.15-12.61
						C4417.29-2086.39,4407.15-2101.52,4392.17-2113.21"/>
				</g>
				<g id="g4707_5_" transform="translate(45.7217,41.5664)">
					<path id="path4709_5_" class="st13" d="M4391.37-2113.81c0,0-2.34-1.56-1.87-8.11c0,0,31.83-1.09,43.53-5.61
						c0,0,4.68-3.59,3.43-30.41l6.24-0.94c0,0,2.34,27.6-2.96,39.45C4439.73-2119.43,4405.57-2114.13,4391.37-2113.81"/>
				</g>
				<g id="g4711_5_" transform="translate(68.874,32.8408)">
					<path id="path4713_5_" class="st14" d="M4408.78-2120.37c0,0,4.06-8.11,2.81-29.79l-24.96-10.45
						C4386.62-2160.6,4393.18-2130.19,4408.78-2120.37"/>
				</g>
				<g id="g4715_5_" transform="translate(67.8945,33.375)">
					<path id="path4717_5_" class="st12" d="M4408.04-2119.97c0,0-13.42-6.86-22.31-41.17c0,0-0.31-2.18-30.74,7.64
						c0,0-4.68,1.09-2.96,10.14c0,0,2.33,17.5,15.23,27.91C4367.26-2115.45,4399.62-2116.69,4408.04-2119.97"/>
				</g>
				<g id="g4719_5_" transform="translate(131.623,84.3691)">
					<path id="path4721_5_" class="st12" d="M4455.98-2081.66c0,0,5.93,2.81,16.02,11.22c0,0,3.02-5.3,3.85-9.35
						c0,0-11.23,1.67-18.62-6.45C4457.23-2086.24,4456.24-2084.04,4455.98-2081.66"/>
				</g>
				<g id="g4723_5_" transform="translate(132.4541,80.9844)">
					<path id="path4725_5_" class="st12" d="M4456.6-2084.21c0,0,6.66,8.84,18.83,6.24c0,0,2.7-6.45,3.95-8.63
						c0,0-12.48,2.6-20.7-6.03C4458.68-2092.63,4456.81-2085.56,4456.6-2084.21"/>
				</g>
				<g id="g4727_5_" transform="translate(134.1162,75.583)">
					<path id="path4729_5_" class="st12" d="M4457.85-2088.26c0,0,8.11,9.35,20.8,5.2c0,0,1.87-3.33,3.12-6.34
						c0,0-15.39,3.33-22.05-8.32C4459.72-2097.72,4457.15-2090.75,4457.85-2088.26"/>
				</g>
				<g id="g4731_5_" transform="translate(146.2861,73.9199)">
					<path id="path4733_5_" class="st11" d="M4467-2089.51c0,0,4.68-6.34,3.54-17.05c0,0,4.58,0.21,8.32-3.22
						C4478.86-2109.78,4482.5-2090.34,4467-2089.51"/>
				</g>
				<g id="g4735_5_" transform="translate(145.0986,73.9199)">
					<path id="path4737_5_" class="st11" d="M4466.11-2089.51c0,0,5.62-4.47,4.68-17.05c0,0-11.03,0.94-17.68-11.44
						c0,0-8.43,9.98-3.02,20.58C4450.09-2097.41,4455.19-2088.99,4466.11-2089.51"/>
				</g>
				<g id="g4739_5_" transform="translate(143.792,13.665)">
					<path id="path4741_5_" class="st11" d="M4465.13-2134.77c0,0-15.27,14.35-15.54,18.71c0,0-3.7,29.83,7.06,58.32
						c0,0,8.27,15.91,22.62,7.17c0,0,18.09-16.63,36.71-26.2c0,0,5.51-4.16,8.63-7.07c0,0-38.27,4.57-52.42-4.99
						C4472.2-2088.82,4463.88-2096.1,4465.13-2134.77"/>
				</g>
				<g id="g4743_5_" transform="translate(144.7422,13.25)">
					<path id="path4745_5_" class="st13" d="M4465.84-2135.08c0,0-3.12,46.31,11.39,48.34c0,0,17.32,4.52,38.85,2.81
						c0,0,9.52-0.31,9.99-5.14v-6.24c0,0-1.87,7.12-24.44,4.83c0,0-23.19,0.31-25.38-9.25c0,0-3.54-16.22-4.89-34.62
						C4471.36-2134.36,4469.48-2135.19,4465.84-2135.08"/>
				</g>
				<g id="g4747_5_" transform="translate(151.6875,33.5527)">
					<path id="path4749_5_" class="st14" d="M4471.07-2119.83c0,0,20.13-21.99,22-48.34c0,0-19.31,11.37-27.62,14.19
						C4465.45-2153.98,4467.95-2128.41,4471.07-2119.83"/>
				</g>
				<g id="g4751_5_" transform="translate(165.3125,5.4141)">
					<path id="path4753_5_" class="st12" d="M4481.31-2140.97c0,0,9.52,0.93,13.73,3.59c0,0,16.85,3.58,19.82,6.71
						c0,0,0.15,42.1-18.41,46c0,0-29.17,2.18-37.6-5.15C4458.85-2089.82,4479.6-2113.52,4481.31-2140.97"/>
				</g>
				<g id="g4755_5_" transform="translate(59.5322,107.9336)">
					<path id="path4757_5_" class="st12" d="M4401.75-2063.96c44.19-27.1,133.03-17.02,159.28,20.38
						c0.26-6.52,1.87-10.43,4.16-12.89c-0.31-1.23-0.6-2.54-1.1-3.79c-13.05-33.21-101.99-52.89-148.12-22.71
						C4407.22-2074.25,4403.95-2067.97,4401.75-2063.96"/>
				</g>
				<g id="g4759_5_" transform="translate(58.7358,108.3521)">
					<path id="path4761_5_" class="st15" d="M4401.16-2063.65c45.7-27.82,136.08-17.41,161.71,20.42"/>
				</g>
				<g id="g4763_5_" transform="translate(153.1299,112.3247)">
					<path id="path4765_5_" class="st15" d="M4472.15-2060.67c-0.31-1.23-0.6-2.54-1.1-3.79c-13.05-33.21-101.69-53.91-150.39-22.11
						"/>
				</g>
				<g id="g4767_5_" transform="translate(85.3184,87.9385)">
					<path id="path4769_5_" class="st16" d="M4421.15-2078.98c4.17-1.65,19.17-3.71,27.84-2.55v26.55
						c-8.12-0.46-23.29,0.34-27.84,1.28V-2078.98z"/>
				</g>
				<g id="g4771_5_" transform="translate(88.3164,92.999)">
					<path id="path4773_5_" class="st0" d="M4423.4-2075.18c-0.11,0.12-0.25,0.18-0.4,0.19c-0.15,0.01-0.28-0.04-0.39-0.15
						c-0.11-0.11-0.16-0.24-0.16-0.4c0-0.16,0.05-0.29,0.16-0.41c0.11-0.12,0.24-0.18,0.39-0.19c0.16-0.01,0.29,0.04,0.4,0.15
						c0.11,0.11,0.16,0.24,0.16,0.39C4423.57-2075.44,4423.52-2075.3,4423.4-2075.18 M4430.6-2069.1l-0.84,0.03v-5.1
						c0-0.5,0.02-0.86,0.05-1.07l-0.02,0l-0.29,0.5l-3.59,5.83l-1.09,0.04v-7.24l0.84-0.04v5.23c0,0.51-0.01,0.84-0.04,1h0.03
						c0.06-0.17,0.14-0.33,0.23-0.47l3.7-5.92l1.02-0.04V-2069.1z M4436.06-2075.8l-2.96,0.12v2.53l2.59-0.11v0.77l-2.59,0.11v2.41
						l2.8-0.12v0.77l-3.64,0.15v-7.24l3.81-0.16V-2075.8z M4441.69-2069.56l-4.98,0.21v-0.77l2.07-0.09v-6.47l0.84-0.04v6.47
						l2.07-0.09V-2069.56z"/>
				</g>
			</g>
		</g>
	</g>
	<g>
		<g>
			<path class="st0" d="M1251.27,621.97c1.86-0.69,3.93-0.57,5.7,0.31l9.03,4.51c2.29,1.15,3.73,3.42,3.73,5.9v29.64
				c0,2.48-1.44,4.76-3.73,5.9l-9.03,4.51c-1.76,0.88-3.84,0.99-5.7,0.31l-25.64-9.48c-2.68-0.99-4.44-3.46-4.44-6.21v-19.71
				c0-2.75,1.77-5.22,4.44-6.21L1251.27,621.97z"/>
		</g>
		<path class="st17" d="M1264.96,628.86l-9.03-4.51c-1.19-0.6-2.6-0.67-3.86-0.21l-25.64,9.48c-1.81,0.67-2.93,2.3-2.93,4.04v19.71
			c0,1.74,1.12,3.37,2.93,4.04l25.64,9.48c1.26,0.47,2.67,0.39,3.86-0.21l9.03-4.51c1.54-0.77,2.45-2.27,2.45-3.84V632.7
			C1267.42,631.12,1266.51,629.63,1264.96,628.86z M1256.97,622.28c-1.76-0.88-3.84-0.99-5.7-0.31l-25.64,9.48
			c-2.68,0.99-4.44,3.46-4.44,6.21v19.71c0,2.75,1.77,5.22,4.44,6.21l25.64,9.48c1.86,0.69,3.93,0.57,5.7-0.31l9.03-4.51
			c2.29-1.15,3.73-3.42,3.73-5.9V632.7c0-2.48-1.44-4.76-3.73-5.9L1256.97,622.28z"/>
		<path class="st18" d="M1232.94,657.33c-0.4,0.35-0.95,0.44-1.44,0.23l-2.52-1.08c-0.52-0.22-0.85-0.74-0.85-1.32v-15.28
			c0-0.58,0.34-1.1,0.85-1.32l2.52-1.08c0.48-0.21,1.04-0.12,1.44,0.23l0.57,0.5c-0.51-0.37-1.21,0-1.21,0.65v17.33
			c0,0.64,0.71,1.02,1.21,0.65L1232.94,657.33z"/>
		<g>
			<path class="st19" d="M1229.01,656.47c-0.54-0.22-0.89-0.75-0.89-1.33v-0.12c0,0.76,0.94,1.13,1.45,0.56l22.38-24.75
				c0.65-0.65,1.64-0.82,2.46-0.42l7.14,3.44c0.75,0.36,1.23,1.12,1.23,1.95v0.08c0-1.15-1.34-1.79-2.23-1.06l-26.84,22l-0.59,0.5
				c-0.41,0.35-0.99,0.45-1.5,0.24L1229.01,656.47z"/>
		</g>
		<g>
			<path class="st20" d="M1229.01,638.56c-0.54,0.22-0.89,0.75-0.89,1.33v0.12c0-0.76,0.94-1.13,1.45-0.56l22.38,24.75
				c0.65,0.65,1.64,0.82,2.46,0.42l7.14-3.44c0.75-0.36,1.23-1.12,1.23-1.95v-0.08c0,1.15-1.34,1.79-2.23,1.06l-26.84-22l-0.59-0.5
				c-0.41-0.35-0.99-0.45-1.5-0.24L1229.01,638.56z"/>
		</g>
		<g>
			<path class="st21" d="M1254.48,664.63c-0.82,0.4-1.8,0.23-2.45-0.42c0.79,0.8,2.15,0.23,2.15-0.9v-31.58
				c0-1.14-1.36-1.71-2.15-0.9c0.64-0.65,1.63-0.82,2.45-0.42l7.09,3.45c0.75,0.36,1.22,1.13,1.22,1.96v23.4
				c0,0.84-0.47,1.6-1.22,1.96L1254.48,664.63z"/>
		</g>
	</g>
</g>
</svg>
