<?xml version="1.0" encoding="utf-8"?>
<!-- Generator: Adobe Illustrator 23.1.1, SVG Export Plug-In . SVG Version: 6.00 Build 0)  -->
<svg version="1.1" id="Layer_1" xmlns="http://www.w3.org/2000/svg" xmlns:xlink="http://www.w3.org/1999/xlink" x="0px" y="0px"
	 viewBox="0 0 1600 500" style="enable-background:new 0 0 1600 500;" xml:space="preserve">
<style type="text/css">
	.st0{fill:url(#SVGID_1_);}
	.st1{fill:#C7B8FF;}
	.st2{fill:url(#SVGID_2_);}
	.st3{fill:#FFFFFF;}
	.st4{fill:#8C6BC2;}
	.st5{fill:#FFB900;}
	.st6{fill:#9E83E3;}
	.st7{fill:#FFD055;}
	.st8{fill:#FFE8AA;}
	.st9{fill:#B5A0F3;}
	.st10{fill:#DED5FF;}
	.st11{fill:#712D8D;}
	.st12{fill:#AE7EC1;}
	.st13{fill:#EFE0EF;}
	.st14{fill:#9251A8;}
	.st15{fill:#A874BB;}
	.st16{fill:none;stroke:#712D8D;stroke-miterlimit:10;}
	.st17{fill:#5F247B;}
	.st18{fill-rule:evenodd;clip-rule:evenodd;fill:#854CC7;}
	.st19{fill:#52218A;}
	.st20{fill:#6C33AF;}
	.st21{fill:#854CC7;}
	.st22{fill:#B179F1;}
</style>
<g>
	
		<radialGradient id="SVGID_1_" cx="1144.208" cy="541.8192" r="475.482" gradientTransform="matrix(1.001 0 0 0.9972 -0.8389 0.6988)" gradientUnits="userSpaceOnUse">
		<stop  offset="0" style="stop-color:#DAD0FF"/>
		<stop  offset="1" style="stop-color:#B4A0FF"/>
	</radialGradient>
	<rect x="-0.27" class="st0" width="1600" height="500"/>
	<g>
		<g>
			<path class="st1" d="M390.82,36.27H58.38c-1.66,0-3-1.34-3-2.99s1.34-2.99,3-2.99h332.44c1.66,0,3,1.34,3,2.99
				S392.48,36.27,390.82,36.27z"/>
		</g>
		<g>
			<path class="st1" d="M469.05,70.78c-0.01,0-0.01,0-0.02,0L58.36,67.94c-1.66-0.01-2.99-1.36-2.98-3.01
				c0.01-1.65,1.35-2.97,3-2.97c0.01,0,0.01,0,0.02,0l410.66,2.83c1.66,0.01,2.99,1.36,2.98,3.01
				C472.04,69.45,470.69,70.78,469.05,70.78z"/>
		</g>
		<g>
			<path class="st1" d="M311.49,99.62H58.38c-1.66,0-3-1.34-3-2.99s1.34-2.99,3-2.99h253.1c1.66,0,3,1.34,3,2.99
				S313.14,99.62,311.49,99.62z"/>
		</g>
		<g>
			<path class="st1" d="M650.07,131.3H504.71c-1.66,0-3-1.34-3-2.99c0-1.65,1.34-2.99,3-2.99h145.36c1.66,0,3,1.34,3,2.99
				C653.07,129.96,651.73,131.3,650.07,131.3z"/>
		</g>
		<g>
			<path class="st1" d="M484.69,131.3H267.81c-1.66,0-3-1.34-3-2.99c0-1.65,1.34-2.99,3-2.99h216.88c1.66,0,3,1.34,3,2.99
				C487.69,129.96,486.35,131.3,484.69,131.3z"/>
		</g>
		<g>
			<path class="st1" d="M247.79,131.3h-49.51c-1.66,0-3-1.34-3-2.99c0-1.65,1.34-2.99,3-2.99h49.51c1.66,0,3,1.34,3,2.99
				C250.79,129.96,249.45,131.3,247.79,131.3z"/>
		</g>
		<g>
			<path class="st1" d="M178.26,131.3H88.42c-1.66,0-3-1.34-3-2.99c0-1.65,1.34-2.99,3-2.99h89.84c1.66,0,3,1.34,3,2.99
				C181.26,129.96,179.92,131.3,178.26,131.3z"/>
		</g>
		<g>
			<path class="st1" d="M503.69,162.97H342.68c-1.66,0-3-1.34-3-2.99c0-1.65,1.34-2.99,3-2.99h161.01c1.66,0,3,1.34,3,2.99
				C506.69,161.63,505.34,162.97,503.69,162.97z"/>
		</g>
		<g>
			<path class="st1" d="M322.66,162.97H183.45c-1.66,0-3-1.34-3-2.99c0-1.65,1.34-2.99,3-2.99h139.21c1.66,0,3,1.34,3,2.99
				C325.66,161.63,324.32,162.97,322.66,162.97z"/>
		</g>
		<g>
			<path class="st1" d="M163.43,162.97H88.42c-1.66,0-3-1.34-3-2.99c0-1.65,1.34-2.99,3-2.99h75.01c1.66,0,3,1.34,3,2.99
				C166.43,161.63,165.09,162.97,163.43,162.97z"/>
		</g>
		<g>
			<path class="st1" d="M818.81,226.32h-78.58c-1.66,0-3-1.34-3-2.99c0-1.65,1.34-2.99,3-2.99h78.58c1.66,0,3,1.34,3,2.99
				C821.81,224.98,820.46,226.32,818.81,226.32z"/>
		</g>
		<g>
			<path class="st1" d="M720.2,226.32H568.42c-1.66,0-3-1.34-3-2.99c0-1.65,1.34-2.99,3-2.99H720.2c1.66,0,3,1.34,3,2.99
				C723.21,224.98,721.86,226.32,720.2,226.32z"/>
		</g>
		<g>
			<path class="st1" d="M548.4,226.32H439.85c-1.66,0-3-1.34-3-2.99c0-1.65,1.34-2.99,3-2.99H548.4c1.66,0,3,1.34,3,2.99
				C551.41,224.98,550.06,226.32,548.4,226.32z"/>
		</g>
		<g>
			<path class="st1" d="M419.83,226.32H273.47c-1.66,0-3-1.34-3-2.99c0-1.65,1.34-2.99,3-2.99h146.37c1.66,0,3,1.34,3,2.99
				C422.83,224.98,421.49,226.32,419.83,226.32z"/>
		</g>
		<g>
			<path class="st1" d="M253.44,226.32h-71.55c-1.66,0-3-1.34-3-2.99c0-1.65,1.34-2.99,3-2.99h71.55c1.66,0,3,1.34,3,2.99
				C256.45,224.98,255.1,226.32,253.44,226.32z"/>
		</g>
		<g>
			<path class="st1" d="M161.87,226.32H88.42c-1.66,0-3-1.34-3-2.99c0-1.65,1.34-2.99,3-2.99h73.46c1.66,0,3,1.34,3,2.99
				C164.87,224.98,163.53,226.32,161.87,226.32z"/>
		</g>
		<g>
			<path class="st1" d="M888.89,258h-308.3c-1.66,0-3-1.34-3-2.99s1.34-2.99,3-2.99h308.3c1.66,0,3,1.34,3,2.99
				S890.55,258,888.89,258z"/>
		</g>
		<g>
			<path class="st1" d="M560.56,258h-74.81c-1.66,0-3-1.34-3-2.99s1.34-2.99,3-2.99h74.81c1.66,0,3,1.34,3,2.99
				S562.22,258,560.56,258z"/>
		</g>
		<g>
			<path class="st1" d="M465.73,258H305.5c-1.66,0-3-1.34-3-2.99s1.34-2.99,3-2.99h160.23c1.66,0,3,1.34,3,2.99
				S467.39,258,465.73,258z"/>
		</g>
		<g>
			<path class="st1" d="M285.47,258h-53.83c-1.66,0-3-1.34-3-2.99s1.34-2.99,3-2.99h53.83c1.66,0,3,1.34,3,2.99
				S287.13,258,285.47,258z"/>
		</g>
		<g>
			<path class="st1" d="M211.62,258h-63.15c-1.66,0-3-1.34-3-2.99s1.34-2.99,3-2.99h63.15c1.66,0,3,1.34,3,2.99
				S213.28,258,211.62,258z"/>
		</g>
		<g>
			<path class="st1" d="M805.03,321.35H581.18c-1.66,0-3-1.34-3-2.99c0-1.65,1.34-2.99,3-2.99h223.85c1.66,0,3,1.34,3,2.99
				C808.03,320.01,806.69,321.35,805.03,321.35z"/>
		</g>
		<g>
			<path class="st1" d="M561.16,321.35H452.01c-1.66,0-3-1.34-3-2.99c0-1.65,1.34-2.99,3-2.99h109.14c1.66,0,3,1.34,3,2.99
				C564.16,320.01,562.81,321.35,561.16,321.35z"/>
		</g>
		<g>
			<path class="st1" d="M431.99,321.35H289.85c-1.66,0-3-1.34-3-2.99c0-1.65,1.34-2.99,3-2.99h142.14c1.66,0,3,1.34,3,2.99
				C434.99,320.01,433.65,321.35,431.99,321.35z"/>
		</g>
		<g>
			<path class="st1" d="M269.83,321.35h-68.66c-1.66,0-3-1.34-3-2.99c0-1.65,1.34-2.99,3-2.99h68.66c1.66,0,3,1.34,3,2.99
				C272.83,320.01,271.49,321.35,269.83,321.35z"/>
		</g>
		<g>
			<path class="st1" d="M181.15,321.35H88.42c-1.66,0-3-1.34-3-2.99c0-1.65,1.34-2.99,3-2.99h92.74c1.66,0,3,1.34,3,2.99
				C184.15,320.01,182.81,321.35,181.15,321.35z"/>
		</g>
		<g>
			<path class="st1" d="M732.76,353.03H614.91c-1.66,0-3-1.34-3-2.99s1.34-2.99,3-2.99h117.85c1.66,0,3,1.34,3,2.99
				S734.42,353.03,732.76,353.03z"/>
		</g>
		<g>
			<path class="st1" d="M594.89,353.03H381.65c-1.66,0-3-1.34-3-2.99s1.34-2.99,3-2.99h213.25c1.66,0,3,1.34,3,2.99
				S596.55,353.03,594.89,353.03z"/>
		</g>
		<g>
			<path class="st1" d="M361.62,353.03h-84.08c-1.66,0-3-1.34-3-2.99s1.34-2.99,3-2.99h84.08c1.66,0,3,1.34,3,2.99
				S363.28,353.03,361.62,353.03z"/>
		</g>
		<g>
			<path class="st1" d="M257.52,353.03H148.48c-1.66,0-3-1.34-3-2.99s1.34-2.99,3-2.99h109.04c1.66,0,3,1.34,3,2.99
				S259.18,353.03,257.52,353.03z"/>
		</g>
		<g>
			<path class="st1" d="M571.85,416.38H323.81c-1.66,0-3-1.34-3-2.99s1.34-2.99,3-2.99h248.04c1.66,0,3,1.34,3,2.99
				S573.51,416.38,571.85,416.38z"/>
		</g>
		<g>
			<path class="st1" d="M838.13,416.38H590.09c-1.66,0-3-1.34-3-2.99s1.34-2.99,3-2.99h248.04c1.66,0,3,1.34,3,2.99
				S839.79,416.38,838.13,416.38z"/>
		</g>
		<g>
			<path class="st1" d="M303.79,416.38h-65.22c-1.66,0-3-1.34-3-2.99s1.34-2.99,3-2.99h65.22c1.66,0,3,1.34,3,2.99
				S305.45,416.38,303.79,416.38z"/>
		</g>
		<g>
			<path class="st1" d="M765.17,448.05H612.99c-1.66,0-3-1.34-3-2.99c0-1.65,1.34-2.99,3-2.99h152.18c1.66,0,3,1.34,3,2.99
				C768.17,446.72,766.83,448.05,765.17,448.05z"/>
		</g>
		<g>
			<path class="st1" d="M592.97,448.05H339.98c-1.66,0-3-1.34-3-2.99c0-1.65,1.34-2.99,3-2.99h252.99c1.66,0,3,1.34,3,2.99
				C595.97,446.72,594.62,448.05,592.97,448.05z"/>
		</g>
		<g>
			<path class="st1" d="M319.95,448.05h-81.38c-1.66,0-3-1.34-3-2.99c0-1.65,1.34-2.99,3-2.99h81.38c1.66,0,3,1.34,3,2.99
				C322.96,446.72,321.61,448.05,319.95,448.05z"/>
		</g>
		<g>
			<path class="st1" d="M663.48,479.73H238.57c-1.66,0-3-1.34-3-2.99s1.34-2.99,3-2.99h424.91c1.66,0,3,1.34,3,2.99
				S665.14,479.73,663.48,479.73z"/>
		</g>
	</g>
	<linearGradient id="SVGID_2_" gradientUnits="userSpaceOnUse" x1="1194.2141" y1="290.5142" x2="1194.2141" y2="498.3801">
		<stop  offset="0" style="stop-color:#B4A0FF"/>
		<stop  offset="1" style="stop-color:#BCABFF"/>
		<stop  offset="1" style="stop-color:#B4A0FF"/>
	</linearGradient>
	<path class="st2" d="M855.08,498.38h678.27c-4.17-7.04-11.64-11.9-20.31-12.41c1.2-2.57,1.87-5.44,1.87-8.46
		c0-11.15-9.08-20.19-20.27-20.19c-0.28,0-0.56,0.01-0.84,0.02v-1.35c-3.57-15.13-16.44-26.88-32.57-28.54
		c1.66-3.1,2.69-6.59,2.89-10.33c0.75-13.71-9.8-25.44-23.56-26.18c-6.3-0.34-12.18,1.68-16.78,5.28
		c-1.58-20.57-18.24-37.29-39.48-38.45c-16.99-0.92-32.16,8.38-39.51,22.52c-3.41-1.87-7.28-3.02-11.42-3.25
		c-2.41-0.13-4.76,0.07-7.02,0.54c0.94-2.97,1.52-6.11,1.7-9.37c1.15-21.06-15.05-39.06-36.19-40.21
		c-4.09-0.22-8.06,0.21-11.81,1.19c-4.21-9.46-13.46-16.28-24.53-16.89c-3.6-0.2-7.07,0.29-10.31,1.33
		c-4.81-12.82-16.87-22.26-31.47-23.06c-19.67-1.07-36.48,13.94-37.55,33.53c-0.2,3.67,0.17,7.24,1.02,10.63
		c-9.67,1.98-17.18,10.25-17.75,20.54c-0.11,1.95,0.06,3.86,0.44,5.69c-0.13,0.07-0.26,0.14-0.39,0.22
		c-2.62-0.84-5.39-1.37-8.27-1.52c-13.39-0.73-25.33,6.61-31.11,17.75c-3.94-0.57-9.33-1.4-15.47-2.35
		c1.02-3.82,1.57-7.83,1.57-11.97c0-25.63-20.86-46.41-46.59-46.41c-24.09,0-43.9,18.21-46.33,41.56c-1.72-0.33-3.47-0.55-5.27-0.65
		c-21.63-1.18-40.12,15.34-41.31,36.89c-0.14,2.62-0.01,5.18,0.35,7.68c-9.57,3.88-17.38,11.15-21.93,20.31
		c-3.57-1.83-7.57-2.96-11.83-3.19c-15.73-0.86-29.25,10.76-30.86,26.2c-2.25-0.74-4.64-1.2-7.12-1.33
		c-15.24-0.83-28.27,10.81-29.1,25.99c-0.33,5.93,1.26,11.52,4.22,16.18C864.33,488.95,859.04,493.14,855.08,498.38z"/>
	<path class="st3" d="M1379.31,434.33c-8.8,0-16.99,2.55-23.9,6.93c-5.43-14.01-19.05-23.95-35.02-23.95
		c-1.07,0-2.13,0.06-3.18,0.15c0.02-0.39,0.03-0.77,0.03-1.16c0-15.49-12.6-28.04-28.15-28.04c-8.24,0-15.65,3.53-20.8,9.15
		c-4.21-13.39-16.76-23.11-31.59-23.11c-4.25,0-8.32,0.81-12.05,2.27c0.83-3.05,1.29-6.25,1.29-9.56
		c0-20.11-16.35-36.42-36.52-36.42c-18.8,0-34.28,14.18-36.29,32.39c-4.83-1.78-10.06-2.75-15.51-2.75
		c-14.73,0-27.8,7.08-35.98,18.02c-4.03-10.58-14.28-18.1-26.3-18.1c-15.54,0-28.13,12.56-28.13,28.05c0,4.22,0.94,8.22,2.61,11.8
		c-0.33-0.02-0.66-0.05-1-0.05c-4.01,0-7.63,1.6-10.29,4.19c-7.27-3.93-15.6-6.16-24.45-6.16c-28.42,0-51.45,22.97-51.45,51.31
		c0,4.02,0.48,7.92,1.35,11.67c-12.54,2.83-21.91,14-21.91,27.35c0,3.55,0.67,6.94,1.88,10.06h475.59
		c3.36-5.98,4.36-13.45,4.36-19.58C1423.9,454.24,1403.94,434.33,1379.31,434.33z"/>
	<polygon class="st4" points="1183.64,202.36 1121.36,202.36 1114.31,186.29 1190.46,186.86 	"/>
	<path class="st5" d="M1182.02,191.81h-58.64c-5.79,0-10.48-4.69-10.48-10.48V86.37c0-5.72,4.64-10.36,10.36-10.36h58.75
		c5.79,0,10.48,4.69,10.48,10.48v94.84C1192.5,187.11,1187.81,191.81,1182.02,191.81z"/>
	<path class="st4" d="M1114.56,80.56l34.45-48.02c1.16-1.61,4.89-1.6,6.07,0l35.34,47.72L1114.56,80.56z"/>
	<rect x="1121.14" y="202.36" class="st5" width="62.49" height="188.89"/>
	<rect x="1120.16" y="369.55" class="st5" width="65.36" height="27.33"/>
	<path class="st6" d="M1334.52,434.62h-97.94c-2.55,0-4.63,2.07-4.63,4.63v11.08c0,2.55,2.07,4.63,4.63,4.63h97.94
		c2.55,0,4.63-2.07,4.63-4.63v-11.08C1339.14,436.69,1337.07,434.62,1334.52,434.62z"/>
	<polygon class="st6" points="1125.78,448.19 1090.36,448.19 1098.43,418.58 1117.72,418.58 	"/>
	<polygon class="st6" points="1214.41,448.19 1178.99,448.19 1187.06,418.58 1206.35,418.58 	"/>
	<polygon class="st6" points="1170.04,448.19 1134.61,448.19 1142.68,418.58 1161.97,418.58 	"/>
	<path class="st7" d="M1094.11,424.21h27.67V277.92l-25.15,20.24c-1.59,1.28-2.51,3.21-2.51,5.24V424.21z"/>
	<path class="st7" d="M1210.53,424.21h-27.67V277.92l23.94,19.26c2.36,1.9,3.73,4.75,3.73,7.77V424.21z"/>
	<path class="st7" d="M1166.16,303.12c0-1.76-0.48-3.49-1.4-4.99l-10.92-17.91c-0.64-1.05-2.17-1.06-2.81-0.01l-10.92,17.61
		c-1.06,1.71-1.62,3.67-1.62,5.67l-0.04,120.66h27.7L1166.16,303.12z"/>
	<rect x="1182.87" y="401.83" class="st4" width="27.67" height="22.37"/>
	<rect x="1138.46" y="401.83" class="st4" width="27.69" height="22.32"/>
	<rect x="1094.11" y="401.83" class="st4" width="27.67" height="22.37"/>
	<g>
		<rect x="1094.11" y="370.49" class="st8" width="27.67" height="1.61"/>
		<rect x="1094.11" y="309.4" class="st8" width="27.67" height="1.61"/>
		<rect x="1094.11" y="339.94" class="st8" width="27.67" height="1.61"/>
	</g>
	<g>
		<rect x="1138.47" y="370.49" class="st8" width="27.68" height="1.61"/>
		<rect x="1138.48" y="339.94" class="st8" width="27.68" height="1.61"/>
		<rect x="1138.49" y="309.4" class="st8" width="27.67" height="1.61"/>
	</g>
	<g>
		<rect x="1182.87" y="370.49" class="st8" width="27.67" height="1.61"/>
		<rect x="1182.87" y="339.94" class="st8" width="27.67" height="1.61"/>
		<rect x="1182.87" y="309.4" class="st8" width="27.67" height="1.61"/>
	</g>
	<g>
		<path class="st8" d="M1164.45,269.02c0,0.43-0.16,0.8-0.47,1.11c-0.31,0.31-0.68,0.46-1.12,0.46s-0.81-0.15-1.12-0.46
			c-0.32-0.31-0.47-0.67-0.47-1.11c0-0.44,0.16-0.82,0.47-1.13c0.32-0.31,0.69-0.46,1.12-0.46s0.81,0.16,1.12,0.46
			C1164.29,268.2,1164.45,268.58,1164.45,269.02z"/>
		<path class="st8" d="M1164.14,246.98v2.9l-16.16,10.39c-0.41,0.26-0.83,0.48-1.27,0.65v0.08c0.43-0.07,1.36-0.11,2.79-0.11h14.65
			v2.37h-20.27v-3.07l15.9-10.11c0.66-0.42,1.11-0.69,1.36-0.82v-0.06c-0.58,0.09-1.58,0.14-2.98,0.14h-14.28v-2.37H1164.14z"/>
		<path class="st8" d="M1164.14,230.98v10.7h-20.27v-10.25h2.15v7.89h6.74v-7.29h2.14v7.29h7.1v-8.34H1164.14z"/>
		<path class="st8" d="M1146.01,215.1v5.83h18.12v2.37h-18.12v5.82h-2.15V215.1H1146.01z"/>
	</g>
	<g>
		<g>
			<g>
				<path class="st8" d="M1169.86,128.21c-0.01-0.99-0.82-1.78-1.81-1.78l-29.52,0.17c-0.48,0-0.93,0.19-1.27,0.53
					c-0.34,0.34-0.52,0.79-0.52,1.27l0.1,18.57c0,0.38,0.15,0.75,0.43,1.02c0.27,0.27,0.63,0.42,1.01,0.42c0,0,0.01,0,0.01,0
					l11.49-0.07v3.83h-3.16c-0.78,0-1.41,0.63-1.41,1.4s0.63,1.4,1.41,1.4h13.7c0.78,0,1.41-0.63,1.41-1.4s-0.63-1.4-1.41-1.4h-3.16
					v-3.87l11.36-0.07c0.8,0,1.44-0.65,1.44-1.45L1169.86,128.21z"/>
				<path class="st8" d="M1165.01,167.63c-0.48-1.51-1.87-2.52-3.46-2.52h-2.51c-0.66,0-1.23,0.42-1.42,1.04l-7.96-0.01
					c-0.24-0.58-0.97-1.03-1.65-1.03h-2.17c-1.59,0-2.98,1.01-3.46,2.52l-3.34,10.49c-0.61,1.9,0.45,3.94,2.36,4.54
					c0.36,0.11,0.73,0.17,1.1,0.17c1.09,0,2.26-0.61,2.96-1.53l3.53-3.86c0.23-0.26,0.57-0.4,0.91-0.4h7.6
					c0.35,0,0.68,0.15,0.91,0.4l3.54,3.87c0.7,0.71,1.66,1.52,2.95,1.52c0.37,0,0.74-0.06,1.1-0.17c1.91-0.6,2.97-2.64,2.36-4.54
					L1165.01,167.63z"/>
				<path class="st8" d="M1147.09,115.38c0.41,0.4,0.94,0.62,1.52,0.62c0,0,0.01,0,0.01,0l9.78-0.04c1.19,0,2.15-0.97,2.14-2.15
					l-0.07-23.26c0-0.57-0.23-1.11-0.64-1.51c-0.41-0.4-0.95-0.59-1.52-0.62l-9.78,0.04c-1.19,0-2.15,0.97-2.14,2.15l0.07,23.26
					C1146.46,114.44,1146.68,114.97,1147.09,115.38z"/>
			</g>
			<path class="st5" d="M1158.51,91.07c0-0.12-0.09-0.22-0.2-0.22l-1.51,0.01l-0.47,1.19c-0.07,0.19-0.24,0.31-0.43,0.31h-4.87
				c-0.2,0-0.37-0.13-0.44-0.34l-0.39-1.14l-1.59,0.01c-0.11,0-0.2,0.1-0.2,0.22l0.13,22.13c0,0.12,0.09,0.21,0.19,0.21l9.6,0.14
				c0.11,0,0.2-0.1,0.2-0.22L1158.51,91.07z"/>
		</g>
		<polygon class="st5" points="1167.64,145.9 1139.2,146.07 1139.08,128.87 1167.52,128.7 		"/>
		<g>
			<ellipse class="st5" cx="1146.84" cy="169.8" rx="2.51" ry="2.5"/>
			<ellipse class="st5" cx="1160.63" cy="169.8" rx="2.51" ry="2.5"/>
			<path class="st5" d="M1155.74,170.18h-4.19c-0.41,0-0.75-0.34-0.75-0.75l0,0c0-0.41,0.34-0.75,0.75-0.75h4.19
				c0.41,0,0.75,0.34,0.75,0.75l0,0C1156.49,169.84,1156.16,170.18,1155.74,170.18z"/>
			<ellipse class="st5" cx="1150.06" cy="174.26" rx="1.17" ry="1.17"/>
			<ellipse class="st5" cx="1157.5" cy="174.26" rx="1.17" ry="1.17"/>
		</g>
	</g>
	<path class="st9" d="M1035.22,447.38c-2,0-3.81,1.17-4.64,2.98l-21.73,48.02h384.5l-21.72-48.01c-0.82-1.82-2.64-2.99-4.64-2.99
		H1035.22z"/>
	<polygon class="st6" points="1227.65,171.17 1220.68,162.43 1244.66,162.43 1244.66,158.13 1187.02,158.13 1187.02,153.53 
		1182.7,153.53 1182.7,167.13 1187.02,167.13 1187.02,162.43 1215.17,162.43 1225.56,175.47 1245.57,175.47 1245.57,171.17 	"/>
	<polygon class="st6" points="1227.65,246.41 1220.68,237.66 1244.66,237.66 1244.66,233.36 1187.02,233.36 1187.02,228.76 
		1182.7,228.76 1182.7,242.36 1187.02,242.36 1187.02,237.66 1215.17,237.66 1225.56,250.71 1245.57,250.71 1245.57,246.41 	"/>
	<path class="st6" d="M1287.97,245.22V134.85l-40.56-40.41h-3.5v345.69l83.8-0.23V284.81L1287.97,245.22z M1287.97,251.3
		l32.98,32.85h-32.98V251.3z M1248.23,101.34l32.38,32.25h-32.38V101.34z M1248.23,137.89h35.43v33.32h-35.43V137.89z
		 M1248.23,175.5h35.43v33.32h-35.43V175.5z M1248.23,213.12h35.43v31.29v2.03h-35.43V213.12z M1248.23,250.74h35.43v33.32h-35.43
		V250.74z M1248.23,288.45h35.43v33.32h-35.43V288.45z M1248.23,326.07h35.43v33.32h-35.43V326.07z M1248.23,363.68h35.43v33.35
		h-35.43V363.68z M1283.66,434.84h-35.42v-33.38h35.42V434.84z M1323.34,434.84h-35.42v-33.38h35.42V434.84z M1323.4,397.04h-35.43
		v-33.35h35.43V397.04z M1323.4,359.39h-35.43v-33.32h35.43V359.39z M1323.4,321.77h-35.43v-33.32h35.43V321.77z"/>
	<rect x="1248" y="363.49" class="st10" width="75.26" height="71.38"/>
	<g id="g4493_6_" transform="matrix(0.35277777,0,0,-0.35277777,-83.079201,186.9333)">
		<g id="g4495_6_">
			<g id="g4497_6_">
				<g id="g4503_6_" transform="translate(114.9531,127.7212)">
					<path id="path4505_6_" class="st11" d="M3769.72-713.12l0.43-0.08l0.56,0.11l2.38-1.95l-0.45,2.33l18.83,3.72l-16.19,1.18
						c0.14,0.94,0.16,1.82,0.08,2.63l0.12,0.02l-0.14,0.25c-0.12,0.87-0.36,1.67-0.74,2.39c-1.1,2.1-2.87,2.71-3.22,2.81l-0.3,0.09
						l-0.39,0.01c-3.24,0-4.84-3.01-4.95-5.79C3765.44-712.12,3769.28-713.04,3769.72-713.12"/>
				</g>
				<g id="g4507_6_" transform="translate(189.2061,72.1934)">
					<path id="path4509_6_" class="st11" d="M3758.63-704.64c-0.07-0.04-0.28-0.13-0.77-0.15c-0.27,0.21-1.16,1.09-2.06,4.07
						c-0.16,0.65-0.45,2.52-0.12,3.94c0.06,0.06,0.13,0.14,0.21,0.19c0.31-0.6,0.77-1.81,1.14-4c0.06-0.58,0.34-1.93,1.61-3.66
						C3758.65-704.41,3758.65-704.56,3758.63-704.64 M3742.84-690.84c0.19,0.15,0.64,0.44,1.62,0.73c0.29,0.08,1.18,0.33,2.07,0.65
						c-0.06-0.21-0.16-0.48-0.34-0.84c-0.46-0.46-1.38-1.15-2.15-1.15C3743.9-691.45,3743.47-691.45,3742.84-690.84 M3742.43-675.42
						c-0.09,1.46,0.2,2.57,0.86,3.29c1.02,1.12,2.77,1.24,3.1,1.25c0.83-0.09,1.45-0.31,1.83-0.67c-2.11-0.21-3.3-1.21-3.94-2.06
						c-0.66-0.88-0.96-1.88-1.07-2.82C3742.82-676.09,3742.56-675.67,3742.43-675.42 M3731.3-668.89c-1.56,0.13-2.27,2.13-2.47,2.78
						c0.15,3.83,3.47,4.62,4.48,4.78c0.6-0.07,1.04-0.39,1.35-0.8c-1.73-0.44-2.64-1.4-3.11-2.25
						C3730.74-665.85,3730.9-667.52,3731.3-668.89 M3705.06-692.76c-0.65-0.22-8.48-2.8-17.95-2.8c-8.8,0-16.21,2.16-22.02,6.43
						l-0.12,0.08c-0.14,0.09-11.55,7.53-17.33,21.08c6.06-4.78,16.58-10.1,33.41-10.1c2.81,0,5.74,0.15,8.71,0.45
						c0.84,0.04,7.61,0.43,15.72,3.13c7.16,2.38,13.2,5.87,17.9,10.29v-0.29c0-0.46,0.06-4.1,1.8-6.74
						C3724.09-674.78,3719.41-686.93,3705.06-692.76 M3739.1-726.8c-7.96,0-13.66-1.12-16.94-3.33l-0.12-0.08l-0.11-0.09
						c-0.72-0.63-3.99-4.26-4.25-18.38c-1.52,1.65-2.73,3.13-2.97,3.79c-0.06,0.49-1.58,14.12,3.24,26.98
						c0.34,0.57,2.15,3.43,4.84,3.43c0.85,0,1.76-0.28,2.72-0.83c1.21-1.09,8.01-7.1,15.65-11.5
						C3740.49-726.8,3739.8-726.8,3739.1-726.8 M3744.5-757.28l-0.4-0.08l-0.34-0.22c-0.68-0.43-2.07-0.8-3.44-1.07
						c-1.33,9.48-6.62,17.65-9.44,21.43c1.73,0.56,4.79,1.11,10.11,1.11c2.13,0,3.82-0.1,4.33-0.13c1.34-0.33,2.44-1.34,3.33-2.75
						l3.46-13.11c0.1-1.08,0.15-2.08,0.18-2.93C3750.83-755.68,3747.6-756.62,3744.5-757.28 M3726.43-752.44
						c0.29,2.67,0.8,6.69,1.39,9.95c2.24-3.19,5.23-8.24,6.61-14C3731.95-755.13,3728.83-753.47,3726.43-752.44 M3715.31-708.12
						c0.24,0.35,1.8,2.43,4.76,2.67c0.4-0.64,0.96-1.87,1.07-3.91c-1.69-0.34-3.99-1.21-6.08-3.37
						C3714.65-711.43,3714.5-709.78,3715.31-708.12 M3664.96-748.16l-0.28-0.13c0.1,8.33-1.26,15.24-1.33,15.57l-0.1,0.48l-0.29,0.4
						c-0.67,0.93-1.21,1.66-13.78,3.06c-2.17,0.24-4.33,0.46-6.19,0.64c5.14,4.89,8.4,9.7,8.57,9.95l0.05,0.08
						c2.91,4.76,5.32,5.13,5.99,5.13c0.08,0,0.14,0,0.18-0.01l0.14-0.08l0.44-0.02c4.99-0.26,5.39-4.3,5.42-5.09l0-0.28l0.08-0.27
						C3665.62-725.05,3665.13-743.06,3664.96-748.16 M3655.43-750.87l-6.46-2.69c1.24,3.72,3.28,8.42,6.04,11.51
						C3655.32-743.97,3655.58-746.84,3655.43-750.87 M3630.47-749.28l0.02,0.12c0.01,0.07,0.99,7.04,5.94,11.51
						c4.21-0.19,10.16-0.6,14.23-1.17c-2.34-2.79-5.35-7.75-7.79-16.31c-1.62,0.3-5.1,1.14-12.37,3.48
						C3630.38-751.44,3630.2-750.73,3630.47-749.28 M3657.99-735.29c0.14-0.02,0.28-0.04,0.41-0.06c0.04-0.13,0.07-0.25,0.11-0.38
						c-0.11,0.12-0.22,0.21-0.32,0.29L3657.99-735.29z M3666.74-711.35c-1.73,1.95-4,3.03-6.2,3.49c0.64,1.88,1.92,2.92,2.65,3.39
						c1.86-0.55,2.66-1.57,2.77-1.72l0.03-0.05C3667.09-707.87,3667.09-709.74,3666.74-711.35 M3638.12-702.07
						c-0.07-0.08-0.22-0.24-0.54-0.46c-0.22-0.08-0.84-0.29-1.63-0.29c-1.69,0-3.19,0.92-4.47,2.74v0.48
						c0.3,0.49,0.98,1.37,1.96,1.37c0.7-0.72,1.88-1.68,3.93-3.04C3637.66-701.49,3638.01-701.85,3638.12-702.07 M3622.75-714.57
						c-0.32-0.31-0.96-0.79-1.59-0.79c-0.19,0-0.38,0.05-0.59,0.14c0.06,0.13,0.15,0.31,0.29,0.52c0.54,0.85,2.71,4.45,3.07,7.97
						c0.01-0.06,0.03-0.14,0.04-0.22l0.01-0.13l0.06-0.18C3624.12-707.55,3624.75-710.3,3622.75-714.57 M3615.48-712.67
						c0.46,0.4,1.02,0.91,1.62,1.52c-0.24-0.46-0.52-0.95-0.83-1.45C3616.02-712.64,3615.72-712.68,3615.48-712.67 M3645.93-657.45
						c0.46-0.52,11.6-12.65,37.34-12.65c1.48,0,3.01,0.04,4.51,0.12c0.94,0.04,22.62,1.19,35.52,14.32c0.16-0.05,0.34-0.1,0.53-0.15
						c-3.87-5.29-15.51-16.85-43.27-16.85c-1.18,0-2.4,0.02-3.58,0.06c-0.24,0.01-23.84,1.31-31.74,15.92L3645.93-657.45z
						 M3656.41-622.75c5.55,7.67,12.86,12.47,21.75,14.29l0.6-0.91c0.14-0.21,3.39-5.06,8.66-5.06h0c2.72,0,5.37,1.28,7.87,3.81
						l0.39,0.39l0.16,0.52c0.09,0.3,0.36,1.23,0.44,2.38c6.93-0.93,25.33-4.98,32.28-22.1l0.08-0.18
						c0.06-0.11,5.44-10.83,2.81-26.51c-0.4-0.09-0.84-0.21-1.3-0.37l-0.01,0.88c0.03,0.05,0.05,0.09,0.08,0.14l0.25,0.44l0.03,0.5
						c0.01,0.12,0.05,0.72,0.09,1.69l0.3,0.67l-0.27,0.03c0.15,4.57,0.15,14.67-2.22,21.45c-0.33,1.47-1.73,3.41-4.57,3.41
						c-1.38,0-2.95-0.45-4.76-1.37c-0.23-0.12-23.75-11.51-45.84-11.52c-9.19,0-16.84,1.97-22.77,5.87
						C3651.19-632.04,3653-627.45,3656.41-622.75 M3687.8-590.2c0.82,0.42,1.56,0.64,2.14,0.64c0.8,0,1.23-0.45,1.44-0.77
						c0.08-1.67-0.22-2.9-0.92-3.66c-0.83-0.9-2.08-1-2.46-1.01c-0.43,0.11-0.97,0.52-1.28,0.84
						C3685.73-592.14,3687.18-590.7,3687.8-590.2 M3660.01-644.16l-0.15-0.03c-0.32-0.08-1.94-0.59-2.97-2.47
						c-0.87-1.59-1.01-3.64-0.44-6.1c-0.03-0.05-0.06-0.1-0.08-0.15c-0.44-0.84-0.39-1.83,0.14-2.71l0.55-0.92l1.07-0.15
						c0.07-0.01,0.45-0.06,0.98-0.06c0.03,0,0.07,0,0.1,0l1.91-2.8c-0.38-0.27-0.78-0.54-1.19-0.83c-1.96,0.89-6.02,2.9-8.62,5.34
						c-0.48,1.73-1.91,7.81-0.05,13.7c1.87-0.82,4.83-1.91,8.83-2.79C3660.06-644.15,3660.04-644.16,3660.01-644.16 M3717.89-635.26
						c0.92-4.02,2.46-11.74,1.96-16.67c-1.88-2.05-11.38-11.1-33.86-12.95c-2.3,2.32-8.81,8.64-13.17,10.29
						c-0.33,0.16-0.75,0.27-1.27,0.27c-1.17,0-3.38-0.52-9.27-4.46l-0.28,2.61c1.48,0.7,2.44,1.99,2.65,3.71
						c0.09,0.5,0.23,1.42,0.25,2.47l0.35,0.04l-0.36,0.69c-0.05,1.36-0.34,2.82-1.19,3.84c-0.24,0.29-0.51,0.53-0.81,0.72
						c3.29-0.56,7.15-0.93,11.56-0.93C3687.97-645.63,3702.57-642.14,3717.89-635.26 M3723.58-633.53c0.51-1.66,0.94-4.25,1.27-7.27
						C3724.44-638.01,3723.95-635.39,3723.58-633.53 M3671.13-659.78c1.55-0.69,3.96-2.52,6.27-4.49c-5.05,0.42-8.72,1.15-11.17,1.8
						C3668.81-660.75,3670.4-660.05,3671.13-659.78 M3729.58-656.56l0.22-0.06c-0.11-0.04-0.22-0.08-0.33-0.13
						C3729.51-656.69,3729.55-656.63,3729.58-656.56 M3631.22-693.47c-0.3-0.08-0.58-0.18-0.85-0.29c0.13,0.26,0.24,0.51,0.35,0.75
						C3630.91-693.17,3631.08-693.32,3631.22-693.47 M3626.75-702.01c-0.01-0.01-0.02-0.02-0.03-0.03
						c-0.67,0.46-1.46,0.76-2.36,0.89c0.77,0.63,1.47,1.27,2.09,1.91C3626.4-700.31,3626.57-701.3,3626.75-702.01 M3760.32-692.58
						c-0.81,0.56-1.85,1.78-2.47,2.86l-0.02,0.04c-1.35,2.29-1.61,4.01-1.58,5.06c0.79-0.56,1.94-2.07,2.64-3.55l0.05-0.1
						C3760.1-690.44,3760.35-691.83,3760.32-692.58 M3751.86-689.13c0.34-0.91,0.79-1.88,1.39-2.89c-0.65-0.29-1.25-0.69-1.79-1.17
						c-0.15,0.23-0.29,0.47-0.42,0.73C3751.55-691.53,3751.9-690.38,3751.86-689.13 M3750.88-685.93c0.06,0.05,0.12,0.1,0.18,0.15
						c0.02-0.21,0.05-0.41,0.08-0.63C3751.06-686.25,3750.98-686.09,3750.88-685.93 M3764.86-692.39c-0.01,1.78-0.64,3.85-1.88,6.19
						c-0.44,0.92-2.17,4.26-4.82,5.69l-0.84,1.07l-0.48,0.61l-1.17,1.49l-0.41,0.68l-0.13,0.01l-1.31,1.67l-0.18,0.31
						c-0.04,0.06-0.15,0.24-0.34,0.48c0.1,0.77,0.26,3.16-1.28,5.19c-0.8,1.05-2.35,2.34-5.19,2.63l-1.74,0.72
						c-0.27,0.15-0.63,0.32-1.09,0.45l-4.08,1.67c-0.27,1.98-1.38,4.92-4.08,6.16c2.97,16.78-2.48,28.45-3.11,29.73
						c-4.03,9.87-12.06,17.35-23.22,21.62c-8.35,3.2-15.46,3.48-15.76,3.49l-0.93,0.03l-0.43,0.26l0,4.01
						c0.49,0.31,0.97,0.7,1.41,1.18c1.65,1.79,2.35,4.33,2.07,7.53l-0.03,0.32l-0.11,0.3c-0.56,1.44-2.4,3.87-5.8,3.87
						c-1.39,0-2.88-0.42-4.44-1.25l-0.13-0.07l-0.12-0.09c-1.98-1.42-5.03-5.37-2.4-10.1l0.1-0.17l0.13-0.15
						c0.09-0.11,0.53-0.63,1.24-1.19c-0.06-0.2-0.12-0.42-0.19-0.62l-0.53-1.59l0.02-0.02c-0.28-0.83-0.4-1.4-0.38-1.88
						c-0.55-0.3-1.04-0.7-1.47-1.16l-0.49-0.05c-11.77-1.31-21.67-7.14-28.65-16.86c-5.23-7.29-6.97-14.14-7.04-14.43l-0.36-1.46
						l1.21-0.9c0.42-0.31,0.84-0.61,1.27-0.89c-1.87-4.33-2.11-8.8-1.83-12.34c-1.46-0.59-2.94-1.75-3.83-2.53l-0.35-0.31
						l-0.83-1.83l-0.36-4.92c0.68-3.83,1.81-7.34,3.22-10.52c-1.44-1.95-1.15-4.85-0.85-6.39l-1.59-1.37l-0.2,0.02l-1.89-1.58
						c-0.54-0.03-1.11-0.11-1.7-0.25l-0.07-0.02c-1.47-0.38-4.12-2.09-4.71-6.13l-0.01-0.04l-0.57-0.23
						c-0.12-0.05-0.47-0.2-0.91-0.43l-2.38-0.03l-0.64-0.25l-0.66-0.1c-0.79-0.28-2.13-0.87-3.63-2.02l-0.45-0.42l-0.86-0.69
						c-2.15-2.04-4.4-5.29-5.75-10.36l-0.26-1.42l-0.3-0.74l-0.04-0.16c-0.66-0.79-1.87-1.97-3.87-3.04l-0.28-0.15l-0.23-0.22
						c-0.63-0.62-2.1-2.25-1.98-4.11c0.05-0.72,0.32-1.38,0.79-1.91c-0.03-1.29,0.32-2.37,1.05-3.22c0.61-0.71,1.78-1.56,3.86-1.56
						c0.23,0,0.46,0.01,0.67,0.03c0.33-0.72,0.81-1.16,1.12-1.38c1.18-0.89,2.47-1.34,3.8-1.34c3.03,0,5.03,2.33,5.25,2.6l0.17,0.2
						l0.12,0.24c2.47,5.06,2.14,8.81,1.85,10.28c0.44,0.36,0.98,0.84,1.47,1.4c2.1-1.74,4.27-2.18,5.93-2.18
						c2.06,0,3.54,0.7,3.71,0.78l0.19,0.11c2.32,1.43,2.83,3.11,2.85,4.27c0.05,2.64-2.31,4.34-2.79,4.66
						c-1.21,0.81-1.99,1.39-2.49,1.8l0.61,0.8l0.62,0.62l0.01,0.21l0.87,1.14c0.15-0.01,0.3-0.02,0.47-0.02
						c2.73,0,5.74,1.72,6.03,6.54l0.91,1.14l0.69,0.47l0.54,1.04c0.39-0.08,0.81-0.12,1.25-0.12c1.06,0,2.06,0.23,2.66,0.41
						c3.01-3.48,5.94-6.01,7.92-7.56l-0.82-1.94l-0.01,0l-0.5-1.1c-0.54-1.2-0.9-2.09-1.13-2.77l-0.05-0.12l0.01,0
						c-0.18-0.53-0.28-0.92-0.33-1.22l-0.11-0.04l-0.88-2.18c-1.13-0.49-2.11-1.2-2.94-2.11c-3.2-3.53-2.7-8.84-2.68-9.07l0.04-0.36
						c-0.93-0.97-1.89-2.19-2.84-3.74c-0.37-0.54-5.03-7.24-11.68-12.42l-0.59-0.46l-0.18-0.12c-0.1-0.07-0.25-0.18-0.42-0.35
						l-1.18-1.54l-0.18-1.26c-0.13-0.67-0.2-1.48-0.15-2.44c-5.94-5.37-7.25-13.31-7.38-14.19c-1.06-5.71,2.16-7.15,2.98-7.42l0,0
						c6.56-2.11,11.16-3.37,13.72-3.77l1.06-0.09l15.17,5.46l0.86-0.13l0.61-0.16l1.29-0.13l1.96,0.93l5.73,2.72l0.06,1.36
						c0.04,0.95,0.96,22.62-0.98,31.31l0.38,0.56c0.2,0.29,4.41,6.54,1.8,12.5l1.15,4.38l-0.08,0.09l0.93,2.9
						c4.37-1.41,9.2-2.13,14.47-2.13c10.66,0,19.15,2.95,19.5,3.07l0.1,0.04c0.37,0.15,0.74,0.31,1.11,0.47
						c0.08-0.26,0.16-0.48,0.23-0.64l0.06-0.39c0.11-0.7,0.78-3.25,1.06-4.31l0.32-1.2c0.14-1.35,0.61-2.86,1.06-4.08l0.13-0.36
						c-1.79-5.44,1.74-10.14,2.31-10.84c-4.32-13.12-2.93-25.95-2.8-27.07c0.09-1.1,0.74-2.7,4.42-6.64
						c1.9-2.03,3.75-3.77,3.83-3.84l0.19-0.17l0.81-0.75l1.37-0.19l1.55,0.21c0.88,0.09,1.49,0.28,1.81,0.39
						c3.4-1.39,9.53-4.84,11.95-6.26l1.55-0.91l0.97,0.13l1.21,0.12c1.61,0.23,4.19,0.73,5.94,1.69c3.36,0.73,8.82,2.13,10.44,3.82
						l0.62,0.65l0,0.9c0.01,1.7-0.12,13.24-4.55,19.93v4l0,0.06l-0.6,1.91l-1.28,2.44c-1.58,1.47-4.26,3.49-4.37,3.57l-0.16,0.12
						l-0.18,0.09c-6.35,3.25-12.66,8.32-15.61,10.83c0.16,0.89,0.91,6.01-1.82,9.47c-0.73,0.92-1.64,1.64-2.71,2.13l-0.08,0.21
						l0.39-0.08l-2.5,4.36c-0.39,0.68-1.31,2.77-1.8,3.93l-0.01,0.01l-0.07,0.32c-0.34,1.64-1.22,3.5-1.74,4.49
						c5.95,5.86,8.59,12.28,9.59,15.39c0.63-0.22,1.33-0.34,2.1-0.34h0c1.08,0,2.22,0.26,3.4,0.76c0.36-0.34,0.79-0.71,1.24-1.02
						c0.24-0.56,0.69-1.33,1.5-2.03l0.3-0.26c0.01-0.08,0.01-0.17,0.02-0.25l0.03-0.31l0.11-0.29c0.67-1.74,2.79-4.67,6.45-4.67h0
						c0.15,0,0.3,0.01,0.45,0.02l0.9-2.34l0.28,0.4l0.27-0.79c-0.1-0.16-0.19-0.32-0.26-0.46l-0.43-0.23
						c-0.49-0.26-1.77-0.67-2.52-0.87l-0.05-0.02c-2.68-0.8-4.3-2.1-4.8-3.88c-0.48-1.7,0.25-3.31,1.03-4.17l0.05-0.06
						c1.67-1.74,3.41-2.1,4.58-2.1c1.24,0,2.35,0.39,3.25,0.89c1.29-2.25,2.97-3.73,3.72-4.32c0.1-1.3,0.33-2.27,0.38-2.46l0.03-0.1
						c1.84-6.09,4.43-7.37,6.28-7.37c0.18,0,0.33,0.01,0.47,0.03c1.25,0.07,2.17,0.4,2.86,0.83c0.62-0.31,1.29-0.48,1.96-0.48
						c0.36,0,0.66,0.05,0.86,0.1c2.1,0.39,3.16,1.49,3.68,2.34c0.52,0.85,0.69,1.73,0.71,2.47l0.12,0.15c1.71,2.23,0.68,5-1.24,6.63
						c-1.22,1.18-1.85,1.9-2.16,2.3"/>
				</g>
				<g id="g4511_6_" transform="translate(105.9185,198.9136)">
					<path id="path4513_6_" class="st12" d="M3771.07-723.98c0,0,6.51-0.38,5.83,7.55c0,0-1.67,4.3-7.05,1.43
						c0,0-4.09-2.94-1.74-7.17C3768.11-722.17,3769.4-723.76,3771.07-723.98"/>
				</g>
				<g id="g4515_6_" transform="translate(104.6118,198.231)">
					<path id="path4517_6_" class="st13" d="M3771.26-723.88c0,0,1.77-0.45,3.33,0.3c0,0,0.25-1.86,0-2.21c0,0-1.62-1.16-3.74,0.35
						C3770.86-725.44,3771.21-724.38,3771.26-723.88"/>
				</g>
				<g id="g4519_6_" transform="translate(103.8994,195.4751)">
					<path id="path4521_6_" class="st13" d="M3771.37-723.46c0,0,2.5-1.24,4.05-0.18v-2.72c0,0-3.61-1.54-4.61,0.96
						C3770.71-725.15,3771.37-723.46,3771.37-723.46"/>
				</g>
				<g id="g4523_6_" transform="translate(103.2339,192.1758)">
					<path id="path4525_6_" class="st13" d="M3771.47-722.95c0,0,2-1.79,4.62-0.57v-1.84c0,0-1.63-3.27-5.01,0.86L3771.47-722.95z"
						/>
				</g>
				<g id="g4527_6_" transform="translate(102.1777,190.9287)">
					<path id="path4529_6_" class="st13" d="M3771.63-722.76c0,0-1.1-3.17,3.59-3.32c0,0,2.87-0.25,2.77,3.32l1.77-1.06
						c0,0,0.4-2.62,0-3.67c0,0-5.1-5.58-11.21,0.35C3768.55-727.14,3769.64-723.5,3771.63-722.76"/>
				</g>
				<g id="g4531_6_" transform="translate(112.834,190.0254)">
					<path id="path4533_6_" class="st12" d="M3770.03-722.63c0,0,27.75-1,36.99-23.78c0,0,6.21-12.07,2.73-29.58
						c0,0-5.71,0.2-7.73-6.34c0,0,0-4.23,2.02-6.24c0,0-3.64-16.8-21.82-24.15c0,0-24.84-8.75-42.12,3.92
						c0,0-17.37,11.07-21.01,31.49c0,0,11.26-19.52,46.86-15.9c0,0,27.57,1.06,38.63,20.98c0,0,0.99,14.64-2.04,23.09
						c0,0-0.45,3.47-6.13,0.6c0,0-47.12-23.09-72.26-4.53c0,0,6.56,26.56,33.73,29.58l-0.86-2.49c0,0,5.55-8.45,13-0.9
						C3770.03-726.87,3770.84-724.27,3770.03-722.63"/>
				</g>
				<g id="g4535_6_" transform="translate(61.5723,150.5605)">
					<path id="path4537_6_" class="st3" d="M3777.69-716.6c0,0,24.54-14.94,69.39,6.19c0,0,3.64-13.58,2.57-20.83
						c0,0-9.29-12.38-36.91-14.34c0,0-8.53,8.9-13.23,10.56c0,0-1.21,1.21-11.67-6.34c0,0-7.12,2.87-10.91,6.72
						C3776.93-734.64,3773.68-725.05,3777.69-716.6"/>
				</g>
				<g id="g4539_6_" transform="translate(71.4565,131.4155)">
					<path id="path4541_6_" class="st11" d="M3776.21-713.68c0,0,3.64-0.53,3.94,2.34c0,0,1.21,6.34-1.97,5.74
						c0,0-3.48-0.91-1.36-7.24C3776.82-712.85,3775.76-712.93,3776.21-713.68"/>
				</g>
				<g id="g4543_6_" transform="translate(72.5254,133.1968)">
					<path id="path4545_6_" class="st3" d="M3776.05-713.95c0,0-0.53,4.6,2.35,4.9c0,0-1.52,2.94-2.88-1.06
						C3775.52-710.1,3775.1-712.54,3776.05-713.95"/>
				</g>
				<g id="g4547_6_" transform="translate(120.6104,131.3701)">
					<path id="path4549_6_" class="st11" d="M3768.87-713.67l-4.39-0.87c0,0-2.35,0.44-2.12,5.39c0,0,0.15,3.67,2.73,3.63
						c0,0,3.98-1.17,1.7-8L3768.87-713.67z"/>
				</g>
				<g id="g4551_6_" transform="translate(114.9111,132.2168)">
					<path id="path4553_6_" class="st3" d="M3769.72-713.8c0,0-1.02,5.13,2.27,5.77c0,0-1.93,3.4-3.29-1.02
						C3768.7-709.05,3768.08-712.45,3769.72-713.8"/>
				</g>
				<g id="g4555_6_" transform="translate(74.8403,121.0859)">
					<path id="path4557_6_" class="st12" d="M3775.71-712.1c0,0,6.49-3.3,22.24-3.65c0,0-8.43,8.3-12.37,9.46
						C3785.58-706.29,3782.7-706.7,3775.71-712.1"/>
				</g>
				<g id="g4559_6_" transform="translate(58.7227,134.1167)">
					<path id="path4561_6_" class="st14" d="M3778.12-714.09c0,0,0.45-2.67,1.11-3.77h-1.11c0,0,11.87-13.28,40.05-11.77
						c0,0,22.83,1.06,35.04,14.76c0,0,1.06-0.83,4.8-1.18c0,0-9.85-22.13-50.65-20.73c0,0-26.06,1.21-34.14,18.11l0.81,2.25
						C3774.02-716.42,3776.85-713.94,3778.12-714.09"/>
				</g>
				<g id="g4563_6_" transform="translate(144.7422,158.6641)">
					<path id="path4565_6_" class="st14" d="M3765.27-717.84c0,0,3.41-15.24,2.35-21.2l4.7-1.21c0,0-0.15,19.32-3.18,23.24
						C3769.13-717.01,3766.63-717.16,3765.27-717.84"/>
				</g>
				<g id="g4567_6_" transform="translate(160.7725,112.6265)">
					<path id="path4569_6_" class="st12" d="M3762.87-710.81c0,0-4.24,6.79,3.26,6.19c0,0-0.34,4.98-4.45,5.13
						c0,0-6.68-0.68-6.68-7.32C3754.99-706.81,3756.51-713.91,3762.87-710.81"/>
				</g>
				<g id="g4571_6_" transform="translate(161.3945,113.9619)">
					<path id="path4573_6_" class="st13" d="M3762.78-711.02c0,0,0.15,2.72,2.73,3.62c0,0-1.52,1.66-3.56-0.26
						C3761.95-707.66,3761.08-709.36,3762.78-711.02"/>
				</g>
				<g id="g4575_6_" transform="translate(164.5996,110.7119)">
					<path id="path4577_6_" class="st13" d="M3762.3-710.52c0,0-0.64,3.21,4.02,5.28l-2.58,1.06c0,0-4.05-1.02-3.52-4.49
						C3760.22-708.67,3761.36-710.03,3762.3-710.52"/>
				</g>
				<g id="g4579_6_" transform="translate(166.2471,108.3521)">
					<path id="path4581_6_" class="st13" d="M3762.06-710.16c0,0,0.68,4.38,5.04,6.26c0,0-0.87,0.72-2.52,0.38
						c0,0-3.47-0.91-3.54-5.09C3761.03-708.61,3761.22-709.44,3762.06-710.16"/>
				</g>
				<g id="g4583_6_" transform="translate(173.9492,102.3418)">
					<path id="path4585_6_" class="st12" d="M3760.91-709.24c0,0-1.93,6.64,5.38,5.09c0,0,0.91,4.9-4.54,5.4c0,0-7.04,0.15-6.29-7.4
						C3755.45-706.15,3757.01-710.15,3760.91-709.24"/>
				</g>
				<g id="g4587_6_" transform="translate(174.9297,102.3857)">
					<path id="path4589_6_" class="st13" d="M3760.76-709.25c0,0,2.12,2.98,5.19,3.25c0,0-1.52,2.57-4.51,0.89
						C3761.44-705.11,3759.62-706.31,3760.76-709.25"/>
				</g>
				<g id="g4591_6_" transform="translate(176.5332,99.8926)">
					<path id="path4593_6_" class="st13" d="M3760.52-708.87c0,0,1.55,2.94,5.76,2.79l-1.52,1.92c0,0-3.6,0.45-5.26-3.06
						C3759.5-707.21,3759.95-708.08,3760.52-708.87"/>
				</g>
				<g id="g4595_6_" transform="translate(177.4678,96.999)">
					<path id="path4597_6_" class="st13" d="M3760.38-708.43c0,0,3.9,2.9,6.7,2.45l-1.44,2.37c0,0-4.36,0.42-5.83-3.16
						L3760.38-708.43z"/>
				</g>
				<g id="g4599_6_" transform="translate(192.4717,83.4189)">
					<path id="path4601_6_" class="st12" d="M3758.14-706.36c0,0,2.95,1.51-0.45,7.92c0,0-3.18,6.79-6.59,4.68
						c0,0-1.52-3.17,1.52-8.3C3752.61-702.05,3755.26-706.73,3758.14-706.36"/>
				</g>
				<g id="g4603_6_" transform="translate(176.7998,94.1934)">
					<path id="path4605_6_" class="st12" d="M3760.48-708c0,0,0.68,2.47,5.53,3.88c0,0-2.04-5.01,3.71-11.65
						c0,0-2.65,0.71-4.62-1.38v-2.67c0,0-2.95,2.01-4.24,5.64C3760.86-714.19,3763.66-711.32,3760.48-708"/>
				</g>
				<g id="g4607_6_" transform="translate(188.376,84.3096)">
					<path id="path4609_6_" class="st13" d="M3758.75-706.49l2.07-1.21l-1.04-0.65L3758.75-706.49z"/>
				</g>
				<g id="g4611_6_" transform="translate(175.3301,93.1553)">
					<path id="path4613_6_" class="st13" d="M3760.7-707.84c0,0,3.62-0.25,1.25-4.73c0,0-3.59-4.23-6.97-0.71
						c0,0-2.52,2.82,2.73,4.38C3757.71-708.9,3759.75-708.35,3760.7-707.84"/>
				</g>
				<g id="g4615_6_" transform="translate(183.2998,82.6475)">
					<path id="path4617_6_" class="st13" d="M3759.51-706.24c0,0,1.28,2.18,3.46,1.41c0,0,1.41-0.96,2.22-5.94
						c0,0,0.05-1.21,1.46-2.97c0,0,1.21-3.62-2.83-3.77c0,0-2.37-0.7-4.32,5.74C3759.51-711.77,3758.73-708.65,3759.51-706.24"/>
				</g>
				<g id="g4619_6_" transform="translate(192.4717,70.5957)">
					<path id="path4621_6_" class="st13" d="M3758.14-704.4c0,0,0.91,2.31-1.11,4.73c0,0-1.49,2.23-1.11,4.38
						c0,0,0.96,1.86,1.97,0.4c0,0,1.01-3.12,4.7-6.49c0,0,0.96-3.07-2.47-3.67C3760.11-705.05,3759.15-705.35,3758.14-704.4"/>
				</g>
				<g id="g4623_6_" transform="translate(192.2939,82.8242)">
					<path id="path4625_6_" class="st13" d="M3758.17-706.27l1.29,0.33c0,0-0.13-0.58,3.05-3.65c0,0,2.27-1.86,0.96-3.57
						c0,0-1.86,1.91-2.45,2.42c0,0-1.79,2.16-2.2,3.87L3758.17-706.27z"/>
				</g>
				<g id="g4627_6_" transform="translate(56.2886,111.083)">
					<path id="path4629_6_" class="st12" d="M3778.48-710.58c0,0,4.19-7.19,6.31-9.51c0,0-2.73-1.01-4.14,0c0,0,2.68,4.12-2.47,4.12
						C3778.18-715.96,3777.17-712.29,3778.48-710.58"/>
				</g>
				<g id="g4631_6_" transform="translate(54.938,102.7871)">
					<path id="path4633_6_" class="st13" d="M3778.68-709.31c0,0,1.78-0.34,2.73-2.11c0,0,1.13,2.24,0,2.98
						C3781.41-708.44,3780.2-707.54,3778.68-709.31"/>
				</g>
				<g id="g4635_6_" transform="translate(52.6675,101.1836)">
					<path id="path4637_6_" class="st13" d="M3779.02-709.07c0,0,2.61-0.49,3.26-2.79l1.21,1.62c0,0-0.42,1.58-3.1,2.34
						L3779.02-709.07z"/>
				</g>
				<g id="g4639_6_" transform="translate(50.7529,99.8037)">
					<path id="path4641_6_" class="st13" d="M3779.31-708.86c0,0,3.3-1.36,3.56-3.58l1.06,1.32c0,0,0,2.72-3.67,3.06L3779.31-708.86
						z"/>
				</g>
				<g id="g4643_6_" transform="translate(43.8076,93.7041)">
					<path id="path4645_6_" class="st12" d="M3780.34-707.93c0,0,2.16,3.21,4.7-0.19c0,0,1.55-1.17-0.61-4c0,0,4.42-1.19,4.73,4.34
						c0,0,0.08,5.43-5.79,4.11C3783.37-703.66,3780.87-704.3,3780.34-707.93"/>
				</g>
				<g id="g4647_6_" transform="translate(45.0542,93.5264)">
					<path id="path4649_6_" class="st13" d="M3780.16-707.9c0,0,1.89-0.94,2.61-3.32c0,0,1.44,1.17,0.19,3.32
						C3782.96-707.9,3781.97-706.35,3780.16-707.9"/>
				</g>
				<g id="g4651_6_" transform="translate(42.5605,91.7012)">
					<path id="path4653_6_" class="st13" d="M3780.53-707.62c0,0,2.88-0.91,3.03-4.53l1.48,1.93c0,0-0.38,3.01-3.07,3.65
						L3780.53-707.62z"/>
				</g>
				<g id="g4655_6_" transform="translate(39.1768,89.9199)">
					<path id="path4657_6_" class="st13" d="M3781.03-707.35c0,0,3.45-1.55,4.47-4.64l0.95,0.94c0,0,0.23,4.15-3.45,4.87
						C3783-706.18,3781.79-706.67,3781.03-707.35"/>
				</g>
				<g id="g4659_6_" transform="translate(25.0034,75.8789)">
					<path id="path4661_6_" class="st12" d="M3783.15-705.21c0,0,9.24,5.23,9.8,12.38C3792.95-692.83,3785.9-694.39,3783.15-705.21"
						/>
				</g>
				<g id="g4663_6_" transform="translate(37.0547,76.7705)">
					<path id="path4665_6_" class="st13" d="M3781.35-705.34v1.71c0,0,1.67,3.92,5.45,2.92c0,0,0.2-0.76,3.99-3.27
						c0,0,3.99-2.67,0-5.13C3790.79-709.11,3785.39-711.78,3781.35-705.34"/>
				</g>
				<g id="g4667_6_" transform="translate(28.0313,72.4961)">
					<path id="path4669_6_" class="st13" d="M3782.7-704.69c0,0,4.09,1.61,4.7-2.21c0,0,1.16-3.67-1.57-9.26
						c0,0-2.73-3.32-5.96-0.86c0,0-1.31,0.76,0.25,3.22C3780.12-713.79,3783.76-708.06,3782.7-704.69"/>
				</g>
				<g id="g4671_6_" transform="translate(25.7158,73.4453)">
					<path id="path4673_6_" class="st13" d="M3783.05-704.83l1.36-0.86c0,0,1.06-3.72-3.23-10.16c0,0-5.4-1.76-4.7,2.82
						C3776.48-713.03,3781.73-709.01,3783.05-704.83"/>
				</g>
				<g id="g4675_6_" transform="translate(17.4644,64.6006)">
					<path id="path4677_6_" class="st13" d="M3784.28-703.48c0,0,5.66,4.06,6.41,8.05c0,0-1.31-2.72-5.5-4.98
						C3785.19-700.42,3783.02-702.53,3784.28-703.48"/>
				</g>
				<g id="g4679_6_" transform="translate(27.4551,73.208)">
					<path id="path4681_6_" class="st12" d="M3782.79-704.8c0,0,4.26,1.66,5.43-1.51c0,0,2.33,1.61,2.73,3.07
						c0,0-2.83,6.84,5.2,6.89c0,0,0.46,3.22-4.95,5.73c0,0-1.11-7.29-10.5-12.48L3782.79-704.8z"/>
				</g>
				<g id="g4683_6_" transform="translate(76.1167,88.0498)">
					<path id="path4685_6_" class="st13" d="M3775.52-707.06c0,0,4.54-3.07,8.58-4.78l-0.61-1.41c0,0-3.38,3.77-9.29,3.09
						L3775.52-707.06z"/>
				</g>
				<g id="g4687_6_" transform="translate(72.5547,79.0254)">
					<path id="path4689_6_" class="st13" d="M3776.05-705.69c0,0,3.28,2.97,9.95-1.96l0.91,2.85c0,0-3.28,3.99-9.49,2.94
						C3777.41-701.86,3776-704.98,3776.05-705.69"/>
				</g>
				<g id="g4691_6_" transform="translate(83.2998,72.4355)">
					<path id="path4693_6_" class="st13" d="M3774.45-704.68c0,0-2.52,3.92-10.05,3.62l0.3,0.76l0.6,0.2l1.16,1.21
						c0,0,5.4,0.91,8.74-2.89L3774.45-704.68z"/>
				</g>
				<g id="g4695_6_" transform="translate(75.5234,75.4639)">
					<path id="path4697_6_" class="st12" d="M3775.61-705.14c0,0-4.6-2.57-4.49-8c0,0-2.52,0.35-4.6-1.51
						C3766.52-714.65,3765.46-704.24,3775.61-705.14"/>
				</g>
				<g id="g4699_6_" transform="translate(70.7739,66.0254)">
					<path id="path4701_6_" class="st12" d="M3776.32-703.7c0,0,7.22,0.35,9.09-6.69c0,0,4.39,6.39,0.91,11.57c0,0-1.36,2.21-5,2.92
						C3781.31-695.91,3776.57-697.82,3776.32-703.7"/>
				</g>
				<g id="g4703_6_" transform="translate(46.7905,42.3672)">
					<path id="path4705_6_" class="st12" d="M3779.9-700.09c0,0,22.65-1.89,23.63-3.24c0,0,1.82-9.06,1.14-18.79l4.92,2.34
						c0,0,1.04,23.69-1.11,31.46c0,0-0.13,6.92-7.58,7.31c0,0-4.19,1.44-8.81-6.1C3792.09-687.11,3787.17-694.43,3779.9-700.09"/>
				</g>
				<g id="g4707_6_" transform="translate(45.7217,41.5664)">
					<path id="path4709_6_" class="st14" d="M3780.06-699.97c0,0-1.14-0.75-0.91-3.92c0,0,15.45-0.53,21.13-2.72
						c0,0,2.27-1.74,1.67-14.71l3.03-0.45c0,0,1.14,13.36-1.44,19.09C3803.54-702.69,3786.95-700.12,3780.06-699.97"/>
				</g>
				<g id="g4711_6_" transform="translate(68.874,32.8408)">
					<path id="path4713_6_" class="st15" d="M3776.6-698.64c0,0,1.97-3.93,1.36-14.41l-12.12-5.06
						C3765.84-718.11,3769.02-703.39,3776.6-698.64"/>
				</g>
				<g id="g4715_6_" transform="translate(67.8945,33.375)">
					<path id="path4717_6_" class="st13" d="M3776.75-698.72c0,0-6.51-3.32-10.83-19.92c0,0-0.15-1.06-14.92,3.7
						c0,0-2.27,0.53-1.44,4.91c0,0,1.13,8.47,7.39,13.51C3756.95-696.53,3772.66-697.13,3776.75-698.72"/>
				</g>
				<g id="g4719_6_" transform="translate(131.623,84.3691)">
					<path id="path4721_6_" class="st13" d="M3767.23-706.5c0,0,2.88,1.36,7.78,5.43c0,0,1.46-2.57,1.87-4.53
						c0,0-5.45,0.81-9.04-3.12C3767.83-708.72,3767.35-707.65,3767.23-706.5"/>
				</g>
				<g id="g4723_6_" transform="translate(132.4541,80.9844)">
					<path id="path4725_6_" class="st13" d="M3767.1-705.98c0,0,3.23,4.28,9.14,3.02c0,0,1.31-3.12,1.92-4.18
						c0,0-6.06,1.26-10.05-2.92C3768.11-710.06,3767.2-706.64,3767.1-705.98"/>
				</g>
				<g id="g4727_6_" transform="translate(134.1162,75.583)">
					<path id="path4729_6_" class="st13" d="M3766.86-705.16c0,0,3.94,4.53,10.1,2.52c0,0,0.91-1.61,1.51-3.07
						c0,0-7.47,1.61-10.71-4.02C3767.76-709.74,3766.51-706.36,3766.86-705.16"/>
				</g>
				<g id="g4731_6_" transform="translate(146.2861,73.9199)">
					<path id="path4733_6_" class="st12" d="M3765.04-704.91c0,0,2.27-3.07,1.72-8.25c0,0,2.22,0.1,4.04-1.56
						C3770.8-714.72,3772.56-705.31,3765.04-704.91"/>
				</g>
				<g id="g4735_6_" transform="translate(145.0986,73.9199)">
					<path id="path4737_6_" class="st12" d="M3765.22-704.91c0,0,2.73-2.16,2.27-8.25c0,0-5.35,0.45-8.58-5.53
						c0,0-4.09,4.83-1.47,9.96C3757.44-708.73,3759.91-704.65,3765.22-704.91"/>
				</g>
				<g id="g4739_6_" transform="translate(143.792,13.665)">
					<path id="path4741_6_" class="st12" d="M3765.41-695.71c0,0-7.41,6.94-7.54,9.06c0,0-1.8,14.44,3.43,28.22
						c0,0,4.01,7.7,10.98,3.47c0,0,8.78-8.05,17.82-12.68c0,0,2.68-2.01,4.19-3.42c0,0-18.58,2.21-25.45-2.42
						C3768.85-673.48,3764.8-677,3765.41-695.71"/>
				</g>
				<g id="g4743_6_" transform="translate(144.7422,13.25)">
					<path id="path4745_6_" class="st14" d="M3765.27-695.65c0,0-1.51,22.41,5.53,23.39c0,0,8.41,2.19,18.86,1.36
						c0,0,4.62-0.15,4.85-2.49v-3.02c0,0-0.91,3.44-11.87,2.34c0,0-11.26,0.15-12.32-4.48c0,0-1.72-7.85-2.37-16.75
						C3767.94-695.3,3767.04-695.7,3765.27-695.65"/>
				</g>
				<g id="g4747_6_" transform="translate(151.6875,33.5527)">
					<path id="path4749_6_" class="st15" d="M3764.23-698.75c0,0,9.77-10.64,10.68-23.39c0,0-9.38,5.5-13.41,6.87
						C3761.5-715.27,3762.72-702.9,3764.23-698.75"/>
				</g>
				<g id="g4751_6_" transform="translate(165.3125,5.4141)">
					<path id="path4753_6_" class="st13" d="M3762.2-694.45c0,0,4.62,0.45,6.67,1.74c0,0,8.18,1.73,9.62,3.24
						c0,0,0.07,20.37-8.94,22.26c0,0-14.16,1.06-18.25-2.49C3751.29-669.7,3761.36-681.17,3762.2-694.45"/>
				</g>
				<g id="g4755_6_" transform="translate(59.5322,107.9336)">
					<path id="path4757_6_" class="st13" d="M3777.99-710.1c21.45-13.11,64.58-8.24,77.33,9.86c0.13-3.16,0.91-5.05,2.02-6.24
						c-0.15-0.59-0.29-1.23-0.53-1.84c-6.33-16.07-49.51-25.6-71.91-10.99C3780.65-715.07,3779.06-712.03,3777.99-710.1"/>
				</g>
				<g id="g4759_6_" transform="translate(58.7358,108.3521)">
					<path id="path4761_6_" class="st16" d="M3778.11-710.16c22.19-13.46,66.07-8.42,78.51,9.88"/>
				</g>
				<g id="g4763_6_" transform="translate(153.1299,112.3247)">
					<path id="path4765_6_" class="st16" d="M3764.02-710.77c-0.15-0.59-0.29-1.23-0.53-1.84c-6.33-16.07-49.37-26.09-73.01-10.7"/>
				</g>
				<g id="g4767_6_" transform="translate(85.3184,87.9385)">
					<path id="path4769_6_" class="st17" d="M3774.14-707.05c2.03-0.8,9.3-1.8,13.52-1.23v12.85c-3.94-0.22-11.31,0.16-13.52,0.62
						V-707.05z"/>
				</g>
				<g id="g4771_6_" transform="translate(88.3164,92.999)">
					<path id="path4773_6_" class="st3" d="M3773.7-707.82c-0.05,0.06-0.12,0.09-0.19,0.09c-0.07,0-0.14-0.02-0.19-0.07
						c-0.05-0.05-0.08-0.12-0.08-0.19c0-0.08,0.03-0.14,0.08-0.2s0.11-0.09,0.19-0.09c0.08,0,0.14,0.02,0.2,0.07
						c0.05,0.05,0.08,0.12,0.08,0.19C3773.78-707.94,3773.75-707.87,3773.7-707.82 M3777.19-704.87l-0.41,0.02v-2.47
						c0-0.24,0.01-0.41,0.02-0.52l-0.01,0l-0.14,0.24l-1.74,2.82l-0.53,0.02v-3.5l0.41-0.02v2.53c0,0.25-0.01,0.41-0.02,0.48h0.01
						c0.03-0.08,0.07-0.16,0.11-0.23l1.8-2.87l0.5-0.02V-704.87z M3779.84-708.12l-1.44,0.06v1.22l1.26-0.05v0.37l-1.26,0.05v1.17
						l1.36-0.06v0.37l-1.77,0.07v-3.5l1.85-0.08V-708.12z M3782.57-705.1l-2.42,0.1v-0.37l1.01-0.04v-3.13l0.41-0.02v3.13l1-0.04
						V-705.1z"/>
				</g>
			</g>
		</g>
	</g>
	<g>
		<g>
			<path class="st3" d="M1155,274.02c0.9-0.33,1.9-0.28,2.76,0.15l4.37,2.18c1.11,0.55,1.81,1.65,1.81,2.85v14.31
				c0,1.2-0.7,2.3-1.81,2.85l-4.37,2.18c-0.85,0.43-1.86,0.48-2.76,0.15l-12.42-4.58c-1.3-0.48-2.15-1.67-2.15-3v-9.51
				c0-1.33,0.86-2.52,2.15-3L1155,274.02z"/>
		</g>
		<path class="st18" d="M1161.63,277.35l-4.37-2.18c-0.58-0.29-1.26-0.32-1.87-0.1l-12.42,4.58c-0.88,0.32-1.42,1.11-1.42,1.95v9.51
			c0,0.84,0.54,1.63,1.42,1.95l12.42,4.58c0.61,0.22,1.29,0.19,1.87-0.1l4.37-2.18c0.75-0.37,1.19-1.09,1.19-1.85V279.2
			C1162.82,278.44,1162.38,277.72,1161.63,277.35z M1157.76,274.17c-0.85-0.43-1.86-0.48-2.76-0.15l-12.42,4.58
			c-1.3,0.48-2.15,1.67-2.15,3v9.51c0,1.33,0.86,2.52,2.15,3l12.42,4.58c0.9,0.33,1.9,0.28,2.76-0.15l4.37-2.18
			c1.11-0.55,1.81-1.65,1.81-2.85V279.2c0-1.2-0.7-2.3-1.81-2.85L1157.76,274.17z"/>
		<path class="st19" d="M1146.12,291.09c-0.19,0.17-0.46,0.21-0.7,0.11l-1.22-0.52c-0.25-0.11-0.41-0.36-0.41-0.64v-7.38
			c0-0.28,0.16-0.53,0.41-0.64l1.22-0.52c0.23-0.1,0.5-0.06,0.7,0.11l0.27,0.24c-0.25-0.18-0.59,0-0.59,0.31v8.37
			c0,0.31,0.34,0.49,0.59,0.31L1146.12,291.09z"/>
		<g>
			<path class="st20" d="M1144.22,290.68c-0.26-0.11-0.43-0.36-0.43-0.64v-0.06c0,0.37,0.46,0.54,0.7,0.27l10.84-11.95
				c0.31-0.31,0.79-0.39,1.19-0.2l3.46,1.66c0.36,0.17,0.59,0.54,0.59,0.94v0.04c0-0.56-0.65-0.86-1.08-0.51l-13,10.62l-0.29,0.24
				c-0.2,0.17-0.48,0.22-0.72,0.11L1144.22,290.68z"/>
		</g>
		<g>
			<path class="st21" d="M1144.22,282.03c-0.26,0.11-0.43,0.36-0.43,0.64v0.06c0-0.37,0.46-0.54,0.7-0.27l10.84,11.95
				c0.31,0.31,0.79,0.39,1.19,0.2l3.46-1.66c0.36-0.17,0.59-0.54,0.59-0.94v-0.04c0,0.56-0.65,0.86-1.08,0.51l-13-10.62l-0.29-0.24
				c-0.2-0.17-0.48-0.22-0.72-0.11L1144.22,282.03z"/>
		</g>
		<g>
			<path class="st22" d="M1156.55,294.62c-0.4,0.19-0.87,0.11-1.19-0.2c0.38,0.39,1.04,0.11,1.04-0.44v-15.25
				c0-0.55-0.66-0.82-1.04-0.44c0.31-0.31,0.79-0.4,1.19-0.2l3.44,1.67c0.36,0.18,0.59,0.54,0.59,0.95V292
				c0,0.4-0.23,0.77-0.59,0.95L1156.55,294.62z"/>
		</g>
	</g>
</g>
</svg>
