<?xml version="1.0" encoding="utf-8"?>
<!-- Generator: Adobe Illustrator 23.1.1, SVG Export Plug-In . SVG Version: 6.00 Build 0)  -->
<svg version="1.1" id="Layer_1" xmlns="http://www.w3.org/2000/svg" xmlns:xlink="http://www.w3.org/1999/xlink" x="0px" y="0px"
	 viewBox="0 0 1920 1080" style="enable-background:new 0 0 1920 1080;" xml:space="preserve">
<style type="text/css">
	.st0{fill:url(#SVGID_1_);}
	.st1{fill:#C7B8FF;}
	.st2{fill:url(#SVGID_2_);}
	.st3{fill:#FFFFFF;}
	.st4{fill:#8C6BC2;}
	.st5{fill:#FFB900;}
	.st6{fill:#9E83E3;}
	.st7{fill:#FFD055;}
	.st8{fill:#FFE8AA;}
	.st9{fill:#B5A0F3;}
	.st10{fill:#DED5FF;}
	.st11{fill:#712D8D;}
	.st12{fill:#AE7EC1;}
	.st13{fill:#EFE0EF;}
	.st14{fill:#9251A8;}
	.st15{fill:#A874BB;}
	.st16{fill:none;stroke:#712D8D;stroke-miterlimit:10;}
	.st17{fill:#5F247B;}
	.st18{fill-rule:evenodd;clip-rule:evenodd;fill:#854CC7;}
	.st19{fill:#52218A;}
	.st20{fill:#6C33AF;}
	.st21{fill:#854CC7;}
	.st22{fill:#B179F1;}
</style>
<g>
	
		<radialGradient id="SVGID_1_" cx="1319.2667" cy="907.547" r="778.2714" gradientTransform="matrix(1.0009 0 0 1.0003 -0.8339 -0.161)" gradientUnits="userSpaceOnUse">
		<stop  offset="0" style="stop-color:#DAD0FF"/>
		<stop  offset="1" style="stop-color:#B4A0FF"/>
	</radialGradient>
	<rect x="0" y="0.34" class="st0" width="1920" height="1079.97"/>
	<path class="st1" d="M553.98,131.24c0-3.31-2.69-6-6.01-6H0v12h547.97C551.28,137.24,553.98,134.55,553.98,131.24z"/>
	<path class="st1" d="M422.33,236.7c0-3.31-2.69-6-6.01-6H0v12h416.33C419.64,242.7,422.33,240.01,422.33,236.7z"/>
	<path class="st1" d="M683.76,188.73c0.01-1.6-0.6-3.12-1.73-4.26c-1.13-1.14-2.63-1.78-4.23-1.79L3.02,178.01L0,177.99v12
		l677.76,4.69C681.05,194.69,683.74,192.01,683.76,188.73z"/>
	<path class="st1" d="M337.86,289.43c0,3.31,2.69,6,6.01,6h359.85c3.31,0,6.01-2.69,6.01-6s-2.69-6-6.01-6H343.86
		C340.55,283.43,337.86,286.12,337.86,289.43z"/>
	<path class="st1" d="M310.64,295.43c3.31,0,6.01-2.69,6.01-6s-2.69-6-6.01-6h-82.15c-3.31,0-6.01,2.69-6.01,6s2.69,6,6.01,6H310.64
		z"/>
	<path class="st1" d="M195.27,283.43H46.2c-3.31,0-6.01,2.69-6.01,6s2.69,6,6.01,6h149.07c3.31,0,6.01-2.69,6.01-6
		S198.58,283.43,195.27,283.43z"/>
	<path class="st1" d="M462.08,342.16c0,3.31,2.69,6,6.01,6h267.15c3.31,0,6.01-2.69,6.01-6c0-3.31-2.69-6-6.01-6H468.09
		C464.78,336.16,462.08,338.85,462.08,342.16z"/>
	<path class="st1" d="M197.88,342.16c0,3.31,2.69,6,6.01,6h230.98c3.31,0,6.01-2.69,6.01-6c0-3.31-2.69-6-6.01-6H203.88
		C200.57,336.16,197.88,338.85,197.88,342.16z"/>
	<path class="st1" d="M46.2,348.16h124.47c3.31,0,6.01-2.69,6.01-6c0-3.31-2.69-6-6.01-6H46.2c-3.31,0-6.01,2.69-6.01,6
		C40.19,345.47,42.89,348.16,46.2,348.16z"/>
	<path class="st1" d="M842.65,453.63h251.84c3.31,0,6.01-2.69,6.01-6c0-3.31-2.69-6-6.01-6H842.65c-3.31,0-6.01,2.69-6.01,6
		C836.65,450.93,839.34,453.63,842.65,453.63z"/>
	<path class="st1" d="M623.31,447.62c0,3.31,2.69,6,6.01,6h180.11c3.31,0,6.01-2.69,6.01-6c0-3.31-2.69-6-6.01-6H629.32
		C626.01,441.62,623.31,444.31,623.31,447.62z"/>
	<path class="st1" d="M596.1,441.62H353.24c-3.31,0-6.01,2.69-6.01,6c0,3.31,2.69,6,6.01,6H596.1c3.31,0,6.01-2.69,6.01-6
		C602.11,444.31,599.41,441.62,596.1,441.62z"/>
	<path class="st1" d="M326.03,447.62c0-3.31-2.69-6-6.01-6H201.3c-3.31,0-6.01,2.69-6.01,6c0,3.31,2.69,6,6.01,6h118.72
		C323.33,453.63,326.03,450.93,326.03,447.62z"/>
	<path class="st1" d="M46.2,453.63h121.88c3.31,0,6.01-2.69,6.01-6c0-3.31-2.69-6-6.01-6H46.2c-3.31,0-6.01,2.69-6.01,6
		C40.19,450.93,42.89,453.63,46.2,453.63z"/>
	<path class="st1" d="M699.47,500.35c0,3.31,2.69,6,6.01,6h124.14c3.31,0,6.01-2.69,6.01-6s-2.69-6-6.01-6H705.47
		C702.16,494.35,699.47,497.05,699.47,500.35z"/>
	<path class="st1" d="M678.26,500.35c0-3.31-2.69-6-6.01-6H406.39c-3.31,0-6.01,2.69-6.01,6s2.69,6,6.01,6h265.86
		C675.57,506.36,678.26,503.66,678.26,500.35z"/>
	<path class="st1" d="M283.85,506.36h89.32c3.31,0,6.01-2.69,6.01-6s-2.69-6-6.01-6h-89.32c-3.31,0-6.01,2.69-6.01,6
		S280.54,506.36,283.85,506.36z"/>
	<path class="st1" d="M145.86,506.36h104.78c3.31,0,6.01-2.69,6.01-6s-2.69-6-6.01-6H145.86c-3.31,0-6.01,2.69-6.01,6
		S142.55,506.36,145.86,506.36z"/>
	<path class="st1" d="M1235.24,599.81H863.81c-3.31,0-6.01,2.69-6.01,6c0,3.31,2.69,6,6.01,6h371.42c3.31,0,6.01-2.69,6.01-6
		C1241.24,602.51,1238.55,599.81,1235.24,599.81z"/>
	<path class="st1" d="M830.59,599.81H649.5c-3.31,0-6.01,2.69-6.01,6c0,3.31,2.69,6,6.01,6h181.1c3.31,0,6.01-2.69,6.01-6
		C836.6,602.51,833.9,599.81,830.59,599.81z"/>
	<path class="st1" d="M622.28,605.82c0-3.31-2.69-6-6.01-6H380.43c-3.31,0-6.01,2.69-6.01,6c0,3.31,2.69,6,6.01,6h235.84
		C619.59,611.82,622.28,609.13,622.28,605.82z"/>
	<path class="st1" d="M233.29,611.82h113.92c3.31,0,6.01-2.69,6.01-6c0-3.31-2.69-6-6.01-6H233.29c-3.31,0-6.01,2.69-6.01,6
		C227.28,609.13,229.98,611.82,233.29,611.82z"/>
	<path class="st1" d="M206.07,605.82c0-3.31-2.69-6-6.01-6H46.2c-3.31,0-6.01,2.69-6.01,6c0,3.31,2.69,6,6.01,6h153.87
		C203.38,611.82,206.07,609.13,206.07,605.82z"/>
	<path class="st1" d="M1115.33,652.54H919.79c-3.31,0-6.01,2.69-6.01,6s2.69,6,6.01,6h195.54c3.31,0,6.01-2.69,6.01-6
		S1118.64,652.54,1115.33,652.54z"/>
	<path class="st1" d="M886.57,652.54H532.74c-3.31,0-6.01,2.69-6.01,6s2.69,6,6.01,6h353.83c3.31,0,6.01-2.69,6.01-6
		S889.88,652.54,886.57,652.54z"/>
	<path class="st1" d="M499.52,652.54H360.01c-3.31,0-6.01,2.69-6.01,6s2.69,6,6.01,6h139.51c3.31,0,6.01-2.69,6.01-6
		S502.83,652.54,499.52,652.54z"/>
	<path class="st1" d="M332.79,658.55c0-3.31-2.69-6-6.01-6H145.86c-3.31,0-6.01,2.69-6.01,6s2.69,6,6.01,6h180.93
		C330.1,664.55,332.79,661.86,332.79,658.55z"/>
	<path class="st1" d="M848.34,758.01H436.78c-3.31,0-6.01,2.69-6.01,6s2.69,6,6.01,6h411.56c3.31,0,6.01-2.69,6.01-6
		S851.65,758.01,848.34,758.01z"/>
	<path class="st1" d="M289.34,764.01c0,3.31,2.69,6,6.01,6h108.21c3.31,0,6.01-2.69,6.01-6s-2.69-6-6.01-6H295.35
		C292.04,758.01,289.34,760.7,289.34,764.01z"/>
	<path class="st1" d="M457.59,816.74c0,3.31,2.69,6,6.01,6h419.77c3.31,0,6.01-2.69,6.01-6s-2.69-6-6.01-6H463.6
		C460.29,810.74,457.59,813.43,457.59,816.74z"/>
	<path class="st1" d="M295.35,822.74h135.03c3.31,0,6.01-2.69,6.01-6s-2.69-6-6.01-6H295.35c-3.31,0-6.01,2.69-6.01,6
		S292.04,822.74,295.35,822.74z"/>
	<path class="st1" d="M295.35,875.47h705.03c3.31,0,6.01-2.69,6.01-6s-2.69-6-6.01-6H295.35c-3.31,0-6.01,2.69-6.01,6
		S292.04,875.47,295.35,875.47z"/>
	<path class="st1" d="M1073.7,916.2H548.73c-3.31,0-6.01,2.69-6.01,6s2.69,6,6.01,6h524.97c3.31,0,6.01-2.69,6.01-6
		S1077.01,916.2,1073.7,916.2z"/>
	<path class="st1" d="M521.52,922.2c0-3.31-2.69-6-6.01-6H295.35c-3.31,0-6.01,2.69-6.01,6s2.69,6,6.01,6h220.17
		C518.83,928.2,521.52,925.51,521.52,922.2z"/>
	<path class="st1" d="M1027.32,968.93H591.55c-3.31,0-6.01,2.69-6.01,6s2.69,6,6.01,6h435.77c3.31,0,6.01-2.69,6.01-6
		S1030.63,968.93,1027.32,968.93z"/>
	<path class="st1" d="M438.83,974.93c0,3.31,2.69,6,6.01,6h113.5c3.31,0,6.01-2.69,6.01-6s-2.69-6-6.01-6h-113.5
		C441.52,968.93,438.83,971.62,438.83,974.93z"/>
	<path class="st1" d="M772.65,1021.66H444.84c-3.31,0-6.01,2.69-6.01,6s2.69,6,6.01,6h327.81c3.31,0,6.01-2.69,6.01-6
		S775.96,1021.66,772.65,1021.66z"/>
	<linearGradient id="SVGID_2_" gradientUnits="userSpaceOnUse" x1="1278.0137" y1="652.2629" x2="1278.0137" y2="1080.3126">
		<stop  offset="0" style="stop-color:#B4A0FF"/>
		<stop  offset="1" style="stop-color:#BCABFF"/>
		<stop  offset="1" style="stop-color:#B4A0FF"/>
	</linearGradient>
	<path class="st2" d="M636.03,1080.31H1920V949.9c-10.89-8.3-24.11-13.78-38.61-15.27c3.41-6.39,5.52-13.6,5.94-21.3
		c1.54-28.28-20.14-52.45-48.43-53.99c-12.95-0.71-25.04,3.46-34.49,10.89c-3.24-42.42-37.5-76.9-81.15-79.28
		c-34.92-1.91-66.1,17.28-81.2,46.43c-7-3.85-14.96-6.23-23.48-6.7c-4.96-0.27-9.79,0.14-14.42,1.12c1.92-6.13,3.13-12.6,3.49-19.32
		c2.37-43.42-30.93-80.55-74.38-82.92c-8.4-0.46-16.56,0.43-24.28,2.45c-8.64-19.5-27.65-33.58-50.43-34.82
		c-7.4-0.4-14.54,0.59-21.19,2.74c-9.88-26.45-34.67-45.91-64.68-47.55c-40.42-2.21-74.97,28.75-77.18,69.15
		c-0.41,7.57,0.34,14.93,2.1,21.92c-19.88,4.09-35.32,21.13-36.47,42.35c-0.22,4.03,0.12,7.95,0.89,11.72
		c-0.27,0.15-0.54,0.3-0.81,0.45c-5.39-1.72-11.07-2.82-16.99-3.14c-27.52-1.5-52.07,13.62-63.94,36.61
		c-8.1-1.18-19.18-2.88-31.8-4.85c2.1-7.88,3.23-16.14,3.23-24.68c0-52.85-42.87-95.7-95.75-95.7c-49.5,0-90.23,37.55-95.23,85.71
		c-3.53-0.67-7.14-1.14-10.82-1.34c-44.46-2.43-82.47,31.63-84.9,76.06c-0.3,5.4-0.02,10.69,0.72,15.84
		c-19.66,8-35.72,22.99-45.08,41.89c-7.33-3.77-15.55-6.11-24.32-6.59c-32.33-1.76-60.11,22.19-63.43,54.03
		c-4.63-1.52-9.53-2.47-14.63-2.75c-31.32-1.71-58.1,22.28-59.81,53.59c-0.67,12.22,2.6,23.75,8.68,33.37
		C654.81,1061.35,644.12,1069.79,636.03,1080.31z"/>
	<path class="st3" d="M1856.37,1073.31c0-25.9-21.01-46.9-46.92-46.9c-1.87,0-3.71,0.12-5.53,0.33
		c-6.41-44.38-44.57-78.47-90.7-78.47c-18.08,0-34.93,5.25-49.13,14.29c-11.16-28.88-39.16-49.38-71.97-49.38
		c-2.2,0-4.38,0.12-6.54,0.3c0.03-0.8,0.06-1.59,0.06-2.4c0-31.94-25.91-57.83-57.86-57.83c-16.93,0-32.17,7.27-42.75,18.86
		c-8.64-27.62-34.44-47.66-64.92-47.66c-8.74,0-17.09,1.67-24.77,4.67c1.71-6.29,2.65-12.89,2.65-19.72
		c0-41.48-33.61-75.1-75.06-75.1c-38.65,0-70.46,29.23-74.59,66.8c-9.93-3.66-20.67-5.67-31.88-5.67
		c-30.28,0-57.14,14.6-73.95,37.15c-8.28-21.81-29.35-37.32-54.05-37.32c-31.93,0-57.82,25.9-57.82,57.85
		c0,8.7,1.93,16.94,5.37,24.34c-0.68-0.05-1.37-0.1-2.06-0.1c-8.23,0-15.69,3.3-21.15,8.64c-14.95-8.09-32.07-12.69-50.26-12.69
		c-58.4,0-105.75,47.37-105.75,105.8c0,8.29,0.98,16.34,2.78,24.07c-25.77,5.83-45.02,28.86-45.02,56.41
		c0,7.32,1.38,14.3,3.85,20.74h977.5c0-0.01,0.01-0.02,0.01-0.03h59.92C1856.19,1078.03,1856.37,1075.69,1856.37,1073.31z"/>
	<polygon class="st4" points="1310.87,470.49 1182.87,470.49 1168.37,437.34 1324.9,438.52 	"/>
	<path class="st5" d="M1307.5,448.72h-120.45c-11.91,0-21.57-9.66-21.57-21.57V231.26c0-11.78,9.55-21.33,21.33-21.33h120.69
		c11.92,0,21.57,9.66,21.57,21.57v195.64C1329.08,439.06,1319.42,448.72,1307.5,448.72z"/>
	<path class="st4" d="M1168.89,219.33l70.81-99.03c2.38-3.32,10.04-3.29,12.48,0l72.63,98.4L1168.89,219.33z"/>
	<rect x="1182.41" y="470.49" class="st5" width="128.43" height="389.5"/>
	<rect x="1180.41" y="815.24" class="st5" width="134.33" height="56.35"/>
	<path class="st6" d="M1620.96,949.42H1419.7c-5.26,0-9.52,4.26-9.52,9.52v22.89c0,5.26,4.26,9.52,9.52,9.52h201.26
		c5.26,0,9.52-4.26,9.52-9.52v-22.89C1630.49,953.68,1626.22,949.42,1620.96,949.42z"/>
	<polygon class="st6" points="1191.96,977.4 1119.15,977.4 1135.73,916.35 1175.38,916.35 	"/>
	<polygon class="st6" points="1374.12,977.4 1301.31,977.4 1317.89,916.35 1357.54,916.35 	"/>
	<polygon class="st6" points="1282.91,977.4 1210.1,977.4 1226.68,916.35 1266.33,916.35 	"/>
	<path class="st7" d="M1126.86,927.95h56.87V626.29l-51.7,41.73c-3.27,2.64-5.17,6.61-5.17,10.81V927.95z"/>
	<path class="st7" d="M1366.15,927.95h-56.87V626.29l49.21,39.72c4.84,3.91,7.66,9.8,7.66,16.02V927.95z"/>
	<path class="st7" d="M1274.94,678.25c0-3.63-1-7.19-2.88-10.29l-22.44-36.94c-1.31-2.16-4.45-2.18-5.78-0.02l-22.44,36.32
		c-2.17,3.52-3.32,7.57-3.32,11.7L1218,927.83h56.93L1274.94,678.25z"/>
	<rect x="1309.28" y="881.81" class="st4" width="56.87" height="46.14"/>
	<polygon class="st4" points="1218.01,881.81 1218,927.83 1274.92,927.83 1274.92,881.81 	"/>
	<rect x="1126.86" y="881.81" class="st4" width="56.87" height="46.14"/>
	<g>
		<rect x="1126.86" y="817.17" class="st8" width="56.87" height="3.31"/>
		<rect x="1126.86" y="691.2" class="st8" width="56.87" height="3.31"/>
		<rect x="1126.86" y="754.19" class="st8" width="56.87" height="3.31"/>
	</g>
	<g>
		<rect x="1218.03" y="817.17" class="st8" width="56.9" height="3.31"/>
		<rect x="1218.05" y="754.19" class="st8" width="56.88" height="3.31"/>
		<rect x="1218.07" y="691.2" class="st8" width="56.87" height="3.31"/>
	</g>
	<g>
		<rect x="1309.28" y="817.17" class="st8" width="56.87" height="3.31"/>
		<rect x="1309.28" y="754.19" class="st8" width="56.87" height="3.31"/>
		<rect x="1309.28" y="691.2" class="st8" width="56.87" height="3.31"/>
	</g>
	<g>
		<path class="st8" d="M1271.43,607.94c0,0.89-0.32,1.65-0.96,2.28c-0.64,0.63-1.4,0.94-2.29,0.94s-1.66-0.32-2.31-0.94
			c-0.65-0.63-0.97-1.39-0.97-2.28c0-0.91,0.32-1.68,0.97-2.32c0.65-0.64,1.42-0.96,2.31-0.96s1.66,0.32,2.29,0.96
			C1271.11,606.26,1271.43,607.03,1271.43,607.94z"/>
		<path class="st8" d="M1270.79,562.49v5.98l-33.21,21.43c-0.83,0.54-1.71,0.99-2.62,1.34v0.17c0.89-0.15,2.8-0.23,5.72-0.23h30.1
			v4.88h-41.67v-6.33l32.69-20.85c1.36-0.87,2.29-1.43,2.79-1.68v-0.12c-1.2,0.19-3.24,0.29-6.13,0.29h-29.35v-4.88H1270.79z"/>
		<path class="st8" d="M1270.79,529.51v22.07h-41.67v-21.14h4.42v16.26h13.86v-15.04h4.39v15.04h14.59v-17.19H1270.79z"/>
		<path class="st8" d="M1233.54,496.75v12.02h37.25v4.88h-37.25v11.99h-4.42v-28.89H1233.54z"/>
	</g>
	<g>
		<g>
			<g>
				<path class="st8" d="M1282.55,317.58c-0.01-2.04-1.69-3.67-3.72-3.68l-60.67,0.36c-0.99,0.01-1.92,0.4-2.61,1.1
					c-0.7,0.7-1.08,1.64-1.07,2.62l0.2,38.29c0,0.79,0.32,1.54,0.88,2.1c0.56,0.55,1.3,0.86,2.08,0.86c0.01,0,0.01,0,0.02,0
					l23.61-0.14v7.89h-6.49c-1.6,0-2.9,1.3-2.9,2.9s1.3,2.9,2.9,2.9h28.17c1.6,0,2.9-1.3,2.9-2.9s-1.3-2.9-2.9-2.9h-6.49V359
					l23.34-0.14c1.63-0.01,2.96-1.34,2.95-2.98L1282.55,317.58z"/>
				<path class="st8" d="M1272.58,398.86c-0.99-3.11-3.84-5.2-7.11-5.2h-5.15c-1.35,0-2.53,0.86-2.93,2.15l-16.35-0.01
					c-0.5-1.19-1.99-2.13-3.4-2.13h-4.47c-3.27,0-6.12,2.09-7.11,5.2l-6.87,21.64c-1.24,3.92,0.93,8.12,4.85,9.36
					c0.73,0.23,1.49,0.35,2.26,0.35c2.24,0,4.65-1.26,6.08-3.15l7.25-7.96c0.48-0.53,1.16-0.83,1.88-0.83h15.63
					c0.71,0,1.4,0.3,1.88,0.83l7.27,7.97c1.43,1.46,3.41,3.14,6.06,3.14c0.77,0,1.53-0.12,2.26-0.35c3.92-1.24,6.1-5.44,4.85-9.36
					L1272.58,398.86z"/>
				<path class="st8" d="M1235.75,291.12c0.84,0.83,1.94,1.28,3.12,1.28c0.01,0,0.01,0,0.02,0l20.11-0.07
					c2.44-0.01,4.41-2,4.41-4.44l-0.15-47.96c0-1.18-0.47-2.29-1.31-3.12c-0.84-0.83-1.95-1.21-3.13-1.29l-20.11,0.07
					c-2.44,0.01-4.41,2-4.41,4.44l0.15,47.97C1234.45,289.18,1234.91,290.28,1235.75,291.12z"/>
			</g>
			<path class="st5" d="M1259.23,240.99c0-0.25-0.18-0.45-0.4-0.44l-3.1,0.01l-0.97,2.46c-0.15,0.39-0.5,0.64-0.88,0.64h-10.01
				c-0.4,0-0.76-0.28-0.9-0.69l-0.8-2.35l-3.28,0.01c-0.22,0-0.4,0.2-0.4,0.45l0.26,45.64c0,0.24,0.18,0.44,0.4,0.44l19.74,0.29
				c0.22,0,0.41-0.2,0.41-0.45L1259.23,240.99z"/>
		</g>
		<polygon class="st5" points="1278,354.06 1219.53,354.41 1219.28,318.93 1277.74,318.59 		"/>
		<g>
			<ellipse class="st5" cx="1235.23" cy="403.35" rx="5.15" ry="5.15"/>
			<ellipse class="st5" cx="1263.58" cy="403.35" rx="5.15" ry="5.15"/>
			<path class="st5" d="M1253.53,404.12h-8.59c-0.85,0-1.55-0.69-1.55-1.55v0c0-0.85,0.69-1.55,1.55-1.55h8.59
				c0.85,0,1.55,0.69,1.55,1.55v0C1255.08,403.43,1254.39,404.12,1253.53,404.12z"/>
			<circle class="st5" cx="1241.85" cy="412.54" r="2.4"/>
			<circle class="st5" cx="1257.14" cy="412.54" r="2.4"/>
		</g>
	</g>
	<path class="st9" d="M1006.36,975.11c-4.11,0-7.84,2.41-9.53,6.15l-44.65,99.01h790.28l-44.65-99.01
		c-1.69-3.75-5.42-6.16-9.53-6.16H1006.36z"/>
	<polygon class="st6" points="1401.32,406.17 1387.01,388.14 1436.3,388.14 1436.3,379.27 1317.82,379.27 1317.82,369.79 
		1308.95,369.79 1308.95,397.83 1317.82,397.83 1317.82,388.14 1375.69,388.14 1397.03,415.04 1438.15,415.04 1438.15,406.17 	"/>
	<polygon class="st6" points="1401.32,561.31 1387.01,543.27 1436.3,543.27 1436.3,534.41 1317.82,534.41 1317.82,524.92 
		1308.95,524.92 1308.95,552.96 1317.82,552.96 1317.82,543.27 1375.69,543.27 1397.03,570.18 1438.15,570.18 1438.15,561.31 	"/>
	<path class="st6" d="M1525.31,558.87v-227.6l-83.37-83.32h-7.19v712.85l172.24-0.48v-319.8L1525.31,558.87z M1525.31,571.4
		l67.78,67.74h-67.78V571.4z M1443.63,262.16l66.54,66.51h-66.54V262.16z M1443.63,337.53h72.82v68.7h-72.82V337.53z M1443.63,415.1
		h72.82v68.7h-72.82V415.1z M1443.63,492.67h72.82v64.52v4.19h-72.82V492.67z M1443.63,570.24h72.82v68.7h-72.82V570.24z
		 M1443.63,648.01h72.82v68.7h-72.82V648.01z M1443.63,725.58h72.82v68.7h-72.82V725.58z M1443.63,803.15h72.82v68.78h-72.82V803.15
		z M1516.44,949.88h-72.81v-68.83h72.81V949.88z M1598,949.88h-72.81v-68.83H1598V949.88z M1598.13,871.92h-72.82v-68.78h72.82
		V871.92z M1598.13,794.28h-72.82v-68.7h72.82V794.28z M1598.13,716.71h-72.82v-68.7h72.82V716.71z"/>
	<rect x="1443.16" y="802.74" class="st10" width="154.69" height="147.18"/>
	<g id="g4493_2_" transform="matrix(0.35277777,0,0,-0.35277777,-83.079201,186.9333)">
		<g id="g4495_2_">
			<g id="g4497_2_">
				<g id="g4503_2_" transform="translate(114.9531,127.7212)">
					<path id="path4505_2_" class="st11" d="M4443.71-2047.75l0.89-0.17l1.16,0.23l4.89-4.03l-0.92,4.81l38.79,7.68l-33.34,2.43
						c0.29,1.94,0.34,3.75,0.17,5.44l0.24,0.05l-0.3,0.53c-0.24,1.8-0.75,3.44-1.52,4.93c-2.27,4.34-5.92,5.6-6.62,5.81l-0.62,0.18
						l-0.8,0.01c-6.67,0-9.97-6.21-10.2-11.97C4434.89-2045.69,4442.8-2047.58,4443.71-2047.75"/>
				</g>
				<g id="g4507_2_" transform="translate(189.2061,72.1934)">
					<path id="path4509_2_" class="st11" d="M4499.55-2089.46c-0.14-0.08-0.58-0.26-1.58-0.3c-0.56,0.44-2.38,2.26-4.25,8.41
						c-0.32,1.34-0.93,5.21-0.24,8.13c0.12,0.13,0.27,0.28,0.43,0.4c0.63-1.24,1.6-3.73,2.34-8.26c0.12-1.2,0.7-3.99,3.31-7.57
						C4499.61-2088.97,4499.6-2089.29,4499.55-2089.46 M4467.04-2060.94c0.39,0.32,1.31,0.9,3.33,1.51
						c0.59,0.16,2.43,0.68,4.27,1.35c-0.12-0.42-0.33-1-0.69-1.73c-0.95-0.95-2.83-2.38-4.42-2.38
						C4469.22-2062.2,4468.32-2062.2,4467.04-2060.94 M4466.19-2029.06c-0.19,3.02,0.4,5.3,1.76,6.8c2.1,2.32,5.72,2.56,6.38,2.59
						c1.72-0.18,2.98-0.65,3.78-1.39c-4.34-0.43-6.79-2.5-8.12-4.26c-1.36-1.81-1.98-3.88-2.21-5.82
						C4467-2030.44,4466.47-2029.58,4466.19-2029.06 M4443.28-2015.58c-3.21,0.28-4.68,4.4-5.08,5.74c0.31,7.91,7.15,9.55,9.22,9.87
						c1.25-0.14,2.14-0.81,2.78-1.66c-3.57-0.91-5.43-2.9-6.4-4.65C4442.12-2009.28,4442.44-2012.74,4443.28-2015.58
						 M4389.21-2064.9c-1.33-0.45-17.46-5.78-36.97-5.79c-18.13,0-33.39,4.47-45.35,13.28l-0.25,0.17
						c-0.28,0.18-23.78,15.57-35.69,43.56c12.47-9.87,34.15-20.88,68.81-20.88c5.78,0,11.82,0.32,17.95,0.94
						c1.72,0.08,15.68,0.89,32.39,6.47c14.75,4.93,27.19,12.13,36.86,21.26v-0.6c0-0.95,0.12-8.46,3.71-13.94
						C4428.42-2027.74,4418.78-2052.86,4389.21-2064.9 M4459.33-2135.24c-16.39,0-28.13-2.32-34.89-6.89l-0.24-0.16l-0.22-0.19
						c-1.49-1.3-8.21-8.79-8.76-37.99c-3.14,3.41-5.61,6.47-6.13,7.83c-0.12,1.02-3.25,29.19,6.68,55.75
						c0.69,1.18,4.43,7.09,9.96,7.09c1.74,0,3.63-0.58,5.61-1.72c2.5-2.26,16.5-14.67,32.23-23.76
						C4462.19-2135.26,4460.77-2135.24,4459.33-2135.24 M4470.44-2198.24l-0.81-0.17l-0.7-0.44c-1.41-0.89-4.27-1.66-7.08-2.2
						c-2.74,19.59-13.64,36.47-19.45,44.28c3.57,1.15,9.87,2.3,20.82,2.3c4.4,0,7.87-0.2,8.92-0.27c2.77-0.68,5.03-2.77,6.87-5.68
						l7.13-27.1c0.2-2.24,0.32-4.3,0.38-6.05C4483.5-2194.92,4476.85-2196.87,4470.44-2198.24 M4433.23-2188.23
						c0.6,5.51,1.65,13.83,2.86,20.56c4.61-6.59,10.77-17.02,13.62-28.94C4444.61-2193.78,4438.18-2190.37,4433.23-2188.23
						 M4410.33-2096.65c0.5,0.72,3.71,5.02,9.81,5.52c0.83-1.32,1.98-3.86,2.21-8.08c-3.47-0.7-8.23-2.49-12.51-6.97
						C4408.96-2103.47,4408.65-2100.08,4410.33-2096.65 M4306.61-2179.38l-0.58-0.28c0.21,17.21-2.6,31.5-2.74,32.18l-0.2,1
						l-0.6,0.83c-1.39,1.92-2.48,3.44-28.38,6.32c-4.47,0.5-8.92,0.95-12.74,1.31c10.6,10.11,17.3,20.04,17.65,20.55l0.11,0.17
						c6,9.83,10.96,10.59,12.33,10.59c0.16,0,0.29-0.01,0.38-0.02l0.28-0.16l0.91-0.05c10.29-0.54,11.11-8.89,11.17-10.52l0.01-0.59
						l0.16-0.57C4307.97-2131.64,4306.98-2168.86,4306.61-2179.38 M4286.99-2184.98l-13.31-5.57c2.56,7.68,6.75,17.4,12.43,23.78
						C4286.77-2170.72,4287.3-2176.66,4286.99-2184.98 M4235.59-2181.7l0.04,0.26c0.02,0.15,2.05,14.55,12.23,23.78
						c8.68-0.38,20.92-1.24,29.32-2.43c-4.82-5.77-11.02-16.01-16.04-33.7c-3.33,0.62-10.51,2.37-25.49,7.2
						C4235.4-2186.17,4235.02-2184.7,4235.59-2181.7 M4292.25-2152.79c0.3-0.04,0.58-0.08,0.84-0.12c0.08-0.26,0.15-0.52,0.23-0.79
						c-0.23,0.25-0.45,0.44-0.67,0.61L4292.25-2152.79z M4310.29-2103.32c-3.56,4.02-8.25,6.27-12.78,7.21
						c1.32,3.89,3.95,6.04,5.46,7c3.83-1.13,5.48-3.24,5.71-3.56l0.07-0.11C4311-2096.13,4311.02-2099.99,4310.29-2103.32
						 M4251.33-2084.15c-0.14-0.17-0.45-0.5-1.12-0.95c-0.46-0.17-1.72-0.6-3.35-0.6c-3.48,0-6.57,1.9-9.21,5.65v0.98
						c0.62,1.02,2.01,2.82,4.03,2.84c1.43-1.49,3.87-3.47,8.1-6.28C4250.4-2082.93,4251.11-2083.7,4251.33-2084.15 M4219.69-2109.97
						c-0.67-0.64-1.99-1.64-3.27-1.64c-0.39,0-0.79,0.09-1.21,0.28c0.13,0.28,0.32,0.64,0.6,1.08c1.11,1.77,5.57,9.21,6.32,16.46
						c0.03-0.13,0.05-0.28,0.08-0.45l0.02-0.27l0.13-0.37C4222.5-2095.46,4223.8-2101.14,4219.69-2109.97 M4204.71-2106.04
						c0.95,0.83,2.1,1.89,3.34,3.13c-0.5-0.95-1.07-1.96-1.71-3C4205.82-2105.99,4205.2-2106.06,4204.71-2106.04 M4267.43-1991.93
						c0.95-1.07,23.89-26.14,76.91-26.14c3.05,0,6.19,0.09,9.29,0.25c1.94,0.09,46.6,2.47,73.16,29.6c0.34-0.11,0.7-0.21,1.09-0.31
						c-7.98-10.94-31.96-34.83-89.13-34.83c-2.43,0-4.93,0.04-7.37,0.13c-0.5,0.02-49.11,2.7-65.37,32.9L4267.43-1991.93z
						 M4289-1920.22c11.44,15.86,26.48,25.77,44.8,29.53l1.23-1.89c0.28-0.43,6.98-10.46,17.83-10.46h0
						c5.61,0,11.06,2.65,16.21,7.88l0.8,0.81l0.34,1.08c0.19,0.61,0.74,2.54,0.9,4.92c14.28-1.92,52.17-10.29,66.48-45.67l0.17-0.38
						c0.12-0.23,11.21-22.38,5.79-54.78c-0.81-0.18-1.72-0.43-2.68-0.77l-0.02,1.81c0.05,0.1,0.11,0.19,0.17,0.29l0.5,0.91
						l0.07,1.04c0.02,0.24,0.1,1.5,0.18,3.5l0.61,1.38l-0.56,0.05c0.3,9.45,0.31,30.31-4.58,44.32c-0.68,3.04-3.57,7.05-9.42,7.05
						c-2.85,0-6.07-0.93-9.81-2.83c-0.48-0.24-48.92-23.79-94.42-23.8c-18.93,0-34.69,4.08-46.9,12.13
						C4278.27-1939.42,4281.99-1929.94,4289-1920.22 M4353.66-1852.95c1.69,0.86,3.2,1.32,4.41,1.32c1.64,0,2.53-0.94,2.96-1.6
						c0.18-3.45-0.46-5.99-1.9-7.56c-1.7-1.85-4.28-2.07-5.07-2.09c-0.89,0.22-1.99,1.07-2.63,1.74
						C4349.4-1856.97,4352.38-1853.98,4353.66-1852.95 M4296.42-1964.47l-0.31-0.07c-0.65-0.17-4-1.21-6.11-5.1
						c-1.79-3.29-2.09-7.52-0.9-12.6c-0.06-0.1-0.12-0.21-0.18-0.32c-0.91-1.74-0.8-3.79,0.29-5.61l1.14-1.9l2.2-0.32
						c0.15-0.02,0.93-0.13,2.02-0.13c0.07,0,0.14,0.01,0.21,0.01l3.93-5.79c-0.79-0.55-1.61-1.12-2.46-1.72
						c-4.03,1.84-12.41,5.99-17.76,11.03c-1,3.58-3.93,16.15-0.09,28.31c3.85-1.7,9.94-3.95,18.18-5.76
						C4296.53-1964.45,4296.48-1964.46,4296.42-1964.47 M4415.63-1946.07c1.9-8.31,5.07-24.27,4.04-34.44
						c-3.88-4.24-23.44-22.94-69.73-26.76c-4.73,4.8-18.14,17.85-27.14,21.27c-0.67,0.32-1.54,0.56-2.62,0.56
						c-2.41,0-6.97-1.07-19.09-9.22l-0.57,5.4c3.05,1.45,5.03,4.12,5.46,7.66c0.19,1.04,0.48,2.94,0.52,5.11l0.73,0.08l-0.73,1.43
						c-0.1,2.81-0.7,5.83-2.45,7.94c-0.49,0.59-1.05,1.09-1.66,1.5c6.79-1.15,14.74-1.93,23.82-1.93
						C4354.02-1967.5,4384.09-1960.29,4415.63-1946.07 M4427.37-1942.49c1.04-3.43,1.93-8.79,2.61-15.02
						C4429.14-1951.76,4428.13-1946.35,4427.37-1942.49 M4319.33-1996.76c3.2-1.44,8.15-5.21,12.91-9.28
						c-10.4,0.87-17.97,2.38-23.01,3.71C4314.54-1998.76,4317.82-1997.31,4319.33-1996.76 M4439.73-1990.1l0.46-0.12
						c-0.23-0.09-0.45-0.18-0.69-0.27C4439.58-1990.37,4439.65-1990.23,4439.73-1990.1 M4237.12-2066.37
						c-0.61-0.17-1.19-0.37-1.75-0.6c0.26,0.54,0.5,1.05,0.72,1.55C4236.49-2065.74,4236.83-2066.06,4237.12-2066.37
						 M4227.92-2084.02c-0.02-0.02-0.04-0.04-0.05-0.06c-1.38,0.95-3.02,1.58-4.85,1.84c1.59,1.3,3.02,2.63,4.3,3.95
						C4227.19-2080.51,4227.54-2082.55,4227.92-2084.02 M4503.05-2064.53c-1.68,1.15-3.81,3.67-5.09,5.91l-0.04,0.07
						c-2.78,4.73-3.31,8.3-3.26,10.46c1.63-1.16,3.99-4.27,5.44-7.33l0.1-0.21C4502.59-2060.12,4503.11-2062.97,4503.05-2064.53
						 M4485.61-2057.4c0.69-1.88,1.62-3.89,2.86-5.98c-1.34-0.61-2.58-1.42-3.68-2.41c-0.3,0.48-0.59,0.98-0.86,1.51
						C4484.98-2062.36,4485.69-2059.99,4485.61-2057.4 M4483.59-2050.79c0.12,0.1,0.24,0.2,0.38,0.31c0.05-0.42,0.1-0.85,0.17-1.3
						C4483.98-2051.46,4483.79-2051.13,4483.59-2050.79 M4512.4-2064.13c-0.03,3.67-1.32,7.96-3.87,12.79
						c-0.9,1.9-4.46,8.81-9.92,11.75l-1.73,2.21l-1,1.26l-2.41,3.07l-0.85,1.4l-0.27,0.03l-2.71,3.44l-0.38,0.65
						c-0.08,0.13-0.31,0.5-0.69,0.99c0.21,1.59,0.53,6.54-2.64,10.72c-1.64,2.16-4.83,4.84-10.7,5.44l-3.59,1.48
						c-0.56,0.32-1.31,0.66-2.24,0.92l-8.41,3.46c-0.55,4.09-2.85,10.18-8.4,12.73c6.12,34.67-5.1,58.8-6.4,61.44
						c-8.31,20.4-24.84,35.85-47.82,44.67c-17.2,6.61-31.85,7.2-32.47,7.22l-1.91,0.07l-0.89,0.53l0,8.29
						c1,0.65,1.99,1.44,2.91,2.44c3.4,3.71,4.84,8.94,4.27,15.56l-0.06,0.66l-0.24,0.62c-1.15,2.97-4.95,7.99-11.94,7.99
						c-2.86,0-5.94-0.87-9.15-2.59l-0.28-0.15l-0.25-0.18c-4.08-2.94-10.36-11.09-4.94-20.87l0.2-0.36l0.26-0.32
						c0.19-0.23,1.1-1.31,2.55-2.46c-0.11-0.41-0.25-0.87-0.39-1.28l-1.09-3.28l0.05-0.04c-0.58-1.71-0.83-2.89-0.78-3.89
						c-1.14-0.62-2.14-1.46-3.02-2.4l-1.01-0.11c-24.24-2.7-44.64-14.75-59.01-34.83c-10.77-15.06-14.35-29.23-14.49-29.83
						l-0.74-3.02l2.5-1.85c0.86-0.64,1.73-1.25,2.62-1.85c-3.86-8.94-4.35-18.19-3.77-25.49c-3.01-1.21-6.06-3.61-7.9-5.23
						l-0.73-0.64l-1.72-3.78l-0.74-10.17c1.41-7.91,3.74-15.16,6.62-21.73c-2.98-4.03-2.37-10.03-1.76-13.21l-3.28-2.82l-0.42,0.04
						l-3.9-3.27c-1.12-0.07-2.29-0.23-3.5-0.51l-0.14-0.03c-3.03-0.78-8.49-4.33-9.71-12.66l-0.01-0.08l-1.18-0.48
						c-0.25-0.1-0.97-0.4-1.88-0.88l-4.9-0.05l-1.31-0.51l-1.37-0.2c-1.62-0.57-4.38-1.79-7.49-4.17l-0.92-0.87l-1.77-1.43
						c-4.43-4.22-9.07-10.92-11.85-21.41l-0.53-2.94l-0.62-1.53l-0.09-0.33c-1.37-1.63-3.86-4.06-7.98-6.29l-0.57-0.31l-0.47-0.46
						c-1.31-1.27-4.32-4.66-4.08-8.5c0.09-1.49,0.66-2.86,1.62-3.95c-0.06-2.67,0.65-4.91,2.16-6.66c1.26-1.47,3.67-3.22,7.95-3.22
						c0.48,0,0.94,0.02,1.39,0.06c0.67-1.5,1.68-2.4,2.3-2.85c2.44-1.84,5.08-2.77,7.84-2.77c6.24,0,10.36,4.82,10.81,5.36
						l0.35,0.42l0.24,0.5c5.09,10.45,4.4,18.2,3.8,21.25c0.91,0.74,2.01,1.73,3.03,2.89c4.32-3.59,8.79-4.51,12.22-4.51
						c4.25,0,7.3,1.45,7.63,1.62l0.39,0.22c4.77,2.96,5.82,6.43,5.86,8.83c0.1,5.45-4.75,8.98-5.74,9.64
						c-2.5,1.66-4.11,2.88-5.14,3.71l1.26,1.65l1.28,1.28l0.02,0.43l1.8,2.36c0.3-0.02,0.63-0.04,0.97-0.04
						c5.62,0,11.83,3.55,12.43,13.51l1.88,2.36l1.43,0.96l1.12,2.15c0.81-0.16,1.66-0.25,2.57-0.25c2.17,0,4.24,0.48,5.49,0.84
						c6.21-7.2,12.23-12.43,16.32-15.63l-1.69-4l-0.02-0.01l-1.03-2.27c-1.12-2.48-1.85-4.33-2.34-5.73l-0.11-0.25l0.02,0
						c-0.37-1.09-0.58-1.91-0.69-2.51l-0.22-0.08l-1.8-4.51c-2.32-1.02-4.35-2.48-6.06-4.37c-6.6-7.3-5.57-18.27-5.52-18.74
						l0.08-0.75c-1.92-2-3.89-4.53-5.86-7.73c-0.76-1.11-10.35-14.96-24.06-25.67l-1.22-0.96l-0.36-0.24
						c-0.21-0.14-0.52-0.37-0.86-0.71l-2.43-3.18l-0.37-2.61c-0.27-1.39-0.4-3.06-0.32-5.04c-12.24-11.1-14.94-27.5-15.21-29.32
						c-2.19-11.8,4.45-14.78,6.15-15.34l0,0c13.52-4.37,22.99-6.97,28.27-7.79l2.19-0.18l31.25,11.29l1.77-0.26l1.25-0.32l2.65-0.26
						l4.04,1.92l11.8,5.62l0.12,2.81c0.08,1.96,1.98,46.75-2.02,64.71l0.79,1.15c0.4,0.59,9.08,13.52,3.71,25.83l2.36,9.06
						l-0.17,0.19l1.91,6c9.01-2.91,18.96-4.4,29.8-4.39c21.95,0,39.44,6.09,40.17,6.35l0.2,0.07c0.77,0.32,1.53,0.64,2.28,0.96
						c0.17-0.53,0.34-0.99,0.47-1.32l0.12-0.8c0.22-1.44,1.6-6.71,2.18-8.91l0.66-2.48c0.29-2.78,1.25-5.92,2.18-8.44l0.27-0.74
						c-3.69-11.25,3.59-20.95,4.76-22.41c-8.9-27.12-6.04-53.63-5.76-55.93c0.19-2.28,1.52-5.59,9.11-13.73
						c3.91-4.2,7.73-7.79,7.89-7.94l0.39-0.36l1.66-1.56l2.82-0.39l3.19,0.44c1.81,0.2,3.07,0.57,3.74,0.81
						c7-2.87,19.63-10,24.61-12.93l3.2-1.89l2,0.28l2.5,0.24c3.31,0.49,8.62,1.52,12.24,3.48c6.91,1.5,18.17,4.4,21.5,7.9l1.28,1.34
						l0.01,1.86c0.01,3.51-0.25,27.37-9.36,41.18v8.27l-0.01,0.11l-1.24,3.94l-2.64,5.03c-3.26,3.04-8.77,7.2-9,7.38l-0.32,0.24
						l-0.36,0.19c-13.08,6.72-26.08,17.2-32.14,22.38c0.32,1.83,1.88,12.42-3.76,19.58c-1.5,1.91-3.39,3.39-5.59,4.41l-0.18,0.43
						l0.79-0.17l-5.16,9.02c-0.81,1.41-2.7,5.73-3.7,8.12l-0.01,0.02l-0.13,0.67c-0.7,3.4-2.52,7.23-3.59,9.28
						c12.25,12.11,17.69,25.38,19.76,31.81c1.31-0.45,2.74-0.71,4.33-0.71h0c2.23,0,4.58,0.53,7.01,1.56
						c0.74-0.71,1.62-1.47,2.55-2.1c0.5-1.15,1.43-2.75,3.1-4.19l0.62-0.54c0.02-0.17,0.03-0.34,0.05-0.52l0.06-0.63l0.23-0.59
						c1.39-3.59,5.75-9.66,13.29-9.66h0c0.3,0,0.61,0.01,0.92,0.03l1.86-4.83l0.58,0.83l0.56-1.62c-0.21-0.34-0.39-0.66-0.53-0.95
						l-0.88-0.47c-1.01-0.54-3.64-1.38-5.19-1.79l-0.11-0.03c-5.52-1.64-8.85-4.34-9.89-8.01c-0.99-3.5,0.52-6.84,2.12-8.63
						l0.11-0.12c3.43-3.59,7.03-4.34,9.44-4.34c2.56,0,4.84,0.81,6.7,1.84c2.66-4.66,6.12-7.71,7.67-8.92
						c0.2-2.68,0.67-4.69,0.77-5.09l0.06-0.21c3.79-12.59,9.13-15.23,12.94-15.23c0.36,0,0.68,0.02,0.96,0.06
						c2.57,0.15,4.48,0.83,5.9,1.71c1.28-0.64,2.65-0.99,4.04-0.99c0.75,0,1.36,0.1,1.77,0.2c4.32,0.81,6.5,3.07,7.58,4.84
						c1.07,1.76,1.42,3.57,1.45,5.1l0.24,0.32c3.53,4.61,1.4,10.34-2.56,13.7c-2.51,2.44-3.81,3.93-4.46,4.75"/>
				</g>
				<g id="g4511_2_" transform="translate(105.9185,198.9136)">
					<path id="path4513_2_" class="st12" d="M4436.91-1994.27c0,0,13.42-0.78,12.01,15.59c0,0-3.43,8.89-14.51,2.96
						c0,0-8.42-6.08-3.59-14.81C4430.83-1990.53,4433.48-1993.81,4436.91-1994.27"/>
				</g>
				<g id="g4515_2_" transform="translate(104.6118,198.231)">
					<path id="path4517_2_" class="st13" d="M4435.93-1994.79c0,0,3.64-0.94,6.86,0.62c0,0,0.52-3.85,0-4.57c0,0-3.33-2.39-7.7,0.73
						C4435.1-1998.01,4435.82-1995.83,4435.93-1994.79"/>
				</g>
				<g id="g4519_2_" transform="translate(103.8994,195.4751)">
					<path id="path4521_2_" class="st13" d="M4435.39-1996.86c0,0,5.14-2.55,8.35-0.37v-5.61c0,0-7.43-3.18-9.49,1.97
						C4434.04-2000.35,4435.39-1996.86,4435.39-1996.86"/>
				</g>
				<g id="g4523_2_" transform="translate(103.2339,192.1758)">
					<path id="path4525_2_" class="st13" d="M4434.89-1999.34c0,0,4.12-3.71,9.51-1.18v-3.81c0,0-3.35-6.76-10.32,1.77
						L4434.89-1999.34z"/>
				</g>
				<g id="g4527_2_" transform="translate(102.1777,190.9287)">
					<path id="path4529_2_" class="st13" d="M4434.1-2000.27c0,0-2.26-6.55,7.4-6.86c0,0,5.92-0.52,5.71,6.86l3.64-2.18
						c0,0,0.83-5.41,0-7.59c0,0-10.51-11.54-23.09,0.73C4427.75-2009.32,4430-2001.8,4434.1-2000.27"/>
				</g>
				<g id="g4531_2_" transform="translate(112.834,190.0254)">
					<path id="path4533_2_" class="st12" d="M4442.11-2000.95c0,0,57.15-2.06,76.19-49.15c0,0,12.8-24.95,5.62-61.12
						c0,0-11.75,0.42-15.91-13.1c0,0,0-8.73,4.16-12.89c0,0-7.49-34.73-44.94-49.9c0,0-51.17-18.09-86.75,8.11
						c0,0-35.78,22.87-43.27,65.08c0,0,23.2-40.34,96.53-32.85c0,0,56.79,2.18,79.57,43.35c0,0,2.03,30.25-4.21,47.72
						c0,0-0.94,7.17-12.64,1.25c0,0-97.05-47.72-148.85-9.36c0,0,13.52,54.89,69.48,61.13l-1.77-5.15c0,0,11.44-17.46,26.78-1.87
						C4442.11-2009.71,4443.77-2004.35,4442.11-2000.95"/>
				</g>
				<g id="g4535_2_" transform="translate(61.5723,150.5605)">
					<path id="path4537_2_" class="st3" d="M4403.56-2030.59c0,0,50.55-30.87,142.92,12.79c0,0,7.49-28.07,5.3-43.04
						c0,0-19.14-25.57-76.04-29.63c0,0-17.58,18.4-27.25,21.83c0,0-2.5,2.5-24.03-13.1c0,0-14.67,5.93-22.47,13.88
						C4402-2067.86,4395.29-2048.06,4403.56-2030.59"/>
				</g>
				<g id="g4539_2_" transform="translate(71.4565,131.4155)">
					<path id="path4541_2_" class="st11" d="M4410.99-2044.97c0,0,7.49-1.09,8.11,4.83c0,0,2.5,13.1-4.06,11.85
						c0,0-7.18-1.87-2.81-14.97C4412.24-2043.26,4410.06-2043.42,4410.99-2044.97"/>
				</g>
				<g id="g4543_2_" transform="translate(72.5254,133.1968)">
					<path id="path4545_2_" class="st3" d="M4411.79-2043.64c0,0-1.09,9.51,4.84,10.14c0,0-3.12,6.08-5.93-2.18
						C4410.7-2035.68,4409.82-2040.72,4411.79-2043.64"/>
				</g>
				<g id="g4547_2_" transform="translate(120.6104,131.3701)">
					<path id="path4549_2_" class="st11" d="M4447.96-2045.01l-9.05-1.79c0,0-4.84,0.91-4.37,11.14c0,0,0.31,7.59,5.62,7.5
						c0,0,8.19-2.42,3.51-16.53L4447.96-2045.01z"/>
				</g>
				<g id="g4551_2_" transform="translate(114.9111,132.2168)">
					<path id="path4553_2_" class="st3" d="M4443.67-2044.37c0,0-2.1,10.6,4.68,11.93c0,0-3.98,7.02-6.79-2.1
						C4441.57-2034.55,4440.29-2041.58,4443.67-2044.37"/>
				</g>
				<g id="g4555_2_" transform="translate(74.8403,121.0859)">
					<path id="path4557_2_" class="st12" d="M4413.54-2052.73c0,0,13.37-6.81,45.82-7.54c0,0-17.37,17.15-25.48,19.54
						C4433.87-2040.73,4427.94-2041.56,4413.54-2052.73"/>
				</g>
				<g id="g4559_2_" transform="translate(58.7227,134.1167)">
					<path id="path4561_2_" class="st14" d="M4401.41-2042.95c0,0,0.94-5.51,2.29-7.8h-2.29c0,0,24.44-27.44,82.49-24.32
						c0,0,47.01,2.18,72.18,30.51c0,0,2.19-1.72,9.88-2.44c0,0-20.28-45.74-104.33-42.83c0,0-53.67,2.5-70.31,37.43l1.66,4.65
						C4392.99-2047.76,4398.81-2042.63,4401.41-2042.95"/>
				</g>
				<g id="g4563_2_" transform="translate(144.7422,158.6641)">
					<path id="path4565_2_" class="st14" d="M4466.11-2024.51c0,0,7.02-31.5,4.84-43.82l9.67-2.5c0,0-0.31,39.92-6.55,48.03
						C4474.07-2022.79,4468.92-2023.1,4466.11-2024.51"/>
				</g>
				<g id="g4567_2_" transform="translate(160.7725,112.6265)">
					<path id="path4569_2_" class="st12" d="M4478.17-2059.09c0,0-8.74,14.03,6.71,12.79c0,0-0.71,10.29-9.17,10.6
						c0,0-13.77-1.4-13.77-15.13C4461.94-2050.82,4465.06-2065.48,4478.17-2059.09"/>
				</g>
				<g id="g4571_2_" transform="translate(161.3945,113.9619)">
					<path id="path4573_2_" class="st13" d="M4478.64-2058.08c0,0,0.31,5.61,5.62,7.48c0,0-3.12,3.43-7.33-0.55
						C4476.92-2051.15,4475.12-2054.65,4478.64-2058.08"/>
				</g>
				<g id="g4575_2_" transform="translate(164.5996,110.7119)">
					<path id="path4577_2_" class="st13" d="M4481.05-2060.53c0,0-1.33,6.63,8.27,10.91l-5.31,2.18c0,0-8.35-2.1-7.25-9.28
						C4476.76-2056.7,4479.1-2059.51,4481.05-2060.53"/>
				</g>
				<g id="g4579_2_" transform="translate(166.2471,108.3521)">
					<path id="path4581_2_" class="st13" d="M4482.29-2062.3c0,0,1.41,9.04,10.38,12.94c0,0-1.8,1.49-5.19,0.78
						c0,0-7.14-1.87-7.3-10.53C4480.18-2059.1,4480.57-2060.82,4482.29-2062.3"/>
				</g>
				<g id="g4583_2_" transform="translate(173.9492,102.3418)">
					<path id="path4585_2_" class="st12" d="M4488.08-2066.81c0,0-3.98,13.72,11.08,10.52c0,0,1.87,10.14-9.36,11.15
						c0,0-14.51,0.31-12.95-15.28C4476.85-2060.42,4480.05-2068.68,4488.08-2066.81"/>
				</g>
				<g id="g4587_2_" transform="translate(174.9297,102.3857)">
					<path id="path4589_2_" class="st13" d="M4488.82-2066.78c0,0,4.37,6.16,10.69,6.71c0,0-3.12,5.32-9.28,1.84
						C4490.22-2058.23,4486.48-2060.7,4488.82-2066.78"/>
				</g>
				<g id="g4591_2_" transform="translate(176.5332,99.8926)">
					<path id="path4593_2_" class="st13" d="M4490.02-2068.65c0,0,3.2,6.08,11.86,5.77l-3.12,3.98c0,0-7.41,0.94-10.84-6.31
						C4487.92-2065.22,4488.85-2067.01,4490.02-2068.65"/>
				</g>
				<g id="g4595_2_" transform="translate(177.4678,96.999)">
					<path id="path4597_2_" class="st13" d="M4490.73-2070.83c0,0,8.04,6,13.81,5.07l-2.96,4.89c0,0-8.97,0.88-12.01-6.53
						L4490.73-2070.83z"/>
				</g>
				<g id="g4599_2_" transform="translate(192.4717,83.4189)">
					<path id="path4601_2_" class="st12" d="M4502.01-2081.03c0,0,6.09,3.12-0.94,16.37c0,0-6.55,14.03-13.57,9.67
						c0,0-3.12-6.55,3.12-17.15C4490.62-2072.14,4496.08-2081.81,4502.01-2081.03"/>
				</g>
				<g id="g4603_2_" transform="translate(176.7998,94.1934)">
					<path id="path4605_2_" class="st12" d="M4490.22-2072.93c0,0,1.4,5.11,11.39,8.01c0,0-4.21-10.35,7.64-24.08
						c0,0-5.46,1.47-9.52-2.85v-5.52c0,0-6.08,4.16-8.74,11.65C4491-2085.72,4496.78-2079.8,4490.22-2072.93"/>
				</g>
				<g id="g4607_2_" transform="translate(188.376,84.3096)">
					<path id="path4609_2_" class="st13" d="M4498.93-2080.36l4.26-2.5l-2.13-1.35L4498.93-2080.36z"/>
				</g>
				<g id="g4611_2_" transform="translate(175.3301,93.1553)">
					<path id="path4613_2_" class="st13" d="M4489.12-2073.71c0,0,7.46-0.52,2.58-9.77c0,0-7.39-8.73-14.35-1.46
						c0,0-5.2,5.82,5.62,9.04C4482.96-2075.9,4487.17-2074.75,4489.12-2073.71"/>
				</g>
				<g id="g4615_2_" transform="translate(183.2998,82.6475)">
					<path id="path4617_2_" class="st13" d="M4495.11-2081.61c0,0,2.63,4.51,7.12,2.91c0,0,2.91-1.98,4.58-12.27
						c0,0,0.1-2.5,3.02-6.13c0,0,2.5-7.48-5.82-7.8c0,0-4.89-1.46-8.89,11.85C4495.11-2093.04,4493.5-2086.6,4495.11-2081.61"/>
				</g>
				<g id="g4619_2_" transform="translate(192.4717,70.5957)">
					<path id="path4621_2_" class="st13" d="M4502.01-2090.66c0,0,1.87,4.78-2.29,9.77c0,0-3.06,4.61-2.29,9.04
						c0,0,1.98,3.85,4.06,0.83c0,0,2.08-6.45,9.68-13.41c0,0,1.98-6.34-5.1-7.59C4506.07-2092.01,4504.09-2092.63,4502.01-2090.66"
						/>
				</g>
				<g id="g4623_2_" transform="translate(192.2939,82.8242)">
					<path id="path4625_2_" class="st13" d="M4501.88-2081.47l2.66,0.68c0,0-0.27-1.2,6.28-7.54c0,0,4.68-3.84,1.98-7.38
						c0,0-3.84,3.95-5.04,4.99c0,0-3.7,4.47-4.53,8L4501.88-2081.47z"/>
				</g>
				<g id="g4627_2_" transform="translate(56.2886,111.083)">
					<path id="path4629_2_" class="st12" d="M4399.58-2060.25c0,0,8.63-14.87,13-19.65c0,0-5.62-2.08-8.53,0c0,0,5.51,8.52-5.1,8.52
						C4398.96-2071.37,4396.88-2063.78,4399.58-2060.25"/>
				</g>
				<g id="g4631_2_" transform="translate(54.938,102.7871)">
					<path id="path4633_2_" class="st13" d="M4398.57-2066.48c0,0,3.67-0.7,5.62-4.37c0,0,2.33,4.62,0,6.16
						C4404.18-2064.69,4401.69-2062.81,4398.57-2066.48"/>
				</g>
				<g id="g4635_2_" transform="translate(52.6675,101.1836)">
					<path id="path4637_2_" class="st13" d="M4396.86-2067.68c0,0,5.38-1.01,6.71-5.77l2.5,3.35c0,0-0.86,3.27-6.4,4.83
						L4396.86-2067.68z"/>
				</g>
				<g id="g4639_2_" transform="translate(50.7529,99.8037)">
					<path id="path4641_2_" class="st13" d="M4395.42-2068.72c0,0,6.79-2.81,7.33-7.41l2.19,2.73c0,0,0,5.61-7.57,6.32
						L4395.42-2068.72z"/>
				</g>
				<g id="g4643_2_" transform="translate(43.8076,93.7041)">
					<path id="path4645_2_" class="st12" d="M4390.2-2073.3c0,0,4.45,6.62,9.67-0.39c0,0,3.2-2.42-1.25-8.26c0,0,9.1-2.46,9.75,8.96
						c0,0,0.16,11.23-11.94,8.5C4396.44-2064.49,4391.29-2065.82,4390.2-2073.3"/>
				</g>
				<g id="g4647_2_" transform="translate(45.0542,93.5264)">
					<path id="path4649_2_" class="st13" d="M4391.13-2073.43c0,0,3.9-1.95,5.38-6.86c0,0,2.96,2.42,0.39,6.86
						C4396.9-2073.43,4394.88-2070.24,4391.13-2073.43"/>
				</g>
				<g id="g4651_2_" transform="translate(42.5605,91.7012)">
					<path id="path4653_2_" class="st13" d="M4389.26-2074.8c0,0,5.93-1.87,6.24-9.36l3.04,3.99c0,0-0.78,6.22-6.32,7.55
						L4389.26-2074.8z"/>
				</g>
				<g id="g4655_2_" transform="translate(39.1768,89.9199)">
					<path id="path4657_2_" class="st13" d="M4386.71-2076.14c0,0,7.1-3.2,9.21-9.59l1.95,1.95c0,0,0.47,8.57-7.1,10.06
						C4390.77-2073.72,4388.27-2074.74,4386.71-2076.14"/>
				</g>
				<g id="g4659_2_" transform="translate(25.0034,75.8789)">
					<path id="path4661_2_" class="st12" d="M4376.05-2086.69c0,0,19.04,10.81,20.18,25.57
						C4396.23-2061.12,4381.72-2064.34,4376.05-2086.69"/>
				</g>
				<g id="g4663_2_" transform="translate(37.0547,76.7705)">
					<path id="path4665_2_" class="st13" d="M4385.12-2086.02v3.54c0,0,3.43,8.11,11.23,6.03c0,0,0.42-1.56,8.22-6.76
						c0,0,8.22-5.51,0-10.6C4404.57-2093.82,4393.44-2099.33,4385.12-2086.02"/>
				</g>
				<g id="g4667_2_" transform="translate(28.0313,72.4961)">
					<path id="path4669_2_" class="st13" d="M4378.33-2089.23c0,0,8.43,3.33,9.67-4.58c0,0,2.39-7.59-3.23-19.13
						c0,0-5.62-6.86-12.27-1.77c0,0-2.7,1.56,0.52,6.65C4373.02-2108.05,4380.51-2096.2,4378.33-2089.23"/>
				</g>
				<g id="g4671_2_" transform="translate(25.7158,73.4453)">
					<path id="path4673_2_" class="st13" d="M4376.59-2088.52l2.81-1.77c0,0,2.18-7.69-6.66-21c0,0-11.13-3.64-9.67,5.82
						C4363.07-2105.46,4373.88-2097.15,4376.59-2088.52"/>
				</g>
				<g id="g4675_2_" transform="translate(17.4644,64.6006)">
					<path id="path4677_2_" class="st13" d="M4370.38-2095.16c0,0,11.65,8.39,13.21,16.63c0,0-2.7-5.61-11.34-10.29
						C4372.25-2088.82,4367.78-2093.19,4370.38-2095.16"/>
				</g>
				<g id="g4679_2_" transform="translate(27.4551,73.208)">
					<path id="path4681_2_" class="st12" d="M4377.9-2088.7c0,0,8.78,3.43,11.19-3.12c0,0,4.8,3.33,5.63,6.34
						c0,0-5.83,14.14,10.71,14.24c0,0,0.94,6.65-10.19,11.85c0,0-2.29-15.07-21.64-25.78L4377.9-2088.7z"/>
				</g>
				<g id="g4683_2_" transform="translate(76.1167,88.0498)">
					<path id="path4685_2_" class="st13" d="M4414.5-2077.55c0,0,9.36-6.34,17.68-9.88l-1.25-2.91c0,0-6.97,7.8-19.14,6.39
						L4414.5-2077.55z"/>
				</g>
				<g id="g4687_2_" transform="translate(72.5547,79.0254)">
					<path id="path4689_2_" class="st13" d="M4411.82-2084.33c0,0,6.76,6.13,20.49-4.05l1.87,5.88c0,0-6.76,8.25-19.56,6.07
						C4414.63-2076.42,4411.71-2082.87,4411.82-2084.33"/>
				</g>
				<g id="g4691_2_" transform="translate(83.2998,72.4355)">
					<path id="path4693_2_" class="st13" d="M4419.9-2089.28c0,0-5.2,8.11-20.7,7.49l0.62,1.56l1.25,0.41l2.4,2.5
						c0,0,11.13,1.87,17.99-5.98L4419.9-2089.28z"/>
				</g>
				<g id="g4695_2_" transform="translate(75.5234,75.4639)">
					<path id="path4697_2_" class="st12" d="M4414.05-2087c0,0-9.47-5.3-9.26-16.53c0,0-5.2,0.72-9.46-3.12
						C4395.33-2106.65,4393.14-2085.13,4414.05-2087"/>
				</g>
				<g id="g4699_2_" transform="translate(70.7739,66.0254)">
					<path id="path4701_2_" class="st12" d="M4410.48-2094.09c0,0,14.87,0.73,18.72-13.83c0,0,9.05,13.2,1.87,23.91
						c0,0-2.81,4.57-10.3,6.03C4420.77-2077.98,4411-2081.93,4410.48-2094.09"/>
				</g>
				<g id="g4703_2_" transform="translate(46.7905,42.3672)">
					<path id="path4705_2_" class="st12" d="M4392.44-2111.86c0,0,46.65-3.9,48.68-6.7c0,0,3.74-18.71,2.34-38.83l10.14,4.83
						c0,0,2.13,48.96-2.29,65.02c0,0-0.26,14.3-15.6,15.1c0,0-8.63,2.99-18.15-12.61
						C4417.56-2085.04,4407.42-2100.17,4392.44-2111.86"/>
				</g>
				<g id="g4707_2_" transform="translate(45.7217,41.5664)">
					<path id="path4709_2_" class="st14" d="M4391.64-2112.46c0,0-2.34-1.56-1.87-8.11c0,0,31.83-1.09,43.53-5.61
						c0,0,4.68-3.59,3.43-30.41l6.24-0.94c0,0,2.34,27.6-2.96,39.45C4440-2118.08,4405.83-2112.77,4391.64-2112.46"/>
				</g>
				<g id="g4711_2_" transform="translate(68.874,32.8408)">
					<path id="path4713_2_" class="st15" d="M4409.05-2119.02c0,0,4.06-8.11,2.81-29.78l-24.96-10.45
						C4386.89-2159.25,4393.45-2128.84,4409.05-2119.02"/>
				</g>
				<g id="g4715_2_" transform="translate(67.8945,33.375)">
					<path id="path4717_2_" class="st13" d="M4408.31-2118.62c0,0-13.42-6.86-22.31-41.17c0,0-0.31-2.18-30.74,7.64
						c0,0-4.68,1.09-2.96,10.14c0,0,2.33,17.5,15.23,27.91C4367.53-2114.09,4399.89-2115.34,4408.31-2118.62"/>
				</g>
				<g id="g4719_2_" transform="translate(131.623,84.3691)">
					<path id="path4721_2_" class="st13" d="M4456.24-2080.31c0,0,5.93,2.81,16.02,11.22c0,0,3.02-5.3,3.85-9.35
						c0,0-11.23,1.67-18.62-6.45C4457.49-2084.89,4456.5-2082.69,4456.24-2080.31"/>
				</g>
				<g id="g4723_2_" transform="translate(132.4541,80.9844)">
					<path id="path4725_2_" class="st13" d="M4456.87-2082.85c0,0,6.66,8.84,18.83,6.24c0,0,2.7-6.45,3.95-8.63
						c0,0-12.48,2.6-20.7-6.03C4458.95-2091.28,4457.08-2084.2,4456.87-2082.85"/>
				</g>
				<g id="g4727_2_" transform="translate(134.1162,75.583)">
					<path id="path4729_2_" class="st13" d="M4458.12-2086.91c0,0,8.11,9.35,20.8,5.2c0,0,1.87-3.33,3.12-6.34
						c0,0-15.39,3.33-22.05-8.32C4459.99-2096.37,4457.42-2089.4,4458.12-2086.91"/>
				</g>
				<g id="g4731_2_" transform="translate(146.2861,73.9199)">
					<path id="path4733_2_" class="st12" d="M4467.27-2088.16c0,0,4.68-6.34,3.54-17.05c0,0,4.58,0.21,8.32-3.22
						C4479.13-2108.43,4482.77-2088.99,4467.27-2088.16"/>
				</g>
				<g id="g4735_2_" transform="translate(145.0986,73.9199)">
					<path id="path4737_2_" class="st12" d="M4466.38-2088.16c0,0,5.62-4.47,4.68-17.05c0,0-11.03,0.94-17.68-11.44
						c0,0-8.43,9.98-3.02,20.58C4450.36-2096.06,4455.46-2087.64,4466.38-2088.16"/>
				</g>
				<g id="g4739_2_" transform="translate(143.792,13.665)">
					<path id="path4741_2_" class="st12" d="M4465.4-2133.42c0,0-15.27,14.35-15.54,18.71c0,0-3.7,29.83,7.06,58.32
						c0,0,8.27,15.91,22.62,7.17c0,0,18.09-16.63,36.71-26.2c0,0,5.51-4.16,8.63-7.07c0,0-38.27,4.57-52.42-4.99
						C4472.47-2087.47,4464.15-2094.75,4465.4-2133.42"/>
				</g>
				<g id="g4743_2_" transform="translate(144.7422,13.25)">
					<path id="path4745_2_" class="st14" d="M4466.11-2133.73c0,0-3.12,46.31,11.39,48.34c0,0,17.32,4.52,38.85,2.81
						c0,0,9.52-0.31,9.99-5.14v-6.24c0,0-1.87,7.12-24.44,4.83c0,0-23.19,0.31-25.38-9.25c0,0-3.54-16.22-4.89-34.62
						C4471.62-2133.01,4469.75-2133.84,4466.11-2133.73"/>
				</g>
				<g id="g4747_2_" transform="translate(151.6875,33.5527)">
					<path id="path4749_2_" class="st15" d="M4471.34-2118.48c0,0,20.13-21.99,22-48.34c0,0-19.31,11.37-27.62,14.19
						C4465.72-2152.63,4468.22-2127.06,4471.34-2118.48"/>
				</g>
				<g id="g4751_2_" transform="translate(165.3125,5.4141)">
					<path id="path4753_2_" class="st13" d="M4481.58-2139.62c0,0,9.52,0.93,13.73,3.59c0,0,16.85,3.58,19.82,6.71
						c0,0,0.15,42.1-18.41,46c0,0-29.17,2.18-37.6-5.15C4459.12-2088.47,4479.87-2112.17,4481.58-2139.62"/>
				</g>
				<g id="g4755_2_" transform="translate(59.5322,107.9336)">
					<path id="path4757_2_" class="st13" d="M4402.02-2062.61c44.19-27.1,133.03-17.02,159.28,20.38
						c0.26-6.52,1.87-10.43,4.16-12.89c-0.31-1.23-0.6-2.54-1.1-3.79c-13.05-33.21-101.99-52.89-148.12-22.71
						C4407.49-2072.9,4404.22-2066.61,4402.02-2062.61"/>
				</g>
				<g id="g4759_2_" transform="translate(58.7358,108.3521)">
					<path id="path4761_2_" class="st16" d="M4401.42-2062.3c45.7-27.82,136.08-17.41,161.71,20.42"/>
				</g>
				<g id="g4763_2_" transform="translate(153.1299,112.3247)">
					<path id="path4765_2_" class="st16" d="M4472.42-2059.31c-0.31-1.23-0.6-2.54-1.1-3.79c-13.05-33.21-101.69-53.91-150.39-22.11
						"/>
				</g>
				<g id="g4767_2_" transform="translate(85.3184,87.9385)">
					<path id="path4769_2_" class="st17" d="M4421.42-2077.63c4.17-1.65,19.17-3.71,27.84-2.55v26.55
						c-8.12-0.46-23.29,0.34-27.84,1.28V-2077.63z"/>
				</g>
				<g id="g4771_2_" transform="translate(88.3164,92.999)">
					<path id="path4773_2_" class="st3" d="M4423.67-2073.83c-0.11,0.12-0.25,0.18-0.4,0.19c-0.15,0.01-0.28-0.04-0.39-0.15
						c-0.11-0.11-0.16-0.24-0.16-0.4c0-0.16,0.05-0.29,0.16-0.41c0.11-0.12,0.24-0.18,0.39-0.19c0.16-0.01,0.29,0.04,0.4,0.15
						c0.11,0.11,0.16,0.24,0.16,0.39C4423.84-2074.08,4423.78-2073.95,4423.67-2073.83 M4430.87-2067.75l-0.84,0.03v-5.1
						c0-0.5,0.02-0.86,0.05-1.07l-0.02,0l-0.29,0.5l-3.59,5.83l-1.09,0.04v-7.24l0.84-0.03v5.23c0,0.51-0.01,0.84-0.04,1h0.03
						c0.06-0.17,0.14-0.33,0.23-0.47l3.7-5.92l1.02-0.04V-2067.75z M4436.33-2074.45l-2.96,0.12v2.53l2.59-0.11v0.77l-2.59,0.11
						v2.41l2.8-0.12v0.77l-3.64,0.15v-7.24l3.81-0.16V-2074.45z M4441.96-2068.21l-4.98,0.21v-0.77l2.07-0.09v-6.47l0.84-0.04v6.47
						l2.07-0.09V-2068.21z"/>
				</g>
			</g>
		</g>
	</g>
	<g>
		<g>
			<path class="st3" d="M1251.6,621.49c1.86-0.69,3.93-0.57,5.7,0.31l9.03,4.51c2.29,1.15,3.73,3.42,3.73,5.9v29.64
				c0,2.48-1.44,4.76-3.73,5.9l-9.03,4.51c-1.76,0.88-3.84,0.99-5.7,0.31l-25.64-9.48c-2.68-0.99-4.44-3.46-4.44-6.21v-19.71
				c0-2.75,1.77-5.22,4.44-6.21L1251.6,621.49z"/>
		</g>
		<path class="st18" d="M1265.29,628.38l-9.03-4.51c-1.19-0.6-2.6-0.67-3.86-0.21l-25.64,9.48c-1.81,0.67-2.93,2.3-2.93,4.04v19.71
			c0,1.74,1.12,3.37,2.93,4.04l25.64,9.48c1.26,0.47,2.67,0.39,3.86-0.21l9.03-4.51c1.54-0.77,2.45-2.27,2.45-3.84v-29.64
			C1267.75,630.65,1266.84,629.15,1265.29,628.38z M1257.3,621.8c-1.76-0.88-3.84-0.99-5.7-0.31l-25.64,9.48
			c-2.68,0.99-4.44,3.46-4.44,6.21v19.71c0,2.75,1.77,5.22,4.44,6.21l25.64,9.48c1.86,0.69,3.93,0.57,5.7-0.31l9.03-4.51
			c2.29-1.15,3.73-3.42,3.73-5.9v-29.64c0-2.48-1.44-4.76-3.73-5.9L1257.3,621.8z"/>
		<path class="st19" d="M1233.27,656.85c-0.4,0.35-0.95,0.44-1.44,0.23l-2.52-1.08c-0.52-0.22-0.85-0.74-0.85-1.32V639.4
			c0-0.58,0.34-1.1,0.85-1.32l2.52-1.08c0.48-0.21,1.04-0.12,1.44,0.23l0.57,0.5c-0.51-0.37-1.21,0-1.21,0.65v17.33
			c0,0.64,0.71,1.02,1.21,0.65L1233.27,656.85z"/>
		<g>
			<path class="st20" d="M1229.34,655.99c-0.54-0.22-0.89-0.75-0.89-1.33v-0.12c0,0.76,0.94,1.13,1.45,0.56l22.38-24.75
				c0.65-0.65,1.64-0.82,2.46-0.42l7.14,3.44c0.75,0.36,1.23,1.12,1.23,1.95v0.08c0-1.15-1.34-1.79-2.23-1.06l-26.84,22l-0.59,0.5
				c-0.41,0.35-0.99,0.45-1.5,0.24L1229.34,655.99z"/>
		</g>
		<g>
			<path class="st21" d="M1229.34,638.09c-0.54,0.22-0.89,0.75-0.89,1.33v0.12c0-0.76,0.94-1.13,1.45-0.56l22.38,24.75
				c0.65,0.65,1.64,0.82,2.46,0.42l7.14-3.44c0.75-0.36,1.23-1.12,1.23-1.95v-0.08c0,1.15-1.34,1.79-2.23,1.06l-26.84-22l-0.59-0.5
				c-0.41-0.35-0.99-0.45-1.5-0.24L1229.34,638.09z"/>
		</g>
		<g>
			<path class="st22" d="M1254.81,664.15c-0.82,0.4-1.8,0.23-2.45-0.42c0.79,0.8,2.15,0.23,2.15-0.9v-31.58
				c0-1.14-1.36-1.71-2.15-0.9c0.64-0.65,1.63-0.82,2.45-0.42l7.09,3.45c0.75,0.36,1.22,1.13,1.22,1.96v23.4
				c0,0.84-0.47,1.6-1.22,1.96L1254.81,664.15z"/>
		</g>
	</g>
</g>
</svg>
