<?xml version="1.0" encoding="utf-8"?>
<!-- Generator: Adobe Illustrator 23.1.1, SVG Export Plug-In . SVG Version: 6.00 Build 0)  -->
<svg version="1.1" id="Layer_1" xmlns="http://www.w3.org/2000/svg" xmlns:xlink="http://www.w3.org/1999/xlink" x="0px" y="0px"
	 viewBox="0 0 730 730" style="enable-background:new 0 0 730 730;" xml:space="preserve">
<style type="text/css">
	.st0{fill:#D3C8FF;}
	.st1{fill:#C7B8FF;}
	.st2{fill:#FFFFFF;}
	.st3{fill:#9E83E3;}
	.st4{fill:#5C2D91;}
	.st5{fill:#DED5FF;}
	.st6{fill:#8C6BC2;}
	.st7{fill:#FFB900;}
	.st8{fill:#FFD055;}
	.st9{fill:#FFE8AA;}
	.st10{fill:#E3646A;}
	.st11{fill:url(#SVGID_1_);}
	.st12{fill:url(#SVGID_2_);}
	.st13{fill:url(#SVGID_3_);}
	.st14{fill:url(#SVGID_4_);}
	.st15{fill:url(#SVGID_5_);}
	.st16{fill:url(#SVGID_6_);}
	.st17{fill:url(#SVGID_7_);}
	.st18{fill:url(#SVGID_8_);}
	.st19{fill:url(#SVGID_9_);}
	.st20{fill:#712D8D;}
	.st21{fill:#AE7EC1;}
	.st22{fill:#EFE0EF;}
	.st23{fill:#9251A8;}
	.st24{fill:#A874BB;}
	.st25{fill:none;stroke:#712D8D;stroke-miterlimit:10;}
	.st26{fill:#5F247B;}
	.st27{fill-rule:evenodd;clip-rule:evenodd;fill:#854CC7;}
	.st28{fill:#52218A;}
	.st29{fill:#6C33AF;}
	.st30{fill:#854CC7;}
	.st31{fill:#B179F1;}
</style>
<g>
	<g>
		<path class="st0" d="M632.05,576.25c-0.02-0.03-0.04-0.05-0.07-0.08c9.55-16.56,15.01-35.78,15.01-56.27
			c0-59.69-46.34-108.56-105.01-112.6c-0.37-28.4-21.56-51.76-49-55.53c18.09-24.96,28.76-55.65,28.76-88.83
			c0-83.7-67.85-151.55-151.55-151.55c-63.19,0-117.34,38.68-140.09,93.66c-56.4,5.86-100.37,53.53-100.37,111.48
			c0,22.52,6.65,43.48,18.07,61.04c-18.93,6.2-32.6,24-32.6,45c0,5.59,0.97,10.94,2.75,15.92c-30.45,14.88-51.42,46.14-51.42,82.31
			c0,17.67,5.01,34.18,13.69,48.17c-14.75,12.16-24.15,30.57-24.15,51.18c0,36.62,29.69,66.3,66.3,66.3c2.56,0,5.09-0.16,7.57-0.44
			c0,0,480.36,0.19,486.95,0.19c30.94,0,56.02-25.08,56.02-56.02C672.92,604.5,655.63,582.86,632.05,576.25z"/>
		<path class="st1" d="M289.02,499.86c0-1.43-1.16-2.58-2.58-2.58H69.6c-0.45,1.69-0.84,3.4-1.2,5.12c0.14,0.02,0.28,0.04,0.42,0.04
			h217.61C287.86,502.44,289.02,501.28,289.02,499.86z"/>
		<path class="st1" d="M271.68,583.36H146.7c-1.43,0-2.58-1.16-2.58-2.58c0-1.43,1.16-2.58,2.58-2.58h124.98
			c1.43,0,2.58,1.16,2.58,2.58C274.26,582.2,273.11,583.36,271.68,583.36z"/>
		<path class="st1" d="M435.35,529.78H248.88c-1.43,0-2.58-1.16-2.58-2.58s1.16-2.58,2.58-2.58h186.47c1.43,0,2.58,1.16,2.58,2.58
			S436.77,529.78,435.35,529.78z"/>
		<path class="st1" d="M231.67,529.78H189.1c-1.43,0-2.58-1.16-2.58-2.58s1.16-2.58,2.58-2.58h42.57c1.43,0,2.58,1.16,2.58,2.58
			S233.1,529.78,231.67,529.78z"/>
		<path class="st1" d="M171.89,529.78H94.64c-1.43,0-2.58-1.16-2.58-2.58s1.16-2.58,2.58-2.58h77.24c1.43,0,2.58,1.16,2.58,2.58
			S173.31,529.78,171.89,529.78z"/>
		<path class="st1" d="M451.68,557.12H313.25c-1.43,0-2.58-1.16-2.58-2.58s1.16-2.58,2.58-2.58h138.43c1.43,0,2.58,1.16,2.58,2.58
			S453.11,557.12,451.68,557.12z"/>
		<path class="st1" d="M296.04,557.12H176.35c-1.43,0-2.58-1.16-2.58-2.58s1.16-2.58,2.58-2.58h119.69c1.43,0,2.58,1.16,2.58,2.58
			S297.47,557.12,296.04,557.12z"/>
		<path class="st1" d="M159.14,557.12H94.64c-1.43,0-2.58-1.16-2.58-2.58s1.16-2.58,2.58-2.58h64.49c1.43,0,2.58,1.16,2.58,2.58
			S160.56,557.12,159.14,557.12z"/>
		<path class="st1" d="M232.9,198.76h121.75c1.43,0,2.58-1.16,2.58-2.58s-1.16-2.58-2.58-2.58H235.44
			C234.56,195.3,233.71,197.02,232.9,198.76z"/>
		<path class="st1" d="M174.61,226.83l247.27,1.71c0.01,0,0.01,0,0.02,0c1.42,0,2.57-1.14,2.58-2.56c0.01-1.43-1.14-2.59-2.56-2.6
			l-239.9-1.66C179.47,223.32,177.01,225.03,174.61,226.83z"/>
		<path class="st1" d="M149.17,253.44h137.26c1.43,0,2.58-1.16,2.58-2.58s-1.16-2.58-2.58-2.58H152.92
			C151.62,249.96,150.37,251.68,149.17,253.44z"/>
		<path class="st1" d="M271.68,334.36H146.7c-1.43,0-2.58-1.16-2.58-2.58s1.16-2.58,2.58-2.58h124.98c1.43,0,2.58,1.16,2.58,2.58
			S273.11,334.36,271.68,334.36z"/>
		<path class="st1" d="M504.89,280.78H248.88c-1.43,0-2.58-1.16-2.58-2.58s1.16-2.58,2.58-2.58h256.01c1.43,0,2.58,1.16,2.58,2.58
			S506.32,280.78,504.89,280.78z"/>
		<path class="st1" d="M231.67,280.78H189.1c-1.43,0-2.58-1.16-2.58-2.58s1.16-2.58,2.58-2.58h42.57c1.43,0,2.58,1.16,2.58,2.58
			S233.1,280.78,231.67,280.78z"/>
		<path class="st1" d="M135.56,280.78h36.32c1.43,0,2.58-1.16,2.58-2.58s-1.16-2.58-2.58-2.58h-34.45
			C136.77,277.31,136.15,279.04,135.56,280.78z"/>
		<path class="st1" d="M451.68,308.12H313.25c-1.43,0-2.58-1.16-2.58-2.58s1.16-2.58,2.58-2.58h138.43c1.43,0,2.58,1.16,2.58,2.58
			S453.11,308.12,451.68,308.12z"/>
		<path class="st1" d="M296.04,308.12H176.35c-1.43,0-2.58-1.16-2.58-2.58s1.16-2.58,2.58-2.58h119.69c1.43,0,2.58,1.16,2.58,2.58
			S297.47,308.12,296.04,308.12z"/>
		<path class="st1" d="M159.14,308.12c1.43,0,2.58-1.16,2.58-2.58s-1.16-2.58-2.58-2.58h-28.59c-0.21,1.71-0.37,3.43-0.5,5.16
			H159.14z"/>
		<path class="st1" d="M364.29,417.49h-67.56c-1.43,0-2.58-1.16-2.58-2.58s1.16-2.58,2.58-2.58h67.56c1.43,0,2.58,1.16,2.58,2.58
			S365.71,417.49,364.29,417.49z"/>
		<path class="st1" d="M279.51,417.49H149.02c-1.43,0-2.58-1.16-2.58-2.58s1.16-2.58,2.58-2.58h130.49c1.43,0,2.58,1.16,2.58,2.58
			S280.94,417.49,279.51,417.49z"/>
		<path class="st1" d="M490.13,362.79H396.8c-1.43,0-2.58-1.16-2.58-2.58s1.16-2.58,2.58-2.58h93.33c1.43,0,2.58,1.16,2.58,2.58
			S491.55,362.79,490.13,362.79z"/>
		<path class="st1" d="M379.59,362.79H253.74c-1.43,0-2.58-1.16-2.58-2.58s1.16-2.58,2.58-2.58h125.84c1.43,0,2.58,1.16,2.58,2.58
			S381.01,362.79,379.59,362.79z"/>
		<path class="st1" d="M236.53,362.79h-61.52c-1.43,0-2.58-1.16-2.58-2.58s1.16-2.58,2.58-2.58h61.52c1.43,0,2.58,1.16,2.58,2.58
			S237.96,362.79,236.53,362.79z"/>
		<path class="st1" d="M139.72,362.79h18.08c1.43,0,2.58-1.16,2.58-2.58s-1.16-2.58-2.58-2.58h-20.26
			C138.22,359.37,138.95,361.09,139.72,362.79z"/>
		<path class="st1" d="M517.8,384.97c-1.43,0-2.58,1.16-2.58,2.58s1.16,2.58,2.58,2.58h21.29c-0.58-1.76-1.25-3.49-1.99-5.16H517.8z
			"/>
		<path class="st1" d="M500.58,390.13h-64.32c-1.43,0-2.58-1.16-2.58-2.58s1.16-2.58,2.58-2.58h64.32c1.43,0,2.58,1.16,2.58,2.58
			S502.01,390.13,500.58,390.13z"/>
		<path class="st1" d="M419.05,390.13H281.28c-1.43,0-2.58-1.16-2.58-2.58s1.16-2.58,2.58-2.58h137.76c1.43,0,2.58,1.16,2.58,2.58
			S420.47,390.13,419.05,390.13z"/>
		<path class="st1" d="M264.07,390.13h-46.28c-1.43,0-2.58-1.16-2.58-2.58s1.16-2.58,2.58-2.58h46.28c1.43,0,2.58,1.16,2.58,2.58
			S265.5,390.13,264.07,390.13z"/>
		<path class="st1" d="M200.58,390.13h-54.29c-1.43,0-2.58-1.16-2.58-2.58s1.16-2.58,2.58-2.58h54.29c1.43,0,2.58,1.16,2.58,2.58
			S202,390.13,200.58,390.13z"/>
		<path class="st1" d="M515.72,442.23c0,1.43,1.16,2.58,2.58,2.58h100.08c-1.58-1.77-3.22-3.49-4.91-5.16h-95.16
			C516.88,439.65,515.72,440.8,515.72,442.23z"/>
		<path class="st1" d="M501.09,444.81h-93.84c-1.43,0-2.58-1.16-2.58-2.58c0-1.43,1.16-2.58,2.58-2.58h93.84
			c1.43,0,2.58,1.16,2.58,2.58C503.67,443.65,502.52,444.81,501.09,444.81z"/>
		<path class="st1" d="M390.04,444.81H267.83c-1.43,0-2.58-1.16-2.58-2.58c0-1.43,1.16-2.58,2.58-2.58h122.21
			c1.43,0,2.58,1.16,2.58,2.58C392.62,443.65,391.47,444.81,390.04,444.81z"/>
		<path class="st1" d="M250.62,444.81h-59.03c-1.43,0-2.58-1.16-2.58-2.58c0-1.43,1.16-2.58,2.58-2.58h59.03
			c1.43,0,2.58,1.16,2.58,2.58C253.2,443.65,252.05,444.81,250.62,444.81z"/>
		<path class="st1" d="M174.38,444.81c1.43,0,2.58-1.16,2.58-2.58s-1.16-2.58-2.58-2.58H115.7c-2.99,1.57-5.89,3.29-8.68,5.16
			H174.38z"/>
		<path class="st1" d="M633.83,466.99h-86.52c-1.43,0-2.58,1.16-2.58,2.58s1.16,2.58,2.58,2.58h89.1
			C635.6,470.4,634.73,468.68,633.83,466.99z"/>
		<path class="st1" d="M530.1,472.15H346.75c-1.43,0-2.58-1.16-2.58-2.58s1.16-2.58,2.58-2.58H530.1c1.43,0,2.58,1.16,2.58,2.58
			S531.52,472.15,530.1,472.15z"/>
		<path class="st1" d="M329.54,472.15h-72.29c-1.43,0-2.58-1.16-2.58-2.58s1.16-2.58,2.58-2.58h72.29c1.43,0,2.58,1.16,2.58,2.58
			S330.97,472.15,329.54,472.15z"/>
		<path class="st1" d="M240.04,472.15h-93.75c-1.43,0-2.58-1.16-2.58-2.58s1.16-2.58,2.58-2.58h93.75c1.43,0,2.58,1.16,2.58,2.58
			S241.46,472.15,240.04,472.15z"/>
		<path class="st1" d="M380.32,608.43H94.5c-1.43,0-2.58-1.16-2.58-2.58s1.16-2.58,2.58-2.58h285.82c1.43,0,2.58,1.16,2.58,2.58
			S381.75,608.43,380.32,608.43z"/>
		<path class="st1" d="M447.57,638.22c-0.01,0-0.01,0-0.02,0l-353.07-2.44c-1.43-0.01-2.57-1.17-2.56-2.6
			c0.01-1.42,1.16-2.56,2.58-2.56c0.01,0,0.01,0,0.02,0l353.07,2.44c1.43,0.01,2.57,1.17,2.56,2.6
			C450.14,637.07,448.99,638.22,447.57,638.22z"/>
		<path class="st1" d="M312.11,663.11H94.5c-1.43,0-2.58-1.16-2.58-2.58s1.16-2.58,2.58-2.58h217.61c1.43,0,2.58,1.16,2.58,2.58
			S313.53,663.11,312.11,663.11z"/>
		<path class="st1" d="M641.45,664.21H503.02c-1.43,0-2.58-1.16-2.58-2.58s1.16-2.58,2.58-2.58h138.43c1.43,0,2.58,1.16,2.58,2.58
			S642.87,664.21,641.45,664.21z"/>
		<path class="st1" d="M672.87,632.25h-35.5c-1.43,0-2.58,1.16-2.58,2.58s1.16,2.58,2.58,2.58h35.07
			C672.66,635.72,672.81,634,672.87,632.25z"/>
		<path class="st1" d="M421.68,174.08h-63.26c-1.43,0-2.58-1.16-2.58-2.58c0-1.43,1.16-2.58,2.58-2.58h63.26
			c1.43,0,2.58,1.16,2.58,2.58C424.26,172.93,423.11,174.08,421.68,174.08z"/>
		<path class="st1" d="M437.36,174.08h55.6c-1.27-1.75-2.57-3.47-3.91-5.16h-51.69c-1.43,0-2.58,1.16-2.58,2.58
			S435.94,174.08,437.36,174.08z"/>
		<path class="st1" d="M341.21,174.08h-56.07c-1.43,0-2.58-1.16-2.58-2.58c0-1.43,1.16-2.58,2.58-2.58h56.07
			c1.43,0,2.58,1.16,2.58,2.58C343.79,172.93,342.64,174.08,341.21,174.08z"/>
		<path class="st1" d="M609.28,496.54c-1.43,0-2.58,1.16-2.58,2.58s1.16,2.58,2.58,2.58h36.24c-0.28-1.73-0.6-3.46-0.96-5.16H609.28
			z"/>
		<path class="st1" d="M592.07,501.7H374.56c-1.43,0-2.58-1.16-2.58-2.58s1.16-2.58,2.58-2.58h217.51c1.43,0,2.58,1.16,2.58,2.58
			S593.49,501.7,592.07,501.7z"/>
		<path class="st1" d="M646.81,526.11H287.37c-1.43,0-2.58,1.16-2.58,2.58c0,1.43,1.16,2.58,2.58,2.58h359.05
			C646.59,529.56,646.71,527.84,646.81,526.11z"/>
		<path class="st1" d="M448.15,199.66h-63.26c-1.43,0-2.58-1.16-2.58-2.58s1.16-2.58,2.58-2.58h63.26c1.43,0,2.58,1.16,2.58,2.58
			S449.57,199.66,448.15,199.66z"/>
		<path class="st1" d="M617.98,580.92h-63.26c-1.43,0-2.58-1.16-2.58-2.58c0-1.43,1.16-2.58,2.58-2.58h63.26
			c1.43,0,2.58,1.16,2.58,2.58C620.57,579.76,619.41,580.92,617.98,580.92z"/>
		<path class="st1" d="M644.45,606.5h-63.26c-1.43,0-2.58-1.16-2.58-2.58s1.16-2.58,2.58-2.58h63.26c1.43,0,2.58,1.16,2.58,2.58
			S645.88,606.5,644.45,606.5z"/>
		<path class="st1" d="M272.38,147.2h161.46c1.43,0,2.58-1.16,2.58-2.58s-1.16-2.58-2.58-2.58H278.85
			C276.65,143.7,274.49,145.42,272.38,147.2z"/>
		<path class="st2" d="M579.43,592.82c9.33-8.38,15.2-20.53,15.2-34.06c0-22.17-15.76-40.66-36.69-44.87
			c1.14-5.33,1.75-10.85,1.75-16.52c0-43.59-35.34-78.93-78.93-78.93c-6.94,0-13.67,0.9-20.08,2.58
			c-3.13-7.71-8.3-14.38-14.84-19.33c2.81-9.88,4.31-20.31,4.31-31.09c0-62.68-50.81-113.49-113.49-113.49
			S223.17,307.92,223.17,370.6c0,27.05,9.47,51.89,25.27,71.39c-11.29,9.27-19.15,22.57-21.33,37.73
			c-41.24,0.71-74.46,34.33-74.46,75.74c0,14.91,4.33,28.79,11.76,40.5c-30.4,5.68-53.41,32.33-53.41,64.38
			c0,9.17,1.89,17.9,5.3,25.83c2,0.18,4.03,0.29,6.08,0.29c2.56,0,5.09-0.16,7.57-0.44c0,0,106.41,0.04,219.75,0.09
			c121.67,0.03,249.26,0.01,253.02-0.18c2.55-8.18,5.04-19.91,5.04-28.93C607.76,631.57,596.84,608.7,579.43,592.82z"/>
		<path class="st3" d="M541,605.47H426.64c-2.91,0-5.27,2.36-5.27,5.27v12.13c0,2.91,2.36,5.27,5.27,5.27H541
			c2.91,0,5.27-2.36,5.27-5.27v-12.13C546.27,607.83,543.91,605.47,541,605.47z"/>
		<path class="st4" d="M558.27,619.29c-0.88-1.85-2.81-3.04-4.94-3.04H176.17c-2.13,0-4.06,1.19-4.94,3.04l-30.54,66.73
			c29.74,0.01,117.09,0.05,209.01,0.08c99.51,0.02,202.95,0.02,239.4-0.09L558.27,619.29z"/>
		<path class="st3" d="M486.64,394.28V271.21l-47.26-45.05h-4.08v385.47l97.65-0.26V438.43L486.64,394.28z M486.64,401.06
			l38.43,36.63h-38.43V401.06z M440.33,233.84l37.73,35.96h-37.73V233.84z M440.33,274.6h41.28v37.15h-41.28V274.6z M440.33,316.54
			h41.28v37.15h-41.28V316.54z M440.33,358.49h41.28v34.89v2.26h-41.28V358.49z M440.33,400.43h41.28v37.15h-41.28V400.43z
			 M440.33,442.49h41.28v37.15h-41.28V442.49z M440.33,484.43h41.28v37.15h-41.28V484.43z M440.33,526.38h41.28v37.19h-41.28V526.38
			z M481.62,605.72h-41.28V568.5h41.28V605.72z M527.85,605.72h-41.28V568.5h41.28V605.72z M527.93,563.57h-41.28v-37.19h41.28
			V563.57z M527.93,521.58h-41.28v-37.15h41.28V521.58z M527.93,479.64h-41.28v-37.15h41.28V479.64z"/>
		<rect x="440.07" y="526.16" class="st5" width="87.7" height="79.59"/>
		<polygon class="st6" points="373.83,230.07 305.61,230.07 297.88,212.39 381.31,213.02 		"/>
		<path class="st7" d="M372.04,218.46l-64.19,0c-6.35,0-11.5-5.15-11.5-11.5l0-104.47c0-6.28,5.09-11.37,11.37-11.37l64.32,0
			c6.35,0,11.5,5.15,11.5,11.5l0,104.34C383.54,213.31,378.39,218.46,372.04,218.46z"/>
		<path class="st6" d="M298.16,96.13l37.74-52.81c1.27-1.77,5.35-1.75,6.65,0l38.71,52.48L298.16,96.13z"/>
		<rect x="305.37" y="230.07" class="st7" width="68.45" height="207.72"/>
		<rect x="304.3" y="413.92" class="st7" width="71.6" height="30.05"/>
		<path class="st8" d="M275.76,474.02l30.31,0l0-160.87l-27.55,22.26c-1.74,1.41-2.75,3.53-2.75,5.76L275.76,474.02z"/>
		<path class="st8" d="M403.3,474.02l-30.31,0l0-160.87l26.23,21.18c2.58,2.08,4.08,5.22,4.08,8.54L403.3,474.02z"/>
		<path class="st8" d="M354.68,340.86c0-1.94-0.53-3.83-1.54-5.49l-11.96-19.7c-0.7-1.15-2.37-1.16-3.08-0.01l-11.96,19.37
			c-1.16,1.88-1.77,4.04-1.77,6.24l-0.04,132.69l30.34,0L354.68,340.86z"/>
		<rect x="275.76" y="414.95" class="st9" width="30.31" height="1.77"/>
		<rect x="275.76" y="347.77" class="st9" width="30.31" height="1.77"/>
		<rect x="275.76" y="381.36" class="st9" width="30.31" height="1.77"/>
		<rect x="324.35" y="414.95" class="st9" width="30.33" height="1.77"/>
		<rect x="324.36" y="381.36" class="st9" width="30.32" height="1.77"/>
		<rect x="324.37" y="347.77" class="st9" width="30.31" height="1.77"/>
		<rect x="372.99" y="414.95" class="st9" width="30.31" height="1.77"/>
		<rect x="372.99" y="381.36" class="st9" width="30.31" height="1.77"/>
		<rect x="372.99" y="347.77" class="st9" width="30.31" height="1.77"/>
		<path class="st9" d="M352.81,303.37c0,0.47-0.17,0.88-0.51,1.22c-0.34,0.34-0.75,0.5-1.22,0.5s-0.89-0.17-1.23-0.5
			c-0.35-0.34-0.52-0.74-0.52-1.22c0-0.48,0.17-0.9,0.52-1.24c0.35-0.34,0.76-0.51,1.23-0.51s0.88,0.17,1.22,0.51
			C352.64,302.47,352.81,302.88,352.81,303.37z"/>
		<path class="st9" d="M352.47,279.13l0,3.19l-17.7,11.43c-0.44,0.29-0.91,0.53-1.39,0.71v0.09c0.48-0.08,1.49-0.12,3.05-0.12
			l16.04,0l0,2.6l-22.21,0l0-3.38l17.42-11.12c0.72-0.46,1.22-0.76,1.49-0.9v-0.06c-0.64,0.1-1.73,0.15-3.27,0.15l-15.64,0l0-2.6
			L352.47,279.13z"/>
		<path class="st9" d="M352.47,261.54l0,11.77l-22.21,0l0-11.27h2.35l0,8.67l7.39,0l0-8.02l2.34,0l0,8.02l7.77,0l0-9.17
			L352.47,261.54z"/>
		<path class="st9" d="M332.62,244.07l0,6.41l19.85,0l0,2.6l-19.85,0l0,6.4l-2.35,0l0-15.41L332.62,244.07z"/>
		<g>
			<g>
				<path class="st9" d="M358.74,148.52c-0.01-1.09-0.9-1.96-1.98-1.96l-32.34,0.19c-0.53,0-1.02,0.21-1.39,0.59
					c-0.37,0.37-0.57,0.87-0.57,1.4l0.1,20.42c0,0.42,0.17,0.82,0.47,1.12c0.3,0.3,0.69,0.46,1.11,0.46c0,0,0.01,0,0.01,0
					l12.58-0.07l0,4.21l-3.46,0c-0.85,0-1.54,0.69-1.54,1.54s0.69,1.54,1.54,1.54l15.01,0c0.85,0,1.54-0.69,1.54-1.54
					s-0.69-1.54-1.54-1.54l-3.46,0l0-4.26l12.44-0.07c0.87,0,1.58-0.72,1.57-1.59L358.74,148.52z"/>
				<path class="st9" d="M353.43,191.87c-0.53-1.66-2.05-2.77-3.79-2.77l-2.75,0c-0.72,0-1.35,0.46-1.56,1.14l-8.72-0.01
					c-0.27-0.64-1.06-1.14-1.81-1.14l-2.38,0c-1.74,0-3.26,1.11-3.79,2.77l-3.66,11.54c-0.66,2.09,0.5,4.33,2.59,4.99
					c0.39,0.12,0.8,0.19,1.2,0.19c1.19,0,2.48-0.67,3.24-1.68l3.87-4.24c0.26-0.28,0.62-0.44,1-0.44l8.33,0c0.38,0,0.74,0.16,1,0.44
					l3.87,4.25c0.76,0.78,1.82,1.67,3.23,1.67c0.41,0,0.81-0.06,1.2-0.19c2.09-0.66,3.25-2.9,2.59-4.99L353.43,191.87z"/>
				<path class="st9" d="M333.79,134.41c0.45,0.44,1.03,0.68,1.66,0.68c0,0,0.01,0,0.01,0l10.72-0.04c1.3,0,2.35-1.07,2.35-2.37
					l-0.08-25.58c0-0.63-0.25-1.22-0.7-1.66c-0.45-0.44-1.04-0.65-1.67-0.69l-10.72,0.04c-1.3,0-2.35,1.07-2.35,2.37l0.08,25.58
					C333.1,133.38,333.35,133.97,333.79,134.41z"/>
			</g>
			<path class="st7" d="M346.31,107.68c0-0.13-0.1-0.24-0.22-0.24l-1.65,0.01l-0.52,1.31c-0.08,0.21-0.27,0.34-0.47,0.34l-5.33,0
				c-0.21,0-0.41-0.15-0.48-0.37l-0.43-1.26l-1.75,0.01c-0.12,0-0.21,0.11-0.21,0.24l0.14,24.34c0,0.13,0.09,0.23,0.21,0.24
				l10.52,0.16c0.12,0,0.22-0.11,0.22-0.24L346.31,107.68z"/>
		</g>
		<polygon class="st7" points="356.31,167.98 325.15,168.16 325.02,149.25 356.18,149.06 		"/>
		<g>
			<circle class="st7" cx="333.52" cy="194.26" r="2.75"/>
			<circle class="st7" cx="348.63" cy="194.26" r="2.75"/>
			<path class="st7" d="M343.27,194.68l-4.58,0c-0.46,0-0.82-0.37-0.82-0.82v0c0-0.46,0.37-0.82,0.82-0.82l4.58,0
				c0.46,0,0.82,0.37,0.82,0.82l0,0C344.1,194.31,343.73,194.68,343.27,194.68z"/>
			<circle class="st7" cx="337.05" cy="199.16" r="1.28"/>
			<circle class="st7" cx="345.2" cy="199.16" r="1.28"/>
		</g>
		<path class="st10" d="M275.69,495.53c-5.86,11.58-7.94,34.55-7.94,34.55l2.54-3.97c0,0,0.38,11.88,2.66,23.46
			c1.67,8.45,4.79,15.61,4.79,15.61l0.4-5.06c0,0,2.82,7.01,6.05,12.24c3.23,5.24,7.21,14.45,7.21,14.45s4.87-10.55,8.56-16.14
			c6.63-10.05,9.31-20.39,9.31-20.39l0.58,7.3c0,0,3.61-9.84,4.3-19.4c0.69-9.65-1.73-22.28-1.73-22.28l3.32,4.54
			c0,0-4.78-17.96-8.11-24.77C306.1,492.53,275.69,495.53,275.69,495.53z"/>
		
			<radialGradient id="SVGID_1_" cx="852.3171" cy="1824.1897" r="70.1385" fx="832.8269" fy="1824.1254" gradientTransform="matrix(0.9776 4.518606e-03 -4.904777e-03 1.0611 -523.2231 -1382.4211)" gradientUnits="userSpaceOnUse">
			<stop  offset="0" style="stop-color:#FAE969"/>
			<stop  offset="0.1077" style="stop-color:#F7B548"/>
			<stop  offset="1" style="stop-color:#E3646A"/>
		</radialGradient>
		<path class="st11" d="M307.48,529.23c-0.26-16.41-4.23-30.18-4.23-30.18l-13.11-0.06l-5.72-0.03l-4.04-0.02
			c0,0-4.1,13.74-4.51,30.14c-0.41,16.27,15.36,39.38,15.62,39.75l0,0.01c0,0,0,0,0,0c0,0,0,0,0,0l0-0.01
			C291.7,568.53,307.73,545.53,307.48,529.23z"/>
		<path class="st10" d="M372.29,496.38c-5.96,11.11-8.06,33.16-8.06,33.16l2.58-3.81c0,0,0.39,11.4,2.71,22.52
			c1.7,8.11,4.87,14.99,4.87,14.99l0.4-4.86c0,0,2.87,6.73,6.16,11.75c3.28,5.03,7.34,13.88,7.34,13.88s4.95-10.13,8.7-15.49
			c6.75-9.65,9.46-19.57,9.46-19.57l0.59,7.01c0,0,3.67-9.44,4.37-18.63c0.7-9.26-1.77-21.38-1.77-21.38l3.38,4.36
			c0,0-4.86-17.24-8.26-23.78C403.22,493.52,372.29,496.38,372.29,496.38z"/>
		
			<radialGradient id="SVGID_2_" cx="956.1042" cy="1680.0526" r="71.4442" fx="936.2512" fy="1679.9872" gradientTransform="matrix(0.976 4.511558e-03 -4.622350e-03 1 -527.3572 -1128.8875)" gradientUnits="userSpaceOnUse">
			<stop  offset="0" style="stop-color:#FAE969"/>
			<stop  offset="0.1077" style="stop-color:#F7B548"/>
			<stop  offset="1" style="stop-color:#E3646A"/>
		</radialGradient>
		<path class="st12" d="M404.63,528.75c-0.27-15.75-4.31-28.98-4.31-28.98l-13.34-0.06l-5.82-0.03l-4.11-0.02
			c0,0-4.17,13.19-4.58,28.93c-0.41,15.62,15.63,37.8,15.9,38.16l0,0.01c0,0,0,0,0,0c0,0,0,0,0,0l0-0.01
			C388.59,566.47,404.89,544.39,404.63,528.75z"/>
		<path class="st10" d="M354.87,496.04c5.7,12.86,7.53,38.29,7.53,38.29l-2.48-4.42c0,0-0.49,13.13-2.87,25.92
			c-1.73,9.32-4.9,17.22-4.9,17.22l-0.34-5.6c0,0-2.87,7.72-6.12,13.48c-3.25,5.76-7.29,15.92-7.29,15.92s-4.73-11.71-8.33-17.93
			c-6.48-11.18-9.03-22.64-9.03-22.64l-0.65,8.07c0,0-3.49-10.91-4.08-21.5c-0.59-10.68,1.93-24.62,1.93-24.62l-3.34,4.99
			c0,0,4.91-19.82,8.29-27.32C324.74,492.44,354.87,496.04,354.87,496.04z"/>
		
			<radialGradient id="SVGID_3_" cx="-6013.5044" cy="2032.7197" r="70.8095" fx="-6033.1812" fy="2032.6548" gradientTransform="matrix(-0.9601 -4.437870e-03 -5.373593e-03 1.1625 -5433.4751 -1825.8866)" gradientUnits="userSpaceOnUse">
			<stop  offset="0" style="stop-color:#FAE969"/>
			<stop  offset="0.1077" style="stop-color:#F7B548"/>
			<stop  offset="1" style="stop-color:#E3646A"/>
		</radialGradient>
		<path class="st13" d="M323.02,533.01c0.42-18.14,4.49-33.34,4.49-33.34l13,0.06l5.67,0.03l4,0.02c0,0,3.93,15.24,4.18,33.38
			c0.25,18-15.61,43.4-15.87,43.81l0,0.01c0,0,0,0,0,0c0,0,0,0,0,0l0-0.01C338.28,576.63,322.61,551.03,323.02,533.01z"/>
		<polygon class="st3" points="310.46,500.4 271.65,500.4 280.49,467.84 301.62,467.84 		"/>
		<polygon class="st3" points="407.55,500.4 368.74,500.4 377.58,467.84 398.71,467.84 		"/>
		<polygon class="st3" points="358.94,500.4 320.13,500.4 328.97,467.84 350.1,467.84 		"/>
		<rect x="372.99" y="449.42" class="st6" width="30.31" height="24.6"/>
		<rect x="324.34" y="449.42" class="st6" width="30.34" height="24.54"/>
		<rect x="275.76" y="449.42" class="st6" width="30.31" height="24.6"/>
		<polygon class="st3" points="426.05,410.66 413.19,411.23 439.95,376.29 435.93,373.53 386.54,438.37 382.24,435.41 
			379.34,439.25 392.06,447.99 394.96,444.16 390.57,441.13 409.49,416.12 428.67,415.28 442.12,397.51 438.09,394.74 		"/>
		<polygon class="st3" points="426.05,327.34 413.19,327.9 439.95,292.96 435.93,290.2 386.54,355.04 382.24,352.08 379.34,355.92 
			392.06,364.66 394.96,360.83 390.57,357.8 409.49,332.79 428.67,331.95 442.12,314.18 438.09,311.41 		"/>
		<path class="st2" d="M579.43,592.82c9.33-8.38,15.2-20.53,15.2-34.06c0-22.17-15.76-40.66-36.69-44.87
			c1.14-5.33,1.75-10.85,1.75-16.52c0-43.59-35.34-78.93-78.93-78.93c-6.94,0-13.67,0.9-20.08,2.58
			c-3.13-7.71-8.3-14.38-14.84-19.33c2.81-9.88,4.31-20.31,4.31-31.09c0-62.68-50.81-113.49-113.49-113.49
			S223.17,307.92,223.17,370.6c0,27.05,9.47,51.89,25.27,71.39c-11.29,9.27-19.15,22.57-21.33,37.73
			c-41.24,0.71-74.46,34.33-74.46,75.74c0,14.91,4.33,28.79,11.76,40.5c-30.4,5.68-53.41,32.33-53.41,64.38
			c0,9.17,1.89,17.9,5.3,25.83c2,0.18,4.03,0.29,6.08,0.29c2.56,0,5.09-0.16,7.57-0.44c0,0,106.41,0.04,219.75,0.09
			c121.67,0.03,249.26,0.01,253.02-0.18c2.55-8.18,5.04-19.91,5.04-28.93C607.76,631.57,596.84,608.7,579.43,592.82z"/>
		<path class="st3" d="M541,605.47H426.64c-2.91,0-5.27,2.36-5.27,5.27v12.13c0,2.91,2.36,5.27,5.27,5.27H541
			c2.91,0,5.27-2.36,5.27-5.27v-12.13C546.27,607.83,543.91,605.47,541,605.47z"/>
		<path class="st4" d="M558.27,619.29c-0.88-1.85-2.81-3.04-4.94-3.04H176.17c-2.13,0-4.06,1.19-4.94,3.04l-30.54,66.73
			c29.74,0.01,117.09,0.05,209.01,0.08c99.51,0.02,202.95,0.02,239.4-0.09L558.27,619.29z"/>
		<path class="st3" d="M486.64,394.28V271.21l-47.26-45.05h-4.08v385.47l97.65-0.26V438.43L486.64,394.28z M486.64,401.06
			l38.43,36.63h-38.43V401.06z M440.33,233.84l37.73,35.96h-37.73V233.84z M440.33,274.6h41.28v37.15h-41.28V274.6z M440.33,316.54
			h41.28v37.15h-41.28V316.54z M440.33,358.49h41.28v34.89v2.26h-41.28V358.49z M440.33,400.43h41.28v37.15h-41.28V400.43z
			 M440.33,442.49h41.28v37.15h-41.28V442.49z M440.33,484.43h41.28v37.15h-41.28V484.43z M440.33,526.38h41.28v37.19h-41.28V526.38
			z M481.62,605.72h-41.28V568.5h41.28V605.72z M527.85,605.72h-41.28V568.5h41.28V605.72z M527.93,563.57h-41.28v-37.19h41.28
			V563.57z M527.93,521.58h-41.28v-37.15h41.28V521.58z M527.93,479.64h-41.28v-37.15h41.28V479.64z"/>
		<rect x="440.07" y="526.16" class="st5" width="87.7" height="79.59"/>
		<polygon class="st6" points="373.83,230.07 305.61,230.07 297.88,212.39 381.31,213.02 		"/>
		<path class="st7" d="M372.04,218.46l-64.19,0c-6.35,0-11.5-5.15-11.5-11.5l0-104.47c0-6.28,5.09-11.37,11.37-11.37l64.32,0
			c6.35,0,11.5,5.15,11.5,11.5l0,104.34C383.54,213.31,378.39,218.46,372.04,218.46z"/>
		<path class="st6" d="M298.16,96.13l37.74-52.81c1.27-1.77,5.35-1.75,6.65,0l38.71,52.48L298.16,96.13z"/>
		<rect x="305.37" y="230.07" class="st7" width="68.45" height="207.72"/>
		<rect x="304.3" y="413.92" class="st7" width="71.6" height="30.05"/>
		<path class="st8" d="M275.76,474.02l30.31,0l0-160.87l-27.55,22.26c-1.74,1.41-2.75,3.53-2.75,5.76L275.76,474.02z"/>
		<path class="st8" d="M403.3,474.02l-30.31,0l0-160.87l26.23,21.18c2.58,2.08,4.08,5.22,4.08,8.54L403.3,474.02z"/>
		<path class="st8" d="M354.68,340.86c0-1.94-0.53-3.83-1.54-5.49l-11.96-19.7c-0.7-1.15-2.37-1.16-3.08-0.01l-11.96,19.37
			c-1.16,1.88-1.77,4.04-1.77,6.24l-0.04,132.69l30.34,0L354.68,340.86z"/>
		<rect x="275.76" y="414.95" class="st9" width="30.31" height="1.77"/>
		<rect x="275.76" y="347.77" class="st9" width="30.31" height="1.77"/>
		<rect x="275.76" y="381.36" class="st9" width="30.31" height="1.77"/>
		<rect x="324.35" y="414.95" class="st9" width="30.33" height="1.77"/>
		<rect x="324.36" y="381.36" class="st9" width="30.32" height="1.77"/>
		<rect x="324.37" y="347.77" class="st9" width="30.31" height="1.77"/>
		<rect x="372.99" y="414.95" class="st9" width="30.31" height="1.77"/>
		<rect x="372.99" y="381.36" class="st9" width="30.31" height="1.77"/>
		<rect x="372.99" y="347.77" class="st9" width="30.31" height="1.77"/>
		<path class="st9" d="M352.81,303.37c0,0.47-0.17,0.88-0.51,1.22c-0.34,0.34-0.75,0.5-1.22,0.5s-0.89-0.17-1.23-0.5
			c-0.35-0.34-0.52-0.74-0.52-1.22c0-0.48,0.17-0.9,0.52-1.24c0.35-0.34,0.76-0.51,1.23-0.51s0.88,0.17,1.22,0.51
			C352.64,302.47,352.81,302.88,352.81,303.37z"/>
		<path class="st9" d="M352.47,279.13l0,3.19l-17.7,11.43c-0.44,0.29-0.91,0.53-1.39,0.71v0.09c0.48-0.08,1.49-0.12,3.05-0.12
			l16.04,0l0,2.6l-22.21,0l0-3.38l17.42-11.12c0.72-0.46,1.22-0.76,1.49-0.9v-0.06c-0.64,0.1-1.73,0.15-3.27,0.15l-15.64,0l0-2.6
			L352.47,279.13z"/>
		<path class="st9" d="M352.47,261.54l0,11.77l-22.21,0l0-11.27h2.35l0,8.67l7.39,0l0-8.02l2.34,0l0,8.02l7.77,0l0-9.17
			L352.47,261.54z"/>
		<path class="st9" d="M332.62,244.07l0,6.41l19.85,0l0,2.6l-19.85,0l0,6.4l-2.35,0l0-15.41L332.62,244.07z"/>
		<g>
			<g>
				<path class="st9" d="M358.74,148.52c-0.01-1.09-0.9-1.96-1.98-1.96l-32.34,0.19c-0.53,0-1.02,0.21-1.39,0.59
					c-0.37,0.37-0.57,0.87-0.57,1.4l0.1,20.42c0,0.42,0.17,0.82,0.47,1.12c0.3,0.3,0.69,0.46,1.11,0.46c0,0,0.01,0,0.01,0
					l12.58-0.07l0,4.21l-3.46,0c-0.85,0-1.54,0.69-1.54,1.54s0.69,1.54,1.54,1.54l15.01,0c0.85,0,1.54-0.69,1.54-1.54
					s-0.69-1.54-1.54-1.54l-3.46,0l0-4.26l12.44-0.07c0.87,0,1.58-0.72,1.57-1.59L358.74,148.52z"/>
				<path class="st9" d="M353.43,191.87c-0.53-1.66-2.05-2.77-3.79-2.77l-2.75,0c-0.72,0-1.35,0.46-1.56,1.14l-8.72-0.01
					c-0.27-0.64-1.06-1.14-1.81-1.14l-2.38,0c-1.74,0-3.26,1.11-3.79,2.77l-3.66,11.54c-0.66,2.09,0.5,4.33,2.59,4.99
					c0.39,0.12,0.8,0.19,1.2,0.19c1.19,0,2.48-0.67,3.24-1.68l3.87-4.24c0.26-0.28,0.62-0.44,1-0.44l8.33,0c0.38,0,0.74,0.16,1,0.44
					l3.87,4.25c0.76,0.78,1.82,1.67,3.23,1.67c0.41,0,0.81-0.06,1.2-0.19c2.09-0.66,3.25-2.9,2.59-4.99L353.43,191.87z"/>
				<path class="st9" d="M333.79,134.41c0.45,0.44,1.03,0.68,1.66,0.68c0,0,0.01,0,0.01,0l10.72-0.04c1.3,0,2.35-1.07,2.35-2.37
					l-0.08-25.58c0-0.63-0.25-1.22-0.7-1.66c-0.45-0.44-1.04-0.65-1.67-0.69l-10.72,0.04c-1.3,0-2.35,1.07-2.35,2.37l0.08,25.58
					C333.1,133.38,333.35,133.97,333.79,134.41z"/>
			</g>
			<path class="st7" d="M346.31,107.68c0-0.13-0.1-0.24-0.22-0.24l-1.65,0.01l-0.52,1.31c-0.08,0.21-0.27,0.34-0.47,0.34l-5.33,0
				c-0.21,0-0.41-0.15-0.48-0.37l-0.43-1.26l-1.75,0.01c-0.12,0-0.21,0.11-0.21,0.24l0.14,24.34c0,0.13,0.09,0.23,0.21,0.24
				l10.52,0.16c0.12,0,0.22-0.11,0.22-0.24L346.31,107.68z"/>
		</g>
		<polygon class="st7" points="356.31,167.98 325.15,168.16 325.02,149.25 356.18,149.06 		"/>
		<g>
			<circle class="st7" cx="333.52" cy="194.26" r="2.75"/>
			<circle class="st7" cx="348.63" cy="194.26" r="2.75"/>
			<path class="st7" d="M343.27,194.68l-4.58,0c-0.46,0-0.82-0.37-0.82-0.82v0c0-0.46,0.37-0.82,0.82-0.82l4.58,0
				c0.46,0,0.82,0.37,0.82,0.82l0,0C344.1,194.31,343.73,194.68,343.27,194.68z"/>
			<circle class="st7" cx="337.05" cy="199.16" r="1.28"/>
			<circle class="st7" cx="345.2" cy="199.16" r="1.28"/>
		</g>
		<path class="st10" d="M275.69,495.53c-5.86,11.58-7.94,34.55-7.94,34.55l2.54-3.97c0,0,0.38,11.88,2.66,23.46
			c1.67,8.45,4.79,15.61,4.79,15.61l0.4-5.06c0,0,2.82,7.01,6.05,12.24c3.23,5.24,7.21,14.45,7.21,14.45s4.87-10.55,8.56-16.14
			c6.63-10.05,9.31-20.39,9.31-20.39l0.58,7.3c0,0,3.61-9.84,4.3-19.4c0.69-9.65-1.73-22.28-1.73-22.28l3.32,4.54
			c0,0-4.78-17.96-8.11-24.77C306.1,492.53,275.69,495.53,275.69,495.53z"/>
		
			<radialGradient id="SVGID_4_" cx="852.3171" cy="1824.1897" r="70.1385" fx="832.8269" fy="1824.1254" gradientTransform="matrix(0.9776 4.518606e-03 -4.904777e-03 1.0611 -523.2231 -1382.4211)" gradientUnits="userSpaceOnUse">
			<stop  offset="0" style="stop-color:#FAE969"/>
			<stop  offset="0.1077" style="stop-color:#F7B548"/>
			<stop  offset="1" style="stop-color:#E3646A"/>
		</radialGradient>
		<path class="st14" d="M307.48,529.23c-0.26-16.41-4.23-30.18-4.23-30.18l-13.11-0.06l-5.72-0.03l-4.04-0.02
			c0,0-4.1,13.74-4.51,30.14c-0.41,16.27,15.36,39.38,15.62,39.75l0,0.01c0,0,0,0,0,0c0,0,0,0,0,0l0-0.01
			C291.7,568.53,307.73,545.53,307.48,529.23z"/>
		<path class="st10" d="M372.29,496.38c-5.96,11.11-8.06,33.16-8.06,33.16l2.58-3.81c0,0,0.39,11.4,2.71,22.52
			c1.7,8.11,4.87,14.99,4.87,14.99l0.4-4.86c0,0,2.87,6.73,6.16,11.75c3.28,5.03,7.34,13.88,7.34,13.88s4.95-10.13,8.7-15.49
			c6.75-9.65,9.46-19.57,9.46-19.57l0.59,7.01c0,0,3.67-9.44,4.37-18.63c0.7-9.26-1.77-21.38-1.77-21.38l3.38,4.36
			c0,0-4.86-17.24-8.26-23.78C403.22,493.52,372.29,496.38,372.29,496.38z"/>
		
			<radialGradient id="SVGID_5_" cx="956.1042" cy="1680.0526" r="71.4442" fx="936.2512" fy="1679.9872" gradientTransform="matrix(0.976 4.511558e-03 -4.622350e-03 1 -527.3572 -1128.8875)" gradientUnits="userSpaceOnUse">
			<stop  offset="0" style="stop-color:#FAE969"/>
			<stop  offset="0.1077" style="stop-color:#F7B548"/>
			<stop  offset="1" style="stop-color:#E3646A"/>
		</radialGradient>
		<path class="st15" d="M404.63,528.75c-0.27-15.75-4.31-28.98-4.31-28.98l-13.34-0.06l-5.82-0.03l-4.11-0.02
			c0,0-4.17,13.19-4.58,28.93c-0.41,15.62,15.63,37.8,15.9,38.16l0,0.01c0,0,0,0,0,0c0,0,0,0,0,0l0-0.01
			C388.59,566.47,404.89,544.39,404.63,528.75z"/>
		<path class="st10" d="M354.87,496.04c5.7,12.86,7.53,38.29,7.53,38.29l-2.48-4.42c0,0-0.49,13.13-2.87,25.92
			c-1.73,9.32-4.9,17.22-4.9,17.22l-0.34-5.6c0,0-2.87,7.72-6.12,13.48c-3.25,5.76-7.29,15.92-7.29,15.92s-4.73-11.71-8.33-17.93
			c-6.48-11.18-9.03-22.64-9.03-22.64l-0.65,8.07c0,0-3.49-10.91-4.08-21.5c-0.59-10.68,1.93-24.62,1.93-24.62l-3.34,4.99
			c0,0,4.91-19.82,8.29-27.32C324.74,492.44,354.87,496.04,354.87,496.04z"/>
		
			<radialGradient id="SVGID_6_" cx="-6013.5044" cy="2032.7197" r="70.8095" fx="-6033.1812" fy="2032.6548" gradientTransform="matrix(-0.9601 -4.437870e-03 -5.373593e-03 1.1625 -5433.4751 -1825.8866)" gradientUnits="userSpaceOnUse">
			<stop  offset="0" style="stop-color:#FAE969"/>
			<stop  offset="0.1077" style="stop-color:#F7B548"/>
			<stop  offset="1" style="stop-color:#E3646A"/>
		</radialGradient>
		<path class="st16" d="M323.02,533.01c0.42-18.14,4.49-33.34,4.49-33.34l13,0.06l5.67,0.03l4,0.02c0,0,3.93,15.24,4.18,33.38
			c0.25,18-15.61,43.4-15.87,43.81l0,0.01c0,0,0,0,0,0c0,0,0,0,0,0l0-0.01C338.28,576.63,322.61,551.03,323.02,533.01z"/>
		<polygon class="st3" points="310.46,500.4 271.65,500.4 280.49,467.84 301.62,467.84 		"/>
		<polygon class="st3" points="407.55,500.4 368.74,500.4 377.58,467.84 398.71,467.84 		"/>
		<polygon class="st3" points="358.94,500.4 320.13,500.4 328.97,467.84 350.1,467.84 		"/>
		<rect x="372.99" y="449.42" class="st6" width="30.31" height="24.6"/>
		<rect x="324.34" y="449.42" class="st6" width="30.34" height="24.54"/>
		<rect x="275.76" y="449.42" class="st6" width="30.31" height="24.6"/>
		<polygon class="st3" points="426.05,410.66 413.19,411.23 439.95,376.29 435.93,373.53 386.54,438.37 382.24,435.41 
			379.34,439.25 392.06,447.99 394.96,444.16 390.57,441.13 409.49,416.12 428.67,415.28 442.12,397.51 438.09,394.74 		"/>
		<polygon class="st3" points="426.05,327.34 413.19,327.9 439.95,292.96 435.93,290.2 386.54,355.04 382.24,352.08 379.34,355.92 
			392.06,364.66 394.96,360.83 390.57,357.8 409.49,332.79 428.67,331.95 442.12,314.18 438.09,311.41 		"/>
		<path class="st2" d="M579.43,592.82c9.33-8.38,15.2-20.53,15.2-34.06c0-22.17-15.76-40.66-36.69-44.87
			c1.14-5.33,1.75-10.85,1.75-16.52c0-43.59-35.34-78.93-78.93-78.93c-6.94,0-13.67,0.9-20.08,2.58
			c-3.13-7.71-8.3-14.38-14.84-19.33c2.81-9.88,4.31-20.31,4.31-31.09c0-62.68-50.81-113.49-113.49-113.49
			S223.17,307.92,223.17,370.6c0,27.05,9.47,51.89,25.27,71.39c-11.29,9.27-19.15,22.57-21.33,37.73
			c-41.24,0.71-74.46,34.33-74.46,75.74c0,14.91,4.33,28.79,11.76,40.5c-30.4,5.68-53.41,32.33-53.41,64.38
			c0,9.17,1.89,17.9,5.3,25.83c2,0.18,4.03,0.29,6.08,0.29c2.56,0,5.09-0.16,7.57-0.44c0,0,106.41,0.04,219.75,0.09
			c121.67,0.03,249.26,0.01,253.02-0.18c2.55-8.18,5.04-19.91,5.04-28.93C607.76,631.57,596.84,608.7,579.43,592.82z"/>
		<path class="st3" d="M541,605.47H426.64c-2.91,0-5.27,2.36-5.27,5.27v12.13c0,2.91,2.36,5.27,5.27,5.27H541
			c2.91,0,5.27-2.36,5.27-5.27v-12.13C546.27,607.83,543.91,605.47,541,605.47z"/>
		<path class="st6" d="M558.27,619.29c-0.88-1.85-2.81-3.04-4.94-3.04H176.17c-2.13,0-4.06,1.19-4.94,3.04l-30.54,66.73
			c29.74,0.01,117.09,0.05,209.01,0.08c99.51,0.02,202.95,0.02,239.4-0.09L558.27,619.29z"/>
		<path class="st3" d="M486.64,394.28V271.21l-47.26-45.05h-4.08v385.47l97.65-0.26V438.43L486.64,394.28z M486.64,401.06
			l38.43,36.63h-38.43V401.06z M440.33,233.84l37.73,35.96h-37.73V233.84z M440.33,274.6h41.28v37.15h-41.28V274.6z M440.33,316.54
			h41.28v37.15h-41.28V316.54z M440.33,358.49h41.28v34.89v2.26h-41.28V358.49z M440.33,400.43h41.28v37.15h-41.28V400.43z
			 M440.33,442.49h41.28v37.15h-41.28V442.49z M440.33,484.43h41.28v37.15h-41.28V484.43z M440.33,526.38h41.28v37.19h-41.28V526.38
			z M481.62,605.72h-41.28V568.5h41.28V605.72z M527.85,605.72h-41.28V568.5h41.28V605.72z M527.93,563.57h-41.28v-37.19h41.28
			V563.57z M527.93,521.58h-41.28v-37.15h41.28V521.58z M527.93,479.64h-41.28v-37.15h41.28V479.64z"/>
		<rect x="440.07" y="526.16" class="st5" width="87.7" height="79.59"/>
		<polygon class="st6" points="373.83,230.07 305.61,230.07 297.88,212.39 381.31,213.02 		"/>
		<path class="st7" d="M372.04,218.46l-64.19,0c-6.35,0-11.5-5.15-11.5-11.5l0-104.47c0-6.28,5.09-11.37,11.37-11.37l64.32,0
			c6.35,0,11.5,5.15,11.5,11.5l0,104.34C383.54,213.31,378.39,218.46,372.04,218.46z"/>
		<path class="st6" d="M298.16,96.13l37.74-52.81c1.27-1.77,5.35-1.75,6.65,0l38.71,52.48L298.16,96.13z"/>
		<rect x="305.37" y="230.07" class="st7" width="68.45" height="207.72"/>
		<rect x="304.3" y="413.92" class="st7" width="71.6" height="30.05"/>
		<path class="st8" d="M275.76,474.02l30.31,0l0-160.87l-27.55,22.26c-1.74,1.41-2.75,3.53-2.75,5.76L275.76,474.02z"/>
		<path class="st8" d="M403.3,474.02l-30.31,0l0-160.87l26.23,21.18c2.58,2.08,4.08,5.22,4.08,8.54L403.3,474.02z"/>
		<path class="st8" d="M354.68,340.86c0-1.94-0.53-3.83-1.54-5.49l-11.96-19.7c-0.7-1.15-2.37-1.16-3.08-0.01l-11.96,19.37
			c-1.16,1.88-1.77,4.04-1.77,6.24l-0.04,132.69l30.34,0L354.68,340.86z"/>
		<rect x="275.76" y="414.95" class="st9" width="30.31" height="1.77"/>
		<rect x="275.76" y="347.77" class="st9" width="30.31" height="1.77"/>
		<rect x="275.76" y="381.36" class="st9" width="30.31" height="1.77"/>
		<rect x="324.35" y="414.95" class="st9" width="30.33" height="1.77"/>
		<rect x="324.36" y="381.36" class="st9" width="30.32" height="1.77"/>
		<rect x="324.37" y="347.77" class="st9" width="30.31" height="1.77"/>
		<rect x="372.99" y="414.95" class="st9" width="30.31" height="1.77"/>
		<rect x="372.99" y="381.36" class="st9" width="30.31" height="1.77"/>
		<rect x="372.99" y="347.77" class="st9" width="30.31" height="1.77"/>
		<path class="st9" d="M352.81,303.37c0,0.47-0.17,0.88-0.51,1.22c-0.34,0.34-0.75,0.5-1.22,0.5s-0.89-0.17-1.23-0.5
			c-0.35-0.34-0.52-0.74-0.52-1.22c0-0.48,0.17-0.9,0.52-1.24c0.35-0.34,0.76-0.51,1.23-0.51s0.88,0.17,1.22,0.51
			C352.64,302.47,352.81,302.88,352.81,303.37z"/>
		<path class="st9" d="M352.47,279.13l0,3.19l-17.7,11.43c-0.44,0.29-0.91,0.53-1.39,0.71v0.09c0.48-0.08,1.49-0.12,3.05-0.12
			l16.04,0l0,2.6l-22.21,0l0-3.38l17.42-11.12c0.72-0.46,1.22-0.76,1.49-0.9v-0.06c-0.64,0.1-1.73,0.15-3.27,0.15l-15.64,0l0-2.6
			L352.47,279.13z"/>
		<path class="st9" d="M352.47,261.54l0,11.77l-22.21,0l0-11.27h2.35l0,8.67l7.39,0l0-8.02l2.34,0l0,8.02l7.77,0l0-9.17
			L352.47,261.54z"/>
		<path class="st9" d="M332.62,244.07l0,6.41l19.85,0l0,2.6l-19.85,0l0,6.4l-2.35,0l0-15.41L332.62,244.07z"/>
		<g>
			<g>
				<path class="st9" d="M358.74,148.52c-0.01-1.09-0.9-1.96-1.98-1.96l-32.34,0.19c-0.53,0-1.02,0.21-1.39,0.59
					c-0.37,0.37-0.57,0.87-0.57,1.4l0.1,20.42c0,0.42,0.17,0.82,0.47,1.12c0.3,0.3,0.69,0.46,1.11,0.46c0,0,0.01,0,0.01,0
					l12.58-0.07l0,4.21l-3.46,0c-0.85,0-1.54,0.69-1.54,1.54s0.69,1.54,1.54,1.54l15.01,0c0.85,0,1.54-0.69,1.54-1.54
					s-0.69-1.54-1.54-1.54l-3.46,0l0-4.26l12.44-0.07c0.87,0,1.58-0.72,1.57-1.59L358.74,148.52z"/>
				<path class="st9" d="M353.43,191.87c-0.53-1.66-2.05-2.77-3.79-2.77l-2.75,0c-0.72,0-1.35,0.46-1.56,1.14l-8.72-0.01
					c-0.27-0.64-1.06-1.14-1.81-1.14l-2.38,0c-1.74,0-3.26,1.11-3.79,2.77l-3.66,11.54c-0.66,2.09,0.5,4.33,2.59,4.99
					c0.39,0.12,0.8,0.19,1.2,0.19c1.19,0,2.48-0.67,3.24-1.68l3.87-4.24c0.26-0.28,0.62-0.44,1-0.44l8.33,0c0.38,0,0.74,0.16,1,0.44
					l3.87,4.25c0.76,0.78,1.82,1.67,3.23,1.67c0.41,0,0.81-0.06,1.2-0.19c2.09-0.66,3.25-2.9,2.59-4.99L353.43,191.87z"/>
				<path class="st9" d="M333.79,134.41c0.45,0.44,1.03,0.68,1.66,0.68c0,0,0.01,0,0.01,0l10.72-0.04c1.3,0,2.35-1.07,2.35-2.37
					l-0.08-25.58c0-0.63-0.25-1.22-0.7-1.66c-0.45-0.44-1.04-0.65-1.67-0.69l-10.72,0.04c-1.3,0-2.35,1.07-2.35,2.37l0.08,25.58
					C333.1,133.38,333.35,133.97,333.79,134.41z"/>
			</g>
			<path class="st7" d="M346.31,107.68c0-0.13-0.1-0.24-0.22-0.24l-1.65,0.01l-0.52,1.31c-0.08,0.21-0.27,0.34-0.47,0.34l-5.33,0
				c-0.21,0-0.41-0.15-0.48-0.37l-0.43-1.26l-1.75,0.01c-0.12,0-0.21,0.11-0.21,0.24l0.14,24.34c0,0.13,0.09,0.23,0.21,0.24
				l10.52,0.16c0.12,0,0.22-0.11,0.22-0.24L346.31,107.68z"/>
		</g>
		<polygon class="st7" points="356.31,167.98 325.15,168.16 325.02,149.25 356.18,149.06 		"/>
		<g>
			<circle class="st7" cx="333.52" cy="194.26" r="2.75"/>
			<circle class="st7" cx="348.63" cy="194.26" r="2.75"/>
			<path class="st7" d="M343.27,194.68l-4.58,0c-0.46,0-0.82-0.37-0.82-0.82v0c0-0.46,0.37-0.82,0.82-0.82l4.58,0
				c0.46,0,0.82,0.37,0.82,0.82l0,0C344.1,194.31,343.73,194.68,343.27,194.68z"/>
			<circle class="st7" cx="337.05" cy="199.16" r="1.28"/>
			<circle class="st7" cx="345.2" cy="199.16" r="1.28"/>
		</g>
		<path class="st10" d="M275.69,495.53c-5.86,11.58-7.94,34.55-7.94,34.55l2.54-3.97c0,0,0.38,11.88,2.66,23.46
			c1.67,8.45,4.79,15.61,4.79,15.61l0.4-5.06c0,0,2.82,7.01,6.05,12.24c3.23,5.24,7.21,14.45,7.21,14.45s4.87-10.55,8.56-16.14
			c6.63-10.05,9.31-20.39,9.31-20.39l0.58,7.3c0,0,3.61-9.84,4.3-19.4c0.69-9.65-1.73-22.28-1.73-22.28l3.32,4.54
			c0,0-4.78-17.96-8.11-24.77C306.1,492.53,275.69,495.53,275.69,495.53z"/>
		
			<radialGradient id="SVGID_7_" cx="852.3171" cy="1824.1897" r="70.1385" fx="832.8269" fy="1824.1254" gradientTransform="matrix(0.9776 4.518606e-03 -4.904777e-03 1.0611 -523.2231 -1382.4211)" gradientUnits="userSpaceOnUse">
			<stop  offset="0" style="stop-color:#FAE969"/>
			<stop  offset="0.1077" style="stop-color:#F7B548"/>
			<stop  offset="1" style="stop-color:#E3646A"/>
		</radialGradient>
		<path class="st17" d="M307.48,529.23c-0.26-16.41-4.23-30.18-4.23-30.18l-13.11-0.06l-5.72-0.03l-4.04-0.02
			c0,0-4.1,13.74-4.51,30.14c-0.41,16.27,15.36,39.38,15.62,39.75l0,0.01c0,0,0,0,0,0c0,0,0,0,0,0l0-0.01
			C291.7,568.53,307.73,545.53,307.48,529.23z"/>
		<path class="st10" d="M372.29,496.38c-5.96,11.11-8.06,33.16-8.06,33.16l2.58-3.81c0,0,0.39,11.4,2.71,22.52
			c1.7,8.11,4.87,14.99,4.87,14.99l0.4-4.86c0,0,2.87,6.73,6.16,11.75c3.28,5.03,7.34,13.88,7.34,13.88s4.95-10.13,8.7-15.49
			c6.75-9.65,9.46-19.57,9.46-19.57l0.59,7.01c0,0,3.67-9.44,4.37-18.63c0.7-9.26-1.77-21.38-1.77-21.38l3.38,4.36
			c0,0-4.86-17.24-8.26-23.78C403.22,493.52,372.29,496.38,372.29,496.38z"/>
		
			<radialGradient id="SVGID_8_" cx="956.1042" cy="1680.0526" r="71.4442" fx="936.2512" fy="1679.9872" gradientTransform="matrix(0.976 4.511558e-03 -4.622350e-03 1 -527.3572 -1128.8875)" gradientUnits="userSpaceOnUse">
			<stop  offset="0" style="stop-color:#FAE969"/>
			<stop  offset="0.1077" style="stop-color:#F7B548"/>
			<stop  offset="1" style="stop-color:#E3646A"/>
		</radialGradient>
		<path class="st18" d="M404.63,528.75c-0.27-15.75-4.31-28.98-4.31-28.98l-13.34-0.06l-5.82-0.03l-4.11-0.02
			c0,0-4.17,13.19-4.58,28.93c-0.41,15.62,15.63,37.8,15.9,38.16l0,0.01c0,0,0,0,0,0c0,0,0,0,0,0l0-0.01
			C388.59,566.47,404.89,544.39,404.63,528.75z"/>
		<path class="st10" d="M354.87,496.04c5.7,12.86,7.53,38.29,7.53,38.29l-2.48-4.42c0,0-0.49,13.13-2.87,25.92
			c-1.73,9.32-4.9,17.22-4.9,17.22l-0.34-5.6c0,0-2.87,7.72-6.12,13.48c-3.25,5.76-7.29,15.92-7.29,15.92s-4.73-11.71-8.33-17.93
			c-6.48-11.18-9.03-22.64-9.03-22.64l-0.65,8.07c0,0-3.49-10.91-4.08-21.5c-0.59-10.68,1.93-24.62,1.93-24.62l-3.34,4.99
			c0,0,4.91-19.82,8.29-27.32C324.74,492.44,354.87,496.04,354.87,496.04z"/>
		
			<radialGradient id="SVGID_9_" cx="-6013.5044" cy="2032.7197" r="70.8095" fx="-6033.1812" fy="2032.6548" gradientTransform="matrix(-0.9601 -4.437870e-03 -5.373593e-03 1.1625 -5433.4751 -1825.8866)" gradientUnits="userSpaceOnUse">
			<stop  offset="0" style="stop-color:#FAE969"/>
			<stop  offset="0.1077" style="stop-color:#F7B548"/>
			<stop  offset="1" style="stop-color:#E3646A"/>
		</radialGradient>
		<path class="st19" d="M323.02,533.01c0.42-18.14,4.49-33.34,4.49-33.34l13,0.06l5.67,0.03l4,0.02c0,0,3.93,15.24,4.18,33.38
			c0.25,18-15.61,43.4-15.87,43.81l0,0.01c0,0,0,0,0,0c0,0,0,0,0,0l0-0.01C338.28,576.63,322.61,551.03,323.02,533.01z"/>
		<polygon class="st3" points="310.46,500.4 271.65,500.4 280.49,467.84 301.62,467.84 		"/>
		<polygon class="st3" points="407.55,500.4 368.74,500.4 377.58,467.84 398.71,467.84 		"/>
		<polygon class="st3" points="358.94,500.4 320.13,500.4 328.97,467.84 350.1,467.84 		"/>
		<rect x="372.99" y="449.42" class="st6" width="30.31" height="24.6"/>
		<rect x="324.34" y="449.42" class="st6" width="30.34" height="24.54"/>
		<rect x="275.76" y="449.42" class="st6" width="30.31" height="24.6"/>
		<polygon class="st3" points="426.05,410.66 413.19,411.23 439.95,376.29 435.93,373.53 386.54,438.37 382.24,435.41 
			379.34,439.25 392.06,447.99 394.96,444.16 390.57,441.13 409.49,416.12 428.67,415.28 442.12,397.51 438.09,394.74 		"/>
		<polygon class="st3" points="426.05,327.34 413.19,327.9 439.95,292.96 435.93,290.2 386.54,355.04 382.24,352.08 379.34,355.92 
			392.06,364.66 394.96,360.83 390.57,357.8 409.49,332.79 428.67,331.95 442.12,314.18 438.09,311.41 		"/>
		<g id="g4493_4_" transform="matrix(0.35277777,0,0,-0.35277777,-83.079201,186.9333)">
			<g id="g4495_4_">
				<g id="g4497_4_">
					<g id="g4503_4_" transform="translate(114.9531,127.7212)">
						<path id="path4505_4_" class="st20" d="M1497.94-1181.71l0.46-0.09l0.61,0.12l2.56-2.11l-0.48,2.52l20.28,4.02l-17.43,1.27
							c0.15,1.01,0.18,1.96,0.09,2.85l0.13,0.02l-0.15,0.27c-0.13,0.94-0.39,1.8-0.8,2.58c-1.19,2.27-3.09,2.93-3.46,3.04l-0.32,0.1
							l-0.42,0.01c-3.49,0-5.21-3.25-5.33-6.26C1493.33-1180.63,1497.46-1181.62,1497.94-1181.71"/>
					</g>
					<g id="g4507_4_" transform="translate(189.2061,72.1934)">
						<path id="path4509_4_" class="st20" d="M1491.68-1177.03c-0.07-0.04-0.31-0.14-0.83-0.16c-0.29,0.23-1.25,1.18-2.22,4.4
							c-0.17,0.7-0.49,2.73-0.13,4.25c0.06,0.07,0.14,0.15,0.23,0.21c0.33-0.65,0.83-1.95,1.23-4.32c0.06-0.63,0.37-2.09,1.73-3.96
							C1491.71-1176.78,1491.71-1176.94,1491.68-1177.03 M1474.69-1162.12c0.2,0.16,0.69,0.47,1.74,0.79
							c0.31,0.08,1.27,0.36,2.23,0.71c-0.06-0.22-0.17-0.52-0.36-0.91c-0.5-0.5-1.48-1.24-2.31-1.24
							C1475.83-1162.78,1475.36-1162.78,1474.69-1162.12 M1474.24-1145.45c-0.1,1.58,0.21,2.77,0.92,3.56
							c1.1,1.21,2.99,1.34,3.33,1.35c0.9-0.09,1.56-0.34,1.97-0.73c-2.27-0.23-3.55-1.31-4.24-2.23c-0.71-0.95-1.04-2.03-1.15-3.04
							C1474.67-1146.17,1474.39-1145.72,1474.24-1145.45 M1462.27-1138.39c-1.68,0.14-2.45,2.3-2.65,3c0.16,4.14,3.73,5,4.82,5.16
							c0.65-0.07,1.12-0.42,1.45-0.87c-1.87-0.48-2.84-1.52-3.35-2.43C1461.66-1135.1,1461.83-1136.91,1462.27-1138.39
							 M1434.01-1164.19c-0.7-0.24-9.13-3.02-19.32-3.03c-9.47,0-17.45,2.34-23.71,6.95l-0.13,0.09
							c-0.15,0.1-12.43,8.14-18.65,22.78c6.52-5.16,17.85-10.92,35.97-10.92c3.02,0,6.18,0.17,9.38,0.49
							c0.9,0.04,8.19,0.46,16.93,3.38c7.71,2.58,14.21,6.34,19.27,11.12v-0.32c0-0.5,0.06-4.43,1.94-7.29
							C1454.51-1144.76,1449.47-1157.89,1434.01-1164.19 M1470.66-1200.98c-8.57,0-14.7-1.21-18.24-3.6l-0.13-0.08l-0.11-0.1
							c-0.78-0.68-4.29-4.6-4.58-19.87c-1.64,1.79-2.93,3.38-3.2,4.09c-0.06,0.53-1.7,15.27,3.49,29.15
							c0.36,0.62,2.31,3.71,5.21,3.71c0.91,0,1.9-0.3,2.93-0.9c1.3-1.18,8.62-7.67,16.84-12.43
							C1472.15-1200.98,1471.41-1200.98,1470.66-1200.98 M1476.47-1233.92l-0.43-0.09l-0.37-0.23c-0.74-0.46-2.23-0.87-3.7-1.15
							c-1.43,10.25-7.13,19.07-10.17,23.16c1.86,0.6,5.16,1.2,10.88,1.2c2.3,0,4.11-0.11,4.66-0.14c1.45-0.36,2.63-1.45,3.59-2.97
							l3.73-14.17c0.1-1.17,0.17-2.25,0.2-3.16C1483.29-1232.19,1479.82-1233.21,1476.47-1233.92 M1457.02-1228.69
							c0.32,2.88,0.86,7.23,1.5,10.75c2.41-3.45,5.63-8.9,7.12-15.14C1462.97-1231.59,1459.61-1229.81,1457.02-1228.69
							 M1445.05-1180.8c0.26,0.37,1.94,2.62,5.13,2.89c0.44-0.69,1.04-2.02,1.15-4.23c-1.81-0.37-4.3-1.3-6.54-3.64
							C1444.33-1184.36,1444.17-1182.59,1445.05-1180.8 M1390.84-1224.06l-0.3-0.14c0.11,9-1.36,16.47-1.43,16.83l-0.1,0.52
							l-0.31,0.43c-0.73,1-1.3,1.8-14.83,3.3c-2.33,0.26-4.66,0.49-6.66,0.69c5.54,5.29,9.04,10.48,9.23,10.75l0.06,0.09
							c3.14,5.14,5.73,5.54,6.45,5.54c0.09,0,0.15,0,0.2-0.01l0.15-0.08l0.48-0.02c5.38-0.28,5.81-4.65,5.84-5.5l0.01-0.31l0.08-0.3
							C1391.55-1199.09,1391.03-1218.56,1390.84-1224.06 M1380.58-1226.99l-6.96-2.91c1.34,4.02,3.53,9.1,6.5,12.44
							C1380.46-1219.53,1380.74-1222.64,1380.58-1226.99 M1353.71-1225.27l0.02,0.13c0.01,0.08,1.07,7.61,6.39,12.44
							c4.54-0.2,10.93-0.65,15.33-1.27c-2.52-3.02-5.76-8.38-8.38-17.63c-1.74,0.33-5.5,1.24-13.32,3.76
							C1353.62-1227.61,1353.42-1226.84,1353.71-1225.27 M1383.33-1210.15c0.15-0.02,0.3-0.04,0.44-0.07
							c0.04-0.14,0.08-0.27,0.12-0.41c-0.12,0.13-0.24,0.23-0.35,0.32L1383.33-1210.15z M1392.76-1184.28
							c-1.86,2.1-4.31,3.28-6.68,3.77c0.69,2.03,2.06,3.16,2.85,3.66c2-0.59,2.86-1.69,2.99-1.86l0.04-0.06
							C1393.13-1180.52,1393.14-1182.54,1392.76-1184.28 M1361.94-1174.26c-0.07-0.09-0.24-0.26-0.58-0.49
							c-0.24-0.09-0.9-0.31-1.75-0.31c-1.82,0-3.44,0.99-4.82,2.96v0.51c0.33,0.53,1.05,1.48,2.11,1.49
							c0.75-0.78,2.02-1.81,4.23-3.29C1361.45-1173.62,1361.83-1174.02,1361.94-1174.26 M1345.4-1187.76
							c-0.35-0.33-1.04-0.86-1.71-0.86c-0.2,0-0.41,0.05-0.63,0.15c0.07,0.14,0.16,0.33,0.31,0.56c0.58,0.92,2.91,4.81,3.3,8.61
							c0.01-0.07,0.03-0.15,0.04-0.24l0.01-0.14l0.07-0.19C1346.88-1180.17,1347.55-1183.14,1345.4-1187.76 M1337.57-1185.71
							c0.49,0.43,1.1,0.99,1.75,1.64c-0.26-0.5-0.56-1.02-0.9-1.57C1338.15-1185.68,1337.83-1185.71,1337.57-1185.71
							 M1370.36-1126.03c0.5-0.56,12.49-13.67,40.2-13.67c1.6,0,3.24,0.04,4.85,0.13c1.02,0.05,24.36,1.29,38.24,15.48
							c0.18-0.06,0.37-0.11,0.57-0.16c-4.17-5.72-16.7-18.21-46.58-18.21c-1.27,0-2.58,0.02-3.85,0.07
							c-0.26,0.01-25.67,1.41-34.17,17.21L1370.36-1126.03z M1381.63-1088.52c5.98,8.29,13.84,13.48,23.42,15.44l0.65-0.99
							c0.15-0.22,3.65-5.47,9.32-5.47h0c2.93,0,5.78,1.39,8.47,4.12l0.42,0.42l0.18,0.57c0.1,0.32,0.39,1.33,0.47,2.57
							c7.46-1,27.27-5.38,34.75-23.89l0.09-0.2c0.06-0.12,5.86-11.71,3.03-28.65c-0.43-0.09-0.9-0.23-1.4-0.4l-0.01,0.95
							c0.03,0.05,0.06,0.1,0.09,0.15l0.26,0.48l0.04,0.54c0.01,0.13,0.05,0.78,0.09,1.83l0.32,0.72l-0.29,0.03
							c0.16,4.94,0.16,15.85-2.39,23.18c-0.36,1.59-1.87,3.69-4.93,3.69c-1.49,0-3.18-0.49-5.13-1.48
							c-0.25-0.12-25.57-12.44-49.35-12.44c-9.9,0-18.13,2.13-24.51,6.34C1376.02-1098.57,1377.97-1093.61,1381.63-1088.52
							 M1415.43-1053.35c0.88,0.45,1.68,0.69,2.31,0.69c0.86,0,1.32-0.49,1.55-0.84c0.09-1.81-0.24-3.13-0.99-3.95
							c-0.89-0.97-2.24-1.08-2.65-1.09c-0.47,0.11-1.04,0.56-1.38,0.91C1413.2-1055.45,1414.76-1053.88,1415.43-1053.35
							 M1385.51-1111.67l-0.16-0.04c-0.34-0.09-2.09-0.63-3.19-2.67c-0.93-1.72-1.09-3.93-0.47-6.59c-0.03-0.05-0.06-0.11-0.09-0.16
							c-0.48-0.91-0.42-1.98,0.15-2.93l0.6-1l1.15-0.17c0.08-0.01,0.49-0.07,1.06-0.07c0.04,0,0.07,0,0.11,0l2.05-3.03
							c-0.41-0.29-0.84-0.59-1.29-0.9c-2.11,0.96-6.48,3.13-9.28,5.77c-0.52,1.87-2.06,8.45-0.05,14.81c2.01-0.89,5.2-2.07,9.5-3.01
							C1385.57-1111.66,1385.54-1111.66,1385.51-1111.67 M1447.82-1102.05c0.99-4.34,2.65-12.69,2.11-18.01
							c-2.03-2.22-12.25-12-36.45-14c-2.47,2.51-9.48,9.33-14.18,11.12c-0.35,0.17-0.8,0.29-1.37,0.29c-1.26,0-3.64-0.56-9.98-4.82
							l-0.3,2.82c1.6,0.76,2.63,2.15,2.85,4.01c0.1,0.54,0.25,1.54,0.27,2.67l0.38,0.04l-0.38,0.75c-0.06,1.47-0.37,3.05-1.28,4.15
							c-0.26,0.31-0.55,0.57-0.87,0.78c3.55-0.6,7.7-1.01,12.45-1.01C1415.62-1113.25,1431.33-1109.48,1447.82-1102.05
							 M1453.95-1100.17c0.55-1.79,1.01-4.6,1.36-7.85C1454.88-1105.02,1454.35-1102.19,1453.95-1100.17 M1397.48-1128.55
							c1.67-0.75,4.26-2.73,6.75-4.85c-5.44,0.46-9.39,1.25-12.03,1.94C1394.98-1129.6,1396.69-1128.84,1397.48-1128.55
							 M1460.42-1125.07l0.24-0.06c-0.12-0.05-0.24-0.09-0.36-0.14C1460.34-1125.21,1460.37-1125.14,1460.42-1125.07
							 M1354.52-1164.96c-0.32-0.09-0.62-0.19-0.92-0.31c0.14,0.28,0.26,0.55,0.38,0.81
							C1354.18-1164.63,1354.36-1164.8,1354.52-1164.96 M1349.71-1174.19c-0.01-0.01-0.02-0.02-0.03-0.03
							c-0.72,0.5-1.58,0.83-2.54,0.96c0.83,0.68,1.58,1.38,2.25,2.07C1349.32-1172.35,1349.51-1173.42,1349.71-1174.19
							 M1493.51-1163.99c-0.88,0.6-1.99,1.92-2.66,3.09l-0.02,0.04c-1.45,2.47-1.73,4.34-1.7,5.47c0.85-0.61,2.09-2.23,2.84-3.83
							l0.06-0.11C1493.27-1161.69,1493.54-1163.18,1493.51-1163.99 M1484.4-1160.27c0.36-0.99,0.85-2.03,1.49-3.13
							c-0.7-0.32-1.35-0.74-1.93-1.26c-0.16,0.25-0.31,0.51-0.45,0.79C1484.07-1162.86,1484.44-1161.62,1484.4-1160.27
							 M1483.34-1156.81c0.06,0.05,0.13,0.11,0.2,0.16c0.02-0.22,0.05-0.45,0.09-0.68
							C1483.54-1157.16,1483.45-1156.99,1483.34-1156.81 M1498.4-1163.79c-0.02,1.92-0.69,4.16-2.02,6.69
							c-0.47,0.99-2.33,4.61-5.19,6.15l-0.91,1.16l-0.52,0.66l-1.26,1.61l-0.44,0.73l-0.14,0.01l-1.41,1.8l-0.2,0.34
							c-0.04,0.07-0.16,0.26-0.36,0.52c0.11,0.83,0.28,3.42-1.38,5.61c-0.86,1.13-2.52,2.53-5.59,2.85l-1.88,0.77
							c-0.29,0.16-0.68,0.35-1.17,0.48l-4.39,1.81c-0.29,2.14-1.49,5.32-4.39,6.66c3.2,18.13-2.67,30.75-3.35,32.13
							c-4.34,10.67-12.98,18.75-25,23.36c-8.99,3.45-16.65,3.77-16.97,3.78l-1,0.04l-0.46,0.28l0,4.33
							c0.52,0.34,1.04,0.75,1.52,1.27c1.78,1.94,2.53,4.68,2.23,8.14l-0.03,0.35l-0.12,0.32c-0.6,1.55-2.59,4.18-6.24,4.18
							c-1.49,0-3.1-0.46-4.78-1.35l-0.14-0.08l-0.13-0.1c-2.13-1.54-5.41-5.8-2.58-10.92l0.1-0.19l0.14-0.17
							c0.1-0.12,0.57-0.69,1.33-1.29c-0.06-0.21-0.13-0.46-0.2-0.67l-0.57-1.71l0.03-0.02c-0.3-0.89-0.43-1.51-0.41-2.04
							c-0.6-0.32-1.12-0.76-1.58-1.25l-0.53-0.06c-12.67-1.41-23.33-7.71-30.85-18.22c-5.63-7.88-7.5-15.29-7.58-15.6l-0.39-1.58
							l1.31-0.97c0.45-0.33,0.91-0.65,1.37-0.97c-2.02-4.68-2.27-9.52-1.97-13.33c-1.58-0.63-3.17-1.89-4.13-2.73l-0.38-0.34
							l-0.9-1.98l-0.38-5.32c0.73-4.14,1.95-7.93,3.46-11.37c-1.56-2.11-1.24-5.25-0.92-6.91l-1.71-1.48l-0.22,0.02l-2.04-1.71
							c-0.58-0.03-1.2-0.12-1.83-0.27l-0.07-0.02c-1.59-0.41-4.44-2.26-5.07-6.62l-0.01-0.04l-0.62-0.25
							c-0.13-0.05-0.51-0.21-0.98-0.46l-2.56-0.03l-0.69-0.27l-0.71-0.11c-0.85-0.3-2.29-0.94-3.91-2.18l-0.48-0.46l-0.93-0.75
							c-2.32-2.21-4.74-5.71-6.19-11.2l-0.28-1.53l-0.32-0.8l-0.04-0.17c-0.71-0.85-2.02-2.13-4.17-3.29l-0.3-0.16l-0.24-0.24
							c-0.68-0.67-2.26-2.44-2.13-4.45c0.05-0.78,0.34-1.49,0.85-2.07c-0.03-1.39,0.34-2.57,1.13-3.48
							c0.66-0.77,1.92-1.69,4.16-1.69c0.25,0,0.49,0.01,0.73,0.03c0.35-0.78,0.88-1.26,1.2-1.49c1.28-0.96,2.65-1.45,4.1-1.45
							c3.26,0,5.41,2.52,5.65,2.81l0.18,0.22l0.13,0.26c2.66,5.46,2.3,9.52,1.99,11.11c0.48,0.39,1.05,0.91,1.58,1.51
							c2.26-1.88,4.59-2.36,6.39-2.36c2.22,0,3.82,0.76,3.99,0.85l0.2,0.11c2.49,1.55,3.04,3.36,3.07,4.62
							c0.05,2.85-2.48,4.7-3,5.04c-1.3,0.87-2.15,1.5-2.68,1.94l0.66,0.86l0.67,0.67l0.01,0.23l0.94,1.24
							c0.16-0.01,0.33-0.02,0.51-0.02c2.94,0,6.18,1.86,6.5,7.07l0.98,1.23l0.75,0.5l0.58,1.13c0.42-0.09,0.87-0.13,1.34-0.13
							c1.14,0,2.22,0.25,2.87,0.44c3.25-3.76,6.39-6.5,8.53-8.17l-0.89-2.09l-0.01,0l-0.54-1.19c-0.59-1.3-0.97-2.26-1.22-3
							l-0.06-0.13l0.01,0c-0.19-0.57-0.3-1-0.36-1.31l-0.12-0.04l-0.94-2.36c-1.21-0.53-2.27-1.3-3.17-2.28
							c-3.45-3.82-2.91-9.56-2.89-9.8l0.04-0.39c-1-1.04-2.03-2.37-3.06-4.05c-0.4-0.58-5.41-7.82-12.58-13.42l-0.64-0.5l-0.19-0.13
							c-0.11-0.07-0.27-0.2-0.45-0.37l-1.27-1.66l-0.19-1.37c-0.14-0.73-0.21-1.6-0.17-2.64c-6.4-5.81-7.81-14.38-7.95-15.34
							c-1.15-6.17,2.33-7.73,3.21-8.02l0,0c7.06-2.28,12.02-3.65,14.77-4.08l1.15-0.09l16.33,5.9l0.92-0.14l0.66-0.17l1.39-0.14
							l2.11,1.01l6.17,2.94l0.06,1.47c0.04,1.03,1.03,24.45-1.06,33.84l0.41,0.6c0.21,0.31,4.75,7.07,1.94,13.51l1.24,4.74
							l-0.09,0.1l1,3.14c4.71-1.52,9.91-2.3,15.58-2.3c11.47,0,20.62,3.19,21,3.32l0.11,0.04c0.4,0.16,0.8,0.33,1.19,0.5
							c0.09-0.28,0.18-0.52,0.25-0.69l0.06-0.42c0.12-0.75,0.84-3.51,1.14-4.66l0.34-1.3c0.15-1.46,0.65-3.1,1.14-4.41l0.14-0.39
							c-1.93-5.88,1.88-10.96,2.49-11.72c-4.65-14.18-3.16-28.05-3.01-29.25c0.1-1.19,0.79-2.92,4.76-7.18
							c2.04-2.2,4.04-4.07,4.12-4.15l0.2-0.19l0.87-0.82l1.48-0.21l1.67,0.23c0.95,0.1,1.6,0.3,1.95,0.42
							c3.66-1.5,10.26-5.23,12.86-6.76l1.67-0.99l1.04,0.14l1.31,0.12c1.73,0.25,4.51,0.79,6.4,1.82c3.61,0.79,9.5,2.3,11.24,4.13
							l0.67,0.7l0,0.97c0.01,1.83-0.13,14.31-4.89,21.54v4.32l0,0.06l-0.65,2.06l-1.38,2.63c-1.71,1.59-4.58,3.77-4.71,3.86
							l-0.17,0.13l-0.19,0.1c-6.84,3.51-13.63,9-16.8,11.7c0.17,0.96,0.98,6.49-1.96,10.24c-0.78,1-1.77,1.77-2.92,2.31l-0.09,0.22
							l0.41-0.09l-2.7,4.72c-0.42,0.74-1.41,2.99-1.93,4.25l-0.01,0.01l-0.07,0.35c-0.36,1.78-1.32,3.78-1.87,4.85
							c6.41,6.33,9.25,13.28,10.33,16.63c0.68-0.23,1.43-0.37,2.26-0.37h0c1.16,0,2.39,0.28,3.66,0.82c0.39-0.37,0.85-0.77,1.33-1.1
							c0.26-0.6,0.75-1.44,1.62-2.19l0.32-0.28c0.01-0.09,0.01-0.18,0.02-0.27l0.03-0.33l0.12-0.31c0.73-1.88,3.01-5.05,6.95-5.05h0
							c0.16,0,0.32,0.01,0.48,0.02l0.97-2.52l0.31,0.43l0.29-0.85c-0.11-0.18-0.2-0.34-0.28-0.49l-0.46-0.24
							c-0.53-0.28-1.9-0.72-2.71-0.94l-0.06-0.02c-2.89-0.86-4.63-2.27-5.17-4.19c-0.52-1.83,0.27-3.58,1.11-4.51l0.06-0.06
							c1.79-1.88,3.67-2.27,4.93-2.27c1.34,0,2.53,0.43,3.5,0.96c1.39-2.44,3.2-4.03,4.01-4.67c0.1-1.4,0.35-2.45,0.4-2.66
							l0.03-0.11c1.98-6.58,4.77-7.96,6.76-7.96c0.19,0,0.36,0.01,0.5,0.03c1.34,0.08,2.34,0.44,3.08,0.9
							c0.67-0.34,1.39-0.52,2.11-0.52c0.39,0,0.71,0.05,0.93,0.1c2.26,0.42,3.4,1.61,3.96,2.53c0.56,0.92,0.74,1.87,0.76,2.67
							l0.13,0.17c1.84,2.41,0.73,5.41-1.34,7.17c-1.31,1.28-1.99,2.06-2.33,2.49"/>
					</g>
					<g id="g4511_4_" transform="translate(105.9185,198.9136)">
						<path id="path4513_4_" class="st21" d="M1498.7-1187.7c0,0,7.01-0.41,6.28,8.16c0,0-1.79,4.65-7.58,1.55
							c0,0-4.4-3.18-1.87-7.75C1495.52-1185.75,1496.9-1187.46,1498.7-1187.7"/>
					</g>
					<g id="g4515_4_" transform="translate(104.6118,198.231)">
						<path id="path4517_4_" class="st22" d="M1498.81-1187.64c0,0,1.9-0.49,3.59,0.33c0,0,0.27-2.01,0-2.39
							c0,0-1.74-1.25-4.02,0.38C1498.37-1189.33,1498.75-1188.19,1498.81-1187.64"/>
					</g>
					<g id="g4519_4_" transform="translate(103.8994,195.4751)">
						<path id="path4521_4_" class="st22" d="M1498.87-1187.41c0,0,2.69-1.34,4.36-0.2v-2.94c0,0-3.88-1.66-4.96,1.03
							C1498.16-1189.24,1498.87-1187.41,1498.87-1187.41"/>
					</g>
					<g id="g4523_4_" transform="translate(103.2339,192.1758)">
						<path id="path4525_4_" class="st22" d="M1498.92-1187.14c0,0,2.16-1.94,4.97-0.62v-1.99c0,0-1.75-3.53-5.39,0.92
							L1498.92-1187.14z"/>
					</g>
					<g id="g4527_4_" transform="translate(102.1777,190.9287)">
						<path id="path4529_4_" class="st22" d="M1499.01-1187.03c0,0-1.18-3.43,3.87-3.59c0,0,3.09-0.27,2.98,3.59l1.9-1.14
							c0,0,0.44-2.83,0-3.97c0,0-5.49-6.03-12.07,0.38C1495.7-1191.76,1496.87-1187.83,1499.01-1187.03"/>
					</g>
					<g id="g4531_4_" transform="translate(112.834,190.0254)">
						<path id="path4533_4_" class="st21" d="M1498.11-1186.95c0,0,29.87-1.08,39.82-25.7c0,0,6.69-13.05,2.94-31.97
							c0,0-6.14,0.22-8.32-6.85c0,0,0-4.57,2.18-6.74c0,0-3.91-18.16-23.49-26.1c0,0-26.75-9.46-45.34,4.24
							c0,0-18.7,11.96-22.62,34.03c0,0,12.12-21.09,50.45-17.18c0,0,29.68,1.14,41.59,22.67c0,0,1.06,15.82-2.2,24.95
							c0,0-0.49,3.75-6.6,0.65c0,0-50.73-24.95-77.8-4.89c0,0,7.07,28.71,36.32,31.97l-0.92-2.69c0,0,5.98-9.13,14-0.98
							C1498.11-1191.54,1498.98-1188.73,1498.11-1186.95"/>
					</g>
					<g id="g4535_4_" transform="translate(61.5723,150.5605)">
						<path id="path4537_4_" class="st2" d="M1502.43-1183.63c0,0,26.42-16.15,74.7,6.69c0,0,3.91-14.68,2.77-22.51
							c0,0-10-13.37-39.74-15.49c0,0-9.19,9.62-14.24,11.42c0,0-1.3,1.3-12.56-6.85c0,0-7.67,3.1-11.74,7.26
							C1501.62-1203.12,1498.11-1192.76,1502.43-1183.63"/>
					</g>
					<g id="g4539_4_" transform="translate(71.4565,131.4155)">
						<path id="path4541_4_" class="st20" d="M1501.6-1182.02c0,0,3.91-0.57,4.24,2.53c0,0,1.31,6.85-2.12,6.2
							c0,0-3.75-0.98-1.47-7.83C1502.25-1181.12,1501.11-1181.2,1501.6-1182.02"/>
					</g>
					<g id="g4543_4_" transform="translate(72.5254,133.1968)">
						<path id="path4545_4_" class="st2" d="M1501.51-1182.17c0,0-0.57,4.97,2.53,5.3c0,0-1.63,3.18-3.1-1.14
							C1500.94-1178.01,1500.48-1180.64,1501.51-1182.17"/>
					</g>
					<g id="g4547_4_" transform="translate(120.6104,131.3701)">
						<path id="path4549_4_" class="st20" d="M1497.46-1182.02l-4.73-0.94c0,0-2.53,0.48-2.28,5.82c0,0,0.16,3.97,2.94,3.92
							c0,0,4.28-1.27,1.84-8.65L1497.46-1182.02z"/>
					</g>
					<g id="g4551_4_" transform="translate(114.9111,132.2168)">
						<path id="path4553_4_" class="st2" d="M1497.94-1182.09c0,0-1.1,5.55,2.45,6.24c0,0-2.08,3.67-3.55-1.1
							C1496.84-1176.95,1496.17-1180.63,1497.94-1182.09"/>
					</g>
					<g id="g4555_4_" transform="translate(74.8403,121.0859)">
						<path id="path4557_4_" class="st21" d="M1501.31-1181.15c0,0,6.99-3.56,23.95-3.94c0,0-9.08,8.97-13.32,10.22
							C1511.94-1174.87,1508.84-1175.3,1501.31-1181.15"/>
					</g>
					<g id="g4559_4_" transform="translate(58.7227,134.1167)">
						<path id="path4561_4_" class="st23" d="M1502.67-1182.25c0,0,0.49-2.88,1.2-4.08h-1.2c0,0,12.78-14.35,43.11-12.72
							c0,0,24.57,1.14,37.73,15.96c0,0,1.14-0.9,5.17-1.28c0,0-10.6-23.92-54.53-22.4c0,0-28.05,1.31-36.75,19.57l0.87,2.43
							C1498.27-1184.76,1501.31-1182.08,1502.67-1182.25"/>
					</g>
					<g id="g4563_4_" transform="translate(144.7422,158.6641)">
						<path id="path4565_4_" class="st23" d="M1495.43-1184.31c0,0,3.67-16.47,2.53-22.92l5.06-1.31c0,0-0.16,20.88-3.42,25.12
							C1499.59-1183.42,1496.9-1183.58,1495.43-1184.31"/>
					</g>
					<g id="g4567_4_" transform="translate(160.7725,112.6265)">
						<path id="path4569_4_" class="st21" d="M1494.08-1180.44c0,0-4.57,7.34,3.5,6.69c0,0-0.37,5.38-4.79,5.55
							c0,0-7.2-0.73-7.2-7.91C1485.6-1176.12,1487.23-1183.78,1494.08-1180.44"/>
					</g>
					<g id="g4571_4_" transform="translate(161.3945,113.9619)">
						<path id="path4573_4_" class="st22" d="M1494.03-1180.55c0,0,0.16,2.94,2.94,3.91c0,0-1.63,1.79-3.83-0.29
							C1493.13-1176.92,1492.19-1178.76,1494.03-1180.55"/>
					</g>
					<g id="g4575_4_" transform="translate(164.5996,110.7119)">
						<path id="path4577_4_" class="st22" d="M1493.76-1180.28c0,0-0.69,3.47,4.32,5.71l-2.77,1.14c0,0-4.36-1.1-3.79-4.85
							C1491.51-1178.28,1492.74-1179.75,1493.76-1180.28"/>
					</g>
					<g id="g4579_4_" transform="translate(166.2471,108.3521)">
						<path id="path4581_4_" class="st22" d="M1493.62-1180.08c0,0,0.73,4.73,5.42,6.77c0,0-0.94,0.78-2.71,0.41
							c0,0-3.73-0.98-3.81-5.5C1492.52-1178.41,1492.72-1179.3,1493.62-1180.08"/>
					</g>
					<g id="g4583_4_" transform="translate(173.9492,102.3418)">
						<path id="path4585_4_" class="st21" d="M1492.97-1179.57c0,0-2.08,7.18,5.79,5.5c0,0,0.98,5.3-4.89,5.83
							c0,0-7.58,0.16-6.77-7.99C1487.1-1176.23,1488.77-1180.55,1492.97-1179.57"/>
					</g>
					<g id="g4587_4_" transform="translate(174.9297,102.3857)">
						<path id="path4589_4_" class="st22" d="M1492.89-1179.57c0,0,2.28,3.22,5.59,3.51c0,0-1.63,2.78-4.85,0.96
							C1493.62-1175.1,1491.66-1176.39,1492.89-1179.57"/>
					</g>
					<g id="g4591_4_" transform="translate(176.5332,99.8926)">
						<path id="path4593_4_" class="st22" d="M1492.75-1179.36c0,0,1.67,3.18,6.2,3.02l-1.63,2.08c0,0-3.87,0.49-5.67-3.3
							C1491.65-1177.57,1492.14-1178.51,1492.75-1179.36"/>
					</g>
					<g id="g4595_4_" transform="translate(177.4678,96.999)">
						<path id="path4597_4_" class="st22" d="M1492.67-1179.12c0,0,4.2,3.14,7.22,2.65l-1.55,2.56c0,0-4.69,0.46-6.28-3.41
							L1492.67-1179.12z"/>
					</g>
					<g id="g4599_4_" transform="translate(192.4717,83.4189)">
						<path id="path4601_4_" class="st21" d="M1491.41-1177.98c0,0,3.18,1.63-0.49,8.56c0,0-3.42,7.34-7.09,5.06
							c0,0-1.63-3.43,1.63-8.97C1485.46-1173.33,1488.31-1178.39,1491.41-1177.98"/>
					</g>
					<g id="g4603_4_" transform="translate(176.7998,94.1934)">
						<path id="path4605_4_" class="st21" d="M1492.73-1178.89c0,0,0.73,2.67,5.95,4.19c0,0-2.2-5.42,4-12.59
							c0,0-2.85,0.77-4.97-1.49v-2.89c0,0-3.18,2.18-4.57,6.09C1493.14-1185.57,1496.15-1182.47,1492.73-1178.89"/>
					</g>
					<g id="g4607_4_" transform="translate(188.376,84.3096)">
						<path id="path4609_4_" class="st22" d="M1491.75-1178.05l2.23-1.31l-1.11-0.71L1491.75-1178.05z"/>
					</g>
					<g id="g4611_4_" transform="translate(175.3301,93.1553)">
						<path id="path4613_4_" class="st22" d="M1492.85-1178.8c0,0,3.9-0.27,1.35-5.11c0,0-3.86-4.57-7.5-0.76
							c0,0-2.72,3.05,2.94,4.73C1489.63-1179.94,1491.83-1179.34,1492.85-1178.8"/>
					</g>
					<g id="g4615_4_" transform="translate(183.2998,82.6475)">
						<path id="path4617_4_" class="st22" d="M1492.18-1177.91c0,0,1.38,2.36,3.72,1.52c0,0,1.52-1.03,2.39-6.42
							c0,0,0.05-1.31,1.58-3.21c0,0,1.31-3.91-3.04-4.08c0,0-2.56-0.76-4.65,6.2C1492.18-1183.89,1491.34-1180.52,1492.18-1177.91"
							/>
					</g>
					<g id="g4619_4_" transform="translate(192.4717,70.5957)">
						<path id="path4621_4_" class="st22" d="M1491.41-1176.9c0,0,0.98,2.5-1.2,5.11c0,0-1.6,2.41-1.2,4.73c0,0,1.03,2.01,2.12,0.44
							c0,0,1.09-3.37,5.06-7.01c0,0,1.03-3.32-2.66-3.97C1493.53-1177.6,1492.5-1177.93,1491.41-1176.9"/>
					</g>
					<g id="g4623_4_" transform="translate(192.2939,82.8242)">
						<path id="path4625_4_" class="st22" d="M1491.42-1177.93l1.39,0.35c0,0-0.14-0.63,3.28-3.94c0,0,2.45-2.01,1.03-3.86
							c0,0-2.01,2.07-2.63,2.61c0,0-1.93,2.34-2.37,4.19L1491.42-1177.93z"/>
					</g>
					<g id="g4627_4_" transform="translate(56.2886,111.083)">
						<path id="path4629_4_" class="st21" d="M1502.88-1180.31c0,0,4.51-7.78,6.8-10.28c0,0-2.94-1.09-4.46,0
							c0,0,2.88,4.46-2.66,4.46C1502.55-1186.13,1501.46-1182.16,1502.88-1180.31"/>
					</g>
					<g id="g4631_4_" transform="translate(54.938,102.7871)">
						<path id="path4633_4_" class="st22" d="M1502.99-1179.61c0,0,1.92-0.37,2.94-2.28c0,0,1.22,2.42,0,3.22
							C1505.93-1178.67,1504.62-1177.69,1502.99-1179.61"/>
					</g>
					<g id="g4635_4_" transform="translate(52.6675,101.1836)">
						<path id="path4637_4_" class="st22" d="M1503.18-1179.47c0,0,2.81-0.53,3.51-3.02l1.3,1.75c0,0-0.45,1.71-3.34,2.53
							L1503.18-1179.47z"/>
					</g>
					<g id="g4639_4_" transform="translate(50.7529,99.8037)">
						<path id="path4641_4_" class="st22" d="M1503.34-1179.36c0,0,3.55-1.47,3.83-3.87l1.14,1.43c0,0,0,2.94-3.96,3.3
							L1503.34-1179.36z"/>
					</g>
					<g id="g4643_4_" transform="translate(43.8076,93.7041)">
						<path id="path4645_4_" class="st21" d="M1503.93-1178.84c0,0,2.32,3.46,5.06-0.21c0,0,1.67-1.26-0.65-4.32
							c0,0,4.76-1.28,5.1,4.69c0,0,0.08,5.87-6.24,4.45C1507.19-1174.24,1504.5-1174.93,1503.93-1178.84"/>
					</g>
					<g id="g4647_4_" transform="translate(45.0542,93.5264)">
						<path id="path4649_4_" class="st22" d="M1503.82-1178.83c0,0,2.04-1.02,2.81-3.59c0,0,1.55,1.26,0.2,3.59
							C1506.84-1178.83,1505.78-1177.16,1503.82-1178.83"/>
					</g>
					<g id="g4651_4_" transform="translate(42.5605,91.7012)">
						<path id="path4653_4_" class="st22" d="M1504.03-1178.68c0,0,3.1-0.98,3.26-4.9l1.59,2.09c0,0-0.41,3.25-3.3,3.95
							L1504.03-1178.68z"/>
					</g>
					<g id="g4655_4_" transform="translate(39.1768,89.9199)">
						<path id="path4657_4_" class="st22" d="M1504.32-1178.53c0,0,3.71-1.67,4.81-5.02l1.02,1.02c0,0,0.24,4.48-3.71,5.26
							C1506.44-1177.26,1505.13-1177.79,1504.32-1178.53"/>
					</g>
					<g id="g4659_4_" transform="translate(25.0034,75.8789)">
						<path id="path4661_4_" class="st21" d="M1505.51-1177.34c0,0,9.95,5.66,10.55,13.37
							C1516.06-1163.97,1508.47-1165.65,1505.51-1177.34"/>
					</g>
					<g id="g4663_4_" transform="translate(37.0547,76.7705)">
						<path id="path4665_4_" class="st22" d="M1504.5-1177.42v1.85c0,0,1.79,4.24,5.87,3.15c0,0,0.22-0.82,4.3-3.53
							c0,0,4.3-2.88,0-5.55C1514.66-1181.5,1508.85-1184.38,1504.5-1177.42"/>
					</g>
					<g id="g4667_4_" transform="translate(28.0313,72.4961)">
						<path id="path4669_4_" class="st22" d="M1505.26-1177.06c0,0,4.4,1.74,5.06-2.39c0,0,1.25-3.97-1.69-10
							c0,0-2.94-3.59-6.42-0.92c0,0-1.41,0.82,0.27,3.48C1502.48-1186.9,1506.4-1180.7,1505.26-1177.06"/>
					</g>
					<g id="g4671_4_" transform="translate(25.7158,73.4453)">
						<path id="path4673_4_" class="st22" d="M1505.45-1177.14l1.47-0.92c0,0,1.14-4.02-3.48-10.98c0,0-5.82-1.9-5.06,3.05
							C1498.38-1186,1504.04-1181.65,1505.45-1177.14"/>
					</g>
					<g id="g4675_4_" transform="translate(17.4644,64.6006)">
						<path id="path4677_4_" class="st22" d="M1506.14-1176.39c0,0,6.09,4.39,6.9,8.7c0,0-1.41-2.93-5.93-5.38
							C1507.12-1173.08,1504.79-1175.36,1506.14-1176.39"/>
					</g>
					<g id="g4679_4_" transform="translate(27.4551,73.208)">
						<path id="path4681_4_" class="st21" d="M1505.3-1177.12c0,0,4.59,1.79,5.85-1.63c0,0,2.51,1.74,2.94,3.32
							c0,0-3.05,7.39,5.6,7.45c0,0,0.49,3.48-5.33,6.2c0,0-1.2-7.88-11.31-13.48L1505.3-1177.12z"/>
					</g>
					<g id="g4683_4_" transform="translate(76.1167,88.0498)">
						<path id="path4685_4_" class="st22" d="M1501.21-1178.37c0,0,4.89-3.32,9.24-5.17l-0.65-1.52c0,0-3.64,4.08-10,3.34
							L1501.21-1178.37z"/>
					</g>
					<g id="g4687_4_" transform="translate(72.5547,79.0254)">
						<path id="path4689_4_" class="st22" d="M1501.51-1177.61c0,0,3.53,3.21,10.71-2.12l0.98,3.08c0,0-3.53,4.32-10.22,3.18
							C1502.97-1173.47,1501.45-1176.85,1501.51-1177.61"/>
					</g>
					<g id="g4691_4_" transform="translate(83.2998,72.4355)">
						<path id="path4693_4_" class="st22" d="M1500.6-1177.05c0,0-2.72,4.24-10.82,3.92l0.33,0.82l0.65,0.22l1.25,1.31
							c0,0,5.82,0.98,9.41-3.13L1500.6-1177.05z"/>
					</g>
					<g id="g4695_4_" transform="translate(75.5234,75.4639)">
						<path id="path4697_4_" class="st21" d="M1501.26-1177.31c0,0-4.95-2.77-4.84-8.64c0,0-2.72,0.38-4.95-1.63
							C1491.47-1187.58,1490.33-1176.33,1501.26-1177.31"/>
					</g>
					<g id="g4699_4_" transform="translate(70.7739,66.0254)">
						<path id="path4701_4_" class="st21" d="M1501.66-1176.51c0,0,7.77,0.38,9.79-7.23c0,0,4.73,6.91,0.98,12.51
							c0,0-1.47,2.39-5.38,3.15C1507.04-1168.09,1501.93-1170.15,1501.66-1176.51"/>
					</g>
					<g id="g4703_4_" transform="translate(46.7905,42.3672)">
						<path id="path4705_4_" class="st21" d="M1503.68-1174.52c0,0,24.38-2.04,25.44-3.51c0,0,1.96-9.79,1.22-20.31l5.3,2.53
							c0,0,1.12,25.61-1.2,34.01c0,0-0.14,7.48-8.16,7.9c0,0-4.51,1.56-9.49-6.59C1516.8-1160.49,1511.5-1168.4,1503.68-1174.52"/>
					</g>
					<g id="g4707_4_" transform="translate(45.7217,41.5664)">
						<path id="path4709_4_" class="st23" d="M1503.77-1174.45c0,0-1.22-0.82-0.98-4.24c0,0,16.64-0.57,22.75-2.94
							c0,0,2.45-1.88,1.79-15.9l3.26-0.49c0,0,1.22,14.43-1.55,20.63C1529.05-1177.39,1511.19-1174.62,1503.77-1174.45"/>
					</g>
					<g id="g4711_4_" transform="translate(68.874,32.8408)">
						<path id="path4713_4_" class="st24" d="M1501.82-1173.72c0,0,2.12-4.24,1.47-15.58l-13.05-5.46
							C1490.24-1194.76,1493.66-1178.86,1501.82-1173.72"/>
					</g>
					<g id="g4715_4_" transform="translate(67.8945,33.375)">
						<path id="path4717_4_" class="st22" d="M1501.9-1173.76c0,0-7.01-3.59-11.66-21.53c0,0-0.16-1.14-16.07,4
							c0,0-2.45,0.57-1.55,5.3c0,0,1.22,9.15,7.96,14.6C1480.58-1171.4,1497.49-1172.05,1501.9-1173.76"/>
					</g>
					<g id="g4719_4_" transform="translate(131.623,84.3691)">
						<path id="path4721_4_" class="st22" d="M1496.53-1178.06c0,0,3.1,1.47,8.37,5.87c0,0,1.58-2.77,2.01-4.89
							c0,0-5.87,0.87-9.73-3.37C1497.19-1180.45,1496.67-1179.3,1496.53-1178.06"/>
					</g>
					<g id="g4723_4_" transform="translate(132.4541,80.9844)">
						<path id="path4725_4_" class="st22" d="M1496.46-1177.77c0,0,3.48,4.62,9.84,3.26c0,0,1.41-3.37,2.07-4.51
							c0,0-6.52,1.36-10.82-3.15C1497.55-1182.18,1496.57-1178.48,1496.46-1177.77"/>
					</g>
					<g id="g4727_4_" transform="translate(134.1162,75.583)">
						<path id="path4729_4_" class="st22" d="M1496.32-1177.32c0,0,4.24,4.89,10.87,2.72c0,0,0.98-1.74,1.63-3.32
							c0,0-8.05,1.74-11.53-4.35C1497.3-1182.27,1495.95-1178.62,1496.32-1177.32"/>
					</g>
					<g id="g4731_4_" transform="translate(146.2861,73.9199)">
						<path id="path4733_4_" class="st21" d="M1495.3-1177.18c0,0,2.45-3.32,1.85-8.92c0,0,2.39,0.11,4.35-1.69
							C1501.5-1187.78,1503.4-1177.61,1495.3-1177.18"/>
					</g>
					<g id="g4735_4_" transform="translate(145.0986,73.9199)">
						<path id="path4737_4_" class="st21" d="M1495.4-1177.18c0,0,2.94-2.34,2.45-8.92c0,0-5.76,0.49-9.24-5.98
							c0,0-4.4,5.22-1.58,10.76C1487.02-1181.31,1489.69-1176.9,1495.4-1177.18"/>
					</g>
					<g id="g4739_4_" transform="translate(143.792,13.665)">
						<path id="path4741_4_" class="st21" d="M1495.51-1172.1c0,0-7.98,7.5-8.12,9.79c0,0-1.93,15.6,3.69,30.5
							c0,0,4.32,8.32,11.82,3.75c0,0,9.46-8.7,19.19-13.7c0,0,2.88-2.17,4.51-3.7c0,0-20,2.39-27.4-2.61
							C1499.21-1148.07,1494.86-1151.88,1495.51-1172.1"/>
					</g>
					<g id="g4743_4_" transform="translate(144.7422,13.25)">
						<path id="path4745_4_" class="st23" d="M1495.43-1172.07c0,0-1.63,24.22,5.95,25.28c0,0,9.05,2.37,20.31,1.47
							c0,0,4.97-0.16,5.22-2.69v-3.26c0,0-0.98,3.72-12.78,2.53c0,0-12.12,0.16-13.27-4.84c0,0-1.85-8.48-2.56-18.1
							C1498.31-1171.69,1497.33-1172.12,1495.43-1172.07"/>
					</g>
					<g id="g4747_4_" transform="translate(151.6875,33.5527)">
						<path id="path4749_4_" class="st24" d="M1494.84-1173.78c0,0,10.52-11.5,11.5-25.28c0,0-10.09,5.95-14.43,7.42
							C1491.91-1191.64,1493.21-1178.26,1494.84-1173.78"/>
					</g>
					<g id="g4751_4_" transform="translate(165.3125,5.4141)">
						<path id="path4753_4_" class="st22" d="M1493.7-1171.41c0,0,4.97,0.49,7.18,1.88c0,0,8.81,1.87,10.36,3.51
							c0,0,0.08,22.02-9.62,24.06c0,0-15.25,1.14-19.65-2.69C1481.95-1144.66,1492.8-1157.06,1493.7-1171.41"/>
					</g>
					<g id="g4755_4_" transform="translate(59.5322,107.9336)">
						<path id="path4757_4_" class="st22" d="M1502.6-1180.04c23.1-14.17,69.53-8.9,83.25,10.66c0.14-3.41,0.98-5.45,2.18-6.74
							c-0.16-0.64-0.32-1.33-0.57-1.98c-6.82-17.37-53.31-27.66-77.42-11.88C1505.46-1185.42,1503.75-1182.13,1502.6-1180.04"/>
					</g>
					<g id="g4759_4_" transform="translate(58.7358,108.3521)">
						<path id="path4761_4_" class="st25" d="M1502.67-1180.08c23.89-14.55,71.13-9.1,84.52,10.68"/>
					</g>
					<g id="g4763_4_" transform="translate(153.1299,112.3247)">
						<path id="path4765_4_" class="st25" d="M1494.72-1180.41c-0.16-0.64-0.32-1.33-0.57-1.98c-6.82-17.37-53.15-28.19-78.6-11.56"
							/>
					</g>
					<g id="g4767_4_" transform="translate(85.3184,87.9385)">
						<path id="path4769_4_" class="st26" d="M1500.43-1178.36c2.18-0.86,10.02-1.94,14.55-1.33v13.88
							c-4.24-0.24-12.17,0.18-14.55,0.67V-1178.36z"/>
					</g>
					<g id="g4771_4_" transform="translate(88.3164,92.999)">
						<path id="path4773_4_" class="st2" d="M1500.18-1178.78c-0.06,0.06-0.13,0.09-0.21,0.1c-0.08,0-0.15-0.02-0.2-0.08
							c-0.06-0.06-0.09-0.13-0.09-0.21c0-0.08,0.03-0.15,0.08-0.21c0.06-0.06,0.12-0.09,0.2-0.1c0.08,0,0.15,0.02,0.21,0.08
							c0.06,0.06,0.09,0.13,0.09,0.21C1500.27-1178.92,1500.24-1178.84,1500.18-1178.78 M1503.94-1175.6l-0.44,0.02v-2.67
							c0-0.26,0.01-0.45,0.03-0.56l-0.01,0l-0.15,0.26l-1.88,3.05l-0.57,0.02v-3.78l0.44-0.02v2.73c0,0.27-0.01,0.44-0.02,0.52h0.02
							c0.03-0.09,0.07-0.17,0.12-0.24l1.94-3.1l0.53-0.02V-1175.6z M1506.79-1179.11l-1.55,0.07v1.32l1.36-0.06v0.4l-1.36,0.06v1.26
							l1.46-0.06v0.4l-1.9,0.08v-3.79l1.99-0.08V-1179.11z M1509.74-1175.85l-2.6,0.11v-0.4l1.08-0.05v-3.38l0.44-0.02v3.38
							l1.08-0.05V-1175.85z"/>
					</g>
				</g>
			</g>
		</g>
		<g>
			<path class="st2" d="M210.95,643.38l-6.04,16.8h-3.12l-5.93-16.8h3.05l4.15,12.75c0.13,0.41,0.23,0.88,0.3,1.42h0.05
				c0.05-0.45,0.17-0.93,0.34-1.44l4.24-12.73H210.95z"/>
			<path class="st2" d="M214.24,645.67c-0.45,0-0.83-0.14-1.14-0.43s-0.47-0.66-0.47-1.1s0.16-0.82,0.47-1.11s0.7-0.45,1.14-0.45
				c0.46,0,0.85,0.15,1.17,0.45s0.48,0.67,0.48,1.11c0,0.42-0.16,0.78-0.48,1.08S214.7,645.67,214.24,645.67z M215.59,660.19h-2.72
				v-12h2.72V660.19z"/>
			<path class="st2" d="M218.39,659.81v-2.52c1.02,0.77,2.14,1.16,3.36,1.16c1.64,0,2.46-0.48,2.46-1.45c0-0.27-0.07-0.51-0.21-0.7
				s-0.33-0.36-0.57-0.51s-0.52-0.28-0.84-0.4s-0.69-0.25-1.08-0.4c-0.49-0.2-0.94-0.4-1.33-0.62s-0.72-0.47-0.98-0.74
				s-0.46-0.59-0.59-0.94s-0.2-0.76-0.2-1.23c0-0.58,0.14-1.09,0.41-1.53s0.64-0.81,1.1-1.11s0.98-0.53,1.57-0.68
				s1.19-0.23,1.82-0.23c1.11,0,2.1,0.17,2.98,0.5v2.38c-0.84-0.58-1.81-0.87-2.91-0.87c-0.34,0-0.65,0.04-0.93,0.11
				s-0.51,0.17-0.71,0.29s-0.35,0.28-0.46,0.45s-0.16,0.37-0.16,0.58c0,0.26,0.05,0.48,0.16,0.66s0.27,0.34,0.49,0.47
				s0.47,0.26,0.77,0.38s0.65,0.24,1.04,0.37c0.52,0.21,0.98,0.43,1.39,0.64s0.76,0.47,1.05,0.74s0.51,0.6,0.67,0.96
				s0.23,0.79,0.23,1.29c0,0.61-0.14,1.14-0.42,1.59s-0.66,0.83-1.12,1.12s-1.01,0.52-1.62,0.66s-1.26,0.22-1.94,0.22
				C220.49,660.47,219.35,660.25,218.39,659.81z"/>
			<path class="st2" d="M239.95,660.19h-2.72v-1.9h-0.05c-0.79,1.45-2.02,2.18-3.68,2.18c-2.84,0-4.25-1.7-4.25-5.11v-7.17h2.72
				v6.89c0,2.16,0.83,3.23,2.5,3.23c0.8,0,1.47-0.3,1.99-0.89s0.78-1.37,0.78-2.33v-6.9h2.72V660.19z"/>
			<path class="st2" d="M252.7,660.19h-2.64v-1.88h-0.05c-0.83,1.44-2.04,2.16-3.64,2.16c-1.18,0-2.1-0.32-2.77-0.96s-1-1.49-1-2.54
				c0-2.27,1.3-3.59,3.91-3.96l3.56-0.5c0-1.71-0.81-2.57-2.44-2.57c-1.43,0-2.72,0.49-3.87,1.48v-2.38
				c1.27-0.75,2.73-1.12,4.38-1.12c3.03,0,4.55,1.49,4.55,4.48V660.19z M250.08,654.29l-2.52,0.35c-0.78,0.1-1.37,0.29-1.76,0.57
				s-0.59,0.76-0.59,1.46c0,0.51,0.18,0.92,0.54,1.25s0.85,0.49,1.46,0.49c0.83,0,1.51-0.29,2.06-0.87s0.81-1.31,0.81-2.2V654.29z"
				/>
			<path class="st2" d="M258.75,660.19h-2.73v-17.77h2.73V660.19z"/>
			<path class="st2" d="M268.42,659.52v-2.87c0.26,0.23,0.56,0.45,0.92,0.63s0.73,0.35,1.13,0.47s0.8,0.23,1.2,0.3
				s0.77,0.11,1.1,0.11c1.17,0,2.04-0.2,2.62-0.59s0.86-0.96,0.86-1.7c0-0.4-0.1-0.74-0.29-1.04s-0.46-0.56-0.8-0.8
				s-0.75-0.47-1.21-0.7s-0.96-0.46-1.49-0.7c-0.57-0.3-1.1-0.61-1.59-0.93s-0.92-0.66-1.28-1.04s-0.65-0.81-0.86-1.28
				s-0.31-1.04-0.31-1.68c0-0.79,0.18-1.47,0.53-2.06s0.82-1.06,1.41-1.44s1.24-0.66,1.99-0.84s1.5-0.28,2.27-0.28
				c1.76,0,3.04,0.2,3.84,0.6v2.75c-0.95-0.69-2.18-1.03-3.68-1.03c-0.41,0-0.83,0.04-1.24,0.12s-0.78,0.21-1.1,0.39
				s-0.59,0.41-0.79,0.69s-0.3,0.62-0.3,1.02c0,0.38,0.08,0.7,0.23,0.97s0.38,0.52,0.69,0.75s0.67,0.45,1.1,0.66s0.94,0.45,1.51,0.7
				c0.59,0.3,1.14,0.62,1.66,0.96s0.98,0.71,1.37,1.11s0.71,0.86,0.94,1.35s0.35,1.06,0.35,1.69c0,0.85-0.17,1.57-0.52,2.16
				s-0.81,1.06-1.39,1.43s-1.25,0.63-2.01,0.8s-1.56,0.25-2.4,0.25c-0.28,0-0.63-0.02-1.04-0.06s-0.83-0.11-1.26-0.19
				s-0.84-0.18-1.22-0.3S268.65,659.67,268.42,659.52z"/>
			<path class="st2" d="M287.59,660.06c-0.53,0.27-1.23,0.4-2.1,0.4c-2.33,0-3.49-1.12-3.49-3.35v-6.79h-2v-2.13h2v-2.78l2.72-0.77
				v3.55h2.87v2.13h-2.87v6c0,0.71,0.13,1.22,0.39,1.52s0.69,0.46,1.29,0.46c0.46,0,0.86-0.13,1.2-0.4V660.06z"/>
			<path class="st2" d="M300.4,660.19h-2.72v-1.9h-0.05c-0.79,1.45-2.02,2.18-3.68,2.18c-2.84,0-4.25-1.7-4.25-5.11v-7.17h2.72v6.89
				c0,2.16,0.83,3.23,2.5,3.23c0.8,0,1.47-0.3,1.99-0.89s0.78-1.37,0.78-2.33v-6.9h2.72V660.19z"/>
			<path class="st2" d="M314.85,660.19h-2.72v-2.04h-0.05c-0.88,1.55-2.22,2.32-4.04,2.32c-1.48,0-2.66-0.54-3.54-1.61
				s-1.33-2.54-1.33-4.39c0-1.98,0.49-3.57,1.47-4.77s2.29-1.79,3.92-1.79c1.62,0,2.79,0.65,3.53,1.95h0.05v-7.43h2.72V660.19z
				 M312.16,654.7v-1.57c0-0.85-0.28-1.57-0.83-2.17s-1.26-0.89-2.12-0.89c-1.02,0-1.81,0.38-2.4,1.14s-0.87,1.81-0.87,3.15
				c0,1.22,0.28,2.18,0.84,2.89s1.31,1.06,2.26,1.06c0.93,0,1.68-0.34,2.26-1.03S312.16,655.74,312.16,654.7z"/>
			<path class="st2" d="M319.77,645.67c-0.45,0-0.83-0.14-1.14-0.43s-0.47-0.66-0.47-1.1s0.16-0.82,0.47-1.11s0.7-0.45,1.14-0.45
				c0.46,0,0.85,0.15,1.17,0.45s0.48,0.67,0.48,1.11c0,0.42-0.16,0.78-0.48,1.08S320.23,645.67,319.77,645.67z M321.12,660.19h-2.72
				v-12h2.72V660.19z"/>
			<path class="st2" d="M329.99,660.47c-1.85,0-3.33-0.56-4.44-1.68s-1.66-2.61-1.66-4.46c0-2.02,0.58-3.59,1.73-4.72
				s2.71-1.7,4.66-1.7c1.88,0,3.34,0.55,4.38,1.65s1.57,2.63,1.57,4.58c0,1.91-0.56,3.45-1.69,4.6S331.89,660.47,329.99,660.47z
				 M330.12,650.08c-1.06,0-1.9,0.37-2.52,1.11s-0.93,1.77-0.93,3.07c0,1.26,0.31,2.25,0.94,2.97s1.46,1.08,2.51,1.08
				c1.07,0,1.89-0.36,2.47-1.07s0.86-1.72,0.86-3.04c0-1.32-0.29-2.34-0.86-3.06S331.19,650.08,330.12,650.08z"/>
			<path class="st2" d="M352.38,644.64c-0.37-0.21-0.79-0.32-1.25-0.32c-1.32,0-1.98,0.75-1.98,2.24v1.63h2.79v2.13h-2.78v9.87
				h-2.72v-9.87h-2.05v-2.13h2.05v-1.95c0-1.27,0.41-2.26,1.24-2.99s1.86-1.1,3.11-1.1c0.67,0,1.2,0.07,1.59,0.22V644.64z"/>
			<path class="st2" d="M359.19,660.47c-1.85,0-3.33-0.56-4.44-1.68s-1.66-2.61-1.66-4.46c0-2.02,0.58-3.59,1.73-4.72
				s2.71-1.7,4.66-1.7c1.88,0,3.34,0.55,4.38,1.65s1.57,2.63,1.57,4.58c0,1.91-0.56,3.45-1.69,4.6S361.1,660.47,359.19,660.47z
				 M359.32,650.08c-1.06,0-1.9,0.37-2.52,1.11s-0.93,1.77-0.93,3.07c0,1.26,0.31,2.25,0.94,2.97s1.46,1.08,2.51,1.08
				c1.07,0,1.89-0.36,2.47-1.07s0.86-1.72,0.86-3.04c0-1.32-0.29-2.34-0.86-3.06S360.39,650.08,359.32,650.08z"/>
			<path class="st2" d="M375.16,650.78c-0.33-0.26-0.8-0.39-1.42-0.39c-0.8,0-1.48,0.36-2.02,1.09s-0.81,1.71-0.81,2.96v5.74h-2.72
				v-12h2.72v2.47h0.05c0.27-0.84,0.67-1.5,1.22-1.97s1.17-0.71,1.85-0.71c0.49,0,0.87,0.07,1.12,0.22V650.78z"/>
			<path class="st2" d="M402.03,660.19h-2.77v-10.88c0-0.89,0.05-1.98,0.16-3.27h-0.05c-0.17,0.73-0.32,1.26-0.46,1.58l-5.02,12.56
				h-1.92l-5.03-12.47c-0.14-0.37-0.29-0.93-0.45-1.68h-0.05c0.06,0.67,0.09,1.77,0.09,3.29v10.85h-2.58v-16.8h3.93l4.42,11.19
				c0.34,0.86,0.55,1.5,0.66,1.92h0.06c0.29-0.88,0.52-1.54,0.7-1.97l4.5-11.14h3.79V660.19z"/>
			<path class="st2" d="M415.08,660.19h-2.64v-1.88h-0.05c-0.83,1.44-2.04,2.16-3.64,2.16c-1.18,0-2.1-0.32-2.77-0.96
				s-1-1.49-1-2.54c0-2.27,1.3-3.59,3.91-3.96l3.56-0.5c0-1.71-0.81-2.57-2.44-2.57c-1.43,0-2.72,0.49-3.87,1.48v-2.38
				c1.27-0.75,2.73-1.12,4.38-1.12c3.03,0,4.55,1.49,4.55,4.48V660.19z M412.45,654.29l-2.52,0.35c-0.78,0.1-1.37,0.29-1.76,0.57
				s-0.59,0.76-0.59,1.46c0,0.51,0.18,0.92,0.54,1.25s0.85,0.49,1.46,0.49c0.83,0,1.51-0.29,2.06-0.87s0.81-1.31,0.81-2.2V654.29z"
				/>
			<path class="st2" d="M426.98,659.64c-0.96,0.55-2.1,0.83-3.41,0.83c-1.78,0-3.22-0.56-4.31-1.67s-1.64-2.56-1.64-4.33
				c0-1.98,0.59-3.56,1.76-4.76s2.75-1.8,4.72-1.8c1.09,0,2.06,0.19,2.89,0.57v2.53c-0.84-0.62-1.73-0.94-2.67-0.94
				c-1.15,0-2.09,0.39-2.82,1.17s-1.1,1.79-1.1,3.05c0,1.24,0.35,2.22,1.04,2.94s1.62,1.08,2.78,1.08c0.98,0,1.9-0.35,2.77-1.04
				V659.64z"/>
			<path class="st2" d="M449.57,660.19h-3.26l-2.68-4.5c-0.24-0.41-0.48-0.77-0.71-1.06s-0.46-0.53-0.7-0.72s-0.5-0.32-0.78-0.41
				s-0.6-0.13-0.95-0.13h-1.12v6.82h-2.78v-16.8h5.53c0.79,0,1.52,0.09,2.18,0.28s1.24,0.47,1.73,0.85s0.88,0.85,1.15,1.42
				s0.42,1.23,0.42,1.99c0,0.59-0.09,1.14-0.26,1.63s-0.43,0.94-0.75,1.32s-0.71,0.72-1.17,0.99s-0.97,0.48-1.54,0.63v0.05
				c0.3,0.17,0.57,0.36,0.8,0.57s0.44,0.42,0.64,0.64s0.4,0.47,0.6,0.74s0.42,0.6,0.66,0.97L449.57,660.19z M439.36,645.65v5.46
				h2.32c0.43,0,0.83-0.07,1.19-0.2s0.68-0.32,0.94-0.57s0.47-0.55,0.62-0.91s0.22-0.76,0.22-1.21c0-0.8-0.25-1.43-0.76-1.89
				s-1.24-0.68-2.19-0.68H439.36z"/>
			<path class="st2" d="M460.75,654.93h-8.18c0.03,1.11,0.37,1.96,1.03,2.57s1.55,0.9,2.69,0.9c1.28,0,2.46-0.38,3.53-1.15v2.19
				c-1.09,0.69-2.54,1.03-4.34,1.03c-1.77,0-3.15-0.54-4.15-1.63s-1.51-2.62-1.51-4.6c0-1.87,0.55-3.39,1.66-4.56
				s2.48-1.76,4.12-1.76s2.91,0.53,3.81,1.58s1.35,2.52,1.35,4.39V654.93z M458.12,653.01c-0.01-0.98-0.24-1.74-0.69-2.28
				s-1.08-0.81-1.88-0.81c-0.78,0-1.44,0.29-1.99,0.86s-0.88,1.32-1,2.24H458.12z"/>
			<path class="st2" d="M470.12,644.64c-0.37-0.21-0.79-0.32-1.25-0.32c-1.32,0-1.98,0.75-1.98,2.24v1.63h2.79v2.13h-2.78v9.87
				h-2.72v-9.87h-2.05v-2.13h2.05v-1.95c0-1.27,0.41-2.26,1.24-2.99s1.86-1.1,3.11-1.1c0.67,0,1.2,0.07,1.59,0.22V644.64z"/>
			<path class="st2" d="M478.57,650.78c-0.33-0.26-0.8-0.39-1.42-0.39c-0.8,0-1.48,0.36-2.02,1.09s-0.81,1.71-0.81,2.96v5.74h-2.72
				v-12h2.72v2.47h0.05c0.27-0.84,0.67-1.5,1.22-1.97s1.17-0.71,1.85-0.71c0.49,0,0.87,0.07,1.12,0.22V650.78z"/>
			<path class="st2" d="M490.44,654.93h-8.18c0.03,1.11,0.37,1.96,1.03,2.57s1.55,0.9,2.69,0.9c1.28,0,2.46-0.38,3.53-1.15v2.19
				c-1.09,0.69-2.54,1.03-4.34,1.03c-1.77,0-3.15-0.54-4.15-1.63s-1.51-2.62-1.51-4.6c0-1.87,0.55-3.39,1.66-4.56
				s2.48-1.76,4.12-1.76s2.91,0.53,3.81,1.58s1.35,2.52,1.35,4.39V654.93z M487.82,653.01c-0.01-0.98-0.24-1.74-0.69-2.28
				s-1.08-0.81-1.88-0.81c-0.78,0-1.44,0.29-1.99,0.86s-0.88,1.32-1,2.24H487.82z"/>
			<path class="st2" d="M492.28,659.81v-2.52c1.02,0.77,2.14,1.16,3.36,1.16c1.64,0,2.46-0.48,2.46-1.45c0-0.27-0.07-0.51-0.21-0.7
				s-0.33-0.36-0.57-0.51s-0.52-0.28-0.84-0.4s-0.69-0.25-1.08-0.4c-0.49-0.2-0.94-0.4-1.33-0.62s-0.72-0.47-0.98-0.74
				s-0.46-0.59-0.59-0.94s-0.2-0.76-0.2-1.23c0-0.58,0.14-1.09,0.41-1.53s0.64-0.81,1.1-1.11s0.98-0.53,1.57-0.68
				s1.19-0.23,1.82-0.23c1.11,0,2.1,0.17,2.98,0.5v2.38c-0.84-0.58-1.81-0.87-2.91-0.87c-0.34,0-0.65,0.04-0.93,0.11
				s-0.51,0.17-0.71,0.29s-0.35,0.28-0.46,0.45s-0.16,0.37-0.16,0.58c0,0.26,0.05,0.48,0.16,0.66s0.27,0.34,0.49,0.47
				s0.47,0.26,0.77,0.38s0.65,0.24,1.04,0.37c0.52,0.21,0.98,0.43,1.39,0.64s0.76,0.47,1.05,0.74s0.51,0.6,0.67,0.96
				s0.23,0.79,0.23,1.29c0,0.61-0.14,1.14-0.42,1.59s-0.66,0.83-1.12,1.12s-1.01,0.52-1.62,0.66s-1.26,0.22-1.94,0.22
				C494.38,660.47,493.24,660.25,492.28,659.81z"/>
			<path class="st2" d="M514.04,660.19h-2.72v-6.56c0-2.38-0.79-3.56-2.38-3.56c-0.8,0-1.47,0.34-2.02,1.03s-0.82,1.57-0.82,2.64
				v6.46h-2.73v-17.77h2.73v7.76h0.05c0.91-1.52,2.2-2.27,3.89-2.27c2.66,0,4,1.63,4,4.89V660.19z"/>
			<path class="st2" d="M523.31,664.01h-2.3c-2.47-2.77-3.7-6.18-3.7-10.23c0-4.07,1.23-7.54,3.7-10.39h2.31
				c-2.42,2.97-3.63,6.43-3.63,10.37C519.69,657.67,520.9,661.09,523.31,664.01z"/>
			<path class="st2" d="M526.09,664.01h-2.3c2.42-2.92,3.63-6.34,3.63-10.25c0-3.95-1.21-7.4-3.64-10.37h2.32
				c2.48,2.86,3.71,6.32,3.71,10.39C529.82,657.83,528.57,661.24,526.09,664.01z"/>
			<path class="st2" d="M535.83,657.39l-1.78,5.89h-2.07l1.28-5.89H535.83z M534.41,651.15c-0.46,0-0.85-0.16-1.17-0.47
				s-0.47-0.69-0.47-1.13s0.16-0.81,0.47-1.11s0.71-0.46,1.17-0.46c0.45,0,0.83,0.15,1.15,0.46s0.48,0.68,0.48,1.11
				s-0.16,0.81-0.48,1.13S534.85,651.15,534.41,651.15z"/>
		</g>
	</g>
	<g>
		<g>
			<path class="st2" d="M341.83,310.74c0.99-0.36,2.09-0.31,3.03,0.16l4.8,2.4c1.22,0.61,1.98,1.82,1.98,3.14v15.75
				c0,1.32-0.76,2.53-1.98,3.14l-4.8,2.4c-0.94,0.47-2.04,0.53-3.03,0.16l-13.62-5.04c-1.42-0.53-2.36-1.84-2.36-3.3v-10.47
				c0-1.46,0.94-2.78,2.36-3.3L341.83,310.74z"/>
		</g>
		<path class="st27" d="M349.11,314.4l-4.8-2.4c-0.63-0.32-1.38-0.36-2.05-0.11l-13.62,5.04c-0.96,0.36-1.56,1.22-1.56,2.15v10.47
			c0,0.92,0.59,1.79,1.56,2.15l13.62,5.04c0.67,0.25,1.42,0.21,2.05-0.11l4.8-2.4c0.82-0.41,1.3-1.2,1.3-2.04v-15.75
			C350.41,315.61,349.93,314.81,349.11,314.4z M344.86,310.9c-0.94-0.47-2.04-0.53-3.03-0.16l-13.62,5.04
			c-1.42,0.53-2.36,1.84-2.36,3.3v10.47c0,1.46,0.94,2.78,2.36,3.3l13.62,5.04c0.99,0.36,2.09,0.31,3.03-0.16l4.8-2.4
			c1.22-0.61,1.98-1.82,1.98-3.14v-15.75c0-1.32-0.76-2.53-1.98-3.14L344.86,310.9z"/>
		<path class="st28" d="M332.09,329.53c-0.21,0.19-0.51,0.24-0.76,0.12l-1.34-0.58c-0.27-0.12-0.45-0.4-0.45-0.7v-8.12
			c0-0.31,0.18-0.58,0.45-0.7l1.34-0.58c0.26-0.11,0.55-0.06,0.76,0.12l0.3,0.27c-0.27-0.2-0.65,0-0.65,0.34v9.21
			c0,0.34,0.38,0.54,0.65,0.34L332.09,329.53z"/>
		<g>
			<path class="st29" d="M330.01,329.07c-0.29-0.12-0.47-0.4-0.47-0.71v-0.06c0,0.41,0.5,0.6,0.77,0.3l11.89-13.16
				c0.34-0.34,0.87-0.43,1.31-0.22l3.79,1.83c0.4,0.19,0.65,0.6,0.65,1.04v0.04c0-0.61-0.71-0.95-1.19-0.56l-14.26,11.69l-0.31,0.27
				c-0.22,0.19-0.53,0.24-0.79,0.13L330.01,329.07z"/>
		</g>
		<g>
			<path class="st30" d="M330.01,319.56c-0.29,0.12-0.47,0.4-0.47,0.71v0.06c0-0.41,0.5-0.6,0.77-0.3l11.89,13.16
				c0.34,0.34,0.87,0.43,1.31,0.22l3.79-1.83c0.4-0.19,0.65-0.6,0.65-1.04v-0.04c0,0.61-0.71,0.95-1.19,0.56l-14.26-11.69
				l-0.31-0.27c-0.22-0.19-0.53-0.24-0.79-0.13L330.01,319.56z"/>
		</g>
		<g>
			<path class="st31" d="M343.54,333.41c-0.44,0.21-0.96,0.12-1.3-0.22c0.42,0.43,1.14,0.12,1.14-0.48v-16.78
				c0-0.6-0.72-0.91-1.14-0.48c0.34-0.35,0.86-0.44,1.3-0.22l3.77,1.83c0.4,0.19,0.65,0.6,0.65,1.04v12.44
				c0,0.44-0.25,0.85-0.65,1.04L343.54,333.41z"/>
		</g>
	</g>
</g>
</svg>
