<?xml version="1.0" encoding="utf-8"?>
<!-- Generator: Adobe Illustrator 23.1.1, SVG Export Plug-In . SVG Version: 6.00 Build 0)  -->
<svg version="1.1" id="Layer_1" xmlns="http://www.w3.org/2000/svg" xmlns:xlink="http://www.w3.org/1999/xlink" x="0px" y="0px"
	 viewBox="0 0 1920 1080" style="enable-background:new 0 0 1920 1080;" xml:space="preserve">
<style type="text/css">
	.st0{fill:url(#SVGID_1_);}
	.st1{fill:url(#SVGID_2_);}
	.st2{fill:url(#SVGID_3_);}
	.st3{fill:#744CA9;}
	.st4{fill:#A38ADA;}
	.st5{fill:#805BB6;}
	.st6{fill:#E3646A;}
	.st7{fill:url(#SVGID_4_);}
	.st8{fill:url(#SVGID_5_);}
	.st9{fill:url(#SVGID_6_);}
	.st10{fill:#9E83E3;}
	.st11{fill:#8C6BC2;}
	.st12{fill:#FFD055;}
	.st13{fill:#FFFFFF;}
</style>
<g>
	<radialGradient id="SVGID_1_" cx="1016.5405" cy="1387.7648" r="810.4643" gradientUnits="userSpaceOnUse">
		<stop  offset="0.1162" style="stop-color:#8C6BC2"/>
		<stop  offset="0.653" style="stop-color:#6F45A4"/>
		<stop  offset="0.9935" style="stop-color:#5C2D91"/>
	</radialGradient>
	<rect x="0.9" y="0.65" class="st0" width="1920" height="1080"/>
	<linearGradient id="SVGID_2_" gradientUnits="userSpaceOnUse" x1="906.1974" y1="653.1952" x2="906.1974" y2="1080.6504">
		<stop  offset="0.0496" style="stop-color:#8C6BC2"/>
		<stop  offset="0.9251" style="stop-color:#744CA9"/>
	</linearGradient>
	<path class="st1" d="M1725.36,1009.14c-22.26-1.21-43.02,5.95-59.26,18.73c-5.57-72.92-64.42-132.19-139.41-136.29
		c-60-3.28-113.56,29.7-139.5,79.81c-12.03-6.62-25.71-10.71-40.34-11.51c-8.51-0.47-16.82,0.23-24.78,1.92
		c3.3-10.55,5.37-21.66,6-33.2c4.08-74.65-53.13-138.46-127.78-142.54c-14.43-0.79-28.45,0.74-41.72,4.21
		c-14.85-33.52-47.51-57.72-86.63-59.86c-12.71-0.69-24.98,1.02-36.4,4.71c-16.98-45.46-59.57-78.92-111.12-81.73
		c-69.44-3.79-128.8,49.43-132.59,118.86c-0.71,13.01,0.58,25.67,3.61,37.67c-34.16,7.03-60.67,36.33-62.66,72.79
		c-0.38,6.92,0.2,13.67,1.54,20.15c-0.46,0.26-0.92,0.51-1.38,0.77c-9.26-2.96-19.03-4.85-29.19-5.4
		c-47.27-2.58-89.45,23.42-109.85,62.93c-13.91-2.03-32.94-4.95-54.64-8.34c3.61-13.54,5.55-27.75,5.55-42.43
		c0-90.85-73.65-164.5-164.5-164.5c-85.05,0-155.02,64.55-163.61,147.33c-6.06-1.16-12.26-1.96-18.59-2.3
		c-76.38-4.17-141.68,54.37-145.85,130.75c-0.51,9.28-0.03,18.38,1.23,27.24c-18.15,7.38-34.5,18.24-48.25,31.74h1801.91
		C1799.77,1041.75,1766.67,1011.4,1725.36,1009.14z"/>
	<linearGradient id="SVGID_3_" gradientUnits="userSpaceOnUse" x1="949.523" y1="1078.0024" x2="949.523" y2="130.0025">
		<stop  offset="0.0937" style="stop-color:#B4A0FF;stop-opacity:0.3"/>
		<stop  offset="0.9935" style="stop-color:#5C2D91"/>
	</linearGradient>
	<rect x="844.52" y="130" class="st2" width="210" height="948"/>
	<circle class="st3" cx="1638.82" cy="614.88" r="6.07"/>
	<circle class="st3" cx="1404.78" cy="272.49" r="5.18"/>
	<circle class="st3" cx="790.58" cy="205.48" r="6.07"/>
	<circle class="st3" cx="1560.35" cy="568.66" r="2.19"/>
	<circle class="st3" cx="1160.14" cy="139.07" r="4.93"/>
	<circle class="st3" cx="1078.39" cy="265.49" r="5.09"/>
	<circle class="st3" cx="1291.16" cy="267.31" r="3.74"/>
	<circle class="st3" cx="1616.7" cy="223.72" r="4.93"/>
	<circle class="st3" cx="1663.72" cy="684.93" r="4.16"/>
	<circle class="st3" cx="1524.95" cy="768.71" r="6.07"/>
	<circle class="st3" cx="1453.4" cy="466.12" r="4.93"/>
	<circle class="st3" cx="1797.58" cy="245.65" r="5.09"/>
	<circle class="st3" cx="1365.13" cy="127.77" r="4.93"/>
	<circle class="st3" cx="1663.68" cy="428.71" r="4.16"/>
	<circle class="st3" cx="1598.22" cy="390.34" r="4.93"/>
	<circle class="st3" cx="1605.04" cy="477.28" r="5.09"/>
	<circle class="st3" cx="759.68" cy="87.71" r="4.16"/>
	<circle class="st3" cx="628.58" cy="74.58" r="5.09"/>
	<path class="st4" d="M1532.64,445.9c4.74-0.23,10.76-1.14,15.85-2.21c-5.29-1.48-10.77-2.04-15.82-2.1
		c-0.23-4.72-1.14-10.7-2.21-15.76c-1.48,5.29-2.04,10.78-2.1,15.82c-9.03,0.36-15.76,2.04-15.76,2.04s10.03,1.75,15.82,2.18
		c0.35,9.07,2.04,15.85,2.04,15.85S1532.21,451.7,1532.64,445.9z"/>
	<path class="st4" d="M1832.74,331.11c4.74-0.23,10.76-1.14,15.85-2.21c-5.29-1.48-10.77-2.04-15.82-2.1
		c-0.23-4.72-1.14-10.7-2.21-15.76c-1.48,5.29-2.04,10.78-2.1,15.82c-9.03,0.36-15.76,2.04-15.76,2.04s10.03,1.75,15.82,2.18
		c0.35,9.07,2.04,15.85,2.04,15.85S1832.31,336.91,1832.74,331.11z"/>
	<path class="st5" d="M701.31,163.39c4.74-0.23,10.76-1.14,15.85-2.21c-5.29-1.48-10.77-2.04-15.82-2.1
		c-0.23-4.72-1.14-10.7-2.21-15.76c-1.48,5.29-2.04,10.78-2.1,15.82c-9.03,0.36-15.76,2.04-15.76,2.04s10.03,1.75,15.82,2.18
		c0.35,9.07,2.04,15.85,2.04,15.85S700.89,169.19,701.31,163.39z"/>
	<path class="st5" d="M1460.77,556.74c4.74-0.23,10.76-1.14,15.85-2.21c-5.29-1.48-10.77-2.04-15.82-2.1
		c-0.23-4.72-1.14-10.7-2.21-15.76c-1.48,5.29-2.04,10.78-2.1,15.82c-9.03,0.36-15.76,2.04-15.76,2.04s10.03,1.75,15.82,2.18
		c0.35,9.07,2.04,15.85,2.04,15.85S1460.34,562.54,1460.77,556.74z"/>
	<circle class="st3" cx="155.03" cy="506.97" r="6.07"/>
	<circle class="st3" cx="128.19" cy="151.95" r="5.18"/>
	<circle class="st3" cx="245.25" cy="302.44" r="2.19"/>
	<circle class="st3" cx="554.61" cy="627.63" r="3.74"/>
	<circle class="st3" cx="590.2" cy="246.09" r="4.93"/>
	<circle class="st3" cx="365.98" cy="483.06" r="4.16"/>
	<circle class="st3" cx="347.8" cy="409.39" r="4.93"/>
	<circle class="st3" cx="429.21" cy="440.64" r="5.09"/>
	<circle class="st3" cx="463.14" cy="677.66" r="4.93"/>
	<circle class="st3" cx="385.2" cy="199.1" r="4.16"/>
	<circle class="st3" cx="423.58" cy="264.57" r="4.93"/>
	<circle class="st3" cx="336.63" cy="257.75" r="5.09"/>
	<path class="st4" d="M368.01,330.14c0.23-4.74,1.14-10.76,2.21-15.85c1.48,5.29,2.04,10.77,2.1,15.82
		c4.72,0.23,10.7,1.14,15.76,2.21c-5.29,1.48-10.78,2.04-15.82,2.1c-0.36,9.03-2.04,15.76-2.04,15.76s-1.75-10.03-2.18-15.82
		c-9.07-0.35-15.85-2.04-15.85-2.04S362.22,330.57,368.01,330.14z"/>
	<path class="st4" d="M476.01,551.78c0.23-4.74,1.14-10.76,2.21-15.85c1.48,5.29,2.04,10.77,2.1,15.82
		c4.72,0.23,10.7,1.14,15.76,2.21c-5.29,1.48-10.78,2.04-15.82,2.1c-0.36,9.03-2.04,15.76-2.04,15.76s-1.75-10.03-2.18-15.82
		c-9.07-0.35-15.85-2.04-15.85-2.04S470.22,552.2,476.01,551.78z"/>
	<path class="st5" d="M202.17,487.02c0.23-4.74,1.14-10.76,2.21-15.85c1.48,5.29,2.04,10.77,2.1,15.82
		c4.72,0.23,10.7,1.14,15.76,2.21c-5.29,1.48-10.78,2.04-15.82,2.1c-0.36,9.03-2.04,15.76-2.04,15.76s-1.75-10.03-2.18-15.82
		c-9.07-0.35-15.85-2.04-15.85-2.04S196.38,487.44,202.17,487.02z"/>
	<path class="st5" d="M1795.28,630.9c-4.74,0.23-10.76,1.14-15.85,2.21c5.29,1.48,10.77,2.04,15.82,2.1
		c0.23,4.72,1.14,10.7,2.21,15.76c1.48-5.29,2.04-10.78,2.1-15.82c9.03-0.36,15.76-2.04,15.76-2.04s-10.03-1.75-15.82-2.18
		c-0.35-9.07-2.04-15.85-2.04-15.85S1795.7,625.1,1795.28,630.9z"/>
	<circle class="st3" cx="77.4" cy="719.82" r="4.49"/>
	<path class="st4" d="M1545.59,88.06c-0.23-4.74-1.14-10.76-2.21-15.85c-1.48,5.29-2.04,10.77-2.1,15.82
		c-4.72,0.23-10.7,1.14-15.76,2.21c5.29,1.48,10.78,2.04,15.82,2.1c0.36,9.03,2.04,15.76,2.04,15.76s1.75-10.03,2.18-15.82
		c9.07-0.35,15.85-2.04,15.85-2.04S1551.39,88.49,1545.59,88.06z"/>
	<g>
		<path class="st6" d="M854.05,71.81c-8.97,17.52-12.01,52.21-12.01,52.21l3.89-6.02c0,0,0.67,17.93,4.28,35.4
			c2.63,12.74,7.51,23.54,7.51,23.54l0.58-7.64c0,0,4.41,10.56,9.43,18.44c5.02,7.88,11.24,21.77,11.24,21.77
			s7.45-15.96,13.11-24.42c10.17-15.22,14.23-30.84,14.23-30.84l0.95,11.02c0,0,5.51-14.87,6.5-29.32c1-14.57-2.83-33.62-2.83-33.62
			l5.17,6.84c0,0-7.51-27.08-12.71-37.34C900.99,67.08,854.05,71.81,854.05,71.81z"/>
		
			<radialGradient id="SVGID_4_" cx="893.6057" cy="404.0647" r="105.8822" fx="864.183" fy="403.9676" gradientTransform="matrix(1 0 0 1.0611 0 -264.2145)" gradientUnits="userSpaceOnUse">
			<stop  offset="0" style="stop-color:#FAE969"/>
			<stop  offset="0.1077" style="stop-color:#F7B548"/>
			<stop  offset="1" style="stop-color:#E3646A"/>
		</radialGradient>
		<path class="st7" d="M903.38,122.47c-0.52-24.76-6.75-45.53-6.75-45.53h-20.25h-8.83h-6.23c0,0-6.23,20.77-6.75,45.53
			c-0.52,24.56,24,59.33,24.4,59.9l0,0.01c0,0,0,0,0-0.01c0,0,0,0.01,0,0.01l0-0.01C879.3,181.91,903.89,147.07,903.38,122.47z"/>
		<path class="st6" d="M996.76,71.73c-9.13,16.82-12.23,50.12-12.23,50.12l3.97-5.78c0,0,0.68,17.21,4.36,33.98
			c2.68,12.23,7.65,22.6,7.65,22.6l0.59-7.34c0,0,4.49,10.13,9.61,17.7c5.12,7.57,11.45,20.9,11.45,20.9s7.59-15.32,13.35-23.45
			c10.36-14.61,14.49-29.61,14.49-29.61l0.97,10.58c0,0,5.61-14.28,6.63-28.15c1.02-13.98-2.88-32.27-2.88-32.27l5.26,6.56
			c0,0-7.65-25.99-12.94-35.85C1044.57,67.19,996.76,71.73,996.76,71.73z"/>
		
			<radialGradient id="SVGID_5_" cx="1037.0515" cy="160.7439" r="107.8535" fx="1007.081" fy="160.6451" gradientUnits="userSpaceOnUse">
			<stop  offset="0" style="stop-color:#FAE969"/>
			<stop  offset="0.1077" style="stop-color:#F7B548"/>
			<stop  offset="1" style="stop-color:#E3646A"/>
		</radialGradient>
		<path class="st8" d="M1047,120.36c-0.53-23.77-6.88-43.71-6.88-43.71h-20.63h-8.99h-6.35c0,0-6.35,19.94-6.88,43.71
			c-0.52,23.58,24.45,56.96,24.86,57.5l0,0.01c0,0,0,0,0-0.01c0,0,0,0.01,0,0.01l0-0.01C1022.48,177.42,1047.53,143.97,1047,120.36z
			"/>
		<path class="st6" d="M975.81,72.03c9.05,19.38,12.12,57.75,12.12,57.75l-3.93-6.66c0,0-0.67,19.83-4.32,39.15
			c-2.66,14.09-7.58,26.03-7.58,26.03l-0.58-8.45c0,0-4.45,11.68-9.52,20.39c-5.07,8.72-11.35,24.08-11.35,24.08
			s-7.52-17.65-13.23-27.01c-10.27-16.83-14.36-34.12-14.36-34.12l-0.96,12.19c0,0-5.56-16.45-6.57-32.43
			c-1.01-16.11,2.86-37.18,2.86-37.18l-5.22,7.56c0,0,7.58-29.95,12.83-41.3C928.42,66.81,975.81,72.03,975.81,72.03z"/>
		
			<radialGradient id="SVGID_6_" cx="-4771.8184" cy="754.6725" r="106.8951" fx="-4801.5225" fy="754.5746" gradientTransform="matrix(-1 0 0 1.1625 -3835.9475 -702.7269)" gradientUnits="userSpaceOnUse">
			<stop  offset="0" style="stop-color:#FAE969"/>
			<stop  offset="0.1077" style="stop-color:#F7B548"/>
			<stop  offset="1" style="stop-color:#E3646A"/>
		</radialGradient>
		<path class="st9" d="M926.01,128.07c0.52-27.39,6.82-50.36,6.82-50.36h20.44h8.91h6.29c0,0,6.29,22.97,6.82,50.36
			c0.52,27.17-24.23,65.63-24.64,66.25l0,0.01c0,0,0-0.01,0-0.01c0,0,0,0.01,0,0.01l0-0.01
			C950.31,193.81,925.49,155.28,926.01,128.07z"/>
		<polygon class="st10" points="907.68,75.46 850.45,75.46 863.48,27.45 894.65,27.45 		"/>
		<polygon class="st10" points="1050.86,75.46 993.62,75.46 1006.66,27.45 1037.82,27.45 		"/>
		<polygon class="st10" points="979.17,75.46 921.94,75.46 934.97,27.45 966.13,27.45 		"/>
		<polygon class="st11" points="928.15,0.29 928.14,36.48 972.89,36.48 972.89,0.29 		"/>
		<rect x="856.51" y="0.29" class="st11" width="44.69" height="36.28"/>
		<rect x="999.89" y="0.29" class="st11" width="44.69" height="36.28"/>
	</g>
	<g>
		<g>
			<path class="st12" d="M537.89,308.85l-24.8,69.07h-12.81l-24.37-69.07h12.52l17.05,52.4c0.55,1.67,0.96,3.61,1.25,5.83h0.19
				c0.22-1.83,0.69-3.8,1.4-5.92l17.44-52.31H537.89z"/>
			<path class="st12" d="M551.43,318.24c-1.83,0-3.4-0.59-4.7-1.78c-1.3-1.19-1.95-2.7-1.95-4.53s0.65-3.36,1.95-4.58
				c1.3-1.22,2.87-1.83,4.7-1.83c1.89,0,3.5,0.61,4.82,1.83c1.32,1.22,1.98,2.75,1.98,4.58c0,1.73-0.66,3.22-1.98,4.46
				S553.32,318.24,551.43,318.24z M556.97,377.91h-11.17v-49.32h11.17V377.91z"/>
			<path class="st12" d="M568.48,376.37v-10.36c4.17,3.18,8.78,4.77,13.82,4.77c6.74,0,10.12-1.99,10.12-5.97
				c0-1.12-0.29-2.08-0.87-2.87c-0.58-0.79-1.36-1.48-2.34-2.09c-0.98-0.61-2.14-1.16-3.47-1.64c-1.33-0.48-2.82-1.03-4.46-1.64
				c-2.02-0.8-3.85-1.65-5.47-2.55c-1.62-0.9-2.97-1.92-4.05-3.06c-1.08-1.14-1.89-2.43-2.43-3.88c-0.55-1.44-0.82-3.13-0.82-5.06
				c0-2.38,0.56-4.47,1.69-6.29c1.12-1.81,2.63-3.34,4.53-4.58c1.89-1.24,4.05-2.17,6.45-2.79c2.41-0.63,4.9-0.94,7.47-0.94
				c4.56,0,8.64,0.69,12.23,2.07v9.78c-3.47-2.38-7.45-3.56-11.94-3.56c-1.41,0-2.69,0.14-3.83,0.43c-1.14,0.29-2.11,0.69-2.91,1.2
				c-0.8,0.51-1.43,1.13-1.88,1.85c-0.45,0.72-0.67,1.52-0.67,2.38c0,1.06,0.22,1.96,0.67,2.7c0.45,0.74,1.12,1.39,2,1.95
				c0.88,0.56,1.94,1.08,3.18,1.54c1.24,0.47,2.66,0.97,4.26,1.52c2.12,0.87,4.02,1.75,5.71,2.65c1.69,0.9,3.12,1.92,4.31,3.06
				c1.19,1.14,2.1,2.46,2.75,3.95c0.64,1.49,0.96,3.27,0.96,5.32c0,2.5-0.58,4.69-1.73,6.55c-1.16,1.86-2.7,3.4-4.62,4.62
				c-1.93,1.22-4.15,2.13-6.67,2.72s-5.18,0.89-7.97,0.89C577.1,379.07,572.43,378.17,568.48,376.37z"/>
			<path class="st12" d="M657.1,377.91h-11.17v-7.8h-0.19c-3.24,5.97-8.28,8.96-15.12,8.96c-11.66,0-17.48-7-17.48-21v-29.48h11.17
				v28.32c0,8.86,3.42,13.29,10.26,13.29c3.31,0,6.03-1.22,8.16-3.66c2.13-2.44,3.2-5.64,3.2-9.58v-28.37h11.17V377.91z"/>
			<path class="st12" d="M709.5,377.91h-10.84v-7.71h-0.19c-3.4,5.91-8.4,8.86-14.98,8.86c-4.85,0-8.65-1.32-11.39-3.95
				c-2.75-2.63-4.12-6.12-4.12-10.45c0-9.31,5.36-14.74,16.09-16.28l14.64-2.07c0-7.03-3.34-10.55-10.02-10.55
				c-5.88,0-11.17,2.02-15.89,6.07v-9.78c5.2-3.08,11.21-4.62,18.01-4.62c12.46,0,18.69,6.13,18.69,18.4V377.91z M698.71,353.69
				l-10.35,1.45c-3.21,0.42-5.63,1.2-7.25,2.34c-1.62,1.14-2.43,3.14-2.43,6c0,2.09,0.75,3.8,2.24,5.13s3.49,2,6,2
				c3.4,0,6.22-1.2,8.45-3.59c2.23-2.39,3.35-5.4,3.35-9.03V353.69z"/>
			<path class="st12" d="M734.35,377.91h-11.22V304.9h11.22V377.91z"/>
			<path class="st12" d="M774.09,375.17v-11.8c1.06,0.96,2.32,1.83,3.78,2.6c1.46,0.77,3.01,1.42,4.65,1.95
				c1.64,0.53,3.28,0.94,4.91,1.23s3.15,0.43,4.53,0.43c4.82,0,8.4-0.8,10.76-2.41s3.54-3.93,3.54-6.98c0-1.64-0.39-3.06-1.18-4.26
				c-0.79-1.2-1.89-2.3-3.3-3.3c-1.41-1-3.08-1.95-4.98-2.87c-1.91-0.92-3.96-1.87-6.14-2.87c-2.34-1.25-4.53-2.52-6.55-3.8
				c-2.02-1.28-3.78-2.71-5.27-4.26s-2.67-3.32-3.52-5.27c-0.85-1.96-1.28-4.25-1.28-6.89c0-3.24,0.73-6.06,2.19-8.45
				c1.46-2.39,3.39-4.37,5.78-5.92s5.11-2.71,8.16-3.47c3.05-0.75,6.17-1.13,9.34-1.13c7.22,0,12.49,0.82,15.8,2.46v11.32
				c-3.92-2.83-8.96-4.24-15.12-4.24c-1.7,0-3.4,0.16-5.08,0.48c-1.69,0.32-3.2,0.85-4.53,1.59s-2.42,1.69-3.25,2.84
				c-0.83,1.16-1.25,2.55-1.25,4.19c0,1.54,0.32,2.87,0.96,4s1.58,2.15,2.82,3.08c1.24,0.93,2.75,1.84,4.53,2.72
				c1.78,0.88,3.84,1.84,6.19,2.87c2.41,1.25,4.68,2.57,6.82,3.95c2.13,1.38,4.01,2.91,5.63,4.58c1.62,1.67,2.91,3.52,3.85,5.56
				c0.95,2.04,1.42,4.36,1.42,6.96c0,3.5-0.71,6.45-2.12,8.86c-1.41,2.41-3.32,4.37-5.71,5.88c-2.39,1.51-5.15,2.6-8.26,3.28
				c-3.12,0.67-6.41,1.01-9.87,1.01c-1.16,0-2.58-0.09-4.26-0.27c-1.69-0.18-3.41-0.43-5.18-0.77c-1.77-0.34-3.44-0.75-5.01-1.23
				C776.32,376.32,775.05,375.78,774.09,375.17z"/>
			<path class="st12" d="M852.89,377.38c-2.18,1.09-5.06,1.64-8.62,1.64c-9.57,0-14.35-4.59-14.35-13.77v-27.89h-8.24v-8.77h8.24
				v-11.41l11.17-3.18v14.59h11.8v8.77h-11.8v24.66c0,2.92,0.53,5.01,1.59,6.26s2.83,1.88,5.3,1.88c1.89,0,3.53-0.54,4.91-1.64
				V377.38z"/>
			<path class="st12" d="M905.53,377.91h-11.17v-7.8h-0.19c-3.24,5.97-8.28,8.96-15.12,8.96c-11.66,0-17.48-7-17.48-21v-29.48h11.17
				v28.32c0,8.86,3.42,13.29,10.26,13.29c3.31,0,6.03-1.22,8.16-3.66c2.13-2.44,3.2-5.64,3.2-9.58v-28.37h11.17V377.91z"/>
			<path class="st12" d="M964.92,377.91h-11.17v-8.38h-0.19c-3.6,6.36-9.13,9.54-16.62,9.54c-6.07,0-10.93-2.21-14.57-6.62
				c-3.64-4.41-5.47-10.43-5.47-18.04c0-8.16,2.01-14.69,6.04-19.6c4.03-4.91,9.4-7.37,16.11-7.37c6.65,0,11.48,2.67,14.5,8h0.19
				V304.9h11.17V377.91z M953.89,355.37v-6.45c0-3.5-1.14-6.47-3.42-8.91c-2.28-2.44-5.19-3.66-8.72-3.66
				c-4.17,0-7.46,1.56-9.85,4.67c-2.39,3.12-3.59,7.43-3.59,12.96c0,5.01,1.15,8.97,3.44,11.87c2.3,2.91,5.39,4.36,9.27,4.36
				c3.82,0,6.92-1.4,9.3-4.21C952.7,363.18,953.89,359.64,953.89,355.37z"/>
			<path class="st12" d="M985.14,318.24c-1.83,0-3.4-0.59-4.7-1.78c-1.3-1.19-1.95-2.7-1.95-4.53s0.65-3.36,1.95-4.58
				c1.3-1.22,2.87-1.83,4.7-1.83c1.89,0,3.5,0.61,4.82,1.83c1.32,1.22,1.97,2.75,1.97,4.58c0,1.73-0.66,3.22-1.97,4.46
				C988.64,317.62,987.04,318.24,985.14,318.24z M990.68,377.91h-11.17v-49.32h11.17V377.91z"/>
			<path class="st12" d="M1027.14,379.07c-7.61,0-13.69-2.3-18.23-6.91c-4.54-4.61-6.82-10.72-6.82-18.33
				c0-8.28,2.37-14.75,7.1-19.41c4.74-4.66,11.12-6.98,19.15-6.98c7.71,0,13.71,2.26,18.01,6.79s6.45,10.8,6.45,18.83
				c0,7.87-2.32,14.17-6.96,18.9S1034.98,379.07,1027.14,379.07z M1027.67,336.35c-4.37,0-7.82,1.53-10.36,4.58
				c-2.54,3.05-3.8,7.26-3.8,12.62c0,5.17,1.28,9.24,3.85,12.21c2.57,2.97,6,4.46,10.31,4.46c4.4,0,7.78-1.46,10.14-4.38
				s3.54-7.08,3.54-12.47c0-5.43-1.18-9.62-3.54-12.57C1035.45,337.83,1032.07,336.35,1027.67,336.35z"/>
			<path class="st12" d="M1119.18,314c-1.51-0.87-3.23-1.3-5.15-1.3c-5.43,0-8.14,3.07-8.14,9.2v6.69h11.46v8.77h-11.41v40.55
				h-11.17v-40.55h-8.43v-8.77h8.43v-8c0-5.2,1.7-9.3,5.11-12.31c3.4-3,7.66-4.5,12.76-4.5c2.76,0,4.94,0.31,6.55,0.92V314z"/>
			<path class="st12" d="M1147.17,379.07c-7.61,0-13.69-2.3-18.23-6.91c-4.54-4.61-6.82-10.72-6.82-18.33
				c0-8.28,2.37-14.75,7.1-19.41c4.74-4.66,11.12-6.98,19.15-6.98c7.71,0,13.71,2.26,18.01,6.79s6.45,10.8,6.45,18.83
				c0,7.87-2.32,14.17-6.96,18.9S1155,379.07,1147.17,379.07z M1147.7,336.35c-4.37,0-7.82,1.53-10.36,4.58
				c-2.54,3.05-3.8,7.26-3.8,12.62c0,5.17,1.28,9.24,3.85,12.21c2.57,2.97,6,4.46,10.31,4.46c4.4,0,7.78-1.46,10.14-4.38
				s3.54-7.08,3.54-12.47c0-5.43-1.18-9.62-3.54-12.57C1155.47,337.83,1152.09,336.35,1147.7,336.35z"/>
			<path class="st12" d="M1212.81,339.24c-1.35-1.06-3.29-1.59-5.83-1.59c-3.31,0-6.07,1.49-8.28,4.48
				c-2.22,2.99-3.32,7.05-3.32,12.19v23.6h-11.17v-49.32h11.17v10.16h0.19c1.09-3.47,2.77-6.17,5.03-8.12s4.79-2.91,7.59-2.91
				c2.02,0,3.56,0.31,4.62,0.92V339.24z"/>
			<path class="st12" d="M1323.25,377.91h-11.37v-44.7c0-3.66,0.22-8.14,0.67-13.44h-0.19c-0.71,3.02-1.33,5.19-1.88,6.5
				l-20.61,51.63h-7.9l-20.66-51.25c-0.58-1.51-1.19-3.81-1.83-6.89h-0.19c0.26,2.76,0.39,7.27,0.39,13.53v44.6h-10.6v-69.07h16.13
				l18.16,46c1.38,3.53,2.28,6.17,2.7,7.9h0.24c1.19-3.63,2.15-6.33,2.89-8.09l18.5-45.8h15.56V377.91z"/>
			<path class="st12" d="M1376.86,377.91h-10.84v-7.71h-0.19c-3.4,5.91-8.4,8.86-14.98,8.86c-4.85,0-8.65-1.32-11.39-3.95
				c-2.75-2.63-4.12-6.12-4.12-10.45c0-9.31,5.36-14.74,16.09-16.28l14.64-2.07c0-7.03-3.34-10.55-10.02-10.55
				c-5.88,0-11.17,2.02-15.89,6.07v-9.78c5.2-3.08,11.21-4.62,18.01-4.62c12.46,0,18.69,6.13,18.69,18.4V377.91z M1366.07,353.69
				l-10.36,1.45c-3.21,0.42-5.63,1.2-7.25,2.34c-1.62,1.14-2.43,3.14-2.43,6c0,2.09,0.75,3.8,2.24,5.13s3.49,2,6,2
				c3.4,0,6.22-1.2,8.45-3.59c2.23-2.39,3.35-5.4,3.35-9.03V353.69z"/>
			<path class="st12" d="M1425.8,375.65c-3.95,2.28-8.62,3.42-14.02,3.42c-7.32,0-13.23-2.29-17.72-6.86
				c-4.5-4.58-6.74-10.51-6.74-17.8c0-8.12,2.42-14.65,7.25-19.58c4.83-4.93,11.29-7.39,19.39-7.39c4.5,0,8.46,0.79,11.9,2.36v10.4
				c-3.44-2.57-7.1-3.85-10.98-3.85c-4.72,0-8.59,1.6-11.61,4.79c-3.02,3.2-4.53,7.38-4.53,12.55c0,5.11,1.42,9.14,4.26,12.09
				c2.84,2.96,6.65,4.43,11.44,4.43c4.01,0,7.8-1.43,11.37-4.29V375.65z"/>
		</g>
		<g>
			<path class="st13" d="M713.41,525.05v56.84h-9.77V454.64h25.98c3.38,0,6.75,0.49,10.11,1.46s6.35,2.78,8.98,5.42
				s4.77,6.23,6.4,10.79c1.63,4.56,2.44,10.45,2.44,17.68c0,5.14-0.52,9.6-1.56,13.38c-1.04,3.78-2.39,6.98-4.05,9.62
				c-1.66,2.64-3.52,4.77-5.57,6.4c-2.05,1.63-4.09,2.87-6.1,3.71l21.88,58.79H751.1l-19.73-56.84H713.41z M728.64,516.75
				c2.21,0,4.46-0.37,6.74-1.12c2.28-0.75,4.33-2.12,6.15-4.1c1.82-1.99,3.32-4.7,4.49-8.15c1.17-3.45,1.76-7.91,1.76-13.38
				s-0.57-9.93-1.71-13.38c-1.14-3.45-2.59-6.15-4.35-8.11s-3.71-3.29-5.86-4c-2.15-0.72-4.23-1.07-6.25-1.07h-16.21v53.32H728.64z"
				/>
			<path class="st13" d="M794.95,574.07c2.08,0,3.97-0.42,5.66-1.27c1.69-0.85,3.14-2.03,4.35-3.56c1.21-1.53,2.13-3.37,2.78-5.52
				s0.98-4.56,0.98-7.23h9.77c0,2.8-0.36,5.75-1.07,8.84c-0.72,3.09-1.95,5.94-3.71,8.54c-1.76,2.6-4.15,4.75-7.18,6.45
				s-6.88,2.54-11.57,2.54c-4.82,0-8.74-0.88-11.77-2.64s-5.42-4.02-7.18-6.79c-1.76-2.77-2.96-5.89-3.61-9.38
				c-0.65-3.48-0.98-6.98-0.98-10.5v-34.28c0-3.52,0.33-7.01,0.98-10.5c0.65-3.48,1.86-6.61,3.61-9.38
				c1.76-2.77,4.15-5.03,7.18-6.79s6.95-2.64,11.77-2.64s8.76,0.88,11.82,2.64s5.45,4.04,7.18,6.84c1.72,2.8,2.91,5.94,3.56,9.42
				c0.65,3.48,0.98,6.95,0.98,10.4v20.51h-37.3v13.77c0,3.71,0.34,6.85,1.03,9.42c0.68,2.57,1.63,4.69,2.83,6.35
				s2.65,2.87,4.35,3.61C791.08,573.7,792.93,574.07,794.95,574.07z M808.72,519.29c0-6.45-1.12-11.47-3.37-15.09
				s-5.71-5.42-10.4-5.42c-4.82,0-8.32,1.81-10.5,5.42s-3.27,8.64-3.27,15.09V531h27.54V519.29z"/>
			<path class="st13" d="M862.14,499.75h-12.6v82.13h-9.77v-82.13h-8.79v-8.79h8.79v-13.57c0-4.95,0.47-8.92,1.42-11.91
				c0.94-2.99,2.16-5.31,3.66-6.93c1.5-1.63,3.22-2.69,5.18-3.17s3.91-0.73,5.86-0.73h6.25v8.79h-4.3c-2.54,0-4.56,0.85-6.05,2.54
				c-1.5,1.69-2.25,4.69-2.25,8.98v16.02h12.6V499.75z"/>
			<path class="st13" d="M910.67,498.97c-0.52,0-1.07-0.03-1.66-0.1c-0.52,0-1.04-0.02-1.56-0.05c-0.52-0.03-1.04-0.05-1.56-0.05
				c-2.8,0-5.31,0.39-7.52,1.17s-4.17,1.74-5.86,2.88c-1.69,1.14-3.12,2.31-4.3,3.52c-1.17,1.21-2.08,2.23-2.73,3.08v72.46h-9.77
				v-90.92h9.77v8.89h0.98c1.76-1.82,3.71-3.45,5.86-4.88c1.82-1.24,3.97-2.38,6.45-3.42c2.47-1.04,5.18-1.56,8.11-1.56
				c0.52,0,1.01,0.02,1.46,0.05c0.46,0.03,0.85,0.05,1.17,0.05c0.39,0.07,0.78,0.1,1.17,0.1V498.97z"/>
			<path class="st13" d="M943.29,574.07c2.08,0,3.97-0.42,5.66-1.27c1.69-0.85,3.14-2.03,4.35-3.56c1.21-1.53,2.13-3.37,2.78-5.52
				s0.98-4.56,0.98-7.23h9.77c0,2.8-0.36,5.75-1.07,8.84c-0.72,3.09-1.95,5.94-3.71,8.54c-1.76,2.6-4.15,4.75-7.18,6.45
				s-6.88,2.54-11.57,2.54c-4.82,0-8.74-0.88-11.77-2.64s-5.42-4.02-7.18-6.79c-1.76-2.77-2.96-5.89-3.61-9.38
				c-0.65-3.48-0.98-6.98-0.98-10.5v-34.28c0-3.52,0.33-7.01,0.98-10.5c0.65-3.48,1.86-6.61,3.61-9.38
				c1.76-2.77,4.15-5.03,7.18-6.79s6.95-2.64,11.77-2.64s8.76,0.88,11.82,2.64s5.45,4.04,7.18,6.84c1.72,2.8,2.91,5.94,3.56,9.42
				c0.65,3.48,0.98,6.95,0.98,10.4v20.51h-37.3v13.77c0,3.71,0.34,6.85,1.03,9.42c0.68,2.57,1.63,4.69,2.83,6.35
				s2.65,2.87,4.35,3.61C939.42,573.7,941.27,574.07,943.29,574.07z M957.06,519.29c0-6.45-1.12-11.47-3.37-15.09
				s-5.71-5.42-10.4-5.42c-4.82,0-8.32,1.81-10.5,5.42s-3.27,8.64-3.27,15.09V531h27.54V519.29z"/>
			<path class="st13" d="M999.73,540.28c-2.67-0.91-5.22-2.03-7.67-3.37c-2.44-1.33-4.61-3.03-6.49-5.08s-3.4-4.52-4.54-7.42
				c-1.14-2.9-1.71-6.4-1.71-10.5c0-3.52,0.5-6.74,1.51-9.67s2.51-5.45,4.49-7.57c1.99-2.12,4.44-3.76,7.37-4.93
				s6.31-1.76,10.16-1.76c4.75,0,8.66,0.85,11.72,2.54c3.06,1.69,5.47,3.86,7.23,6.49s2.96,5.57,3.61,8.79s0.98,6.4,0.98,9.52h-9.77
				c0-1.69-0.16-3.61-0.49-5.76c-0.33-2.15-0.99-4.17-2-6.05c-1.01-1.89-2.46-3.48-4.35-4.79c-1.89-1.3-4.39-1.95-7.52-1.95
				c-2.8,0-5.06,0.55-6.79,1.66c-1.72,1.11-3.06,2.46-4,4.05c-0.94,1.6-1.58,3.26-1.9,4.98c-0.33,1.73-0.49,3.21-0.49,4.44
				c0,2.08,0.21,3.99,0.63,5.71c0.42,1.73,1.24,3.35,2.44,4.88c1.21,1.53,2.9,2.96,5.08,4.3c2.18,1.33,5.06,2.62,8.64,3.86
				c2.67,0.91,5.24,2.02,7.71,3.32c2.47,1.3,4.65,2.95,6.54,4.93c1.89,1.99,3.4,4.44,4.54,7.37c1.14,2.93,1.71,6.48,1.71,10.64
				c0,3.52-0.5,6.74-1.51,9.67c-1.01,2.93-2.51,5.45-4.49,7.57c-1.99,2.12-4.44,3.76-7.37,4.93s-6.31,1.76-10.16,1.76
				c-4.75,0-8.66-0.85-11.72-2.54s-5.47-3.86-7.23-6.49s-2.96-5.57-3.61-8.79s-0.98-6.4-0.98-9.52h9.77c0,1.69,0.16,3.61,0.49,5.76
				s0.99,4.17,2,6.05c1.01,1.89,2.46,3.48,4.35,4.79c1.89,1.3,4.39,1.95,7.52,1.95c2.8,0,5.06-0.55,6.79-1.66
				c1.72-1.11,3.06-2.46,4-4.05c0.94-1.59,1.58-3.25,1.9-4.98c0.33-1.72,0.49-3.21,0.49-4.44c0-2.02-0.23-3.91-0.68-5.66
				s-1.32-3.38-2.59-4.88c-1.27-1.5-2.99-2.91-5.18-4.25C1006,542.81,1003.18,541.52,999.73,540.28z"/>
			<path class="st13" d="M1041.14,454.64h9.77v44.34h0.98c1.76-1.56,3.65-2.96,5.66-4.2c1.69-1.11,3.66-2.1,5.91-2.98
				s4.61-1.32,7.08-1.32c4.1,0,7.32,0.75,9.67,2.25c2.34,1.5,4.12,3.37,5.32,5.62s1.95,4.67,2.25,7.28c0.29,2.6,0.44,5.05,0.44,7.32
				v68.95h-9.77v-68.75c0-4.49-0.86-7.93-2.59-10.3c-1.72-2.38-4.02-3.56-6.88-3.56c-2.47,0-4.82,0.49-7.03,1.46
				s-4.13,2.05-5.76,3.22c-1.95,1.37-3.71,2.9-5.27,4.59v73.34h-9.77V454.64z"/>
			<path class="st13" d="M1105.2,518.31c0-5.01,0.33-9.9,0.98-14.65c0.65-4.75,1.51-9.31,2.59-13.67c1.07-4.36,2.29-8.48,3.66-12.35
				c1.37-3.87,2.77-7.44,4.2-10.69c3.38-7.68,7.23-14.71,11.52-21.09h5.57c-3.45,6.71-6.51,13.96-9.18,21.78
				c-1.17,3.32-2.29,6.92-3.37,10.79c-1.07,3.87-2.04,7.96-2.88,12.26s-1.53,8.77-2.05,13.43c-0.52,4.66-0.78,9.39-0.78,14.21
				c0,4.82,0.26,9.55,0.78,14.21c0.52,4.66,1.21,9.13,2.05,13.43s1.81,8.38,2.88,12.26c1.07,3.87,2.2,7.47,3.37,10.79
				c2.67,7.81,5.73,15.04,9.18,21.68h-5.57c-4.3-6.38-8.14-13.41-11.52-21.09c-1.43-3.25-2.83-6.82-4.2-10.69
				c-1.37-3.87-2.59-7.97-3.66-12.3c-1.07-4.33-1.94-8.85-2.59-13.57C1105.53,528.29,1105.2,523.39,1105.2,518.31z"/>
			<path class="st13" d="M1173.56,518.31c0,5.08-0.33,9.98-0.98,14.7c-0.65,4.72-1.51,9.25-2.59,13.57
				c-1.07,4.33-2.31,8.43-3.71,12.3c-1.4,3.87-2.82,7.44-4.25,10.69c-3.38,7.68-7.19,14.71-11.43,21.09h-5.57
				c3.38-6.64,6.41-13.87,9.08-21.68c1.17-3.32,2.29-6.92,3.37-10.79c1.07-3.87,2.05-7.96,2.93-12.26s1.58-8.77,2.1-13.43
				c0.52-4.65,0.78-9.39,0.78-14.21c0-4.82-0.26-9.55-0.78-14.21c-0.52-4.65-1.22-9.13-2.1-13.43s-1.86-8.38-2.93-12.26
				c-1.07-3.87-2.2-7.47-3.37-10.79c-2.67-7.81-5.7-15.07-9.08-21.78h5.57c4.23,6.38,8.04,13.41,11.43,21.09
				c1.43,3.26,2.85,6.82,4.25,10.69c1.4,3.87,2.64,7.99,3.71,12.35c1.07,4.36,1.94,8.92,2.59,13.67
				C1173.24,508.41,1173.56,513.3,1173.56,518.31z"/>
			<path class="st13" d="M1199.25,500.73h-9.86v-9.77h9.86V500.73z M1199.15,582.86l-8.79,8.79h-0.98v-19.53h9.77V582.86z"/>
		</g>
	</g>
</g>
</svg>
