<?xml version="1.0" encoding="utf-8"?>
<!-- Generator: Adobe Illustrator 23.1.1, SVG Export Plug-In . SVG Version: 6.00 Build 0)  -->
<svg version="1.1" id="Layer_1" xmlns="http://www.w3.org/2000/svg" xmlns:xlink="http://www.w3.org/1999/xlink" x="0px" y="0px"
	 viewBox="0 0 1600 500" style="enable-background:new 0 0 1600 500;" xml:space="preserve">
<style type="text/css">
	.st0{fill:url(#SVGID_1_);}
	.st1{fill:#805BB6;}
	.st2{fill:#AF99E7;}
	.st3{fill:#FFFFFF;}
	.st4{fill:#8C6BC2;}
	.st5{fill:#FFB900;}
	.st6{fill:#9E83E3;}
	.st7{fill:#FFD055;}
	.st8{fill:#FFE8AA;}
	.st9{fill:#B5A0F3;}
	.st10{fill:#DED5FF;}
	.st11{fill:#712D8D;}
	.st12{fill:#AE7EC1;}
	.st13{fill:#EFE0EF;}
	.st14{fill:#9251A8;}
	.st15{fill:#A874BB;}
	.st16{fill:none;stroke:#712D8D;stroke-width:0.3528;stroke-miterlimit:3.5278;}
	.st17{fill:#5F247B;}
	.st18{fill-rule:evenodd;clip-rule:evenodd;fill:#854CC7;}
	.st19{fill:#52218A;}
	.st20{fill:#6C33AF;}
	.st21{fill:#854CC7;}
	.st22{fill:#B179F1;}
</style>
<g>
	
		<radialGradient id="SVGID_1_" cx="1160.2609" cy="-12.7379" r="451.5647" gradientTransform="matrix(1 0 0 -0.9972 0 501.3005)" gradientUnits="userSpaceOnUse">
		<stop  offset="0.1162" style="stop-color:#8C6BC2"/>
		<stop  offset="0.653" style="stop-color:#6F45A4"/>
		<stop  offset="0.9935" style="stop-color:#5C2D91"/>
	</radialGradient>
	<rect y="1.49" class="st0" width="1600" height="500"/>
	<path class="st1" d="M392.36,37.76H60.27c-1.66,0-3-1.34-3-2.99s1.34-2.99,3-2.99h332.09c1.66,0,3,1.34,3,2.99
		S394.02,37.76,392.36,37.76z"/>
	<path class="st1" d="M470.5,72.26c-0.01,0-0.01,0-0.02,0L60.25,69.43c-1.66-0.01-2.99-1.36-2.98-3.01c0.01-1.65,1.35-2.97,3-2.97
		c0.01,0,0.01,0,0.02,0l410.23,2.83c1.66,0.01,2.99,1.36,2.98,3.01C473.49,70.94,472.15,72.26,470.5,72.26z"/>
	<path class="st1" d="M313.1,101.11H60.27c-1.66,0-3-1.34-3-2.99c0-1.66,1.34-2.99,3-2.99H313.1c1.66,0,3,1.34,3,2.99
		C316.1,99.77,314.76,101.11,313.1,101.11z"/>
	<path class="st1" d="M651.33,132.78h-145.2c-1.66,0-3-1.34-3-2.99s1.34-2.99,3-2.99h145.21c1.66,0,3,1.34,3,2.99
		S652.99,132.78,651.33,132.78z"/>
	<path class="st1" d="M486.13,132.78H269.47c-1.66,0-3-1.34-3-2.99s1.34-2.99,3-2.99h216.65c1.66,0,3,1.34,3,2.99
		S487.78,132.78,486.13,132.78z"/>
	<path class="st1" d="M249.47,132.78h-49.46c-1.66,0-3-1.34-3-2.99s1.34-2.99,3-2.99h49.46c1.66,0,3,1.34,3,2.99
		S251.13,132.78,249.47,132.78z"/>
	<path class="st1" d="M180.02,132.78H90.27c-1.66,0-3-1.34-3-2.99s1.34-2.99,3-2.99h89.75c1.66,0,3,1.34,3,2.99
		S181.67,132.78,180.02,132.78z"/>
	<path class="st1" d="M505.1,164.46H344.27c-1.66,0-3-1.34-3-2.99c0-1.66,1.34-2.99,3-2.99H505.1c1.66,0,3,1.34,3,2.99
		C508.1,163.13,506.76,164.46,505.1,164.46z"/>
	<path class="st1" d="M324.27,164.46H185.2c-1.66,0-3-1.34-3-2.99c0-1.66,1.34-2.99,3-2.99h139.06c1.66,0,3,1.34,3,2.99
		C327.26,163.13,325.92,164.46,324.27,164.46z"/>
	<path class="st1" d="M165.2,164.46H90.27c-1.66,0-3-1.34-3-2.99c0-1.66,1.34-2.99,3-2.99h74.94c1.66,0,3,1.34,3,2.99
		C168.21,163.13,166.86,164.46,165.2,164.46z"/>
	<path class="st1" d="M819.89,227.82h-78.5c-1.66,0-3-1.34-3-2.99s1.34-2.99,3-2.99h78.5c1.66,0,3,1.34,3,2.99
		S821.55,227.82,819.89,227.82z"/>
	<path class="st1" d="M721.39,227.82H569.77c-1.66,0-3-1.34-3-2.99s1.34-2.99,3-2.99h151.62c1.66,0,3,1.34,3,2.99
		S723.05,227.82,721.39,227.82z"/>
	<path class="st1" d="M549.77,227.82H441.33c-1.66,0-3-1.34-3-2.99s1.34-2.99,3-2.99h108.44c1.66,0,3,1.34,3,2.99
		S551.43,227.82,549.77,227.82z"/>
	<path class="st1" d="M421.33,227.82H275.12c-1.66,0-3-1.34-3-2.99s1.34-2.99,3-2.99h146.21c1.66,0,3,1.34,3,2.99
		S422.99,227.82,421.33,227.82z"/>
	<path class="st1" d="M255.12,227.82h-71.48c-1.66,0-3-1.34-3-2.99s1.34-2.99,3-2.99h71.48c1.66,0,3,1.34,3,2.99
		S256.78,227.82,255.12,227.82z"/>
	<path class="st1" d="M163.65,227.82H90.27c-1.66,0-3-1.34-3-2.99s1.34-2.99,3-2.99h73.38c1.66,0,3,1.34,3,2.99
		S165.3,227.82,163.65,227.82z"/>
	<path class="st1" d="M889.9,259.49H581.92c-1.66,0-3-1.34-3-2.99c0-1.66,1.34-2.99,3-2.99H889.9c1.66,0,3,1.34,3,2.99
		C892.9,258.15,891.56,259.49,889.9,259.49z"/>
	<path class="st1" d="M561.92,259.49h-74.74c-1.66,0-3-1.34-3-2.99c0-1.66,1.34-2.99,3-2.99h74.74c1.66,0,3,1.34,3,2.99
		C564.92,258.15,563.58,259.49,561.92,259.49z"/>
	<path class="st1" d="M467.18,259.49H307.12c-1.66,0-3-1.34-3-2.99c0-1.66,1.34-2.99,3-2.99h160.06c1.66,0,3,1.34,3,2.99
		C470.18,258.15,468.84,259.49,467.18,259.49z"/>
	<path class="st1" d="M287.12,259.49h-53.77c-1.66,0-3-1.34-3-2.99c0-1.66,1.34-2.99,3-2.99h53.77c1.66,0,3,1.34,3,2.99
		C290.12,258.15,288.78,259.49,287.12,259.49z"/>
	<path class="st1" d="M213.35,259.49h-63.08c-1.66,0-3-1.34-3-2.99c0-1.66,1.34-2.99,3-2.99h63.08c1.66,0,3,1.34,3,2.99
		C216.35,258.15,215,259.49,213.35,259.49z"/>
	<path class="st1" d="M806.13,322.84H582.51c-1.66,0-3-1.34-3-2.99s1.34-2.99,3-2.99h223.62c1.66,0,3,1.34,3,2.99
		S807.78,322.84,806.13,322.84z"/>
	<path class="st1" d="M562.51,322.84H453.48c-1.66,0-3-1.34-3-2.99s1.34-2.99,3-2.99h109.03c1.66,0,3,1.34,3,2.99
		S564.17,322.84,562.51,322.84z"/>
	<path class="st1" d="M433.48,322.84H291.49c-1.66,0-3-1.34-3-2.99s1.34-2.99,3-2.99h141.99c1.66,0,3,1.34,3,2.99
		S435.14,322.84,433.48,322.84z"/>
	<path class="st1" d="M271.49,322.84H202.9c-1.66,0-3-1.34-3-2.99s1.34-2.99,3-2.99h68.59c1.66,0,3,1.34,3,2.99
		S273.15,322.84,271.49,322.84z"/>
	<path class="st1" d="M182.9,322.84H90.27c-1.66,0-3-1.34-3-2.99s1.34-2.99,3-2.99h92.64c1.66,0,3,1.34,3,2.99
		S184.56,322.84,182.9,322.84z"/>
	<path class="st1" d="M733.94,354.51H616.21c-1.66,0-3-1.34-3-2.99s1.34-2.99,3-2.99h117.73c1.66,0,3,1.34,3,2.99
		S735.6,354.51,733.94,354.51z"/>
	<path class="st1" d="M596.21,354.51H383.19c-1.66,0-3-1.34-3-2.99s1.34-2.99,3-2.99h213.02c1.66,0,3,1.34,3,2.99
		S597.87,354.51,596.21,354.51z"/>
	<path class="st1" d="M363.19,354.51H279.2c-1.66,0-3-1.34-3-2.99s1.34-2.99,3-2.99h83.99c1.66,0,3,1.34,3,2.99
		S364.85,354.51,363.19,354.51z"/>
	<path class="st1" d="M259.2,354.51H150.27c-1.66,0-3-1.34-3-2.99s1.34-2.99,3-2.99H259.2c1.66,0,3,1.34,3,2.99
		S260.85,354.51,259.2,354.51z"/>
	<path class="st1" d="M573.2,417.86H325.41c-1.66,0-3-1.34-3-2.99c0-1.66,1.34-2.99,3-2.99H573.2c1.66,0,3,1.34,3,2.99
		C576.2,416.53,574.85,417.86,573.2,417.86z"/>
	<path class="st1" d="M839.2,417.86H591.41c-1.66,0-3-1.34-3-2.99c0-1.66,1.34-2.99,3-2.99H839.2c1.66,0,3,1.34,3,2.99
		C842.2,416.53,840.85,417.86,839.2,417.86z"/>
	<path class="st1" d="M305.41,417.86h-65.15c-1.66,0-3-1.34-3-2.99c0-1.66,1.34-2.99,3-2.99h65.15c1.66,0,3,1.34,3,2.99
		C308.41,416.53,307.07,417.86,305.41,417.86z"/>
	<path class="st1" d="M766.31,449.55H614.29c-1.66,0-3-1.34-3-2.99s1.34-2.99,3-2.99h152.02c1.66,0,3,1.34,3,2.99
		S767.97,449.55,766.31,449.55z"/>
	<path class="st1" d="M594.29,449.55H341.56c-1.66,0-3-1.34-3-2.99s1.34-2.99,3-2.99h252.72c1.66,0,3,1.34,3,2.99
		S595.94,449.55,594.29,449.55z"/>
	<path class="st1" d="M321.56,449.55h-81.3c-1.66,0-3-1.34-3-2.99s1.34-2.99,3-2.99h81.3c1.66,0,3,1.34,3,2.99
		S323.22,449.55,321.56,449.55z"/>
	<path class="st1" d="M664.73,481.22H240.27c-1.66,0-3-1.34-3-2.99s1.34-2.99,3-2.99h424.46c1.66,0,3,1.34,3,2.99
		S666.39,481.22,664.73,481.22z"/>
	<path class="st2" d="M856.13,499.86h677.56c-4.16-7.04-11.63-11.9-20.29-12.41c1.19-2.57,1.86-5.43,1.86-8.47
		c0-11.15-9.07-20.19-20.25-20.19c-0.28,0-0.56,0.01-0.84,0.02v-1.35c-3.57-15.13-16.42-26.88-32.53-28.54
		c1.66-3.1,2.68-6.59,2.89-10.33c0.75-13.71-9.79-25.44-23.54-26.19c-6.3-0.34-12.17,1.68-16.76,5.29
		c-1.58-20.57-18.22-37.3-39.44-38.45c-16.97-0.93-32.13,8.38-39.46,22.52c-3.4-1.86-7.27-3.02-11.41-3.25
		c-2.41-0.13-4.76,0.07-7.01,0.54c0.93-2.97,1.52-6.11,1.7-9.36c1.15-21.06-15.03-39.06-36.15-40.21c-4.08-0.22-8.05,0.21-11.8,1.19
		c-4.2-9.45-13.44-16.28-24.51-16.88c-3.59-0.2-7.07,0.29-10.3,1.33c-4.8-12.82-16.85-22.27-31.44-23.06
		c-19.64-1.07-36.44,13.94-37.51,33.54c-0.2,3.67,0.17,7.24,1.02,10.63c-9.66,1.98-17.16,10.25-17.73,20.53
		c-0.11,1.95,0.06,3.86,0.43,5.68c-0.13,0.07-0.26,0.15-0.39,0.22c-2.62-0.84-5.38-1.37-8.26-1.53
		c-13.37-0.73-25.31,6.61-31.08,17.75c-3.94-0.57-9.32-1.4-15.46-2.35c1.02-3.82,1.57-7.83,1.57-11.97
		c0-25.63-20.84-46.41-46.54-46.41c-24.06,0-43.86,18.21-46.29,41.56c-1.71-0.33-3.47-0.55-5.26-0.65
		c-21.61-1.18-40.08,15.34-41.26,36.89c-0.14,2.61-0.01,5.19,0.35,7.69c-9.56,3.88-17.36,11.15-21.91,20.31
		c-3.56-1.82-7.56-2.96-11.82-3.19c-15.71-0.86-29.22,10.76-30.83,26.21c-2.25-0.74-4.63-1.2-7.11-1.34
		c-15.22-0.83-28.24,10.81-29.07,25.99c-0.33,5.92,1.26,11.52,4.22,16.18C865.37,490.44,860.09,494.63,856.13,499.86z"/>
	<path class="st3" d="M1379.81,435.82c-8.79,0-16.98,2.54-23.88,6.93c-5.42-14.01-19.03-23.94-34.98-23.94
		c-1.07,0-2.13,0.06-3.18,0.15c0.02-0.39,0.03-0.77,0.03-1.17c0-15.49-12.59-28.04-28.12-28.04c-8.23,0-15.63,3.53-20.78,9.14
		c-4.2-13.39-16.74-23.12-31.55-23.12c-4.25,0-8.31,0.81-12.04,2.26c0.83-3.05,1.29-6.25,1.29-9.56c0-20.11-16.33-36.42-36.48-36.42
		c-18.79,0-34.25,14.18-36.25,32.4c-4.83-1.78-10.05-2.75-15.49-2.75c-14.72,0-27.77,7.08-35.94,18.02
		c-4.02-10.58-14.27-18.1-26.27-18.1c-15.52,0-28.1,12.55-28.1,28.05c0,4.22,0.94,8.22,2.61,11.81c-0.33-0.02-0.66-0.05-1-0.05
		c-4,0-7.63,1.6-10.28,4.19c-7.27-3.93-15.58-6.15-24.43-6.15c-28.39,0-51.4,22.98-51.4,51.31c0,4.02,0.48,7.92,1.35,11.68
		c-12.53,2.82-21.88,13.99-21.88,27.35c0,3.55,0.67,6.94,1.87,10.06H1420c3.36-5.98,4.36-13.44,4.36-19.58
		C1424.35,455.73,1404.41,435.82,1379.81,435.82z"/>
	<polygon class="st4" points="1184.34,203.85 1122.13,203.85 1115.08,187.78 1191.16,188.35 	"/>
	<path class="st5" d="M1182.7,193.29h-58.54c-5.79,0-10.49-4.69-10.49-10.46V87.84c0-5.71,4.64-10.34,10.37-10.34h58.65
		c5.79,0,10.49,4.69,10.49,10.46v94.88C1193.19,188.62,1188.5,193.29,1182.7,193.29z"/>
	<path class="st4" d="M1115.34,82.05l34.41-48.03c1.16-1.61,4.88-1.6,6.07,0l35.3,47.72L1115.34,82.05z"/>
	<rect x="1121.91" y="203.85" class="st5" width="62.42" height="188.89"/>
	<rect x="1120.94" y="371.04" class="st5" width="65.29" height="27.33"/>
	<path class="st6" d="M1335.06,436.1h-97.82c-2.56,0-4.63,2.06-4.63,4.62v11.1c0,2.55,2.07,4.62,4.63,4.62h97.82
		c2.56,0,4.63-2.06,4.63-4.62v-11.1C1339.69,438.18,1337.61,436.1,1335.06,436.1z"/>
	<polygon class="st6" points="1126.55,449.68 1091.16,449.68 1099.22,420.07 1118.49,420.07 	"/>
	<polygon class="st6" points="1215.09,449.68 1179.7,449.68 1187.76,420.07 1207.03,420.07 	"/>
	<polygon class="st6" points="1170.76,449.68 1135.36,449.68 1143.43,420.07 1162.69,420.07 	"/>
	<path class="st7" d="M1094.91,425.69h27.64V279.4l-25.13,20.24c-1.59,1.28-2.51,3.2-2.51,5.25V425.69z"/>
	<path class="st7" d="M1211.21,425.69h-27.64V279.4l23.92,19.27c2.35,1.89,3.72,4.75,3.72,7.77V425.69z"/>
	<path class="st7" d="M1166.88,304.6c0-1.76-0.48-3.49-1.4-4.99l-10.91-17.91c-0.64-1.05-2.16-1.06-2.81-0.01l-10.91,17.61
		c-1.06,1.71-1.62,3.67-1.62,5.67l-0.04,120.66h27.67L1166.88,304.6z"/>
	<rect x="1183.57" y="403.32" class="st4" width="27.64" height="22.38"/>
	<rect x="1139.21" y="403.32" class="st4" width="27.66" height="22.32"/>
	<rect x="1094.91" y="403.32" class="st4" width="27.64" height="22.38"/>
	<rect x="1094.91" y="371.97" class="st8" width="27.64" height="1.61"/>
	<rect x="1094.91" y="310.88" class="st8" width="27.64" height="1.61"/>
	<rect x="1094.91" y="341.43" class="st8" width="27.64" height="1.61"/>
	<rect x="1139.22" y="371.97" class="st8" width="27.65" height="1.61"/>
	<rect x="1139.23" y="341.43" class="st8" width="27.65" height="1.61"/>
	<rect x="1139.24" y="310.88" class="st8" width="27.64" height="1.61"/>
	<rect x="1183.57" y="371.97" class="st8" width="27.64" height="1.61"/>
	<rect x="1183.57" y="341.43" class="st8" width="27.64" height="1.61"/>
	<rect x="1183.57" y="310.88" class="st8" width="27.64" height="1.61"/>
	<path class="st8" d="M1165.17,270.51c0,0.43-0.16,0.8-0.47,1.11c-0.31,0.31-0.68,0.46-1.12,0.46s-0.81-0.15-1.12-0.46
		c-0.32-0.31-0.47-0.68-0.47-1.11c0-0.44,0.16-0.82,0.47-1.13c0.32-0.31,0.69-0.47,1.12-0.47s0.8,0.16,1.12,0.47
		C1165.02,269.69,1165.17,270.07,1165.17,270.51z"/>
	<path class="st8" d="M1164.86,248.47v2.9l-16.14,10.39c-0.4,0.26-0.83,0.48-1.27,0.65v0.08c0.43-0.08,1.36-0.11,2.78-0.11h14.63
		v2.36h-20.25v-3.07l15.89-10.11c0.66-0.42,1.11-0.7,1.36-0.82v-0.06c-0.58,0.09-1.58,0.14-2.98,0.14h-14.26v-2.36L1164.86,248.47
		L1164.86,248.47z"/>
	<path class="st8" d="M1164.86,232.47v10.7h-20.25v-10.25h2.15v7.89h6.74v-7.3h2.13v7.3h7.09v-8.34H1164.86z"/>
	<path class="st8" d="M1146.76,216.59v5.83h18.11v2.36h-18.11v5.81h-2.15v-14.01H1146.76z"/>
	<g>
		<g>
			<path class="st8" d="M1170.58,129.7c-0.01-0.99-0.82-1.78-1.81-1.78l-29.49,0.17c-0.48,0-0.93,0.19-1.27,0.53
				s-0.52,0.8-0.52,1.28l0.1,18.57c0,0.39,0.15,0.75,0.43,1.02c0.27,0.27,0.63,0.42,1.01,0.42h0.01l11.47-0.07v3.83h-3.15
				c-0.78,0-1.41,0.63-1.41,1.41s0.63,1.41,1.41,1.41h13.69c0.78,0,1.41-0.63,1.41-1.41s-0.63-1.41-1.41-1.41h-3.15v-3.87
				l11.34-0.07c0.79,0,1.44-0.65,1.43-1.45L1170.58,129.7z"/>
			<path class="st8" d="M1165.73,169.12c-0.48-1.51-1.87-2.52-3.46-2.52h-2.5c-0.66,0-1.23,0.42-1.42,1.04l-7.95-0.01
				c-0.24-0.58-0.97-1.04-1.65-1.04h-2.17c-1.59,0-2.98,1.02-3.46,2.52l-3.34,10.49c-0.6,1.9,0.45,3.94,2.36,4.54
				c0.36,0.11,0.73,0.17,1.1,0.17c1.09,0,2.26-0.61,2.96-1.53l3.52-3.86c0.23-0.26,0.57-0.4,0.91-0.4h7.59
				c0.35,0,0.68,0.15,0.91,0.4l3.53,3.87c0.7,0.71,1.66,1.53,2.95,1.53c0.37,0,0.74-0.06,1.1-0.17c1.91-0.6,2.96-2.64,2.36-4.54
				L1165.73,169.12z"/>
			<path class="st8" d="M1147.83,116.87c0.41,0.4,0.94,0.62,1.51,0.62h0.01l9.77-0.04c1.18,0,2.15-0.97,2.14-2.15l-0.07-23.26
				c0-0.57-0.23-1.11-0.63-1.52c-0.41-0.41-0.95-0.59-1.52-0.62l-9.77,0.04c-1.19,0-2.15,0.97-2.14,2.15l0.07,23.26
				C1147.2,115.92,1147.42,116.46,1147.83,116.87z"/>
		</g>
		<path class="st5" d="M1159.24,92.56c0-0.12-0.09-0.22-0.2-0.22l-1.51,0.01l-0.47,1.19c-0.07,0.19-0.24,0.31-0.43,0.31h-4.86
			c-0.2,0-0.37-0.13-0.44-0.34l-0.39-1.14l-1.59,0.01c-0.11,0-0.2,0.1-0.19,0.22l0.13,22.13c0,0.12,0.09,0.21,0.19,0.21l9.59,0.14
			c0.11,0,0.2-0.1,0.2-0.22L1159.24,92.56z"/>
	</g>
	<polygon class="st5" points="1168.37,147.39 1139.95,147.56 1139.83,130.36 1168.24,130.19 	"/>
	<g>
		<ellipse class="st5" cx="1147.58" cy="171.29" rx="2.51" ry="2.5"/>
		<ellipse class="st5" cx="1161.36" cy="171.29" rx="2.51" ry="2.5"/>
		<path class="st5" d="M1156.47,171.66h-4.18c-0.42,0-0.75-0.34-0.75-0.75l0,0c0-0.42,0.34-0.75,0.75-0.75h4.18
			c0.42,0,0.75,0.34,0.75,0.75l0,0C1157.23,171.33,1156.89,171.66,1156.47,171.66z"/>
		<ellipse class="st5" cx="1150.8" cy="175.75" rx="1.17" ry="1.17"/>
		<ellipse class="st5" cx="1158.23" cy="175.75" rx="1.17" ry="1.17"/>
	</g>
	<path class="st9" d="M1036.08,448.87c-2,0-3.81,1.17-4.63,2.98l-21.7,48.02h384.1l-21.7-48.02c-0.82-1.81-2.63-2.98-4.63-2.98
		H1036.08z"/>
	<polygon class="st6" points="1228.3,172.66 1221.35,163.92 1245.3,163.92 1245.3,159.62 1187.72,159.62 1187.72,155.02 
		1183.41,155.02 1183.41,168.61 1187.72,168.61 1187.72,163.92 1215.85,163.92 1226.22,176.96 1246.21,176.96 1246.21,172.66 	"/>
	<polygon class="st6" points="1228.3,247.9 1221.35,239.14 1245.3,239.14 1245.3,234.85 1187.72,234.85 1187.72,230.25 
		1183.41,230.25 1183.41,243.84 1187.72,243.84 1187.72,239.14 1215.85,239.14 1226.22,252.2 1246.21,252.2 1246.21,247.9 	"/>
	<path class="st6" d="M1288.57,246.71V136.33l-40.52-40.41h-3.49v345.69l83.71-0.23V286.3L1288.57,246.71z M1288.57,252.79
		l32.94,32.85h-32.94V252.79z M1248.87,102.83l32.34,32.25h-32.34V102.83z M1248.87,139.37h35.39v33.32h-35.39V139.37z
		 M1248.87,176.99h35.39v33.32h-35.39V176.99z M1248.87,214.6h35.39v31.29v2.03h-35.39V214.6z M1248.87,252.23h35.39v33.32h-35.39
		V252.23z M1248.87,289.94h35.39v33.32h-35.39V289.94z M1248.87,327.56h35.39v33.32h-35.39V327.56z M1248.87,365.17h35.39v33.36
		h-35.39V365.17z M1284.26,436.33h-35.39v-33.38h35.39V436.33z M1323.9,436.33h-35.39v-33.38h35.39V436.33z M1323.96,398.53h-35.39
		v-33.36h35.39V398.53z M1323.96,360.87h-35.39v-33.32h35.39V360.87z M1323.96,323.26h-35.39v-33.32h35.39V323.26z"/>
	<rect x="1248.64" y="364.97" class="st10" width="75.18" height="71.38"/>
	<g id="g4493_7_" transform="matrix(0.35277777,0,0,-0.35277777,-83.079201,186.9333)">
		<g id="g4495_7_">
			<g id="g4497_7_">
				<g id="g4503_7_" transform="translate(114.9531,127.7212)">
					<path id="path4505_7_" class="st11" d="M3775.1-715.57l0.43-0.08l0.56,0.11l2.37-1.94l-0.45,2.33l18.81,3.72l-16.17,1.18
						c0.14,0.94,0.16,1.81,0.08,2.63l0.12,0.02l-0.14,0.25c-0.12,0.87-0.36,1.67-0.74,2.38c-1.1,2.09-2.87,2.71-3.21,2.81l-0.3,0.09
						l-0.39,0.01c-3.24,0-4.83-3.01-4.95-5.79C3770.82-714.57,3774.66-715.49,3775.1-715.57"/>
				</g>
				<g id="g4507_7_" transform="translate(189.2061,72.1934)">
					<path id="path4509_7_" class="st11" d="M3763.94-707.09c-0.07-0.04-0.28-0.13-0.77-0.15c-0.27,0.21-1.16,1.1-2.06,4.07
						c-0.16,0.65-0.45,2.52-0.12,3.94c0.06,0.06,0.13,0.14,0.21,0.19c0.31-0.6,0.77-1.8,1.14-4c0.06-0.58,0.34-1.93,1.61-3.66
						C3763.97-706.86,3763.97-707.01,3763.94-707.09 M3748.17-693.29c0.19,0.15,0.64,0.44,1.61,0.73c0.29,0.08,1.18,0.33,2.07,0.65
						c-0.06-0.21-0.16-0.48-0.34-0.84c-0.46-0.46-1.37-1.15-2.14-1.15C3749.23-693.9,3748.8-693.9,3748.17-693.29 M3747.76-677.87
						c-0.09,1.46,0.2,2.56,0.86,3.29c1.02,1.13,2.77,1.24,3.09,1.26c0.83-0.09,1.45-0.31,1.83-0.67c-2.1-0.21-3.29-1.21-3.94-2.06
						c-0.66-0.88-0.96-1.87-1.07-2.81C3748.15-678.54,3747.89-678.13,3747.76-677.87 M3736.65-671.34
						c-1.56,0.13-2.27,2.13-2.46,2.78c0.15,3.83,3.47,4.63,4.47,4.78c0.6-0.07,1.04-0.39,1.35-0.8c-1.73-0.44-2.63-1.41-3.1-2.24
						C3736.09-668.3,3736.24-669.97,3736.65-671.34 M3710.43-695.22c-0.65-0.22-8.47-2.8-17.93-2.8c-8.79,0-16.19,2.16-22,6.43
						l-0.12,0.08c-0.14,0.09-11.53,7.53-17.31,21.08c6.05-4.78,16.56-10.1,33.37-10.1c2.8,0,5.73,0.15,8.71,0.46
						c0.84,0.04,7.6,0.43,15.71,3.13c7.15,2.38,13.19,5.87,17.88,10.28v-0.29c0-0.46,0.06-4.1,1.8-6.74
						C3729.45-677.23,3724.77-689.38,3710.43-695.22 M3744.43-729.25c-7.95,0-13.64-1.12-16.92-3.33l-0.12-0.08l-0.11-0.09
						c-0.72-0.63-3.98-4.26-4.25-18.38c-1.52,1.66-2.72,3.13-2.97,3.79c-0.06,0.49-1.57,14.12,3.24,26.97
						c0.33,0.57,2.15,3.43,4.83,3.43c0.85,0,1.76-0.28,2.72-0.84c1.21-1.09,8-7.1,15.63-11.5
						C3745.82-729.26,3745.13-729.25,3744.43-729.25 M3749.82-759.74l-0.4-0.08l-0.34-0.22c-0.68-0.43-2.07-0.81-3.43-1.07
						c-1.33,9.48-6.62,17.65-9.43,21.43c1.73,0.56,4.79,1.11,10.1,1.11c2.13,0,3.81-0.1,4.33-0.13c1.34-0.33,2.44-1.34,3.33-2.75
						l3.46-13.11c0.1-1.09,0.15-2.08,0.18-2.93C3756.15-758.13,3752.93-759.08,3749.82-759.74 M3731.77-754.89
						c0.29,2.67,0.8,6.69,1.39,9.95c2.24-3.19,5.22-8.24,6.6-14C3737.3-757.58,3734.18-755.93,3731.77-754.89 M3720.67-710.57
						c0.24,0.35,1.8,2.42,4.76,2.67c0.4-0.64,0.96-1.86,1.07-3.91c-1.68-0.34-3.99-1.21-6.07-3.37
						C3720.01-713.88,3719.86-712.24,3720.67-710.57 M3670.37-750.61l-0.28-0.13c0.1,8.33-1.26,15.25-1.33,15.58l-0.1,0.48
						l-0.29,0.4c-0.67,0.93-1.2,1.67-13.76,3.06c-2.17,0.24-4.33,0.46-6.18,0.64c5.14,4.9,8.39,9.69,8.56,9.94l0.05,0.08
						c2.91,4.76,5.31,5.13,5.98,5.13c0.08,0,0.14,0,0.18-0.01l0.14-0.08l0.44-0.02c4.99-0.26,5.39-4.3,5.42-5.09l0.01-0.29
						l0.08-0.28C3671.03-727.51,3670.55-745.52,3670.37-750.61 M3660.85-753.32l-6.46-2.69c1.24,3.72,3.27,8.43,6.03,11.51
						C3660.74-746.42,3661-749.3,3660.85-753.32 M3635.92-751.73l0.02,0.12c0.01,0.07,0.99,7.04,5.93,11.51
						c4.21-0.19,10.15-0.6,14.22-1.18c-2.34-2.79-5.34-7.75-7.78-16.3c-1.62,0.3-5.1,1.15-12.36,3.48
						C3635.83-753.89,3635.65-753.19,3635.92-751.73 M3663.41-737.75c0.14-0.02,0.28-0.04,0.41-0.06c0.04-0.13,0.07-0.25,0.11-0.38
						c-0.11,0.12-0.22,0.22-0.32,0.29L3663.41-737.75z M3672.15-713.81c-1.73,1.94-4,3.03-6.2,3.49c0.64,1.88,1.91,2.92,2.65,3.39
						c1.86-0.55,2.66-1.57,2.77-1.73l0.03-0.05C3672.5-710.33,3672.51-712.19,3672.15-713.81 M3643.56-704.53
						c-0.07-0.08-0.22-0.24-0.54-0.46c-0.22-0.08-0.84-0.29-1.63-0.29c-1.69,0-3.19,0.92-4.47,2.73v0.48
						c0.3,0.49,0.97,1.37,1.95,1.38c0.7-0.72,1.88-1.68,3.93-3.04C3643.1-703.94,3643.45-704.31,3643.56-704.53 M3628.21-717.02
						c-0.32-0.31-0.96-0.79-1.59-0.79c-0.19,0-0.38,0.05-0.58,0.14c0.06,0.13,0.15,0.31,0.29,0.52c0.54,0.86,2.7,4.46,3.06,7.97
						c0.01-0.06,0.03-0.14,0.04-0.22l0.01-0.13l0.06-0.18C3629.58-710.01,3630.21-712.75,3628.21-717.02 M3620.95-715.12
						c0.46,0.4,1.02,0.92,1.62,1.52c-0.24-0.46-0.52-0.95-0.83-1.46C3621.48-715.1,3621.18-715.13,3620.95-715.12 M3651.37-659.91
						c0.46-0.52,11.59-12.64,37.3-12.64c1.48,0,3,0.04,4.5,0.12c0.94,0.04,22.6,1.2,35.48,14.32c0.16-0.05,0.34-0.1,0.53-0.15
						c-3.87-5.3-15.5-16.85-43.22-16.85c-1.18,0-2.39,0.02-3.58,0.06c-0.24,0.01-23.82,1.31-31.7,15.93L3651.37-659.91z
						 M3661.83-625.2c5.55,7.67,12.84,12.47,21.73,14.29l0.6-0.92c0.14-0.21,3.38-5.07,8.65-5.07l0,0c2.72,0,5.37,1.29,7.86,3.81
						l0.39,0.39l0.16,0.53c0.09,0.3,0.36,1.23,0.44,2.38c6.93-0.93,25.3-4.98,32.24-22.1l0.08-0.19c0.06-0.11,5.44-10.83,2.81-26.51
						c-0.4-0.09-0.83-0.21-1.3-0.38l-0.01,0.88c0.03,0.05,0.05,0.09,0.08,0.14l0.24,0.44l0.03,0.5c0.01,0.12,0.05,0.73,0.08,1.7
						l0.3,0.67l-0.27,0.03c0.15,4.58,0.15,14.67-2.22,21.45c-0.33,1.47-1.73,3.41-4.57,3.41c-1.38,0-2.95-0.45-4.76-1.37
						c-0.23-0.12-23.73-11.52-45.79-11.52c-9.18,0-16.82,1.97-22.74,5.87C3656.62-634.5,3658.42-629.91,3661.83-625.2
						 M3693.18-592.65c0.82,0.42,1.55,0.64,2.14,0.64c0.79,0,1.23-0.45,1.44-0.78c0.08-1.67-0.22-2.9-0.92-3.66
						c-0.82-0.9-2.08-1-2.46-1.01c-0.43,0.11-0.97,0.52-1.28,0.84C3691.12-594.6,3692.56-593.15,3693.18-592.65 M3665.43-646.61
						l-0.15-0.03c-0.32-0.08-1.94-0.59-2.96-2.47c-0.87-1.6-1.01-3.64-0.44-6.09c-0.03-0.05-0.06-0.1-0.08-0.15
						c-0.44-0.85-0.39-1.83,0.14-2.71l0.55-0.92l1.07-0.15c0.07-0.01,0.45-0.06,0.98-0.06c0.03,0,0.07,0,0.1,0l1.9-2.8
						c-0.38-0.27-0.78-0.54-1.19-0.84c-1.96,0.89-6.02,2.9-8.61,5.34c-0.48,1.74-1.91,7.82-0.04,13.7c1.87-0.82,4.82-1.91,8.82-2.78
						C3665.48-646.6,3665.45-646.61,3665.43-646.61 M3723.24-637.71c0.92-4.02,2.46-11.75,1.96-16.66
						c-1.88-2.05-11.37-11.1-33.82-12.95c-2.3,2.32-8.8,8.64-13.16,10.29c-0.33,0.16-0.74,0.27-1.27,0.27
						c-1.17,0-3.38-0.52-9.26-4.47l-0.28,2.61c1.48,0.71,2.44,1.99,2.65,3.71c0.09,0.51,0.23,1.43,0.25,2.47l0.35,0.04l-0.36,0.7
						c-0.05,1.36-0.34,2.82-1.19,3.84c-0.24,0.29-0.51,0.53-0.81,0.73c3.29-0.56,7.15-0.94,11.55-0.94
						C3693.36-648.08,3707.94-644.59,3723.24-637.71 M3728.93-635.98c0.51-1.67,0.94-4.26,1.26-7.27
						C3729.79-640.46,3729.3-637.85,3728.93-635.98 M3676.53-662.24c1.55-0.7,3.95-2.52,6.26-4.49c-5.05,0.42-8.71,1.16-11.16,1.79
						C3674.22-663.21,3675.8-662.51,3676.53-662.24 M3734.93-659.02l0.22-0.06c-0.11-0.04-0.22-0.08-0.33-0.13
						C3734.86-659.15,3734.89-659.08,3734.93-659.02 M3636.67-695.93c-0.3-0.08-0.58-0.18-0.85-0.29c0.13,0.26,0.24,0.51,0.35,0.75
						C3636.36-695.62,3636.52-695.78,3636.67-695.93 M3632.2-704.46c-0.01-0.01-0.02-0.02-0.03-0.03c-0.67,0.46-1.46,0.77-2.35,0.89
						c0.77,0.63,1.47,1.28,2.09,1.91C3631.85-702.77,3632.02-703.75,3632.2-704.46 M3765.64-695.03c-0.81,0.56-1.85,1.78-2.47,2.86
						l-0.02,0.04c-1.35,2.29-1.61,4.02-1.58,5.07c0.79-0.56,1.94-2.06,2.64-3.55l0.05-0.1
						C3765.41-692.89,3765.67-694.28,3765.64-695.03 M3757.18-691.59c0.33-0.91,0.79-1.88,1.39-2.89c-0.65-0.29-1.25-0.69-1.79-1.17
						c-0.15,0.23-0.29,0.48-0.42,0.73C3756.88-693.98,3757.22-692.83,3757.18-691.59 M3756.2-688.39c0.06,0.05,0.12,0.1,0.18,0.15
						c0.02-0.21,0.05-0.41,0.08-0.63C3756.39-688.71,3756.3-688.55,3756.2-688.39 M3770.17-694.84c-0.01,1.78-0.64,3.85-1.87,6.19
						c-0.44,0.92-2.16,4.27-4.81,5.68l-0.84,1.07l-0.48,0.61l-1.17,1.49l-0.41,0.68l-0.13,0.01l-1.31,1.67l-0.18,0.31
						c-0.04,0.06-0.15,0.24-0.34,0.48c0.1,0.77,0.26,3.16-1.28,5.19c-0.8,1.05-2.34,2.34-5.19,2.63l-1.74,0.72
						c-0.27,0.15-0.63,0.32-1.08,0.45l-4.08,1.68c-0.27,1.98-1.38,4.93-4.07,6.16c2.97,16.78-2.47,28.45-3.11,29.73
						c-4.03,9.87-12.05,17.35-23.19,21.62c-8.34,3.2-15.45,3.48-15.75,3.49l-0.92,0.03l-0.43,0.26v4.01
						c0.49,0.31,0.97,0.7,1.41,1.18c1.65,1.79,2.35,4.33,2.07,7.53l-0.03,0.32l-0.11,0.3c-0.56,1.44-2.4,3.87-5.79,3.87
						c-1.39,0-2.88-0.42-4.44-1.26l-0.13-0.07l-0.12-0.09c-1.98-1.43-5.02-5.36-2.4-10.1l0.1-0.17l0.13-0.15
						c0.09-0.11,0.53-0.64,1.24-1.19c-0.06-0.2-0.12-0.42-0.19-0.62l-0.53-1.59l0.02-0.02c-0.28-0.83-0.4-1.4-0.38-1.88
						c-0.55-0.3-1.04-0.71-1.47-1.16l-0.49-0.05c-11.75-1.31-21.65-7.14-28.62-16.85c-5.23-7.29-6.96-14.14-7.03-14.43l-0.36-1.47
						l1.21-0.9c0.42-0.31,0.84-0.61,1.27-0.9c-1.87-4.33-2.11-8.81-1.83-12.34c-1.46-0.59-2.94-1.75-3.83-2.53l-0.35-0.31
						l-0.83-1.82l-0.36-4.93c0.68-3.83,1.81-7.34,3.21-10.52c-1.44-1.95-1.15-4.86-0.85-6.39l-1.59-1.37l-0.2,0.02l-1.89-1.59
						c-0.54-0.03-1.11-0.11-1.7-0.25l-0.07-0.02c-1.47-0.38-4.12-2.09-4.71-6.13l-0.01-0.04l-0.57-0.23
						c-0.12-0.05-0.47-0.2-0.91-0.43l-2.38-0.03l-0.64-0.25l-0.66-0.1c-0.79-0.28-2.13-0.87-3.63-2.02l-0.45-0.42l-0.86-0.7
						c-2.15-2.04-4.4-5.29-5.75-10.36l-0.26-1.42l-0.3-0.74l-0.04-0.16c-0.66-0.79-1.87-1.96-3.87-3.04l-0.28-0.15l-0.23-0.22
						c-0.63-0.62-2.09-2.25-1.98-4.11c0.05-0.72,0.32-1.39,0.79-1.91c-0.03-1.29,0.32-2.37,1.05-3.22c0.61-0.71,1.78-1.56,3.86-1.56
						c0.23,0,0.45,0.01,0.67,0.03c0.33-0.73,0.81-1.17,1.12-1.38c1.18-0.89,2.46-1.35,3.8-1.35c3.02,0,5.02,2.33,5.24,2.59l0.17,0.2
						l0.12,0.24c2.47,5.06,2.13,8.81,1.84,10.28c0.44,0.36,0.98,0.84,1.47,1.4c2.1-1.74,4.26-2.18,5.93-2.18
						c2.06,0,3.54,0.7,3.7,0.78l0.19,0.11c2.31,1.44,2.82,3.11,2.84,4.28c0.05,2.63-2.3,4.35-2.78,4.67
						c-1.21,0.81-1.99,1.4-2.49,1.79l0.61,0.8l0.62,0.62l0.01,0.21l0.87,1.15c0.15-0.01,0.3-0.02,0.47-0.02
						c2.73,0,5.74,1.72,6.03,6.54l0.91,1.14l0.69,0.47l0.54,1.05c0.39-0.08,0.81-0.12,1.25-0.12c1.05,0,2.06,0.23,2.66,0.41
						c3.01-3.48,5.93-6.01,7.92-7.56l-0.82-1.93h-0.01l-0.5-1.1c-0.54-1.2-0.9-2.09-1.13-2.77l-0.05-0.12h0.01
						c-0.18-0.53-0.28-0.92-0.33-1.22l-0.11-0.04l-0.87-2.18c-1.13-0.5-2.11-1.2-2.94-2.11c-3.2-3.53-2.7-8.85-2.68-9.06l0.04-0.36
						c-0.93-0.97-1.89-2.19-2.84-3.74c-0.37-0.54-5.02-7.24-11.67-12.42l-0.59-0.46l-0.18-0.12c-0.1-0.07-0.25-0.18-0.42-0.35
						l-1.18-1.54l-0.18-1.27c-0.13-0.68-0.2-1.48-0.15-2.44c-5.94-5.37-7.24-13.3-7.38-14.19c-1.06-5.7,2.16-7.15,2.98-7.43l0,0
						c6.55-2.11,11.15-3.37,13.71-3.77l1.06-0.09l15.16,5.46l0.86-0.13l0.61-0.16l1.29-0.13l1.96,0.93l5.72,2.72l0.06,1.36
						c0.04,0.95,0.96,22.63-0.98,31.31l0.38,0.56c0.2,0.29,4.41,6.54,1.8,12.49l1.15,4.38l-0.08,0.09l0.93,2.9
						c4.37-1.41,9.2-2.12,14.45-2.12c10.65,0,19.13,2.95,19.48,3.07l0.1,0.04c0.37,0.15,0.74,0.31,1.1,0.47
						c0.08-0.26,0.16-0.48,0.23-0.64l0.06-0.39c0.11-0.7,0.78-3.25,1.06-4.31l0.32-1.2c0.14-1.35,0.61-2.86,1.06-4.09l0.13-0.36
						c-1.79-5.44,1.74-10.14,2.31-10.85c-4.32-13.12-2.93-25.96-2.79-27.06c0.09-1.11,0.74-2.7,4.42-6.64
						c1.9-2.03,3.75-3.77,3.83-3.84l0.19-0.17l0.8-0.76l1.37-0.19l1.55,0.21c0.88,0.1,1.49,0.28,1.81,0.39
						c3.39-1.39,9.52-4.84,11.94-6.25l1.55-0.92l0.97,0.13l1.21,0.12c1.61,0.24,4.18,0.74,5.94,1.69c3.35,0.73,8.81,2.13,10.43,3.82
						l0.62,0.65v0.9c0.01,1.7-0.12,13.24-4.54,19.92v4v0.06l-0.6,1.9l-1.28,2.43c-1.58,1.48-4.25,3.49-4.37,3.57l-0.16,0.12
						l-0.18,0.09c-6.34,3.25-12.65,8.33-15.59,10.83c0.16,0.89,0.91,6.01-1.82,9.47c-0.73,0.93-1.64,1.64-2.71,2.13l-0.08,0.21
						l0.39-0.08l-2.5,4.37c-0.39,0.68-1.31,2.77-1.79,3.93l-0.01,0.01l-0.07,0.32c-0.34,1.65-1.22,3.5-1.74,4.49
						c5.94,5.86,8.58,12.29,9.58,15.39c0.63-0.22,1.33-0.35,2.1-0.35l0,0c1.08,0,2.22,0.26,3.4,0.76c0.36-0.35,0.79-0.71,1.24-1.02
						c0.24-0.56,0.69-1.34,1.5-2.03l0.3-0.26c0.01-0.08,0.01-0.17,0.02-0.25l0.03-0.31l0.11-0.29c0.67-1.74,2.79-4.68,6.45-4.68l0,0
						c0.15,0,0.3,0.01,0.45,0.02l0.9-2.33l0.28,0.4l0.27-0.79c-0.1-0.16-0.19-0.32-0.26-0.46l-0.43-0.23
						c-0.49-0.26-1.77-0.67-2.52-0.87l-0.05-0.02c-2.68-0.8-4.29-2.1-4.8-3.88c-0.48-1.7,0.25-3.31,1.03-4.18l0.05-0.06
						c1.66-1.74,3.41-2.1,4.58-2.1c1.24,0,2.35,0.4,3.25,0.89c1.29-2.25,2.97-3.73,3.72-4.32c0.1-1.3,0.33-2.27,0.37-2.46l0.03-0.1
						c1.84-6.09,4.43-7.37,6.27-7.37c0.18,0,0.33,0.01,0.47,0.03c1.25,0.07,2.17,0.4,2.86,0.83c0.62-0.31,1.29-0.48,1.96-0.48
						c0.36,0,0.66,0.05,0.86,0.1c2.09,0.39,3.15,1.49,3.68,2.34c0.52,0.85,0.69,1.73,0.71,2.46l0.12,0.15
						c1.71,2.23,0.68,5.01-1.24,6.63c-1.22,1.18-1.85,1.9-2.16,2.3"/>
				</g>
				<g id="g4511_7_" transform="translate(105.9185,198.9136)">
					<path id="path4513_7_" class="st12" d="M3776.46-726.43c0,0,6.51-0.38,5.83,7.55c0,0-1.66,4.3-7.04,1.44
						c0,0-4.09-2.94-1.74-7.17C3773.5-724.62,3774.79-726.21,3776.46-726.43"/>
				</g>
				<g id="g4515_7_" transform="translate(104.6118,198.231)">
					<path id="path4517_7_" class="st13" d="M3776.65-726.33c0,0,1.77-0.45,3.33,0.3c0,0,0.25-1.86,0-2.21c0,0-1.61-1.16-3.73,0.35
						C3776.25-727.89,3776.6-726.83,3776.65-726.33"/>
				</g>
				<g id="g4519_7_" transform="translate(103.8994,195.4751)">
					<path id="path4521_7_" class="st13" d="M3776.76-725.91c0,0,2.49-1.24,4.05-0.18v-2.71c0,0-3.6-1.54-4.6,0.96
						C3776.1-727.6,3776.76-725.91,3776.76-725.91"/>
				</g>
				<g id="g4523_7_" transform="translate(103.2339,192.1758)">
					<path id="path4525_7_" class="st13" d="M3776.86-725.41c0,0,2-1.79,4.61-0.57v-1.84c0,0-1.63-3.27-5.01,0.86L3776.86-725.41z"
						/>
				</g>
				<g id="g4527_7_" transform="translate(102.1777,190.9287)">
					<path id="path4529_7_" class="st13" d="M3777.02-725.22c0,0-1.1-3.17,3.59-3.32c0,0,2.87-0.25,2.77,3.32l1.77-1.06
						c0,0,0.4-2.61,0-3.67c0,0-5.1-5.58-11.2,0.35C3773.94-729.59,3775.03-725.95,3777.02-725.22"/>
				</g>
				<g id="g4531_7_" transform="translate(112.834,190.0254)">
					<path id="path4533_7_" class="st12" d="M3775.42-725.08c0,0,27.72-1,36.95-23.78c0,0,6.21-12.08,2.72-29.58
						c0,0-5.7,0.2-7.72-6.34c0,0,0-4.23,2.02-6.23c0,0-3.63-16.8-21.79-24.15c0,0-24.82-8.76-42.07,3.93
						c0,0-17.35,11.07-20.99,31.49c0,0,11.25-19.52,46.81-15.9c0,0,27.54,1.06,38.59,20.98c0,0,0.98,14.64-2.04,23.1
						c0,0-0.45,3.47-6.13,0.61c0,0-47.07-23.1-72.19-4.53c0,0,6.56,26.57,33.7,29.58l-0.86-2.49c0,0,5.55-8.45,12.99-0.91
						C3775.42-729.32,3776.22-726.73,3775.42-725.08"/>
				</g>
				<g id="g4535_7_" transform="translate(61.5723,150.5605)">
					<path id="path4537_7_" class="st3" d="M3783.12-719.06c0,0,24.52-14.94,69.31,6.18c0,0,3.63-13.58,2.57-20.82
						c0,0-9.28-12.38-36.88-14.34c0,0-8.52,8.91-13.22,10.56c0,0-1.21,1.21-11.65-6.34c0,0-7.11,2.87-10.9,6.72
						C3782.36-737.09,3779.11-727.51,3783.12-719.06"/>
				</g>
				<g id="g4539_7_" transform="translate(71.4565,131.4155)">
					<path id="path4541_7_" class="st11" d="M3781.63-716.13c0,0,3.63-0.53,3.93,2.34c0,0,1.21,6.34-1.97,5.73
						c0,0-3.48-0.91-1.36-7.24C3782.24-715.31,3781.18-715.38,3781.63-716.13"/>
				</g>
				<g id="g4543_7_" transform="translate(72.5254,133.1968)">
					<path id="path4545_7_" class="st3" d="M3781.47-716.41c0,0-0.53,4.61,2.35,4.91c0,0-1.51,2.94-2.88-1.06
						C3780.94-712.56,3780.52-714.99,3781.47-716.41"/>
				</g>
				<g id="g4547_7_" transform="translate(120.6104,131.3701)">
					<path id="path4549_7_" class="st11" d="M3774.25-716.12l-4.39-0.87c0,0-2.35,0.44-2.12,5.38c0,0,0.15,3.67,2.72,3.63
						c0,0,3.97-1.18,1.7-8L3774.25-716.12z"/>
				</g>
				<g id="g4551_7_" transform="translate(114.9111,132.2168)">
					<path id="path4553_7_" class="st3" d="M3775.1-716.26c0,0-1.02,5.14,2.27,5.77c0,0-1.93,3.39-3.29-1.02
						C3774.08-711.5,3773.46-714.91,3775.1-716.26"/>
				</g>
				<g id="g4555_7_" transform="translate(74.8403,121.0859)">
					<path id="path4557_7_" class="st12" d="M3781.12-714.56c0,0,6.48-3.29,22.22-3.65c0,0-8.42,8.3-12.36,9.45
						C3790.99-708.75,3788.11-709.15,3781.12-714.56"/>
				</g>
				<g id="g4559_7_" transform="translate(58.7227,134.1167)">
					<path id="path4561_7_" class="st14" d="M3783.55-716.55c0,0,0.45-2.66,1.11-3.77h-1.11c0,0,11.85-13.28,40-11.77
						c0,0,22.8,1.06,35.01,14.77c0,0,1.06-0.83,4.79-1.19c0,0-9.84-22.14-50.6-20.72c0,0-26.03,1.21-34.1,18.11l0.81,2.25
						C3779.46-718.87,3782.29-716.39,3783.55-716.55"/>
				</g>
				<g id="g4563_7_" transform="translate(144.7422,158.6641)">
					<path id="path4565_7_" class="st14" d="M3770.62-720.29c0,0,3.4-15.25,2.35-21.2l4.69-1.21c0,0-0.15,19.32-3.18,23.24
						C3774.48-719.46,3771.99-719.61,3770.62-720.29"/>
				</g>
				<g id="g4567_7_" transform="translate(160.7725,112.6265)">
					<path id="path4569_7_" class="st12" d="M3768.21-713.27c0,0-4.24,6.79,3.25,6.18c0,0-0.34,4.98-4.45,5.14
						c0,0-6.68-0.68-6.68-7.32C3760.34-709.27,3761.86-716.36,3768.21-713.27"/>
				</g>
				<g id="g4571_7_" transform="translate(161.3945,113.9619)">
					<path id="path4573_7_" class="st13" d="M3768.12-713.47c0,0,0.15,2.71,2.72,3.62c0,0-1.51,1.66-3.56-0.27
						C3767.29-710.11,3766.42-711.81,3768.12-713.47"/>
				</g>
				<g id="g4575_7_" transform="translate(164.5996,110.7119)">
					<path id="path4577_7_" class="st13" d="M3767.64-712.98c0,0-0.64,3.21,4.01,5.29l-2.57,1.06c0,0-4.05-1.02-3.52-4.49
						C3765.56-711.13,3766.69-712.49,3767.64-712.98"/>
				</g>
				<g id="g4579_7_" transform="translate(166.2471,108.3521)">
					<path id="path4581_7_" class="st13" d="M3767.39-712.61c0,0,0.68,4.38,5.03,6.26c0,0-0.87,0.72-2.52,0.38
						c0,0-3.46-0.91-3.54-5.1C3766.37-711.06,3766.56-711.9,3767.39-712.61"/>
				</g>
				<g id="g4583_7_" transform="translate(173.9492,102.3418)">
					<path id="path4585_7_" class="st12" d="M3766.23-711.7c0,0-1.93,6.64,5.37,5.1c0,0,0.91,4.91-4.54,5.39c0,0-7.04,0.15-6.28-7.4
						C3760.79-708.6,3762.34-712.6,3766.23-711.7"/>
				</g>
				<g id="g4587_7_" transform="translate(174.9297,102.3857)">
					<path id="path4589_7_" class="st13" d="M3766.09-711.71c0,0,2.12,2.98,5.18,3.24c0,0-1.51,2.57-4.5,0.89
						C3766.77-707.57,3764.95-708.76,3766.09-711.71"/>
				</g>
				<g id="g4591_7_" transform="translate(176.5332,99.8926)">
					<path id="path4593_7_" class="st13" d="M3765.85-711.32c0,0,1.55,2.94,5.75,2.79l-1.51,1.92c0,0-3.59,0.45-5.26-3.05
						C3764.82-709.66,3765.28-710.53,3765.85-711.32"/>
				</g>
				<g id="g4595_7_" transform="translate(177.4678,96.999)">
					<path id="path4597_7_" class="st13" d="M3765.71-710.88c0,0,3.9,2.9,6.7,2.45l-1.44,2.36c0,0-4.35,0.43-5.83-3.16
						L3765.71-710.88z"/>
				</g>
				<g id="g4599_7_" transform="translate(192.4717,83.4189)">
					<path id="path4601_7_" class="st12" d="M3763.45-708.81c0,0,2.95,1.51-0.45,7.93c0,0-3.18,6.79-6.58,4.68
						c0,0-1.51-3.17,1.51-8.3C3757.93-704.51,3760.58-709.19,3763.45-708.81"/>
				</g>
				<g id="g4603_7_" transform="translate(176.7998,94.1934)">
					<path id="path4605_7_" class="st12" d="M3765.81-710.46c0,0,0.68,2.47,5.52,3.88c0,0-2.04-5.01,3.71-11.65
						c0,0-2.65,0.71-4.62-1.38v-2.67c0,0-2.95,2.01-4.24,5.63C3766.18-716.64,3768.98-713.78,3765.81-710.46"/>
				</g>
				<g id="g4607_7_" transform="translate(188.376,84.3096)">
					<path id="path4609_7_" class="st13" d="M3764.07-708.94l2.07-1.21l-1.03-0.66L3764.07-708.94z"/>
				</g>
				<g id="g4611_7_" transform="translate(175.3301,93.1553)">
					<path id="path4613_7_" class="st13" d="M3766.03-710.29c0,0,3.62-0.25,1.25-4.73c0,0-3.58-4.23-6.96-0.71
						c0,0-2.52,2.82,2.72,4.38C3763.04-711.35,3765.08-710.8,3766.03-710.29"/>
				</g>
				<g id="g4615_7_" transform="translate(183.2998,82.6475)">
					<path id="path4617_7_" class="st13" d="M3764.83-708.69c0,0,1.28,2.18,3.46,1.41c0,0,1.41-0.96,2.22-5.93
						c0,0,0.05-1.21,1.46-2.97c0,0,1.21-3.62-2.82-3.77c0,0-2.37-0.71-4.31,5.73C3764.83-714.22,3764.05-711.11,3764.83-708.69"/>
				</g>
				<g id="g4619_7_" transform="translate(192.4717,70.5957)">
					<path id="path4621_7_" class="st13" d="M3763.45-706.85c0,0,0.91,2.31-1.11,4.73c0,0-1.48,2.23-1.11,4.38
						c0,0,0.96,1.86,1.97,0.4c0,0,1.01-3.12,4.69-6.49c0,0,0.96-3.07-2.47-3.67C3765.42-707.51,3764.46-707.81,3763.45-706.85"/>
				</g>
				<g id="g4623_7_" transform="translate(192.2939,82.8242)">
					<path id="path4625_7_" class="st13" d="M3763.48-708.72l1.29,0.33c0,0-0.13-0.58,3.05-3.65c0,0,2.27-1.86,0.96-3.57
						c0,0-1.86,1.91-2.44,2.41c0,0-1.79,2.16-2.2,3.87L3763.48-708.72z"/>
				</g>
				<g id="g4627_7_" transform="translate(56.2886,111.083)">
					<path id="path4629_7_" class="st12" d="M3783.91-713.04c0,0,4.19-7.19,6.31-9.5c0,0-2.72-1.01-4.14,0c0,0,2.67,4.13-2.47,4.13
						C3783.61-718.41,3782.6-714.74,3783.91-713.04"/>
				</g>
				<g id="g4631_7_" transform="translate(54.938,102.7871)">
					<path id="path4633_7_" class="st13" d="M3784.11-711.77c0,0,1.78-0.34,2.72-2.11c0,0,1.13,2.23,0,2.98
						C3786.84-710.9,3785.63-709.99,3784.11-711.77"/>
				</g>
				<g id="g4635_7_" transform="translate(52.6675,101.1836)">
					<path id="path4637_7_" class="st13" d="M3784.46-711.52c0,0,2.61-0.49,3.25-2.79l1.21,1.63c0,0-0.42,1.59-3.1,2.34
						L3784.46-711.52z"/>
				</g>
				<g id="g4639_7_" transform="translate(50.7529,99.8037)">
					<path id="path4641_7_" class="st13" d="M3784.74-711.31c0,0,3.29-1.36,3.56-3.58l1.06,1.32c0,0,0,2.71-3.67,3.06
						L3784.74-711.31z"/>
				</g>
				<g id="g4643_7_" transform="translate(43.8076,93.7041)">
					<path id="path4645_7_" class="st12" d="M3785.79-710.38c0,0,2.16,3.2,4.69-0.19c0,0,1.55-1.17-0.61-4c0,0,4.42-1.19,4.73,4.34
						c0,0,0.08,5.43-5.79,4.11C3788.81-706.12,3786.32-706.76,3785.79-710.38"/>
				</g>
				<g id="g4647_7_" transform="translate(45.0542,93.5264)">
					<path id="path4649_7_" class="st13" d="M3785.6-710.35c0,0,1.89-0.95,2.61-3.32c0,0,1.44,1.17,0.19,3.32
						C3788.4-710.35,3787.42-708.81,3785.6-710.35"/>
				</g>
				<g id="g4651_7_" transform="translate(42.5605,91.7012)">
					<path id="path4653_7_" class="st13" d="M3785.97-710.07c0,0,2.88-0.91,3.03-4.53l1.48,1.93c0,0-0.38,3.01-3.06,3.65
						L3785.97-710.07z"/>
				</g>
				<g id="g4655_7_" transform="translate(39.1768,89.9199)">
					<path id="path4657_7_" class="st13" d="M3786.48-709.81c0,0,3.44-1.55,4.46-4.64l0.95,0.95c0,0,0.23,4.15-3.44,4.87
						C3788.45-708.63,3787.24-709.13,3786.48-709.81"/>
				</g>
				<g id="g4659_7_" transform="translate(25.0034,75.8789)">
					<path id="path4661_7_" class="st12" d="M3788.61-707.66c0,0,9.23,5.24,9.79,12.38C3798.4-695.29,3791.36-696.84,3788.61-707.66
						"/>
				</g>
				<g id="g4663_7_" transform="translate(37.0547,76.7705)">
					<path id="path4665_7_" class="st13" d="M3786.8-707.8v1.72c0,0,1.66,3.92,5.45,2.91c0,0,0.2-0.76,3.99-3.27
						c0,0,3.99-2.66,0-5.14C3796.24-711.56,3790.84-714.24,3786.8-707.8"/>
				</g>
				<g id="g4667_7_" transform="translate(28.0313,72.4961)">
					<path id="path4669_7_" class="st13" d="M3788.16-707.14c0,0,4.09,1.61,4.69-2.21c0,0,1.16-3.67-1.56-9.25
						c0,0-2.72-3.32-5.95-0.86c0,0-1.31,0.76,0.25,3.22C3785.58-716.25,3789.22-710.52,3788.16-707.14"/>
				</g>
				<g id="g4671_7_" transform="translate(25.7158,73.4453)">
					<path id="path4673_7_" class="st13" d="M3788.51-707.29l1.36-0.86c0,0,1.06-3.72-3.23-10.16c0,0-5.4-1.76-4.69,2.82
						C3781.95-715.48,3787.19-711.47,3788.51-707.29"/>
				</g>
				<g id="g4675_7_" transform="translate(17.4644,64.6006)">
					<path id="path4677_7_" class="st13" d="M3789.75-705.94c0,0,5.65,4.06,6.41,8.05c0,0-1.31-2.71-5.5-4.98
						C3790.65-702.87,3788.48-704.98,3789.75-705.94"/>
				</g>
				<g id="g4679_7_" transform="translate(27.4551,73.208)">
					<path id="path4681_7_" class="st12" d="M3788.24-707.25c0,0,4.26,1.66,5.43-1.51c0,0,2.33,1.61,2.73,3.07
						c0,0-2.83,6.84,5.2,6.89c0,0,0.45,3.22-4.94,5.73c0,0-1.11-7.29-10.49-12.48L3788.24-707.25z"/>
				</g>
				<g id="g4683_7_" transform="translate(76.1167,88.0498)">
					<path id="path4685_7_" class="st13" d="M3780.93-709.51c0,0,4.54-3.07,8.58-4.78l-0.6-1.41c0,0-3.38,3.77-9.28,3.09
						L3780.93-709.51z"/>
				</g>
				<g id="g4687_7_" transform="translate(72.5547,79.0254)">
					<path id="path4689_7_" class="st13" d="M3781.47-708.14c0,0,3.28,2.97,9.94-1.96l0.91,2.84c0,0-3.28,4-9.48,2.94
						C3782.83-704.31,3781.42-707.43,3781.47-708.14"/>
				</g>
				<g id="g4691_7_" transform="translate(83.2998,72.4355)">
					<path id="path4693_7_" class="st13" d="M3779.85-707.13c0,0-2.52,3.93-10.04,3.62l0.3,0.76l0.6,0.2l1.16,1.21
						c0,0,5.4,0.91,8.73-2.89L3779.85-707.13z"/>
				</g>
				<g id="g4695_7_" transform="translate(75.5234,75.4639)">
					<path id="path4697_7_" class="st12" d="M3781.02-707.59c0,0-4.59-2.56-4.49-8c0,0-2.52,0.35-4.59-1.51
						C3771.94-717.11,3770.88-706.69,3781.02-707.59"/>
				</g>
				<g id="g4699_7_" transform="translate(70.7739,66.0254)">
					<path id="path4701_7_" class="st12" d="M3781.74-706.16c0,0,7.21,0.35,9.08-6.69c0,0,4.39,6.39,0.91,11.57
						c0,0-1.36,2.21-4.99,2.91C3786.73-698.36,3781.99-700.27,3781.74-706.16"/>
				</g>
				<g id="g4703_7_" transform="translate(46.7905,42.3672)">
					<path id="path4705_7_" class="st12" d="M3785.34-702.54c0,0,22.62-1.88,23.61-3.24c0,0,1.82-9.05,1.13-18.79l4.92,2.34
						c0,0,1.04,23.69-1.11,31.46c0,0-0.13,6.92-7.57,7.31c0,0-4.19,1.45-8.8-6.1C3797.52-689.57,3792.6-696.89,3785.34-702.54"/>
				</g>
				<g id="g4707_7_" transform="translate(45.7217,41.5664)">
					<path id="path4709_7_" class="st14" d="M3785.5-702.42c0,0-1.13-0.76-0.91-3.93c0,0,15.44-0.53,21.11-2.71
						c0,0,2.27-1.74,1.66-14.72l3.03-0.45c0,0,1.13,13.35-1.44,19.09C3808.96-705.14,3792.39-702.57,3785.5-702.42"/>
				</g>
				<g id="g4711_7_" transform="translate(68.874,32.8408)">
					<path id="path4713_7_" class="st15" d="M3782.02-701.09c0,0,1.97-3.93,1.36-14.41l-12.11-5.06
						C3771.28-720.56,3774.45-705.85,3782.02-701.09"/>
				</g>
				<g id="g4715_7_" transform="translate(67.8945,33.375)">
					<path id="path4717_7_" class="st13" d="M3782.17-701.17c0,0-6.51-3.32-10.82-19.92c0,0-0.15-1.06-14.91,3.7
						c0,0-2.27,0.53-1.44,4.91c0,0,1.13,8.47,7.39,13.5C3762.39-698.99,3778.08-699.59,3782.17-701.17"/>
				</g>
				<g id="g4719_7_" transform="translate(131.623,84.3691)">
					<path id="path4721_7_" class="st13" d="M3772.59-708.95c0,0,2.87,1.36,7.77,5.43c0,0,1.46-2.56,1.87-4.53
						c0,0-5.45,0.81-9.03-3.12C3773.2-711.17,3772.72-710.1,3772.59-708.95"/>
				</g>
				<g id="g4723_7_" transform="translate(132.4541,80.9844)">
					<path id="path4725_7_" class="st13" d="M3772.47-708.44c0,0,3.23,4.28,9.13,3.02c0,0,1.31-3.12,1.92-4.18
						c0,0-6.05,1.26-10.04-2.92C3773.48-712.51,3772.57-709.09,3772.47-708.44"/>
				</g>
				<g id="g4727_7_" transform="translate(134.1162,75.583)">
					<path id="path4729_7_" class="st13" d="M3772.22-707.61c0,0,3.93,4.53,10.09,2.51c0,0,0.91-1.62,1.51-3.07
						c0,0-7.47,1.62-10.7-4.03C3773.13-712.19,3771.88-708.82,3772.22-707.61"/>
				</g>
				<g id="g4731_7_" transform="translate(146.2861,73.9199)">
					<path id="path4733_7_" class="st12" d="M3770.39-707.36c0,0,2.27-3.07,1.72-8.25c0,0,2.22,0.1,4.04-1.56
						C3776.14-717.17,3777.91-707.77,3770.39-707.36"/>
				</g>
				<g id="g4735_7_" transform="translate(145.0986,73.9199)">
					<path id="path4737_7_" class="st12" d="M3770.57-707.36c0,0,2.72-2.16,2.27-8.25c0,0-5.35,0.45-8.58-5.53
						c0,0-4.09,4.83-1.46,9.96C3762.8-711.19,3765.27-707.11,3770.57-707.36"/>
				</g>
				<g id="g4739_7_" transform="translate(143.792,13.665)">
					<path id="path4741_7_" class="st12" d="M3770.77-698.17c0,0-7.41,6.94-7.54,9.05c0,0-1.79,14.44,3.43,28.22
						c0,0,4.01,7.7,10.97,3.47c0,0,8.78-8.05,17.81-12.67c0,0,2.67-2.01,4.19-3.42c0,0-18.56,2.21-25.42-2.41
						C3774.2-675.93,3770.16-679.45,3770.77-698.17"/>
				</g>
				<g id="g4743_7_" transform="translate(144.7422,13.25)">
					<path id="path4745_7_" class="st14" d="M3770.62-698.1c0,0-1.51,22.41,5.52,23.39c0,0,8.4,2.18,18.84,1.36
						c0,0,4.62-0.15,4.84-2.49v-3.02c0,0-0.91,3.44-11.85,2.34c0,0-11.25,0.15-12.31-4.48c0,0-1.72-7.85-2.37-16.75
						C3773.3-697.75,3772.39-698.15,3770.62-698.1"/>
				</g>
				<g id="g4747_7_" transform="translate(151.6875,33.5527)">
					<path id="path4749_7_" class="st15" d="M3769.58-701.2c0,0,9.76-10.64,10.67-23.39c0,0-9.37,5.5-13.39,6.87
						C3766.86-717.73,3768.07-705.35,3769.58-701.2"/>
				</g>
				<g id="g4751_7_" transform="translate(165.3125,5.4141)">
					<path id="path4753_7_" class="st13" d="M3767.53-696.91c0,0,4.62,0.45,6.66,1.74c0,0,8.17,1.74,9.61,3.24
						c0,0,0.07,20.37-8.93,22.26c0,0-14.15,1.06-18.23-2.49C3756.64-672.16,3766.7-683.62,3767.53-696.91"/>
				</g>
				<g id="g4755_7_" transform="translate(59.5322,107.9336)">
					<path id="path4757_7_" class="st13" d="M3783.42-712.55c21.43-13.11,64.52-8.24,77.25,9.86c0.13-3.16,0.91-5.05,2.02-6.23
						c-0.15-0.6-0.29-1.23-0.53-1.83c-6.33-16.07-49.46-25.6-71.84-10.99C3786.07-717.53,3784.49-714.48,3783.42-712.55"/>
				</g>
				<g id="g4759_7_" transform="translate(58.7358,108.3521)">
					<path id="path4761_7_" class="st16" d="M3783.54-712.61c22.16-13.46,66-8.43,78.43,9.88"/>
				</g>
				<g id="g4763_7_" transform="translate(153.1299,112.3247)">
					<path id="path4765_7_" class="st16" d="M3769.36-713.22c-0.15-0.6-0.29-1.23-0.53-1.83c-6.33-16.07-49.32-26.09-72.94-10.7"/>
				</g>
				<g id="g4767_7_" transform="translate(85.3184,87.9385)">
					<path id="path4769_7_" class="st17" d="M3779.55-709.5c2.02-0.8,9.29-1.79,13.5-1.24v12.84c-3.94-0.22-11.3,0.16-13.5,0.62
						V-709.5z"/>
				</g>
				<g id="g4771_7_" transform="translate(88.3164,92.999)">
					<path id="path4773_7_" class="st3" d="M3779.1-710.27c-0.05,0.06-0.12,0.09-0.19,0.09c-0.07,0-0.14-0.02-0.19-0.07
						s-0.08-0.12-0.08-0.19c0-0.08,0.03-0.14,0.08-0.2s0.11-0.09,0.19-0.09c0.08,0,0.14,0.02,0.2,0.07
						c0.05,0.05,0.08,0.12,0.08,0.19C3779.18-710.39,3779.15-710.32,3779.1-710.27 M3782.59-707.33l-0.41,0.02v-2.46
						c0-0.24,0.01-0.42,0.02-0.52h-0.01l-0.14,0.24l-1.74,2.82l-0.53,0.02v-3.5l0.41-0.02v2.53c0,0.25-0.01,0.41-0.02,0.48h0.01
						c0.03-0.08,0.07-0.16,0.11-0.23l1.8-2.86l0.5-0.02L3782.59-707.33L3782.59-707.33z M3785.24-710.57l-1.44,0.06v1.23l1.26-0.05
						v0.37l-1.26,0.05v1.17l1.36-0.06v0.37l-1.76,0.07v-3.5l1.85-0.08v0.38H3785.24z M3787.97-707.55l-2.42,0.1v-0.37l1.01-0.04
						v-3.13l0.41-0.02v3.13l1-0.04V-707.55z"/>
				</g>
			</g>
		</g>
	</g>
	<g>
		<g>
			<path class="st3" d="M1155.64,278.21c0.9-0.33,1.9-0.28,2.76,0.15l4.37,2.18c1.11,0.55,1.81,1.66,1.81,2.85v14.31
				c0,1.2-0.7,2.29-1.81,2.85l-4.37,2.18c-0.85,0.43-1.86,0.48-2.76,0.15l-12.41-4.58c-1.3-0.48-2.15-1.67-2.15-3v-9.51
				c0-1.33,0.85-2.52,2.15-3L1155.64,278.21z"/>
		</g>
		<path class="st18" d="M1162.27,281.53l-4.37-2.18c-0.58-0.29-1.26-0.33-1.87-0.1l-12.41,4.58c-0.88,0.32-1.42,1.12-1.42,1.95v9.51
			c0,0.84,0.54,1.63,1.42,1.95l12.41,4.58c0.61,0.23,1.29,0.19,1.87-0.1l4.37-2.18c0.75-0.37,1.19-1.1,1.19-1.85v-14.31
			C1163.46,282.62,1163.02,281.89,1162.27,281.53z M1158.4,278.35c-0.85-0.43-1.86-0.48-2.76-0.15l-12.41,4.58
			c-1.3,0.48-2.15,1.67-2.15,3v9.51c0,1.33,0.85,2.52,2.15,3l12.41,4.58c0.9,0.33,1.9,0.28,2.76-0.15l4.37-2.18
			c1.11-0.55,1.81-1.66,1.81-2.85v-14.31c0-1.2-0.7-2.29-1.81-2.85L1158.4,278.35z"/>
		<path class="st19" d="M1146.77,295.28c-0.19,0.17-0.46,0.21-0.7,0.11l-1.22-0.52c-0.25-0.11-0.41-0.36-0.41-0.64v-7.38
			c0-0.28,0.16-0.53,0.41-0.64l1.22-0.52c0.23-0.1,0.5-0.06,0.7,0.11l0.27,0.24c-0.25-0.18-0.59,0-0.59,0.31v8.37
			c0,0.31,0.34,0.49,0.59,0.31L1146.77,295.28z"/>
		<g>
			<path class="st20" d="M1144.87,294.86c-0.26-0.11-0.43-0.36-0.43-0.65v-0.06c0,0.37,0.46,0.55,0.7,0.27l10.83-11.96
				c0.31-0.31,0.79-0.4,1.19-0.2l3.46,1.67c0.36,0.17,0.59,0.54,0.59,0.95v0.04c0-0.56-0.65-0.87-1.08-0.51l-12.99,10.62l-0.29,0.24
				c-0.2,0.17-0.48,0.22-0.72,0.11L1144.87,294.86z"/>
		</g>
		<g>
			<path class="st21" d="M1144.87,286.21c-0.26,0.11-0.43,0.36-0.43,0.65v0.06c0-0.37,0.46-0.55,0.7-0.27l10.83,11.96
				c0.31,0.31,0.79,0.4,1.19,0.2l3.46-1.67c0.36-0.17,0.59-0.54,0.59-0.95v-0.04c0,0.56-0.65,0.87-1.08,0.51l-12.99-10.62
				l-0.29-0.24c-0.2-0.17-0.48-0.22-0.72-0.11L1144.87,286.21z"/>
		</g>
		<g>
			<path class="st22" d="M1157.2,298.8c-0.4,0.19-0.87,0.11-1.18-0.2c0.38,0.39,1.04,0.11,1.04-0.44v-15.25
				c0-0.55-0.66-0.83-1.04-0.44c0.31-0.32,0.79-0.4,1.18-0.2l3.43,1.67c0.36,0.18,0.59,0.54,0.59,0.95v11.3
				c0,0.41-0.23,0.77-0.59,0.95L1157.2,298.8z"/>
		</g>
	</g>
</g>
</svg>
