<?xml version="1.0" encoding="utf-8"?>
<!-- Generator: Adobe Illustrator 23.1.1, SVG Export Plug-In . SVG Version: 6.00 Build 0)  -->
<svg version="1.1" id="Layer_1" xmlns="http://www.w3.org/2000/svg" xmlns:xlink="http://www.w3.org/1999/xlink" x="0px" y="0px"
	 viewBox="0 0 1600 500" style="enable-background:new 0 0 1600 500;" xml:space="preserve">
<style type="text/css">
	.st0{fill:none;}
	.st1{fill:#EEEAFF;}
	.st2{fill:#D3C8FF;}
	.st3{fill:#FFFFFF;}
	.st4{fill:#8C6BC2;}
	.st5{fill:#FFB900;}
	.st6{fill:#9E83E3;}
	.st7{fill:#FFD055;}
	.st8{fill:#FFE8AA;}
	.st9{fill:#B5A0F3;}
	.st10{fill:#DED5FF;}
	.st11{fill:#712D8D;}
	.st12{fill:#AE7EC1;}
	.st13{fill:#EFE0EF;}
	.st14{fill:#9251A8;}
	.st15{fill:#A874BB;}
	.st16{fill:none;stroke:#712D8D;stroke-miterlimit:10;}
	.st17{fill:#5F247B;}
	.st18{fill-rule:evenodd;clip-rule:evenodd;fill:#854CC7;}
	.st19{fill:#52218A;}
	.st20{fill:#6C33AF;}
	.st21{fill:#854CC7;}
	.st22{fill:#B179F1;}
</style>
<g>
	<rect y="0.89" class="st0" width="1600" height="500"/>
	<g>
		<g>
			<path class="st1" d="M391.09,37.16H58.65c-1.66,0-3-1.34-3-2.99c0-1.65,1.34-2.99,3-2.99h332.44c1.66,0,3,1.34,3,2.99
				C394.1,35.82,392.75,37.16,391.09,37.16z"/>
		</g>
		<g>
			<path class="st1" d="M469.31,71.66c-0.01,0-0.01,0-0.02,0L58.63,68.83c-1.66-0.01-2.99-1.36-2.98-3.01
				c0.01-1.65,1.35-2.97,3-2.97c0.01,0,0.01,0,0.02,0l410.66,2.83c1.66,0.01,2.99,1.36,2.98,3.01
				C472.31,70.34,470.96,71.66,469.31,71.66z"/>
		</g>
		<g>
			<path class="st1" d="M311.75,100.51H58.65c-1.66,0-3-1.34-3-2.99s1.34-2.99,3-2.99h253.1c1.66,0,3,1.34,3,2.99
				S313.41,100.51,311.75,100.51z"/>
		</g>
		<g>
			<path class="st1" d="M650.34,132.18H504.98c-1.66,0-3-1.34-3-2.99c0-1.65,1.34-2.99,3-2.99h145.36c1.66,0,3,1.34,3,2.99
				C653.34,130.85,652,132.18,650.34,132.18z"/>
		</g>
		<g>
			<path class="st1" d="M484.96,132.18H268.08c-1.66,0-3-1.34-3-2.99c0-1.65,1.34-2.99,3-2.99h216.88c1.66,0,3,1.34,3,2.99
				C487.96,130.85,486.62,132.18,484.96,132.18z"/>
		</g>
		<g>
			<path class="st1" d="M248.06,132.18h-49.51c-1.66,0-3-1.34-3-2.99c0-1.65,1.34-2.99,3-2.99h49.51c1.66,0,3,1.34,3,2.99
				C251.06,130.85,249.72,132.18,248.06,132.18z"/>
		</g>
		<g>
			<path class="st1" d="M178.53,132.18H88.68c-1.66,0-3-1.34-3-2.99c0-1.65,1.34-2.99,3-2.99h89.84c1.66,0,3,1.34,3,2.99
				C181.53,130.85,180.19,132.18,178.53,132.18z"/>
		</g>
		<g>
			<path class="st1" d="M503.96,163.86H342.95c-1.66,0-3-1.34-3-2.99c0-1.65,1.34-2.99,3-2.99h161.01c1.66,0,3,1.34,3,2.99
				C506.96,162.52,505.61,163.86,503.96,163.86z"/>
		</g>
		<g>
			<path class="st1" d="M322.93,163.86H183.72c-1.66,0-3-1.34-3-2.99c0-1.65,1.34-2.99,3-2.99h139.21c1.66,0,3,1.34,3,2.99
				C325.93,162.52,324.59,163.86,322.93,163.86z"/>
		</g>
		<g>
			<path class="st1" d="M163.7,163.86H88.68c-1.66,0-3-1.34-3-2.99c0-1.65,1.34-2.99,3-2.99h75.01c1.66,0,3,1.34,3,2.99
				C166.7,162.52,165.36,163.86,163.7,163.86z"/>
		</g>
		<g>
			<path class="st1" d="M819.08,227.21h-78.58c-1.66,0-3-1.34-3-2.99c0-1.65,1.34-2.99,3-2.99h78.58c1.66,0,3,1.34,3,2.99
				C822.08,225.87,820.73,227.21,819.08,227.21z"/>
		</g>
		<g>
			<path class="st1" d="M720.47,227.21H568.69c-1.66,0-3-1.34-3-2.99c0-1.65,1.34-2.99,3-2.99h151.78c1.66,0,3,1.34,3,2.99
				C723.47,225.87,722.13,227.21,720.47,227.21z"/>
		</g>
		<g>
			<path class="st1" d="M548.67,227.21H440.12c-1.66,0-3-1.34-3-2.99c0-1.65,1.34-2.99,3-2.99h108.55c1.66,0,3,1.34,3,2.99
				C551.68,225.87,550.33,227.21,548.67,227.21z"/>
		</g>
		<g>
			<path class="st1" d="M420.1,227.21H273.73c-1.66,0-3-1.34-3-2.99c0-1.65,1.34-2.99,3-2.99H420.1c1.66,0,3,1.34,3,2.99
				C423.1,225.87,421.76,227.21,420.1,227.21z"/>
		</g>
		<g>
			<path class="st1" d="M253.71,227.21h-71.55c-1.66,0-3-1.34-3-2.99c0-1.65,1.34-2.99,3-2.99h71.55c1.66,0,3,1.34,3,2.99
				C256.72,225.87,255.37,227.21,253.71,227.21z"/>
		</g>
		<g>
			<path class="st1" d="M162.14,227.21H88.68c-1.66,0-3-1.34-3-2.99c0-1.65,1.34-2.99,3-2.99h73.46c1.66,0,3,1.34,3,2.99
				C165.14,225.87,163.8,227.21,162.14,227.21z"/>
		</g>
		<g>
			<path class="st1" d="M889.16,258.89h-308.3c-1.66,0-3-1.34-3-2.99s1.34-2.99,3-2.99h308.3c1.66,0,3,1.34,3,2.99
				S890.82,258.89,889.16,258.89z"/>
		</g>
		<g>
			<path class="st1" d="M560.83,258.89h-74.81c-1.66,0-3-1.34-3-2.99s1.34-2.99,3-2.99h74.81c1.66,0,3,1.34,3,2.99
				S562.49,258.89,560.83,258.89z"/>
		</g>
		<g>
			<path class="st1" d="M466,258.89H305.76c-1.66,0-3-1.34-3-2.99s1.34-2.99,3-2.99H466c1.66,0,3,1.34,3,2.99
				S467.66,258.89,466,258.89z"/>
		</g>
		<g>
			<path class="st1" d="M285.74,258.89h-53.83c-1.66,0-3-1.34-3-2.99s1.34-2.99,3-2.99h53.83c1.66,0,3,1.34,3,2.99
				S287.4,258.89,285.74,258.89z"/>
		</g>
		<g>
			<path class="st1" d="M211.89,258.89h-63.15c-1.66,0-3-1.34-3-2.99s1.34-2.99,3-2.99h63.15c1.66,0,3,1.34,3,2.99
				S213.55,258.89,211.89,258.89z"/>
		</g>
		<g>
			<path class="st1" d="M805.3,322.24H581.45c-1.66,0-3-1.34-3-2.99s1.34-2.99,3-2.99H805.3c1.66,0,3,1.34,3,2.99
				S806.95,322.24,805.3,322.24z"/>
		</g>
		<g>
			<path class="st1" d="M561.42,322.24H452.28c-1.66,0-3-1.34-3-2.99s1.34-2.99,3-2.99h109.14c1.66,0,3,1.34,3,2.99
				S563.08,322.24,561.42,322.24z"/>
		</g>
		<g>
			<path class="st1" d="M432.26,322.24H290.12c-1.66,0-3-1.34-3-2.99s1.34-2.99,3-2.99h142.14c1.66,0,3,1.34,3,2.99
				S433.92,322.24,432.26,322.24z"/>
		</g>
		<g>
			<path class="st1" d="M270.1,322.24h-68.66c-1.66,0-3-1.34-3-2.99s1.34-2.99,3-2.99h68.66c1.66,0,3,1.34,3,2.99
				S271.76,322.24,270.1,322.24z"/>
		</g>
		<g>
			<path class="st1" d="M181.42,322.24H88.68c-1.66,0-3-1.34-3-2.99s1.34-2.99,3-2.99h92.74c1.66,0,3,1.34,3,2.99
				S183.08,322.24,181.42,322.24z"/>
		</g>
		<g>
			<path class="st1" d="M733.03,353.92H615.18c-1.66,0-3-1.34-3-2.99s1.34-2.99,3-2.99h117.85c1.66,0,3,1.34,3,2.99
				S734.69,353.92,733.03,353.92z"/>
		</g>
		<g>
			<path class="st1" d="M595.16,353.92H381.91c-1.66,0-3-1.34-3-2.99s1.34-2.99,3-2.99h213.25c1.66,0,3,1.34,3,2.99
				S596.82,353.92,595.16,353.92z"/>
		</g>
		<g>
			<path class="st1" d="M361.89,353.92h-84.08c-1.66,0-3-1.34-3-2.99s1.34-2.99,3-2.99h84.08c1.66,0,3,1.34,3,2.99
				S363.55,353.92,361.89,353.92z"/>
		</g>
		<g>
			<path class="st1" d="M257.79,353.92H148.75c-1.66,0-3-1.34-3-2.99s1.34-2.99,3-2.99h109.04c1.66,0,3,1.34,3,2.99
				S259.45,353.92,257.79,353.92z"/>
		</g>
		<g>
			<path class="st1" d="M572.12,417.27H324.08c-1.66,0-3-1.34-3-2.99s1.34-2.99,3-2.99h248.04c1.66,0,3,1.34,3,2.99
				S573.78,417.27,572.12,417.27z"/>
		</g>
		<g>
			<path class="st1" d="M838.4,417.27H590.36c-1.66,0-3-1.34-3-2.99s1.34-2.99,3-2.99H838.4c1.66,0,3,1.34,3,2.99
				S840.06,417.27,838.4,417.27z"/>
		</g>
		<g>
			<path class="st1" d="M304.06,417.27h-65.22c-1.66,0-3-1.34-3-2.99s1.34-2.99,3-2.99h65.22c1.66,0,3,1.34,3,2.99
				S305.72,417.27,304.06,417.27z"/>
		</g>
		<g>
			<path class="st1" d="M765.44,448.94H613.26c-1.66,0-3-1.34-3-2.99c0-1.65,1.34-2.99,3-2.99h152.18c1.66,0,3,1.34,3,2.99
				C768.44,447.6,767.1,448.94,765.44,448.94z"/>
		</g>
		<g>
			<path class="st1" d="M593.23,448.94H340.24c-1.66,0-3-1.34-3-2.99c0-1.65,1.34-2.99,3-2.99h252.99c1.66,0,3,1.34,3,2.99
				C596.24,447.6,594.89,448.94,593.23,448.94z"/>
		</g>
		<g>
			<path class="st1" d="M320.22,448.94h-81.38c-1.66,0-3-1.34-3-2.99c0-1.65,1.34-2.99,3-2.99h81.38c1.66,0,3,1.34,3,2.99
				C323.23,447.6,321.88,448.94,320.22,448.94z"/>
		</g>
		<g>
			<path class="st1" d="M663.75,480.62H238.84c-1.66,0-3-1.34-3-2.99s1.34-2.99,3-2.99h424.91c1.66,0,3,1.34,3,2.99
				S665.41,480.62,663.75,480.62z"/>
		</g>
	</g>
	<path class="st2" d="M855.35,499.27h678.27c-4.17-7.04-11.64-11.9-20.31-12.41c1.2-2.57,1.87-5.44,1.87-8.46
		c0-11.15-9.08-20.19-20.27-20.19c-0.28,0-0.56,0.01-0.84,0.02v-1.35c-3.57-15.13-16.44-26.88-32.57-28.54
		c1.66-3.1,2.69-6.59,2.89-10.33c0.75-13.71-9.8-25.44-23.56-26.18c-6.3-0.34-12.18,1.68-16.78,5.28
		c-1.58-20.57-18.24-37.29-39.48-38.45c-16.99-0.92-32.16,8.38-39.51,22.52c-3.41-1.87-7.28-3.02-11.42-3.25
		c-2.41-0.13-4.76,0.07-7.02,0.54c0.94-2.97,1.52-6.11,1.7-9.37c1.15-21.06-15.05-39.06-36.19-40.21
		c-4.09-0.22-8.06,0.21-11.81,1.19c-4.21-9.46-13.46-16.28-24.53-16.89c-3.6-0.2-7.07,0.29-10.31,1.33
		c-4.81-12.82-16.87-22.26-31.47-23.06c-19.66-1.07-36.48,13.94-37.55,33.53c-0.2,3.67,0.17,7.24,1.02,10.63
		c-9.67,1.98-17.18,10.25-17.75,20.54c-0.11,1.95,0.06,3.86,0.44,5.69c-0.13,0.07-0.26,0.14-0.39,0.22
		c-2.62-0.84-5.39-1.37-8.27-1.52c-13.39-0.73-25.33,6.61-31.11,17.75c-3.94-0.57-9.33-1.4-15.47-2.35
		c1.02-3.82,1.57-7.83,1.57-11.97c0-25.63-20.86-46.41-46.59-46.41c-24.09,0-43.9,18.21-46.33,41.56c-1.72-0.33-3.47-0.55-5.27-0.65
		c-21.63-1.18-40.12,15.34-41.31,36.89c-0.14,2.62-0.01,5.18,0.35,7.68c-9.57,3.88-17.38,11.15-21.93,20.31
		c-3.57-1.83-7.57-2.96-11.83-3.19c-15.73-0.86-29.25,10.76-30.86,26.2c-2.25-0.74-4.64-1.2-7.12-1.33
		c-15.24-0.83-28.27,10.81-29.1,25.99c-0.33,5.93,1.26,11.52,4.22,16.18C864.6,489.84,859.31,494.03,855.35,499.27z"/>
	<path class="st3" d="M1379.58,435.22c-8.8,0-16.99,2.55-23.9,6.93c-5.43-14.01-19.05-23.95-35.02-23.95
		c-1.07,0-2.13,0.06-3.18,0.15c0.02-0.39,0.03-0.77,0.03-1.16c0-15.49-12.6-28.04-28.15-28.04c-8.24,0-15.65,3.53-20.8,9.15
		c-4.21-13.39-16.76-23.11-31.59-23.11c-4.25,0-8.32,0.81-12.05,2.27c0.83-3.05,1.29-6.25,1.29-9.56
		c0-20.11-16.35-36.42-36.52-36.42c-18.8,0-34.28,14.18-36.29,32.39c-4.83-1.78-10.06-2.75-15.51-2.75
		c-14.73,0-27.8,7.08-35.98,18.02c-4.03-10.58-14.28-18.1-26.3-18.1c-15.54,0-28.13,12.56-28.13,28.05c0,4.22,0.94,8.22,2.61,11.8
		c-0.33-0.02-0.66-0.05-1-0.05c-4.01,0-7.63,1.6-10.29,4.19c-7.27-3.93-15.6-6.16-24.45-6.16c-28.42,0-51.45,22.97-51.45,51.31
		c0,4.02,0.48,7.92,1.35,11.67c-12.54,2.83-21.91,14-21.91,27.35c0,3.55,0.67,6.94,1.88,10.06h475.59
		c3.36-5.98,4.36-13.45,4.36-19.58C1424.17,455.13,1404.21,435.22,1379.58,435.22z"/>
	<polygon class="st4" points="1183.91,203.25 1121.63,203.25 1114.57,187.18 1190.73,187.75 	"/>
	<path class="st5" d="M1182.29,192.7h-58.64c-5.79,0-10.48-4.69-10.48-10.48V87.26c0-5.72,4.64-10.36,10.36-10.36h58.75
		c5.79,0,10.48,4.69,10.48,10.48v94.84C1192.77,188,1188.08,192.7,1182.29,192.7z"/>
	<path class="st4" d="M1114.83,81.45l34.45-48.02c1.16-1.61,4.89-1.6,6.07,0l35.34,47.72L1114.83,81.45z"/>
	<rect x="1121.41" y="203.25" class="st5" width="62.49" height="188.89"/>
	<rect x="1120.43" y="370.44" class="st5" width="65.36" height="27.33"/>
	<path class="st6" d="M1336.2,435.51h-100.76c-1.78,0-3.21,1.44-3.21,3.21v13.91c0,1.78,1.44,3.21,3.21,3.21h100.76
		c1.78,0,3.21-1.44,3.21-3.21v-13.91C1339.41,436.95,1337.97,435.51,1336.2,435.51z"/>
	<polygon class="st6" points="1126.05,449.08 1090.63,449.08 1098.7,419.47 1117.98,419.47 	"/>
	<polygon class="st6" points="1214.68,449.08 1179.26,449.08 1187.33,419.47 1206.61,419.47 	"/>
	<polygon class="st6" points="1170.31,449.08 1134.88,449.08 1142.95,419.47 1162.24,419.47 	"/>
	<path class="st7" d="M1094.38,425.1h27.67V278.81l-25.15,20.24c-1.59,1.28-2.51,3.21-2.51,5.24V425.1z"/>
	<path class="st7" d="M1210.8,425.1h-27.67V278.81l23.94,19.26c2.36,1.9,3.73,4.75,3.73,7.77V425.1z"/>
	<path class="st7" d="M1166.43,304.01c0-1.76-0.48-3.49-1.4-4.99l-10.92-17.91c-0.64-1.05-2.17-1.06-2.81-0.01l-10.92,17.61
		c-1.06,1.71-1.62,3.67-1.62,5.67l-0.04,120.66h27.7L1166.43,304.01z"/>
	<rect x="1183.14" y="402.72" class="st4" width="27.67" height="22.37"/>
	<rect x="1138.72" y="402.72" class="st4" width="27.69" height="22.32"/>
	<rect x="1094.38" y="402.72" class="st4" width="27.67" height="22.37"/>
	<g>
		<rect x="1094.38" y="371.37" class="st8" width="27.67" height="1.61"/>
		<rect x="1094.38" y="310.29" class="st8" width="27.67" height="1.61"/>
		<rect x="1094.38" y="340.83" class="st8" width="27.67" height="1.61"/>
	</g>
	<g>
		<rect x="1138.74" y="371.37" class="st8" width="27.68" height="1.61"/>
		<rect x="1138.75" y="340.83" class="st8" width="27.68" height="1.61"/>
		<rect x="1138.76" y="310.29" class="st8" width="27.67" height="1.61"/>
	</g>
	<g>
		<rect x="1183.14" y="371.37" class="st8" width="27.67" height="1.61"/>
		<rect x="1183.14" y="340.83" class="st8" width="27.67" height="1.61"/>
		<rect x="1183.14" y="310.29" class="st8" width="27.67" height="1.61"/>
	</g>
	<g>
		<path class="st8" d="M1164.72,269.91c0,0.43-0.16,0.8-0.47,1.11c-0.31,0.31-0.68,0.46-1.12,0.46c-0.43,0-0.81-0.15-1.12-0.46
			c-0.32-0.31-0.47-0.67-0.47-1.11c0-0.44,0.16-0.82,0.47-1.13c0.32-0.31,0.69-0.46,1.12-0.46c0.43,0,0.81,0.16,1.12,0.46
			C1164.56,269.09,1164.72,269.47,1164.72,269.91z"/>
		<path class="st8" d="M1164.41,247.87v2.9l-16.16,10.39c-0.41,0.26-0.83,0.48-1.27,0.65v0.08c0.43-0.07,1.36-0.11,2.79-0.11h14.65
			v2.37h-20.27v-3.07l15.9-10.11c0.66-0.42,1.11-0.69,1.36-0.82v-0.06c-0.58,0.09-1.58,0.14-2.98,0.14h-14.28v-2.37H1164.41z"/>
		<path class="st8" d="M1164.41,231.87v10.7h-20.27v-10.25h2.15v7.89h6.74v-7.29h2.14v7.29h7.1v-8.34H1164.41z"/>
		<path class="st8" d="M1146.28,215.99v5.83h18.12v2.37h-18.12V230h-2.15v-14.01H1146.28z"/>
	</g>
	<g>
		<g>
			<g>
				<path class="st8" d="M1170.13,129.1c-0.01-0.99-0.82-1.78-1.81-1.78l-29.52,0.17c-0.48,0-0.93,0.19-1.27,0.53
					c-0.34,0.34-0.52,0.79-0.52,1.27l0.1,18.57c0,0.38,0.15,0.75,0.43,1.02c0.27,0.27,0.63,0.42,1.01,0.42c0,0,0.01,0,0.01,0
					l11.49-0.07v3.83h-3.16c-0.78,0-1.41,0.63-1.41,1.4c0,0.77,0.63,1.4,1.41,1.4h13.7c0.78,0,1.41-0.63,1.41-1.4
					c0-0.77-0.63-1.4-1.41-1.4h-3.16v-3.87l11.36-0.07c0.8,0,1.44-0.65,1.44-1.45L1170.13,129.1z"/>
				<path class="st8" d="M1165.28,168.52c-0.48-1.51-1.87-2.52-3.46-2.52h-2.51c-0.66,0-1.23,0.42-1.42,1.04l-7.96-0.01
					c-0.24-0.58-0.97-1.03-1.65-1.03h-2.17c-1.59,0-2.98,1.01-3.46,2.52l-3.34,10.49c-0.61,1.9,0.45,3.94,2.36,4.54
					c0.36,0.11,0.73,0.17,1.1,0.17c1.09,0,2.26-0.61,2.96-1.53l3.53-3.86c0.23-0.26,0.57-0.4,0.91-0.4h7.6
					c0.35,0,0.68,0.15,0.91,0.4l3.54,3.87c0.7,0.71,1.66,1.52,2.95,1.52c0.37,0,0.74-0.06,1.1-0.17c1.91-0.6,2.97-2.64,2.36-4.54
					L1165.28,168.52z"/>
				<path class="st8" d="M1147.36,116.27c0.41,0.4,0.94,0.62,1.52,0.62c0,0,0.01,0,0.01,0l9.78-0.04c1.19,0,2.15-0.97,2.14-2.15
					l-0.07-23.26c0-0.57-0.23-1.11-0.64-1.51c-0.41-0.4-0.95-0.59-1.52-0.62l-9.78,0.04c-1.19,0-2.15,0.97-2.14,2.15l0.07,23.26
					C1146.73,115.33,1146.95,115.86,1147.36,116.27z"/>
			</g>
			<path class="st5" d="M1158.78,91.96c0-0.12-0.09-0.22-0.2-0.22l-1.51,0.01l-0.47,1.19c-0.07,0.19-0.24,0.31-0.43,0.31h-4.87
				c-0.2,0-0.37-0.13-0.44-0.34l-0.39-1.14l-1.59,0.01c-0.11,0-0.2,0.1-0.2,0.22l0.13,22.13c0,0.12,0.09,0.21,0.19,0.21l9.6,0.14
				c0.11,0,0.2-0.1,0.2-0.22L1158.78,91.96z"/>
		</g>
		<polygon class="st5" points="1167.91,146.79 1139.47,146.96 1139.35,129.76 1167.79,129.59 		"/>
		<g>
			<ellipse class="st5" cx="1147.11" cy="170.69" rx="2.51" ry="2.5"/>
			<ellipse class="st5" cx="1160.9" cy="170.69" rx="2.51" ry="2.5"/>
			<path class="st5" d="M1156.53,171.07h-5.21c-0.13,0-0.24-0.11-0.24-0.24v-1.03c0-0.13,0.11-0.24,0.24-0.24h5.21
				c0.13,0,0.24,0.11,0.24,0.24v1.03C1156.76,170.96,1156.66,171.07,1156.53,171.07z"/>
			<ellipse class="st5" cx="1150.33" cy="175.15" rx="1.17" ry="1.17"/>
			<ellipse class="st5" cx="1157.77" cy="175.15" rx="1.17" ry="1.17"/>
		</g>
	</g>
	<path class="st9" d="M1035.49,448.27c-2,0-3.81,1.17-4.64,2.98l-21.73,48.02h384.5l-21.73-48.01c-0.82-1.82-2.64-2.99-4.64-2.99
		H1035.49z"/>
	<polygon class="st6" points="1227.92,172.06 1220.95,163.32 1244.93,163.32 1244.93,159.02 1187.29,159.02 1187.29,154.42 
		1182.97,154.42 1182.97,168.01 1187.29,168.01 1187.29,163.32 1215.44,163.32 1225.83,176.36 1245.84,176.36 1245.84,172.06 	"/>
	<polygon class="st6" points="1227.92,247.3 1220.95,238.55 1244.93,238.55 1244.93,234.25 1187.29,234.25 1187.29,229.65 
		1182.97,229.65 1182.97,243.25 1187.29,243.25 1187.29,238.55 1215.44,238.55 1225.83,251.6 1245.84,251.6 1245.84,247.3 	"/>
	<path class="st6" d="M1288.24,246.11V135.74l-40.56-40.41h-3.5v345.69l83.8-0.23V285.7L1288.24,246.11z M1288.24,252.19
		l32.98,32.85h-32.98V252.19z M1248.5,102.23l32.38,32.25h-32.38V102.23z M1248.5,138.78h35.43v33.32h-35.43V138.78z M1248.5,176.39
		h35.43v33.32h-35.43V176.39z M1248.5,214.01h35.43v31.29v2.03h-35.43V214.01z M1248.5,251.63h35.43v33.32h-35.43V251.63z
		 M1248.5,289.34h35.43v33.32h-35.43V289.34z M1248.5,326.96h35.43v33.32h-35.43V326.96z M1248.5,364.57h35.43v33.35h-35.43V364.57z
		 M1283.93,435.73h-35.42v-33.38h35.42V435.73z M1323.61,435.73h-35.42v-33.38h35.42V435.73z M1323.67,397.93h-35.43v-33.35h35.43
		V397.93z M1323.67,360.28h-35.43v-33.32h35.43V360.28z M1323.67,322.66h-35.43v-33.32h35.43V322.66z"/>
	<rect x="1248.27" y="364.38" class="st10" width="75.26" height="71.38"/>
	<g id="g4493_10_" transform="matrix(0.35277777,0,0,-0.35277777,-83.079201,186.9333)">
		<g id="g4495_10_">
			<g id="g4497_10_">
				<g id="g4503_11_" transform="translate(114.9531,127.7212)">
					<path id="path4505_11_" class="st11" d="M3770.71-712.41l0.43-0.08l0.56,0.11l2.38-1.95l-0.45,2.33l18.83,3.72l-16.19,1.18
						c0.14,0.94,0.16,1.82,0.08,2.63l0.12,0.02l-0.14,0.25c-0.12,0.87-0.36,1.67-0.74,2.39c-1.1,2.1-2.87,2.71-3.22,2.81l-0.3,0.09
						l-0.39,0.01c-3.24,0-4.84-3.01-4.95-5.79C3766.43-711.41,3770.27-712.33,3770.71-712.41"/>
				</g>
				<g id="g4507_10_" transform="translate(189.2061,72.1934)">
					<path id="path4509_10_" class="st11" d="M3759.62-703.94c-0.07-0.04-0.28-0.13-0.77-0.15c-0.27,0.21-1.16,1.09-2.06,4.07
						c-0.16,0.65-0.45,2.52-0.12,3.94c0.06,0.06,0.13,0.14,0.21,0.19c0.31-0.6,0.77-1.81,1.14-4c0.06-0.58,0.34-1.93,1.61-3.66
						C3759.64-703.7,3759.64-703.85,3759.62-703.94 M3743.83-690.14c0.19,0.15,0.64,0.44,1.62,0.73c0.29,0.08,1.18,0.33,2.07,0.65
						c-0.06-0.21-0.16-0.48-0.34-0.84c-0.46-0.46-1.38-1.15-2.15-1.15C3744.89-690.74,3744.46-690.74,3743.83-690.14
						 M3743.42-674.71c-0.09,1.46,0.2,2.57,0.86,3.29c1.02,1.12,2.77,1.24,3.1,1.25c0.83-0.09,1.45-0.31,1.83-0.67
						c-2.11-0.21-3.3-1.21-3.94-2.06c-0.66-0.88-0.96-1.88-1.07-2.82C3743.81-675.38,3743.55-674.96,3743.42-674.71 M3732.3-668.18
						c-1.56,0.13-2.27,2.13-2.47,2.78c0.15,3.83,3.47,4.62,4.48,4.78c0.6-0.07,1.04-0.39,1.35-0.8c-1.73-0.44-2.64-1.4-3.11-2.25
						C3731.73-665.14,3731.89-666.81,3732.3-668.18 M3706.05-692.05c-0.65-0.22-8.48-2.8-17.95-2.8c-8.8,0-16.21,2.16-22.02,6.43
						l-0.12,0.08c-0.14,0.09-11.54,7.53-17.33,21.08c6.06-4.78,16.58-10.1,33.41-10.1c2.81,0,5.74,0.15,8.71,0.45
						c0.84,0.04,7.61,0.43,15.72,3.13c7.16,2.38,13.2,5.87,17.9,10.29v-0.29c0-0.46,0.06-4.1,1.8-6.74
						C3725.09-674.07,3720.41-686.23,3706.05-692.05 M3740.09-726.09c-7.96,0-13.66-1.12-16.94-3.33l-0.12-0.08l-0.11-0.09
						c-0.72-0.63-3.99-4.26-4.25-18.38c-1.52,1.65-2.73,3.13-2.97,3.79c-0.06,0.49-1.58,14.12,3.24,26.98
						c0.34,0.57,2.15,3.43,4.84,3.43c0.85,0,1.76-0.28,2.72-0.83c1.21-1.09,8.01-7.1,15.65-11.5
						C3741.48-726.1,3740.79-726.09,3740.09-726.09 M3745.49-756.58l-0.4-0.08l-0.34-0.22c-0.68-0.43-2.07-0.8-3.44-1.07
						c-1.33,9.48-6.62,17.65-9.44,21.43c1.73,0.55,4.79,1.11,10.11,1.11c2.13,0,3.82-0.1,4.33-0.13c1.34-0.33,2.44-1.34,3.33-2.75
						l3.46-13.11c0.1-1.08,0.15-2.08,0.18-2.93C3751.82-754.97,3748.6-755.92,3745.49-756.58 M3727.42-751.73
						c0.29,2.67,0.8,6.69,1.39,9.95c2.24-3.19,5.23-8.24,6.61-14C3732.94-754.42,3729.82-752.77,3727.42-751.73 M3716.3-707.42
						c0.24,0.35,1.8,2.43,4.76,2.67c0.41-0.64,0.96-1.87,1.07-3.91c-1.69-0.34-3.99-1.21-6.08-3.37
						C3715.64-710.72,3715.49-709.08,3716.3-707.42 M3665.95-747.45l-0.28-0.13c0.1,8.33-1.26,15.24-1.33,15.57l-0.1,0.48l-0.29,0.4
						c-0.67,0.93-1.21,1.66-13.78,3.06c-2.17,0.24-4.33,0.46-6.19,0.64c5.14,4.89,8.4,9.7,8.57,9.95l0.05,0.08
						c2.91,4.76,5.32,5.13,5.99,5.13c0.08,0,0.14,0,0.18-0.01l0.14-0.08l0.44-0.02c4.99-0.26,5.39-4.3,5.42-5.09l0.01-0.28
						l0.08-0.27C3666.61-724.35,3666.12-742.36,3665.95-747.45 M3656.42-750.16l-6.46-2.69c1.24,3.72,3.28,8.42,6.04,11.51
						C3656.31-743.26,3656.57-746.13,3656.42-750.16 M3631.46-748.57l0.02,0.12c0.01,0.07,0.99,7.04,5.94,11.51
						c4.21-0.19,10.16-0.6,14.23-1.17c-2.34-2.79-5.35-7.75-7.79-16.31c-1.62,0.3-5.1,1.14-12.37,3.48
						C3631.38-750.74,3631.19-750.03,3631.46-748.57 M3658.98-734.58c0.14-0.02,0.28-0.04,0.41-0.06c0.04-0.13,0.07-0.25,0.11-0.38
						c-0.11,0.12-0.22,0.21-0.32,0.29L3658.98-734.58z M3667.73-710.65c-1.73,1.95-4,3.03-6.2,3.49c0.64,1.88,1.92,2.92,2.65,3.39
						c1.86-0.55,2.66-1.57,2.77-1.72l0.03-0.05C3668.08-707.17,3668.09-709.03,3667.73-710.65 M3639.11-701.37
						c-0.07-0.08-0.22-0.24-0.54-0.46c-0.22-0.08-0.84-0.29-1.63-0.29c-1.69,0-3.19,0.92-4.47,2.74v0.48
						c0.3,0.49,0.98,1.37,1.96,1.37c0.7-0.72,1.88-1.68,3.93-3.04C3638.65-700.78,3639-701.15,3639.11-701.37 M3623.75-713.86
						c-0.32-0.31-0.96-0.79-1.59-0.79c-0.19,0-0.38,0.05-0.59,0.14c0.06,0.13,0.15,0.31,0.29,0.52c0.54,0.85,2.71,4.45,3.07,7.97
						c0.01-0.06,0.03-0.14,0.04-0.22l0.01-0.13l0.06-0.18C3625.11-706.84,3625.74-709.59,3623.75-713.86 M3616.47-711.96
						c0.46,0.4,1.02,0.91,1.62,1.52c-0.24-0.46-0.52-0.95-0.83-1.45C3617.01-711.94,3616.71-711.97,3616.47-711.96 M3646.93-656.74
						c0.46-0.52,11.6-12.65,37.34-12.65c1.48,0,3.01,0.04,4.51,0.12c0.94,0.04,22.62,1.19,35.52,14.32c0.16-0.05,0.34-0.1,0.53-0.15
						c-3.87-5.29-15.51-16.85-43.27-16.85c-1.18,0-2.4,0.02-3.58,0.06c-0.24,0.01-23.84,1.31-31.74,15.92L3646.93-656.74z
						 M3657.4-622.04c5.55,7.67,12.86,12.47,21.75,14.29l0.6-0.91c0.14-0.21,3.39-5.06,8.66-5.06h0c2.72,0,5.37,1.28,7.87,3.81
						l0.39,0.39l0.16,0.52c0.09,0.3,0.36,1.23,0.44,2.38c6.93-0.93,25.33-4.98,32.28-22.1l0.08-0.18
						c0.06-0.11,5.44-10.83,2.81-26.51c-0.4-0.09-0.84-0.21-1.3-0.37l-0.01,0.88c0.03,0.05,0.05,0.09,0.08,0.14l0.25,0.44l0.03,0.5
						c0.01,0.12,0.05,0.72,0.08,1.69l0.3,0.67l-0.27,0.03c0.15,4.57,0.15,14.67-2.22,21.45c-0.33,1.47-1.73,3.41-4.57,3.41
						c-1.38,0-2.95-0.45-4.76-1.37c-0.23-0.12-23.75-11.51-45.84-11.52c-9.19,0-16.84,1.97-22.77,5.87
						C3652.19-631.33,3653.99-626.75,3657.4-622.04 M3688.79-589.49c0.82,0.42,1.56,0.64,2.14,0.64c0.8,0,1.23-0.45,1.44-0.77
						c0.09-1.67-0.22-2.9-0.92-3.66c-0.82-0.9-2.08-1-2.46-1.01c-0.43,0.11-0.97,0.52-1.28,0.84
						C3686.72-591.44,3688.17-589.99,3688.79-589.49 M3661-643.45l-0.15-0.03c-0.32-0.08-1.94-0.59-2.97-2.47
						c-0.87-1.59-1.01-3.64-0.44-6.1c-0.03-0.05-0.06-0.1-0.08-0.15c-0.44-0.84-0.39-1.83,0.14-2.71l0.55-0.92l1.07-0.15
						c0.07-0.01,0.45-0.06,0.98-0.06c0.03,0,0.07,0,0.1,0l1.91-2.8c-0.38-0.27-0.78-0.54-1.19-0.83c-1.96,0.89-6.02,2.9-8.62,5.34
						c-0.48,1.73-1.91,7.81-0.05,13.7c1.87-0.82,4.83-1.91,8.83-2.79C3661.05-643.45,3661.03-643.45,3661-643.45 M3718.88-634.55
						c0.92-4.02,2.46-11.74,1.96-16.67c-1.88-2.05-11.38-11.1-33.86-12.95c-2.3,2.32-8.81,8.64-13.17,10.29
						c-0.33,0.16-0.75,0.27-1.27,0.27c-1.17,0-3.38-0.52-9.27-4.46l-0.28,2.61c1.48,0.7,2.44,1.99,2.65,3.71
						c0.09,0.5,0.23,1.42,0.25,2.47l0.35,0.04l-0.36,0.69c-0.05,1.36-0.34,2.82-1.19,3.84c-0.24,0.29-0.51,0.53-0.81,0.72
						c3.29-0.56,7.15-0.93,11.56-0.93C3688.97-644.92,3703.56-641.43,3718.88-634.55 M3724.57-632.82c0.51-1.66,0.94-4.25,1.27-7.27
						C3725.43-637.3,3724.94-634.69,3724.57-632.82 M3672.12-659.08c1.55-0.69,3.96-2.52,6.27-4.49c-5.05,0.42-8.72,1.15-11.17,1.8
						C3669.8-660.05,3671.39-659.35,3672.12-659.08 M3730.57-655.86l0.22-0.06c-0.11-0.04-0.22-0.08-0.33-0.13
						C3730.5-655.99,3730.54-655.92,3730.57-655.86 M3632.21-692.76c-0.3-0.08-0.58-0.18-0.85-0.29c0.13,0.26,0.24,0.51,0.35,0.75
						C3631.9-692.46,3632.07-692.62,3632.21-692.76 M3627.74-701.3c-0.01-0.01-0.02-0.02-0.03-0.03c-0.67,0.46-1.46,0.76-2.36,0.89
						c0.77,0.63,1.47,1.27,2.09,1.91C3627.39-699.61,3627.56-700.59,3627.74-701.3 M3761.32-691.87c-0.81,0.56-1.85,1.78-2.47,2.86
						l-0.02,0.04c-1.35,2.29-1.61,4.01-1.58,5.06c0.79-0.56,1.94-2.07,2.64-3.55l0.05-0.1
						C3761.09-689.74,3761.35-691.12,3761.32-691.87 M3752.85-688.43c0.34-0.91,0.79-1.88,1.39-2.89c-0.65-0.29-1.25-0.69-1.79-1.17
						c-0.15,0.23-0.29,0.47-0.42,0.73C3752.54-690.83,3752.89-689.68,3752.85-688.43 M3751.87-685.23c0.06,0.05,0.12,0.1,0.18,0.15
						c0.02-0.21,0.05-0.41,0.08-0.63C3752.06-685.55,3751.97-685.39,3751.87-685.23 M3765.85-691.68c-0.01,1.78-0.64,3.85-1.88,6.19
						c-0.44,0.92-2.17,4.26-4.82,5.69l-0.84,1.07l-0.48,0.61l-1.17,1.49l-0.41,0.68l-0.13,0.01l-1.31,1.67l-0.18,0.31
						c-0.04,0.06-0.15,0.24-0.34,0.48c0.1,0.77,0.26,3.16-1.28,5.19c-0.8,1.05-2.35,2.34-5.19,2.63l-1.74,0.72
						c-0.27,0.15-0.63,0.32-1.09,0.45l-4.08,1.67c-0.27,1.98-1.38,4.92-4.08,6.16c2.97,16.78-2.48,28.45-3.11,29.73
						c-4.03,9.87-12.06,17.35-23.22,21.62c-8.35,3.2-15.46,3.48-15.76,3.49l-0.93,0.03l-0.43,0.26l0,4.01
						c0.49,0.31,0.97,0.7,1.41,1.18c1.65,1.79,2.35,4.33,2.07,7.53l-0.03,0.32l-0.11,0.3c-0.56,1.44-2.4,3.87-5.8,3.87
						c-1.39,0-2.88-0.42-4.44-1.25l-0.13-0.07l-0.12-0.09c-1.98-1.42-5.03-5.37-2.4-10.1l0.1-0.17l0.13-0.15
						c0.09-0.11,0.53-0.63,1.24-1.19c-0.06-0.2-0.12-0.42-0.19-0.62l-0.53-1.59l0.02-0.02c-0.28-0.83-0.4-1.4-0.38-1.88
						c-0.55-0.3-1.04-0.7-1.47-1.16l-0.49-0.05c-11.77-1.31-21.67-7.14-28.65-16.86c-5.23-7.29-6.97-14.14-7.04-14.43l-0.36-1.46
						l1.21-0.9c0.42-0.31,0.84-0.61,1.27-0.89c-1.87-4.33-2.11-8.8-1.83-12.34c-1.46-0.59-2.94-1.75-3.83-2.53l-0.35-0.31
						l-0.83-1.83l-0.36-4.92c0.68-3.83,1.81-7.34,3.22-10.52c-1.44-1.95-1.15-4.85-0.85-6.39l-1.59-1.37l-0.2,0.02l-1.89-1.58
						c-0.54-0.03-1.11-0.11-1.7-0.25l-0.07-0.02c-1.47-0.38-4.12-2.09-4.71-6.13l-0.01-0.04l-0.57-0.23
						c-0.12-0.05-0.47-0.2-0.91-0.43l-2.38-0.03l-0.64-0.25l-0.66-0.1c-0.79-0.28-2.13-0.87-3.63-2.02l-0.45-0.42l-0.86-0.69
						c-2.15-2.04-4.4-5.29-5.75-10.36l-0.26-1.42l-0.3-0.74l-0.04-0.16c-0.66-0.79-1.87-1.97-3.87-3.04l-0.28-0.15l-0.23-0.22
						c-0.63-0.62-2.1-2.25-1.98-4.11c0.05-0.72,0.32-1.38,0.79-1.91c-0.03-1.29,0.32-2.37,1.05-3.22c0.61-0.71,1.78-1.56,3.86-1.56
						c0.23,0,0.46,0.01,0.67,0.03c0.33-0.72,0.81-1.16,1.12-1.38c1.18-0.89,2.47-1.34,3.8-1.34c3.03,0,5.03,2.33,5.25,2.6l0.17,0.2
						l0.12,0.24c2.47,5.06,2.14,8.81,1.85,10.28c0.44,0.36,0.98,0.84,1.47,1.4c2.1-1.74,4.27-2.18,5.93-2.18
						c2.06,0,3.54,0.7,3.71,0.78l0.19,0.11c2.32,1.43,2.83,3.11,2.85,4.27c0.05,2.64-2.31,4.34-2.78,4.66
						c-1.21,0.81-1.99,1.39-2.49,1.8l0.61,0.8l0.62,0.62l0.01,0.21l0.87,1.14c0.15-0.01,0.3-0.02,0.47-0.02
						c2.73,0,5.74,1.72,6.03,6.54l0.91,1.14l0.69,0.47l0.54,1.04c0.39-0.08,0.81-0.12,1.25-0.12c1.06,0,2.06,0.23,2.66,0.41
						c3.01-3.48,5.94-6.01,7.92-7.56l-0.82-1.94l-0.01,0l-0.5-1.1c-0.54-1.2-0.9-2.09-1.13-2.77l-0.05-0.12l0.01,0
						c-0.18-0.53-0.28-0.92-0.33-1.22l-0.11-0.04l-0.88-2.18c-1.13-0.49-2.11-1.2-2.94-2.11c-3.2-3.53-2.7-8.84-2.68-9.07l0.04-0.36
						c-0.93-0.97-1.89-2.19-2.84-3.74c-0.37-0.54-5.03-7.24-11.68-12.42l-0.59-0.46l-0.18-0.12c-0.1-0.07-0.25-0.18-0.42-0.35
						l-1.18-1.54l-0.18-1.26c-0.13-0.67-0.2-1.48-0.15-2.44c-5.94-5.37-7.25-13.31-7.38-14.19c-1.06-5.71,2.16-7.15,2.98-7.42l0,0
						c6.56-2.11,11.16-3.37,13.72-3.77l1.06-0.09l15.17,5.46l0.86-0.13l0.61-0.16l1.29-0.13l1.96,0.93l5.73,2.72l0.06,1.36
						c0.04,0.95,0.96,22.62-0.98,31.31l0.38,0.56c0.2,0.29,4.41,6.54,1.8,12.5l1.15,4.38l-0.08,0.09l0.93,2.9
						c4.37-1.41,9.2-2.13,14.47-2.13c10.66,0,19.15,2.95,19.5,3.07l0.1,0.04c0.37,0.15,0.74,0.31,1.11,0.47
						c0.08-0.26,0.16-0.48,0.23-0.64l0.06-0.39c0.11-0.7,0.78-3.25,1.06-4.31l0.32-1.2c0.14-1.35,0.61-2.86,1.06-4.08l0.13-0.36
						c-1.79-5.44,1.74-10.14,2.31-10.84c-4.32-13.12-2.93-25.95-2.8-27.07c0.09-1.1,0.74-2.7,4.42-6.64
						c1.9-2.03,3.75-3.77,3.83-3.84l0.19-0.17l0.81-0.75l1.37-0.19l1.55,0.21c0.88,0.09,1.49,0.28,1.81,0.39
						c3.4-1.39,9.53-4.84,11.95-6.26l1.55-0.91l0.97,0.13l1.21,0.12c1.61,0.23,4.19,0.73,5.94,1.69c3.36,0.73,8.82,2.13,10.44,3.82
						l0.62,0.65l0,0.9c0.01,1.7-0.12,13.24-4.55,19.93v4l0,0.06l-0.6,1.91l-1.28,2.44c-1.58,1.47-4.26,3.49-4.37,3.57l-0.16,0.12
						l-0.18,0.09c-6.35,3.25-12.66,8.32-15.61,10.83c0.16,0.89,0.91,6.01-1.82,9.47c-0.73,0.92-1.64,1.64-2.71,2.13l-0.08,0.21
						l0.39-0.08l-2.5,4.36c-0.39,0.68-1.31,2.77-1.8,3.93l-0.01,0.01l-0.07,0.32c-0.34,1.64-1.22,3.5-1.74,4.49
						c5.95,5.86,8.59,12.28,9.59,15.39c0.63-0.22,1.33-0.34,2.1-0.34h0c1.08,0,2.22,0.26,3.4,0.76c0.36-0.34,0.79-0.71,1.24-1.02
						c0.24-0.56,0.69-1.33,1.5-2.03l0.3-0.26c0.01-0.08,0.01-0.17,0.02-0.25l0.03-0.31l0.11-0.29c0.67-1.74,2.79-4.67,6.45-4.67h0
						c0.15,0,0.3,0.01,0.45,0.02l0.9-2.34l0.28,0.4l0.27-0.79c-0.1-0.16-0.19-0.32-0.26-0.46l-0.43-0.23
						c-0.49-0.26-1.77-0.67-2.52-0.87l-0.05-0.02c-2.68-0.8-4.3-2.1-4.8-3.88c-0.48-1.7,0.25-3.31,1.03-4.17l0.05-0.06
						c1.67-1.74,3.41-2.1,4.58-2.1c1.24,0,2.35,0.39,3.25,0.89c1.29-2.25,2.97-3.73,3.72-4.32c0.1-1.3,0.33-2.27,0.38-2.46l0.03-0.1
						c1.84-6.09,4.43-7.37,6.28-7.37c0.18,0,0.33,0.01,0.47,0.03c1.25,0.07,2.17,0.4,2.86,0.83c0.62-0.31,1.29-0.48,1.96-0.48
						c0.36,0,0.66,0.05,0.86,0.1c2.1,0.39,3.16,1.49,3.68,2.34c0.52,0.85,0.69,1.73,0.71,2.47l0.12,0.15c1.71,2.23,0.68,5-1.24,6.63
						c-1.22,1.18-1.85,1.9-2.17,2.3"/>
				</g>
				<g id="g4511_11_" transform="translate(105.9185,198.9136)">
					<path id="path4513_11_" class="st12" d="M3772.06-723.28c0,0,6.51-0.38,5.83,7.55c0,0-1.67,4.3-7.05,1.43
						c0,0-4.09-2.94-1.74-7.17C3769.1-721.47,3770.39-723.05,3772.06-723.28"/>
				</g>
				<g id="g4515_11_" transform="translate(104.6118,198.231)">
					<path id="path4517_11_" class="st13" d="M3772.25-723.17c0,0,1.77-0.45,3.33,0.3c0,0,0.25-1.86,0-2.21c0,0-1.62-1.16-3.74,0.35
						C3771.85-724.73,3772.2-723.68,3772.25-723.17"/>
				</g>
				<g id="g4519_11_" transform="translate(103.8994,195.4751)">
					<path id="path4521_11_" class="st13" d="M3772.36-722.75c0,0,2.5-1.24,4.05-0.18v-2.72c0,0-3.61-1.54-4.61,0.95
						C3771.7-724.44,3772.36-722.75,3772.36-722.75"/>
				</g>
				<g id="g4523_11_" transform="translate(103.2339,192.1758)">
					<path id="path4525_11_" class="st13" d="M3772.46-722.25c0,0,2-1.79,4.62-0.57v-1.84c0,0-1.63-3.27-5.01,0.86L3772.46-722.25z"
						/>
				</g>
				<g id="g4527_11_" transform="translate(102.1777,190.9287)">
					<path id="path4529_11_" class="st13" d="M3772.62-722.06c0,0-1.1-3.17,3.59-3.32c0,0,2.87-0.25,2.77,3.32l1.77-1.06
						c0,0,0.4-2.62,0-3.67c0,0-5.1-5.58-11.21,0.35C3769.54-726.43,3770.63-722.8,3772.62-722.06"/>
				</g>
				<g id="g4531_11_" transform="translate(112.834,190.0254)">
					<path id="path4533_11_" class="st12" d="M3771.03-721.92c0,0,27.75-1,36.99-23.78c0,0,6.21-12.07,2.73-29.58
						c0,0-5.71,0.2-7.73-6.34c0,0,0-4.23,2.02-6.24c0,0-3.64-16.8-21.82-24.15c0,0-24.84-8.75-42.12,3.92
						c0,0-17.37,11.07-21.01,31.49c0,0,11.26-19.52,46.86-15.9c0,0,27.57,1.06,38.63,20.98c0,0,0.99,14.64-2.04,23.09
						c0,0-0.45,3.47-6.13,0.6c0,0-47.12-23.09-72.26-4.53c0,0,6.56,26.56,33.73,29.58l-0.86-2.49c0,0,5.55-8.45,13-0.91
						C3771.03-726.16,3771.83-723.57,3771.03-721.92"/>
				</g>
				<g id="g4535_11_" transform="translate(61.5723,150.5605)">
					<path id="path4537_11_" class="st3" d="M3778.68-715.9c0,0,24.54-14.94,69.39,6.19c0,0,3.64-13.58,2.57-20.83
						c0,0-9.29-12.38-36.91-14.34c0,0-8.53,8.9-13.23,10.56c0,0-1.21,1.21-11.67-6.34c0,0-7.12,2.87-10.91,6.72
						C3777.92-733.93,3774.67-724.35,3778.68-715.9"/>
				</g>
				<g id="g4539_11_" transform="translate(71.4565,131.4155)">
					<path id="path4541_11_" class="st11" d="M3777.21-712.98c0,0,3.64-0.53,3.94,2.34c0,0,1.21,6.34-1.97,5.74
						c0,0-3.48-0.91-1.36-7.24C3777.81-712.15,3776.75-712.22,3777.21-712.98"/>
				</g>
				<g id="g4543_11_" transform="translate(72.5254,133.1968)">
					<path id="path4545_11_" class="st3" d="M3777.05-713.25c0,0-0.53,4.6,2.35,4.9c0,0-1.52,2.94-2.88-1.06
						C3776.51-709.4,3776.09-711.84,3777.05-713.25"/>
				</g>
				<g id="g4547_11_" transform="translate(120.6104,131.3701)">
					<path id="path4549_11_" class="st11" d="M3769.86-712.97l-4.39-0.87c0,0-2.35,0.44-2.12,5.39c0,0,0.15,3.67,2.73,3.63
						c0,0,3.98-1.17,1.7-8L3769.86-712.97z"/>
				</g>
				<g id="g4551_11_" transform="translate(114.9111,132.2168)">
					<path id="path4553_11_" class="st3" d="M3770.72-713.1c0,0-1.02,5.13,2.27,5.77c0,0-1.93,3.4-3.29-1.02
						C3769.69-708.34,3769.07-711.75,3770.72-713.1"/>
				</g>
				<g id="g4555_11_" transform="translate(74.8403,121.0859)">
					<path id="path4557_11_" class="st12" d="M3776.7-711.4c0,0,6.49-3.3,22.24-3.65c0,0-8.43,8.3-12.37,9.46
						C3786.57-705.59,3783.69-705.99,3776.7-711.4"/>
				</g>
				<g id="g4559_11_" transform="translate(58.7227,134.1167)">
					<path id="path4561_11_" class="st14" d="M3779.11-713.39c0,0,0.45-2.67,1.11-3.77h-1.11c0,0,11.87-13.28,40.05-11.77
						c0,0,22.83,1.06,35.04,14.76c0,0,1.06-0.83,4.8-1.18c0,0-9.85-22.13-50.65-20.73c0,0-26.06,1.21-34.14,18.11l0.81,2.25
						C3775.02-715.72,3777.84-713.24,3779.11-713.39"/>
				</g>
				<g id="g4563_11_" transform="translate(144.7422,158.6641)">
					<path id="path4565_11_" class="st14" d="M3766.26-717.13c0,0,3.41-15.24,2.35-21.2l4.7-1.21c0,0-0.15,19.32-3.18,23.24
						C3770.12-716.3,3767.62-716.45,3766.26-717.13"/>
				</g>
				<g id="g4567_11_" transform="translate(160.7725,112.6265)">
					<path id="path4569_11_" class="st12" d="M3763.87-710.11c0,0-4.24,6.79,3.26,6.19c0,0-0.34,4.98-4.45,5.13
						c0,0-6.68-0.68-6.68-7.32C3755.99-706.11,3757.5-713.2,3763.87-710.11"/>
				</g>
				<g id="g4571_11_" transform="translate(161.3945,113.9619)">
					<path id="path4573_11_" class="st13" d="M3763.77-710.31c0,0,0.15,2.72,2.73,3.62c0,0-1.52,1.66-3.56-0.26
						C3762.94-706.95,3762.07-708.65,3763.77-710.31"/>
				</g>
				<g id="g4575_11_" transform="translate(164.5996,110.7119)">
					<path id="path4577_11_" class="st13" d="M3763.29-709.82c0,0-0.64,3.21,4.02,5.28l-2.58,1.06c0,0-4.05-1.02-3.52-4.49
						C3761.21-707.97,3762.35-709.32,3763.29-709.82"/>
				</g>
				<g id="g4579_11_" transform="translate(166.2471,108.3521)">
					<path id="path4581_11_" class="st13" d="M3763.05-709.46c0,0,0.68,4.38,5.04,6.26c0,0-0.87,0.72-2.52,0.38
						c0,0-3.47-0.9-3.54-5.09C3762.03-707.91,3762.22-708.74,3763.05-709.46"/>
				</g>
				<g id="g4583_11_" transform="translate(173.9492,102.3418)">
					<path id="path4585_11_" class="st12" d="M3761.9-708.54c0,0-1.93,6.64,5.38,5.09c0,0,0.91,4.9-4.55,5.4c0,0-7.04,0.15-6.29-7.4
						C3756.45-705.45,3758-709.44,3761.9-708.54"/>
				</g>
				<g id="g4587_11_" transform="translate(174.9297,102.3857)">
					<path id="path4589_11_" class="st13" d="M3761.75-708.54c0,0,2.12,2.98,5.19,3.25c0,0-1.52,2.57-4.51,0.89
						C3762.43-704.41,3760.61-705.6,3761.75-708.54"/>
				</g>
				<g id="g4591_11_" transform="translate(176.5332,99.8926)">
					<path id="path4593_11_" class="st13" d="M3761.51-708.16c0,0,1.55,2.94,5.76,2.79l-1.52,1.92c0,0-3.6,0.45-5.26-3.06
						C3760.49-706.5,3760.94-707.37,3761.51-708.16"/>
				</g>
				<g id="g4595_11_" transform="translate(177.4678,96.999)">
					<path id="path4597_11_" class="st13" d="M3761.37-707.72c0,0,3.9,2.9,6.7,2.45l-1.44,2.37c0,0-4.36,0.42-5.83-3.16
						L3761.37-707.72z"/>
				</g>
				<g id="g4599_11_" transform="translate(192.4717,83.4189)">
					<path id="path4601_11_" class="st12" d="M3759.13-705.65c0,0,2.95,1.51-0.45,7.92c0,0-3.18,6.79-6.59,4.68
						c0,0-1.52-3.17,1.52-8.3C3753.6-701.35,3756.25-706.03,3759.13-705.65"/>
				</g>
				<g id="g4603_11_" transform="translate(176.7998,94.1934)">
					<path id="path4605_11_" class="st12" d="M3761.47-707.29c0,0,0.68,2.47,5.53,3.88c0,0-2.04-5.01,3.71-11.65
						c0,0-2.65,0.71-4.62-1.38v-2.67c0,0-2.95,2.01-4.24,5.64C3761.85-713.48,3764.65-710.62,3761.47-707.29"/>
				</g>
				<g id="g4607_11_" transform="translate(188.376,84.3096)">
					<path id="path4609_11_" class="st13" d="M3759.74-705.79l2.07-1.21l-1.04-0.65L3759.74-705.79z"/>
				</g>
				<g id="g4611_11_" transform="translate(175.3301,93.1553)">
					<path id="path4613_11_" class="st13" d="M3761.69-707.14c0,0,3.62-0.25,1.25-4.73c0,0-3.59-4.23-6.97-0.71
						c0,0-2.52,2.82,2.73,4.38C3758.7-708.19,3760.74-707.64,3761.69-707.14"/>
				</g>
				<g id="g4615_10_" transform="translate(183.2998,82.6475)">
					<path id="path4617_10_" class="st13" d="M3760.5-705.53c0,0,1.28,2.18,3.46,1.41c0,0,1.41-0.96,2.22-5.94
						c0,0,0.05-1.21,1.46-2.97c0,0,1.21-3.62-2.83-3.77c0,0-2.37-0.7-4.32,5.74C3760.5-711.07,3759.72-707.95,3760.5-705.53"/>
				</g>
				<g id="g4619_10_" transform="translate(192.4717,70.5957)">
					<path id="path4621_10_" class="st13" d="M3759.13-703.69c0,0,0.91,2.31-1.11,4.73c0,0-1.49,2.23-1.11,4.38
						c0,0,0.96,1.86,1.97,0.4c0,0,1.01-3.12,4.7-6.49c0,0,0.96-3.07-2.47-3.67C3761.1-704.35,3760.14-704.65,3759.13-703.69"/>
				</g>
				<g id="g4623_11_" transform="translate(192.2939,82.8242)">
					<path id="path4625_11_" class="st13" d="M3759.16-705.56l1.29,0.33c0,0-0.13-0.58,3.05-3.65c0,0,2.27-1.86,0.96-3.57
						c0,0-1.86,1.91-2.45,2.42c0,0-1.79,2.16-2.2,3.87L3759.16-705.56z"/>
				</g>
				<g id="g4627_11_" transform="translate(56.2886,111.083)">
					<path id="path4629_11_" class="st12" d="M3779.47-709.87c0,0,4.19-7.19,6.31-9.51c0,0-2.73-1.01-4.14,0
						c0,0,2.68,4.12-2.47,4.12C3779.17-715.26,3778.16-711.58,3779.47-709.87"/>
				</g>
				<g id="g4631_11_" transform="translate(54.938,102.7871)">
					<path id="path4633_11_" class="st13" d="M3779.67-708.61c0,0,1.78-0.34,2.73-2.11c0,0,1.13,2.24,0,2.98
						C3782.4-707.74,3781.19-706.83,3779.67-708.61"/>
				</g>
				<g id="g4635_11_" transform="translate(52.6675,101.1836)">
					<path id="path4637_11_" class="st13" d="M3780.01-708.36c0,0,2.61-0.49,3.26-2.79l1.21,1.62c0,0-0.42,1.58-3.1,2.34
						L3780.01-708.36z"/>
				</g>
				<g id="g4639_11_" transform="translate(50.7529,99.8037)">
					<path id="path4641_11_" class="st13" d="M3780.3-708.15c0,0,3.3-1.36,3.56-3.58l1.06,1.32c0,0,0,2.72-3.67,3.06L3780.3-708.15z
						"/>
				</g>
				<g id="g4643_11_" transform="translate(43.8076,93.7041)">
					<path id="path4645_11_" class="st12" d="M3781.33-707.22c0,0,2.16,3.21,4.7-0.19c0,0,1.55-1.17-0.61-4c0,0,4.42-1.19,4.73,4.34
						c0,0,0.08,5.43-5.79,4.11C3784.36-702.96,3781.86-703.6,3781.33-707.22"/>
				</g>
				<g id="g4647_11_" transform="translate(45.0542,93.5264)">
					<path id="path4649_11_" class="st13" d="M3781.15-707.19c0,0,1.89-0.94,2.61-3.32c0,0,1.44,1.17,0.19,3.32
						C3783.95-707.19,3782.97-705.65,3781.15-707.19"/>
				</g>
				<g id="g4651_11_" transform="translate(42.5605,91.7012)">
					<path id="path4653_11_" class="st13" d="M3781.52-706.91c0,0,2.88-0.91,3.03-4.53l1.48,1.93c0,0-0.38,3.01-3.07,3.65
						L3781.52-706.91z"/>
				</g>
				<g id="g4655_11_" transform="translate(39.1768,89.9199)">
					<path id="path4657_11_" class="st13" d="M3782.03-706.64c0,0,3.45-1.55,4.47-4.64l0.95,0.94c0,0,0.23,4.15-3.45,4.87
						C3784-705.47,3782.78-705.96,3782.03-706.64"/>
				</g>
				<g id="g4659_11_" transform="translate(25.0034,75.8789)">
					<path id="path4661_11_" class="st12" d="M3784.14-704.5c0,0,9.24,5.23,9.8,12.38C3793.94-692.12,3786.89-693.68,3784.14-704.5"
						/>
				</g>
				<g id="g4663_11_" transform="translate(37.0547,76.7705)">
					<path id="path4665_11_" class="st13" d="M3782.34-704.64v1.71c0,0,1.67,3.92,5.45,2.92c0,0,0.2-0.76,3.99-3.27
						c0,0,3.99-2.67,0-5.13C3791.79-708.41,3786.38-711.08,3782.34-704.64"/>
				</g>
				<g id="g4667_10_" transform="translate(28.0313,72.4961)">
					<path id="path4669_10_" class="st13" d="M3783.69-703.98c0,0,4.09,1.61,4.7-2.21c0,0,1.16-3.67-1.57-9.26
						c0,0-2.73-3.32-5.96-0.86c0,0-1.31,0.76,0.25,3.22C3781.11-713.09,3784.75-707.35,3783.69-703.98"/>
				</g>
				<g id="g4671_10_" transform="translate(25.7158,73.4453)">
					<path id="path4673_10_" class="st13" d="M3784.04-704.13l1.36-0.86c0,0,1.06-3.72-3.23-10.16c0,0-5.4-1.76-4.7,2.82
						C3777.47-712.33,3782.72-708.3,3784.04-704.13"/>
				</g>
				<g id="g4675_10_" transform="translate(17.4644,64.6006)">
					<path id="path4677_10_" class="st13" d="M3785.27-702.78c0,0,5.66,4.06,6.41,8.05c0,0-1.31-2.71-5.5-4.98
						C3786.18-699.71,3784.01-701.82,3785.27-702.78"/>
				</g>
				<g id="g4679_11_" transform="translate(27.4551,73.208)">
					<path id="path4681_11_" class="st12" d="M3783.78-704.09c0,0,4.26,1.66,5.43-1.51c0,0,2.33,1.61,2.73,3.07
						c0,0-2.83,6.84,5.2,6.89c0,0,0.46,3.22-4.95,5.73c0,0-1.11-7.29-10.5-12.48L3783.78-704.09z"/>
				</g>
				<g id="g4683_11_" transform="translate(76.1167,88.0498)">
					<path id="path4685_11_" class="st13" d="M3776.51-706.36c0,0,4.55-3.07,8.58-4.78l-0.61-1.41c0,0-3.38,3.77-9.29,3.09
						L3776.51-706.36z"/>
				</g>
				<g id="g4687_11_" transform="translate(72.5547,79.0254)">
					<path id="path4689_11_" class="st13" d="M3777.04-704.98c0,0,3.28,2.97,9.95-1.96l0.91,2.85c0,0-3.28,3.99-9.49,2.94
						C3778.4-701.16,3776.99-704.28,3777.04-704.98"/>
				</g>
				<g id="g4691_11_" transform="translate(83.2998,72.4355)">
					<path id="path4693_11_" class="st13" d="M3775.44-703.97c0,0-2.52,3.92-10.05,3.62l0.3,0.76l0.6,0.2l1.16,1.21
						c0,0,5.4,0.91,8.74-2.89L3775.44-703.97z"/>
				</g>
				<g id="g4695_10_" transform="translate(75.5234,75.4639)">
					<path id="path4697_10_" class="st12" d="M3776.6-704.44c0,0-4.6-2.57-4.49-8c0,0-2.52,0.35-4.6-1.51
						C3767.51-713.94,3766.45-703.53,3776.6-704.44"/>
				</g>
				<g id="g4699_10_" transform="translate(70.7739,66.0254)">
					<path id="path4701_10_" class="st12" d="M3777.31-703c0,0,7.22,0.35,9.09-6.69c0,0,4.39,6.39,0.91,11.57c0,0-1.36,2.21-5,2.92
						C3782.31-695.2,3777.56-697.11,3777.31-703"/>
				</g>
				<g id="g4703_10_" transform="translate(46.7905,42.3672)">
					<path id="path4705_10_" class="st12" d="M3780.89-699.38c0,0,22.65-1.89,23.63-3.24c0,0,1.82-9.06,1.14-18.79l4.92,2.34
						c0,0,1.04,23.69-1.11,31.47c0,0-0.13,6.92-7.58,7.31c0,0-4.19,1.44-8.81-6.1C3793.08-686.41,3788.16-693.73,3780.89-699.38"/>
				</g>
				<g id="g4707_10_" transform="translate(45.7217,41.5664)">
					<path id="path4709_10_" class="st14" d="M3781.05-699.26c0,0-1.14-0.75-0.91-3.92c0,0,15.45-0.53,21.13-2.72
						c0,0,2.27-1.74,1.67-14.71l3.03-0.45c0,0,1.14,13.36-1.44,19.09C3804.53-701.98,3787.94-699.41,3781.05-699.26"/>
				</g>
				<g id="g4711_10_" transform="translate(68.874,32.8408)">
					<path id="path4713_10_" class="st15" d="M3777.59-697.93c0,0,1.97-3.93,1.36-14.41l-12.12-5.06
						C3766.83-717.4,3770.02-702.68,3777.59-697.93"/>
				</g>
				<g id="g4715_10_" transform="translate(67.8945,33.375)">
					<path id="path4717_10_" class="st13" d="M3777.74-698.01c0,0-6.51-3.32-10.83-19.92c0,0-0.15-1.06-14.92,3.7
						c0,0-2.27,0.53-1.44,4.91c0,0,1.13,8.47,7.39,13.51C3757.94-695.82,3773.65-696.43,3777.74-698.01"/>
				</g>
				<g id="g4719_11_" transform="translate(131.623,84.3691)">
					<path id="path4721_11_" class="st13" d="M3768.22-705.79c0,0,2.88,1.36,7.78,5.43c0,0,1.46-2.57,1.87-4.53
						c0,0-5.45,0.81-9.04-3.12C3768.83-708.01,3768.34-706.94,3768.22-705.79"/>
				</g>
				<g id="g4723_11_" transform="translate(132.4541,80.9844)">
					<path id="path4725_11_" class="st13" d="M3768.09-705.28c0,0,3.23,4.28,9.14,3.02c0,0,1.31-3.12,1.92-4.18
						c0,0-6.06,1.26-10.05-2.92C3769.1-709.35,3768.2-705.93,3768.09-705.28"/>
				</g>
				<g id="g4727_10_" transform="translate(134.1162,75.583)">
					<path id="path4729_10_" class="st13" d="M3767.85-704.45c0,0,3.94,4.53,10.1,2.52c0,0,0.91-1.61,1.51-3.07
						c0,0-7.47,1.61-10.71-4.02C3768.76-709.03,3767.5-705.66,3767.85-704.45"/>
				</g>
				<g id="g4731_10_" transform="translate(146.2861,73.9199)">
					<path id="path4733_10_" class="st12" d="M3766.03-704.2c0,0,2.27-3.07,1.72-8.25c0,0,2.22,0.1,4.04-1.56
						C3771.79-714.01,3773.55-704.6,3766.03-704.2"/>
				</g>
				<g id="g4735_10_" transform="translate(145.0986,73.9199)">
					<path id="path4737_10_" class="st12" d="M3766.21-704.2c0,0,2.73-2.16,2.27-8.25c0,0-5.35,0.45-8.58-5.53
						c0,0-4.09,4.83-1.47,9.96C3758.43-708.02,3760.9-703.95,3766.21-704.2"/>
				</g>
				<g id="g4739_10_" transform="translate(143.792,13.665)">
					<path id="path4741_10_" class="st12" d="M3766.4-695c0,0-7.41,6.94-7.54,9.06c0,0-1.8,14.44,3.43,28.22
						c0,0,4.01,7.7,10.98,3.47c0,0,8.78-8.05,17.82-12.68c0,0,2.68-2.01,4.19-3.42c0,0-18.58,2.21-25.45-2.42
						C3769.84-672.77,3765.8-676.29,3766.4-695"/>
				</g>
				<g id="g4743_10_" transform="translate(144.7422,13.25)">
					<path id="path4745_10_" class="st14" d="M3766.26-694.94c0,0-1.51,22.41,5.53,23.39c0,0,8.41,2.19,18.86,1.36
						c0,0,4.62-0.15,4.85-2.49v-3.02c0,0-0.91,3.44-11.87,2.34c0,0-11.26,0.15-12.32-4.48c0,0-1.72-7.85-2.37-16.75
						C3768.94-694.59,3768.03-694.99,3766.26-694.94"/>
				</g>
				<g id="g4747_10_" transform="translate(151.6875,33.5527)">
					<path id="path4749_10_" class="st15" d="M3765.22-698.04c0,0,9.77-10.64,10.68-23.39c0,0-9.38,5.5-13.41,6.87
						C3762.5-714.57,3763.71-702.19,3765.22-698.04"/>
				</g>
				<g id="g4751_10_" transform="translate(165.3125,5.4141)">
					<path id="path4753_10_" class="st13" d="M3763.19-693.75c0,0,4.62,0.45,6.67,1.74c0,0,8.18,1.73,9.62,3.24
						c0,0,0.07,20.37-8.94,22.26c0,0-14.16,1.06-18.25-2.49C3752.28-669,3762.35-680.46,3763.19-693.75"/>
				</g>
				<g id="g4755_11_" transform="translate(59.5322,107.9336)">
					<path id="path4757_11_" class="st13" d="M3778.99-709.39c21.45-13.11,64.58-8.24,77.33,9.86c0.13-3.16,0.91-5.05,2.02-6.24
						c-0.15-0.59-0.29-1.23-0.53-1.84c-6.33-16.07-49.51-25.6-71.91-10.99C3781.64-714.37,3780.05-711.33,3778.99-709.39"/>
				</g>
				<g id="g4759_11_" transform="translate(58.7358,108.3521)">
					<path id="path4761_11_" class="st16" d="M3779.1-709.46c22.19-13.46,66.07-8.42,78.51,9.88"/>
				</g>
				<g id="g4763_11_" transform="translate(153.1299,112.3247)">
					<path id="path4765_11_" class="st16" d="M3765.01-710.06c-0.15-0.59-0.29-1.23-0.53-1.84c-6.33-16.07-49.37-26.09-73.01-10.7"
						/>
				</g>
				<g id="g4767_11_" transform="translate(85.3184,87.9385)">
					<path id="path4769_11_" class="st17" d="M3775.13-706.34c2.03-0.8,9.3-1.8,13.52-1.23v12.85c-3.94-0.22-11.31,0.16-13.52,0.62
						V-706.34z"/>
				</g>
				<g id="g4771_11_" transform="translate(88.3164,92.999)">
					<path id="path4773_11_" class="st3" d="M3774.69-707.11c-0.05,0.06-0.12,0.09-0.19,0.09c-0.07,0-0.14-0.02-0.19-0.07
						c-0.05-0.05-0.08-0.12-0.08-0.19c0-0.08,0.03-0.14,0.08-0.2c0.05-0.06,0.11-0.09,0.19-0.09c0.08,0,0.14,0.02,0.2,0.07
						c0.05,0.05,0.08,0.12,0.08,0.19C3774.77-707.23,3774.74-707.17,3774.69-707.11 M3778.18-704.17l-0.41,0.02v-2.47
						c0-0.24,0.01-0.41,0.02-0.52l-0.01,0l-0.14,0.24l-1.74,2.82l-0.53,0.02v-3.5l0.41-0.02v2.53c0,0.25-0.01,0.41-0.02,0.48h0.01
						c0.03-0.08,0.07-0.16,0.11-0.23l1.8-2.87l0.5-0.02V-704.17z M3780.83-707.41l-1.44,0.06v1.22l1.26-0.05v0.37l-1.26,0.05v1.17
						l1.36-0.06v0.37l-1.77,0.07v-3.5l1.85-0.08V-707.41z M3783.56-704.39l-2.42,0.1v-0.37l1.01-0.04v-3.13l0.41-0.02v3.13l1-0.04
						V-704.39z"/>
				</g>
			</g>
		</g>
	</g>
	<g>
		<g>
			<path class="st3" d="M1155.27,276.9c0.9-0.33,1.9-0.28,2.76,0.15l4.37,2.18c1.11,0.55,1.81,1.65,1.81,2.85v14.31
				c0,1.2-0.7,2.3-1.81,2.85l-4.37,2.18c-0.85,0.43-1.86,0.48-2.76,0.15l-12.42-4.58c-1.3-0.48-2.15-1.67-2.15-3v-9.51
				c0-1.33,0.86-2.52,2.15-3L1155.27,276.9z"/>
		</g>
		<path class="st18" d="M1161.9,280.23l-4.37-2.18c-0.58-0.29-1.26-0.32-1.87-0.1l-12.42,4.58c-0.88,0.32-1.42,1.11-1.42,1.95V294
			c0,0.84,0.54,1.63,1.42,1.95l12.42,4.58c0.61,0.22,1.29,0.19,1.87-0.1l4.37-2.18c0.75-0.37,1.19-1.09,1.19-1.85v-14.31
			C1163.09,281.32,1162.65,280.6,1161.9,280.23z M1158.03,277.05c-0.85-0.43-1.86-0.48-2.76-0.15l-12.42,4.58
			c-1.3,0.48-2.15,1.67-2.15,3V294c0,1.33,0.86,2.52,2.15,3l12.42,4.58c0.9,0.33,1.9,0.28,2.76-0.15l4.37-2.18
			c1.11-0.55,1.81-1.65,1.81-2.85v-14.31c0-1.2-0.7-2.3-1.81-2.85L1158.03,277.05z"/>
		<path class="st19" d="M1146.39,293.98c-0.19,0.17-0.46,0.21-0.7,0.11l-1.22-0.52c-0.25-0.11-0.41-0.36-0.41-0.64v-7.38
			c0-0.28,0.16-0.53,0.41-0.64l1.22-0.52c0.23-0.1,0.5-0.06,0.7,0.11l0.27,0.24c-0.25-0.18-0.59,0-0.59,0.31v8.37
			c0,0.31,0.34,0.49,0.59,0.31L1146.39,293.98z"/>
		<g>
			<path class="st20" d="M1144.48,293.56c-0.26-0.11-0.43-0.36-0.43-0.64v-0.06c0,0.37,0.46,0.54,0.7,0.27l10.84-11.95
				c0.31-0.31,0.79-0.39,1.19-0.2l3.46,1.66c0.36,0.17,0.59,0.54,0.59,0.94v0.04c0-0.56-0.65-0.86-1.08-0.51l-13,10.62l-0.29,0.24
				c-0.2,0.17-0.48,0.22-0.72,0.11L1144.48,293.56z"/>
		</g>
		<g>
			<path class="st21" d="M1144.48,284.92c-0.26,0.11-0.43,0.36-0.43,0.64v0.06c0-0.37,0.46-0.54,0.7-0.27l10.84,11.95
				c0.31,0.31,0.79,0.39,1.19,0.2l3.46-1.66c0.36-0.17,0.59-0.54,0.59-0.94v-0.04c0,0.56-0.65,0.86-1.08,0.51l-13-10.62l-0.29-0.24
				c-0.2-0.17-0.48-0.22-0.72-0.11L1144.48,284.92z"/>
		</g>
		<g>
			<path class="st22" d="M1156.82,297.5c-0.4,0.19-0.87,0.11-1.19-0.2c0.38,0.39,1.04,0.11,1.04-0.44v-15.25
				c0-0.55-0.66-0.82-1.04-0.44c0.31-0.31,0.79-0.4,1.19-0.2l3.44,1.67c0.36,0.18,0.59,0.54,0.59,0.95v11.3
				c0,0.4-0.23,0.77-0.59,0.95L1156.82,297.5z"/>
		</g>
	</g>
</g>
</svg>
