<?xml version="1.0" encoding="utf-8"?>
<!-- Generator: Adobe Illustrator 23.1.1, SVG Export Plug-In . SVG Version: 6.00 Build 0)  -->
<svg version="1.1" id="Layer_1" xmlns="http://www.w3.org/2000/svg" xmlns:xlink="http://www.w3.org/1999/xlink" x="0px" y="0px"
	 viewBox="0 0 730 730" style="enable-background:new 0 0 730 730;" xml:space="preserve">
<style type="text/css">
	.st0{fill:url(#SVGID_1_);}
	.st1{fill:#9E83E3;}
	.st2{fill:#FFB900;}
	.st3{fill:#FFD055;}
	.st4{fill:#FFE8AA;}
	.st5{fill:#E3646A;}
	.st6{fill:url(#SVGID_2_);}
	.st7{fill:url(#SVGID_3_);}
	.st8{fill:url(#SVGID_4_);}
	.st9{fill:#8C6BC2;}
	.st10{fill:#FFFFFF;}
	.st11{fill-rule:evenodd;clip-rule:evenodd;fill:#854CC7;}
	.st12{fill:#52218A;}
	.st13{fill:#6C33AF;}
	.st14{fill:#854CC7;}
	.st15{fill:#B179F1;}
</style>
<g>
	<g>
		<radialGradient id="SVGID_1_" cx="306.6476" cy="783.3914" r="453.6567" gradientUnits="userSpaceOnUse">
			<stop  offset="0.1162" style="stop-color:#8C6BC2"/>
			<stop  offset="0.8056" style="stop-color:#6F45A4"/>
			<stop  offset="0.9935" style="stop-color:#5C2D91"/>
		</radialGradient>
		<circle class="st0" cx="364.5" cy="386.02" r="294.6"/>
		<path class="st1" d="M515.6,570.95c-2.82-0.06-5.59,0.08-8.31,0.39c-0.98-36.96-29.78-67.94-67.45-70.83
			c-28.67-2.21-54.74,12.45-68.48,35.62h-94.49c-3.84-10.29-12.4-18.32-23.1-21.4c1.75-5.21,2.75-10.78,2.88-16.57
			c0.69-30.89-23.8-56.48-54.68-57.17c-22.93-0.51-42.94,12.86-52.01,32.42c-4.94-2.02-10.31-3.2-15.96-3.33
			c-17.4-0.39-32.69,9.22-40.41,23.56c-1.26-0.44-2.55-0.83-3.85-1.18c42.68,110.1,149.6,188.17,274.77,188.17
			c78.27,0,149.41-30.54,202.17-80.33C556.09,583.09,537.29,571.43,515.6,570.95z"/>
		<circle class="st1" cx="542.63" cy="523.63" r="6.07"/>
		<circle class="st1" cx="129.94" cy="371.9" r="5.18"/>
		<circle class="st1" cx="169.09" cy="398.3" r="3.1"/>
		<circle class="st1" cx="401.28" cy="232.84" r="4.93"/>
		<circle class="st1" cx="604.13" cy="393.41" r="4.16"/>
		<circle class="st1" cx="346.58" cy="179.25" r="6.07"/>
		<circle class="st1" cx="603.45" cy="254.37" r="5.09"/>
		<circle class="st1" cx="527.2" cy="367.89" r="4.93"/>
		<path class="st1" d="M431.21,175.42c3.85-0.18,8.74-0.93,12.88-1.8c-4.3-1.2-8.75-1.66-12.85-1.71c-0.19-3.84-0.93-8.7-1.8-12.81
			c-1.21,4.3-1.66,8.76-1.71,12.86c-7.34,0.29-12.81,1.66-12.81,1.66s8.15,1.42,12.86,1.77c0.28,7.37,1.66,12.88,1.66,12.88
			S430.86,180.13,431.21,175.42z"/>
		<path class="st1" d="M571.42,341.57c3.84-0.18,8.72-0.93,12.84-1.79c-4.28-1.2-8.73-1.65-12.81-1.7
			c-0.19-3.83-0.93-8.67-1.79-12.77c-1.2,4.28-1.65,8.73-1.7,12.82c-7.31,0.29-12.77,1.65-12.77,1.65s8.12,1.42,12.82,1.76
			c0.28,7.35,1.66,12.84,1.66,12.84S571.07,346.26,571.42,341.57z"/>
		<path class="st1" d="M596.6,488.41c3.62-0.17,8.22-0.87,12.12-1.69c-4.04-1.13-8.23-1.56-12.09-1.61
			c-0.18-3.61-0.87-8.18-1.69-12.05c-1.13,4.04-1.56,8.24-1.61,12.1c-6.9,0.27-12.05,1.56-12.05,1.56s7.66,1.34,12.09,1.66
			c0.27,6.93,1.56,12.11,1.56,12.11S596.28,492.84,596.6,488.41z"/>
		<path class="st1" d="M260.63,394.7c3.74-0.18,8.48-0.9,12.5-1.75c-4.17-1.17-8.49-1.61-12.47-1.66c-0.18-3.73-0.9-8.44-1.74-12.43
			c-1.17,4.17-1.61,8.5-1.66,12.48c-7.12,0.28-12.43,1.61-12.43,1.61s7.91,1.38,12.47,1.72c0.28,7.15,1.61,12.5,1.61,12.5
			S260.29,399.26,260.63,394.7z"/>
		<path class="st1" d="M529.88,426.51c3.25-0.16,7.38-0.78,10.87-1.52c-3.62-1.02-7.39-1.4-10.85-1.44
			c-0.16-3.24-0.78-7.34-1.52-10.81c-1.02,3.63-1.4,7.39-1.44,10.85c-6.19,0.25-10.81,1.4-10.81,1.4s6.88,1.2,10.85,1.49
			c0.24,6.22,1.4,10.87,1.4,10.87S529.58,430.48,529.88,426.51z"/>
		<circle class="st1" cx="414.39" cy="131.85" r="3.74"/>
		<polygon class="st1" points="524.55,306.53 438.65,265.99 439.42,239.14 544.09,289.51 		"/>
		<path class="st2" d="M529.18,290.85l-80.82-38.15c-8-3.77-11.42-13.32-7.65-21.32L502.8,99.85c3.73-7.91,13.17-11.29,21.08-7.56
			l80.98,38.22c8,3.77,11.42,13.32,7.65,21.32l-62,131.37C546.73,291.2,537.18,294.62,529.18,290.85z"/>
		<path class="st1" d="M508.87,92.92l78.9-44.07c2.65-1.47,7.78,0.97,8.38,3.95l17.56,89.08L508.87,92.92z"/>
		
			<rect x="372.07" y="272.35" transform="matrix(0.9043 0.4268 -0.4268 0.9043 218.1154 -139.2574)" class="st2" width="95.31" height="289.2"/>
		
			<rect x="314.05" y="515.97" transform="matrix(0.9043 0.4268 -0.4268 0.9043 263.9652 -103.9533)" class="st2" width="99.68" height="41.84"/>
		<path class="st3" d="M256.09,555.41l38.16,18.01l95.6-202.55l-47.92,11.65c-3.03,0.74-5.56,2.8-6.89,5.62L256.09,555.41z"/>
		<path class="st3" d="M416.67,631.2l-38.16-18.01l95.6-202.55l20.43,42.26c2.01,4.16,2.03,9,0.06,13.18L416.67,631.2z"/>
		<path class="st3" d="M434.59,434.65c1.15-2.44,1.61-5.14,1.33-7.82l-3.35-31.91c-0.2-1.87-2.3-2.87-3.87-1.85l-26.57,17.28
			c-2.57,1.67-4.63,4.03-5.94,6.8l-78.9,167.04l38.2,18.03L434.59,434.65z"/>
		<g>
			
				<rect x="308.52" y="470.05" transform="matrix(0.4268 -0.9043 0.9043 0.4268 -266.621 561.6385)" class="st4" width="2.46" height="42.2"/>
			
				<rect x="348.44" y="385.47" transform="matrix(0.4268 -0.9043 0.9043 0.4268 -167.25 549.259)" class="st4" width="2.46" height="42.2"/>
			
				<rect x="328.48" y="427.76" transform="matrix(0.4268 -0.9043 0.9043 0.4268 -216.9355 555.4487)" class="st4" width="2.46" height="42.2"/>
		</g>
		<g>
			
				<rect x="369.71" y="498.92" transform="matrix(0.4271 -0.9042 0.9042 0.4271 -257.7062 633.3016)" class="st4" width="2.46" height="42.22"/>
			
				<rect x="389.68" y="456.64" transform="matrix(0.4271 -0.9042 0.9042 0.4271 -208.0327 627.1317)" class="st4" width="2.46" height="42.21"/>
			
				<rect x="409.65" y="414.36" transform="matrix(0.427 -0.9042 0.9042 0.427 -158.3367 621.0314)" class="st4" width="2.46" height="42.2"/>
		</g>
		<g>
			
				<rect x="430.94" y="527.83" transform="matrix(0.4268 -0.9043 0.9043 0.4268 -248.7033 705.465)" class="st4" width="2.46" height="42.2"/>
			
				<rect x="450.9" y="485.54" transform="matrix(0.4268 -0.9043 0.9043 0.4268 -199.0178 699.2753)" class="st4" width="2.46" height="42.2"/>
			
				<rect x="470.86" y="443.25" transform="matrix(0.4268 -0.9043 0.9043 0.4268 -149.3323 693.0855)" class="st4" width="2.46" height="42.2"/>
		</g>
		<g>
			<path class="st4" d="M454.52,386.33c-0.28,0.6-0.74,1.01-1.37,1.23c-0.63,0.22-1.24,0.19-1.84-0.09
				c-0.6-0.28-1.01-0.74-1.25-1.37c-0.24-0.63-0.21-1.24,0.07-1.84c0.29-0.61,0.75-1.03,1.39-1.25c0.64-0.22,1.26-0.19,1.85,0.09
				c0.6,0.28,1.01,0.74,1.24,1.37C454.84,385.1,454.81,385.72,454.52,386.33z"/>
			<path class="st4" d="M468.49,355.61l-1.9,4.02l-29.08,3.87c-0.73,0.1-1.46,0.12-2.18,0.07l-0.05,0.12
				c0.65,0.18,1.95,0.73,3.91,1.66l20.2,9.53l-1.55,3.28l-27.96-13.2l2.01-4.25l28.55-3.65c1.19-0.16,1.99-0.24,2.41-0.25l0.04-0.08
				c-0.87-0.25-2.27-0.83-4.21-1.75l-19.69-9.3l1.55-3.28L468.49,355.61z"/>
			<path class="st4" d="M478.95,333.46l-6.99,14.82l-27.96-13.2l6.7-14.19l2.96,1.4l-5.15,10.92l9.3,4.39l4.77-10.1l2.94,1.39
				l-4.77,10.1l9.79,4.62l5.45-11.54L478.95,333.46z"/>
			<path class="st4" d="M464.33,299.67l-3.81,8.07l25,11.8l-1.55,3.28l-25-11.8l-3.8,8.05l-2.96-1.4l9.16-19.4L464.33,299.67z"/>
		</g>
		<g>
			<g>
				<g>
					<path class="st4" d="M554,194.89c0.64-1.37,0.03-3-1.33-3.65l-40.83-18.97c-0.67-0.31-1.41-0.34-2.1-0.09
						c-0.69,0.25-1.24,0.76-1.55,1.42l-12,25.77c-0.25,0.53-0.28,1.13-0.07,1.69c0.2,0.55,0.6,0.99,1.13,1.24c0,0,0.01,0,0.01,0.01
						l15.89,7.38l-2.5,5.3l-4.36-2.06c-1.07-0.51-2.36-0.05-2.86,1.03c-0.51,1.07-0.05,2.36,1.03,2.86l18.9,8.92
						c1.07,0.51,2.36,0.05,2.86-1.03c0.51-1.07,0.05-2.36-1.03-2.86l-4.36-2.06l2.53-5.36l15.71,7.3c1.1,0.51,2.41,0.03,2.92-1.07
						L554,194.89z"/>
					<path class="st4" d="M521.55,246.31c0.32-2.4-0.93-4.71-3.12-5.74l-3.46-1.63c-0.9-0.43-1.97-0.22-2.65,0.51l-10.97-5.19
						c0.04-0.96-0.66-2.06-1.61-2.51l-3-1.41c-2.19-1.03-4.77-0.54-6.42,1.24l-11.47,12.35c-2.08,2.24-1.95,5.75,0.29,7.82
						c0.42,0.39,0.89,0.71,1.4,0.95c1.5,0.71,3.52,0.63,5.08-0.19l7.39-3.05c0.49-0.2,1.04-0.19,1.52,0.04l10.49,4.95
						c0.48,0.23,0.84,0.64,1,1.15l2.35,7.65c0.5,1.43,1.3,3.19,3.07,4.03c0.51,0.24,1.06,0.4,1.63,0.48
						c3.02,0.41,5.82-1.72,6.22-4.75L521.55,246.31z"/>
					<path class="st4" d="M530.98,162.3c0.3,0.82,0.9,1.48,1.68,1.85c0,0,0.01,0,0.01,0.01l13.52,6.32c1.64,0.77,3.6,0.06,4.36-1.58
						l15.1-32.25c0.37-0.79,0.41-1.69,0.11-2.51c-0.3-0.83-0.92-1.43-1.7-1.86l-13.52-6.32c-1.64-0.77-3.6-0.06-4.36,1.58
						l-15.1,32.25C530.72,160.58,530.68,161.47,530.98,162.3z"/>
				</g>
				<path class="st2" d="M562.62,136.08c0.08-0.17,0.02-0.36-0.13-0.43l-2.09-0.98l-1.43,1.34c-0.23,0.21-0.54,0.27-0.8,0.15
					l-6.72-3.17c-0.27-0.13-0.42-0.43-0.39-0.75l0.21-1.83l-2.2-1.03c-0.15-0.07-0.33,0.01-0.41,0.17l-14.29,30.73
					c-0.08,0.16-0.02,0.35,0.13,0.42l13.15,6.45c0.15,0.07,0.34,0,0.41-0.17L562.62,136.08z"/>
			</g>
			<polygon class="st2" points="539.38,217.94 500.04,199.66 511.12,175.76 550.46,194.04 			"/>
			<g>
				<circle class="st2" cx="495.07" cy="237.49" r="3.83"/>
				<circle class="st2" cx="514.09" cy="246.47" r="3.83"/>
				<path class="st2" d="M507.1,243.81l-5.77-2.72c-0.57-0.27-0.82-0.95-0.55-1.53l0,0c0.27-0.57,0.95-0.82,1.53-0.55l5.77,2.72
					c0.57,0.27,0.82,0.95,0.55,1.53l0,0C508.36,243.83,507.67,244.08,507.1,243.81z"/>
				<circle class="st2" cx="496.59" cy="245.76" r="1.79"/>
				<circle class="st2" cx="506.86" cy="250.6" r="1.79"/>
			</g>
		</g>
		<path class="st5" d="M243.22,582.44c-14.26,11.1-30.52,38.78-30.52,38.78l5.56-3.49c0,0-3.75,8.65-7.31,19.74
			c16.63,10.18,34.35,18.76,52.95,25.51c0.84-1.3,1.65-2.63,2.42-3.98c6.6-11.73,11.06-29.08,11.06-29.08l1.49,7.7
			c0,0,4.66-25.45,4.51-36.02C283.29,596.75,243.22,582.44,243.22,582.44z"/>
		
			<radialGradient id="SVGID_2_" cx="264.3695" cy="646.928" r="89.0662" fx="239.6196" fy="646.8464" gradientUnits="userSpaceOnUse">
			<stop  offset="0" style="stop-color:#FAE969"/>
			<stop  offset="0" style="stop-color:#F7B548"/>
			<stop  offset="1" style="stop-color:#E3646A"/>
		</radialGradient>
		<path class="st6" d="M252.16,591.95l-5.07-2.42c0,0-13.33,14.86-23.59,35.27c-2.48,4.93-3.99,10.94-4.86,17.23
			c10.91,6.23,22.27,11.77,34,16.59c4.44-4.69,8.26-9.73,10.57-14.85c9.42-20.81,12.61-40.52,12.61-40.52l-16.47-7.87L252.16,591.95
			z"/>
		<path class="st5" d="M364.34,640.92c-14.1,10.45-29.86,36.96-29.86,36.96l5.52-3.27c0,0-0.78,1.81-1.94,4.81
			c8.71,0.78,17.53,1.19,26.45,1.19c13.36,0,26.52-0.91,39.41-2.63c0.79-6.47,1.41-13.27,1.25-17.57
			C404.98,655.7,364.34,640.92,364.34,640.92z"/>
		
			<radialGradient id="SVGID_3_" cx="387.3225" cy="675.0833" r="63.596" fx="369.6504" fy="675.025" gradientUnits="userSpaceOnUse">
			<stop  offset="0" style="stop-color:#FAE969"/>
			<stop  offset="0" style="stop-color:#F7B548"/>
			<stop  offset="1" style="stop-color:#E3646A"/>
		</radialGradient>
		<path class="st7" d="M373.55,650.36l-5.16-2.46c0,0-12.39,13.39-22.16,32.15c6.04,0.37,12.13,0.58,18.27,0.58
			c9.85,0,19.58-0.49,29.18-1.44c2.89-10.16,3.93-17.34,3.93-17.34l-16.75-8L373.55,650.36z"/>
		<path class="st5" d="M302.81,611.13c-8.71,7.44-26.67,29.48-26.67,29.48l7.17-4.3c0,0-10.37,14.53-16.2,27.81
			c19.29,6.76,39.49,11.57,60.38,14.19c0.87-1.6,1.35-2.53,1.35-2.53l0.19,2.7c0.61,0.07,1.22,0.14,1.83,0.21
			c3.41-9.48,11.37-33.18,11.74-48.56C342.61,630.14,306.82,607.7,302.81,611.13z"/>
		
			<radialGradient id="SVGID_4_" cx="322.9623" cy="667.2778" r="82.8754" fx="299.9327" fy="667.2018" gradientUnits="userSpaceOnUse">
			<stop  offset="0" style="stop-color:#FAE969"/>
			<stop  offset="0" style="stop-color:#F7B548"/>
			<stop  offset="1" style="stop-color:#E3646A"/>
		</radialGradient>
		<path class="st8" d="M322.34,626.26l-16.33-7.8c0,0-14.16,16.72-25.47,39.31c-1.46,2.92-2.66,6.17-3.63,9.61
			c13.82,4.3,28.08,7.61,42.7,9.84c0.1-0.21,0.22-0.43,0.32-0.64c10.47-23,14.57-44.52,14.57-44.52l-5.03-2.4L322.34,626.26z"/>
		<g>
			<polygon class="st2" points="284.11,609.24 235.24,586.18 265.72,550.43 292.33,562.99 			"/>
			<polygon class="st2" points="406.35,666.94 357.49,643.87 387.97,608.13 414.57,620.69 			"/>
			<polygon class="st2" points="345.14,638.05 296.28,614.99 326.76,579.24 353.36,591.8 			"/>
			
				<rect x="387.77" y="585.61" transform="matrix(0.4268 -0.9043 0.9043 0.4268 -316.5874 713.9219)" class="st9" width="34.26" height="42.2"/>
			<polygon class="st9" points="331.88,553.31 317.29,584.2 355.49,602.23 370.07,571.33 			"/>
			
				<rect x="265.35" y="527.83" transform="matrix(0.4268 -0.9043 0.9043 0.4268 -334.5051 570.0954)" class="st9" width="34.26" height="42.2"/>
		</g>
		<g>
			<path class="st10" d="M155.79,240.62l-6.22,17.32h-3.21l-6.11-17.32h3.14l4.28,13.14c0.14,0.42,0.24,0.91,0.31,1.46h0.05
				c0.06-0.46,0.17-0.95,0.35-1.49l4.37-13.12H155.79z"/>
			<path class="st10" d="M159.18,242.97c-0.46,0-0.85-0.15-1.18-0.45s-0.49-0.68-0.49-1.14s0.16-0.84,0.49-1.15
				c0.33-0.31,0.72-0.46,1.18-0.46c0.48,0,0.88,0.15,1.21,0.46c0.33,0.31,0.5,0.69,0.5,1.15c0,0.44-0.17,0.81-0.5,1.12
				C160.06,242.82,159.65,242.97,159.18,242.97z M160.57,257.94h-2.8v-12.37h2.8V257.94z"/>
			<path class="st10" d="M163.46,257.55v-2.6c1.05,0.8,2.2,1.2,3.47,1.2c1.69,0,2.54-0.5,2.54-1.5c0-0.28-0.07-0.52-0.22-0.72
				s-0.34-0.37-0.59-0.53c-0.25-0.15-0.54-0.29-0.87-0.41c-0.33-0.12-0.71-0.26-1.12-0.41c-0.51-0.2-0.96-0.41-1.37-0.64
				c-0.41-0.23-0.75-0.48-1.01-0.77c-0.27-0.29-0.47-0.61-0.61-0.97s-0.21-0.79-0.21-1.27c0-0.6,0.14-1.12,0.42-1.58
				c0.28-0.46,0.66-0.84,1.14-1.15c0.48-0.31,1.01-0.54,1.62-0.7c0.6-0.16,1.23-0.24,1.87-0.24c1.14,0,2.17,0.17,3.07,0.52v2.45
				c-0.87-0.6-1.87-0.89-3-0.89c-0.35,0-0.67,0.04-0.96,0.11c-0.29,0.07-0.53,0.17-0.73,0.3c-0.2,0.13-0.36,0.28-0.47,0.46
				c-0.11,0.18-0.17,0.38-0.17,0.6c0,0.27,0.06,0.49,0.17,0.68c0.11,0.19,0.28,0.35,0.5,0.49c0.22,0.14,0.49,0.27,0.8,0.39
				c0.31,0.12,0.67,0.24,1.07,0.38c0.53,0.22,1.01,0.44,1.43,0.66s0.78,0.48,1.08,0.77c0.3,0.29,0.53,0.62,0.69,0.99
				c0.16,0.37,0.24,0.82,0.24,1.33c0,0.63-0.15,1.18-0.43,1.64c-0.29,0.47-0.68,0.85-1.16,1.16c-0.48,0.31-1.04,0.53-1.67,0.68
				c-0.63,0.15-1.3,0.22-2,0.22C165.62,258.23,164.45,258,163.46,257.55z"/>
			<path class="st10" d="M185.68,257.94h-2.8v-1.96h-0.05c-0.81,1.5-2.08,2.25-3.79,2.25c-2.92,0-4.38-1.76-4.38-5.27v-7.39h2.8v7.1
				c0,2.22,0.86,3.33,2.57,3.33c0.83,0,1.51-0.31,2.05-0.92c0.54-0.61,0.8-1.41,0.8-2.4v-7.11h2.8V257.94z"/>
			<path class="st10" d="M198.82,257.94h-2.72v-1.93h-0.05c-0.85,1.48-2.11,2.22-3.76,2.22c-1.22,0-2.17-0.33-2.86-0.99
				s-1.03-1.53-1.03-2.62c0-2.33,1.34-3.7,4.03-4.08l3.67-0.52c0-1.76-0.84-2.65-2.51-2.65c-1.47,0-2.8,0.51-3.99,1.52v-2.45
				c1.3-0.77,2.81-1.16,4.52-1.16c3.12,0,4.69,1.54,4.69,4.61V257.94z M196.12,251.86l-2.6,0.36c-0.81,0.11-1.41,0.3-1.82,0.59
				c-0.41,0.29-0.61,0.79-0.61,1.5c0,0.52,0.19,0.95,0.56,1.29c0.37,0.33,0.88,0.5,1.5,0.5c0.85,0,1.56-0.3,2.12-0.9
				c0.56-0.6,0.84-1.35,0.84-2.26V251.86z"/>
			<path class="st10" d="M205.06,257.94h-2.81v-18.31h2.81V257.94z"/>
			<path class="st10" d="M215.02,257.25v-2.96c0.27,0.24,0.58,0.46,0.95,0.65c0.37,0.19,0.75,0.36,1.17,0.49
				c0.41,0.13,0.82,0.24,1.23,0.31s0.79,0.11,1.14,0.11c1.21,0,2.11-0.2,2.7-0.6c0.59-0.4,0.89-0.99,0.89-1.75
				c0-0.41-0.1-0.77-0.3-1.07c-0.2-0.3-0.47-0.58-0.83-0.83c-0.35-0.25-0.77-0.49-1.25-0.72c-0.48-0.23-0.99-0.47-1.54-0.72
				c-0.59-0.31-1.14-0.63-1.64-0.95s-0.95-0.68-1.32-1.07c-0.37-0.39-0.67-0.83-0.88-1.32c-0.21-0.49-0.32-1.07-0.32-1.73
				c0-0.81,0.18-1.52,0.55-2.12c0.37-0.6,0.85-1.09,1.45-1.49c0.6-0.39,1.28-0.68,2.05-0.87c0.76-0.19,1.55-0.28,2.34-0.28
				c1.81,0,3.13,0.21,3.96,0.62v2.84c-0.98-0.71-2.25-1.06-3.79-1.06c-0.43,0-0.85,0.04-1.27,0.12c-0.42,0.08-0.8,0.21-1.14,0.4
				c-0.33,0.18-0.61,0.42-0.82,0.71c-0.21,0.29-0.31,0.64-0.31,1.05c0,0.39,0.08,0.72,0.24,1c0.16,0.28,0.4,0.54,0.71,0.77
				c0.31,0.23,0.69,0.46,1.14,0.68c0.45,0.22,0.96,0.46,1.55,0.72c0.6,0.31,1.17,0.64,1.71,0.99c0.54,0.35,1.01,0.73,1.41,1.15
				c0.41,0.42,0.73,0.88,0.97,1.4c0.24,0.51,0.36,1.09,0.36,1.75c0,0.88-0.18,1.62-0.53,2.22c-0.35,0.6-0.83,1.1-1.43,1.47
				c-0.6,0.38-1.29,0.65-2.07,0.82s-1.61,0.25-2.48,0.25c-0.29,0-0.65-0.02-1.07-0.07c-0.42-0.04-0.86-0.11-1.3-0.19
				s-0.86-0.19-1.26-0.31C215.58,257.54,215.26,257.41,215.02,257.25z"/>
			<path class="st10" d="M234.78,257.81c-0.55,0.27-1.27,0.41-2.16,0.41c-2.4,0-3.6-1.15-3.6-3.45v-6.99h-2.07v-2.2h2.07v-2.86
				l2.8-0.8v3.66h2.96v2.2h-2.96v6.18c0,0.73,0.13,1.26,0.4,1.57c0.27,0.31,0.71,0.47,1.33,0.47c0.48,0,0.89-0.14,1.23-0.41V257.81z
				"/>
			<path class="st10" d="M247.99,257.94h-2.8v-1.96h-0.05c-0.81,1.5-2.08,2.25-3.79,2.25c-2.92,0-4.38-1.76-4.38-5.27v-7.39h2.8v7.1
				c0,2.22,0.86,3.33,2.57,3.33c0.83,0,1.51-0.31,2.05-0.92c0.54-0.61,0.8-1.41,0.8-2.4v-7.11h2.8V257.94z"/>
			<path class="st10" d="M262.88,257.94h-2.8v-2.1h-0.05c-0.9,1.59-2.29,2.39-4.17,2.39c-1.52,0-2.74-0.55-3.65-1.66
				c-0.91-1.11-1.37-2.62-1.37-4.52c0-2.05,0.51-3.68,1.52-4.92c1.01-1.23,2.36-1.85,4.04-1.85c1.67,0,2.88,0.67,3.64,2h0.05v-7.66
				h2.8V257.94z M260.11,252.29v-1.62c0-0.88-0.29-1.62-0.86-2.24c-0.57-0.61-1.3-0.92-2.19-0.92c-1.05,0-1.87,0.39-2.47,1.17
				c-0.6,0.78-0.9,1.86-0.9,3.25c0,1.26,0.29,2.25,0.86,2.98c0.58,0.73,1.35,1.09,2.33,1.09c0.96,0,1.74-0.35,2.33-1.06
				C259.82,254.25,260.11,253.36,260.11,252.29z"/>
			<path class="st10" d="M267.95,242.97c-0.46,0-0.85-0.15-1.18-0.45s-0.49-0.68-0.49-1.14s0.16-0.84,0.49-1.15
				c0.33-0.31,0.72-0.46,1.18-0.46c0.48,0,0.88,0.15,1.21,0.46c0.33,0.31,0.5,0.69,0.5,1.15c0,0.44-0.17,0.81-0.5,1.12
				C268.83,242.82,268.43,242.97,267.95,242.97z M269.34,257.94h-2.8v-12.37h2.8V257.94z"/>
			<path class="st10" d="M278.49,258.23c-1.91,0-3.43-0.58-4.57-1.73c-1.14-1.16-1.71-2.69-1.71-4.6c0-2.08,0.59-3.7,1.78-4.87
				c1.19-1.17,2.79-1.75,4.8-1.75c1.93,0,3.44,0.57,4.52,1.7c1.08,1.14,1.62,2.71,1.62,4.72c0,1.97-0.58,3.55-1.75,4.74
				C282.02,257.64,280.45,258.23,278.49,258.23z M278.62,247.52c-1.1,0-1.96,0.38-2.6,1.15c-0.64,0.77-0.95,1.82-0.95,3.17
				c0,1.3,0.32,2.32,0.97,3.06c0.64,0.75,1.51,1.12,2.58,1.12c1.1,0,1.95-0.37,2.54-1.1c0.59-0.73,0.89-1.78,0.89-3.13
				c0-1.36-0.3-2.41-0.89-3.15C280.57,247.89,279.72,247.52,278.62,247.52z"/>
			<path class="st10" d="M301.57,241.91c-0.38-0.22-0.81-0.33-1.29-0.33c-1.36,0-2.04,0.77-2.04,2.31v1.68h2.88v2.2h-2.86v10.17
				h-2.8v-10.17h-2.11v-2.2h2.11v-2c0-1.3,0.43-2.33,1.28-3.09c0.85-0.75,1.92-1.13,3.2-1.13c0.69,0,1.24,0.08,1.64,0.23V241.91z"/>
			<path class="st10" d="M308.59,258.23c-1.91,0-3.43-0.58-4.57-1.73c-1.14-1.16-1.71-2.69-1.71-4.6c0-2.08,0.59-3.7,1.78-4.87
				c1.19-1.17,2.79-1.75,4.8-1.75c1.93,0,3.44,0.57,4.52,1.7c1.08,1.14,1.62,2.71,1.62,4.72c0,1.97-0.58,3.55-1.75,4.74
				C312.12,257.64,310.55,258.23,308.59,258.23z M308.72,247.52c-1.1,0-1.96,0.38-2.6,1.15c-0.64,0.77-0.95,1.82-0.95,3.17
				c0,1.3,0.32,2.32,0.97,3.06c0.64,0.75,1.51,1.12,2.58,1.12c1.1,0,1.95-0.37,2.54-1.1c0.59-0.73,0.89-1.78,0.89-3.13
				c0-1.36-0.3-2.41-0.89-3.15C310.67,247.89,309.82,247.52,308.72,247.52z"/>
			<path class="st10" d="M325.05,248.24c-0.34-0.27-0.83-0.4-1.46-0.4c-0.83,0-1.52,0.38-2.08,1.12c-0.56,0.75-0.83,1.77-0.83,3.06
				v5.92h-2.8v-12.37h2.8v2.55h0.05c0.27-0.87,0.69-1.55,1.26-2.04c0.57-0.49,1.2-0.73,1.9-0.73c0.51,0,0.89,0.08,1.16,0.23V248.24z
				"/>
			<path class="st10" d="M352.75,257.94h-2.85v-11.21c0-0.92,0.06-2.04,0.17-3.37h-0.05c-0.18,0.76-0.33,1.3-0.47,1.63l-5.17,12.95
				h-1.98l-5.18-12.85c-0.14-0.38-0.3-0.95-0.46-1.73h-0.05c0.06,0.69,0.1,1.82,0.1,3.39v11.19h-2.66v-17.32h4.05l4.55,11.54
				c0.35,0.89,0.57,1.55,0.68,1.98h0.06c0.3-0.91,0.54-1.59,0.72-2.03l4.64-11.49h3.9V257.94z"/>
			<path class="st10" d="M366.19,257.94h-2.72v-1.93h-0.05c-0.85,1.48-2.11,2.22-3.76,2.22c-1.22,0-2.17-0.33-2.86-0.99
				s-1.03-1.53-1.03-2.62c0-2.33,1.34-3.7,4.03-4.08l3.67-0.52c0-1.76-0.84-2.65-2.51-2.65c-1.47,0-2.8,0.51-3.99,1.52v-2.45
				c1.3-0.77,2.81-1.16,4.52-1.16c3.12,0,4.69,1.54,4.69,4.61V257.94z M363.49,251.86l-2.6,0.36c-0.81,0.11-1.41,0.3-1.82,0.59
				c-0.41,0.29-0.61,0.79-0.61,1.5c0,0.52,0.19,0.95,0.56,1.29c0.37,0.33,0.88,0.5,1.5,0.5c0.85,0,1.56-0.3,2.12-0.9
				c0.56-0.6,0.84-1.35,0.84-2.26V251.86z"/>
			<path class="st10" d="M378.47,257.37c-0.99,0.57-2.16,0.86-3.51,0.86c-1.84,0-3.32-0.57-4.45-1.72s-1.69-2.63-1.69-4.46
				c0-2.04,0.61-3.67,1.82-4.91c1.21-1.24,2.83-1.85,4.86-1.85c1.13,0,2.12,0.2,2.98,0.59v2.61c-0.86-0.64-1.78-0.97-2.75-0.97
				c-1.18,0-2.15,0.4-2.91,1.2c-0.76,0.8-1.14,1.85-1.14,3.15c0,1.28,0.36,2.29,1.07,3.03s1.67,1.11,2.87,1.11
				c1.01,0,1.96-0.36,2.85-1.08V257.37z"/>
		</g>
		<g>
			<g>
				<path class="st10" d="M267.86,146.05c2.74-1.01,5.81-0.85,8.41,0.45l13.34,6.67c3.39,1.69,5.51,5.06,5.51,8.72v43.8
					c0,3.67-2.12,7.03-5.51,8.72l-13.34,6.67c-2.61,1.3-5.67,1.47-8.41,0.45l-37.87-14.01c-3.95-1.46-6.56-5.11-6.56-9.18v-29.12
					c0-4.07,2.61-7.72,6.56-9.18L267.86,146.05z"/>
			</g>
			<path class="st11" d="M288.08,156.23l-13.34-6.67c-1.76-0.88-3.84-0.99-5.7-0.31l-37.87,14.01c-2.68,0.99-4.33,3.4-4.33,5.98
				v29.12c0,2.57,1.65,4.99,4.33,5.98l37.87,14.01c1.86,0.69,3.94,0.57,5.7-0.31l13.34-6.67c2.28-1.14,3.62-3.35,3.62-5.67v-43.8
				C291.71,159.58,290.36,157.37,288.08,156.23z M276.27,146.51c-2.61-1.3-5.67-1.47-8.41-0.45l-37.87,14.01
				c-3.95,1.46-6.56,5.11-6.56,9.18v29.12c0,4.07,2.61,7.72,6.56,9.18l37.87,14.01c2.74,1.01,5.81,0.85,8.41-0.45l13.34-6.67
				c3.39-1.69,5.51-5.06,5.51-8.72v-43.8c0-3.67-2.12-7.03-5.51-8.72L276.27,146.51z"/>
			<path class="st12" d="M240.78,198.3c-0.59,0.52-1.41,0.65-2.12,0.35l-3.72-1.6c-0.76-0.33-1.26-1.1-1.26-1.95v-22.58
				c0-0.85,0.5-1.63,1.26-1.95l3.72-1.6c0.71-0.31,1.54-0.17,2.12,0.35l0.84,0.74c-0.75-0.55-1.79,0-1.79,0.95v25.61
				c0,0.95,1.04,1.51,1.79,0.95L240.78,198.3z"/>
			<g>
				<path class="st13" d="M234.99,197.03c-0.8-0.33-1.31-1.11-1.31-1.97v-0.18c0,1.13,1.39,1.66,2.15,0.83l33.06-36.58
					c0.96-0.96,2.42-1.21,3.64-0.62l10.55,5.08c1.11,0.53,1.81,1.65,1.81,2.88v0.12c0-1.71-1.98-2.64-3.3-1.56l-39.64,32.51
					l-0.87,0.75c-0.61,0.52-1.47,0.66-2.21,0.35L234.99,197.03z"/>
			</g>
			<g>
				<path class="st14" d="M234.99,170.57c-0.8,0.33-1.31,1.11-1.31,1.97v0.18c0-1.13,1.39-1.66,2.15-0.83l33.06,36.58
					c0.96,0.96,2.42,1.21,3.64,0.62l10.55-5.08c1.11-0.53,1.81-1.65,1.81-2.88V201c0,1.71-1.98,2.64-3.3,1.56l-39.64-32.51
					l-0.87-0.75c-0.61-0.52-1.47-0.66-2.21-0.35L234.99,170.57z"/>
			</g>
			<g>
				<path class="st15" d="M272.6,209.08c-1.21,0.59-2.66,0.34-3.61-0.62c1.17,1.19,3.18,0.35,3.18-1.33v-46.66
					c0-1.68-2.01-2.52-3.18-1.33c0.95-0.96,2.4-1.21,3.61-0.62l10.48,5.1c1.1,0.54,1.8,1.66,1.8,2.9v34.58c0,1.24-0.7,2.36-1.8,2.9
					L272.6,209.08z"/>
			</g>
		</g>
		<g>
			<path class="st10" d="M146.12,308.74v27.28h-4.69v-61.08h12.47c1.62,0,3.24,0.23,4.85,0.7c1.61,0.47,3.05,1.34,4.31,2.6
				s2.29,2.99,3.07,5.18c0.78,2.19,1.17,5.02,1.17,8.48c0,2.47-0.25,4.61-0.75,6.42c-0.5,1.81-1.15,3.35-1.95,4.62
				s-1.69,2.29-2.67,3.07s-1.96,1.38-2.93,1.78l10.5,28.22h-5.3l-9.47-27.28H146.12z M153.43,304.75c1.06,0,2.14-0.18,3.23-0.54
				c1.09-0.36,2.08-1.02,2.95-1.97c0.87-0.95,1.59-2.26,2.16-3.91s0.84-3.8,0.84-6.42s-0.27-4.77-0.82-6.42
				c-0.55-1.66-1.24-2.95-2.09-3.89s-1.78-1.58-2.81-1.92s-2.03-0.52-3-0.52h-7.78v25.59H153.43z"/>
			<path class="st10" d="M185.26,332.27c1,0,1.91-0.2,2.72-0.61c0.81-0.41,1.51-0.98,2.09-1.71c0.58-0.73,1.02-1.62,1.34-2.65
				c0.31-1.03,0.47-2.19,0.47-3.47h4.69c0,1.34-0.17,2.76-0.52,4.24c-0.34,1.48-0.94,2.85-1.78,4.1s-1.99,2.28-3.45,3.09
				s-3.3,1.22-5.55,1.22c-2.31,0-4.2-0.42-5.65-1.27s-2.6-1.93-3.45-3.26s-1.42-2.83-1.73-4.5c-0.31-1.67-0.47-3.35-0.47-5.04
				v-16.45c0-1.69,0.16-3.37,0.47-5.04c0.31-1.67,0.89-3.17,1.73-4.5s1.99-2.41,3.45-3.26s3.34-1.27,5.65-1.27
				c2.31,0,4.2,0.42,5.67,1.27c1.47,0.84,2.62,1.94,3.45,3.28c0.83,1.34,1.4,2.85,1.71,4.52c0.31,1.67,0.47,3.34,0.47,4.99v9.84
				h-17.91v6.61c0,1.78,0.16,3.29,0.49,4.52s0.78,2.25,1.36,3.05c0.58,0.8,1.27,1.38,2.09,1.73
				C183.4,332.09,184.29,332.27,185.26,332.27z M191.87,305.97c0-3.09-0.54-5.51-1.62-7.24s-2.74-2.6-4.99-2.6
				c-2.31,0-3.99,0.87-5.04,2.6c-1.05,1.73-1.57,4.15-1.57,7.24v5.62h13.22V305.97z"/>
			<path class="st10" d="M217.51,296.6h-6.05v39.42h-4.69V296.6h-4.22v-4.22h4.22v-6.52c0-2.38,0.23-4.28,0.68-5.72
				c0.45-1.44,1.04-2.55,1.76-3.33c0.72-0.78,1.55-1.29,2.48-1.52s1.88-0.35,2.81-0.35h3v4.22h-2.06c-1.22,0-2.19,0.41-2.91,1.22
				c-0.72,0.81-1.08,2.25-1.08,4.31v7.69h6.05V296.6z"/>
			<path class="st10" d="M240.8,296.22c-0.25,0-0.52-0.02-0.8-0.05c-0.25,0-0.5-0.01-0.75-0.02c-0.25-0.02-0.5-0.02-0.75-0.02
				c-1.34,0-2.55,0.19-3.61,0.56c-1.06,0.38-2,0.84-2.81,1.38c-0.81,0.55-1.5,1.11-2.06,1.69s-1,1.07-1.31,1.48v34.78h-4.69v-43.64
				h4.69v4.27h0.47c0.84-0.88,1.78-1.66,2.81-2.34c0.87-0.59,1.91-1.14,3.09-1.64c1.19-0.5,2.48-0.75,3.89-0.75
				c0.25,0,0.48,0.01,0.7,0.02c0.22,0.02,0.41,0.02,0.56,0.02c0.19,0.03,0.38,0.05,0.56,0.05V296.22z"/>
			<path class="st10" d="M256.46,332.27c1,0,1.91-0.2,2.72-0.61c0.81-0.41,1.51-0.98,2.09-1.71c0.58-0.73,1.02-1.62,1.34-2.65
				c0.31-1.03,0.47-2.19,0.47-3.47h4.69c0,1.34-0.17,2.76-0.52,4.24c-0.34,1.48-0.94,2.85-1.78,4.1s-1.99,2.28-3.45,3.09
				s-3.3,1.22-5.55,1.22c-2.31,0-4.2-0.42-5.65-1.27s-2.6-1.93-3.45-3.26s-1.42-2.83-1.73-4.5c-0.31-1.67-0.47-3.35-0.47-5.04
				v-16.45c0-1.69,0.16-3.37,0.47-5.04c0.31-1.67,0.89-3.17,1.73-4.5s1.99-2.41,3.45-3.26s3.34-1.27,5.65-1.27
				c2.31,0,4.2,0.42,5.67,1.27c1.47,0.84,2.62,1.94,3.45,3.28c0.83,1.34,1.4,2.85,1.71,4.52c0.31,1.67,0.47,3.34,0.47,4.99v9.84
				h-17.91v6.61c0,1.78,0.16,3.29,0.49,4.52s0.78,2.25,1.36,3.05c0.58,0.8,1.27,1.38,2.09,1.73
				C254.6,332.09,255.49,332.27,256.46,332.27z M263.07,305.97c0-3.09-0.54-5.51-1.62-7.24s-2.74-2.6-4.99-2.6
				c-2.31,0-3.99,0.87-5.04,2.6c-1.05,1.73-1.57,4.15-1.57,7.24v5.62h13.22V305.97z"/>
			<path class="st10" d="M283.55,316.05c-1.28-0.44-2.51-0.98-3.68-1.62s-2.21-1.45-3.12-2.44c-0.91-0.98-1.63-2.17-2.18-3.56
				c-0.55-1.39-0.82-3.07-0.82-5.04c0-1.69,0.24-3.23,0.73-4.64c0.48-1.41,1.2-2.62,2.16-3.63c0.95-1.02,2.13-1.8,3.54-2.37
				s3.03-0.84,4.88-0.84c2.28,0,4.16,0.41,5.62,1.22c1.47,0.81,2.62,1.85,3.47,3.12s1.42,2.67,1.73,4.22
				c0.31,1.55,0.47,3.07,0.47,4.57h-4.69c0-0.81-0.08-1.73-0.23-2.77c-0.16-1.03-0.48-2-0.96-2.91c-0.48-0.91-1.18-1.67-2.09-2.3
				c-0.91-0.62-2.11-0.94-3.61-0.94c-1.34,0-2.43,0.27-3.26,0.8c-0.83,0.53-1.47,1.18-1.92,1.95c-0.45,0.77-0.76,1.56-0.91,2.39
				c-0.16,0.83-0.23,1.54-0.23,2.13c0,1,0.1,1.91,0.3,2.74c0.2,0.83,0.59,1.61,1.17,2.34c0.58,0.73,1.39,1.42,2.44,2.06
				c1.05,0.64,2.43,1.26,4.15,1.85c1.28,0.44,2.52,0.97,3.7,1.59c1.19,0.62,2.23,1.41,3.14,2.37c0.91,0.95,1.63,2.13,2.18,3.54
				c0.55,1.41,0.82,3.11,0.82,5.11c0,1.69-0.24,3.23-0.73,4.64c-0.48,1.41-1.2,2.62-2.16,3.63c-0.95,1.02-2.13,1.8-3.54,2.37
				s-3.03,0.84-4.88,0.84c-2.28,0-4.16-0.41-5.62-1.22c-1.47-0.81-2.62-1.85-3.47-3.12s-1.42-2.67-1.73-4.22
				c-0.31-1.55-0.47-3.07-0.47-4.57h4.69c0,0.81,0.08,1.73,0.23,2.77c0.16,1.03,0.48,2,0.96,2.91c0.48,0.91,1.18,1.67,2.09,2.3
				c0.91,0.62,2.11,0.94,3.61,0.94c1.34,0,2.43-0.27,3.26-0.8c0.83-0.53,1.47-1.18,1.92-1.95c0.45-0.77,0.76-1.56,0.91-2.39
				c0.16-0.83,0.23-1.54,0.23-2.13c0-0.97-0.11-1.88-0.33-2.72c-0.22-0.84-0.63-1.62-1.24-2.34s-1.44-1.4-2.48-2.04
				C286.56,317.26,285.21,316.64,283.55,316.05z"/>
			<path class="st10" d="M303.43,274.94h4.69v21.28h0.47c0.84-0.75,1.75-1.42,2.72-2.02c0.81-0.53,1.76-1.01,2.84-1.43
				s2.21-0.63,3.4-0.63c1.97,0,3.52,0.36,4.64,1.08s1.98,1.62,2.55,2.7c0.58,1.08,0.94,2.24,1.08,3.49s0.21,2.42,0.21,3.52v33.09
				h-4.69v-33c0-2.16-0.41-3.8-1.24-4.95c-0.83-1.14-1.93-1.71-3.3-1.71c-1.19,0-2.31,0.23-3.38,0.7c-1.06,0.47-1.98,0.98-2.77,1.55
				c-0.94,0.66-1.78,1.39-2.53,2.2v35.2h-4.69V274.94z"/>
			<path class="st10" d="M334.18,305.5c0-2.41,0.16-4.75,0.47-7.03c0.31-2.28,0.73-4.47,1.24-6.56s1.1-4.07,1.76-5.93
				s1.33-3.57,2.02-5.13c1.62-3.69,3.47-7.06,5.53-10.12h2.67c-1.66,3.22-3.13,6.7-4.41,10.45c-0.56,1.59-1.1,3.32-1.62,5.18
				s-0.98,3.82-1.38,5.88c-0.41,2.06-0.73,4.21-0.98,6.45c-0.25,2.23-0.38,4.51-0.38,6.82s0.12,4.59,0.38,6.82
				c0.25,2.23,0.58,4.38,0.98,6.45c0.41,2.06,0.87,4.02,1.38,5.88s1.05,3.59,1.62,5.18c1.28,3.75,2.75,7.22,4.41,10.41h-2.67
				c-2.06-3.06-3.91-6.44-5.53-10.12c-0.69-1.56-1.36-3.27-2.02-5.13s-1.24-3.83-1.76-5.91s-0.93-4.25-1.24-6.52
				C334.34,310.29,334.18,307.94,334.18,305.5z"/>
			<path class="st10" d="M366.99,305.5c0,2.44-0.16,4.79-0.47,7.05c-0.31,2.27-0.73,4.44-1.24,6.52s-1.11,4.05-1.78,5.91
				c-0.67,1.86-1.35,3.57-2.04,5.13c-1.63,3.69-3.45,7.06-5.48,10.12h-2.67c1.62-3.19,3.08-6.66,4.36-10.41
				c0.56-1.59,1.1-3.32,1.62-5.18s0.98-3.82,1.41-5.88s0.76-4.21,1.01-6.45c0.25-2.23,0.38-4.51,0.38-6.82s-0.13-4.59-0.38-6.82
				c-0.25-2.23-0.59-4.38-1.01-6.45s-0.89-4.02-1.41-5.88s-1.05-3.59-1.62-5.18c-1.28-3.75-2.73-7.23-4.36-10.45h2.67
				c2.03,3.06,3.86,6.44,5.48,10.12c0.69,1.56,1.37,3.27,2.04,5.13c0.67,1.86,1.27,3.84,1.78,5.93s0.93,4.28,1.24,6.56
				C366.84,300.75,366.99,303.1,366.99,305.5z"/>
			<path class="st10" d="M379.32,297.07h-4.73v-4.69h4.73V297.07z M379.27,336.49l-4.22,4.22h-0.47v-9.38h4.69V336.49z"/>
		</g>
	</g>
	<g>
		<g>
			<path class="st10" d="M436.75,391.1c1.46,0.13,2.81,0.86,3.71,2.01l4.6,5.87c1.17,1.49,1.41,3.47,0.62,5.13l-9.38,19.82
				c-0.79,1.66-2.47,2.73-4.36,2.77l-7.46,0.16c-1.46,0.03-2.88-0.55-3.9-1.6l-14.13-14.45c-1.47-1.51-1.87-3.72-1-5.56l6.24-13.17
				c0.87-1.84,2.83-2.93,4.93-2.75L436.75,391.1z"/>
		</g>
		<path class="st11" d="M443.72,400.04l-4.6-5.87c-0.61-0.77-1.52-1.27-2.51-1.36l-20.13-1.78c-1.42-0.13-2.69,0.61-3.24,1.78
			l-6.24,13.17c-0.55,1.16-0.32,2.61,0.68,3.63l14.13,14.45c0.69,0.71,1.66,1.1,2.64,1.08l7.46-0.16c1.27-0.03,2.36-0.74,2.85-1.79
			l9.38-19.82C444.64,402.33,444.51,401.04,443.72,400.04z M440.46,393.11c-0.9-1.15-2.25-1.88-3.71-2.01l-20.13-1.78
			c-2.1-0.19-4.06,0.91-4.93,2.75l-6.24,13.17c-0.87,1.84-0.47,4.05,1,5.56l14.13,14.45c1.02,1.05,2.44,1.63,3.9,1.6l7.46-0.16
			c1.9-0.04,3.58-1.11,4.36-2.77l9.38-19.82c0.79-1.66,0.54-3.64-0.62-5.13L440.46,393.11z"/>
		<path class="st12" d="M413.31,408.94c-0.38,0.11-0.78-0.01-1.03-0.3l-1.34-1.52c-0.28-0.31-0.34-0.77-0.15-1.15l4.84-10.22
			c0.18-0.39,0.57-0.63,0.99-0.61l2.03,0.07c0.39,0.01,0.73,0.25,0.89,0.61l0.22,0.51c-0.22-0.41-0.81-0.38-1.02,0.05l-5.49,11.59
			c-0.2,0.43,0.15,0.91,0.61,0.82L413.31,408.94z"/>
		<g>
			<path class="st13" d="M410.96,407.12c-0.29-0.32-0.36-0.78-0.17-1.17l0.04-0.08c-0.24,0.51,0.27,1.05,0.79,0.83l22.79-9.47
				c0.64-0.23,1.35-0.03,1.78,0.5l3.68,4.56c0.39,0.48,0.47,1.14,0.2,1.69l-0.03,0.06c0.37-0.77-0.33-1.62-1.16-1.41l-24.9,6.22
				l-0.55,0.15c-0.39,0.11-0.8-0.02-1.07-0.32L410.96,407.12z"/>
		</g>
		<g>
			<path class="st14" d="M416.63,395.15c-0.43-0.02-0.83,0.22-1.02,0.61l-0.04,0.08c0.24-0.51,0.99-0.45,1.15,0.09l7.12,23.63
				c0.23,0.64,0.84,1.06,1.51,1.06l5.86-0.04c0.62,0,1.17-0.36,1.44-0.92l0.03-0.06c-0.37,0.77-1.46,0.77-1.83,0l-10.97-23.2
				l-0.23-0.52c-0.16-0.37-0.52-0.61-0.92-0.63L416.63,395.15z"/>
		</g>
		<g>
			<path class="st15" d="M425.39,420.63c-0.68,0.01-1.28-0.42-1.5-1.06c0.28,0.79,1.36,0.84,1.72,0.08l10-21.11
				c0.36-0.76-0.37-1.57-1.15-1.28c0.64-0.23,1.35-0.03,1.77,0.49l3.65,4.55c0.38,0.48,0.46,1.14,0.19,1.7l-7.41,15.64
				c-0.26,0.56-0.82,0.92-1.44,0.93L425.39,420.63z"/>
		</g>
	</g>
</g>
</svg>
